# File exported by ZBrush version 2021
# www.zbrush.com
#Vertex Count 224
#Face Count 224
#Auto scale x=1.000000 y=1.000000 z=1.000000
#Auto offset x=0.000000 y=0.000000 z=0.000000
v 0.753425 2.51179599 0.28964
v 1.13322699 2.51179695 0.28964
v 0.37000301 2.73250794 0.28964
v 0.37295699 3.10052204 0.29162198
v 0.68298602 3.06970691 0.29162198
v 0.54816198 2.73293399 0.28964
v 0.97123301 2.88172292 0.29162198
v 0.693277 2.65007209 0.28964
v 0.75342398 1.87644004 0.28964
v 1.13322699 1.87644004 0.28964
v 0.75342398 1.24108398 0.28964
v 1.13322699 1.24108398 0.28964
v 2.49103307 0.753178 0.28964
v 2.49103403 1.13298094 0.28964
v 2.71174502 0.36975601 0.28964
v 3.07975697 0.372711 0.29162198
v 3.04894304 0.68274098 0.29162198
v 2.71216893 0.54791498 0.28964
v 2.86095809 0.97098797 0.29162198
v 2.62930798 0.69303202 0.28964
v 2.49103188 -0.75366997 0.28964
v 2.49103307 -1.13347196 0.28964
v 2.71174407 -0.37024799 0.28964
v 3.07975697 -0.37320199 0.29162198
v 3.04894304 -0.683232 0.29162198
v 2.71216893 -0.54840701 0.28964
v 2.86095809 -0.97147899 0.29162198
v 2.62930798 -0.69352197 0.28964
v 1.85567498 -0.75366902 0.28964
v 1.85567498 -1.13347196 0.28964
v 1.855677 1.13298094 0.28964
v 1.85567605 0.753178 0.28964
v 1.22029101 1.13296699 0.28964
v 1.22031998 0.753178 0.28964
v 1.16075599 1.13267004 0.28964
v 0.92164802 0.77786397 0.28964
v 1.13424801 1.17232096 0.28964
v 0.77463597 0.97212398 0.28964
v 0.753425 -2.51179599 0.28964
v 1.13322699 -2.51179695 0.28964
v 0.37000301 -2.73250889 0.28964
v 0.37295699 -3.10052204 0.29162198
v 0.68298602 -3.06970691 0.29162198
v 0.54816198 -2.73293399 0.28964
v 0.97123301 -2.88172411 0.29162198
v 0.693277 -2.65007209 0.28964
v 0.75342398 -1.87644004 0.28964
v 1.13322699 -1.87644004 0.28964
v 0.75342398 -1.24108398 0.28964
v 1.13322699 -1.24108398 0.28964
v 1.22029101 -1.13296699 0.28964
v 1.22031998 -0.753178 0.28964
v 1.16075599 -1.13267004 0.28964
v 0.92164802 -0.77786397 0.28964
v 1.13424801 -1.17232096 0.28964
v 0.77463597 -0.97212302 0.28964
v -0.753425 2.51179599 0.28964
v -1.13322699 2.51179695 0.28964
v -0.37000301 2.73250794 0.28964
v -0.37295699 3.10052204 0.29162198
v -0.68298602 3.06970691 0.29162198
v -0.54816198 2.73293399 0.28964
v -0.97123301 2.88172292 0.29162198
v -0.693277 2.65007209 0.28964
v -0.75342398 1.87644004 0.28964
v -1.13322699 1.87644004 0.28964
v -0.75342398 1.24108398 0.28964
v -1.13322699 1.24108398 0.28964
v -2.49103188 0.753178 0.28964
v -2.49103307 1.13298094 0.28964
v -2.71174407 0.36975601 0.28964
v -3.07975697 0.372711 0.29162198
v -3.04894304 0.68274098 0.29162198
v -2.71216797 0.54791498 0.28964
v -2.86095809 0.97098797 0.29162198
v -2.62930798 0.69303202 0.28964
v -2.49103188 -0.75366997 0.28964
v -2.49103188 -1.13347196 0.28964
v -2.71174311 -0.37024799 0.28964
v -3.07975697 -0.37320199 0.29162198
v -3.04894304 -0.683232 0.29162198
v -2.71216797 -0.54840701 0.28964
v -2.86095809 -0.97147899 0.29162198
v -2.62930798 -0.69352197 0.28964
v -1.85567498 -0.75366902 0.28964
v -1.85567498 -1.13347196 0.28964
v -1.855677 1.13298094 0.28964
v -1.85567605 0.753178 0.28964
v -1.22029101 1.13296699 0.28964
v -1.22031998 0.753178 0.28964
v -1.16075599 1.13267004 0.28964
v -0.92164802 0.77786397 0.28964
v -1.13424801 1.17232096 0.28964
v -0.77463597 0.97212398 0.28964
v -0.753425 -2.51179599 0.28964
v -1.13322699 -2.51179695 0.28964
v -0.37000301 -2.73250889 0.28964
v -0.37295699 -3.10052204 0.29162198
v -0.68298602 -3.06970691 0.29162198
v -0.54816198 -2.73293399 0.28964
v -0.97123301 -2.88172411 0.29162198
v -0.693277 -2.65007209 0.28964
v -0.75342398 -1.87644004 0.28964
v -1.13322699 -1.87644004 0.28964
v -0.75342398 -1.24108398 0.28964
v -1.13322699 -1.24108398 0.28964
v -1.22029101 -1.13296699 0.28964
v -1.22031998 -0.753178 0.28964
v -1.16075599 -1.13267004 0.28964
v -0.92164802 -0.77786397 0.28964
v -1.13424801 -1.17232096 0.28964
v -0.77463597 -0.97212302 0.28964
v 0.97251701 2.88442993 -0.28963297
v 1.13364005 2.51311111 -0.29162198
v 0.753838 2.51310992 -0.29162198
v 0.694561 2.6527791 -0.29161399
v 0.37305799 3.10370111 -0.28963202
v 0.68395799 3.07271504 -0.28963297
v 0.549133 2.73594093 -0.29161399
v 0.37010401 2.73568701 -0.29161298
v 1.13322699 1.87644004 -0.29162198
v 0.75342398 1.87644004 -0.29162198
v 1.13322699 1.24108398 -0.29162198
v 0.75342398 1.24108398 -0.29162198
v 2.8636651 -0.972763 -0.28963297
v 2.49234604 -1.13388502 -0.29162198
v 2.49234509 -0.75408297 -0.29162198
v 2.63201499 -0.69480598 -0.29161399
v 2.7151761 0.54888701 -0.29161399
v 3.05195093 0.683712 -0.28963297
v 3.08293604 0.37281099 -0.28963202
v 2.71492409 0.36985701 -0.29161298
v 2.63201499 0.69431603 -0.29161399
v 2.8636651 0.97227197 -0.28963297
v 2.49234604 0.753591 -0.29162198
v 2.492347 1.133394 -0.29162198
v 3.08293604 -0.37330299 -0.28963202
v 2.7149229 -0.37034899 -0.29161298
v 3.05195093 -0.68420302 -0.28963297
v 2.7151761 -0.54937797 -0.29161399
v 1.85567498 -1.13347196 -0.29162198
v 1.85567498 -0.75366902 -0.29162198
v 1.85567605 0.753178 -0.29162198
v 1.855677 1.13298094 -0.29162198
v 1.22031998 0.753178 -0.29162198
v 1.22029101 1.13296699 -0.29162198
v 0.92164802 0.77786397 -0.29162198
v 1.16075599 1.13267004 -0.29162198
v 0.77463597 0.97212398 -0.29162198
v 1.13424801 1.17232096 -0.29162198
v 0.753838 -2.51310992 -0.29162198
v 1.13364005 -2.51311111 -0.29162198
v 0.97251701 -2.88443088 -0.28963297
v 0.694561 -2.6527791 -0.29161399
v 0.549133 -2.73594188 -0.29161399
v 0.68395799 -3.07271504 -0.28963297
v 0.37305799 -3.10370111 -0.28963202
v 0.37010401 -2.73568797 -0.29161298
v 0.75342398 -1.87644004 -0.29162198
v 1.13322699 -1.87644004 -0.29162198
v 0.75342398 -1.24108398 -0.29162198
v 1.13322699 -1.24108398 -0.29162198
v 1.22029101 -1.13296699 -0.29162198
v 1.16075599 -1.13267004 -0.29162198
v 0.92164802 -0.77786397 -0.29162198
v 1.22031998 -0.753178 -0.29162198
v 1.13424801 -1.17232096 -0.29162198
v 0.77463597 -0.97212302 -0.29162198
v -0.753838 2.51310992 -0.29162198
v -1.13364005 2.51311111 -0.29162198
v -0.97251701 2.88442993 -0.28963297
v -0.694561 2.6527791 -0.29161399
v -0.549133 2.73594093 -0.29161399
v -0.68395799 3.07271504 -0.28963297
v -0.37305799 3.10370111 -0.28963202
v -0.37010401 2.73568701 -0.29161298
v -0.75342398 1.87644004 -0.29162198
v -1.13322699 1.87644004 -0.29162198
v -0.75342398 1.24108398 -0.29162198
v -1.13322699 1.24108398 -0.29162198
v -2.49234509 -0.75408297 -0.29162198
v -2.49234604 -1.13388502 -0.29162198
v -2.8636651 -0.972763 -0.28963297
v -2.63201499 -0.69480598 -0.29161399
v -3.08293604 0.37281099 -0.28963202
v -3.05194997 0.683712 -0.28963297
v -2.7151761 0.54888701 -0.29161399
v -2.7149229 0.36985701 -0.29161298
v -2.8636651 0.97227197 -0.28963297
v -2.63201499 0.69431603 -0.29161399
v -2.492347 1.133394 -0.29162198
v -2.49234604 0.753591 -0.29162198
v -3.08293604 -0.37330299 -0.28963202
v -2.71492195 -0.37034899 -0.29161298
v -2.7151761 -0.54937797 -0.29161399
v -3.05194997 -0.68420302 -0.28963297
v -1.85567498 -0.75366902 -0.29162198
v -1.85567498 -1.13347196 -0.29162198
v -1.855677 1.13298094 -0.29162198
v -1.85567605 0.753178 -0.29162198
v -1.22029101 1.13296699 -0.29162198
v -1.22031998 0.753178 -0.29162198
v -1.16075599 1.13267004 -0.29162198
v -0.92164802 0.77786397 -0.29162198
v -1.13424801 1.17232096 -0.29162198
v -0.77463597 0.97212398 -0.29162198
v -0.97251701 -2.88443088 -0.28963297
v -1.13364005 -2.51311111 -0.29162198
v -0.753838 -2.51310992 -0.29162198
v -0.694561 -2.6527791 -0.29161399
v -0.37305799 -3.10370111 -0.28963202
v -0.68395799 -3.07271504 -0.28963297
v -0.549133 -2.73594188 -0.29161399
v -0.37010401 -2.73568797 -0.29161298
v -1.13322699 -1.87644004 -0.29162198
v -0.75342398 -1.87644004 -0.29162198
v -1.13322699 -1.24108398 -0.29162198
v -0.75342398 -1.24108398 -0.29162198
v -0.92164802 -0.77786397 -0.29162198
v -1.16075599 -1.13267004 -0.29162198
v -1.22029101 -1.13296699 -0.29162198
v -1.22031998 -0.753178 -0.29162198
v -0.77463597 -0.97212302 -0.29162198
v -1.13424801 -1.17232096 -0.29162198
g Group32941
f 116 115 114 113
g Group32944
f 2 7 113 114
f 8 1 115 116
g Group30978
f 8 7 2 1
g Group32941
f 120 119 118 117
g Group32944
f 5 4 117 118
f 3 6 119 120
g Group30978
f 3 4 5 6
g Group32941
f 119 116 113 118
g Group32944
f 7 5 118 113
f 6 8 116 119
g Group30978
f 6 5 7 8
g Group32941
f 115 122 121 114
g Group32944
f 10 2 114 121
f 1 9 122 115
g Group30978
f 1 2 10 9
g Group32941
f 122 124 123 121
g Group32944
f 12 10 121 123
f 9 11 124 122
g Group30978
f 9 10 12 11
g Group32941
f 128 127 126 125
g Group32944
f 22 27 125 126
f 28 21 127 128
g Group30978
f 28 27 22 21
g Group32941
f 132 131 130 129
g Group32944
f 18 15 132 129
f 16 17 130 131
g Group30978
f 15 18 17 16
g Group32941
f 129 130 134 133
g Group32944
f 20 18 129 133
f 17 19 134 130
g Group30978
f 18 20 19 17
g Group32941
f 133 134 136 135
g Group32944
f 13 20 133 135
f 19 14 136 134
g Group30978
f 20 13 14 19
g Group32941
f 138 137 131 132
g Group32944
f 15 23 138 132
f 24 16 131 137
g Group30978
f 23 15 16 24
g Group32941
f 138 140 139 137
g Group32944
f 25 24 137 139
f 23 26 140 138
g Group30978
f 23 24 25 26
g Group32941
f 140 128 125 139
g Group32944
f 27 25 139 125
f 26 28 128 140
g Group30978
f 26 25 27 28
g Group32941
f 127 142 141 126
g Group32944
f 30 22 126 141
f 21 29 142 127
g Group30978
f 21 22 30 29
g Group32941
f 136 144 143 135
g Group32944
f 32 13 135 143
f 14 31 144 136
g Group30978
f 14 13 32 31
g Group32941
f 144 146 145 143
g Group32944
f 34 32 143 145
f 31 33 146 144
g Group30978
f 31 32 34 33
g Group32941
f 145 146 148 147
g Group32944
f 36 34 145 147
f 33 35 148 146
g Group30978
f 34 36 35 33
g Group32941
f 147 148 150 149
g Group32944
f 38 36 147 149
f 35 37 150 148
g Group30978
f 36 38 37 35
g Group32941
f 149 150 123 124
g Group32944
f 11 38 149 124
f 37 12 123 150
g Group30978
f 38 11 12 37
g Group32941
f 154 153 152 151
g Group32944
f 39 46 154 151
f 45 40 152 153
g Group30978
f 46 39 40 45
g Group32941
f 158 157 156 155
g Group32944
f 44 41 158 155
f 42 43 156 157
g Group30978
f 41 44 43 42
g Group32941
f 155 156 153 154
g Group32944
f 46 44 155 154
f 43 45 153 156
g Group30978
f 44 46 45 43
g Group32941
f 151 152 160 159
g Group32944
f 47 39 151 159
f 40 48 160 152
g Group30978
f 39 47 48 40
g Group32941
f 159 160 162 161
g Group32944
f 49 47 159 161
f 48 50 162 160
g Group30978
f 47 49 50 48
g Group32941
f 166 165 164 163
g Group32944
f 53 51 163 164
f 52 54 165 166
g Group30978
f 52 51 53 54
g Group32941
f 165 168 167 164
g Group32944
f 55 53 164 167
f 54 56 168 165
g Group30978
f 54 53 55 56
g Group32941
f 168 161 162 167
g Group32944
f 50 55 167 162
f 56 49 161 168
g Group30978
f 56 55 50 49
g Group32941
f 141 142 166 163
g Group32944
f 51 30 141 163
f 29 52 166 142
g Group30978
f 30 51 52 29
g Group32941
f 172 171 170 169
g Group32944
f 57 64 172 169
f 63 58 170 171
g Group30978
f 64 57 58 63
g Group32941
f 176 175 174 173
g Group32944
f 62 59 176 173
f 60 61 174 175
g Group30978
f 59 62 61 60
g Group32941
f 173 174 171 172
g Group32944
f 64 62 173 172
f 61 63 171 174
g Group30978
f 62 64 63 61
g Group32941
f 169 170 178 177
g Group32944
f 65 57 169 177
f 58 66 178 170
g Group30978
f 57 65 66 58
g Group32941
f 177 178 180 179
g Group32944
f 67 65 177 179
f 66 68 180 178
g Group30978
f 65 67 68 66
g Group32941
f 184 183 182 181
g Group32944
f 77 84 184 181
f 83 78 182 183
g Group30978
f 84 77 78 83
g Group32941
f 188 187 186 185
g Group32944
f 73 72 185 186
f 71 74 187 188
g Group30978
f 71 72 73 74
g Group32941
f 187 190 189 186
g Group32944
f 75 73 186 189
f 74 76 190 187
g Group30978
f 74 73 75 76
g Group32941
f 190 192 191 189
g Group32944
f 70 75 189 191
f 76 69 192 190
g Group30978
f 76 75 70 69
g Group32941
f 194 188 185 193
g Group32944
f 72 80 193 185
f 79 71 188 194
g Group30978
f 79 80 72 71
g Group32941
f 194 193 196 195
g Group32944
f 82 79 194 195
f 80 81 196 193
g Group30978
f 79 82 81 80
g Group32941
f 195 196 183 184
g Group32944
f 84 82 195 184
f 81 83 183 196
g Group30978
f 82 84 83 81
g Group32941
f 181 182 198 197
g Group32944
f 85 77 181 197
f 78 86 198 182
g Group30978
f 77 85 86 78
g Group32941
f 191 192 200 199
g Group32944
f 87 70 191 199
f 69 88 200 192
g Group30978
f 70 87 88 69
g Group32941
f 199 200 202 201
g Group32944
f 89 87 199 201
f 88 90 202 200
g Group30978
f 87 89 90 88
g Group32941
f 202 204 203 201
g Group32944
f 91 89 201 203
f 90 92 204 202
g Group30978
f 90 89 91 92
g Group32941
f 204 206 205 203
g Group32944
f 93 91 203 205
f 92 94 206 204
g Group30978
f 92 91 93 94
g Group32941
f 206 179 180 205
g Group32944
f 68 93 205 180
f 94 67 179 206
g Group30978
f 94 93 68 67
g Group32941
f 210 209 208 207
g Group32944
f 96 101 207 208
f 102 95 209 210
g Group30978
f 102 101 96 95
g Group32941
f 214 213 212 211
g Group32944
f 99 98 211 212
f 97 100 213 214
g Group30978
f 97 98 99 100
g Group32941
f 213 210 207 212
g Group32944
f 101 99 212 207
f 100 102 210 213
g Group30978
f 100 99 101 102
g Group32941
f 209 216 215 208
g Group32944
f 104 96 208 215
f 95 103 216 209
g Group30978
f 95 96 104 103
g Group32941
f 216 218 217 215
g Group32944
f 106 104 215 217
f 103 105 218 216
g Group30978
f 103 104 106 105
g Group32941
f 222 221 220 219
g Group32944
f 110 108 222 219
f 107 109 220 221
g Group30978
f 108 110 109 107
g Group32941
f 219 220 224 223
g Group32944
f 112 110 219 223
f 109 111 224 220
g Group30978
f 110 112 111 109
g Group32941
f 223 224 217 218
g Group32944
f 105 112 223 218
f 111 106 217 224
g Group30978
f 112 105 106 111
g Group32941
f 198 221 222 197
g Group32944
f 108 85 197 222
f 86 107 221 198
g Group30978
f 86 85 108 107
g Group32941
f 175 176 120 117
g Group32944
f 4 60 175 117
f 59 3 120 176
g Group30978
f 60 4 3 59
g Group32941
f 214 211 157 158
g Group32944
f 41 97 214 158
f 98 42 157 211
g Group30978
f 97 41 42 98

 