# File exported by ZBrush version 2021
# www.zbrush.com
#Vertex Count 180
#Face Count 180
#Auto scale x=1.000000 y=1.000000 z=1.000000
#Auto offset x=0.000000 y=0.000000 z=0.000000
v -0.249281 1.77201807 0.25774997
v -0.87289899 1.85713708 0.25774997
v -0.16120399 1.95655202 0.25774997
v -0.63986599 2.35783696 0.25774997
v -0.003608 2.02269196 0.25774997
v -0.00804 2.54801201 0.25774997
v -0.90561199 1.41848504 0.25774997
v -0.270213 1.33400905 0.25774997
v -0.99744397 1.2659831 0.25774997
v -0.51878202 0.86469703 0.25774997
v -1.76820504 0.69748908 0.25774997
v -1.70264494 1.29934907 0.25774997
v -2.35830092 -0.29344093 0.24627798
v -2.02599597 0.18766304 0.25774997
v -2.04710888 0.66869002 0.25774997
v -2.25324893 1.25822901 0.25103998
v -2.68435311 0.11830105 0.24915598
v -2.15472292 0.37985205 0.25774997
v -2.16403698 0.54623407 0.25774997
v -2.65434002 0.73433804 0.24507899
v -1.60889196 0.01522305 0.25774997
v -1.99134504 -0.45828494 0.25678098
v -1.280905 1.17501008 0.25774997
v -1.35667097 0.54926103 0.25774997
v -1.10584294 1.2070471 0.25774997
v -0.89770102 0.61751103 0.25774997
v -1.81070494 -0.65915995 0.25774997
v -1.26630997 -0.35376194 0.25774997
v -1.451321 -1.60181999 0.25149598
v -2.01937794 -1.33079493 0.25022
v -0.60770797 -2.31935405 0.25710898
v -1.00510096 -1.8885349 0.25197598
v -1.478922 -1.80439198 0.24767598
v -2.09921288 -1.87713098 0.23787999
v -1.08059799 -2.5464189 0.25559797
v -1.22046995 -1.9723519 0.24723999
v -1.38488304 -1.9451909 0.24570098
v -1.67529594 -2.38273191 0.23191899
v -0.74567502 -1.51907992 0.25774997
v -0.36687201 -1.99551188 0.25774997
v -1.80613803 -0.94627797 0.25774997
v -1.22858297 -1.22430396 0.25774997
v -1.799263 -0.76844197 0.25774997
v -1.17897296 -0.69570297 0.25774997
v -0.131464 -1.86297798 0.25774997
v -0.311531 -1.26640498 0.25774997
v 0.249281 1.77201807 0.25774997
v 0.87289899 1.85713708 0.25774997
v 0.16120399 1.95655202 0.25774997
v 0.63986599 2.35783696 0.25774997
v 0.131464 -1.86297798 0.25774997
v 0.311531 -1.26640498 0.25774997
v 0.90561199 1.41848504 0.25774997
v 0.270213 1.33400905 0.25774997
v 0.99744397 1.2659831 0.25774997
v 0.51878202 0.86469703 0.25774997
v 1.76820504 0.69748908 0.25774997
v 1.70264494 1.29934907 0.25774997
v 2.35830092 -0.29344093 0.24627798
v 2.02599597 0.18766304 0.25774997
v 2.04710888 0.66869002 0.25774997
v 2.25324893 1.25822901 0.25103998
v 2.68435311 0.11830105 0.24915598
v 2.15472292 0.37985205 0.25774997
v 2.16403698 0.54623407 0.25774997
v 2.65434002 0.73433804 0.24507899
v 1.60889196 0.01522305 0.25774997
v 1.99134504 -0.45828494 0.25678098
v 1.280905 1.17501008 0.25774997
v 1.35667097 0.54926103 0.25774997
v 1.10584294 1.2070471 0.25774997
v 0.89770102 0.61751103 0.25774997
v 1.81070494 -0.65915995 0.25774997
v 1.26630997 -0.35376194 0.25774997
v 1.451321 -1.60181999 0.25149598
v 2.01937794 -1.33079493 0.25022
v 0.60770797 -2.31935405 0.25710898
v 1.00510096 -1.8885349 0.25197598
v 1.478922 -1.80439198 0.24767598
v 2.09921288 -1.87713098 0.23787999
v 1.08059799 -2.5464189 0.25559797
v 1.22046995 -1.9723519 0.24723999
v 1.38488304 -1.9451909 0.24570098
v 1.67529594 -2.38273191 0.23191899
v 0.74567502 -1.51907992 0.25774997
v 0.36687201 -1.99551188 0.25774997
v 1.80613803 -0.94627797 0.25774997
v 1.22858297 -1.22430396 0.25774997
v 1.799263 -0.76844197 0.25774997
v 1.17897296 -0.69570297 0.25774997
v -0.249281 1.77201807 -0.23202802
v -0.16120399 1.95655202 -0.23202802
v -0.63986599 2.35783696 -0.23202802
v -0.87289899 1.85713708 -0.23202802
v -0.003608 2.02269196 -0.23202802
v -0.00804 2.54801201 -0.23202802
v -0.90561199 1.41848504 -0.23202802
v -0.270213 1.33400905 -0.23202802
v -0.99744397 1.2659831 -0.23202802
v -0.51878202 0.86469703 -0.23202802
v -2.2462449 1.25540506 -0.238688
v -2.04010605 0.66586607 -0.23197801
v -1.76612794 0.69635504 -0.23202802
v -1.70056796 1.29821503 -0.23202802
v -2.14666795 0.38175004 -0.231986
v -2.6762979 0.12019905 -0.24058102
v -2.35193395 -0.28957295 -0.24345199
v -2.019629 0.19153104 -0.23197899
v -2.644207 0.73123407 -0.24458502
v -2.15390396 0.54313004 -0.23191301
v -1.98748302 -0.45783093 -0.23299302
v -1.60502994 0.01567705 -0.23202301
v -1.280905 1.17501008 -0.23202802
v -1.35667097 0.54926103 -0.23202802
v -0.89770102 0.61751103 -0.23202802
v -1.10584294 1.2070471 -0.23202802
v -1.81036305 -0.65926194 -0.23202802
v -1.26596796 -0.35386395 -0.23202802
v -2.09291195 -1.86671197 -0.25174802
v -1.47262096 -1.79397296 -0.241951
v -1.446352 -1.5936259 -0.238192
v -2.01440906 -1.32260096 -0.23946802
v -1.20932698 -1.9739449 -0.24243901
v -1.06945502 -2.54801201 -0.23408101
v -0.60240602 -2.32044982 -0.23264502
v -0.99979901 -1.88962996 -0.23777802
v -1.663926 -2.37705302 -0.25774997
v -1.37351298 -1.93951189 -0.24396802
v -0.36455699 -1.99491596 -0.23202802
v -0.74335998 -1.51848399 -0.23202802
v -1.80425798 -0.94292396 -0.23202802
v -1.22670304 -1.22094988 -0.23202802
v -1.17897296 -0.69570297 -0.23202802
v -1.799263 -0.76844197 -0.23202802
v -0.131464 -1.86297798 -0.23202802
v -0.311531 -1.26640498 -0.23202802
v 0.63986599 2.35783696 -0.23202802
v 0.16120399 1.95655202 -0.23202802
v 0.249281 1.77201807 -0.23202802
v 0.87289899 1.85713708 -0.23202802
v 0.90561199 1.41848504 -0.23202802
v 0.270213 1.33400905 -0.23202802
v 0.51878202 0.86469703 -0.23202802
v 0.99744397 1.2659831 -0.23202802
v 1.76612794 0.69635504 -0.23202802
v 2.04010605 0.66586607 -0.23197801
v 2.24624609 1.25540506 -0.238688
v 1.70056796 1.29821503 -0.23202802
v 2.35193395 -0.28957295 -0.24345199
v 2.6762979 0.12019905 -0.24058102
v 2.14666795 0.38175004 -0.231986
v 2.019629 0.19153104 -0.23197899
v 2.15390396 0.54313004 -0.23191301
v 2.644207 0.73123407 -0.24458502
v 1.60502994 0.01567705 -0.23202301
v 1.98748302 -0.45783093 -0.23299302
v 1.280905 1.17501008 -0.23202802
v 1.35667097 0.54926103 -0.23202802
v 1.10584294 1.2070471 -0.23202802
v 0.89770102 0.61751103 -0.23202802
v 1.26596796 -0.35386395 -0.23202802
v 1.81036305 -0.65926194 -0.23202802
v 1.446352 -1.5936259 -0.238192
v 1.47262203 -1.79397296 -0.241951
v 2.09291195 -1.86671197 -0.25174802
v 2.01440906 -1.32260096 -0.23946802
v 0.60240602 -2.32044982 -0.23264502
v 1.06945502 -2.54801201 -0.23408101
v 1.20932698 -1.9739449 -0.24243901
v 0.99979901 -1.88962996 -0.23777802
v 1.37351298 -1.93951189 -0.24396802
v 1.663926 -2.37705302 -0.25774997
v 0.74335998 -1.51848399 -0.23202802
v 0.36455699 -1.99491596 -0.23202802
v 1.80425798 -0.94292396 -0.23202802
v 1.22670304 -1.22094988 -0.23202802
v 1.799263 -0.76844197 -0.23202802
v 1.17897296 -0.69570297 -0.23202802
v 0.311531 -1.26640498 -0.23202802
v 0.131464 -1.86297798 -0.23202802
g Group32941
f 94 93 92 91
g Group32944
f 3 1 91 92
f 2 4 93 94
g Group30120
f 2 1 3 4
g Group32941
f 92 93 96 95
g Group32944
f 5 3 92 95
f 4 6 96 93
g Group30120
f 3 5 6 4
g Group32941
f 98 97 94 91
g Group32944
f 1 8 98 91
f 7 2 94 97
g Group30120
f 8 1 2 7
g Group32941
f 98 100 99 97
g Group32944
f 9 7 97 99
f 8 10 100 98
g Group30120
f 8 7 9 10
g Group32941
f 104 103 102 101
g Group32944
f 16 12 104 101
f 11 15 102 103
g Group30120
f 12 16 15 11
g Group32941
f 108 107 106 105
g Group32944
f 18 14 108 105
f 13 17 106 107
g Group30120
f 14 18 17 13
g Group32941
f 102 110 109 101
g Group32944
f 20 16 101 109
f 15 19 110 102
g Group30120
f 15 16 20 19
g Group32941
f 110 105 106 109
g Group32944
f 17 20 109 106
f 19 18 105 110
g Group30120
f 19 20 17 18
g Group32941
f 107 108 112 111
g Group32944
f 22 13 107 111
f 14 21 112 108
g Group30120
f 13 22 21 14
g Group32941
f 114 103 104 113
g Group32944
f 12 23 113 104
f 24 11 103 114
g Group30120
f 24 23 12 11
g Group32941
f 114 113 116 115
g Group32944
f 26 24 114 115
f 23 25 116 113
g Group30120
f 24 26 25 23
g Group32941
f 112 118 117 111
g Group32944
f 27 22 111 117
f 21 28 118 112
g Group30120
f 21 22 27 28
g Group32941
f 122 121 120 119
g Group32944
f 34 30 122 119
f 29 33 120 121
g Group30120
f 30 34 33 29
g Group32941
f 126 125 124 123
g Group32944
f 36 32 126 123
f 31 35 124 125
g Group30120
f 32 36 35 31
g Group32941
f 120 128 127 119
g Group32944
f 38 34 119 127
f 33 37 128 120
g Group30120
f 33 34 38 37
g Group32941
f 128 123 124 127
g Group32944
f 35 38 127 124
f 37 36 123 128
g Group30120
f 37 38 35 36
g Group32941
f 125 126 130 129
g Group32944
f 40 31 125 129
f 32 39 130 126
g Group30120
f 31 40 39 32
g Group32941
f 132 121 122 131
g Group32944
f 30 41 131 122
f 42 29 121 132
g Group30120
f 42 41 30 29
g Group32941
f 132 131 134 133
g Group32944
f 44 42 132 133
f 41 43 134 131
g Group30120
f 42 44 43 41
g Group32941
f 130 136 135 129
g Group32944
f 45 40 129 135
f 39 46 136 130
g Group30120
f 39 40 45 46
g Group32941
f 100 115 116 99
g Group32944
f 25 9 99 116
f 10 26 115 100
g Group30120
f 10 9 25 26
g Group32941
f 118 133 134 117
g Group32944
f 43 27 117 134
f 28 44 133 118
g Group30120
f 28 27 43 44
g Group32941
f 140 139 138 137
g Group32944
f 50 48 140 137
f 47 49 138 139
g Group30120
f 48 50 49 47
g Group32941
f 138 95 96 137
g Group32944
f 6 50 137 96
f 49 5 95 138
g Group30120
f 49 50 6 5
g Group32941
f 142 139 140 141
g Group32944
f 48 53 141 140
f 54 47 139 142
g Group30120
f 54 53 48 47
g Group32941
f 142 141 144 143
g Group32944
f 56 54 142 143
f 53 55 144 141
g Group30120
f 54 56 55 53
g Group32941
f 148 147 146 145
g Group32944
f 61 57 145 146
f 58 62 147 148
g Group30120
f 58 57 61 62
g Group32941
f 152 151 150 149
g Group32944
f 63 59 149 150
f 60 64 151 152
g Group30120
f 60 59 63 64
g Group32941
f 146 147 154 153
g Group32944
f 65 61 146 153
f 62 66 154 147
g Group30120
f 61 65 66 62
g Group32941
f 153 154 150 151
g Group32944
f 64 65 153 151
f 66 63 150 154
g Group30120
f 65 64 63 66
g Group32941
f 149 156 155 152
g Group32944
f 67 60 152 155
f 59 68 156 149
g Group30120
f 59 60 67 68
g Group32941
f 158 157 148 145
g Group32944
f 57 70 158 145
f 69 58 148 157
g Group30120
f 70 57 58 69
g Group32941
f 158 160 159 157
g Group32944
f 71 69 157 159
f 70 72 160 158
g Group30120
f 70 69 71 72
g Group32941
f 155 156 162 161
g Group32944
f 74 67 155 161
f 68 73 162 156
g Group30120
f 67 74 73 68
g Group32941
f 166 165 164 163
g Group32944
f 79 75 163 164
f 76 80 165 166
g Group30120
f 76 75 79 80
g Group32941
f 170 169 168 167
g Group32944
f 81 77 167 168
f 78 82 169 170
g Group30120
f 78 77 81 82
g Group32941
f 164 165 172 171
g Group32944
f 83 79 164 171
f 80 84 172 165
g Group30120
f 79 83 84 80
g Group32941
f 171 172 168 169
g Group32944
f 82 83 171 169
f 84 81 168 172
g Group30120
f 83 82 81 84
g Group32941
f 167 174 173 170
g Group32944
f 85 78 170 173
f 77 86 174 167
g Group30120
f 77 78 85 86
g Group32941
f 176 175 166 163
g Group32944
f 75 88 176 163
f 87 76 166 175
g Group30120
f 88 75 76 87
g Group32941
f 176 178 177 175
g Group32944
f 89 87 175 177
f 88 90 178 176
g Group30120
f 88 87 89 90
g Group32941
f 173 174 180 179
g Group32944
f 52 85 173 179
f 86 51 180 174
g Group30120
f 85 52 51 86
g Group32941
f 143 144 159 160
g Group32944
f 72 56 143 160
f 55 71 159 144
g Group30120
f 56 72 71 55
g Group32941
f 161 162 177 178
g Group32944
f 90 74 161 178
f 73 89 177 162
g Group30120
f 74 90 89 73
g Group32941
f 135 136 179 180
g Group32944
f 51 45 135 180
f 46 52 179 136
g Group30120
f 45 51 52 46

 