# File exported by ZBrush version 2021
# www.zbrush.com
#Vertex Count 1380
#Face Count 1472
#Auto scale x=1.000000 y=1.000000 z=1.000000
#Auto offset x=0.000000 y=0.000000 z=0.000000
v -2.51288199 1.53455555 0.17317751
v -2.4183681 1.58748865 0.1733345
v -2.51588892 1.42924964 0.17317751
v -2.42394208 1.48361253 0.1733345
v -2.5080831 1.20639264 0.17317751
v -2.41723299 1.26410162 0.1733345
v -2.22341895 1.58208763 0.1733345
v -2.21711397 1.68457853 0.1736655
v -2.5143311 1.31691265 0.17317751
v -2.42515111 1.37283158 0.1733345
v -2.32621407 1.53634858 0.1735005
v -2.31803798 1.63853359 0.1735005
v -2.698174 1.18368756 0.17284549
v -2.68871688 1.06952154 0.17284549
v -2.18071794 1.90420758 0.17366349
v -2.28698301 1.86226558 0.17349851
v -2.60699892 1.25272655 0.17301151
v -2.59771299 1.1407876 0.17301151
v -2.20138502 1.79397261 0.17366451
v -2.3049891 1.74991655 0.17349951
v -2.09743094 1.83351564 0.17382951
v -2.0742011 1.94159758 0.17382849
v -2.14025688 1.31543362 0.17317751
v -2.22683191 1.27036964 0.1733345
v -2.140136 1.41032254 0.17317751
v -2.22897791 1.36674761 0.1733345
v -2.12677097 1.61979758 0.17317751
v -2.40658402 1.16103458 0.1736655
v -2.13579106 1.51440858 0.17317751
v -2.22707605 1.47241461 0.1733345
v -2.32376694 1.31692957 0.1735005
v -2.31721591 1.21808457 0.1735005
v -1.94258594 1.58956158 0.17284549
v -1.92871999 1.69122159 0.17284549
v -2.37721896 0.95343458 0.17366349
v -2.29341292 1.01296055 0.17349851
v -2.03926992 1.55440354 0.17301151
v -2.02776908 1.65795362 0.17301151
v -2.39405202 1.05612754 0.17366451
v -2.30747294 1.11447358 0.17349951
v -1.91061294 1.79359662 0.17284549
v -2.012012 1.76231062 0.17301151
v -1.99339497 1.86818563 0.17382951
v -1.96956098 1.97337162 0.17382849
v -1.88738799 1.89786064 0.17267949
v -2.91184401 0.4011926 0.17317751
v -2.84642791 0.4875476 0.1733345
v -2.8724389 0.3034996 0.17317751
v -2.80994701 0.3901236 0.1733345
v -2.77605795 0.10239459 0.17317751
v -2.71591711 0.19166959 0.1733345
v -2.66562295 0.56064456 0.1733345
v -2.70088005 0.65708762 0.1736655
v -2.82603597 0.20118159 0.17317751
v -2.76669788 0.2881166 0.1733345
v -2.74150705 0.4775716 0.1735005
v -2.7749269 0.57449561 0.1735005
v -2.9411621 0.00549159 0.17284549
v -2.88441395 -0.0933474 0.17284549
v -2.75546002 0.87291759 0.17366349
v -2.83604407 0.79193562 0.17349851
v -2.88525605 0.10526359 0.17301151
v -2.83192801 0.00640359 0.17301151
v -2.7302649 0.76363462 0.17366451
v -2.80756402 0.68177861 0.17349951
v -2.82418203 -0.1878104 0.17284549
v -2.77502799 -0.0882314 0.17301151
v -2.65083909 0.8414886 0.17382951
v -2.67282104 0.94981461 0.17382849
v -2.48266005 0.3495886 0.17317751
v -2.54394698 0.27362859 0.1733345
v -2.52053999 0.4365926 0.17317751
v -2.58450102 0.3610866 0.1733345
v -2.59215593 0.6338886 0.17317751
v -2.66399598 -0.0819634 0.17382951
v -2.60437297 -0.1691714 0.17382849
v -2.66489195 0.10148059 0.1736655
v -2.55822706 0.53370559 0.17317751
v -2.62506794 0.45867559 0.1733345
v -2.65141701 0.27749159 0.1735005
v -2.60583996 0.1895376 0.1735005
v -2.411273 0.6799286 0.17284549
v -2.43926692 0.77863156 0.17284549
v -2.55486989 -0.0769934 0.17366349
v -2.50190496 0.01110159 0.17349851
v -2.48579311 0.60900157 0.17301151
v -2.51671004 0.70848858 0.17301151
v -2.61140489 0.01035159 0.17366451
v -2.55542993 0.09849259 0.17349951
v -2.4636619 0.8796966 0.17284549
v -2.54405403 0.8104366 0.17301151
v -2.56828594 0.91803556 0.17382951
v -2.58692598 1.02443754 0.17382849
v -2.48412489 0.98453956 0.17267949
v -2.75651502 -0.28395241 0.17284549
v -2.71086406 -0.18419539 0.17301151
v -2.65122509 -0.26693439 0.17399551
v -0.59724998 2.88933944 0.17317751
v -0.49412199 2.85618639 0.1733345
v -0.67640799 2.8198328 0.17317751
v -0.57398098 2.78952837 0.1733345
v -0.83428502 2.66233253 0.17317751
v -0.73014301 2.63512277 0.1733345
v -0.36530599 2.70975971 0.1733345
v -0.285966 2.77494049 0.1736655
v -0.75760197 2.74218273 0.17317751
v -0.655927 2.71495437 0.1733345
v -0.46880701 2.75387859 0.1735005
v -0.38841301 2.81748867 0.1735005
v -0.98036402 2.78607082 0.17284549
v -1.05752003 2.7013936 0.17284549
v -0.100357 2.89786577 0.17366349
v -0.20343799 2.9471178 0.17349851
v -0.86770802 2.76632738 0.17301151
v -0.94335997 2.68328762 0.17301151
v -0.19515 2.83792352 0.17366451
v -0.297968 2.88378572 0.17349951
v -0.095393 2.78874063 0.17382951
v -0.000439 2.84533548 0.17382849
v -0.50392597 2.46726465 0.17317751
v -0.59588998 2.4999628 0.1733345
v -0.43435999 2.5318017 0.17317751
v -0.52677798 2.56716775 0.1733345
v -0.27187499 2.6646676 0.17317751
v -0.79836499 2.55712747 0.1736655
v -0.35518699 2.59950161 0.17317751
v -0.448105 2.63774776 0.1733345
v -0.62781101 2.60265159 0.1735005
v -0.69572901 2.5305314 0.1735005
v -0.168575 2.50921058 0.17284549
v -0.084693 2.56829261 0.17284549
v -0.93037802 2.39424562 0.17366349
v -0.829714 2.37341737 0.17349851
v -0.260167 2.55605936 0.17301151
v -0.17651499 2.61815881 0.17301151
v -0.86664998 2.47650337 0.17366451
v -0.76496201 2.45284366 0.17349951
v 0.002604 2.62475442 0.17284549
v -0.089362 2.67769861 0.17301151
v -0.000894 2.73616457 0.17382951
v 0.094097 2.79035472 0.17382849
v 0.094768 2.67875766 0.17267949
v -1.69885504 2.4096136 0.17317751
v -1.59107899 2.42051982 0.1733345
v -1.74355995 2.31422472 0.17317751
v -1.63756895 2.32746744 0.1733345
v -1.825176 2.10669565 0.17317751
v -1.71885001 2.12345361 0.1733345
v -1.41441297 2.33791971 0.1733345
v -1.36780595 2.42941379 0.1736655
v -1.78687799 2.2105627 0.17317751
v -1.68280696 2.22632646 0.1733345
v -1.52692103 2.33690881 0.1735005
v -1.47871804 2.42738151 0.1735005
v -2.00857591 2.16159677 0.17284549
v -2.04230094 2.0527296 0.17284549
v -1.24693596 2.61636972 0.17366349
v -1.36111295 2.62023067 0.17349851
v -1.89744103 2.18860673 0.17301151
v -1.93351805 2.08223152 0.17301151
v -1.309803 2.52349376 0.17366451
v -1.42238199 2.52434539 0.17349951
v -1.19869899 2.5183587 0.17382951
v -1.13434195 2.60822963 0.17382849
v -1.44435095 2.06020546 0.17317751
v -1.54171395 2.05335044 0.1733345
v -1.40644204 2.14718866 0.17317751
v -1.50529098 2.14260959 0.1733345
v -1.31074404 2.33400774 0.17317751
v -1.75013899 2.02466249 0.1736655
v -1.360996 2.24093055 0.17317751
v -1.46145498 2.23877954 0.1733345
v -1.61207902 2.13467264 0.1735005
v -1.64544296 2.04139137 0.1735005
v -1.15384399 2.23290443 0.17284549
v -1.10063195 2.32062959 0.17284549
v -1.80589699 1.82255554 0.17366349
v -1.70531499 1.84377157 0.17349851
v -1.25653195 2.23917245 0.17301151
v -1.20473897 2.32956552 0.17301151
v -1.78043305 1.9234476 0.17366451
v -1.677778 1.94248259 0.17349951
v -1.04324305 2.40732479 0.17284549
v -1.14871299 2.41901254 0.17301151
v -1.086434 2.5100317 0.17382951
v -1.02121305 2.59614658 0.17382849
v -0.98040801 2.4937067 0.17267949
v 1.69583201 2.41183853 0.17317751
v 1.74193501 2.31380653 0.1733345
v 1.59100604 2.42230081 0.17317751
v 1.63871395 2.32672739 0.1733345
v 1.36814701 2.43030738 0.17317751
v 1.41928696 2.33560037 0.1733345
v 1.72273302 2.11972856 0.1733345
v 1.82451796 2.10618257 0.1736655
v 1.47884404 2.42870569 0.17317751
v 1.52829194 2.33579158 0.1733345
v 1.68439304 2.22551059 0.1735005
v 1.78574395 2.21011781 0.1735005
v 1.35897994 2.62153053 0.17284549
v 1.24443304 2.62018871 0.17284549
v 2.0410161 2.05430078 0.17366349
v 2.00671196 2.16327762 0.17349851
v 1.42139399 2.52569055 0.17301151
v 1.30906796 2.52436161 0.17301151
v 1.93252396 2.08273744 0.17366451
v 1.89592099 2.18919754 0.17349951
v 1.96460402 1.97623658 0.17382951
v 2.07075691 1.94540262 0.17382849
v 1.45085597 2.05567741 0.17317751
v 1.41203403 2.14523553 0.1733345
v 1.54550004 2.0488286 0.17317751
v 1.50832498 2.14053964 0.1733345
v 1.75349497 2.02065849 0.17317751
v 1.315719 2.33228159 0.1736655
v 1.64901101 2.03711748 0.17317751
v 1.61359703 2.13115978 0.1733345
v 1.46535098 2.2386198 0.1735005
v 1.36628902 2.23908472 0.1735005
v 1.71028494 1.83907353 0.17284549
v 1.81070303 1.8180356 0.17284549
v 1.10656404 2.31770181 0.17366349
v 1.16000104 2.22988367 0.17349851
v 1.68206501 1.93800962 0.17301151
v 1.78453302 1.91920161 0.17301151
v 1.21018505 2.32721376 0.17366451
v 1.26224803 2.2367196 0.17349951
v 1.91153895 1.79271757 0.17284549
v 1.88751697 1.89608454 0.17301151
v 1.99180698 1.8700056 0.17382951
v 2.09504509 1.83877754 0.17382849
v 2.01389908 1.76216757 0.17267949
v 0.593602 2.89011859 0.17317751
v 0.675094 2.81875038 0.1733345
v 0.493353 2.8577466 0.17317751
v 0.57533401 2.78926372 0.1733345
v 0.28592899 2.77585458 0.17317751
v 0.37071201 2.70954179 0.1733345
v 0.73519998 2.63321781 0.1733345
v 0.83389699 2.66155481 0.1736655
v 0.38800799 2.81870365 0.17317751
v 0.47052198 2.75335359 0.1733345
v 0.65771597 2.7148056 0.1735005
v 0.756756 2.74126482 0.1735005
v 0.20096999 2.94741439 0.17284549
v 0.09836 2.89781475 0.17284549
v 1.05305302 2.70069742 0.17366349
v 0.97799199 2.78682136 0.17349851
v 0.296534 2.88457775 0.17301151
v 0.19413599 2.83839082 0.17301151
v 0.94225502 2.68331337 0.17366451
v 0.86608797 2.76621866 0.17349951
v 1.01428902 2.59857082 0.17382951
v 1.12390697 2.61281442 0.17382849
v 0.51170897 2.46567344 0.17317751
v 0.440281 2.53219652 0.1733345
v 0.60117799 2.49729061 0.17317751
v 0.53039497 2.56644678 0.1733345
v 0.80305701 2.55474567 0.17317751
v 0.277134 2.66503143 0.1736655
v 0.70071798 2.52800464 0.17317751
v 0.63062 2.5999856 0.1733345
v 0.451747 2.63912248 0.1735005
v 0.36078199 2.5998888 0.1735005
v 0.83615899 2.37105274 0.17284549
v 0.93660002 2.3919816 0.17284549
v 0.09131 2.56794071 0.17366349
v 0.175435 2.50886058 0.17349851
v 0.77069002 2.45041561 0.17301151
v 0.87211799 2.47420358 0.17301151
v 0.182455 2.61814355 0.17366451
v 0.266395 2.55605936 0.17349951
v 1.03913795 2.40915346 0.17284549
v 0.975744 2.49425172 0.17301151
v 1.084782 2.5107975 0.17382951
v 1.19224 2.52184963 0.17382849
v 1.14516902 2.42213249 0.17267949
v 2.91144394 0.40499758 0.17317751
v 2.87106204 0.30447459 0.1733345
v 2.84771299 0.4888786 0.17317751
v 2.81022596 0.38886559 0.1733345
v 2.70180392 0.65752059 0.17317751
v 2.66727805 0.55557256 0.1733345
v 2.71587109 0.18635959 0.1733345
v 2.77526807 0.10260459 0.1736655
v 2.77601909 0.57537657 0.17317751
v 2.74165701 0.47589558 0.1733345
v 2.76721811 0.28647658 0.1735005
v 2.8249669 0.20177659 0.1735005
v 2.83558011 0.79446059 0.17284549
v 2.75658989 0.87743061 0.17284549
v 2.88472795 -0.0912434 0.17366349
v 2.9411621 0.00807659 0.17349851
v 2.80790901 0.68349361 0.17301151
v 2.73043894 0.76483261 0.17301151
v 2.83165693 0.00754259 0.17366451
v 2.88468909 0.1068656 0.17349951
v 2.7755239 -0.0884664 0.17382951
v 2.82524299 -0.1871984 0.17382849
v 2.48380994 0.34182259 0.17317751
v 2.52294397 0.43123459 0.1733345
v 2.54325389 0.26785558 0.17317751
v 2.58508706 0.35753259 0.1733345
v 2.66427207 0.09635959 0.17317751
v 2.59431505 0.62915056 0.1736655
v 2.60517311 0.18408659 0.17317751
v 2.64990901 0.2740556 0.1733345
v 2.62764 0.45579558 0.1735005
v 2.56051898 0.52865457 0.1735005
v 2.50188493 0.00434759 0.17284549
v 2.55486989 -0.0835224 0.17284549
v 2.44119906 0.77237361 0.17366349
v 2.41329002 0.67344558 0.17349851
v 2.55510902 0.09237959 0.17301151
v 2.61111998 0.00453859 0.17301151
v 2.51873302 0.70298659 0.17366451
v 2.487926 0.60321861 0.17349951
v 2.60500407 -0.1745904 0.17284549
v 2.66433095 -0.0866124 0.17301151
v 2.71638703 -0.1790024 0.17382951
v 2.76370596 -0.27759841 0.17382849
v 2.65233993 -0.27034941 0.17267949
v 2.51100206 1.53783464 0.17317751
v 2.51424098 1.42955458 0.1733345
v 2.41901803 1.58918964 0.17317751
v 2.42470908 1.48252761 0.1733345
v 2.21779394 1.68530857 0.17317751
v 2.22697401 1.57805454 0.1733345
v 2.41932201 1.25918459 0.1733345
v 2.50728607 1.20620954 0.1736655
v 2.31869101 1.63974463 0.17317751
v 2.32703495 1.53481555 0.1733345
v 2.42629003 1.37148761 0.1735005
v 2.51311898 1.31698858 0.1735005
v 2.28555297 1.86434757 0.17284549
v 2.17935395 1.9057126 0.17284549
v 2.68520402 1.07239353 0.17366349
v 2.69714689 1.18601262 0.17349851
v 2.30462598 1.7515856 0.17301151
v 2.20106792 1.7951076 0.17301151
v 2.5970149 1.14169156 0.17366451
v 2.60584902 1.25392365 0.17349951
v 2.58401799 1.03122758 0.17382951
v 2.669106 0.96065557 0.17382849
v 2.14442992 1.30873155 0.17317751
v 2.14449191 1.40634059 0.1733345
v 2.22851491 1.26474857 0.17317751
v 2.23094606 1.36368465 0.1733345
v 2.40807294 1.15605759 0.17317751
v 2.13065505 1.61628162 0.1736655
v 2.31879401 1.21277654 0.17317751
v 2.32376694 1.31313157 0.1733345
v 2.23059606 1.47076261 0.1735005
v 2.1399219 1.51065254 0.1735005
v 2.29610991 1.00671863 0.17284549
v 2.37983799 0.94743061 0.17284549
v 1.93300402 1.68621158 0.17366349
v 1.94703805 1.58437764 0.17349851
v 2.30963206 1.10870456 0.17301151
v 2.39613008 1.05063462 0.17301151
v 2.03183698 1.65367162 0.17366451
v 2.043545 1.54992556 0.17349951
v 2.46224498 0.88402658 0.17284549
v 2.48138308 0.98840957 0.17301151
v 2.56775903 0.91983258 0.17382951
v 2.64903307 0.84867161 0.17382849
v 2.54396009 0.81523162 0.17267949
v -2.51288199 -1.53454744 0.17317751
v -2.4183681 -1.58747839 0.1733345
v -2.51588892 -1.42924034 0.17317751
v -2.42394208 -1.48360335 0.1733345
v -2.5080831 -1.20638442 0.17317751
v -2.41723299 -1.26409637 0.1733345
v -2.22341895 -1.58207845 0.1733345
v -2.21711397 -1.68456935 0.1736655
v -2.5143311 -1.31690335 0.17317751
v -2.42515111 -1.37282335 0.1733345
v -2.32621407 -1.53634035 0.1735005
v -2.31803798 -1.6385324 0.1735005
v -2.698174 -1.18367946 0.17284549
v -2.68871688 -1.06951236 0.17284549
v -2.18071794 -1.90419936 0.17366349
v -2.28698301 -1.86226046 0.17349851
v -2.60699892 -1.2527194 0.17301151
v -2.59771299 -1.14077937 0.17301151
v -2.20138502 -1.79396343 0.17366451
v -2.3049891 -1.74990844 0.17349951
v -2.09743094 -1.83350741 0.17382951
v -2.0742011 -1.9415884 0.17382849
v -2.14025688 -1.31542539 0.17317751
v -2.22683191 -1.27036035 0.1733345
v -2.140136 -1.41031444 0.17317751
v -2.22897791 -1.36673843 0.1733345
v -2.12677097 -1.6197884 0.17317751
v -2.40658402 -1.1610254 0.1736655
v -2.13579106 -1.51440036 0.17317751
v -2.22707605 -1.47240746 0.1733345
v -2.32376694 -1.3169204 0.1735005
v -2.31721591 -1.21807241 0.1735005
v -1.94258594 -1.5895574 0.17284549
v -1.92871999 -1.69121635 0.17284549
v -2.37721896 -0.9534254 0.17366349
v -2.29341292 -1.01295244 0.17349851
v -2.03926992 -1.55439543 0.17301151
v -2.02776908 -1.65794742 0.17301151
v -2.39405202 -1.05611944 0.17366451
v -2.30747294 -1.11446535 0.17349951
v -1.91061294 -1.7935884 0.17284549
v -2.012012 -1.76230537 0.17301151
v -1.99339497 -1.86818039 0.17382951
v -1.96956098 -1.9733634 0.17382849
v -1.88738799 -1.89785134 0.17267949
v -2.91184401 -0.40118339 0.17317751
v -2.84642791 -0.48753839 0.1733345
v -2.8724389 -0.30349141 0.17317751
v -2.80994701 -0.39011541 0.1733345
v -2.66562295 -0.5606364 0.1733345
v -2.70088005 -0.65707939 0.1736655
v -2.74150705 -0.47756341 0.1735005
v -2.7749269 -0.57448738 0.1735005
v -2.75546002 -0.8729074 0.17366349
v -2.83604407 -0.79192638 0.17349851
v -2.7302649 -0.76362538 0.17366451
v -2.80756402 -0.68176943 0.17349951
v -2.65083909 -0.84147942 0.17382951
v -2.67282104 -0.94980537 0.17382849
v -2.48266005 -0.3495804 0.17317751
v -2.53665494 -0.2684094 0.1733345
v -2.52053999 -0.4365834 0.17317751
v -2.58450102 -0.36107739 0.1733345
v -2.59215593 -0.63388037 0.17317751
v -2.55822706 -0.53369641 0.17317751
v -2.62506794 -0.45866739 0.1733345
v -2.411273 -0.67991942 0.17284549
v -2.43926692 -0.7786234 0.17284549
v -2.48579311 -0.60899341 0.17301151
v -2.51671004 -0.70848041 0.17301151
v -2.4636619 -0.87968742 0.17284549
v -2.54405403 -0.81042838 0.17301151
v -2.56828594 -0.9180274 0.17382951
v -2.58692598 -1.02442538 0.17382849
v -2.48412489 -0.98453038 0.17267949
v -0.59724998 -2.88932943 0.17317751
v -0.49412199 -2.85617733 0.1733345
v -0.67640799 -2.8198204 0.17317751
v -0.57398098 -2.78952121 0.1733345
v -0.83428502 -2.66232633 0.17317751
v -0.73014301 -2.63511848 0.1733345
v -0.36530599 -2.70975017 0.1733345
v -0.285966 -2.77493429 0.1736655
v -0.75760197 -2.74217319 0.17317751
v -0.655927 -2.71494627 0.1733345
v -0.46880701 -2.75386238 0.1735005
v -0.38841301 -2.81747961 0.1735005
v -0.98036402 -2.78606319 0.17284549
v -1.05752003 -2.7013812 0.17284549
v -0.100357 -2.89785718 0.17366349
v -0.20343799 -2.9471054 0.17349851
v -0.86770802 -2.76631546 0.17301151
v -0.94335997 -2.68328237 0.17301151
v -0.19515 -2.83791828 0.17366451
v -0.297968 -2.88377523 0.17349951
v -0.095393 -2.78872823 0.17382951
v -0.000439 -2.84533023 0.17382849
v -0.50392597 -2.4672594 0.17317751
v -0.59588998 -2.49995327 0.1733345
v -0.43435999 -2.53179121 0.17317751
v -0.52677798 -2.56715917 0.1733345
v -0.27187499 -2.6646595 0.17317751
v -0.79836499 -2.55712223 0.1736655
v -0.35518699 -2.59949445 0.17317751
v -0.448105 -2.63774251 0.1733345
v -0.62781101 -2.60264539 0.1735005
v -0.69572901 -2.53052234 0.1735005
v -0.168575 -2.50919818 0.17284549
v -0.084693 -2.56828832 0.17284549
v -0.93037802 -2.39423751 0.17366349
v -0.829714 -2.37340831 0.17349851
v -0.260167 -2.5560503 0.17301151
v -0.17651499 -2.61815023 0.17301151
v -0.86664998 -2.47649526 0.17366451
v -0.76496201 -2.45283222 0.17349951
v 0.002604 -2.62474536 0.17284549
v -0.089362 -2.67769336 0.17301151
v -0.000894 -2.73615646 0.17382951
v 0.094097 -2.79034519 0.17382849
v 0.094768 -2.6787486 0.17267949
v -1.69885504 -2.40960454 0.17317751
v -1.59107899 -2.42051029 0.1733345
v -1.74355995 -2.31421661 0.17317751
v -1.63756895 -2.32745838 0.1733345
v -1.825176 -2.10668754 0.17317751
v -1.71885001 -2.1234436 0.1733345
v -1.41441297 -2.3379116 0.1733345
v -1.36780595 -2.42940139 0.1736655
v -1.78687799 -2.21055316 0.17317751
v -1.68280696 -2.2263174 0.1733345
v -1.52692103 -2.33689642 0.1735005
v -1.47871804 -2.4273734 0.1735005
v -2.00857591 -2.16158819 0.17284549
v -2.04230094 -2.05272436 0.17284549
v -1.24693596 -2.61635732 0.17366349
v -1.36111295 -2.62022161 0.17349851
v -1.89744103 -2.18859863 0.17301151
v -1.93351805 -2.0822196 0.17301151
v -1.309803 -2.52348423 0.17366451
v -1.42238199 -2.52434349 0.17349951
v -1.19869899 -2.5183506 0.17382951
v -1.13434195 -2.60822057 0.17382849
v -1.44435095 -2.06019353 0.17317751
v -1.54171395 -2.05334234 0.1733345
v -1.40644204 -2.14718341 0.17317751
v -1.50529098 -2.14260053 0.1733345
v -1.31074404 -2.33399534 0.17317751
v -1.75013899 -2.02465057 0.1736655
v -1.360996 -2.24092245 0.17317751
v -1.46145498 -2.23877143 0.1733345
v -1.61207902 -2.13466453 0.1735005
v -1.64544296 -2.04138326 0.1735005
v -1.15384399 -2.23289632 0.17284549
v -1.10063195 -2.32062149 0.17284549
v -1.80589699 -1.82254743 0.17366349
v -1.70531499 -1.84375941 0.17349851
v -1.25653195 -2.23916339 0.17301151
v -1.20473897 -2.3295536 0.17301151
v -1.78043305 -1.92343843 0.17366451
v -1.677778 -1.94247341 0.17349951
v -1.04324305 -2.40731525 0.17284549
v -1.14871299 -2.41900062 0.17301151
v -1.086434 -2.51002264 0.17382951
v -1.02121305 -2.59613752 0.17382849
v -0.98040801 -2.49369716 0.17267949
v 1.69583201 -2.41183042 0.17317751
v 1.74193501 -2.31380224 0.1733345
v 1.59100604 -2.42229223 0.17317751
v 1.63871395 -2.32671833 0.1733345
v 1.36814701 -2.43030357 0.17317751
v 1.41928696 -2.33559131 0.1733345
v 1.72273302 -2.11972045 0.1733345
v 1.82451796 -2.10617446 0.1736655
v 1.47884404 -2.42869329 0.17317751
v 1.52829194 -2.33578062 0.1733345
v 1.68439304 -2.22550153 0.1735005
v 1.78574395 -2.21010541 0.1735005
v 1.35897994 -2.62152242 0.17284549
v 1.24443304 -2.62017536 0.17284549
v 2.0410161 -2.05429458 0.17366349
v 2.00671196 -2.16327238 0.17349851
v 1.42139399 -2.52568244 0.17301151
v 1.30906796 -2.52434825 0.17301151
v 1.93252396 -2.08272838 0.17366451
v 1.89592099 -2.18918943 0.17349951
v 1.96460402 -1.97622835 0.17382951
v 2.07075691 -1.94539046 0.17382849
v 1.45085597 -2.0556612 0.17317751
v 1.41203403 -2.14522743 0.1733345
v 1.54550004 -2.0488162 0.17317751
v 1.50832498 -2.14053154 0.1733345
v 1.75349497 -2.02065038 0.17317751
v 1.315719 -2.33227348 0.1736655
v 1.64901101 -2.03710842 0.17317751
v 1.61359703 -2.13115024 0.1733345
v 1.46535098 -2.2386074 0.1735005
v 1.36628902 -2.23907661 0.1735005
v 1.71028494 -1.83906543 0.17284549
v 1.81070303 -1.81802344 0.17284549
v 1.10656404 -2.31769323 0.17366349
v 1.16000104 -2.22987556 0.17349851
v 1.68206501 -1.93799746 0.17301151
v 1.78453302 -1.91919243 0.17301151
v 1.21018505 -2.32720518 0.17366451
v 1.26224803 -2.2367115 0.17349951
v 1.91153895 -1.79270839 0.17284549
v 1.88751697 -1.89607942 0.17301151
v 1.99180698 -1.87000036 0.17382951
v 2.09504509 -1.83876943 0.17382849
v 2.01389908 -1.76215839 0.17267949
v 0.593602 -2.89010953 0.17317751
v 0.675094 -2.81873846 0.1733345
v 0.493353 -2.8577404 0.17317751
v 0.57533401 -2.78924942 0.1733345
v 0.28592899 -2.77584648 0.17317751
v 0.37071201 -2.70953321 0.1733345
v 0.73519998 -2.63320827 0.1733345
v 0.83389699 -2.66154241 0.1736655
v 0.38800799 -2.8186984 0.17317751
v 0.47052198 -2.75334835 0.1733345
v 0.65771597 -2.71479749 0.1735005
v 0.756756 -2.74126052 0.1735005
v 0.20096999 -2.94741439 0.17284549
v 0.09836 -2.89780521 0.17284549
v 1.05305302 -2.7006855 0.17366349
v 0.97799199 -2.78680944 0.17349851
v 0.296534 -2.8845644 0.17301151
v 0.19413599 -2.83838462 0.17301151
v 0.94225502 -2.68330526 0.17366451
v 0.86608797 -2.76620817 0.17349951
v 1.01428902 -2.59855842 0.17382951
v 1.12390697 -2.61280918 0.17382849
v 0.51170897 -2.46566534 0.17317751
v 0.440281 -2.53218936 0.1733345
v 0.60117799 -2.49728155 0.17317751
v 0.53039497 -2.56643819 0.1733345
v 0.80305701 -2.55473661 0.17317751
v 0.277134 -2.66502523 0.1736655
v 0.70071798 -2.52799558 0.17317751
v 0.63062 -2.59997749 0.1733345
v 0.451747 -2.63911056 0.1735005
v 0.36078199 -2.59987926 0.1735005
v 0.83615899 -2.37103843 0.17284549
v 0.93660002 -2.39197349 0.17284549
v 0.09131 -2.56792736 0.17366349
v 0.175435 -2.50884962 0.17349851
v 0.77069002 -2.45040655 0.17301151
v 0.87211799 -2.47419548 0.17301151
v 0.182455 -2.61813831 0.17366451
v 0.266395 -2.55604744 0.17349951
v 1.03913795 -2.40913724 0.17284549
v 0.975744 -2.49424362 0.17301151
v 1.084782 -2.51078939 0.17382951
v 1.19224 -2.52184057 0.17382849
v 1.14516902 -2.42212438 0.17267949
v 2.91144394 -0.4049884 0.17317751
v 2.87106204 -0.30446541 0.1733345
v 2.84771299 -0.48887041 0.17317751
v 2.81022596 -0.38885641 0.1733345
v 2.70180392 -0.65751242 0.17317751
v 2.66727805 -0.5555644 0.1733345
v 2.77601909 -0.5753684 0.17317751
v 2.74165701 -0.4758864 0.1733345
v 2.83558011 -0.79445242 0.17284549
v 2.75658989 -0.8774234 0.17284549
v 2.80790901 -0.6834824 0.17301151
v 2.73043894 -0.76482337 0.17301151
v 2.48380994 -0.34181141 0.17317751
v 2.52294397 -0.4312264 0.1733345
v 2.54325389 -0.2678464 0.17317751
v 2.58508706 -0.35752439 0.1733345
v 2.59431505 -0.6291424 0.1736655
v 2.62764 -0.45578739 0.1735005
v 2.56051898 -0.52864641 0.1735005
v 2.44119906 -0.77236741 0.17366349
v 2.41329002 -0.6734364 0.17349851
v 2.51873302 -0.70297741 0.17366451
v 2.487926 -0.60320937 0.17349951
v 2.51100206 -1.53782641 0.17317751
v 2.51424098 -1.4295454 0.1733345
v 2.41901803 -1.58918142 0.17317751
v 2.42470908 -1.48251843 0.1733345
v 2.21779394 -1.68530035 0.17317751
v 2.22697401 -1.57804644 0.1733345
v 2.41932201 -1.25917935 0.1733345
v 2.50728607 -1.20620143 0.1736655
v 2.31869101 -1.63973546 0.17317751
v 2.32703495 -1.53480637 0.1733345
v 2.42629003 -1.37147843 0.1735005
v 2.51311898 -1.3169794 0.1735005
v 2.28555297 -1.86433935 0.17284549
v 2.17935395 -1.90570044 0.17284549
v 2.68520402 -1.07238543 0.17366349
v 2.69714689 -1.18600845 0.17349851
v 2.30462598 -1.75157642 0.17301151
v 2.20106792 -1.79510235 0.17301151
v 2.5970149 -1.14168345 0.17366451
v 2.60584902 -1.25391542 0.17349951
v 2.58401799 -1.03121936 0.17382951
v 2.669106 -0.96064537 0.17382849
v 2.14442992 -1.30872345 0.17317751
v 2.14449191 -1.40633142 0.1733345
v 2.22851491 -1.26473939 0.17317751
v 2.23094606 -1.36367344 0.1733345
v 2.40807294 -1.15604937 0.17317751
v 2.13065505 -1.61627543 0.1736655
v 2.31879401 -1.21277046 0.17317751
v 2.32376694 -1.31312334 0.1733345
v 2.23059606 -1.47075235 0.1735005
v 2.1399219 -1.51064443 0.1735005
v 2.29610991 -1.00670945 0.17284549
v 2.37983799 -0.94742143 0.17284549
v 1.93300402 -1.6862024 0.17366349
v 1.94703805 -1.58436942 0.17349851
v 2.30963206 -1.10869336 0.17301151
v 2.39613008 -1.05063045 0.17301151
v 2.03183698 -1.65365946 0.17366451
v 2.043545 -1.54991436 0.17349951
v 2.46224498 -0.8840174 0.17284549
v 2.48138308 -0.9884004 0.17301151
v 2.56775903 -0.91982442 0.17382951
v 2.64903307 -0.84866237 0.17382849
v 2.54396009 -0.81522339 0.17267949
v -2.51228189 1.53453159 -0.1734815
v -2.41776895 1.58745658 -0.17332451
v -2.42334103 1.48359155 -0.17332451
v -2.51528811 1.4292376 -0.1734815
v -2.42455911 1.37285161 -0.17332451
v -2.51373505 1.31693863 -0.1734815
v -2.41677904 1.26385057 -0.17332451
v -2.50749111 1.20643258 -0.1734815
v -2.31772589 1.63868558 -0.17315949
v -2.32604408 1.53661859 -0.17315949
v -2.21694588 1.68482756 -0.1729945
v -2.22384691 1.58239364 -0.17332451
v -2.59655094 1.14002358 -0.17364849
v -2.60640096 1.25277161 -0.1736475
v -2.68727397 1.06835365 -0.17381249
v -2.69758009 1.18373656 -0.1738135
v -2.30439591 1.74982261 -0.17315949
v -2.20079302 1.79386961 -0.1729945
v -2.28639388 1.86215961 -0.1731605
v -2.18012905 1.90409362 -0.17299549
v -2.07360792 1.94048762 -0.1728325
v -2.09713602 1.83345258 -0.17282949
v -2.14087605 1.31542754 -0.1734815
v -2.22744393 1.2703526 -0.17332451
v -2.22959089 1.36674261 -0.17332451
v -2.14075303 1.41032862 -0.1734815
v -2.22768092 1.47244155 -0.17332451
v -2.13639807 1.51444661 -0.1734815
v -2.12737488 1.61984455 -0.1734815
v -2.31751298 1.2178756 -0.17315949
v -2.32390689 1.31664562 -0.17315949
v -2.40672707 1.16073358 -0.17299349
v -2.0283811 1.65803253 -0.1736475
v -2.03988409 1.55447161 -0.1736475
v -1.92932999 1.69131064 -0.1738135
v -1.94319999 1.58963763 -0.1738135
v -2.30808401 1.11439859 -0.17315949
v -2.39336609 1.05618262 -0.17299948
v -2.29402399 1.01287257 -0.1731605
v -2.3758831 0.95354658 -0.1729985
v -2.01365208 1.76316463 -0.17364548
v -1.91063296 1.79381763 -0.1738245
v -1.96896505 1.97176754 -0.17283149
v -1.99473094 1.8689866 -0.17282949
v -1.88711297 1.89814162 -0.17399551
v -2.91128492 0.40140959 -0.1734815
v -2.84586501 0.48775759 -0.17332451
v -2.80938792 0.39034459 -0.17332451
v -2.8718841 0.30372959 -0.1734815
v -2.76616406 0.28837159 -0.17332451
v -2.82550096 0.20144459 -0.1734815
v -2.71539998 0.1916216 -0.17332451
v -2.77553105 0.10266859 -0.1734815
v -2.77470207 0.57476061 -0.17315949
v -2.74146008 0.47788658 -0.17315949
v -2.70082593 0.6573826 -0.1729945
v -2.66613793 0.56075459 -0.17332451
v -2.83140397 0.00669959 -0.1736475
v -2.884727 0.10554959 -0.1736475
v -2.88389492 -0.0930424 -0.1738135
v -2.94063711 0.00578359 -0.1738135
v -2.80698299 0.68192958 -0.17315949
v -2.72968101 0.7637766 -0.1729945
v -2.8354609 0.79207462 -0.1731605
v -2.75487494 0.87304961 -0.17299549
v -2.77452302 -0.0879024 -0.1736475
v -2.824126 -0.18789041 -0.17381449
v -2.67185998 0.9490596 -0.1728325
v -2.65054392 0.84154862 -0.17282949
v -2.48322391 0.34933561 -0.1734815
v -2.54450106 0.27336859 -0.17332451
v -2.58505988 0.36083659 -0.17332451
v -2.52110791 0.43635159 -0.1734815
v -2.625633 0.4584586 -0.17332451
v -2.55879902 0.53349661 -0.1734815
v -2.59272909 0.63369059 -0.1734815
v -2.60602808 0.18922659 -0.17315949
v -2.65143203 0.2771756 -0.17315949
v -2.66490292 0.10114859 -0.17299349
v -2.51730203 0.70831662 -0.1736475
v -2.48638296 0.60881859 -0.1736475
v -2.43986296 0.7784686 -0.1738135
v -2.4118669 0.67975157 -0.1738135
v -2.55595994 0.09817859 -0.17315949
v -2.61192989 0.01003059 -0.1729945
v -2.50242996 0.01077559 -0.1731605
v -2.55538892 -0.0773244 -0.17299549
v -2.54590702 0.81056559 -0.17364548
v -2.46380305 0.87988656 -0.17382349
v -2.60431504 -0.1690974 -0.17283649
v -2.66291403 -0.0821954 -0.17283149
v -2.58577799 1.02324354 -0.1728305
v -2.56983995 0.91823858 -0.17282949
v -2.48403906 0.98490059 -0.17399449
v -2.7092781 -0.1840884 -0.17364548
v -2.75668692 -0.28423041 -0.17381449
v -2.65088295 -0.26665541 -0.17267148
v -0.59685999 2.88888454 -0.1734815
v -0.49373799 2.85572481 -0.17332451
v -0.57358801 2.78907442 -0.17332451
v -0.67600798 2.81938457 -0.1734815
v -0.65551 2.71453476 -0.17332451
v -0.75717699 2.74176454 -0.1734815
v -0.73001802 2.63461971 -0.17332451
v -0.83385199 2.66192674 -0.1734815
v -0.388089 2.81736373 -0.17315949
v -0.46849501 2.75393772 -0.17315949
v -0.28566899 2.77498769 -0.1729945
v -0.36537298 2.71028137 -0.17332451
v -0.94312799 2.68191576 -0.17364849
v -0.86726802 2.76592063 -0.1736475
v -1.05739295 2.69954156 -0.17381249
v -0.97992301 2.78566837 -0.1738135
v -0.29763299 2.88328743 -0.17315949
v -0.19482299 2.83742046 -0.1729945
v -0.203114 2.94661378 -0.1731605
v -0.10003899 2.89735651 -0.17299549
v -0.000858 2.8441267 -0.1728325
v -0.09523899 2.78848171 -0.17282949
v -0.50435197 2.46771383 -0.1734815
v -0.59631902 2.50039863 -0.17332451
v -0.52719897 2.56761264 -0.17332451
v -0.43477499 2.5322566 -0.1734815
v -0.44849699 2.63820838 -0.17332451
v -0.35557299 2.59997177 -0.1734815
v -0.27225101 2.66514253 -0.1734815
v -0.69608497 2.53060674 -0.17315949
v -0.62811398 2.60256147 -0.17315949
v -0.79868298 2.55702781 -0.17299349
v -0.17687299 2.61866045 -0.1736475
v -0.260535 2.55655574 -0.1736475
v -0.08504399 2.56880044 -0.1738135
v -0.16893799 2.50971269 -0.1738135
v -0.76543301 2.45323944 -0.17315949
v -0.86614298 2.47603845 -0.17299948
v -0.83019602 2.37380456 -0.1731605
v -0.92938602 2.39334344 -0.1729985
v -0.089854 2.67947578 -0.17364548
v 0.002764 2.62489748 -0.1738245
v 0.093313 2.78879737 -0.17283149
v -0.001217 2.73768377 -0.17282949
v 0.095178 2.6787157 -0.17399551
v -1.69831597 2.40935182 -0.1734815
v -1.590541 2.42025041 -0.17332451
v -1.63702702 2.32720851 -0.17332451
v -1.74301397 2.31397438 -0.1734815
v -1.68225598 2.22610855 -0.17332451
v -1.78632199 2.21034956 -0.1734815
v -1.71853399 2.12304258 -0.17332451
v -1.82461702 2.10649681 -0.1734815
v -1.47837197 2.42739772 -0.17315949
v -1.52665805 2.33708858 -0.17315949
v -1.36755299 2.42957449 -0.1729945
v -1.41468405 2.33837175 -0.17332451
v -1.932742 2.08103561 -0.17364849
v -1.89687097 2.18841362 -0.1736475
v -2.04141998 2.05103445 -0.17381249
v -2.00800395 2.16141176 -0.1738135
v -1.421875 2.52402353 -0.17315949
v -1.30930101 2.52316236 -0.1729945
v -1.36061394 2.61989879 -0.1731605
v -1.246441 2.61603069 -0.17299549
v -1.13424098 2.60701179 -0.1728325
v -1.19845295 2.5181837 -0.17282949
v -1.44492101 2.06044673 -0.1734815
v -1.54228198 2.0535798 -0.17332451
v -1.50585496 2.14284849 -0.17332451
v -1.40700495 2.14743948 -0.1734815
v -1.46199905 2.23904466 -0.17332451
v -1.361539 2.2412076 -0.1734815
v -1.31127905 2.33429241 -0.1734815
v -1.64579904 2.04131746 -0.17315949
v -1.61231994 2.1344676 -0.17315949
v -1.75039005 2.02444362 -0.17299349
v -1.20526897 2.32988166 -0.1736475
v -1.25706803 2.23947954 -0.1736475
v -1.10115695 2.32095336 -0.1738135
v -1.15437805 2.23321962 -0.1738135
v -1.67836904 1.94265759 -0.17315949
v -1.77975297 1.92321562 -0.17299948
v -1.70591104 1.84393358 -0.1731605
v -1.80458402 1.82211458 -0.17299948
v -1.149881 2.42045736 -0.17364548
v -1.04320001 2.40755748 -0.17382349
v -1.02130603 2.59449243 -0.17283149
v -1.08734405 2.51130676 -0.17282949
v -0.98008501 2.49388837 -0.17399449
v 1.69576501 2.41124343 -0.1734815
v 1.74186003 2.31321048 -0.17332451
v 1.63864994 2.32612943 -0.17332451
v 1.59095096 2.42170238 -0.1734815
v 1.52826905 2.33519983 -0.17332451
v 1.47882902 2.4281106 -0.1734815
v 1.41900396 2.3351655 -0.17332451
v 1.36814498 2.42971468 -0.1734815
v 1.78587305 2.20979547 -0.17315949
v 1.68464899 2.22532177 -0.17315949
v 1.824754 2.10599756 -0.1729945
v 1.72306895 2.12013483 -0.17332451
v 1.308223 2.52325582 -0.17364849
v 1.42139697 2.52509069 -0.1736475
v 1.24316597 2.61883163 -0.17381249
v 1.35898697 2.62093448 -0.1738135
v 1.89578497 2.18861246 -0.17315949
v 1.93237996 2.08215475 -0.1729945
v 2.00656509 2.16269636 -0.1731605
v 2.04086089 2.05372142 -0.17299549
v 2.06960797 1.94488954 -0.1728325
v 1.96451997 1.97594761 -0.17282949
v 1.45089304 2.05629539 -0.1734815
v 1.41206002 2.14584636 -0.17332451
v 1.508363 2.14115142 -0.17332451
v 1.54554903 2.04944276 -0.1734815
v 1.61366605 2.13176059 -0.17332451
v 1.64909195 2.03772068 -0.1734815
v 1.75358605 2.02125883 -0.1734815
v 1.36610102 2.23939561 -0.17315949
v 1.46507704 2.23877859 -0.17315949
v 1.31542897 2.33244562 -0.17299349
v 1.78465497 1.91980564 -0.1736475
v 1.68217694 1.93861758 -0.1736475
v 1.810835 1.81863856 -0.1738135
v 1.71040403 1.83968162 -0.1738135
v 1.26221704 2.23733472 -0.17315949
v 1.21019005 2.32652473 -0.17299948
v 1.15995597 2.23049974 -0.1731605
v 1.10658204 2.31636142 -0.1729985
v 1.88848495 1.89765954 -0.17364548
v 1.91176104 1.79272055 -0.1738245
v 2.0934031 1.8382976 -0.1728305
v 1.99270105 1.87128055 -0.17282949
v 2.01415991 1.7618736 -0.17399551
v 0.59377902 2.88954544 -0.1734815
v 0.675264 2.81817436 -0.17332451
v 0.57551497 2.78869056 -0.17332451
v 0.49354299 2.85717678 -0.1734815
v 0.47073799 2.75280237 -0.17332451
v 0.38823199 2.81815147 -0.1734815
v 0.37062698 2.70903062 -0.17332451
v 0.28616398 2.77530956 -0.1734815
v 0.75700402 2.74102163 -0.17315949
v 0.65802699 2.71473646 -0.17315949
v 0.83418697 2.66147947 -0.1729945
v 0.73534601 2.63372373 -0.17332451
v 0.193779 2.83698844 -0.17364849
v 0.296781 2.88402843 -0.1736475
v 0.097704 2.89598751 -0.17381249
v 0.20122399 2.9468708 -0.1738135
v 0.866198 2.76562881 -0.17315949
v 0.94235599 2.68272161 -0.1729945
v 0.97808897 2.78623056 -0.1731605
v 1.05314302 2.70010471 -0.17299549
v 1.12308597 2.61190938 -0.1728325
v 1.01432895 2.59827137 -0.17282949
v 0.511496 2.46625471 -0.1734815
v 0.44005999 2.53276777 -0.17332451
v 0.53018498 2.5670228 -0.17332451
v 0.600977 2.49787282 -0.1734815
v 0.63044297 2.60056448 -0.17332451
v 0.70055097 2.52858972 -0.1734815
v 0.80290001 2.55533075 -0.1734815
v 0.360486 2.60009861 -0.17315949
v 0.451433 2.63915967 -0.17315949
v 0.27680298 2.66506671 -0.17299349
v 0.87198799 2.47480678 -0.1736475
v 0.77054899 2.45101642 -0.1736475
v 0.93647897 2.3925867 -0.1738135
v 0.836025 2.37165737 -0.1738135
v 0.26611998 2.55661058 -0.17315949
v 0.182759 2.61746978 -0.17299948
v 0.17514699 2.50940656 -0.1731605
v 0.091898 2.56665182 -0.17299948
v 0.97600299 2.49609136 -0.17364548
v 1.03933799 2.40928077 -0.17382349
v 1.19096803 2.52078962 -0.1728305
v 1.08509397 2.51233339 -0.17282949
v 1.14552295 2.42202138 -0.17399449
v 2.9109621 0.40464058 -0.1734815
v 2.87057399 0.30412361 -0.17332451
v 2.80974507 0.38850459 -0.17332451
v 2.84723806 0.48851159 -0.1734815
v 2.74120807 0.4755086 -0.17332451
v 2.77557301 0.57498258 -0.1734815
v 2.66676688 0.55548358 -0.17332451
v 2.70136809 0.65711861 -0.1734815
v 2.82482004 0.20146259 -0.17315949
v 2.76725506 0.28616058 -0.17315949
v 2.77529311 0.10230559 -0.1729945
v 2.71639704 0.18638959 -0.17332451
v 2.72905397 0.76469761 -0.17364849
v 2.80747199 0.68308258 -0.1736475
v 2.75473308 0.87743461 -0.17381249
v 2.83514809 0.79404962 -0.1738135
v 2.8841691 0.10656659 -0.17315949
v 2.83113193 0.00725159 -0.1729945
v 2.94063711 0.00778859 -0.1731605
v 2.88419795 -0.0915244 -0.17299549
v 2.8246119 -0.1869724 -0.17283149
v 2.77525496 -0.0886024 -0.17282949
v 2.48428797 0.34221559 -0.1734815
v 2.52341008 0.43163159 -0.17332451
v 2.58556103 0.3579216 -0.17332451
v 2.54373788 0.26823759 -0.1734815
v 2.65039706 0.27441459 -0.17332451
v 2.60566902 0.1844386 -0.1734815
v 2.66477298 0.0967016 -0.1734815
v 2.56061911 0.52900457 -0.17315949
v 2.6275711 0.4561046 -0.17315949
v 2.59423804 0.62947458 -0.17299349
v 2.61164593 0.00486059 -0.1736475
v 2.55562996 0.09271159 -0.1736475
v 2.55540108 -0.0832074 -0.1738135
v 2.50241208 0.00467359 -0.1738135
v 2.48835492 0.60366058 -0.17315949
v 2.51823306 0.70251262 -0.17299948
v 2.41371011 0.67389857 -0.1731605
v 2.44022989 0.77144861 -0.1729985
v 2.66613888 -0.0862474 -0.17364548
v 2.60567498 -0.17459841 -0.17381848
v 2.76302599 -0.2771224 -0.17283149
v 2.71792507 -0.17878741 -0.17282949
v 2.65307903 -0.27051141 -0.17398749
v 2.51070308 1.53731465 -0.1734815
v 2.51393508 1.42903757 -0.17332451
v 2.42441296 1.48200464 -0.17332451
v 2.41873002 1.58866357 -0.1734815
v 2.32677888 1.53428161 -0.17332451
v 2.318439 1.63920462 -0.1734815
v 2.22654199 1.57776856 -0.17332451
v 2.21755504 1.68476557 -0.1734815
v 2.51310992 1.31664156 -0.17315949
v 2.42645001 1.3712126 -0.17315949
v 2.50742888 1.20594561 -0.1729945
v 2.41979193 1.25942254 -0.17332451
v 2.19981908 1.79441762 -0.17364849
v 2.30439305 1.75103056 -0.1736475
v 2.17760109 1.90495455 -0.17381249
v 2.28532791 1.86379158 -0.1738135
v 2.60549211 1.25344157 -0.17315949
v 2.59664988 1.1412146 -0.1729945
v 2.69677996 1.18553865 -0.1731605
v 2.6848309 1.07192456 -0.17299549
v 2.66788506 0.9606406 -0.1728325
v 2.58382606 1.0309956 -0.17282949
v 2.14471006 1.30928254 -0.1734815
v 2.14475989 1.40689063 -0.17332451
v 2.23122406 1.36422956 -0.17332451
v 2.22880506 1.26529157 -0.1734815
v 2.32406997 1.31365561 -0.17332451
v 2.319108 1.2132976 -0.1734815
v 2.40839409 1.15657162 -0.1734815
v 2.13987302 1.51101362 -0.17315949
v 2.23041009 1.47101759 -0.17315949
v 2.13045406 1.61654853 -0.17299349
v 2.39648294 1.05114054 -0.1736475
v 2.30997705 1.10921657 -0.1736475
v 2.38019895 0.94793057 -0.1738135
v 2.2964611 1.00722861 -0.1738135
v 2.04376101 1.55050253 -0.17315949
v 2.03155803 1.65300965 -0.17299948
v 1.94724202 1.58496165 -0.1731605
v 1.93247103 1.68493259 -0.17299948
v 2.48290705 0.98947256 -0.17364548
v 2.4624741 0.88396662 -0.17382349
v 2.64738988 0.8488816 -0.17283149
v 2.56909489 0.92064958 -0.17282949
v 2.54411888 0.81489658 -0.17399449
v -2.42334103 -1.48358237 -0.17332451
v -2.41776895 -1.58744537 -0.17332451
v -2.51228189 -1.53452241 -0.1734815
v -2.51528811 -1.42922842 -0.1734815
v -2.51373505 -1.31693041 -0.1734815
v -2.42455911 -1.37284243 -0.17332451
v -2.50749111 -1.20642435 -0.1734815
v -2.41677904 -1.26384544 -0.17332451
v -2.32604408 -1.53660941 -0.17315949
v -2.31772589 -1.63868439 -0.17315949
v -2.22384691 -1.58238542 -0.17332451
v -2.21694588 -1.68481838 -0.1729945
v -2.60640096 -1.25276446 -0.1736475
v -2.59655094 -1.14001441 -0.17364849
v -2.69758009 -1.18372845 -0.1738135
v -2.68727397 -1.06834542 -0.17381249
v -2.20079302 -1.79386043 -0.1729945
v -2.30439591 -1.74981439 -0.17315949
v -2.18012905 -1.90408539 -0.17299549
v -2.28639388 -1.86215436 -0.1731605
v -2.09713602 -1.83344435 -0.17282949
v -2.07360792 -1.94047844 -0.1728325
v -2.22959089 -1.36673343 -0.17332451
v -2.22744393 -1.27034342 -0.17332451
v -2.14087605 -1.31541836 -0.1734815
v -2.14075303 -1.41031944 -0.1734815
v -2.13639807 -1.51443743 -0.1734815
v -2.22768092 -1.4724344 -0.17332451
v -2.12737488 -1.61983645 -0.1734815
v -2.32390689 -1.31663739 -0.17315949
v -2.31751298 -1.21786236 -0.17315949
v -2.40672707 -1.1607244 -0.17299349
v -2.03988409 -1.55446338 -0.1736475
v -2.0283811 -1.65802645 -0.1736475
v -1.94319999 -1.58963334 -0.1738135
v -1.92932999 -1.69130539 -0.1738135
v -2.39336609 -1.05617344 -0.17299948
v -2.30808401 -1.11439037 -0.17315949
v -2.3758831 -0.95353841 -0.1729985
v -2.29402399 -1.01286339 -0.1731605
v -1.91063296 -1.79380941 -0.1738245
v -2.01365208 -1.76315939 -0.17364548
v -1.99473094 -1.86898136 -0.17282949
v -1.96896505 -1.97175943 -0.1728305
v -1.88711297 -1.89813244 -0.17399551
v -2.80985188 -0.39055439 -0.17332549
v -2.84586501 -0.48774939 -0.17332451
v -2.91128492 -0.40140041 -0.1734815
v -2.87258005 -0.30404838 -0.17348249
v -2.74146008 -0.47787839 -0.17315949
v -2.77470207 -0.57475137 -0.17315949
v -2.66613793 -0.56074541 -0.17332451
v -2.70082593 -0.65737438 -0.1729945
v -2.72968101 -0.76376742 -0.1729945
v -2.80698299 -0.68192142 -0.17315949
v -2.75487494 -0.87303841 -0.17299549
v -2.8354609 -0.79206538 -0.1731605
v -2.65054392 -0.84154039 -0.17282949
v -2.67185998 -0.94905138 -0.1728325
v -2.58554291 -0.36068239 -0.17332349
v -2.53793406 -0.2679314 -0.17332248
v -2.48322606 -0.34931039 -0.1734815
v -2.52110791 -0.4363344 -0.1734815
v -2.55879902 -0.53348839 -0.1734815
v -2.625633 -0.45844939 -0.17332451
v -2.59272909 -0.63368141 -0.1734815
v -2.48638296 -0.60880941 -0.1736475
v -2.51730203 -0.70830738 -0.1736475
v -2.4118669 -0.6797434 -0.1738135
v -2.43986296 -0.77845943 -0.1738135
v -2.46380305 -0.8798784 -0.17382349
v -2.54590702 -0.81055641 -0.17364548
v -2.56983995 -0.9182294 -0.17282949
v -2.58577799 -1.02323138 -0.1728305
v -2.48403906 -0.98489141 -0.17399449
v -0.57358801 -2.78906726 -0.17332451
v -0.49373799 -2.85571622 -0.17332451
v -0.59685999 -2.88887357 -0.1734815
v -0.67600798 -2.81937217 -0.1734815
v -0.75717699 -2.74175643 -0.1734815
v -0.65551 -2.71452617 -0.17332451
v -0.83385199 -2.66192054 -0.1734815
v -0.73001802 -2.63461446 -0.17332451
v -0.46849501 -2.7539215 -0.17315949
v -0.388089 -2.81735563 -0.17315949
v -0.36537298 -2.71027326 -0.17332451
v -0.28566899 -2.77498149 -0.1729945
v -0.86726802 -2.76590824 -0.1736475
v -0.94312799 -2.68191051 -0.17364849
v -0.97992301 -2.78566217 -0.1738135
v -1.05739295 -2.69952917 -0.17381249
v -0.19482299 -2.83741521 -0.1729945
v -0.29763299 -2.88327741 -0.17315949
v -0.10003899 -2.8973484 -0.17299549
v -0.203114 -2.94660139 -0.1731605
v -0.09523899 -2.78846931 -0.17282949
v -0.000858 -2.84412241 -0.1728325
v -0.52719897 -2.56760454 -0.17332451
v -0.59631902 -2.50039053 -0.17332451
v -0.50435197 -2.46770858 -0.1734815
v -0.43477499 -2.53224659 -0.1734815
v -0.35557299 -2.59996557 -0.1734815
v -0.44849699 -2.63820362 -0.17332451
v -0.27225101 -2.66513443 -0.1734815
v -0.62811398 -2.60255432 -0.17315949
v -0.69608497 -2.53059721 -0.17315949
v -0.79868298 -2.55702257 -0.17299349
v -0.260535 -2.55654621 -0.1736475
v -0.17687299 -2.61865139 -0.1736475
v -0.16893799 -2.50970029 -0.1738135
v -0.08504399 -2.5687952 -0.1738135
v -0.86614298 -2.47602939 -0.17299948
v -0.76543301 -2.45322942 -0.17315949
v -0.92938602 -2.39333534 -0.1729985
v -0.83019602 -2.37379646 -0.1731605
v 0.002764 -2.62488937 -0.1738245
v -0.089854 -2.67947149 -0.17364548
v -0.001217 -2.73767423 -0.17282949
v 0.093313 -2.78878927 -0.17283149
v 0.095178 -2.67870616 -0.17399551
v -1.63702702 -2.32720041 -0.17332451
v -1.590541 -2.42024231 -0.17332451
v -1.69831597 -2.40934324 -0.1734815
v -1.74301397 -2.31396627 -0.1734815
v -1.78632199 -2.21034145 -0.1734815
v -1.68225598 -2.22609949 -0.17332451
v -1.82461702 -2.10648727 -0.1734815
v -1.71853399 -2.12303161 -0.17332451
v -1.52665805 -2.33707618 -0.17315949
v -1.47837197 -2.42738962 -0.17315949
v -1.41468405 -2.33836317 -0.17332451
v -1.36755299 -2.42956256 -0.1729945
v -1.89687097 -2.18840551 -0.1736475
v -1.932742 -2.08102226 -0.17364849
v -2.00800395 -2.16140317 -0.1738135
v -2.04141998 -2.0510292 -0.17381249
v -1.30930101 -2.52315425 -0.1729945
v -1.421875 -2.52402162 -0.17315949
v -1.246441 -2.61601829 -0.17299549
v -1.36061394 -2.61988925 -0.1731605
v -1.19845295 -2.51817417 -0.17282949
v -1.13424098 -2.60700321 -0.1728325
v -1.50585496 -2.14284038 -0.17332451
v -1.54228198 -2.05357027 -0.17332451
v -1.44492101 -2.06043338 -0.1734815
v -1.40700495 -2.14743423 -0.1734815
v -1.361539 -2.24119949 -0.1734815
v -1.46199905 -2.23903656 -0.17332451
v -1.31127905 -2.33427953 -0.1734815
v -1.61231994 -2.13445949 -0.17315949
v -1.64579904 -2.04130935 -0.17315949
v -1.75039005 -2.02443122 -0.17299349
v -1.25706803 -2.23947143 -0.1736475
v -1.20526897 -2.32986927 -0.1736475
v -1.15437805 -2.23321151 -0.1738135
v -1.10115695 -2.32094526 -0.1738135
v -1.77975297 -1.92320644 -0.17299948
v -1.67836904 -1.94264841 -0.17315949
v -1.80458402 -1.82210636 -0.17299948
v -1.70591104 -1.84392142 -0.1731605
v -1.04320001 -2.40754938 -0.17382349
v -1.149881 -2.42044544 -0.17364548
v -1.08734405 -2.51129818 -0.17282949
v -1.02130603 -2.59448432 -0.1728305
v -0.98008501 -2.49388027 -0.17399449
v 1.63864994 -2.32612133 -0.17332451
v 1.74186003 -2.31320619 -0.17332451
v 1.69576501 -2.41123437 -0.1734815
v 1.59095096 -2.42169427 -0.1734815
v 1.47882902 -2.42809724 -0.1734815
v 1.52826905 -2.33518838 -0.17332451
v 1.36814498 -2.42971038 -0.1734815
v 1.41900396 -2.33515739 -0.17332451
v 1.68464899 -2.22531318 -0.17315949
v 1.78587305 -2.20978355 -0.17315949
v 1.72306895 -2.12012529 -0.17332451
v 1.824754 -2.10598945 -0.1729945
v 1.42139697 -2.52508258 -0.1736475
v 1.308223 -2.52324342 -0.17364849
v 1.35898697 -2.62092638 -0.1738135
v 1.24316597 -2.61881923 -0.17381249
v 1.93237996 -2.08214616 -0.1729945
v 1.89578497 -2.18860435 -0.17315949
v 2.04086089 -2.05371427 -0.17299549
v 2.00656509 -2.16269159 -0.1731605
v 1.96451997 -1.97593843 -0.17282949
v 2.06960797 -1.94487738 -0.1728325
v 1.508363 -2.14114236 -0.17332451
v 1.41206002 -2.14583826 -0.17332451
v 1.45089304 -2.05627918 -0.1734815
v 1.54554903 -2.04943037 -0.1734815
v 1.64909195 -2.03771257 -0.1734815
v 1.61366605 -2.13175249 -0.17332451
v 1.75358605 -2.02124929 -0.1734815
v 1.46507704 -2.23876619 -0.17315949
v 1.36610102 -2.23938751 -0.17315949
v 1.31542897 -2.33243751 -0.17299349
v 1.68217694 -1.93860435 -0.1736475
v 1.78465497 -1.91979742 -0.1736475
v 1.71040403 -1.83967244 -0.1738135
v 1.810835 -1.8186264 -0.1738135
v 1.21019005 -2.32651662 -0.17299948
v 1.26221704 -2.23732662 -0.17315949
v 1.10658204 -2.31635236 -0.1729985
v 1.15995597 -2.23049163 -0.1731605
v 1.91176104 -1.79271245 -0.1738245
v 1.88848495 -1.89765441 -0.17364548
v 1.99270105 -1.87127542 -0.17282949
v 2.0934031 -1.83828938 -0.17283149
v 2.01415991 -1.76186442 -0.17399551
v 0.57551497 -2.78867626 -0.17332451
v 0.675264 -2.81816244 -0.17332451
v 0.59377902 -2.88953638 -0.1734815
v 0.49354299 -2.85717058 -0.1734815
v 0.38823199 -2.81814622 -0.1734815
v 0.47073799 -2.7527976 -0.17332451
v 0.28616398 -2.77530145 -0.1734815
v 0.37062698 -2.70902156 -0.17332451
v 0.65802699 -2.7147274 -0.17315949
v 0.75700402 -2.74101734 -0.17315949
v 0.73534601 -2.63371563 -0.17332451
v 0.83418697 -2.66146755 -0.1729945
v 0.296781 -2.88401651 -0.1736475
v 0.193779 -2.83698225 -0.17364849
v 0.20122399 -2.94686937 -0.1738135
v 0.097704 -2.8959794 -0.17381249
v 0.94235599 -2.6827135 -0.1729945
v 0.866198 -2.76561737 -0.17315949
v 1.05314302 -2.70009136 -0.17299549
v 0.97808897 -2.78621816 -0.1731605
v 1.01432895 -2.59825944 -0.17282949
v 1.12308597 -2.61190462 -0.1728325
v 0.53018498 -2.56701421 -0.17332451
v 0.44005999 -2.53276062 -0.17332451
v 0.511496 -2.4662466 -0.1734815
v 0.600977 -2.49786424 -0.1734815
v 0.70055097 -2.52858161 -0.1734815
v 0.63044297 -2.60055542 -0.17332451
v 0.80290001 -2.55532217 -0.1734815
v 0.451433 -2.63914728 -0.17315949
v 0.360486 -2.60008955 -0.17315949
v 0.27680298 -2.66505956 -0.17299349
v 0.77054899 -2.45100736 -0.1736475
v 0.87198799 -2.47479724 -0.1736475
v 0.836025 -2.37164259 -0.1738135
v 0.93647897 -2.3925786 -0.1738135
v 0.182759 -2.61746454 -0.17299948
v 0.26611998 -2.55659818 -0.17315949
v 0.091898 -2.56663847 -0.17299948
v 0.17514699 -2.50939655 -0.1731605
v 1.03933799 -2.40926456 -0.17382349
v 0.97600299 -2.4960823 -0.17364548
v 1.08509397 -2.51232433 -0.17282949
v 1.19096803 -2.52078056 -0.17283149
v 1.14552295 -2.42201232 -0.17399449
v 2.80945706 -0.38829439 -0.17332349
v 2.87014198 -0.30381241 -0.17332349
v 2.9109621 -0.4046314 -0.1734815
v 2.84723806 -0.48850241 -0.1734815
v 2.77557301 -0.57497441 -0.1734815
v 2.74120807 -0.4755004 -0.17332451
v 2.70136809 -0.65710938 -0.1734815
v 2.66676688 -0.55547541 -0.17332451
v 2.80747199 -0.68307137 -0.1736475
v 2.72905397 -0.76468938 -0.17364849
v 2.83514809 -0.79404139 -0.1738135
v 2.75473308 -0.87742739 -0.17381249
v 2.5848639 -0.3580394 -0.17332549
v 2.52341008 -0.43162339 -0.17332451
v 2.48428797 -0.34220439 -0.1734815
v 2.54269194 -0.26841941 -0.17348249
v 2.6275711 -0.45609539 -0.17315949
v 2.56061911 -0.52899539 -0.17315949
v 2.59423804 -0.62946641 -0.17299349
v 2.51823306 -0.70250439 -0.17299948
v 2.48835492 -0.60365241 -0.17315949
v 2.44022989 -0.7714414 -0.1729985
v 2.41371011 -0.67388939 -0.1731605
v 2.42441296 -1.48199641 -0.17332451
v 2.51393508 -1.42902839 -0.17332451
v 2.51070308 -1.53730642 -0.1734815
v 2.41873002 -1.58865439 -0.1734815
v 2.318439 -1.63919544 -0.1734815
v 2.32677888 -1.53427243 -0.17332451
v 2.21755504 -1.68475735 -0.1734815
v 2.22654199 -1.57776045 -0.17332451
v 2.42645001 -1.37120342 -0.17315949
v 2.51310992 -1.31663239 -0.17315949
v 2.41979193 -1.25941741 -0.17332451
v 2.50742888 -1.20593738 -0.1729945
v 2.30439305 -1.75102245 -0.1736475
v 2.19981908 -1.79441237 -0.17364849
v 2.28532791 -1.8637824 -0.1738135
v 2.17760109 -1.90494144 -0.17381249
v 2.59664988 -1.14120638 -0.1729945
v 2.60549211 -1.25343239 -0.17315949
v 2.6848309 -1.07191538 -0.17299549
v 2.69677996 -1.18553435 -0.1731605
v 2.58382606 -1.03098642 -0.17282949
v 2.66788506 -0.96063041 -0.1728325
v 2.23122406 -1.36421942 -0.17332451
v 2.14475989 -1.40688145 -0.17332451
v 2.14471006 -1.30927443 -0.1734815
v 2.22880506 -1.26528334 -0.1734815
v 2.319108 -1.2132914 -0.1734815
v 2.32406997 -1.31364738 -0.17332451
v 2.40839409 -1.15656244 -0.1734815
v 2.23041009 -1.47100734 -0.17315949
v 2.13987302 -1.51100444 -0.17315949
v 2.13045406 -1.61654138 -0.17299349
v 2.30997705 -1.10920643 -0.1736475
v 2.39648294 -1.05113542 -0.1736475
v 2.2964611 -1.00721943 -0.1738135
v 2.38019895 -0.9479224 -0.1738135
v 2.03155803 -1.65299737 -0.17299948
v 2.04376101 -1.55049145 -0.17315949
v 1.93247103 -1.68492436 -0.17299948
v 1.94724202 -1.58495235 -0.1731605
v 2.4624741 -0.88395738 -0.17382349
v 2.48290705 -0.98946338 -0.17364548
v 2.56909489 -0.92064142 -0.17282949
v 2.64738988 -0.84887242 -0.17283149
v 2.54411888 -0.8148874 -0.17399449
g Group32941
f 694 693 692 691
g Group32944
f 1 3 694 691
f 2 1 691 692
g Group8785
f 3 1 2 4
g Group32941
f 694 696 695 693
g Group32944
f 10 4 693 695
f 3 9 696 694
g Group8785
f 3 4 10 9
g Group32941
f 696 698 697 695
g Group32944
f 6 10 695 697
f 5 6 697 698
g Group8785
f 9 10 6 5
g Group32941
f 693 700 699 692
g Group32944
f 12 2 692 699
f 4 11 700 693
g Group8785
f 4 2 12 11
g Group32941
f 700 702 701 699
g Group32944
f 7 8 701 702
f 11 7 702 700
g Group8785
f 11 12 8 7
g Group32941
f 696 704 703 698
g Group32944
f 18 5 698 703
f 9 17 704 696
g Group8785
f 9 5 18 17
g Group32941
f 704 706 705 703
g Group32944
f 13 14 705 706
f 17 13 706 704
g Group8785
f 17 18 14 13
g Group32941
f 701 708 707 699
g Group32944
f 20 12 699 707
f 8 19 708 701
g Group8785
f 8 12 20 19
g Group32941
f 708 710 709 707
g Group32944
f 16 20 707 709
f 15 16 709 710
g Group8785
f 19 20 16 15
g Group32941
f 708 712 711 710
g Group32944
f 22 15 710 711
f 19 21 712 708
g Group8785
f 19 15 22 21
g Group32941
f 716 715 714 713
g Group32944
f 23 25 716 713
f 24 23 713 714
g Group8785
f 25 23 24 26
g Group32941
f 716 718 717 715
g Group32944
f 30 26 715 717
f 25 29 718 716
g Group8785
f 25 26 30 29
g Group32941
f 718 719 702 717
g Group32944
f 7 30 717 702
f 27 7 702 719
g Group8785
f 29 30 7 27
g Group32941
f 715 721 720 714
g Group32944
f 32 24 714 720
f 26 31 721 715
g Group8785
f 26 24 32 31
g Group32941
f 721 697 722 720
g Group32944
f 6 28 722 697
f 31 6 697 721
g Group8785
f 31 32 28 6
g Group32941
f 718 724 723 719
g Group32944
f 38 27 719 723
f 29 37 724 718
g Group8785
f 29 27 38 37
g Group32941
f 724 726 725 723
g Group32944
f 33 34 725 726
f 37 33 726 724
g Group8785
f 37 38 34 33
g Group32941
f 722 728 727 720
g Group32944
f 40 32 720 727
f 28 39 728 722
g Group8785
f 28 32 40 39
g Group32941
f 728 730 729 727
g Group32944
f 36 40 727 729
f 35 36 729 730
g Group8785
f 39 40 36 35
g Group32941
f 725 732 731 723
g Group32944
f 42 38 723 731
f 34 41 732 725
g Group8785
f 34 38 42 41
g Group32941
f 711 712 734 733
g Group32944
f 43 44 733 734
f 21 43 734 712
g Group8785
f 22 44 43 21
g Group32941
f 731 732 735 734
g Group32944
f 43 42 731 734
f 45 43 734 735
g Group8785
f 42 43 45 41
g Group32941
f 739 738 737 736
g Group32944
f 46 48 739 736
f 47 46 736 737
g Group8785
f 48 46 47 49
g Group32941
f 739 741 740 738
g Group32944
f 55 49 738 740
f 48 54 741 739
g Group8785
f 48 49 55 54
g Group32941
f 741 743 742 740
g Group32944
f 51 55 740 742
f 50 51 742 743
g Group8785
f 54 55 51 50
g Group32941
f 738 745 744 737
g Group32944
f 57 47 737 744
f 49 56 745 738
g Group8785
f 49 47 57 56
g Group32941
f 745 747 746 744
g Group32944
f 52 53 746 747
f 56 52 747 745
g Group8785
f 56 57 53 52
g Group32941
f 741 749 748 743
g Group32944
f 63 50 743 748
f 54 62 749 741
g Group8785
f 54 50 63 62
g Group32941
f 749 751 750 748
g Group32944
f 58 59 750 751
f 62 58 751 749
g Group8785
f 62 63 59 58
g Group32941
f 746 753 752 744
g Group32944
f 65 57 744 752
f 53 64 753 746
g Group8785
f 53 57 65 64
g Group32941
f 753 755 754 752
g Group32944
f 61 65 752 754
f 60 61 754 755
g Group8785
f 64 65 61 60
g Group32941
f 750 757 756 748
g Group32944
f 67 63 748 756
f 59 66 757 750
g Group8785
f 59 63 67 66
g Group32941
f 753 759 758 755
g Group32944
f 69 60 755 758
f 64 68 759 753
g Group8785
f 64 60 69 68
g Group32941
f 763 762 761 760
g Group32944
f 70 72 763 760
f 71 70 760 761
g Group8785
f 72 70 71 73
g Group32941
f 763 765 764 762
g Group32944
f 79 73 762 764
f 72 78 765 763
g Group8785
f 72 73 79 78
g Group32941
f 765 766 747 764
g Group32944
f 52 79 764 747
f 74 52 747 766
g Group8785
f 78 79 52 74
g Group32941
f 762 768 767 761
g Group32944
f 81 71 761 767
f 73 80 768 762
g Group8785
f 73 71 81 80
g Group32941
f 768 742 769 767
g Group32944
f 51 77 769 742
f 80 51 742 768
g Group8785
f 80 81 77 51
g Group32941
f 765 771 770 766
g Group32944
f 87 74 766 770
f 78 86 771 765
g Group8785
f 78 74 87 86
g Group32941
f 771 773 772 770
g Group32944
f 82 83 772 773
f 86 82 773 771
g Group8785
f 86 87 83 82
g Group32941
f 769 775 774 767
g Group32944
f 89 81 767 774
f 77 88 775 769
g Group8785
f 77 81 89 88
g Group32941
f 775 777 776 774
g Group32944
f 85 89 774 776
f 84 85 776 777
g Group8785
f 88 89 85 84
g Group32941
f 772 779 778 770
g Group32944
f 91 87 770 778
f 83 90 779 772
g Group8785
f 83 87 91 90
g Group32941
f 775 781 780 777
g Group32944
f 76 84 777 780
f 88 75 781 775
g Group8785
f 88 84 76 75
g Group32941
f 758 759 783 782
g Group32944
f 92 93 782 783
f 68 92 783 759
g Group8785
f 69 93 92 68
g Group32941
f 778 779 784 783
g Group32944
f 92 91 778 783
f 94 92 783 784
g Group8785
f 91 92 94 90
g Group32941
f 756 757 786 785
g Group32944
f 96 67 756 785
f 95 96 785 786
g Group8785
f 67 96 95 66
g Group32941
f 780 781 785 787
g Group32944
f 96 97 787 785
f 75 96 785 781
g Group8785
f 76 97 96 75
g Group32941
f 703 705 758 782
g Group32944
f 93 18 703 782
f 14 69 758 705
g Group8785
f 18 93 69 14
g Group32941
f 784 779 730 728
g Group32944
f 39 94 784 728
f 90 35 730 779
g Group8785
f 94 39 35 90
g Group32941
f 791 790 789 788
g Group32944
f 98 100 791 788
f 99 98 788 789
g Group8785
f 100 98 99 101
g Group32941
f 791 793 792 790
g Group32944
f 107 101 790 792
f 100 106 793 791
g Group8785
f 100 101 107 106
g Group32941
f 793 795 794 792
g Group32944
f 103 107 792 794
f 102 103 794 795
g Group8785
f 106 107 103 102
g Group32941
f 790 797 796 789
g Group32944
f 109 99 789 796
f 101 108 797 790
g Group8785
f 101 99 109 108
g Group32941
f 797 799 798 796
g Group32944
f 104 105 798 799
f 108 104 799 797
g Group8785
f 108 109 105 104
g Group32941
f 793 801 800 795
g Group32944
f 115 102 795 800
f 106 114 801 793
g Group8785
f 106 102 115 114
g Group32941
f 801 803 802 800
g Group32944
f 110 111 802 803
f 114 110 803 801
g Group8785
f 114 115 111 110
g Group32941
f 798 805 804 796
g Group32944
f 117 109 796 804
f 105 116 805 798
g Group8785
f 105 109 117 116
g Group32941
f 805 807 806 804
g Group32944
f 113 117 804 806
f 112 113 806 807
g Group8785
f 116 117 113 112
g Group32941
f 805 809 808 807
g Group32944
f 119 112 807 808
f 116 118 809 805
g Group8785
f 116 112 119 118
g Group32941
f 813 812 811 810
g Group32944
f 120 122 813 810
f 121 120 810 811
g Group8785
f 122 120 121 123
g Group32941
f 813 815 814 812
g Group32944
f 127 123 812 814
f 122 126 815 813
g Group8785
f 122 123 127 126
g Group32941
f 815 816 799 814
g Group32944
f 104 127 814 799
f 124 104 799 816
g Group8785
f 126 127 104 124
g Group32941
f 812 818 817 811
g Group32944
f 129 121 811 817
f 123 128 818 812
g Group8785
f 123 121 129 128
g Group32941
f 818 794 819 817
g Group32944
f 103 125 819 794
f 128 103 794 818
g Group8785
f 128 129 125 103
g Group32941
f 815 821 820 816
g Group32944
f 135 124 816 820
f 126 134 821 815
g Group8785
f 126 124 135 134
g Group32941
f 821 823 822 820
g Group32944
f 130 131 822 823
f 134 130 823 821
g Group8785
f 134 135 131 130
g Group32941
f 819 825 824 817
g Group32944
f 137 129 817 824
f 125 136 825 819
g Group8785
f 125 129 137 136
g Group32941
f 825 827 826 824
g Group32944
f 133 137 824 826
f 132 133 826 827
g Group8785
f 136 137 133 132
g Group32941
f 822 829 828 820
g Group32944
f 139 135 820 828
f 131 138 829 822
g Group8785
f 131 135 139 138
g Group32941
f 808 809 831 830
g Group32944
f 140 141 830 831
f 118 140 831 809
g Group8785
f 119 141 140 118
g Group32941
f 828 829 832 831
g Group32944
f 140 139 828 831
f 142 140 831 832
g Group8785
f 139 140 142 138
g Group32941
f 836 835 834 833
g Group32944
f 143 145 836 833
f 144 143 833 834
g Group8785
f 145 143 144 146
g Group32941
f 836 838 837 835
g Group32944
f 152 146 835 837
f 145 151 838 836
g Group8785
f 145 146 152 151
g Group32941
f 838 840 839 837
g Group32944
f 148 152 837 839
f 147 148 839 840
g Group8785
f 151 152 148 147
g Group32941
f 835 842 841 834
g Group32944
f 154 144 834 841
f 146 153 842 835
g Group8785
f 146 144 154 153
g Group32941
f 842 844 843 841
g Group32944
f 149 150 843 844
f 153 149 844 842
g Group8785
f 153 154 150 149
g Group32941
f 838 846 845 840
g Group32944
f 160 147 840 845
f 151 159 846 838
g Group8785
f 151 147 160 159
g Group32941
f 846 848 847 845
g Group32944
f 155 156 847 848
f 159 155 848 846
g Group8785
f 159 160 156 155
g Group32941
f 843 850 849 841
g Group32944
f 162 154 841 849
f 150 161 850 843
g Group8785
f 150 154 162 161
g Group32941
f 850 852 851 849
g Group32944
f 158 162 849 851
f 157 158 851 852
g Group8785
f 161 162 158 157
g Group32941
f 850 854 853 852
g Group32944
f 164 157 852 853
f 161 163 854 850
g Group8785
f 161 157 164 163
g Group32941
f 858 857 856 855
g Group32944
f 165 167 858 855
f 166 165 855 856
g Group8785
f 167 165 166 168
g Group32941
f 858 860 859 857
g Group32944
f 172 168 857 859
f 167 171 860 858
g Group8785
f 167 168 172 171
g Group32941
f 860 861 844 859
g Group32944
f 149 172 859 844
f 169 149 844 861
g Group8785
f 171 172 149 169
g Group32941
f 857 863 862 856
g Group32944
f 174 166 856 862
f 168 173 863 857
g Group8785
f 168 166 174 173
g Group32941
f 863 839 864 862
g Group32944
f 148 170 864 839
f 173 148 839 863
g Group8785
f 173 174 170 148
g Group32941
f 860 866 865 861
g Group32944
f 180 169 861 865
f 171 179 866 860
g Group8785
f 171 169 180 179
g Group32941
f 866 868 867 865
g Group32944
f 175 176 867 868
f 179 175 868 866
g Group8785
f 179 180 176 175
g Group32941
f 864 870 869 862
g Group32944
f 182 174 862 869
f 170 181 870 864
g Group8785
f 170 174 182 181
g Group32941
f 870 872 871 869
g Group32944
f 178 182 869 871
f 177 178 871 872
g Group8785
f 181 182 178 177
g Group32941
f 867 874 873 865
g Group32944
f 184 180 865 873
f 176 183 874 867
g Group8785
f 176 180 184 183
g Group32941
f 853 854 876 875
g Group32944
f 185 186 875 876
f 163 185 876 854
g Group8785
f 164 186 185 163
g Group32941
f 873 874 877 876
g Group32944
f 185 184 873 876
f 187 185 876 877
g Group8785
f 184 185 187 183
g Group32941
f 800 802 853 875
g Group32944
f 186 115 800 875
f 111 164 853 802
g Group8785
f 115 186 164 111
g Group32941
f 877 874 827 825
g Group32944
f 136 187 877 825
f 183 132 827 874
g Group8785
f 187 136 132 183
g Group32941
f 845 847 711 733
g Group32944
f 44 160 845 733
f 156 22 711 847
g Group8785
f 160 44 22 156
g Group32941
f 735 732 872 870
g Group32944
f 181 45 735 870
f 41 177 872 732
g Group8785
f 45 181 177 41
g Group32941
f 881 880 879 878
g Group32944
f 188 190 881 878
f 189 188 878 879
g Group8785
f 190 188 189 191
g Group32941
f 881 883 882 880
g Group32944
f 197 191 880 882
f 190 196 883 881
g Group8785
f 190 191 197 196
g Group32941
f 883 885 884 882
g Group32944
f 193 197 882 884
f 192 193 884 885
g Group8785
f 196 197 193 192
g Group32941
f 880 887 886 879
g Group32944
f 199 189 879 886
f 191 198 887 880
g Group8785
f 191 189 199 198
g Group32941
f 887 889 888 886
g Group32944
f 194 195 888 889
f 198 194 889 887
g Group8785
f 198 199 195 194
g Group32941
f 883 891 890 885
g Group32944
f 205 192 885 890
f 196 204 891 883
g Group8785
f 196 192 205 204
g Group32941
f 891 893 892 890
g Group32944
f 200 201 892 893
f 204 200 893 891
g Group8785
f 204 205 201 200
g Group32941
f 888 895 894 886
g Group32944
f 207 199 886 894
f 195 206 895 888
g Group8785
f 195 199 207 206
g Group32941
f 895 897 896 894
g Group32944
f 203 207 894 896
f 202 203 896 897
g Group8785
f 206 207 203 202
g Group32941
f 895 899 898 897
g Group32944
f 209 202 897 898
f 206 208 899 895
g Group8785
f 206 202 209 208
g Group32941
f 903 902 901 900
g Group32944
f 210 212 903 900
f 211 210 900 901
g Group8785
f 212 210 211 213
g Group32941
f 903 905 904 902
g Group32944
f 217 213 902 904
f 212 216 905 903
g Group8785
f 212 213 217 216
g Group32941
f 905 906 889 904
g Group32944
f 194 217 904 889
f 214 194 889 906
g Group8785
f 216 217 194 214
g Group32941
f 902 908 907 901
g Group32944
f 219 211 901 907
f 213 218 908 902
g Group8785
f 213 211 219 218
g Group32941
f 908 884 909 907
g Group32944
f 193 215 909 884
f 218 193 884 908
g Group8785
f 218 219 215 193
g Group32941
f 905 911 910 906
g Group32944
f 225 214 906 910
f 216 224 911 905
g Group8785
f 216 214 225 224
g Group32941
f 911 913 912 910
g Group32944
f 220 221 912 913
f 224 220 913 911
g Group8785
f 224 225 221 220
g Group32941
f 909 915 914 907
g Group32944
f 227 219 907 914
f 215 226 915 909
g Group8785
f 215 219 227 226
g Group32941
f 915 917 916 914
g Group32944
f 223 227 914 916
f 222 223 916 917
g Group8785
f 226 227 223 222
g Group32941
f 912 919 918 910
g Group32944
f 229 225 910 918
f 221 228 919 912
g Group8785
f 221 225 229 228
g Group32941
f 898 899 921 920
g Group32944
f 230 231 920 921
f 208 230 921 899
g Group8785
f 209 231 230 208
g Group32941
f 918 919 922 921
g Group32944
f 230 229 918 921
f 232 230 921 922
g Group8785
f 229 230 232 228
g Group32941
f 926 925 924 923
g Group32944
f 233 235 926 923
f 234 233 923 924
g Group8785
f 235 233 234 236
g Group32941
f 926 928 927 925
g Group32944
f 242 236 925 927
f 235 241 928 926
g Group8785
f 235 236 242 241
g Group32941
f 928 930 929 927
g Group32944
f 238 242 927 929
f 237 238 929 930
g Group8785
f 241 242 238 237
g Group32941
f 925 932 931 924
g Group32944
f 244 234 924 931
f 236 243 932 925
g Group8785
f 236 234 244 243
g Group32941
f 932 934 933 931
g Group32944
f 239 240 933 934
f 243 239 934 932
g Group8785
f 243 244 240 239
g Group32941
f 928 936 935 930
g Group32944
f 250 237 930 935
f 241 249 936 928
g Group8785
f 241 237 250 249
g Group32941
f 936 938 937 935
g Group32944
f 245 246 937 938
f 249 245 938 936
g Group8785
f 249 250 246 245
g Group32941
f 933 940 939 931
g Group32944
f 252 244 931 939
f 240 251 940 933
g Group8785
f 240 244 252 251
g Group32941
f 940 942 941 939
g Group32944
f 248 252 939 941
f 247 248 941 942
g Group8785
f 251 252 248 247
g Group32941
f 940 944 943 942
g Group32944
f 254 247 942 943
f 251 253 944 940
g Group8785
f 251 247 254 253
g Group32941
f 948 947 946 945
g Group32944
f 255 257 948 945
f 256 255 945 946
g Group8785
f 257 255 256 258
g Group32941
f 948 950 949 947
g Group32944
f 262 258 947 949
f 257 261 950 948
g Group8785
f 257 258 262 261
g Group32941
f 950 951 934 949
g Group32944
f 239 262 949 934
f 259 239 934 951
g Group8785
f 261 262 239 259
g Group32941
f 947 953 952 946
g Group32944
f 264 256 946 952
f 258 263 953 947
g Group8785
f 258 256 264 263
g Group32941
f 953 929 954 952
g Group32944
f 238 260 954 929
f 263 238 929 953
g Group8785
f 263 264 260 238
g Group32941
f 950 956 955 951
g Group32944
f 270 259 951 955
f 261 269 956 950
g Group8785
f 261 259 270 269
g Group32941
f 956 958 957 955
g Group32944
f 265 266 957 958
f 269 265 958 956
g Group8785
f 269 270 266 265
g Group32941
f 954 960 959 952
g Group32944
f 272 264 952 959
f 260 271 960 954
g Group8785
f 260 264 272 271
g Group32941
f 960 962 961 959
g Group32944
f 268 272 959 961
f 267 268 961 962
g Group8785
f 271 272 268 267
g Group32941
f 957 964 963 955
g Group32944
f 274 270 955 963
f 266 273 964 957
g Group8785
f 266 270 274 273
g Group32941
f 943 944 966 965
g Group32944
f 275 276 965 966
f 253 275 966 944
g Group8785
f 254 276 275 253
g Group32941
f 963 964 967 966
g Group32944
f 275 274 963 966
f 277 275 966 967
g Group8785
f 274 275 277 273
g Group32941
f 890 892 943 965
g Group32944
f 276 205 890 965
f 201 254 943 892
g Group8785
f 205 276 254 201
g Group32941
f 967 964 917 915
g Group32944
f 226 277 967 915
f 273 222 917 964
g Group8785
f 277 226 222 273
g Group32941
f 971 970 969 968
g Group32944
f 278 280 971 968
f 279 278 968 969
g Group8785
f 280 278 279 281
g Group32941
f 971 973 972 970
g Group32944
f 287 281 970 972
f 280 286 973 971
g Group8785
f 280 281 287 286
g Group32941
f 973 975 974 972
g Group32944
f 283 287 972 974
f 282 283 974 975
g Group8785
f 286 287 283 282
g Group32941
f 970 977 976 969
g Group32944
f 289 279 969 976
f 281 288 977 970
g Group8785
f 281 279 289 288
g Group32941
f 977 979 978 976
g Group32944
f 284 285 978 979
f 288 284 979 977
g Group8785
f 288 289 285 284
g Group32941
f 973 981 980 975
g Group32944
f 295 282 975 980
f 286 294 981 973
g Group8785
f 286 282 295 294
g Group32941
f 981 983 982 980
g Group32944
f 290 291 982 983
f 294 290 983 981
g Group8785
f 294 295 291 290
g Group32941
f 978 985 984 976
g Group32944
f 297 289 976 984
f 285 296 985 978
g Group8785
f 285 289 297 296
g Group32941
f 985 987 986 984
g Group32944
f 293 297 984 986
f 292 293 986 987
g Group8785
f 296 297 293 292
g Group32941
f 985 989 988 987
g Group32944
f 299 292 987 988
f 296 298 989 985
g Group8785
f 296 292 299 298
g Group32941
f 993 992 991 990
g Group32944
f 300 302 993 990
f 301 300 990 991
g Group8785
f 302 300 301 303
g Group32941
f 993 995 994 992
g Group32944
f 307 303 992 994
f 302 306 995 993
g Group8785
f 302 303 307 306
g Group32941
f 995 996 979 994
g Group32944
f 284 307 994 979
f 304 284 979 996
g Group8785
f 306 307 284 304
g Group32941
f 992 998 997 991
g Group32944
f 309 301 991 997
f 303 308 998 992
g Group8785
f 303 301 309 308
g Group32941
f 998 974 999 997
g Group32944
f 283 305 999 974
f 308 283 974 998
g Group8785
f 308 309 305 283
g Group32941
f 995 1001 1000 996
g Group32944
f 315 304 996 1000
f 306 314 1001 995
g Group8785
f 306 304 315 314
g Group32941
f 1001 1003 1002 1000
g Group32944
f 310 311 1002 1003
f 314 310 1003 1001
g Group8785
f 314 315 311 310
g Group32941
f 999 1005 1004 997
g Group32944
f 317 309 997 1004
f 305 316 1005 999
g Group8785
f 305 309 317 316
g Group32941
f 1005 1007 1006 1004
g Group32944
f 313 317 1004 1006
f 312 313 1006 1007
g Group8785
f 316 317 313 312
g Group32941
f 1002 1009 1008 1000
g Group32944
f 319 315 1000 1008
f 311 318 1009 1002
g Group8785
f 311 315 319 318
g Group32941
f 988 989 1011 1010
g Group32944
f 320 321 1010 1011
f 298 320 1011 989
g Group8785
f 299 321 320 298
g Group32941
f 1008 1009 1012 1011
g Group32944
f 320 319 1008 1011
f 322 320 1011 1012
g Group8785
f 319 320 322 318
g Group32941
f 1016 1015 1014 1013
g Group32944
f 323 325 1016 1013
f 324 323 1013 1014
g Group8785
f 325 323 324 326
g Group32941
f 1016 1018 1017 1015
g Group32944
f 332 326 1015 1017
f 325 331 1018 1016
g Group8785
f 325 326 332 331
g Group32941
f 1018 1020 1019 1017
g Group32944
f 328 332 1017 1019
f 327 328 1019 1020
g Group8785
f 331 332 328 327
g Group32941
f 1015 1022 1021 1014
g Group32944
f 334 324 1014 1021
f 326 333 1022 1015
g Group8785
f 326 324 334 333
g Group32941
f 1022 1024 1023 1021
g Group32944
f 329 330 1023 1024
f 333 329 1024 1022
g Group8785
f 333 334 330 329
g Group32941
f 1018 1026 1025 1020
g Group32944
f 340 327 1020 1025
f 331 339 1026 1018
g Group8785
f 331 327 340 339
g Group32941
f 1026 1028 1027 1025
g Group32944
f 335 336 1027 1028
f 339 335 1028 1026
g Group8785
f 339 340 336 335
g Group32941
f 1023 1030 1029 1021
g Group32944
f 342 334 1021 1029
f 330 341 1030 1023
g Group8785
f 330 334 342 341
g Group32941
f 1030 1032 1031 1029
g Group32944
f 338 342 1029 1031
f 337 338 1031 1032
g Group8785
f 341 342 338 337
g Group32941
f 1030 1034 1033 1032
g Group32944
f 344 337 1032 1033
f 341 343 1034 1030
g Group8785
f 341 337 344 343
g Group32941
f 1038 1037 1036 1035
g Group32944
f 345 347 1038 1035
f 346 345 1035 1036
g Group8785
f 347 345 346 348
g Group32941
f 1038 1040 1039 1037
g Group32944
f 352 348 1037 1039
f 347 351 1040 1038
g Group8785
f 347 348 352 351
g Group32941
f 1040 1041 1024 1039
g Group32944
f 329 352 1039 1024
f 349 329 1024 1041
g Group8785
f 351 352 329 349
g Group32941
f 1037 1043 1042 1036
g Group32944
f 354 346 1036 1042
f 348 353 1043 1037
g Group8785
f 348 346 354 353
g Group32941
f 1043 1019 1044 1042
g Group32944
f 328 350 1044 1019
f 353 328 1019 1043
g Group8785
f 353 354 350 328
g Group32941
f 1040 1046 1045 1041
g Group32944
f 360 349 1041 1045
f 351 359 1046 1040
g Group8785
f 351 349 360 359
g Group32941
f 1046 1048 1047 1045
g Group32944
f 355 356 1047 1048
f 359 355 1048 1046
g Group8785
f 359 360 356 355
g Group32941
f 1044 1050 1049 1042
g Group32944
f 362 354 1042 1049
f 350 361 1050 1044
g Group8785
f 350 354 362 361
g Group32941
f 1050 1052 1051 1049
g Group32944
f 358 362 1049 1051
f 357 358 1051 1052
g Group8785
f 361 362 358 357
g Group32941
f 1047 1054 1053 1045
g Group32944
f 364 360 1045 1053
f 356 363 1054 1047
g Group8785
f 356 360 364 363
g Group32941
f 1033 1034 1056 1055
g Group32944
f 365 366 1055 1056
f 343 365 1056 1034
g Group8785
f 344 366 365 343
g Group32941
f 1053 1054 1057 1056
g Group32944
f 365 364 1053 1056
f 367 365 1056 1057
g Group8785
f 364 365 367 363
g Group32941
f 980 982 1033 1055
g Group32944
f 366 295 980 1055
f 291 344 1033 982
g Group8785
f 295 366 344 291
g Group32941
f 1057 1054 1007 1005
g Group32944
f 316 367 1057 1005
f 363 312 1007 1054
g Group8785
f 367 316 312 363
g Group32941
f 1025 1027 898 920
g Group32944
f 231 340 1025 920
f 336 209 898 1027
g Group8785
f 340 231 209 336
g Group32941
f 922 919 1052 1050
g Group32944
f 361 232 922 1050
f 228 357 1052 919
g Group8785
f 232 361 357 228
g Group32941
f 935 937 808 830
g Group32944
f 141 250 935 830
f 246 119 808 937
g Group8785
f 250 141 119 246
g Group32941
f 832 829 962 960
g Group32944
f 271 142 832 960
f 138 267 962 829
g Group8785
f 142 271 267 138
g Group32941
f 1061 1060 1059 1058
g Group32944
f 368 369 1059 1060
f 370 368 1060 1061
g Group8785
f 370 371 369 368
g Group32941
f 1061 1058 1063 1062
g Group32944
f 376 370 1061 1062
f 371 377 1063 1058
g Group8785
f 370 376 377 371
g Group32941
f 1062 1063 1065 1064
g Group32944
f 373 372 1064 1065
f 377 373 1065 1063
g Group8785
f 376 372 373 377
g Group32941
f 1058 1059 1067 1066
g Group32944
f 378 371 1058 1066
f 369 379 1067 1059
g Group8785
f 371 378 379 369
g Group32941
f 1066 1067 1069 1068
g Group32944
f 374 378 1066 1068
f 375 374 1068 1069
g Group8785
f 378 374 375 379
g Group32941
f 1062 1064 1071 1070
g Group32944
f 384 376 1062 1070
f 372 385 1071 1064
g Group8785
f 376 384 385 372
g Group32941
f 1070 1071 1073 1072
g Group32944
f 380 384 1070 1072
f 381 380 1072 1073
g Group8785
f 384 380 381 385
g Group32941
f 1069 1067 1075 1074
g Group32944
f 386 375 1069 1074
f 379 387 1075 1067
g Group8785
f 375 386 387 379
g Group32941
f 1074 1075 1077 1076
g Group32944
f 383 382 1076 1077
f 387 383 1077 1075
g Group8785
f 386 382 383 387
g Group32941
f 1074 1076 1079 1078
g Group32944
f 388 386 1074 1078
f 382 389 1079 1076
g Group8785
f 386 388 389 382
g Group32941
f 1083 1082 1081 1080
g Group32944
f 390 391 1081 1082
f 392 390 1082 1083
g Group8785
f 392 393 391 390
g Group32941
f 1083 1080 1085 1084
g Group32944
f 396 392 1083 1084
f 393 397 1085 1080
g Group8785
f 392 396 397 393
g Group32941
f 1084 1085 1068 1086
g Group32944
f 374 394 1086 1068
f 397 374 1068 1085
g Group8785
f 396 394 374 397
g Group32941
f 1080 1081 1088 1087
g Group32944
f 398 393 1080 1087
f 391 399 1088 1081
g Group8785
f 393 398 399 391
g Group32941
f 1087 1088 1089 1065
g Group32944
f 373 398 1087 1065
f 395 373 1065 1089
g Group8785
f 398 373 395 399
g Group32941
f 1084 1086 1091 1090
g Group32944
f 404 396 1084 1090
f 394 405 1091 1086
g Group8785
f 396 404 405 394
g Group32941
f 1090 1091 1093 1092
g Group32944
f 400 404 1090 1092
f 401 400 1092 1093
g Group8785
f 404 400 401 405
g Group32941
f 1089 1088 1095 1094
g Group32944
f 406 395 1089 1094
f 399 407 1095 1088
g Group8785
f 395 406 407 399
g Group32941
f 1094 1095 1097 1096
g Group32944
f 403 402 1096 1097
f 407 403 1097 1095
g Group8785
f 406 402 403 407
g Group32941
f 1093 1091 1099 1098
g Group32944
f 408 401 1093 1098
f 405 409 1099 1091
g Group8785
f 401 408 409 405
g Group32941
f 1079 1101 1100 1078
g Group32944
f 410 388 1078 1100
f 411 410 1100 1101
g Group8785
f 389 388 410 411
g Group32941
f 1099 1100 1102 1098
g Group32944
f 410 412 1102 1100
f 409 410 1100 1099
g Group8785
f 409 408 412 410
g Group32941
f 1106 1105 1104 1103
g Group32944
f 413 414 1104 1105
f 415 413 1105 1106
g Group8785
f 415 416 414 413
g Group32941
f 1103 1104 1108 1107
g Group32944
f 419 416 1103 1107
f 414 420 1108 1104
g Group8785
f 416 419 420 414
g Group32941
f 1107 1108 1110 1109
g Group32944
f 417 419 1107 1109
f 418 417 1109 1110
g Group8785
f 419 417 418 420
g Group32941
f 1110 1108 1112 1111
g Group32944
f 423 418 1110 1111
f 420 424 1112 1108
g Group8785
f 418 423 424 420
g Group32941
f 1111 1112 1114 1113
g Group32944
f 422 421 1113 1114
f 424 422 1114 1112
g Group8785
f 423 421 422 424
g Group32941
f 1111 1113 1116 1115
g Group32944
f 425 423 1111 1115
f 421 426 1116 1113
g Group8785
f 423 425 426 421
g Group32941
f 1120 1119 1118 1117
g Group32944
f 427 428 1118 1119
f 429 427 1119 1120
g Group8785
f 429 430 428 427
g Group32941
f 1120 1117 1122 1121
g Group32944
f 432 429 1120 1121
f 430 433 1122 1117
g Group8785
f 429 432 433 430
g Group32941
f 1121 1122 1109 1123
g Group32944
f 417 431 1123 1109
f 433 417 1109 1122
g Group8785
f 432 431 417 433
g Group32941
f 1121 1123 1125 1124
g Group32944
f 436 432 1121 1124
f 431 437 1125 1123
g Group8785
f 432 436 437 431
g Group32941
f 1124 1125 1127 1126
g Group32944
f 434 436 1124 1126
f 435 434 1126 1127
g Group8785
f 436 434 435 437
g Group32941
f 1127 1125 1129 1128
g Group32944
f 438 435 1127 1128
f 437 439 1129 1125
g Group8785
f 435 438 439 437
g Group32941
f 1116 1131 1130 1115
g Group32944
f 440 425 1115 1130
f 441 440 1130 1131
g Group8785
f 426 425 440 441
g Group32941
f 1129 1130 1132 1128
g Group32944
f 440 442 1132 1130
f 439 440 1130 1129
g Group8785
f 439 438 442 440
g Group32941
f 1071 1131 1116 1073
g Group32944
f 426 381 1073 1116
f 385 441 1131 1071
g Group8785
f 385 381 426 441
g Group32941
f 1132 1094 1096 1128
g Group32944
f 402 438 1128 1096
f 442 406 1094 1132
g Group8785
f 442 438 402 406
g Group32941
f 1136 1135 1134 1133
g Group32944
f 443 444 1134 1135
f 445 443 1135 1136
g Group8785
f 445 446 444 443
g Group32941
f 1136 1133 1138 1137
g Group32944
f 451 445 1136 1137
f 446 452 1138 1133
g Group8785
f 445 451 452 446
g Group32941
f 1137 1138 1140 1139
g Group32944
f 448 447 1139 1140
f 452 448 1140 1138
g Group8785
f 451 447 448 452
g Group32941
f 1133 1134 1142 1141
g Group32944
f 453 446 1133 1141
f 444 454 1142 1134
g Group8785
f 446 453 454 444
g Group32941
f 1141 1142 1144 1143
g Group32944
f 449 453 1141 1143
f 450 449 1143 1144
g Group8785
f 453 449 450 454
g Group32941
f 1137 1139 1146 1145
g Group32944
f 459 451 1137 1145
f 447 460 1146 1139
g Group8785
f 451 459 460 447
g Group32941
f 1145 1146 1148 1147
g Group32944
f 455 459 1145 1147
f 456 455 1147 1148
g Group8785
f 459 455 456 460
g Group32941
f 1144 1142 1150 1149
g Group32944
f 461 450 1144 1149
f 454 462 1150 1142
g Group8785
f 450 461 462 454
g Group32941
f 1149 1150 1152 1151
g Group32944
f 458 457 1151 1152
f 462 458 1152 1150
g Group8785
f 461 457 458 462
g Group32941
f 1149 1151 1154 1153
g Group32944
f 463 461 1149 1153
f 457 464 1154 1151
g Group8785
f 461 463 464 457
g Group32941
f 1158 1157 1156 1155
g Group32944
f 465 466 1156 1157
f 467 465 1157 1158
g Group8785
f 467 468 466 465
g Group32941
f 1158 1155 1160 1159
g Group32944
f 471 467 1158 1159
f 468 472 1160 1155
g Group8785
f 467 471 472 468
g Group32941
f 1159 1160 1143 1161
g Group32944
f 449 469 1161 1143
f 472 449 1143 1160
g Group8785
f 471 469 449 472
g Group32941
f 1155 1156 1163 1162
g Group32944
f 473 468 1155 1162
f 466 474 1163 1156
g Group8785
f 468 473 474 466
g Group32941
f 1162 1163 1164 1140
g Group32944
f 448 473 1162 1140
f 470 448 1140 1164
g Group8785
f 473 448 470 474
g Group32941
f 1159 1161 1166 1165
g Group32944
f 479 471 1159 1165
f 469 480 1166 1161
g Group8785
f 471 479 480 469
g Group32941
f 1165 1166 1168 1167
g Group32944
f 475 479 1165 1167
f 476 475 1167 1168
g Group8785
f 479 475 476 480
g Group32941
f 1164 1163 1170 1169
g Group32944
f 481 470 1164 1169
f 474 482 1170 1163
g Group8785
f 470 481 482 474
g Group32941
f 1169 1170 1172 1171
g Group32944
f 478 477 1171 1172
f 482 478 1172 1170
g Group8785
f 481 477 478 482
g Group32941
f 1168 1166 1174 1173
g Group32944
f 483 476 1168 1173
f 480 484 1174 1166
g Group8785
f 476 483 484 480
g Group32941
f 1154 1176 1175 1153
g Group32944
f 485 463 1153 1175
f 486 485 1175 1176
g Group8785
f 464 463 485 486
g Group32941
f 1174 1175 1177 1173
g Group32944
f 485 487 1177 1175
f 484 485 1175 1174
g Group8785
f 484 483 487 485
g Group32941
f 1181 1180 1179 1178
g Group32944
f 488 489 1179 1180
f 490 488 1180 1181
g Group8785
f 490 491 489 488
g Group32941
f 1181 1178 1183 1182
g Group32944
f 496 490 1181 1182
f 491 497 1183 1178
g Group8785
f 490 496 497 491
g Group32941
f 1182 1183 1185 1184
g Group32944
f 493 492 1184 1185
f 497 493 1185 1183
g Group8785
f 496 492 493 497
g Group32941
f 1178 1179 1187 1186
g Group32944
f 498 491 1178 1186
f 489 499 1187 1179
g Group8785
f 491 498 499 489
g Group32941
f 1186 1187 1189 1188
g Group32944
f 494 498 1186 1188
f 495 494 1188 1189
g Group8785
f 498 494 495 499
g Group32941
f 1182 1184 1191 1190
g Group32944
f 504 496 1182 1190
f 492 505 1191 1184
g Group8785
f 496 504 505 492
g Group32941
f 1190 1191 1193 1192
g Group32944
f 500 504 1190 1192
f 501 500 1192 1193
g Group8785
f 504 500 501 505
g Group32941
f 1189 1187 1195 1194
g Group32944
f 506 495 1189 1194
f 499 507 1195 1187
g Group8785
f 495 506 507 499
g Group32941
f 1194 1195 1197 1196
g Group32944
f 503 502 1196 1197
f 507 503 1197 1195
g Group8785
f 506 502 503 507
g Group32941
f 1194 1196 1199 1198
g Group32944
f 508 506 1194 1198
f 502 509 1199 1196
g Group8785
f 506 508 509 502
g Group32941
f 1203 1202 1201 1200
g Group32944
f 510 511 1201 1202
f 512 510 1202 1203
g Group8785
f 512 513 511 510
g Group32941
f 1203 1200 1205 1204
g Group32944
f 516 512 1203 1204
f 513 517 1205 1200
g Group8785
f 512 516 517 513
g Group32941
f 1204 1205 1188 1206
g Group32944
f 494 514 1206 1188
f 517 494 1188 1205
g Group8785
f 516 514 494 517
g Group32941
f 1200 1201 1208 1207
g Group32944
f 518 513 1200 1207
f 511 519 1208 1201
g Group8785
f 513 518 519 511
g Group32941
f 1207 1208 1209 1185
g Group32944
f 493 518 1207 1185
f 515 493 1185 1209
g Group8785
f 518 493 515 519
g Group32941
f 1204 1206 1211 1210
g Group32944
f 524 516 1204 1210
f 514 525 1211 1206
g Group8785
f 516 524 525 514
g Group32941
f 1210 1211 1213 1212
g Group32944
f 520 524 1210 1212
f 521 520 1212 1213
g Group8785
f 524 520 521 525
g Group32941
f 1209 1208 1215 1214
g Group32944
f 526 515 1209 1214
f 519 527 1215 1208
g Group8785
f 515 526 527 519
g Group32941
f 1214 1215 1217 1216
g Group32944
f 523 522 1216 1217
f 527 523 1217 1215
g Group8785
f 526 522 523 527
g Group32941
f 1213 1211 1219 1218
g Group32944
f 528 521 1213 1218
f 525 529 1219 1211
g Group8785
f 521 528 529 525
g Group32941
f 1199 1221 1220 1198
g Group32944
f 530 508 1198 1220
f 531 530 1220 1221
g Group8785
f 509 508 530 531
g Group32941
f 1219 1220 1222 1218
g Group32944
f 530 532 1222 1220
f 529 530 1220 1219
g Group8785
f 529 528 532 530
g Group32941
f 1146 1221 1199 1148
g Group32944
f 509 456 1148 1199
f 460 531 1221 1146
g Group8785
f 460 456 509 531
g Group32941
f 1222 1169 1171 1218
g Group32944
f 477 528 1218 1171
f 532 481 1169 1222
g Group8785
f 532 528 477 481
g Group32941
f 1191 1101 1079 1193
g Group32944
f 389 501 1193 1079
f 505 411 1101 1191
g Group8785
f 505 501 389 411
g Group32941
f 1102 1214 1216 1098
g Group32944
f 522 408 1098 1216
f 412 526 1214 1102
g Group8785
f 412 408 522 526
g Group32941
f 1226 1225 1224 1223
g Group32944
f 533 534 1224 1225
f 535 533 1225 1226
g Group8785
f 535 536 534 533
g Group32941
f 1226 1223 1228 1227
g Group32944
f 541 535 1226 1227
f 536 542 1228 1223
g Group8785
f 535 541 542 536
g Group32941
f 1227 1228 1230 1229
g Group32944
f 538 537 1229 1230
f 542 538 1230 1228
g Group8785
f 541 537 538 542
g Group32941
f 1223 1224 1232 1231
g Group32944
f 543 536 1223 1231
f 534 544 1232 1224
g Group8785
f 536 543 544 534
g Group32941
f 1231 1232 1234 1233
g Group32944
f 539 543 1231 1233
f 540 539 1233 1234
g Group8785
f 543 539 540 544
g Group32941
f 1227 1229 1236 1235
g Group32944
f 549 541 1227 1235
f 537 550 1236 1229
g Group8785
f 541 549 550 537
g Group32941
f 1235 1236 1238 1237
g Group32944
f 545 549 1235 1237
f 546 545 1237 1238
g Group8785
f 549 545 546 550
g Group32941
f 1234 1232 1240 1239
g Group32944
f 551 540 1234 1239
f 544 552 1240 1232
g Group8785
f 540 551 552 544
g Group32941
f 1239 1240 1242 1241
g Group32944
f 548 547 1241 1242
f 552 548 1242 1240
g Group8785
f 551 547 548 552
g Group32941
f 1239 1241 1244 1243
g Group32944
f 553 551 1239 1243
f 547 554 1244 1241
g Group8785
f 551 553 554 547
g Group32941
f 1248 1247 1246 1245
g Group32944
f 555 556 1246 1247
f 557 555 1247 1248
g Group8785
f 557 558 556 555
g Group32941
f 1248 1245 1250 1249
g Group32944
f 561 557 1248 1249
f 558 562 1250 1245
g Group8785
f 557 561 562 558
g Group32941
f 1249 1250 1233 1251
g Group32944
f 539 559 1251 1233
f 562 539 1233 1250
g Group8785
f 561 559 539 562
g Group32941
f 1245 1246 1253 1252
g Group32944
f 563 558 1245 1252
f 556 564 1253 1246
g Group8785
f 558 563 564 556
g Group32941
f 1252 1253 1254 1230
g Group32944
f 538 563 1252 1230
f 560 538 1230 1254
g Group8785
f 563 538 560 564
g Group32941
f 1249 1251 1256 1255
g Group32944
f 569 561 1249 1255
f 559 570 1256 1251
g Group8785
f 561 569 570 559
g Group32941
f 1255 1256 1258 1257
g Group32944
f 565 569 1255 1257
f 566 565 1257 1258
g Group8785
f 569 565 566 570
g Group32941
f 1254 1253 1260 1259
g Group32944
f 571 560 1254 1259
f 564 572 1260 1253
g Group8785
f 560 571 572 564
g Group32941
f 1259 1260 1262 1261
g Group32944
f 568 567 1261 1262
f 572 568 1262 1260
g Group8785
f 571 567 568 572
g Group32941
f 1258 1256 1264 1263
g Group32944
f 573 566 1258 1263
f 570 574 1264 1256
g Group8785
f 566 573 574 570
g Group32941
f 1244 1266 1265 1243
g Group32944
f 575 553 1243 1265
f 576 575 1265 1266
g Group8785
f 554 553 575 576
g Group32941
f 1264 1265 1267 1263
g Group32944
f 575 577 1267 1265
f 574 575 1265 1264
g Group8785
f 574 573 577 575
g Group32941
f 1271 1270 1269 1268
g Group32944
f 578 579 1269 1270
f 580 578 1270 1271
g Group8785
f 580 581 579 578
g Group32941
f 1271 1268 1273 1272
g Group32944
f 586 580 1271 1272
f 581 587 1273 1268
g Group8785
f 580 586 587 581
g Group32941
f 1272 1273 1275 1274
g Group32944
f 583 582 1274 1275
f 587 583 1275 1273
g Group8785
f 586 582 583 587
g Group32941
f 1268 1269 1277 1276
g Group32944
f 588 581 1268 1276
f 579 589 1277 1269
g Group8785
f 581 588 589 579
g Group32941
f 1276 1277 1279 1278
g Group32944
f 584 588 1276 1278
f 585 584 1278 1279
g Group8785
f 588 584 585 589
g Group32941
f 1272 1274 1281 1280
g Group32944
f 594 586 1272 1280
f 582 595 1281 1274
g Group8785
f 586 594 595 582
g Group32941
f 1280 1281 1283 1282
g Group32944
f 590 594 1280 1282
f 591 590 1282 1283
g Group8785
f 594 590 591 595
g Group32941
f 1279 1277 1285 1284
g Group32944
f 596 585 1279 1284
f 589 597 1285 1277
g Group8785
f 585 596 597 589
g Group32941
f 1284 1285 1287 1286
g Group32944
f 593 592 1286 1287
f 597 593 1287 1285
g Group8785
f 596 592 593 597
g Group32941
f 1284 1286 1289 1288
g Group32944
f 598 596 1284 1288
f 592 599 1289 1286
g Group8785
f 596 598 599 592
g Group32941
f 1293 1292 1291 1290
g Group32944
f 600 601 1291 1292
f 602 600 1292 1293
g Group8785
f 602 603 601 600
g Group32941
f 1293 1290 1295 1294
g Group32944
f 606 602 1293 1294
f 603 607 1295 1290
g Group8785
f 602 606 607 603
g Group32941
f 1294 1295 1278 1296
g Group32944
f 584 604 1296 1278
f 607 584 1278 1295
g Group8785
f 606 604 584 607
g Group32941
f 1290 1291 1298 1297
g Group32944
f 608 603 1290 1297
f 601 609 1298 1291
g Group8785
f 603 608 609 601
g Group32941
f 1297 1298 1299 1275
g Group32944
f 583 608 1297 1275
f 605 583 1275 1299
g Group8785
f 608 583 605 609
g Group32941
f 1294 1296 1301 1300
g Group32944
f 614 606 1294 1300
f 604 615 1301 1296
g Group8785
f 606 614 615 604
g Group32941
f 1300 1301 1303 1302
g Group32944
f 610 614 1300 1302
f 611 610 1302 1303
g Group8785
f 614 610 611 615
g Group32941
f 1299 1298 1305 1304
g Group32944
f 616 605 1299 1304
f 609 617 1305 1298
g Group8785
f 605 616 617 609
g Group32941
f 1304 1305 1307 1306
g Group32944
f 613 612 1306 1307
f 617 613 1307 1305
g Group8785
f 616 612 613 617
g Group32941
f 1303 1301 1309 1308
g Group32944
f 618 611 1303 1308
f 615 619 1309 1301
g Group8785
f 611 618 619 615
g Group32941
f 1289 1311 1310 1288
g Group32944
f 620 598 1288 1310
f 621 620 1310 1311
g Group8785
f 599 598 620 621
g Group32941
f 1309 1310 1312 1308
g Group32944
f 620 622 1312 1310
f 619 620 1310 1309
g Group8785
f 619 618 622 620
g Group32941
f 1236 1311 1289 1238
g Group32944
f 599 546 1238 1289
f 550 621 1311 1236
g Group8785
f 550 546 599 621
g Group32941
f 1312 1259 1261 1308
g Group32944
f 567 618 1308 1261
f 622 571 1259 1312
g Group8785
f 622 618 567 571
g Group32941
f 1316 1315 1314 1313
g Group32944
f 623 624 1314 1315
f 625 623 1315 1316
g Group8785
f 625 626 624 623
g Group32941
f 1316 1313 1318 1317
g Group32944
f 629 625 1316 1317
f 626 630 1318 1313
g Group8785
f 625 629 630 626
g Group32941
f 1317 1318 1320 1319
g Group32944
f 628 627 1319 1320
f 630 628 1320 1318
g Group8785
f 629 627 628 630
g Group32941
f 1317 1319 1322 1321
g Group32944
f 633 629 1317 1321
f 627 634 1322 1319
g Group8785
f 629 633 634 627
g Group32941
f 1321 1322 1324 1323
g Group32944
f 631 633 1321 1323
f 632 631 1323 1324
g Group8785
f 633 631 632 634
g Group32941
f 1328 1327 1326 1325
g Group32944
f 635 636 1326 1327
f 637 635 1327 1328
g Group8785
f 637 638 636 635
g Group32941
f 1325 1326 1330 1329
g Group32944
f 640 638 1325 1329
f 636 641 1330 1326
g Group8785
f 638 640 641 636
g Group32941
f 1329 1330 1331 1320
g Group32944
f 628 640 1329 1320
f 639 628 1320 1331
g Group8785
f 640 628 639 641
g Group32941
f 1331 1330 1333 1332
g Group32944
f 644 639 1331 1332
f 641 645 1333 1330
g Group8785
f 639 644 645 641
g Group32941
f 1332 1333 1335 1334
g Group32944
f 643 642 1334 1335
f 645 643 1335 1333
g Group8785
f 644 642 643 645
g Group32941
f 1339 1338 1337 1336
g Group32944
f 646 647 1337 1338
f 648 646 1338 1339
g Group8785
f 648 649 647 646
g Group32941
f 1339 1336 1341 1340
g Group32944
f 654 648 1339 1340
f 649 655 1341 1336
g Group8785
f 648 654 655 649
g Group32941
f 1340 1341 1343 1342
g Group32944
f 651 650 1342 1343
f 655 651 1343 1341
g Group8785
f 654 650 651 655
g Group32941
f 1336 1337 1345 1344
g Group32944
f 656 649 1336 1344
f 647 657 1345 1337
g Group8785
f 649 656 657 647
g Group32941
f 1344 1345 1347 1346
g Group32944
f 652 656 1344 1346
f 653 652 1346 1347
g Group8785
f 656 652 653 657
g Group32941
f 1340 1342 1349 1348
g Group32944
f 662 654 1340 1348
f 650 663 1349 1342
g Group8785
f 654 662 663 650
g Group32941
f 1348 1349 1351 1350
g Group32944
f 658 662 1348 1350
f 659 658 1350 1351
g Group8785
f 662 658 659 663
g Group32941
f 1347 1345 1353 1352
g Group32944
f 664 653 1347 1352
f 657 665 1353 1345
g Group8785
f 653 664 665 657
g Group32941
f 1352 1353 1355 1354
g Group32944
f 661 660 1354 1355
f 665 661 1355 1353
g Group8785
f 664 660 661 665
g Group32941
f 1352 1354 1357 1356
g Group32944
f 666 664 1352 1356
f 660 667 1357 1354
g Group8785
f 664 666 667 660
g Group32941
f 1361 1360 1359 1358
g Group32944
f 668 669 1359 1360
f 670 668 1360 1361
g Group8785
f 670 671 669 668
g Group32941
f 1361 1358 1363 1362
g Group32944
f 674 670 1361 1362
f 671 675 1363 1358
g Group8785
f 670 674 675 671
g Group32941
f 1362 1363 1346 1364
g Group32944
f 652 672 1364 1346
f 675 652 1346 1363
g Group8785
f 674 672 652 675
g Group32941
f 1358 1359 1366 1365
g Group32944
f 676 671 1358 1365
f 669 677 1366 1359
g Group8785
f 671 676 677 669
g Group32941
f 1365 1366 1367 1343
g Group32944
f 651 676 1365 1343
f 673 651 1343 1367
g Group8785
f 676 651 673 677
g Group32941
f 1362 1364 1369 1368
g Group32944
f 682 674 1362 1368
f 672 683 1369 1364
g Group8785
f 674 682 683 672
g Group32941
f 1368 1369 1371 1370
g Group32944
f 678 682 1368 1370
f 679 678 1370 1371
g Group8785
f 682 678 679 683
g Group32941
f 1367 1366 1373 1372
g Group32944
f 684 673 1367 1372
f 677 685 1373 1366
g Group8785
f 673 684 685 677
g Group32941
f 1372 1373 1375 1374
g Group32944
f 681 680 1374 1375
f 685 681 1375 1373
g Group8785
f 684 680 681 685
g Group32941
f 1371 1369 1377 1376
g Group32944
f 686 679 1371 1376
f 683 687 1377 1369
g Group8785
f 679 686 687 683
g Group32941
f 1357 1379 1378 1356
g Group32944
f 688 666 1356 1378
f 689 688 1378 1379
g Group8785
f 667 666 688 689
g Group32941
f 1377 1378 1380 1376
g Group32944
f 688 690 1380 1378
f 687 688 1378 1377
g Group8785
f 687 686 690 688
g Group32941
f 1322 1379 1357 1324
g Group32944
f 667 632 1324 1357
f 634 689 1379 1322
g Group8785
f 634 632 667 689
g Group32941
f 1380 1332 1334 1376
g Group32944
f 642 686 1376 1334
f 690 644 1332 1380
g Group8785
f 690 686 642 644
g Group32941
f 1349 1266 1244 1351
g Group32944
f 554 659 1351 1244
f 663 576 1266 1349
g Group8785
f 663 659 554 576
g Group32941
f 1267 1372 1374 1263
g Group32944
f 680 573 1263 1374
f 577 684 1372 1267
g Group8785
f 577 573 680 684
g Group32941
f 1281 1176 1154 1283
g Group32944
f 464 591 1283 1154
f 595 486 1176 1281
g Group8785
f 595 591 464 486
g Group32941
f 1177 1304 1306 1173
g Group32944
f 612 483 1173 1306
f 487 616 1304 1177
g Group8785
f 487 483 612 616
g Group32941
f 988 1010 1313 1314
g Group32944
f 624 299 988 1314
f 321 626 1313 1010
g Group8785
f 299 624 626 321
g Group32941
f 1012 1009 1328 1325
g Group32944
f 638 322 1012 1325
f 318 637 1328 1009
g Group8785
f 322 638 637 318
g Group32941
f 780 787 1117 1118
g Group32944
f 428 76 780 1118
f 97 430 1117 787
g Group8785
f 76 428 430 97
g Group32941
f 786 757 1106 1103
g Group32944
f 416 95 786 1103
f 66 415 1106 757
g Group8785
f 95 416 415 66

 