# File exported by ZBrush version 2021
# www.zbrush.com
#Vertex Count 1474
#Face Count 1474
#Auto scale x=1.000000 y=1.000000 z=1.000000
#Auto offset x=0.000000 y=0.000000 z=0.000000
v 0.36897498 2.60952138 0.121675
v 0.33048498 2.65456628 0.12179599
v 0.41627898 2.64242553 0.121675
v 0.37792798 2.68815565 0.12179599
v 0.522152 2.71111249 0.121675
v 0.48401597 2.75826835 0.12179599
v 0.29260197 2.78252553 0.122051
v 0.24501897 2.7475295 0.122051
v 0.46860298 2.67724752 0.121675
v 0.43035298 2.7236886 0.12179599
v 0.33598497 2.73564767 0.12192399
v 0.28846597 2.70135831 0.12192399
v 0.54535096 2.57823467 0.12141799
v 0.59864199 2.6106143 0.12141799
v 0.14634497 2.66888952 0.12205
v 0.18988098 2.62421464 0.121922
v 0.507712 2.62799167 0.121546
v 0.56113797 2.66110754 0.121546
v 0.19502598 2.70862627 0.12205
v 0.23852497 2.66320943 0.121923
v 0.708386 2.67283439 0.12141899
v 0.67117697 2.72481632 0.12154699
v 0.10333497 2.79702043 0.122306
v 0.05462398 2.75575542 0.12230499
v 0.652933 2.64223861 0.12141799
v 0.61556994 2.69347238 0.12154699
v 0.14987897 2.7531805 0.122178
v 0.10117697 2.71268463 0.122177
v 0.72369897 2.53877067 0.12116099
v 0.77882599 2.56789732 0.12116199
v 0.68906897 2.59071159 0.12128999
v 0.74436295 2.62056636 0.12128999
v 1.07105696 2.42490434 0.121675
v 1.04529595 2.47825956 0.12179599
v 1.12517595 2.44468545 0.121675
v 1.09972596 2.49867343 0.12179599
v 1.24504196 2.48417043 0.121675
v 1.22016096 2.53948259 0.12179599
v 1.04122197 2.61164665 0.122051
v 0.98712497 2.58997726 0.122051
v 1.18463802 2.46504926 0.121675
v 1.15946495 2.51969242 0.12179599
v 1.07124793 2.55527448 0.12192399
v 1.01656699 2.53420543 0.12192399
v 1.23366498 2.3497653 0.12141799
v 1.29344296 2.36751842 0.12141799
v 0.87240999 2.53848171 0.12205
v 0.90311598 2.4841814 0.121922
v 1.20992898 2.40746355 0.121546
v 1.27002096 2.42589235 0.121546
v 0.92961698 2.56449127 0.12205
v 0.96009498 2.50948429 0.121923
v 1.41540598 2.39976358 0.12141899
v 1.39265096 2.45950555 0.12154699
v 0.86349695 2.6733427 0.122306
v 0.805875 2.64586639 0.12230499
v 1.35399293 2.38428735 0.12141799
v 1.33089697 2.44334173 0.12154699
v 0.89732199 2.6190834 0.122178
v 0.83990299 2.59234571 0.122177
v 1.39609992 2.26621866 0.12116099
v 1.45682299 2.28035545 0.12116199
v 1.37582492 2.32526254 0.12128999
v 1.43689692 2.34006166 0.12128999
v 1.69926595 2.07053756 0.121675
v 1.68783199 2.12867069 0.12179599
v 1.75662803 2.07599163 0.121675
v 1.74565494 2.13465833 0.12179599
v 1.88258302 2.08388567 0.121675
v 1.872496 2.14368772 0.12179599
v 1.71761703 2.25875473 0.122051
v 1.65898597 2.25161457 0.122051
v 1.81930697 2.08065652 0.121675
v 1.80876803 2.13989162 0.12179599
v 1.73241496 2.19662141 0.12192399
v 1.67418396 2.19006729 0.12192399
v 1.83758902 1.95672452 0.12141799
v 1.89991593 1.95878446 0.12141799
v 1.53441703 2.23151636 0.12205
v 1.55042696 2.17122554 0.121922
v 1.82921302 2.01854944 0.121546
v 1.89201498 2.02118349 0.121546
v 1.59633493 2.24225044 0.12205
v 1.61194896 2.18133258 0.121923
v 2.02606606 1.95914244 0.12141899
v 2.01915788 2.02269458 0.12154699
v 1.55982101 2.36426353 0.122306
v 1.49712801 2.35221242 0.12230499
v 1.96273803 1.95969855 0.12141799
v 1.95532393 2.0226736 0.12154699
v 1.57886099 2.30322361 0.122178
v 1.51655495 2.2918396 0.122177
v -1.68608498 2.07072734 0.121675
v -1.745072 2.0762844 0.12179599
v -1.67501807 2.12727737 0.121675
v -1.73438298 2.13342428 0.12179599
v -1.64679896 2.25028371 0.121675
v -1.70700407 2.25760364 0.12179599
v -1.86133301 2.14180231 0.122051
v -1.87114405 2.08355569 0.122051
v -1.66167998 2.18870067 0.121675
v -1.72146999 2.19542551 0.12179599
v -1.79755401 2.13833332 0.12192399
v -1.80781197 2.08064127 0.12192399
v -1.53766107 2.1710186 0.12141799
v -1.52193105 2.23135757 0.12141799
v -1.88726401 1.95841252 0.12205
v -1.82491004 1.95663344 0.121922
v -1.59931898 2.18055248 0.121546
v -1.58400297 2.24151372 0.121546
v -1.87996697 2.02082729 0.12205
v -1.81712102 2.01849031 0.121923
v -1.486431 2.35241556 0.12141899
v -1.54932904 2.3638463 0.12154699
v -2.00737094 2.02048349 0.12230099
v -2.01977992 1.95698547 0.12162199
v -1.504956 2.29185247 0.12141799
v -1.56744301 2.30263757 0.12154699
v -1.94339096 2.02139663 0.122178
v -1.95016098 1.95842945 0.12218
v -1.38213205 2.26680851 0.12116099
v -1.362818 2.32608842 0.12116199
v -1.44314801 2.28000164 0.12128999
v -1.42422306 2.33992147 0.12128999
v -1.05346 2.42679929 0.121675
v -1.10909104 2.4471817 0.12179599
v -1.02836704 2.47867155 0.121675
v -1.08421504 2.49972152 0.12179599
v -0.96977502 2.59044456 0.121675
v -1.02613604 2.61284542 0.12179599
v -1.20485103 2.54012727 0.122051
v -1.22861599 2.48691749 0.122051
v -0.99984002 2.53467559 0.121675
v -1.05594801 2.55639648 0.12179599
v -1.14405703 2.52054548 0.12192399
v -1.16865801 2.46736145 0.12192399
v -0.88440102 2.4860177 0.12141799
v -0.85383403 2.54037046 0.12141799
v -1.27514708 2.37009954 0.12205
v -1.21530604 2.3524785 0.121922
v -0.94160199 2.51092958 0.121546
v -0.91127902 2.56598472 0.121546
v -1.25217104 2.42859029 0.12205
v -1.19200003 2.41030359 0.121923
v -0.78869903 2.6484065 0.12141899
v -0.84661603 2.67546844 0.12154699
v -1.37540805 2.46073532 0.122306
v -1.39766001 2.40089845 0.12230499
v -0.822025 2.59455251 0.12141799
v -0.87971001 2.62088251 0.12154699
v -1.31335496 2.44531345 0.122178
v -1.335976 2.3861556 0.122177
v -0.709616 2.53907728 0.12116099
v -0.67585402 2.59149169 0.12116199
v -0.76526701 2.56736326 0.12128999
v -0.73171603 2.62049531 0.12128999
v -0.35573601 2.6095643 0.121675
v -0.40440601 2.6433525 0.12179599
v -0.31834301 2.65340232 0.121675
v -0.36705303 2.68789243 0.12179599
v -0.23339201 2.74673271 0.121675
v -0.28225702 2.78265571 0.12179599
v -0.47355303 2.75748872 0.122051
v -0.51068502 2.71155262 0.122051
v -0.27658203 2.70037937 0.121675
v -0.32537502 2.73557663 0.12179599
v -0.41968503 2.72316932 0.12192399
v -0.45693403 2.6779356 0.12192399
v -0.17719902 2.62410926 0.12141799
v -0.13388101 2.66896629 0.12141799
v -0.58614403 2.61042642 0.12205
v -0.53268599 2.57827663 0.121922
v -0.22624202 2.66267061 0.121546
v -0.18298202 2.7082715 0.121546
v -0.54915499 2.66122865 0.12205
v -0.49554401 2.62835073 0.121923
v -0.04354402 2.75702333 0.12141899
v -0.09273802 2.79784965 0.12154699
v -0.66029304 2.72342634 0.122306
v -0.69692301 2.67113828 0.12230499
v -0.08940602 2.71334457 0.12141799
v -0.13855801 2.75340557 0.12154699
v -0.60413903 2.69284772 0.122178
v -0.64095604 2.6413083 0.122177
v 0.00532397 2.63124847 0.12116099
v 0.05124297 2.67342329 0.12116199
v -0.04136602 2.67268753 0.12128999
v 0.00452997 2.7156105 0.12128999
v 0.36457297 -2.60951948 0.058152
v 0.32608297 -2.65456771 0.05827299
v 0.41187599 -2.64242553 0.058152
v 0.37352699 -2.6881566 0.05827299
v 0.51775097 -2.7111144 0.058152
v 0.47961399 -2.75826931 0.05827299
v 0.28820097 -2.78253173 0.05852799
v 0.24061597 -2.74753236 0.05852799
v 0.46420198 -2.67725038 0.058152
v 0.42595097 -2.72368955 0.05827299
v 0.33158299 -2.73564958 0.058401
v 0.28406396 -2.70136261 0.058401
v 0.54094898 -2.57823848 0.057895
v 0.59424096 -2.61061668 0.057895
v 0.14194297 -2.66889047 0.058527
v 0.18547998 -2.62421751 0.05839899
v 0.50331097 -2.62799453 0.05802299
v 0.556737 -2.66110944 0.05802299
v 0.19062498 -2.7086296 0.05852799
v 0.23412397 -2.66320753 0.0584
v 0.70398497 -2.67283868 0.05789599
v 0.666776 -2.72482156 0.058024
v 0.09893298 -2.79702472 0.05878299
v 0.05022198 -2.75575971 0.058782
v 0.64853197 -2.64224147 0.057895
v 0.61116695 -2.69347572 0.058024
v 0.14547698 -2.75318145 0.058655
v 0.09677597 -2.71269035 0.05865399
v 0.719298 -2.53877449 0.057638
v 0.77442395 -2.5678997 0.05763899
v 0.68466597 -2.59071064 0.057767
v 0.73995995 -2.62056541 0.057767
v 1.06665492 -2.42490768 0.058152
v 1.04089498 -2.47826242 0.05827299
v 1.12077403 -2.44469165 0.058152
v 1.09532392 -2.49867534 0.05827299
v 1.24063897 -2.48417472 0.058152
v 1.21575892 -2.5394845 0.05827299
v 1.03681993 -2.61164426 0.05852799
v 0.98272299 -2.5899806 0.05852799
v 1.18023598 -2.46504831 0.058152
v 1.15506303 -2.51969146 0.05827299
v 1.06684601 -2.55527639 0.058401
v 1.01216602 -2.53420972 0.058401
v 1.22926294 -2.34976673 0.057895
v 1.28904092 -2.36752367 0.057895
v 0.86800795 -2.53848362 0.058527
v 0.89871299 -2.4841876 0.05839899
v 1.20552599 -2.40746355 0.05802299
v 1.26561999 -2.42589473 0.05802299
v 0.92521399 -2.5644927 0.05852799
v 0.955693 -2.50948762 0.0584
v 1.41100394 -2.39976739 0.05789599
v 1.38824999 -2.45950841 0.058024
v 0.85909497 -2.67334651 0.05878299
v 0.801472 -2.64586734 0.058782
v 1.34959197 -2.38428831 0.057895
v 1.32649493 -2.4433484 0.058024
v 0.89292097 -2.61908245 0.058655
v 0.83550196 -2.59234762 0.05865399
v 1.39169895 -2.26621866 0.057638
v 1.45242202 -2.28035736 0.05763899
v 1.37142503 -2.32526254 0.057767
v 1.43249595 -2.34006547 0.057767
v 1.69486296 -2.07053756 0.058152
v 1.68343102 -2.1286745 0.05827299
v 1.75222599 -2.07599639 0.058152
v 1.74125397 -2.13465738 0.05827299
v 1.87818193 -2.08388567 0.058152
v 1.86809396 -2.14369154 0.05827299
v 1.71321594 -2.25875473 0.05852799
v 1.65458393 -2.25161552 0.05852799
v 1.814906 -2.08066034 0.058152
v 1.80436694 -2.13988971 0.05827299
v 1.72801196 -2.19662571 0.058401
v 1.66978192 -2.19006729 0.058401
v 1.83318698 -1.95672154 0.057895
v 1.89551198 -1.95878446 0.057895
v 1.53001594 -2.23151731 0.058527
v 1.54602694 -2.17122936 0.05839899
v 1.82481098 -2.01855135 0.05802299
v 1.88761293 -2.02118444 0.05802299
v 1.59193301 -2.24224948 0.05852799
v 1.60754692 -2.18133449 0.0584
v 1.55541896 -2.36426639 0.05878299
v 1.49272692 -2.35221672 0.058782
v 1.57445895 -2.30322933 0.058655
v 1.51215398 -2.2918415 0.05865399
v -1.69048607 -2.07073354 0.058152
v -1.74947297 -2.07628631 0.05827299
v -1.67942106 -2.12728261 0.058152
v -1.73878598 -2.13342666 0.05827299
v -1.65120005 -2.25028467 0.058152
v -1.71140503 -2.25761032 0.05827299
v -1.86573398 -2.14180564 0.05852799
v -1.87554597 -2.08355665 0.05852799
v -1.66608405 -2.18870163 0.058152
v -1.72587096 -2.19542455 0.05827299
v -1.80195796 -2.13833761 0.058401
v -1.81221401 -2.08064556 0.058401
v -1.54206299 -2.17102146 0.057895
v -1.52633297 -2.23135948 0.057895
v -1.891667 -1.95841348 0.058527
v -1.82931196 -1.95663547 0.05839899
v -1.60372006 -2.18055152 0.05802299
v -1.58840501 -2.24151134 0.05802299
v -1.88436901 -2.02083063 0.05852799
v -1.82152199 -2.01849126 0.0584
v -1.49083304 -2.35242033 0.05789599
v -1.55373203 -2.36384534 0.058024
v -1.50935804 -2.29185628 0.057895
v -1.57184505 -2.30264234 0.058024
v -1.38653397 -2.26681327 0.057638
v -1.36722099 -2.32609129 0.05763899
v -1.44755005 -2.28000164 0.057767
v -1.42862308 -2.33992672 0.057767
v -1.05786097 -2.42680168 0.058152
v -1.11349296 -2.44718265 0.05827299
v -1.03276801 -2.47867441 0.058152
v -1.08861601 -2.49972248 0.05827299
v -0.974177 -2.59044647 0.058152
v -1.030537 -2.61284542 0.05827299
v -1.209252 -2.54013061 0.05852799
v -1.23301899 -2.48691654 0.05852799
v -1.00424099 -2.53467845 0.058152
v -1.06035006 -2.55639457 0.05827299
v -1.14845907 -2.52054548 0.058401
v -1.17306101 -2.46736526 0.058401
v -0.888803 -2.48601627 0.057895
v -0.85823601 -2.54037046 0.057895
v -1.27954804 -2.37010049 0.058527
v -1.21970903 -2.35248231 0.05839899
v -0.94600403 -2.51092767 0.05802299
v -0.91568201 -2.56599044 0.05802299
v -1.25657403 -2.42859172 0.05852799
v -1.19640302 -2.41030263 0.0584
v -0.79309999 -2.6484065 0.05789599
v -0.85101801 -2.67546844 0.058024
v -1.37980902 -2.46073055 0.05878299
v -1.40206205 -2.40090131 0.058782
v -0.82642602 -2.59455537 0.057895
v -0.88411301 -2.62088537 0.058024
v -1.31775605 -2.44531631 0.058655
v -1.34037804 -2.38615942 0.05865399
v -0.71401804 -2.53908157 0.057638
v -0.68025499 -2.59149169 0.05763899
v -0.76966899 -2.5673623 0.057767
v -0.73611801 -2.62049531 0.057767
v -0.36013802 -2.60956764 0.058152
v -0.40880802 -2.6433525 0.05827299
v -0.32274502 -2.65340471 0.058152
v -0.37145501 -2.68789672 0.05827299
v -0.23779402 -2.74673032 0.058152
v -0.28665903 -2.78265762 0.05827299
v -0.47795501 -2.75748968 0.05852799
v -0.515087 -2.71155452 0.05852799
v -0.28098401 -2.70038032 0.058152
v -0.32977703 -2.73557949 0.05827299
v -0.42408701 -2.72317266 0.058401
v -0.46133601 -2.67793846 0.058401
v -0.18160001 -2.62410926 0.057895
v -0.13828301 -2.66896534 0.057895
v -0.59054601 -2.61042833 0.058527
v -0.53708702 -2.57827329 0.05839899
v -0.23064401 -2.66267633 0.05802299
v -0.18738402 -2.70827865 0.05802299
v -0.55355602 -2.66123151 0.05852799
v -0.49994599 -2.6283493 0.0584
v -0.04794502 -2.75702667 0.05789599
v -0.09713902 -2.79784965 0.058024
v -0.66469603 -2.72342634 0.05878299
v -0.70132499 -2.67114543 0.058782
v -0.09380701 -2.71334743 0.057895
v -0.14296002 -2.75340747 0.058024
v -0.60853999 -2.6928544 0.058655
v -0.64535701 -2.64130973 0.05865399
v 0.00092197 -2.63125228 0.057638
v 0.04684197 -2.67342567 0.05763899
v -0.04576802 -2.67269039 0.057767
v 0.00012797 -2.71561336 0.057767
v 2.61599302 -0.3611525 0.094038
v 2.66102004 -0.32267651 0.095471
v 2.64890408 -0.4084495 0.09381099
v 2.69461703 -0.3701055 0.09525299
v 2.71760606 -0.51430749 0.09322699
v 2.7647469 -0.4761765 0.09468799
v 2.78894901 -0.28479549 0.098332
v 2.75394606 -0.23721849 0.09852799
v 2.68373394 -0.46076551 0.093537
v 2.73015809 -0.42253249 0.094988
v 2.74208903 -0.3281655 0.096786
v 2.70779395 -0.2806535 0.09699399
v 2.58475589 -0.53750449 0.09051899
v 2.61714506 -0.59078848 0.09019099
v 2.67529201 -0.13855649 0.09884099
v 2.63063788 -0.18208549 0.097328
v 2.63449692 -0.49986952 0.09201999
v 2.66762089 -0.55328851 0.091701
v 2.71503591 -0.18723049 0.09870299
v 2.66963791 -0.23072649 0.09717799
v 2.67938303 -0.70051449 0.089445
v 2.73134803 -0.6633135 0.090974
v 2.80339098 -0.0955505 0.10178499
v 2.76211905 -0.0468505 0.101902
v 2.64877986 -0.64506852 0.089835
v 2.69999599 -0.60771352 0.091355
v 2.75957107 -0.1420885 0.100238
v 2.71906709 -0.09339249 0.10036599
v 2.54534506 -0.71582549 0.086842
v 2.57448005 -0.7709425 0.08643399
v 2.59727001 -0.68120348 0.08833
v 2.62713408 -0.73648548 0.087931
v 2.431571 -1.06314444 0.08011099
v 2.48491001 -1.03738749 0.08147499
v 2.45136404 -1.11725544 0.079571
v 2.5053339 -1.09181249 0.08094099
v 2.4908719 -1.23710751 0.078309
v 2.54616594 -1.21223449 0.079691
v 2.61827588 -1.03332054 0.08388999
v 2.596596 -0.97922849 0.08439999
v 2.47173786 -1.17671251 0.07895699
v 2.5263679 -1.15154647 0.080333
v 2.56191897 -1.06334054 0.082405
v 2.54083991 -1.00866544 0.082933
v 2.35648393 -1.22572851 0.076121
v 2.37424993 -1.28550052 0.07546
v 2.5450809 -0.8645305 0.08539
v 2.49079394 -0.89523249 0.08392799
v 2.41416692 -1.20200049 0.077528
v 2.43261098 -1.26208555 0.07687299
v 2.57109594 -0.92173051 0.08490099
v 2.51610589 -0.95220047 0.08343099
v 2.40652108 -1.40744948 0.07405199
v 2.46624589 -1.38469851 0.07547699
v 2.67991495 -0.85561949 0.08790399
v 2.65242791 -0.79800552 0.088376
v 2.39103102 -1.34604346 0.07477299
v 2.45006895 -1.32294952 0.07619199
v 2.625674 -0.88943851 0.08639299
v 2.59892606 -0.83202952 0.086874
v 2.27299189 -1.38814055 0.07199999
v 2.28714108 -1.4488585 0.07126899
v 2.33202099 -1.36786854 0.073374
v 2.34683299 -1.4289335 0.072648
v 2.07740092 -1.69127845 0.06467799
v 2.13552498 -1.67984747 0.065893
v 2.08287 -1.74863147 0.063863
v 2.14152407 -1.73765945 0.065079
v 2.09079194 -1.87457144 0.06200899
v 2.15058302 -1.86448645 0.063229
v 2.26559305 -1.70963347 0.06772299
v 2.25843787 -1.65100455 0.06853199
v 2.08754897 -1.81130552 0.06295199
v 2.14677 -1.80076754 0.06416899
v 2.20347404 -1.72442352 0.06638799
v 2.19690394 -1.66620349 0.06719999
v 1.96363902 -1.82957947 0.06046199
v 1.965716 -1.89189851 0.05951499
v 2.23831391 -1.52645444 0.07017099
v 2.17803788 -1.54246151 0.068845
v 2.02545189 -1.82120454 0.06169299
v 2.02810192 -1.88399946 0.060748
v 2.24906086 -1.58836746 0.069369
v 2.18815708 -1.60397553 0.068039
v 1.96610593 -2.01803064 0.05753999
v 2.02964592 -2.01112556 0.05877599
v 2.37104606 -1.55185854 0.072113
v 2.35897994 -1.4891715 0.07290799
v 1.96664595 -1.95471155 0.058543
v 2.02960896 -1.94729948 0.05977799
v 2.31002092 -1.57089448 0.070728
v 2.29862093 -1.50859451 0.071527
v 2.07676887 1.69364845 0.11784999
v 2.0823059 1.75262749 0.11898499
v 2.13331294 1.68258345 0.118564
v 2.13944196 1.74194145 0.11971399
v 2.25630593 1.65436852 0.120053
v 2.26361203 1.71456146 0.12123499
v 2.14778089 1.86887145 0.122095
v 2.08954095 1.87868046 0.121335
v 2.19472909 1.66924846 0.11931999
v 2.20143795 1.72902846 0.120485
v 2.14433288 1.80510246 0.120911
v 2.08664608 1.81535852 0.120167
v 2.17708587 1.54524946 0.116838
v 2.23741602 1.52952146 0.11753799
v 1.96440994 1.89479851 0.119621
v 1.96264898 1.83245253 0.118485
v 2.18660092 1.60689449 0.11808399
v 2.24755287 1.59158551 0.11880099
v 2.02681899 1.88750052 0.120488
v 2.02449989 1.82466447 0.119336
v 2.35846996 1.49402654 0.11888299
v 2.36988186 1.55691552 0.12017899
v 2.29790997 1.51254844 0.11822199
v 2.308676 1.57502543 0.119501
v 2.27290296 1.38974344 0.115643
v 2.33218097 1.37043249 0.116271
v 2.28607606 1.45075154 0.11693699
v 2.34599709 1.43182754 0.117581
v 2.43294501 1.06110549 0.113508
v 2.45331192 1.11672651 0.11482299
v 2.48481702 1.03601551 0.11392799
v 2.50585007 1.09185349 0.115257
v 2.59659099 0.97743147 0.11476399
v 2.61897206 1.03378355 0.116122
v 2.54621791 1.21247148 0.118042
v 2.49300599 1.23623454 0.11757899
v 2.54082393 1.00749146 0.11435899
v 2.56252288 1.06359255 0.115703
v 2.52665305 1.15168952 0.11665199
v 2.47346997 1.17628252 0.11620199
v 2.49220299 0.89207148 0.11152599
v 2.54655289 0.86151051 0.111899
v 2.37619304 1.28275644 0.116473
v 2.35859203 1.22292649 0.115129
v 2.51709389 0.9492625 0.112943
v 2.57214999 0.91894549 0.113332
v 2.43468189 1.25978446 0.11703299
v 2.41641092 1.19962549 0.115672
v 2.65459489 0.79638052 0.11257399
v 2.68163394 0.85428947 0.114037
v 2.46679091 1.38300049 0.119727
v 2.406955 1.4052515 0.11913599
v 2.60073995 0.82970351 0.11225199
v 2.62704801 0.88738149 0.113699
v 2.45138788 1.32095754 0.11838299
v 2.39222788 1.3435775 0.11780799
v 2.54530191 0.7173115 0.10935699
v 2.59771895 0.6835525 0.10965
v 2.57357001 0.77295452 0.11080399
v 2.62670087 0.73940551 0.11111199
v 2.61585497 0.3634665 0.10542
v 2.64962697 0.4121305 0.10683599
v 2.65970087 0.32607948 0.105521
v 2.69417309 0.37478148 0.106949
v 2.75303793 0.2411405 0.105653
v 2.78894305 0.2899965 0.107106
v 2.76372695 0.48126548 0.109971
v 2.71778893 0.51839351 0.109832
v 2.70667696 0.2843275 0.105603
v 2.74185705 0.33310848 0.10704399
v 2.72942996 0.42740649 0.10845799
v 2.68419194 0.46464949 0.108332
v 2.63044905 0.18495649 0.10258799
v 2.67530894 0.1416495 0.102612
v 2.61665701 0.5938425 0.10942699
v 2.58452606 0.5403915 0.107955
v 2.66899299 0.2339935 0.104092
v 2.71460008 0.19073849 0.104129
v 2.66745996 0.55685848 0.109645
v 2.63460397 0.50325548 0.10815899
v 2.76337909 0.05131849 0.102577
v 2.80418491 0.10050449 0.104119
v 2.72961998 0.66797751 0.11262299
v 2.67733192 0.70460248 0.11237499
v 2.71969389 0.09717749 0.10261099
v 2.75973606 0.14632049 0.10413999
v 2.69906187 0.61183351 0.111133
v 2.64751887 0.64864248 0.11090099
v 2.63763594 0.00246349 0.099577
v 2.679816 -0.0434495 0.09951899
v 2.67905497 0.04914249 0.10108999
v 2.72198295 0.00325349 0.101043
v -2.61599111 -0.3611525 0.092257
v -2.66101694 -0.32267651 0.09369
v -2.64890003 -0.4084495 0.092031
v -2.69461393 -0.3701055 0.093473
v -2.71760201 -0.51430749 0.091447
v -2.76474499 -0.4761765 0.092909
v -2.78894591 -0.28479549 0.096551
v -2.75394392 -0.23721849 0.096749
v -2.68373203 -0.46076551 0.09175699
v -2.73015499 -0.42253249 0.09320899
v -2.74208807 -0.3281655 0.09500599
v -2.70779299 -0.2806535 0.095214
v -2.58475399 -0.53750449 0.08873999
v -2.6171441 -0.59078848 0.088412
v -2.6752901 -0.13855649 0.09706199
v -2.63063311 -0.18208549 0.095549
v -2.63449311 -0.49986952 0.090241
v -2.66761803 -0.55328851 0.08992099
v -2.71503496 -0.18723049 0.096922
v -2.66963696 -0.23072649 0.095398
v -2.67938208 -0.70051449 0.08766499
v -2.73134803 -0.6633135 0.08919499
v -2.80338907 -0.0955505 0.10000599
v -2.7621169 -0.0468505 0.10012199
v -2.648777 -0.64506852 0.08805599
v -2.69999408 -0.60771352 0.089575
v -2.75956606 -0.1420885 0.098458
v -2.7190659 -0.09339249 0.098586
v -2.54534196 -0.71582549 0.08506199
v -2.57448005 -0.7709425 0.084654
v -2.5972681 -0.68120348 0.08654999
v -2.62713098 -0.73648548 0.08615099
v -2.4315679 -1.06314444 0.07833199
v -2.4849081 -1.03738749 0.079695
v -2.45136213 -1.11725544 0.077792
v -2.50533103 -1.09181249 0.079161
v -2.49086904 -1.23710751 0.07652899
v -2.54616308 -1.21223449 0.07791099
v -2.61827492 -1.03332054 0.08211
v -2.59659504 -0.97922849 0.08261899
v -2.471735 -1.17671251 0.077178
v -2.52636408 -1.15154647 0.07855299
v -2.56191611 -1.06334054 0.08062499
v -2.54083704 -1.00866544 0.08115299
v -2.35648202 -1.22572851 0.07434099
v -2.37424802 -1.28550052 0.07368099
v -2.54507613 -0.8645305 0.08360999
v -2.49079012 -0.89523249 0.082148
v -2.41416406 -1.20200049 0.07574799
v -2.43260812 -1.26208555 0.075094
v -2.57109499 -0.92173051 0.083121
v -2.51610398 -0.95220047 0.081651
v -2.40652012 -1.40744948 0.072272
v -2.46624302 -1.38469851 0.073696
v -2.67991113 -0.85561949 0.086124
v -2.65242695 -0.79800552 0.086597
v -2.39102697 -1.34604346 0.072994
v -2.45006799 -1.32294952 0.074412
v -2.62566995 -0.88943851 0.084614
v -2.59892392 -0.83202952 0.08509399
v -2.27298903 -1.38814055 0.07022
v -2.28713798 -1.4488585 0.069489
v -2.33201813 -1.36786854 0.07159499
v -2.34683013 -1.4289335 0.07086899
v -2.07739806 -1.69127845 0.062898
v -2.13551998 -1.67984747 0.06411299
v -2.0828669 -1.74863147 0.06208299
v -2.14152002 -1.73765945 0.063299
v -2.09078908 -1.87457144 0.060229
v -2.15057802 -1.86448645 0.06144899
v -2.2655909 -1.70963347 0.065944
v -2.25843501 -1.65100455 0.066752
v -2.08754706 -1.81130552 0.06117299
v -2.14676713 -1.80076754 0.06239
v -2.20347213 -1.72442352 0.064608
v -2.19690299 -1.66620349 0.065419
v -1.96363699 -1.82957947 0.05868199
v -1.96571397 -1.89189851 0.05773599
v -2.23831105 -1.52645444 0.06839099
v -2.17803597 -1.54246151 0.067065
v -2.02545094 -1.82120454 0.059913
v -2.02810001 -1.88399946 0.058968
v -2.249058 -1.58836746 0.067589
v -2.18815398 -1.60397553 0.06625899
v -1.96610307 -2.01803064 0.05576
v -2.02964496 -2.01112556 0.05699599
v -2.37104201 -1.55185854 0.070333
v -2.35897803 -1.4891715 0.07112799
v -1.96664297 -1.95471155 0.05676399
v -2.0296061 -1.94729948 0.05799699
v -2.31001806 -1.57089448 0.068948
v -2.29861998 -1.50859451 0.069747
v -2.07676506 1.69364845 0.11607
v -2.082304 1.75262749 0.117206
v -2.13331008 1.68258345 0.11678399
v -2.13944006 1.74194145 0.117935
v -2.25630402 1.65436852 0.11827299
v -2.26360893 1.71456146 0.119455
v -2.14777994 1.86887145 0.12031599
v -2.08954 1.87868046 0.11955499
v -2.19472813 1.66924846 0.11754
v -2.20143604 1.72902846 0.118706
v -2.14433002 1.80510246 0.11913199
v -2.08664298 1.81535852 0.118386
v -2.17708396 1.54524946 0.11505799
v -2.23741412 1.52952146 0.115758
v -1.95827996 1.89629852 0.11868999
v -1.962646 1.83245253 0.11670599
v -2.18659806 1.60689449 0.116305
v -2.24755001 1.59158551 0.117021
v -2.02680301 1.88750445 0.11870899
v -2.02449607 1.82466447 0.11755599
v -2.358469 1.49402654 0.11710299
v -2.36988091 1.55691552 0.11839799
v -2.29790711 1.51254844 0.116442
v -2.3086729 1.57502543 0.11772199
v -2.2729001 1.38974344 0.11386299
v -2.33217907 1.37043249 0.11449199
v -2.28607606 1.45075154 0.115157
v -2.34599304 1.43182754 0.11580099
v -2.43294405 1.06110549 0.11172699
v -2.4533081 1.11672651 0.11304299
v -2.48481202 1.03601551 0.112148
v -2.50584912 1.09185349 0.11347799
v -2.59658813 0.97743147 0.112984
v -2.61896896 1.03378355 0.114342
v -2.5462141 1.21247148 0.116262
v -2.49300313 1.23623454 0.115799
v -2.54082107 1.00749146 0.11258
v -2.56252002 1.06359255 0.11392399
v -2.5266509 1.15168952 0.114872
v -2.47346711 1.17628252 0.11442299
v -2.49219894 0.89207148 0.109746
v -2.54655003 0.86151051 0.110119
v -2.37619113 1.28275644 0.11469399
v -2.35859012 1.22292649 0.11335
v -2.51708912 0.9492625 0.11116299
v -2.57214808 0.91894549 0.11155299
v -2.43467998 1.25978446 0.115252
v -2.41640901 1.19962549 0.113893
v -2.65459513 0.79638052 0.11079499
v -2.68163204 0.85428947 0.112257
v -2.4667871 1.38300049 0.11794799
v -2.40695309 1.4052515 0.117356
v -2.60073494 0.82970351 0.11047099
v -2.62704491 0.88738149 0.111919
v -2.45138692 1.32095754 0.116603
v -2.39222693 1.3435775 0.11602799
v -2.5453 0.7173115 0.10757699
v -2.59771609 0.6835525 0.10787099
v -2.57356691 0.77295452 0.109025
v -2.62669992 0.73940551 0.10933199
v -2.61585497 0.3634665 0.10363999
v -2.6496241 0.4121305 0.105057
v -2.65969896 0.32607948 0.10374099
v -2.69417095 0.37478148 0.10516999
v -2.75303602 0.2411405 0.103873
v -2.7889409 0.2899965 0.10532599
v -2.76372695 0.48126548 0.10819099
v -2.71778798 0.51839351 0.108052
v -2.706676 0.2843275 0.10382299
v -2.7418549 0.33310848 0.105264
v -2.7294259 0.42740649 0.106678
v -2.68418908 0.46464949 0.10655199
v -2.6304481 0.18495649 0.100808
v -2.67530703 0.1416495 0.10083299
v -2.61665391 0.5938425 0.107647
v -2.58452391 0.5403915 0.10617499
v -2.66899108 0.2339935 0.10231199
v -2.71459794 0.19073849 0.10234899
v -2.6674571 0.55685848 0.10786499
v -2.63460302 0.50325548 0.106379
v -2.76337695 0.05131849 0.10079699
v -2.80418109 0.10050449 0.102339
v -2.72961711 0.66797751 0.110843
v -2.67733001 0.70460248 0.110596
v -2.71969199 0.09717749 0.100831
v -2.75973391 0.14632049 0.102361
v -2.69905901 0.61183351 0.10935299
v -2.64751696 0.64864248 0.10911999
v -2.63763403 0.00246349 0.09779699
v -2.6798141 -0.0434495 0.09773899
v -2.67905592 0.04914249 0.09930999
v -2.721982 0.00325349 0.09926399
v 1.88817703 -1.95471155 0.058543
v 0.36876496 2.60982036 -0.05635899
v 0.33027496 2.65486335 -0.05623799
v 0.37771996 2.68845462 -0.05623799
v 0.41607296 2.64272546 -0.05635899
v 0.43015497 2.72399139 -0.05623799
v 0.46840599 2.67755127 -0.05635899
v 0.48382198 2.75857257 -0.05623799
v 0.52195799 2.71141958 -0.05635899
v 0.28825298 2.70164966 -0.05610999
v 0.33577397 2.7359395 -0.05610999
v 0.24480497 2.74781751 -0.055983
v 0.29239097 2.7828145 -0.055983
v 0.56094795 2.66141939 -0.056488
v 0.50751996 2.62830162 -0.056488
v 0.59845495 2.61092758 -0.05661599
v 0.54515999 2.57854652 -0.05661599
v 0.23830197 2.66349554 -0.05611099
v 0.19480097 2.70890951 -0.055984
v 0.18965397 2.62449836 -0.056112
v 0.14611697 2.66917133 -0.055984
v 0.61539 2.69378852 -0.05648699
v 0.65275597 2.64255666 -0.05661599
v 0.67100197 2.72513341 -0.05648699
v 0.70821195 2.67315244 -0.05661499
v 0.10159298 2.71367073 -0.05585899
v 0.14964997 2.75345945 -0.055856
v 0.05536197 2.75709533 -0.055729
v 0.10310497 2.79729843 -0.055728
v 0.74498099 2.62139749 -0.056746
v 0.688896 2.59103345 -0.05674399
v 0.77983999 2.5689826 -0.05687199
v 0.72352796 2.5390954 -0.05687299
v 1.07093 2.42524766 -0.05635899
v 1.04516792 2.4786005 -0.05623799
v 1.09960103 2.49901437 -0.05623799
v 1.12505292 2.4450283 -0.05635899
v 1.15935099 2.52003526 -0.05623799
v 1.18452596 2.46539449 -0.05635899
v 1.22005093 2.53982543 -0.05623799
v 1.244933 2.48451662 -0.05635899
v 1.016433 2.53454065 -0.05610999
v 1.07111799 2.55561065 -0.05610999
v 0.98698896 2.59030962 -0.055983
v 1.04109096 2.61198043 -0.055983
v 1.26991701 2.42624235 -0.056488
v 1.20982193 2.40781259 -0.056488
v 1.29334092 2.36786937 -0.05661599
v 1.23355901 2.35011434 -0.05661599
v 0.95994895 2.50981569 -0.05611099
v 0.90296798 2.48451471 -0.056112
v 0.872262 2.53881263 -0.055984
v 0.92947 2.56482267 -0.055984
v 1.33080399 2.44369268 -0.05648699
v 1.35390293 2.38463926 -0.05661599
v 1.39256298 2.45985651 -0.05648699
v 1.41531896 2.40011549 -0.05661499
v 0.84053599 2.5931797 -0.05585899
v 0.89717197 2.61941146 -0.055856
v 0.80689799 2.64695453 -0.055729
v 0.86334598 2.67366933 -0.055728
v 1.43776094 2.34072637 -0.056747
v 1.37573993 2.32561826 -0.05674399
v 1.45816099 2.28117561 -0.05687199
v 1.39601695 2.26657629 -0.05687299
v 1.69922995 2.07090044 -0.05635899
v 1.68779397 2.12903261 -0.05623799
v 1.74562096 2.13502073 -0.05623799
v 1.75659501 2.07635355 -0.05635899
v 1.80874395 2.14025259 -0.05623799
v 1.81928503 2.0810194 -0.05635899
v 1.87247598 2.14404726 -0.05623799
v 1.88256394 2.08424854 -0.05635899
v 1.67414093 2.19042444 -0.05610999
v 1.73237502 2.19697952 -0.05610999
v 1.65893995 2.25197029 -0.055983
v 1.71757495 2.25910949 -0.055983
v 1.89200294 2.02154827 -0.056488
v 1.829198 2.0189147 -0.056488
v 1.89990592 1.95914948 -0.05661599
v 1.83757603 1.95708954 -0.05661599
v 1.61189496 2.18169069 -0.05611099
v 1.59627795 2.24260759 -0.055984
v 1.55036795 2.17158556 -0.056112
v 1.53435695 2.23187446 -0.055984
v 1.95532298 2.02303648 -0.05648699
v 1.96322095 1.96113455 -0.056618
v 2.01916098 2.0230565 -0.05648699
v 2.02679395 1.96111452 -0.056612
v 1.51743292 2.29250431 -0.05585899
v 1.57879793 2.30357933 -0.055856
v 1.49847602 2.35303163 -0.055729
v 1.55975699 2.3646183 -0.055728
v -1.68644297 2.07079649 -0.05635899
v -1.74542999 2.07635164 -0.05623799
v -1.73474001 2.13349437 -0.05623799
v -1.67537498 2.12734937 -0.05635899
v -1.72182297 2.19550561 -0.05623799
v -1.66203403 2.18878269 -0.05635899
v -1.70735406 2.25768661 -0.05623799
v -1.64715206 2.25036859 -0.05635899
v -1.80816698 2.08070135 -0.05610999
v -1.79790902 2.13839626 -0.05610999
v -1.87149906 2.08361339 -0.055983
v -1.86168503 2.14186334 -0.055983
v -1.58435702 2.24160528 -0.056488
v -1.59967303 2.18064165 -0.056488
v -1.52228307 2.23145246 -0.05661599
v -1.538015 2.17110872 -0.05661599
v -1.81747996 2.01853942 -0.05611099
v -1.88032698 2.02087354 -0.055984
v -1.82527101 1.95667851 -0.056112
v -1.88762605 1.95845449 -0.055984
v -1.56779205 2.30273962 -0.05648699
v -1.50530397 2.29195737 -0.05661599
v -1.54967498 2.36395168 -0.05648699
v -1.48677802 2.35252332 -0.05661499
v -1.95007598 1.96161449 -0.05586899
v -1.94328999 2.02184963 -0.055857
v -2.01947093 1.96174347 -0.056391
v -2.00680708 2.02135038 -0.05573
v -1.42435705 2.34094858 -0.056746
v -1.44349598 2.28011369 -0.05674399
v -1.36284601 2.32757329 -0.05687199
v -1.38248097 2.26692247 -0.05687299
v -1.05378902 2.42695665 -0.05635899
v -1.10942006 2.44733762 -0.05623799
v -1.08454203 2.49987936 -0.05623799
v -1.02869403 2.47883129 -0.05635899
v -1.05626905 2.55656242 -0.05623799
v -1.00016105 2.53484439 -0.05635899
v -1.02645397 2.61301565 -0.05623799
v -0.97009503 2.59061765 -0.05635899
v -1.16898703 2.46750831 -0.05610999
v -1.14438402 2.52069664 -0.05610999
v -1.22894597 2.48706054 -0.055983
v -1.20517706 2.54027557 -0.055983
v -0.91159701 2.56616449 -0.056488
v -0.941922 2.51110553 -0.056488
v -0.85415101 2.54055166 -0.05661599
v -0.88472104 2.48619556 -0.05661599
v -1.19233501 2.41044044 -0.05611099
v -1.215644 2.35261535 -0.056112
v -1.27548396 2.37023353 -0.055984
v -1.25250697 2.42872667 -0.055984
v -0.88002103 2.62106943 -0.05648699
v -0.822335 2.59474229 -0.05661599
v -0.846924 2.6756587 -0.05648699
v -0.789007 2.64859962 -0.05661499
v -1.33610296 2.38719463 -0.05585899
v -1.31369102 2.44544458 -0.055856
v -1.39768207 2.40239238 -0.055729
v -1.37574398 2.46086549 -0.055728
v -0.73155802 2.6215744 -0.056747
v -0.76557499 2.56755971 -0.05674399
v -0.67546403 2.59301137 -0.05687199
v -0.70992404 2.5392766 -0.05687299
v -0.35601502 2.60980033 -0.05635899
v -0.40468502 2.64358663 -0.05623799
v -0.36733001 2.68812847 -0.05623799
v -0.31861802 2.65364027 -0.05635899
v -0.32564303 2.73581838 -0.05623799
v -0.27685001 2.70062446 -0.05635899
v -0.28252202 2.78289938 -0.05623799
v -0.23365801 2.74698066 -0.05635899
v -0.45721402 2.67816257 -0.05610999
v -0.41996401 2.72339868 -0.05610999
v -0.51096504 2.71177768 -0.055983
v -0.47383001 2.75771427 -0.055983
v -0.18324402 2.70852565 -0.056488
v -0.22650702 2.66292142 -0.056488
v -0.13414202 2.6692214 -0.05661599
v -0.17746302 2.62436246 -0.05661599
v -0.49583202 2.6285696 -0.05611099
v -0.54944402 2.66144561 -0.055984
v -0.53297799 2.57849359 -0.056112
v -0.58643704 2.61064052 -0.055984
v -0.13881202 2.75366544 -0.05648699
v -0.08965802 2.71360635 -0.05661599
v -0.09298802 2.79811143 -0.05648699
v -0.04379302 2.7572875 -0.05661499
v -0.64078801 2.64239645 -0.05585899
v -0.60443103 2.69305944 -0.055856
v -0.69652503 2.67266559 -0.055729
v -0.66058504 2.72363758 -0.055728
v 0.00493297 2.71658945 -0.056747
v -0.04161502 2.67295551 -0.05674399
v 0.05197197 2.67475843 -0.05687199
v 0.00507597 2.63151836 -0.05687299
v 0.37331897 -2.68845558 -0.11976
v 0.32587298 -2.65486431 -0.11976
v 0.36436396 -2.60981845 -0.119882
v 0.41166997 -2.64272546 -0.119882
v 0.46400499 -2.67755556 -0.119882
v 0.42575296 -2.72399139 -0.11976
v 0.51755595 -2.71142149 -0.119882
v 0.47941997 -2.75857353 -0.11976
v 0.33137199 -2.73594141 -0.119632
v 0.28384998 -2.70165252 -0.119632
v 0.28798997 -2.7828207 -0.119506
v 0.24040098 -2.74782037 -0.119506
v 0.50311899 -2.62830448 -0.120011
v 0.55654698 -2.66142272 -0.120011
v 0.54075795 -2.57854938 -0.120139
v 0.59405297 -2.61092948 -0.120139
v 0.19039997 -2.70891332 -0.119506
v 0.23389998 -2.66349363 -0.119634
v 0.14171597 -2.66917371 -0.119507
v 0.18525297 -2.62450361 -0.119635
v 0.648355 -2.64255952 -0.120139
v 0.61098796 -2.69379138 -0.12001
v 0.70381099 -2.67315769 -0.120138
v 0.666601 -2.72513866 -0.12001
v 0.14524897 -2.7534604 -0.11937899
v 0.09719198 -2.71367645 -0.11938199
v 0.09870298 -2.79730272 -0.11925099
v 0.05096098 -2.75709962 -0.11925099
v 0.684493 -2.5910325 -0.120267
v 0.74057799 -2.62139654 -0.120269
v 0.71912598 -2.53909969 -0.120396
v 0.77543699 -2.56898546 -0.120395
v 1.09519898 -2.49901771 -0.11976
v 1.04076695 -2.47860336 -0.11976
v 1.06652796 -2.42525053 -0.119882
v 1.120651 -2.4450345 -0.119882
v 1.18012297 -2.46539354 -0.119882
v 1.15494895 -2.52003526 -0.11976
v 1.24053001 -2.48452043 -0.119882
v 1.215649 -2.5398283 -0.11976
v 1.06671595 -2.55561351 -0.119632
v 1.01203095 -2.53454446 -0.119632
v 1.03668892 -2.61197853 -0.119506
v 0.98258495 -2.59031248 -0.119506
v 1.20541894 -2.40781354 -0.120011
v 1.26551592 -2.42624473 -0.120011
v 1.22915697 -2.35011673 -0.120139
v 1.28893995 -2.36787462 -0.120139
v 0.86786097 -2.53881549 -0.119507
v 0.898566 -2.48452234 -0.119635
v 0.95554697 -2.50982046 -0.119634
v 0.92506796 -2.56482362 -0.119506
v 1.34950101 -2.38464069 -0.120139
v 1.32640302 -2.44369936 -0.12001
v 1.41091692 -2.40012073 -0.120138
v 1.38816094 -2.45985937 -0.12001
v 0.892771 -2.61941051 -0.11937899
v 0.83613497 -2.59318161 -0.11938199
v 0.85894399 -2.67367363 -0.11925099
v 0.80249595 -2.64695549 -0.11925099
v 1.37134003 -2.32561826 -0.120267
v 1.43335902 -2.34073066 -0.120269
v 1.39161503 -2.26657533 -0.120396
v 1.45376098 -2.28117752 -0.120395
v 1.74121892 -2.1350193 -0.11976
v 1.683393 -2.12903738 -0.11976
v 1.69482696 -2.07090044 -0.119882
v 1.75219392 -2.07635831 -0.119882
v 1.81488394 -2.08102369 -0.119882
v 1.80434298 -2.14024972 -0.11976
v 1.87816298 -2.08424854 -0.119882
v 1.86807501 -2.14405155 -0.11976
v 1.72797203 -2.19698333 -0.119632
v 1.66973793 -2.19042539 -0.119632
v 1.71317493 -2.25910949 -0.119506
v 1.65453803 -2.25197172 -0.119506
v 1.82479596 -2.0189166 -0.120011
v 1.88740599 -2.02072954 -0.12001499
v 1.83317399 -1.95708644 -0.120139
v 1.89549803 -1.95914948 -0.120139
v 1.59187698 -2.24260759 -0.119506
v 1.60749292 -2.18169355 -0.119634
v 1.52995693 -2.23187542 -0.119507
v 1.545969 -2.17159032 -0.119635
v 1.57439696 -2.30358457 -0.11937899
v 1.51303303 -2.29250526 -0.11938199
v 1.55535495 -2.36462163 -0.11925099
v 1.49407494 -2.35303545 -0.11925099
v -1.73914301 -2.13349628 -0.11976
v -1.74983108 -2.07635259 -0.11976
v -1.69084405 -2.07080173 -0.119882
v -1.67977798 -2.12735462 -0.119882
v -1.66643798 -2.18878364 -0.119882
v -1.72622406 -2.19550371 -0.11976
v -1.65155303 -2.25036954 -0.119882
v -1.71175599 -2.25769472 -0.11976
v -1.80231297 -2.13840055 -0.119632
v -1.81256997 -2.08070468 -0.119632
v -1.86608707 -2.14186668 -0.119506
v -1.87590098 -2.08361339 -0.119506
v -1.604074 -2.18064069 -0.120011
v -1.58875799 -2.24160337 -0.120011
v -1.54241704 -2.17111158 -0.120139
v -1.52668499 -2.23145437 -0.120139
v -1.882869 -2.02028226 -0.11951999
v -1.82188201 -2.01854133 -0.119634
v -1.889238 -1.95756554 -0.119513
v -1.829674 -1.95668244 -0.119635
v -1.50970602 -2.29196071 -0.120139
v -1.57219398 -2.30274438 -0.12001
v -1.49118006 -2.35252761 -0.120138
v -1.55407798 -2.36395072 -0.12001
v -1.44789898 -2.28011369 -0.120267
v -1.42875802 -2.34095335 -0.120269
v -1.38688302 -2.26692628 -0.120396
v -1.36724901 -2.32757663 -0.120395
v -1.088943 -2.49988031 -0.11976
v -1.11382198 -2.44733858 -0.11976
v -1.05818998 -2.42695951 -0.119882
v -1.033095 -2.47883558 -0.119882
v -1.00456297 -2.53484773 -0.119882
v -1.06067097 -2.55656051 -0.11976
v -0.974496 -2.59061861 -0.119882
v -1.03085506 -2.61301565 -0.11976
v -1.14878606 -2.52069664 -0.119632
v -1.17339098 -2.4675126 -0.119632
v -1.20957803 -2.54027843 -0.119506
v -1.23334896 -2.48705959 -0.119506
v -0.94632405 -2.51110363 -0.120011
v -0.916 -2.56616973 -0.120011
v -0.889122 -2.48619461 -0.120139
v -0.85855299 -2.54055166 -0.120139
v -1.27988505 -2.37023544 -0.119507
v -1.22004699 -2.3526206 -0.119635
v -1.19673907 -2.41044044 -0.119634
v -1.25690996 -2.42872762 -0.119506
v -0.82673603 -2.59474563 -0.120139
v -0.88442403 -2.62107372 -0.12001
v -0.79340803 -2.64859867 -0.120138
v -0.85132604 -2.6756587 -0.12001
v -1.31809198 -2.44544744 -0.11937899
v -1.34050405 -2.3871994 -0.11938199
v -1.38014507 -2.46086072 -0.11925099
v -1.40208303 -2.40239429 -0.11925099
v -0.76997804 -2.56755828 -0.120267
v -0.73596 -2.62157344 -0.120269
v -0.71432602 -2.53927946 -0.120396
v -0.679865 -2.59301233 -0.120395
v -0.37173202 -2.68813228 -0.11976
v -0.40908703 -2.64358663 -0.11976
v -0.36041602 -2.60980367 -0.119882
v -0.32302102 -2.65364265 -0.119882
v -0.28125202 -2.70062542 -0.119882
v -0.33004501 -2.73582172 -0.11976
v -0.23806002 -2.74697828 -0.119882
v -0.28692403 -2.78290271 -0.11976
v -0.42436501 -2.72340154 -0.119632
v -0.461616 -2.67816543 -0.119632
v -0.47823202 -2.7577157 -0.119506
v -0.51536804 -2.71177864 -0.119506
v -0.23090902 -2.66292762 -0.120011
v -0.18764701 -2.70853138 -0.120011
v -0.18186402 -2.62436151 -0.120139
v -0.13854302 -2.66922044 -0.120139
v -0.55384504 -2.66144943 -0.119506
v -0.50023502 -2.6285696 -0.119634
v -0.590837 -2.61064434 -0.119507
v -0.53737902 -2.57849264 -0.119635
v -0.09405902 -2.71360969 -0.120139
v -0.14321401 -2.75366735 -0.12001
v -0.04819402 -2.75729036 -0.120138
v -0.09738902 -2.79811143 -0.12001
v -0.608832 -2.69306659 -0.11937899
v -0.64518803 -2.64239835 -0.11938199
v -0.66498804 -2.72363758 -0.11925099
v -0.70092701 -2.67267227 -0.11925099
v -0.04601602 -2.67295837 -0.120267
v 0.00053197 -2.71659231 -0.120269
v 0.00067397 -2.63152265 -0.120396
v 0.04757097 -2.67476129 -0.120395
v 2.61908602 -0.35814449 -0.08394399
v 2.66411209 -0.3196685 -0.08251099
v 2.69771099 -0.3671005 -0.08272899
v 2.65199995 -0.4054465 -0.08417099
v 2.73325705 -0.41953751 -0.08299399
v 2.68683505 -0.45777151 -0.084445
v 2.76784586 -0.47318449 -0.083294
v 2.72070694 -0.51131552 -0.084755
v 2.71088099 -0.2776435 -0.080988
v 2.74517798 -0.3251585 -0.08119599
v 2.75703191 -0.23420649 -0.079454
v 2.79203605 -0.28178849 -0.07965099
v 2.67072701 -0.55030149 -0.086281
v 2.63760209 -0.4968805 -0.08596199
v 2.62025308 -0.58780449 -0.08779099
v 2.58786296 -0.53451651 -0.087463
v 2.67271995 -0.2277075 -0.080804
v 2.71811699 -0.18420949 -0.079279
v 2.63371992 -0.1790625 -0.08065399
v 2.6783719 -0.13553349 -0.079141
v 2.70310592 -0.60473752 -0.086627
v 2.65189099 -0.64209449 -0.08814699
v 2.73445892 -0.6603415 -0.08700799
v 2.68249607 -0.6975435 -0.088537
v 2.72284889 -0.0910125 -0.077617
v 2.76264691 -0.1390635 -0.077744
v 2.7662549 -0.0447915 -0.07607799
v 2.80646491 -0.0925235 -0.07619699
v 2.63075995 -0.73430651 -0.09005799
v 2.60038709 -0.67823553 -0.089652
v 2.57836198 -0.76915949 -0.091554
v 2.54846501 -0.71285748 -0.091141
v 2.43471002 -1.06022155 -0.097871
v 2.48804807 -1.03446447 -0.09650799
v 2.50847196 -1.0888915 -0.09704099
v 2.45450305 -1.11433553 -0.09841099
v 2.52950906 -1.14863455 -0.09765
v 2.47487902 -1.17380344 -0.09902499
v 2.54930687 -1.20932853 -0.09829199
v 2.49401307 -1.23420155 -0.099674
v 2.54397201 -1.00573444 -0.09505
v 2.56505203 -1.06041348 -0.095578
v 2.59972691 -0.9762935 -0.093583
v 2.62140798 -1.03039145 -0.09409299
v 2.43575596 -1.25918448 -0.10110899
v 2.41730999 -1.19909656 -0.100455
v 2.37739586 -1.28260254 -0.102522
v 2.35962986 -1.22282552 -0.10186199
v 2.51923489 -0.9492585 -0.09455199
v 2.49392199 -0.8922885 -0.09405499
v 2.54820799 -0.86158651 -0.092592
v 2.57422399 -0.91878747 -0.09308199
v 2.45321607 -1.32005953 -0.10179099
v 2.39417886 -1.3431555 -0.10321
v 2.46939301 -1.38181352 -0.10250699
v 2.40966987 -1.40456545 -0.10393099
v 2.60255599 -0.82986551 -0.09111499
v 2.628798 -0.88649249 -0.091589
v 2.65631008 -0.79623252 -0.089612
v 2.68303704 -0.85267353 -0.09007799
v 2.35029387 -1.42700052 -0.105347
v 2.33517289 -1.36498749 -0.10460899
v 2.29075908 -1.44740045 -0.106729
v 2.27614498 -1.38526153 -0.105983
v 2.08056402 -1.68844544 -0.113306
v 2.13868403 -1.67701351 -0.11209
v 2.14468288 -1.73482751 -0.11290499
v 2.08603096 -1.74580252 -0.114121
v 2.1499269 -1.79794645 -0.11381399
v 2.09070706 -1.80848646 -0.115032
v 2.15373897 -1.86167144 -0.114755
v 2.09395003 -1.87175655 -0.115975
v 2.20005798 -1.66336345 -0.11078399
v 2.20662808 -1.72158551 -0.111596
v 2.26159095 -1.64816248 -0.10945199
v 2.26874494 -1.7067945 -0.11025999
v 2.03126192 -1.88119053 -0.117236
v 2.02861309 -1.81839251 -0.116291
v 1.96887695 -1.88909244 -0.118469
v 1.96680092 -1.82676947 -0.117522
v 2.19131207 -1.60112547 -0.10994499
v 2.25221586 -1.58551549 -0.10861499
v 2.18119406 -1.53960847 -0.10913799
v 2.2414689 -1.5235995 -0.107813
v 2.03276801 -1.94450151 -0.11820599
v 1.96855592 -1.95214748 -0.11947099
v 2.03280496 -2.00833034 -0.119209
v 1.96739101 -2.01558542 -0.12048299
v 2.30208206 -1.50667655 -0.106469
v 2.31317186 -1.56803655 -0.10725599
v 2.36259508 -1.48772251 -0.10509
v 2.37419486 -1.54899847 -0.105871
v 2.07963299 1.69680452 -0.06013299
v 2.08516693 1.75578248 -0.058998
v 2.14230608 1.74509453 -0.05826899
v 2.13618087 1.68573749 -0.059419
v 2.20431304 1.73217654 -0.05749799
v 2.19760799 1.67239654 -0.05866299
v 2.26649093 1.71770751 -0.056748
v 2.25918698 1.65751552 -0.05793
v 2.0895009 1.81851148 -0.05781599
v 2.14719009 1.80825448 -0.05707199
v 2.09239292 1.88183248 -0.05664899
v 2.15063595 1.87202251 -0.05588799
v 2.25044107 1.5947355 -0.059182
v 2.18948507 1.61004447 -0.059899
v 2.24030709 1.53267252 -0.06044499
v 2.17997288 1.54840254 -0.061145
v 2.02734708 1.82782149 -0.058648
v 2.02920103 1.89079952 -0.057502
v 1.96549201 1.83561146 -0.05949799
v 1.96655798 1.89816951 -0.05836999
v 2.31157398 1.57817149 -0.05848099
v 2.30080986 1.51569354 -0.059761
v 2.37278389 1.56005847 -0.057804
v 2.3613739 1.49716949 -0.0591
v 2.34981894 1.43475747 -0.060393
v 2.28898286 1.45389545 -0.061046
v 2.33645987 1.37325644 -0.06169499
v 2.27581095 1.39288854 -0.06234
v 2.43589806 1.06423044 -0.064475
v 2.45626306 1.11985147 -0.06316
v 2.50880408 1.09497749 -0.062725
v 2.48777294 1.03913855 -0.06405399
v 2.565485 1.06671047 -0.062279
v 2.54378986 1.01060855 -0.06362299
v 2.62193894 1.03689754 -0.06186099
v 2.59956002 0.98054647 -0.06321899
v 2.47641301 1.17940855 -0.06178
v 2.52960205 1.15481352 -0.061331
v 2.49594593 1.23936247 -0.060404
v 2.54916501 1.21559548 -0.05993999
v 2.57512593 0.92205947 -0.06464999
v 2.52006697 0.95237851 -0.06503899
v 2.54953002 0.86462348 -0.06608299
v 2.49517703 0.89518749 -0.066456
v 2.4193449 1.20275855 -0.06230999
v 2.36152505 1.22606146 -0.06285299
v 2.37912488 1.28588855 -0.06150899
v 2.43761396 1.26291751 -0.06094999
v 2.63003087 0.8904885 -0.06428299
v 2.603724 0.8328095 -0.065731
v 2.68461799 0.85739249 -0.06394599
v 2.65758204 0.79948449 -0.065408
v 2.39606404 1.34649944 -0.060166
v 2.4543159 1.32408845 -0.05959999
v 2.41124391 1.40806853 -0.05882999
v 2.46971702 1.38613247 -0.058255
v 2.63057589 0.74204552 -0.06686599
v 2.57656192 0.77606052 -0.06717799
v 2.60203599 0.68595951 -0.068322
v 2.54829597 0.7204175 -0.068625
v 2.61888599 0.3665415 -0.07256199
v 2.65265607 0.4152055 -0.07114599
v 2.69720387 0.37785449 -0.071033
v 2.66273403 0.32915151 -0.07246099
v 2.74489593 0.33617249 -0.070938
v 2.70971894 0.2873905 -0.07237899
v 2.79198408 0.29305648 -0.070876
v 2.75608205 0.24420149 -0.072329
v 2.68721604 0.46772649 -0.06964999
v 2.73245692 0.43048149 -0.069524
v 2.72081089 0.5214715 -0.06814999
v 2.766752 0.4843415 -0.068011
v 2.71764898 0.1937965 -0.073853
v 2.67204093 0.23705449 -0.07389
v 2.67835998 0.1447055 -0.075369
v 2.63349795 0.1880165 -0.075394
v 2.63762092 0.50634151 -0.06982299
v 2.670475 0.55994451 -0.06833699
v 2.58754086 0.54348051 -0.07002699
v 2.61966991 0.59693151 -0.06855499
v 2.76278996 0.14936949 -0.073842
v 2.72274994 0.1002255 -0.07537099
v 2.80724 0.1035505 -0.073863
v 2.76643705 0.05436449 -0.075405
v 2.6514039 0.6512705 -0.06707699
v 2.70206999 0.61492151 -0.06684899
v 2.68165397 0.70699948 -0.06559699
v 2.732625 0.67106348 -0.06535899
v 2.72575807 0.00564749 -0.07694
v 2.68211889 0.05218849 -0.076892
v 2.68394804 -0.0413815 -0.078462
v 2.640702 0.00550849 -0.07840499
v -2.69770908 -0.36710149 -0.084509
v -2.66411113 -0.31966951 -0.08429199
v -2.61908698 -0.35814648 -0.08572499
v -2.65199708 -0.40544751 -0.085951
v -2.68683195 -0.45777151 -0.086225
v -2.73325395 -0.41953751 -0.084773
v -2.72070407 -0.51131552 -0.086535
v -2.76784491 -0.47318449 -0.08507299
v -2.74517607 -0.32515651 -0.08297599
v -2.71087908 -0.2776435 -0.08276799
v -2.792032 -0.2817865 -0.081431
v -2.75702905 -0.23420649 -0.08123299
v -2.63759803 -0.4968805 -0.087741
v -2.67072391 -0.55030149 -0.088061
v -2.58786201 -0.53451651 -0.08924199
v -2.62025213 -0.58780449 -0.08957
v -2.71811509 -0.18420949 -0.08106
v -2.67271804 -0.2277075 -0.08258399
v -2.67836809 -0.13553249 -0.08091999
v -2.633713 -0.1790615 -0.082433
v -2.65188813 -0.64209449 -0.089927
v -2.70310401 -0.60473752 -0.08840699
v -2.68249511 -0.6975435 -0.09031699
v -2.73445892 -0.6603415 -0.088788
v -2.76264095 -0.1390625 -0.07952399
v -2.72284793 -0.0910115 -0.07939699
v -2.80646204 -0.09252449 -0.077976
v -2.76625299 -0.0447915 -0.077858
v -2.6003859 -0.67823451 -0.091432
v -2.63075709 -0.73430651 -0.091838
v -2.54846191 -0.71285748 -0.09292
v -2.57836198 -0.76915949 -0.093334
v -2.50846791 -1.0888915 -0.09882199
v -2.48804402 -1.03446245 -0.098288
v -2.43470501 -1.06022048 -0.09965099
v -2.45449996 -1.11433553 -0.10019099
v -2.47487592 -1.17380344 -0.10080499
v -2.52950406 -1.1486355 -0.09942999
v -2.49401092 -1.23420155 -0.101454
v -2.549304 -1.20932853 -0.10007199
v -2.56505012 -1.06041348 -0.097357
v -2.54396891 -1.00573349 -0.09682899
v -2.62140703 -1.03039252 -0.095872
v -2.59972405 -0.97629451 -0.095364
v -2.41730809 -1.19909751 -0.102235
v -2.4357531 -1.25918555 -0.102889
v -2.359627 -1.22282755 -0.103642
v -2.37739396 -1.2826035 -0.104302
v -2.54820299 -0.86158651 -0.094372
v -2.49391913 -0.8922885 -0.095835
v -2.51923203 -0.9492585 -0.096331
v -2.57422208 -0.91878747 -0.094861
v -2.39417409 -1.3431555 -0.104989
v -2.45321297 -1.32005953 -0.10357099
v -2.40966701 -1.4045645 -0.10571099
v -2.469388 -1.38181245 -0.10428699
v -2.6287949 -0.88649249 -0.093369
v -2.60255503 -0.82986551 -0.092895
v -2.68303299 -0.85267353 -0.091858
v -2.65630912 -0.79623252 -0.09139199
v -2.33516907 -1.36498749 -0.106388
v -2.35029196 -1.42700052 -0.10712699
v -2.27614212 -1.38526153 -0.107763
v -2.29075598 -1.44740045 -0.108509
v -2.14467811 -1.73482954 -0.11468499
v -2.13867807 -1.67701447 -0.11387099
v -2.0805571 -1.68844652 -0.115085
v -2.086025 -1.74580347 -0.11589999
v -2.09070491 -1.80848753 -0.116811
v -2.14992404 -1.79794752 -0.115594
v -2.09394598 -1.87175655 -0.11775499
v -2.15373396 -1.86167144 -0.11653499
v -2.20662808 -1.72158753 -0.113376
v -2.20005798 -1.66336453 -0.11256499
v -2.26874399 -1.70679545 -0.11203999
v -2.26159 -1.64816248 -0.11123099
v -2.02861094 -1.81839251 -0.118071
v -2.03126001 -1.88119053 -0.119016
v -1.96679997 -1.82676947 -0.119302
v -1.96887397 -1.88909244 -0.120248
v -2.252213 -1.58551549 -0.110394
v -2.19130992 -1.60112452 -0.111725
v -2.24146509 -1.5235995 -0.109592
v -2.18119311 -1.53960847 -0.110918
v -1.96700906 -1.95226347 -0.121298
v -2.03276395 -1.94450151 -0.11998699
v -1.96507203 -2.01576042 -0.122306
v -2.0328021 -2.00833129 -0.12098799
v -2.313169 -1.56803655 -0.109035
v -2.30207991 -1.50667655 -0.10824899
v -2.37419104 -1.54899847 -0.10764999
v -2.36259293 -1.48772251 -0.10686999
v -2.14230513 1.74509453 -0.06004899
v -2.08516502 1.75578153 -0.060778
v -2.07962894 1.69680452 -0.06191299
v -2.13617801 1.68573749 -0.06119899
v -2.19760513 1.67239749 -0.06044299
v -2.20431113 1.73217654 -0.05927699
v -2.25918507 1.65751647 -0.05970999
v -2.26648807 1.71770751 -0.058528
v -2.14718914 1.80825448 -0.058852
v -2.08949804 1.81851244 -0.059597
v -2.15063691 1.87202346 -0.057668
v -2.09239196 1.8818345 -0.058428
v -2.18948102 1.61004555 -0.061679
v -2.25043702 1.59473455 -0.060962
v -2.17996907 1.54840052 -0.06292499
v -2.24030399 1.53267049 -0.06222499
v -2.02831792 1.89291751 -0.059256
v -2.02679491 1.82846152 -0.06042499
v -1.95912897 1.90283954 -0.059237
v -1.96439707 1.83688747 -0.061265
v -2.30080699 1.51569247 -0.061541
v -2.31157112 1.57816946 -0.06026099
v -2.36137199 1.49716949 -0.060879
v -2.37278103 1.56005752 -0.059585
v -2.28898406 1.45389545 -0.062826
v -2.34981513 1.43475854 -0.06217299
v -2.27581095 1.3928895 -0.06411999
v -2.33645892 1.37325644 -0.063474
v -2.50880312 1.09497749 -0.06450499
v -2.45626092 1.11985147 -0.064939
v -2.43589901 1.06423151 -0.066255
v -2.48776912 1.03913855 -0.065834
v -2.54378604 1.01060855 -0.065403
v -2.56548309 1.06671047 -0.064059
v -2.59955692 0.98054647 -0.064998
v -2.62193512 1.03689754 -0.06363999
v -2.52959895 1.15481245 -0.06310999
v -2.47640991 1.17940855 -0.06355999
v -2.54915905 1.21559453 -0.06172099
v -2.49594306 1.23936045 -0.062183
v -2.52006292 0.95237851 -0.06681899
v -2.57512307 0.92205947 -0.06643
v -2.49517297 0.89518749 -0.06823599
v -2.54952693 0.8646245 -0.067863
v -2.37912106 1.2858895 -0.063289
v -2.36152195 1.22606051 -0.06463299
v -2.41934204 1.20275747 -0.06408999
v -2.43761205 1.26291644 -0.06273099
v -2.60371995 0.8328095 -0.067511
v -2.630028 0.89048951 -0.066063
v -2.65758299 0.79948449 -0.06718799
v -2.68461895 0.8573935 -0.06572499
v -2.45431494 1.32408952 -0.061379
v -2.39606213 1.34650051 -0.061946
v -2.46971297 1.38613247 -0.060035
v -2.411242 1.40806853 -0.06060999
v -2.57655906 0.7760595 -0.06895799
v -2.63057494 0.74204552 -0.06864599
v -2.54829406 0.7204175 -0.070405
v -2.60203313 0.68596047 -0.07010099
v -2.69720196 0.37785449 -0.072812
v -2.65265393 0.4152055 -0.072925
v -2.61888504 0.3665415 -0.07434099
v -2.66273212 0.32915151 -0.07423999
v -2.70971703 0.28739148 -0.07415899
v -2.74489402 0.3361735 -0.07271799
v -2.75607895 0.24420249 -0.074109
v -2.79198193 0.29305848 -0.072655
v -2.73245191 0.43048149 -0.07130399
v -2.68721294 0.46772649 -0.07142999
v -2.766752 0.48434048 -0.069791
v -2.72080993 0.5214715 -0.06993
v -2.67203712 0.23705349 -0.07567
v -2.71764612 0.19379749 -0.075633
v -2.633497 0.1880165 -0.07717399
v -2.67835712 0.1447065 -0.077149
v -2.6704719 0.55994451 -0.07011699
v -2.63761997 0.50634151 -0.071603
v -2.6196661 0.59692949 -0.070335
v -2.58753895 0.54348051 -0.07180699
v -2.72274899 0.1002255 -0.077151
v -2.76278901 0.14937049 -0.07562099
v -2.7664361 0.05436349 -0.077185
v -2.80724 0.1035515 -0.075643
v -2.70206713 0.61492151 -0.06862999
v -2.65140295 0.65127152 -0.06885799
v -2.73262405 0.67106652 -0.067139
v -2.68165302 0.7070015 -0.067376
v -2.68211913 0.05218749 -0.078672
v -2.72575712 0.00564649 -0.07872
v -2.6407001 0.00550849 -0.08018499
v -2.68394708 -0.0413815 -0.08024099
v 1.88758802 -1.95261645 -0.119478
g Group32941
f 741 740 739 738
g Group32944
f 1 3 741 738
f 2 1 738 739
g Group13371
f 3 1 2 4
g Group32941
f 741 743 742 740
g Group32944
f 10 4 740 742
f 3 9 743 741
g Group13371
f 3 4 10 9
g Group32941
f 743 745 744 742
g Group32944
f 6 10 742 744
f 5 6 744 745
g Group13371
f 9 10 6 5
g Group32941
f 740 747 746 739
g Group32944
f 12 2 739 746
f 4 11 747 740
g Group13371
f 4 2 12 11
g Group32941
f 747 749 748 746
g Group32944
f 7 8 748 749
f 11 7 749 747
g Group13371
f 11 12 8 7
g Group32941
f 743 751 750 745
g Group32944
f 18 5 745 750
f 9 17 751 743
g Group13371
f 9 5 18 17
g Group32941
f 751 753 752 750
g Group32944
f 13 14 752 753
f 17 13 753 751
g Group13371
f 17 18 14 13
g Group32941
f 748 755 754 746
g Group32944
f 20 12 746 754
f 8 19 755 748
g Group13371
f 8 12 20 19
g Group32941
f 755 757 756 754
g Group32944
f 16 20 754 756
f 15 16 756 757
g Group13371
f 19 20 16 15
g Group32941
f 752 759 758 750
g Group32944
f 26 18 750 758
f 14 25 759 752
g Group13371
f 14 18 26 25
g Group32941
f 759 761 760 758
g Group32944
f 22 26 758 760
f 21 22 760 761
g Group13371
f 25 26 22 21
g Group32941
f 755 763 762 757
g Group32944
f 28 15 757 762
f 19 27 763 755
g Group13371
f 19 15 28 27
g Group32941
f 763 765 764 762
g Group32944
f 23 24 764 765
f 27 23 765 763
g Group13371
f 27 28 24 23
g Group32941
f 759 767 766 761
g Group32944
f 32 21 761 766
f 25 31 767 759
g Group13371
f 25 21 32 31
g Group32941
f 767 769 768 766
g Group32944
f 29 30 768 769
f 31 29 769 767
g Group13371
f 31 32 30 29
g Group32941
f 773 772 771 770
g Group32944
f 33 35 773 770
f 34 33 770 771
g Group13371
f 35 33 34 36
g Group32941
f 773 775 774 772
g Group32944
f 42 36 772 774
f 35 41 775 773
g Group13371
f 35 36 42 41
g Group32941
f 775 777 776 774
g Group32944
f 38 42 774 776
f 37 38 776 777
g Group13371
f 41 42 38 37
g Group32941
f 772 779 778 771
g Group32944
f 44 34 771 778
f 36 43 779 772
g Group13371
f 36 34 44 43
g Group32941
f 779 781 780 778
g Group32944
f 39 40 780 781
f 43 39 781 779
g Group13371
f 43 44 40 39
g Group32941
f 775 783 782 777
g Group32944
f 50 37 777 782
f 41 49 783 775
g Group13371
f 41 37 50 49
g Group32941
f 783 785 784 782
g Group32944
f 45 46 784 785
f 49 45 785 783
g Group13371
f 49 50 46 45
g Group32941
f 789 788 787 786
g Group32944
f 48 52 786 787
f 47 48 787 788
g Group13371
f 51 52 48 47
g Group32941
f 784 791 790 782
g Group32944
f 58 50 782 790
f 46 57 791 784
g Group13371
f 46 50 58 57
g Group32941
f 791 793 792 790
g Group32944
f 54 58 790 792
f 53 54 792 793
g Group13371
f 57 58 54 53
g Group32941
f 789 795 794 788
g Group32944
f 60 47 788 794
f 51 59 795 789
g Group13371
f 51 47 60 59
g Group32941
f 795 797 796 794
g Group32944
f 55 56 796 797
f 59 55 797 795
g Group13371
f 59 60 56 55
g Group32941
f 791 799 798 793
g Group32944
f 64 53 793 798
f 57 63 799 791
g Group13371
f 57 53 64 63
g Group32941
f 799 801 800 798
g Group32944
f 61 62 800 801
f 63 61 801 799
g Group13371
f 63 64 62 61
g Group32941
f 805 804 803 802
g Group32944
f 65 67 805 802
f 66 65 802 803
g Group13371
f 67 65 66 68
g Group32941
f 805 807 806 804
g Group32944
f 74 68 804 806
f 67 73 807 805
g Group13371
f 67 68 74 73
g Group32941
f 807 809 808 806
g Group32944
f 70 74 806 808
f 69 70 808 809
g Group13371
f 73 74 70 69
g Group32941
f 804 811 810 803
g Group32944
f 76 66 803 810
f 68 75 811 804
g Group13371
f 68 66 76 75
g Group32941
f 811 813 812 810
g Group32944
f 71 72 812 813
f 75 71 813 811
g Group13371
f 75 76 72 71
g Group32941
f 807 815 814 809
g Group32944
f 82 69 809 814
f 73 81 815 807
g Group13371
f 73 69 82 81
g Group32941
f 815 817 816 814
g Group32944
f 77 78 816 817
f 81 77 817 815
g Group13371
f 81 82 78 77
g Group32941
f 812 819 818 810
g Group32944
f 84 76 810 818
f 72 83 819 812
g Group13371
f 72 76 84 83
g Group32941
f 819 821 820 818
g Group32944
f 80 84 818 820
f 79 80 820 821
g Group13371
f 83 84 80 79
g Group32941
f 816 823 822 814
g Group32944
f 90 82 814 822
f 78 89 823 816
g Group13371
f 78 82 90 89
g Group32941
f 823 825 824 822
g Group32944
f 86 90 822 824
f 85 86 824 825
g Group13371
f 89 90 86 85
g Group32941
f 819 827 826 821
g Group32944
f 92 79 821 826
f 83 91 827 819
g Group13371
f 83 79 92 91
g Group32941
f 827 829 828 826
g Group32944
f 87 88 828 829
f 91 87 829 827
g Group13371
f 91 92 88 87
g Group32941
f 794 796 766 768
g Group32944
f 30 60 794 768
f 56 32 766 796
g Group13371
f 60 30 32 56
g Group32941
f 778 780 789 786
g Group32944
f 52 44 778 786
f 40 51 789 780
g Group13371
f 44 52 51 40
g Group32941
f 826 828 798 800
g Group32944
f 62 92 826 800
f 88 64 798 828
g Group13371
f 92 62 64 88
g Group32941
f 833 832 831 830
g Group32944
f 93 95 833 830
f 94 93 830 831
g Group13371
f 95 93 94 96
g Group32941
f 833 835 834 832
g Group32944
f 102 96 832 834
f 95 101 835 833
g Group13371
f 95 96 102 101
g Group32941
f 835 837 836 834
g Group32944
f 98 102 834 836
f 97 98 836 837
g Group13371
f 101 102 98 97
g Group32941
f 832 839 838 831
g Group32944
f 104 94 831 838
f 96 103 839 832
g Group13371
f 96 94 104 103
g Group32941
f 839 841 840 838
g Group32944
f 99 100 840 841
f 103 99 841 839
g Group13371
f 103 104 100 99
g Group32941
f 835 843 842 837
g Group32944
f 110 97 837 842
f 101 109 843 835
g Group13371
f 101 97 110 109
g Group32941
f 843 845 844 842
g Group32944
f 105 106 844 845
f 109 105 845 843
g Group13371
f 109 110 106 105
g Group32941
f 840 847 846 838
g Group32944
f 112 104 838 846
f 100 111 847 840
g Group13371
f 100 104 112 111
g Group32941
f 847 849 848 846
g Group32944
f 108 112 846 848
f 107 108 848 849
g Group13371
f 111 112 108 107
g Group32941
f 844 851 850 842
g Group32944
f 118 110 842 850
f 106 117 851 844
g Group13371
f 106 110 118 117
g Group32941
f 851 853 852 850
g Group32944
f 114 118 850 852
f 113 114 852 853
g Group13371
f 117 118 114 113
g Group32941
f 847 855 854 849
g Group32944
f 120 107 849 854
f 111 119 855 847
g Group13371
f 111 107 120 119
g Group32941
f 855 857 856 854
g Group32944
f 115 116 856 857
f 119 115 857 855
g Group13371
f 119 120 116 115
g Group32941
f 851 859 858 853
g Group32944
f 124 113 853 858
f 117 123 859 851
g Group13371
f 117 113 124 123
g Group32941
f 859 861 860 858
g Group32944
f 121 122 860 861
f 123 121 861 859
g Group13371
f 123 124 122 121
g Group32941
f 865 864 863 862
g Group32944
f 125 127 865 862
f 126 125 862 863
g Group13371
f 127 125 126 128
g Group32941
f 865 867 866 864
g Group32944
f 134 128 864 866
f 127 133 867 865
g Group13371
f 127 128 134 133
g Group32941
f 867 869 868 866
g Group32944
f 130 134 866 868
f 129 130 868 869
g Group13371
f 133 134 130 129
g Group32941
f 864 871 870 863
g Group32944
f 136 126 863 870
f 128 135 871 864
g Group13371
f 128 126 136 135
g Group32941
f 871 873 872 870
g Group32944
f 131 132 872 873
f 135 131 873 871
g Group13371
f 135 136 132 131
g Group32941
f 867 875 874 869
g Group32944
f 142 129 869 874
f 133 141 875 867
g Group13371
f 133 129 142 141
g Group32941
f 875 877 876 874
g Group32944
f 137 138 876 877
f 141 137 877 875
g Group13371
f 141 142 138 137
g Group32941
f 881 880 879 878
g Group32944
f 140 144 878 879
f 139 140 879 880
g Group13371
f 143 144 140 139
g Group32941
f 876 883 882 874
g Group32944
f 150 142 874 882
f 138 149 883 876
g Group13371
f 138 142 150 149
g Group32941
f 883 885 884 882
g Group32944
f 146 150 882 884
f 145 146 884 885
g Group13371
f 149 150 146 145
g Group32941
f 881 887 886 880
g Group32944
f 152 139 880 886
f 143 151 887 881
g Group13371
f 143 139 152 151
g Group32941
f 887 889 888 886
g Group32944
f 147 148 888 889
f 151 147 889 887
g Group13371
f 151 152 148 147
g Group32941
f 883 891 890 885
g Group32944
f 156 145 885 890
f 149 155 891 883
g Group13371
f 149 145 156 155
g Group32941
f 891 893 892 890
g Group32944
f 153 154 892 893
f 155 153 893 891
g Group13371
f 155 156 154 153
g Group32941
f 897 896 895 894
g Group32944
f 157 159 897 894
f 158 157 894 895
g Group13371
f 159 157 158 160
g Group32941
f 897 899 898 896
g Group32944
f 166 160 896 898
f 159 165 899 897
g Group13371
f 159 160 166 165
g Group32941
f 899 901 900 898
g Group32944
f 162 166 898 900
f 161 162 900 901
g Group13371
f 165 166 162 161
g Group32941
f 896 903 902 895
g Group32944
f 168 158 895 902
f 160 167 903 896
g Group13371
f 160 158 168 167
g Group32941
f 903 905 904 902
g Group32944
f 163 164 904 905
f 167 163 905 903
g Group13371
f 167 168 164 163
g Group32941
f 899 907 906 901
g Group32944
f 174 161 901 906
f 165 173 907 899
g Group13371
f 165 161 174 173
g Group32941
f 907 909 908 906
g Group32944
f 169 170 908 909
f 173 169 909 907
g Group13371
f 173 174 170 169
g Group32941
f 904 911 910 902
g Group32944
f 176 168 902 910
f 164 175 911 904
g Group13371
f 164 168 176 175
g Group32941
f 911 913 912 910
g Group32944
f 172 176 910 912
f 171 172 912 913
g Group13371
f 175 176 172 171
g Group32941
f 908 915 914 906
g Group32944
f 182 174 906 914
f 170 181 915 908
g Group13371
f 170 174 182 181
g Group32941
f 915 917 916 914
g Group32944
f 178 182 914 916
f 177 178 916 917
g Group13371
f 181 182 178 177
g Group32941
f 911 919 918 913
g Group32944
f 184 171 913 918
f 175 183 919 911
g Group13371
f 175 171 184 183
g Group32941
f 919 921 920 918
g Group32944
f 179 180 920 921
f 183 179 921 919
g Group13371
f 183 184 180 179
g Group32941
f 915 923 922 917
g Group32944
f 188 177 917 922
f 181 187 923 915
g Group13371
f 181 177 188 187
g Group32941
f 923 925 924 922
g Group32944
f 185 186 924 925
f 187 185 925 923
g Group13371
f 187 188 186 185
g Group32941
f 886 888 858 860
g Group32944
f 122 152 886 860
f 148 124 858 888
g Group13371
f 152 122 124 148
g Group32941
f 870 872 881 878
g Group32944
f 144 136 870 878
f 132 143 881 872
g Group13371
f 136 144 143 132
g Group32941
f 918 920 890 892
g Group32944
f 154 184 918 892
f 180 156 890 920
g Group13371
f 184 154 156 180
g Group32941
f 762 764 922 924
g Group32944
f 186 28 762 924
f 24 188 922 764
g Group13371
f 28 186 188 24
g Group32941
f 929 928 927 926
g Group32944
f 189 190 927 928
f 191 189 928 929
g Group13371
f 191 192 190 189
g Group32941
f 929 926 931 930
g Group32944
f 197 191 929 930
f 192 198 931 926
g Group13371
f 191 197 198 192
g Group32941
f 930 931 933 932
g Group32944
f 194 193 932 933
f 198 194 933 931
g Group13371
f 197 193 194 198
g Group32941
f 926 927 935 934
g Group32944
f 199 192 926 934
f 190 200 935 927
g Group13371
f 192 199 200 190
g Group32941
f 934 935 937 936
g Group32944
f 195 199 934 936
f 196 195 936 937
g Group13371
f 199 195 196 200
g Group32941
f 930 932 939 938
g Group32944
f 205 197 930 938
f 193 206 939 932
g Group13371
f 197 205 206 193
g Group32941
f 938 939 941 940
g Group32944
f 201 205 938 940
f 202 201 940 941
g Group13371
f 205 201 202 206
g Group32941
f 937 935 943 942
g Group32944
f 207 196 937 942
f 200 208 943 935
g Group13371
f 196 207 208 200
g Group32941
f 942 943 945 944
g Group32944
f 204 203 944 945
f 208 204 945 943
g Group13371
f 207 203 204 208
g Group32941
f 941 939 947 946
g Group32944
f 213 202 941 946
f 206 214 947 939
g Group13371
f 202 213 214 206
g Group32941
f 946 947 949 948
g Group32944
f 210 209 948 949
f 214 210 949 947
g Group13371
f 213 209 210 214
g Group32941
f 942 944 951 950
g Group32944
f 215 207 942 950
f 203 216 951 944
g Group13371
f 207 215 216 203
g Group32941
f 950 951 953 952
g Group32944
f 211 215 950 952
f 212 211 952 953
g Group13371
f 215 211 212 216
g Group32941
f 946 948 955 954
g Group32944
f 219 213 946 954
f 209 220 955 948
g Group13371
f 213 219 220 209
g Group32941
f 954 955 957 956
g Group32944
f 217 219 954 956
f 218 217 956 957
g Group13371
f 219 217 218 220
g Group32941
f 961 960 959 958
g Group32944
f 221 222 959 960
f 223 221 960 961
g Group13371
f 223 224 222 221
g Group32941
f 961 958 963 962
g Group32944
f 229 223 961 962
f 224 230 963 958
g Group13371
f 223 229 230 224
g Group32941
f 962 963 965 964
g Group32944
f 226 225 964 965
f 230 226 965 963
g Group13371
f 229 225 226 230
g Group32941
f 958 959 967 966
g Group32944
f 231 224 958 966
f 222 232 967 959
g Group13371
f 224 231 232 222
g Group32941
f 966 967 969 968
g Group32944
f 227 231 966 968
f 228 227 968 969
g Group13371
f 231 227 228 232
g Group32941
f 962 964 971 970
g Group32944
f 237 229 962 970
f 225 238 971 964
g Group13371
f 229 237 238 225
g Group32941
f 970 971 973 972
g Group32944
f 233 237 970 972
f 234 233 972 973
g Group13371
f 237 233 234 238
g Group32941
f 977 976 975 974
g Group32944
f 236 235 974 975
f 240 236 975 976
g Group13371
f 239 235 236 240
g Group32941
f 973 971 979 978
g Group32944
f 245 234 973 978
f 238 246 979 971
g Group13371
f 234 245 246 238
g Group32941
f 978 979 981 980
g Group32944
f 242 241 980 981
f 246 242 981 979
g Group13371
f 245 241 242 246
g Group32941
f 977 974 983 982
g Group32944
f 247 239 977 982
f 235 248 983 974
g Group13371
f 239 247 248 235
g Group32941
f 982 983 985 984
g Group32944
f 243 247 982 984
f 244 243 984 985
g Group13371
f 247 243 244 248
g Group32941
f 978 980 987 986
g Group32944
f 251 245 978 986
f 241 252 987 980
g Group13371
f 245 251 252 241
g Group32941
f 986 987 989 988
g Group32944
f 249 251 986 988
f 250 249 988 989
g Group13371
f 251 249 250 252
g Group32941
f 993 992 991 990
g Group32944
f 253 254 991 992
f 255 253 992 993
g Group13371
f 255 256 254 253
g Group32941
f 993 990 995 994
g Group32944
f 261 255 993 994
f 256 262 995 990
g Group13371
f 255 261 262 256
g Group32941
f 994 995 997 996
g Group32944
f 258 257 996 997
f 262 258 997 995
g Group13371
f 261 257 258 262
g Group32941
f 990 991 999 998
g Group32944
f 263 256 990 998
f 254 264 999 991
g Group13371
f 256 263 264 254
g Group32941
f 998 999 1001 1000
g Group32944
f 259 263 998 1000
f 260 259 1000 1001
g Group13371
f 263 259 260 264
g Group32941
f 994 996 1003 1002
g Group32944
f 269 261 994 1002
f 257 270 1003 996
g Group13371
f 261 269 270 257
g Group32941
f 1002 1003 1005 1004
g Group32944
f 265 269 1002 1004
f 266 265 1004 1005
f 270 266 1005 1003
g Group13371
f 269 265 266 270
g Group32941
f 1001 999 1007 1006
g Group32944
f 271 260 1001 1006
f 264 272 1007 999
g Group13371
f 260 271 272 264
g Group32941
f 1006 1007 1009 1008
g Group32944
f 268 267 1008 1009
f 272 268 1009 1007
g Group13371
f 271 267 268 272
g Group32941
f 1006 1008 1011 1010
g Group32944
f 275 271 1006 1010
f 267 276 1011 1008
g Group13371
f 271 275 276 267
g Group32941
f 1010 1011 1013 1012
g Group32944
f 273 275 1010 1012
f 274 273 1012 1013
g Group13371
f 275 273 274 276
g Group32941
f 983 957 955 985
g Group32944
f 220 244 985 955
f 248 218 957 983
g Group13371
f 248 244 220 218
g Group32941
f 967 976 977 969
g Group32944
f 239 228 969 977
f 232 240 976 967
g Group13371
f 232 228 239 240
g Group32941
f 1011 989 987 1013
g Group32944
f 252 274 1013 987
f 276 250 989 1011
g Group13371
f 276 274 252 250
g Group32941
f 1017 1016 1015 1014
g Group32944
f 277 278 1015 1016
f 279 277 1016 1017
g Group13371
f 279 280 278 277
g Group32941
f 1017 1014 1019 1018
g Group32944
f 285 279 1017 1018
f 280 286 1019 1014
g Group13371
f 279 285 286 280
g Group32941
f 1018 1019 1021 1020
g Group32944
f 282 281 1020 1021
f 286 282 1021 1019
g Group13371
f 285 281 282 286
g Group32941
f 1014 1015 1023 1022
g Group32944
f 287 280 1014 1022
f 278 288 1023 1015
g Group13371
f 280 287 288 278
g Group32941
f 1022 1023 1025 1024
g Group32944
f 283 287 1022 1024
f 284 283 1024 1025
g Group13371
f 287 283 284 288
g Group32941
f 1018 1020 1027 1026
g Group32944
f 293 285 1018 1026
f 281 294 1027 1020
g Group13371
f 285 293 294 281
g Group32941
f 1026 1027 1029 1028
g Group32944
f 289 293 1026 1028
f 290 289 1028 1029
g Group13371
f 293 289 290 294
g Group32941
f 1025 1023 1031 1030
g Group32944
f 295 284 1025 1030
f 288 296 1031 1023
g Group13371
f 284 295 296 288
g Group32941
f 1030 1031 1033 1032
g Group32944
f 292 291 1032 1033
f 296 292 1033 1031
g Group13371
f 295 291 292 296
g Group32941
f 1029 1027 1035 1034
g Group32944
f 299 290 1029 1034
f 294 300 1035 1027
g Group13371
f 290 299 300 294
g Group32941
f 1034 1035 1037 1036
g Group32944
f 298 297 1036 1037
f 300 298 1037 1035
g Group13371
f 299 297 298 300
g Group32941
f 1034 1036 1039 1038
g Group32944
f 303 299 1034 1038
f 297 304 1039 1036
g Group13371
f 299 303 304 297
g Group32941
f 1038 1039 1041 1040
g Group32944
f 301 303 1038 1040
f 302 301 1040 1041
g Group13371
f 303 301 302 304
g Group32941
f 1045 1044 1043 1042
g Group32944
f 305 306 1043 1044
f 307 305 1044 1045
g Group13371
f 307 308 306 305
g Group32941
f 1045 1042 1047 1046
g Group32944
f 313 307 1045 1046
f 308 314 1047 1042
g Group13371
f 307 313 314 308
g Group32941
f 1046 1047 1049 1048
g Group32944
f 310 309 1048 1049
f 314 310 1049 1047
g Group13371
f 313 309 310 314
g Group32941
f 1042 1043 1051 1050
g Group32944
f 315 308 1042 1050
f 306 316 1051 1043
g Group13371
f 308 315 316 306
g Group32941
f 1050 1051 1053 1052
g Group32944
f 311 315 1050 1052
f 312 311 1052 1053
g Group13371
f 315 311 312 316
g Group32941
f 1046 1048 1055 1054
g Group32944
f 321 313 1046 1054
f 309 322 1055 1048
g Group13371
f 313 321 322 309
g Group32941
f 1054 1055 1057 1056
g Group32944
f 317 321 1054 1056
f 318 317 1056 1057
g Group13371
f 321 317 318 322
g Group32941
f 1061 1060 1059 1058
g Group32944
f 320 319 1058 1059
f 324 320 1059 1060
g Group13371
f 323 319 320 324
g Group32941
f 1057 1055 1063 1062
g Group32944
f 329 318 1057 1062
f 322 330 1063 1055
g Group13371
f 318 329 330 322
g Group32941
f 1062 1063 1065 1064
g Group32944
f 326 325 1064 1065
f 330 326 1065 1063
g Group13371
f 329 325 326 330
g Group32941
f 1061 1058 1067 1066
g Group32944
f 331 323 1061 1066
f 319 332 1067 1058
g Group13371
f 323 331 332 319
g Group32941
f 1066 1067 1069 1068
g Group32944
f 327 331 1066 1068
f 328 327 1068 1069
g Group13371
f 331 327 328 332
g Group32941
f 1062 1064 1071 1070
g Group32944
f 335 329 1062 1070
f 325 336 1071 1064
g Group13371
f 329 335 336 325
g Group32941
f 1070 1071 1073 1072
g Group32944
f 333 335 1070 1072
f 334 333 1072 1073
g Group13371
f 335 333 334 336
g Group32941
f 1077 1076 1075 1074
g Group32944
f 337 338 1075 1076
f 339 337 1076 1077
g Group13371
f 339 340 338 337
g Group32941
f 1077 1074 1079 1078
g Group32944
f 345 339 1077 1078
f 340 346 1079 1074
g Group13371
f 339 345 346 340
g Group32941
f 1078 1079 1081 1080
g Group32944
f 342 341 1080 1081
f 346 342 1081 1079
g Group13371
f 345 341 342 346
g Group32941
f 1074 1075 1083 1082
g Group32944
f 347 340 1074 1082
f 338 348 1083 1075
g Group13371
f 340 347 348 338
g Group32941
f 1082 1083 1085 1084
g Group32944
f 343 347 1082 1084
f 344 343 1084 1085
g Group13371
f 347 343 344 348
g Group32941
f 1078 1080 1087 1086
g Group32944
f 353 345 1078 1086
f 341 354 1087 1080
g Group13371
f 345 353 354 341
g Group32941
f 1086 1087 1089 1088
g Group32944
f 349 353 1086 1088
f 350 349 1088 1089
g Group13371
f 353 349 350 354
g Group32941
f 1085 1083 1091 1090
g Group32944
f 355 344 1085 1090
f 348 356 1091 1083
g Group13371
f 344 355 356 348
g Group32941
f 1090 1091 1093 1092
g Group32944
f 352 351 1092 1093
f 356 352 1093 1091
g Group13371
f 355 351 352 356
g Group32941
f 1089 1087 1095 1094
g Group32944
f 361 350 1089 1094
f 354 362 1095 1087
g Group13371
f 350 361 362 354
g Group32941
f 1094 1095 1097 1096
g Group32944
f 358 357 1096 1097
f 362 358 1097 1095
g Group13371
f 361 357 358 362
g Group32941
f 1090 1092 1099 1098
g Group32944
f 363 355 1090 1098
f 351 364 1099 1092
g Group13371
f 355 363 364 351
g Group32941
f 1098 1099 1101 1100
g Group32944
f 359 363 1098 1100
f 360 359 1100 1101
g Group13371
f 363 359 360 364
g Group32941
f 1094 1096 1103 1102
g Group32944
f 367 361 1094 1102
f 357 368 1103 1096
g Group13371
f 361 367 368 357
g Group32941
f 1102 1103 1105 1104
g Group32944
f 365 367 1102 1104
f 366 365 1104 1105
g Group13371
f 367 365 366 368
g Group32941
f 1067 1041 1039 1069
g Group32944
f 304 328 1069 1039
f 332 302 1041 1067
g Group13371
f 332 328 304 302
g Group32941
f 1051 1060 1061 1053
g Group32944
f 323 312 1053 1061
f 316 324 1060 1051
g Group13371
f 316 312 323 324
g Group32941
f 1099 1073 1071 1101
g Group32944
f 336 360 1101 1071
f 364 334 1073 1099
g Group13371
f 364 360 336 334
g Group32941
f 951 1105 1103 953
g Group32944
f 368 212 953 1103
f 216 366 1105 951
g Group13371
f 216 212 368 366
g Group32941
f 1109 1108 1107 1106
g Group32944
f 369 371 1109 1106
f 370 369 1106 1107
g Group13371
f 371 369 370 372
g Group32941
f 1109 1111 1110 1108
g Group32944
f 378 372 1108 1110
f 371 377 1111 1109
g Group13371
f 371 372 378 377
g Group32941
f 1111 1113 1112 1110
g Group32944
f 374 378 1110 1112
f 373 374 1112 1113
g Group13371
f 377 378 374 373
g Group32941
f 1108 1115 1114 1107
g Group32944
f 380 370 1107 1114
f 372 379 1115 1108
g Group13371
f 372 370 380 379
g Group32941
f 1115 1117 1116 1114
g Group32944
f 375 376 1116 1117
f 379 375 1117 1115
g Group13371
f 379 380 376 375
g Group32941
f 1111 1119 1118 1113
g Group32944
f 386 373 1113 1118
f 377 385 1119 1111
g Group13371
f 377 373 386 385
g Group32941
f 1119 1121 1120 1118
g Group32944
f 381 382 1120 1121
f 385 381 1121 1119
g Group13371
f 385 386 382 381
g Group32941
f 1116 1123 1122 1114
g Group32944
f 388 380 1114 1122
f 376 387 1123 1116
g Group13371
f 376 380 388 387
g Group32941
f 1123 1125 1124 1122
g Group32944
f 384 388 1122 1124
f 383 384 1124 1125
g Group13371
f 387 388 384 383
g Group32941
f 1120 1127 1126 1118
g Group32944
f 394 386 1118 1126
f 382 393 1127 1120
g Group13371
f 382 386 394 393
g Group32941
f 1127 1129 1128 1126
g Group32944
f 390 394 1126 1128
f 389 390 1128 1129
g Group13371
f 393 394 390 389
g Group32941
f 1123 1131 1130 1125
g Group32944
f 396 383 1125 1130
f 387 395 1131 1123
g Group13371
f 387 383 396 395
g Group32941
f 1131 1133 1132 1130
g Group32944
f 391 392 1132 1133
f 395 391 1133 1131
g Group13371
f 395 396 392 391
g Group32941
f 1127 1135 1134 1129
g Group32944
f 400 389 1129 1134
f 393 399 1135 1127
g Group13371
f 393 389 400 399
g Group32941
f 1135 1137 1136 1134
g Group32944
f 397 398 1136 1137
f 399 397 1137 1135
g Group13371
f 399 400 398 397
g Group32941
f 1141 1140 1139 1138
g Group32944
f 401 403 1141 1138
f 402 401 1138 1139
g Group13371
f 403 401 402 404
g Group32941
f 1141 1143 1142 1140
g Group32944
f 410 404 1140 1142
f 403 409 1143 1141
g Group13371
f 403 404 410 409
g Group32941
f 1143 1145 1144 1142
g Group32944
f 406 410 1142 1144
f 405 406 1144 1145
g Group13371
f 409 410 406 405
g Group32941
f 1140 1147 1146 1139
g Group32944
f 412 402 1139 1146
f 404 411 1147 1140
g Group13371
f 404 402 412 411
g Group32941
f 1147 1149 1148 1146
g Group32944
f 407 408 1148 1149
f 411 407 1149 1147
g Group13371
f 411 412 408 407
g Group32941
f 1143 1151 1150 1145
g Group32944
f 418 405 1145 1150
f 409 417 1151 1143
g Group13371
f 409 405 418 417
g Group32941
f 1151 1153 1152 1150
g Group32944
f 413 414 1152 1153
f 417 413 1153 1151
g Group13371
f 417 418 414 413
g Group32941
f 1157 1156 1155 1154
g Group32944
f 416 420 1154 1155
f 415 416 1155 1156
g Group13371
f 419 420 416 415
g Group32941
f 1152 1159 1158 1150
g Group32944
f 426 418 1150 1158
f 414 425 1159 1152
g Group13371
f 414 418 426 425
g Group32941
f 1159 1161 1160 1158
g Group32944
f 422 426 1158 1160
f 421 422 1160 1161
g Group13371
f 425 426 422 421
g Group32941
f 1157 1163 1162 1156
g Group32944
f 428 415 1156 1162
f 419 427 1163 1157
g Group13371
f 419 415 428 427
g Group32941
f 1163 1165 1164 1162
g Group32944
f 423 424 1164 1165
f 427 423 1165 1163
g Group13371
f 427 428 424 423
g Group32941
f 1159 1167 1166 1161
g Group32944
f 432 421 1161 1166
f 425 431 1167 1159
g Group13371
f 425 421 432 431
g Group32941
f 1167 1169 1168 1166
g Group32944
f 429 430 1168 1169
f 431 429 1169 1167
g Group13371
f 431 432 430 429
g Group32941
f 1173 1172 1171 1170
g Group32944
f 433 435 1173 1170
f 434 433 1170 1171
g Group13371
f 435 433 434 436
g Group32941
f 1173 1175 1174 1172
g Group32944
f 442 436 1172 1174
f 435 441 1175 1173
g Group13371
f 435 436 442 441
g Group32941
f 1175 1177 1176 1174
g Group32944
f 438 442 1174 1176
f 437 438 1176 1177
g Group13371
f 441 442 438 437
g Group32941
f 1172 1179 1178 1171
g Group32944
f 444 434 1171 1178
f 436 443 1179 1172
g Group13371
f 436 434 444 443
g Group32941
f 1179 1181 1180 1178
g Group32944
f 439 440 1180 1181
f 443 439 1181 1179
g Group13371
f 443 444 440 439
g Group32941
f 1175 1183 1182 1177
g Group32944
f 450 437 1177 1182
f 441 449 1183 1175
g Group13371
f 441 437 450 449
g Group32941
f 1183 1185 1184 1182
g Group32944
f 445 446 1184 1185
f 449 445 1185 1183
g Group13371
f 449 450 446 445
g Group32941
f 1180 1187 1186 1178
g Group32944
f 452 444 1178 1186
f 440 451 1187 1180
g Group13371
f 440 444 452 451
g Group32941
f 1187 1189 1188 1186
g Group32944
f 448 452 1186 1188
f 447 448 1188 1189
g Group13371
f 451 452 448 447
g Group32941
f 1184 1191 1190 1182
g Group32944
f 458 450 1182 1190
f 446 457 1191 1184
g Group13371
f 446 450 458 457
g Group32941
f 1191 1193 1192 1190
g Group32944
f 454 458 1190 1192
f 453 454 1192 1193
g Group13371
f 457 458 454 453
g Group32941
f 1187 1195 1194 1189
g Group32944
f 460 447 1189 1194
f 451 459 1195 1187
g Group13371
f 451 447 460 459
g Group32941
f 1195 1197 1196 1194
g Group32944
f 455 456 1196 1197
f 459 455 1197 1195
g Group13371
f 459 460 456 455
g Group32941
f 1162 1164 1134 1136
g Group32944
f 398 428 1162 1136
f 424 400 1134 1164
g Group13371
f 428 398 400 424
g Group32941
f 1146 1148 1157 1154
g Group32944
f 420 412 1146 1154
f 408 419 1157 1148
g Group13371
f 412 420 419 408
g Group32941
f 1194 1196 1166 1168
g Group32944
f 430 460 1194 1168
f 456 432 1166 1196
g Group13371
f 460 430 432 456
g Group32941
f 1201 1200 1199 1198
g Group32944
f 461 463 1201 1198
f 462 461 1198 1199
g Group13371
f 463 461 462 464
g Group32941
f 1201 1203 1202 1200
g Group32944
f 470 464 1200 1202
f 463 469 1203 1201
g Group13371
f 463 464 470 469
g Group32941
f 1203 1205 1204 1202
g Group32944
f 466 470 1202 1204
f 465 466 1204 1205
g Group13371
f 469 470 466 465
g Group32941
f 1200 1207 1206 1199
g Group32944
f 472 462 1199 1206
f 464 471 1207 1200
g Group13371
f 464 462 472 471
g Group32941
f 1207 1209 1208 1206
g Group32944
f 467 468 1208 1209
f 471 467 1209 1207
g Group13371
f 471 472 468 467
g Group32941
f 1203 1211 1210 1205
g Group32944
f 478 465 1205 1210
f 469 477 1211 1203
g Group13371
f 469 465 478 477
g Group32941
f 1211 1213 1212 1210
g Group32944
f 473 474 1212 1213
f 477 473 1213 1211
g Group13371
f 477 478 474 473
g Group32941
f 1208 1215 1214 1206
g Group32944
f 480 472 1206 1214
f 468 479 1215 1208
g Group13371
f 468 472 480 479
g Group32941
f 1215 1217 1216 1214
g Group32944
f 476 480 1214 1216
f 475 476 1216 1217
g Group13371
f 479 480 476 475
g Group32941
f 1212 1219 1218 1210
g Group32944
f 484 478 1210 1218
f 474 483 1219 1212
g Group13371
f 474 478 484 483
g Group32941
f 1219 1221 1220 1218
g Group32944
f 482 484 1218 1220
f 481 482 1220 1221
g Group13371
f 483 484 482 481
g Group32941
f 1219 1223 1222 1221
g Group32944
f 488 481 1221 1222
f 483 487 1223 1219
g Group13371
f 483 481 488 487
g Group32941
f 1223 1225 1224 1222
g Group32944
f 485 486 1224 1225
f 487 485 1225 1223
g Group13371
f 487 488 486 485
g Group32941
f 1229 1228 1227 1226
g Group32944
f 489 491 1229 1226
f 490 489 1226 1227
g Group13371
f 491 489 490 492
g Group32941
f 1229 1231 1230 1228
g Group32944
f 498 492 1228 1230
f 491 497 1231 1229
g Group13371
f 491 492 498 497
g Group32941
f 1231 1233 1232 1230
g Group32944
f 494 498 1230 1232
f 493 494 1232 1233
g Group13371
f 497 498 494 493
g Group32941
f 1228 1235 1234 1227
g Group32944
f 500 490 1227 1234
f 492 499 1235 1228
g Group13371
f 492 490 500 499
g Group32941
f 1235 1237 1236 1234
g Group32944
f 495 496 1236 1237
f 499 495 1237 1235
g Group13371
f 499 500 496 495
g Group32941
f 1231 1239 1238 1233
g Group32944
f 506 493 1233 1238
f 497 505 1239 1231
g Group13371
f 497 493 506 505
g Group32941
f 1239 1241 1240 1238
g Group32944
f 501 502 1240 1241
f 505 501 1241 1239
g Group13371
f 505 506 502 501
g Group32941
f 1245 1244 1243 1242
g Group32944
f 504 508 1242 1243
f 503 504 1243 1244
g Group13371
f 507 508 504 503
g Group32941
f 1240 1247 1246 1238
g Group32944
f 514 506 1238 1246
f 502 513 1247 1240
g Group13371
f 502 506 514 513
g Group32941
f 1247 1249 1248 1246
g Group32944
f 510 514 1246 1248
f 509 510 1248 1249
g Group13371
f 513 514 510 509
g Group32941
f 1245 1251 1250 1244
g Group32944
f 516 503 1244 1250
f 507 515 1251 1245
g Group13371
f 507 503 516 515
g Group32941
f 1251 1253 1252 1250
g Group32944
f 511 512 1252 1253
f 515 511 1253 1251
g Group13371
f 515 516 512 511
g Group32941
f 1247 1255 1254 1249
g Group32944
f 520 509 1249 1254
f 513 519 1255 1247
g Group13371
f 513 509 520 519
g Group32941
f 1255 1257 1256 1254
g Group32944
f 517 518 1256 1257
f 519 517 1257 1255
g Group13371
f 519 520 518 517
g Group32941
f 1261 1260 1259 1258
g Group32944
f 521 523 1261 1258
f 522 521 1258 1259
g Group13371
f 523 521 522 524
g Group32941
f 1261 1263 1262 1260
g Group32944
f 530 524 1260 1262
f 523 529 1263 1261
g Group13371
f 523 524 530 529
g Group32941
f 1263 1265 1264 1262
g Group32944
f 526 530 1262 1264
f 525 526 1264 1265
g Group13371
f 529 530 526 525
g Group32941
f 1260 1267 1266 1259
g Group32944
f 532 522 1259 1266
f 524 531 1267 1260
g Group13371
f 524 522 532 531
g Group32941
f 1267 1269 1268 1266
g Group32944
f 527 528 1268 1269
f 531 527 1269 1267
g Group13371
f 531 532 528 527
g Group32941
f 1263 1271 1270 1265
g Group32944
f 538 525 1265 1270
f 529 537 1271 1263
g Group13371
f 529 525 538 537
g Group32941
f 1271 1273 1272 1270
g Group32944
f 533 534 1272 1273
f 537 533 1273 1271
g Group13371
f 537 538 534 533
g Group32941
f 1268 1275 1274 1266
g Group32944
f 540 532 1266 1274
f 528 539 1275 1268
g Group13371
f 528 532 540 539
g Group32941
f 1275 1277 1276 1274
g Group32944
f 536 540 1274 1276
f 535 536 1276 1277
g Group13371
f 539 540 536 535
g Group32941
f 1272 1279 1278 1270
g Group32944
f 546 538 1270 1278
f 534 545 1279 1272
g Group13371
f 534 538 546 545
g Group32941
f 1279 1281 1280 1278
g Group32944
f 542 546 1278 1280
f 541 542 1280 1281
g Group13371
f 545 546 542 541
g Group32941
f 1275 1283 1282 1277
g Group32944
f 548 535 1277 1282
f 539 547 1283 1275
g Group13371
f 539 535 548 547
g Group32941
f 1283 1285 1284 1282
g Group32944
f 543 544 1284 1285
f 547 543 1285 1283
g Group13371
f 547 548 544 543
g Group32941
f 1279 1287 1286 1281
g Group32944
f 552 541 1281 1286
f 545 551 1287 1279
g Group13371
f 545 541 552 551
g Group32941
f 1287 1289 1288 1286
g Group32944
f 549 550 1288 1289
f 551 549 1289 1287
g Group13371
f 551 552 550 549
g Group32941
f 1250 1252 1222 1224
g Group32944
f 486 516 1250 1224
f 512 488 1222 1252
g Group13371
f 516 486 488 512
g Group32941
f 1234 1236 1245 1242
g Group32944
f 508 500 1234 1242
f 496 507 1245 1236
g Group13371
f 500 508 507 496
g Group32941
f 1282 1284 1254 1256
g Group32944
f 518 548 1282 1256
f 544 520 1254 1284
g Group13371
f 548 518 520 544
g Group32941
f 1130 1132 1286 1288
g Group32944
f 550 396 1130 1288
f 392 552 1286 1132
g Group13371
f 396 550 552 392
g Group32941
f 1293 1292 1291 1290
g Group32944
f 553 554 1291 1292
f 555 553 1292 1293
g Group13371
f 555 556 554 553
g Group32941
f 1293 1290 1295 1294
g Group32944
f 561 555 1293 1294
f 556 562 1295 1290
g Group13371
f 555 561 562 556
g Group32941
f 1294 1295 1297 1296
g Group32944
f 558 557 1296 1297
f 562 558 1297 1295
g Group13371
f 561 557 558 562
g Group32941
f 1290 1291 1299 1298
g Group32944
f 563 556 1290 1298
f 554 564 1299 1291
g Group13371
f 556 563 564 554
g Group32941
f 1298 1299 1301 1300
g Group32944
f 559 563 1298 1300
f 560 559 1300 1301
g Group13371
f 563 559 560 564
g Group32941
f 1294 1296 1303 1302
g Group32944
f 569 561 1294 1302
f 557 570 1303 1296
g Group13371
f 561 569 570 557
g Group32941
f 1302 1303 1305 1304
g Group32944
f 565 569 1302 1304
f 566 565 1304 1305
g Group13371
f 569 565 566 570
g Group32941
f 1301 1299 1307 1306
g Group32944
f 571 560 1301 1306
f 564 572 1307 1299
g Group13371
f 560 571 572 564
g Group32941
f 1306 1307 1309 1308
g Group32944
f 568 567 1308 1309
f 572 568 1309 1307
g Group13371
f 571 567 568 572
g Group32941
f 1305 1303 1311 1310
g Group32944
f 577 566 1305 1310
f 570 578 1311 1303
g Group13371
f 566 577 578 570
g Group32941
f 1310 1311 1313 1312
g Group32944
f 574 573 1312 1313
f 578 574 1313 1311
g Group13371
f 577 573 574 578
g Group32941
f 1306 1308 1315 1314
g Group32944
f 579 571 1306 1314
f 567 580 1315 1308
g Group13371
f 571 579 580 567
g Group32941
f 1314 1315 1317 1316
g Group32944
f 575 579 1314 1316
f 576 575 1316 1317
g Group13371
f 579 575 576 580
g Group32941
f 1310 1312 1319 1318
g Group32944
f 583 577 1310 1318
f 573 584 1319 1312
g Group13371
f 577 583 584 573
g Group32941
f 1318 1319 1321 1320
g Group32944
f 581 583 1318 1320
f 582 581 1320 1321
g Group13371
f 583 581 582 584
g Group32941
f 1325 1324 1323 1322
g Group32944
f 585 586 1323 1324
f 587 585 1324 1325
g Group13371
f 587 588 586 585
g Group32941
f 1325 1322 1327 1326
g Group32944
f 593 587 1325 1326
f 588 594 1327 1322
g Group13371
f 587 593 594 588
g Group32941
f 1326 1327 1329 1328
g Group32944
f 590 589 1328 1329
f 594 590 1329 1327
g Group13371
f 593 589 590 594
g Group32941
f 1322 1323 1331 1330
g Group32944
f 595 588 1322 1330
f 586 596 1331 1323
g Group13371
f 588 595 596 586
g Group32941
f 1330 1331 1333 1332
g Group32944
f 591 595 1330 1332
f 592 591 1332 1333
g Group13371
f 595 591 592 596
g Group32941
f 1326 1328 1335 1334
g Group32944
f 601 593 1326 1334
f 589 602 1335 1328
g Group13371
f 593 601 602 589
g Group32941
f 1334 1335 1337 1336
g Group32944
f 597 601 1334 1336
f 598 597 1336 1337
g Group13371
f 601 597 598 602
g Group32941
f 1341 1340 1339 1338
g Group32944
f 600 599 1338 1339
f 604 600 1339 1340
g Group13371
f 603 599 600 604
g Group32941
f 1337 1335 1343 1342
g Group32944
f 609 598 1337 1342
f 602 610 1343 1335
g Group13371
f 598 609 610 602
g Group32941
f 1342 1343 1345 1344
g Group32944
f 606 605 1344 1345
f 610 606 1345 1343
g Group13371
f 609 605 606 610
g Group32941
f 1341 1338 1347 1346
g Group32944
f 611 603 1341 1346
f 599 612 1347 1338
g Group13371
f 603 611 612 599
g Group32941
f 1346 1347 1349 1348
g Group32944
f 607 611 1346 1348
f 608 607 1348 1349
g Group13371
f 611 607 608 612
g Group32941
f 1342 1344 1351 1350
g Group32944
f 615 609 1342 1350
f 605 616 1351 1344
g Group13371
f 609 615 616 605
g Group32941
f 1350 1351 1353 1352
g Group32944
f 613 615 1350 1352
f 614 613 1352 1353
g Group13371
f 615 613 614 616
g Group32941
f 1357 1356 1355 1354
g Group32944
f 617 618 1355 1356
f 619 617 1356 1357
g Group13371
f 619 620 618 617
g Group32941
f 1357 1354 1359 1358
g Group32944
f 625 619 1357 1358
f 620 626 1359 1354
g Group13371
f 619 625 626 620
g Group32941
f 1358 1359 1361 1360
g Group32944
f 622 621 1360 1361
f 626 622 1361 1359
g Group13371
f 625 621 622 626
g Group32941
f 1354 1355 1363 1362
g Group32944
f 627 620 1354 1362
f 618 628 1363 1355
g Group13371
f 620 627 628 618
g Group32941
f 1362 1363 1365 1364
g Group32944
f 623 627 1362 1364
f 624 623 1364 1365
g Group13371
f 627 623 624 628
g Group32941
f 1358 1360 1367 1366
g Group32944
f 633 625 1358 1366
f 621 634 1367 1360
g Group13371
f 625 633 634 621
g Group32941
f 1366 1367 1369 1368
g Group32944
f 629 633 1366 1368
f 630 629 1368 1369
g Group13371
f 633 629 630 634
g Group32941
f 1365 1363 1371 1370
g Group32944
f 635 624 1365 1370
f 628 636 1371 1363
g Group13371
f 624 635 636 628
g Group32941
f 1370 1371 1373 1372
g Group32944
f 632 631 1372 1373
f 636 632 1373 1371
g Group13371
f 635 631 632 636
g Group32941
f 1369 1367 1375 1374
g Group32944
f 641 630 1369 1374
f 634 642 1375 1367
g Group13371
f 630 641 642 634
g Group32941
f 1374 1375 1377 1376
g Group32944
f 638 637 1376 1377
f 642 638 1377 1375
g Group13371
f 641 637 638 642
g Group32941
f 1370 1372 1379 1378
g Group32944
f 643 635 1370 1378
f 631 644 1379 1372
g Group13371
f 635 643 644 631
g Group32941
f 1378 1379 1381 1380
g Group32944
f 639 643 1378 1380
f 640 639 1380 1381
g Group13371
f 643 639 640 644
g Group32941
f 1347 1321 1319 1349
g Group32944
f 584 608 1349 1319
f 612 582 1321 1347
g Group13371
f 612 608 584 582
g Group32941
f 1331 1340 1341 1333
g Group32944
f 603 592 1333 1341
f 596 604 1340 1331
g Group13371
f 596 592 603 604
g Group32941
f 1379 1353 1351 1381
g Group32944
f 616 640 1381 1351
f 644 614 1353 1379
g Group13371
f 644 640 616 614
g Group32941
f 1385 1384 1383 1382
g Group32944
f 645 646 1383 1384
f 647 645 1384 1385
g Group13371
f 647 648 646 645
g Group32941
f 1385 1382 1387 1386
g Group32944
f 653 647 1385 1386
f 648 654 1387 1382
g Group13371
f 647 653 654 648
g Group32941
f 1386 1387 1389 1388
g Group32944
f 650 649 1388 1389
f 654 650 1389 1387
g Group13371
f 653 649 650 654
g Group32941
f 1382 1383 1391 1390
g Group32944
f 655 648 1382 1390
f 646 656 1391 1383
g Group13371
f 648 655 656 646
g Group32941
f 1390 1391 1393 1392
g Group32944
f 651 655 1390 1392
f 652 651 1392 1393
g Group13371
f 655 651 652 656
g Group32941
f 1386 1388 1395 1394
g Group32944
f 661 653 1386 1394
f 649 662 1395 1388
g Group13371
f 653 661 662 649
g Group32941
f 1394 1395 1397 1396
g Group32944
f 657 661 1394 1396
f 658 657 1396 1397
g Group13371
f 661 657 658 662
g Group32941
f 1393 1391 1399 1398
g Group32944
f 663 652 1393 1398
f 656 664 1399 1391
g Group13371
f 652 663 664 656
g Group32941
f 1398 1399 1401 1400
g Group32944
f 660 659 1400 1401
f 664 660 1401 1399
g Group13371
f 663 659 660 664
g Group32941
f 1397 1395 1403 1402
g Group32944
f 667 658 1397 1402
f 662 668 1403 1395
g Group13371
f 658 667 668 662
g Group32941
f 1402 1403 1405 1404
g Group32944
f 666 665 1404 1405
f 668 666 1405 1403
g Group13371
f 667 665 666 668
g Group32941
f 1402 1404 1407 1406
g Group32944
f 671 667 1402 1406
f 665 672 1407 1404
g Group13371
f 667 671 672 665
g Group32941
f 1406 1407 1409 1408
g Group32944
f 669 671 1406 1408
f 670 669 1408 1409
g Group13371
f 671 669 670 672
g Group32941
f 1413 1412 1411 1410
g Group32944
f 673 674 1411 1412
f 675 673 1412 1413
g Group13371
f 675 676 674 673
g Group32941
f 1413 1410 1415 1414
g Group32944
f 681 675 1413 1414
f 676 682 1415 1410
g Group13371
f 675 681 682 676
g Group32941
f 1414 1415 1417 1416
g Group32944
f 678 677 1416 1417
f 682 678 1417 1415
g Group13371
f 681 677 678 682
g Group32941
f 1410 1411 1419 1418
g Group32944
f 683 676 1410 1418
f 674 684 1419 1411
g Group13371
f 676 683 684 674
g Group32941
f 1418 1419 1421 1420
g Group32944
f 679 683 1418 1420
f 680 679 1420 1421
g Group13371
f 683 679 680 684
g Group32941
f 1414 1416 1423 1422
g Group32944
f 689 681 1414 1422
f 677 690 1423 1416
g Group13371
f 681 689 690 677
g Group32941
f 1422 1423 1425 1424
g Group32944
f 685 689 1422 1424
f 686 685 1424 1425
g Group13371
f 689 685 686 690
g Group32941
f 1429 1428 1427 1426
g Group32944
f 688 687 1426 1427
f 692 688 1427 1428
g Group13371
f 691 687 688 692
g Group32941
f 1425 1423 1431 1430
g Group32944
f 697 686 1425 1430
f 690 698 1431 1423
g Group13371
f 686 697 698 690
g Group32941
f 1430 1431 1433 1432
g Group32944
f 694 693 1432 1433
f 698 694 1433 1431
g Group13371
f 697 693 694 698
g Group32941
f 1429 1426 1435 1434
g Group32944
f 699 691 1429 1434
f 687 700 1435 1426
g Group13371
f 691 699 700 687
g Group32941
f 1434 1435 1437 1436
g Group32944
f 695 699 1434 1436
f 696 695 1436 1437
g Group13371
f 699 695 696 700
g Group32941
f 1430 1432 1439 1438
g Group32944
f 703 697 1430 1438
f 693 704 1439 1432
g Group13371
f 697 703 704 693
g Group32941
f 1438 1439 1441 1440
g Group32944
f 701 703 1438 1440
f 702 701 1440 1441
g Group13371
f 703 701 702 704
g Group32941
f 1445 1444 1443 1442
g Group32944
f 705 706 1443 1444
f 707 705 1444 1445
g Group13371
f 707 708 706 705
g Group32941
f 1445 1442 1447 1446
g Group32944
f 713 707 1445 1446
f 708 714 1447 1442
g Group13371
f 707 713 714 708
g Group32941
f 1446 1447 1449 1448
g Group32944
f 710 709 1448 1449
f 714 710 1449 1447
g Group13371
f 713 709 710 714
g Group32941
f 1442 1443 1451 1450
g Group32944
f 715 708 1442 1450
f 706 716 1451 1443
g Group13371
f 708 715 716 706
g Group32941
f 1450 1451 1453 1452
g Group32944
f 711 715 1450 1452
f 712 711 1452 1453
g Group13371
f 715 711 712 716
g Group32941
f 1446 1448 1455 1454
g Group32944
f 721 713 1446 1454
f 709 722 1455 1448
g Group13371
f 713 721 722 709
g Group32941
f 1454 1455 1457 1456
g Group32944
f 717 721 1454 1456
f 718 717 1456 1457
g Group13371
f 721 717 718 722
g Group32941
f 1453 1451 1459 1458
g Group32944
f 723 712 1453 1458
f 716 724 1459 1451
g Group13371
f 712 723 724 716
g Group32941
f 1458 1459 1461 1460
g Group32944
f 720 719 1460 1461
f 724 720 1461 1459
g Group13371
f 723 719 720 724
g Group32941
f 1457 1455 1463 1462
g Group32944
f 729 718 1457 1462
f 722 730 1463 1455
g Group13371
f 718 729 730 722
g Group32941
f 1462 1463 1465 1464
g Group32944
f 726 725 1464 1465
f 730 726 1465 1463
g Group13371
f 729 725 726 730
g Group32941
f 1458 1460 1467 1466
g Group32944
f 731 723 1458 1466
f 719 732 1467 1460
g Group13371
f 723 731 732 719
g Group32941
f 1466 1467 1469 1468
g Group32944
f 727 731 1466 1468
f 728 727 1468 1469
g Group13371
f 731 727 728 732
g Group32941
f 1462 1464 1471 1470
g Group32944
f 735 729 1462 1470
f 725 736 1471 1464
g Group13371
f 729 735 736 725
g Group32941
f 1470 1471 1473 1472
g Group32944
f 733 735 1470 1472
f 734 733 1472 1473
g Group13371
f 735 733 734 736
g Group32941
f 1435 1409 1407 1437
g Group32944
f 672 696 1437 1407
f 700 670 1409 1435
g Group13371
f 700 696 672 670
g Group32941
f 1419 1428 1429 1421
g Group32944
f 691 680 1421 1429
f 684 692 1428 1419
g Group13371
f 684 680 691 692
g Group32941
f 1467 1441 1439 1469
g Group32944
f 704 728 1469 1439
f 732 702 1441 1467
g Group13371
f 732 728 704 702
g Group32941
f 1315 1473 1471 1317
g Group32944
f 736 576 1317 1471
f 580 734 1473 1315
g Group13371
f 580 576 736 734
g Group32941
f 825 823 1217 1215
g Group32944
f 479 85 825 1215
f 89 475 1217 823
g Group13371
f 85 479 475 89
g Group32941
f 1193 1191 1474 1003
g Group32944
f 270 453 1193 1003
f 737 270 1003 1474
f 457 737 1474 1191
g Group13371
f 453 270 737 457
g Group32941
f 1030 1032 1374 1376
g Group32944
f 637 295 1030 1376
f 291 641 1374 1032
g Group13371
f 295 637 641 291
g Group32941
f 854 856 1398 1400
g Group32944
f 659 120 854 1400
f 116 663 1398 856
g Group13371
f 120 659 663 116

 