# File exported by ZBrush version 2021
# www.zbrush.com
#Vertex Count 216
#Face Count 216
#Auto scale x=1.000000 y=1.000000 z=1.000000
#Auto offset x=0.000000 y=0.000000 z=0.000000
v -0.249281 2.26121211 0.27633148
v -0.87289899 2.33987307 0.27633148
v -0.16120399 2.43174791 0.27633148
v -0.63986599 2.8025949 0.27633148
v -0.003608 2.49287104 0.27633148
v -0.00804 2.97834301 0.27633148
v -0.90561199 1.93449497 0.27633148
v -0.270213 1.856426 0.27633148
v -0.99744397 1.79356002 0.27633148
v -0.51878202 1.42271196 0.27633148
v -1.76820504 1.26818704 0.27633148
v -1.70264494 1.82439494 0.27633148
v -2.35830092 0.35242199 0.26485848
v -2.02599597 0.79703301 0.27633148
v -2.04710888 1.24157404 0.27633148
v -2.25324893 1.786394 0.2696225
v -2.68435311 0.73293197 0.26773849
v -2.15472292 0.974644 0.27633148
v -2.16403698 1.12840604 0.27633148
v -2.65434002 1.30224204 0.26366049
v -1.60889196 0.63767302 0.27633148
v -1.99134504 0.200082 0.2753615
v -1.280905 1.70948803 0.27633148
v -1.35667097 1.131204 0.27633148
v -1.10584294 1.73909401 0.27633148
v -0.89770102 1.19427597 0.27633148
v -1.81070494 0.014444 0.27633148
v -1.26630997 0.29667601 0.27633148
v 0.249281 2.26121211 0.27633148
v 0.87289899 2.33987307 0.27633148
v 0.16120399 2.43174791 0.27633148
v 0.63986599 2.8025949 0.27633148
v 0.90561199 1.93449497 0.27633148
v 0.270213 1.856426 0.27633148
v 0.99744397 1.79356002 0.27633148
v 0.51878202 1.42271196 0.27633148
v 1.76820504 1.26818704 0.27633148
v 1.70264494 1.82439494 0.27633148
v 2.35830092 0.35242199 0.26485848
v 2.02599597 0.79703301 0.27633148
v 2.04710888 1.24157404 0.27633148
v 2.25324893 1.786394 0.2696225
v 2.68435311 0.73293197 0.26773849
v 2.15472292 0.974644 0.27633148
v 2.16403698 1.12840604 0.27633148
v 2.65434002 1.30224204 0.26366049
v 1.60889196 0.63767302 0.27633148
v 1.99134504 0.200082 0.2753615
v 1.280905 1.70948803 0.27633148
v 1.35667097 1.131204 0.27633148
v 1.10584294 1.73909401 0.27633148
v 0.89770102 1.19427597 0.27633148
v 1.81070494 0.014444 0.27633148
v 1.26630997 0.29667601 0.27633148
v 0.24928 -2.26121091 0.27633148
v 0.87289899 -2.33987307 0.27633148
v 0.16120299 -2.43174791 0.27633148
v 0.63986498 -2.80259394 0.27633148
v 0.003608 -2.49287009 0.27633148
v 0.008039 -2.97834301 0.27633148
v 0.90561097 -1.93449401 0.27633148
v 0.270213 -1.856426 0.27633148
v 0.99744397 -1.79356002 0.27633148
v 0.51878202 -1.42271196 0.27633148
v 1.76820504 -1.26818704 0.27633148
v 1.70264399 -1.82439494 0.27633148
v 2.35829997 -0.35242199 0.26485848
v 2.02599597 -0.79703199 0.27633148
v 2.04710888 -1.24157202 0.27633148
v 2.25324893 -1.786394 0.2696225
v 2.68435311 -0.73293197 0.26773849
v 2.15472292 -0.974644 0.27633148
v 2.16403698 -1.12840604 0.27633148
v 2.65433907 -1.30224096 0.26366049
v 1.60889196 -0.637672 0.27633148
v 1.99134504 -0.200082 0.2753615
v 1.28090405 -1.70948696 0.27633148
v 1.35667097 -1.13120305 0.27633148
v 1.10584294 -1.73909401 0.27633148
v 0.89770102 -1.19427502 0.27633148
v 1.81070494 -0.014444 0.27633148
v 1.26630997 -0.29667601 0.27633148
v -0.249281 -2.26120996 0.27633148
v -0.87289899 -2.33987188 0.27633148
v -0.16120499 -2.43174696 0.27633148
v -0.63986599 -2.80259299 0.27633148
v -0.90561199 -1.93449294 0.27633148
v -0.270213 -1.856426 0.27633148
v -0.99744397 -1.79355895 0.27633148
v -0.51878202 -1.42271196 0.27633148
v -1.76820504 -1.26818597 0.27633148
v -1.70264494 -1.82439398 0.27633148
v -2.35830092 -0.35242 0.26485848
v -2.02599597 -0.79703098 0.27633148
v -2.04710888 -1.24157202 0.27633148
v -2.25324893 -1.78639304 0.2696225
v -2.68435311 -0.73293101 0.26773849
v -2.15472197 -0.97464299 0.27633148
v -2.16403698 -1.12840497 0.27633148
v -2.65433907 -1.30224001 0.26366049
v -1.60889196 -0.637672 0.27633148
v -1.99134504 -0.20008 0.2753615
v -1.280905 -1.70948696 0.27633148
v -1.35667097 -1.13120305 0.27633148
v -1.10584294 -1.73909401 0.27633148
v -0.89770102 -1.19427502 0.27633148
v -1.81070399 -0.014443 0.27633148
v -1.26630902 -0.29667601 0.27633148
v -0.249281 2.26121211 -0.26378849
v -0.16120399 2.43174791 -0.26378849
v -0.63986599 2.8025949 -0.26378849
v -0.87289899 2.33987307 -0.26378849
v -0.003608 2.49287104 -0.26378849
v -0.00804 2.97834301 -0.26378849
v -0.90561199 1.93449497 -0.26378849
v -0.270213 1.856426 -0.26378849
v -0.99744397 1.79356002 -0.26378849
v -0.51878202 1.42271196 -0.26378849
v -2.24552607 1.78302395 -0.27044251
v -2.03938603 1.23820304 -0.26373252
v -1.76591503 1.26683402 -0.26378849
v -1.70035505 1.82304203 -0.26378849
v -2.14583993 0.97690898 -0.26374653
v -2.67547011 0.735197 -0.2723405
v -2.35127902 0.357037 -0.27520647
v -2.01897406 0.80164897 -0.26373347
v -2.64316606 1.29853797 -0.27633151
v -2.15286302 1.12470197 -0.26366052
v -1.98708605 0.200624 -0.26475349
v -1.60463297 0.638215 -0.26378348
v -1.280905 1.70948803 -0.26378849
v -1.35667097 1.131204 -0.26378849
v -0.89770102 1.19427597 -0.26378849
v -1.10584294 1.73909401 -0.26378849
v -1.81032705 0.014321 -0.26378849
v -1.26593196 0.29655399 -0.26378849
v 0.63986599 2.8025949 -0.26378849
v 0.16120399 2.43174791 -0.26378849
v 0.249281 2.26121211 -0.26378849
v 0.87289899 2.33987307 -0.26378849
v 0.90561199 1.93449497 -0.26378849
v 0.270213 1.856426 -0.26378849
v 0.51878202 1.42271196 -0.26378849
v 0.99744397 1.79356002 -0.26378849
v 1.76591503 1.26683402 -0.26378849
v 2.03938603 1.23820304 -0.26373252
v 2.24552607 1.78302395 -0.27044251
v 1.70035505 1.82304203 -0.26378849
v 2.35127997 0.357037 -0.27520647
v 2.67547106 0.735197 -0.2723405
v 2.14584088 0.97690898 -0.26374653
v 2.01897501 0.80164897 -0.26373347
v 2.15286302 1.12470197 -0.26366052
v 2.64316606 1.29853797 -0.27633151
v 1.60463297 0.638215 -0.26378348
v 1.98708605 0.200624 -0.26475349
v 1.280905 1.70948803 -0.26378849
v 1.35667097 1.131204 -0.26378849
v 1.10584294 1.73909401 -0.26378849
v 0.89770102 1.19427597 -0.26378849
v 1.26593196 0.29655399 -0.26378849
v 1.81032705 0.014321 -0.26378849
v 0.24928 -2.26121091 -0.26378849
v 0.16120299 -2.43174791 -0.26378849
v 0.63986498 -2.80259394 -0.26378849
v 0.87289899 -2.33987307 -0.26378849
v 0.003608 -2.49287009 -0.26378849
v 0.008039 -2.97834301 -0.26378849
v 0.90561097 -1.93449401 -0.26378849
v 0.270213 -1.856426 -0.26378849
v 0.99744397 -1.79356002 -0.26378849
v 0.51878202 -1.42271196 -0.26378849
v 2.24552607 -1.78302395 -0.27044251
v 2.03938603 -1.23820197 -0.26373252
v 1.76591503 -1.26683402 -0.26378849
v 1.70035398 -1.82304203 -0.26378849
v 2.14584088 -0.97690898 -0.26374653
v 2.67547106 -0.735197 -0.2723405
v 2.35127902 -0.35703799 -0.27520647
v 2.01897501 -0.80164802 -0.26373347
v 2.64316511 -1.29853797 -0.27633151
v 2.15286302 -1.12470197 -0.26366052
v 1.98708605 -0.200624 -0.26475349
v 1.60463297 -0.63821399 -0.26378348
v 1.28090405 -1.70948696 -0.26378849
v 1.35667097 -1.13120305 -0.26378849
v 0.89770102 -1.19427502 -0.26378849
v 1.10584294 -1.73909401 -0.26378849
v 1.81032705 -0.014321 -0.26378849
v 1.26593196 -0.29655298 -0.26378849
v -0.63986599 -2.80259299 -0.26378849
v -0.16120499 -2.43174696 -0.26378849
v -0.249281 -2.26120996 -0.26378849
v -0.87289899 -2.33987188 -0.26378849
v -0.90561199 -1.93449294 -0.26378849
v -0.270213 -1.856426 -0.26378849
v -0.51878202 -1.42271196 -0.26378849
v -0.99744397 -1.79355895 -0.26378849
v -1.76591503 -1.26683294 -0.26378849
v -2.03938603 -1.23820102 -0.26373252
v -2.24552607 -1.783023 -0.27044251
v -1.70035505 -1.82304 -0.26378849
v -2.35127902 -0.35703599 -0.27520647
v -2.67547011 -0.73519599 -0.2723405
v -2.14583897 -0.97690802 -0.26374653
v -2.01897406 -0.801647 -0.26373347
v -2.15286302 -1.12470102 -0.26366052
v -2.64316511 -1.29853701 -0.27633151
v -1.60463297 -0.63821399 -0.26378348
v -1.98708605 -0.200622 -0.26475349
v -1.280905 -1.70948696 -0.26378849
v -1.35667097 -1.13120305 -0.26378849
v -1.10584294 -1.73909401 -0.26378849
v -0.89770102 -1.19427502 -0.26378849
v -1.26593101 -0.29655298 -0.26378849
v -1.81032598 -0.01432 -0.26378849
g Group32941
f 112 111 110 109
g Group32944
f 3 1 109 110
f 2 4 111 112
g Group49562
f 2 1 3 4
g Group32941
f 110 111 114 113
g Group32944
f 5 3 110 113
f 4 6 114 111
g Group49562
f 3 5 6 4
g Group32941
f 116 115 112 109
g Group32944
f 1 8 116 109
f 7 2 112 115
g Group49562
f 8 1 2 7
g Group32941
f 116 118 117 115
g Group32944
f 9 7 115 117
f 8 10 118 116
g Group49562
f 8 7 9 10
g Group32941
f 122 121 120 119
g Group32944
f 16 12 122 119
f 11 15 120 121
g Group49562
f 12 16 15 11
g Group32941
f 126 125 124 123
g Group32944
f 18 14 126 123
f 13 17 124 125
g Group49562
f 14 18 17 13
g Group32941
f 120 128 127 119
g Group32944
f 20 16 119 127
f 15 19 128 120
g Group49562
f 15 16 20 19
g Group32941
f 128 123 124 127
g Group32944
f 17 20 127 124
f 19 18 123 128
g Group49562
f 19 20 17 18
g Group32941
f 125 126 130 129
g Group32944
f 22 13 125 129
f 14 21 130 126
g Group49562
f 13 22 21 14
g Group32941
f 132 121 122 131
g Group32944
f 12 23 131 122
f 24 11 121 132
g Group49562
f 24 23 12 11
g Group32941
f 132 131 134 133
g Group32944
f 26 24 132 133
f 23 25 134 131
g Group49562
f 24 26 25 23
g Group32941
f 130 136 135 129
g Group32944
f 27 22 129 135
f 21 28 136 130
g Group49562
f 21 22 27 28
g Group32941
f 118 133 134 117
g Group32944
f 25 9 117 134
f 10 26 133 118
g Group49562
f 10 9 25 26
g Group32941
f 140 139 138 137
g Group32944
f 32 30 140 137
f 29 31 138 139
g Group49562
f 30 32 31 29
g Group32941
f 138 113 114 137
g Group32944
f 6 32 137 114
f 31 5 113 138
g Group49562
f 31 32 6 5
g Group32941
f 142 139 140 141
g Group32944
f 30 33 141 140
f 34 29 139 142
g Group49562
f 34 33 30 29
g Group32941
f 142 141 144 143
g Group32944
f 36 34 142 143
f 33 35 144 141
g Group49562
f 34 36 35 33
g Group32941
f 148 147 146 145
g Group32944
f 41 37 145 146
f 38 42 147 148
g Group49562
f 38 37 41 42
g Group32941
f 152 151 150 149
g Group32944
f 43 39 149 150
f 40 44 151 152
g Group49562
f 40 39 43 44
g Group32941
f 146 147 154 153
g Group32944
f 45 41 146 153
f 42 46 154 147
g Group49562
f 41 45 46 42
g Group32941
f 153 154 150 151
g Group32944
f 44 45 153 151
f 46 43 150 154
g Group49562
f 45 44 43 46
g Group32941
f 149 156 155 152
g Group32944
f 47 40 152 155
f 39 48 156 149
g Group49562
f 39 40 47 48
g Group32941
f 158 157 148 145
g Group32944
f 37 50 158 145
f 49 38 148 157
g Group49562
f 50 37 38 49
g Group32941
f 158 160 159 157
g Group32944
f 51 49 157 159
f 50 52 160 158
g Group49562
f 50 49 51 52
g Group32941
f 155 156 162 161
g Group32944
f 54 47 155 161
f 48 53 162 156
g Group49562
f 47 54 53 48
g Group32941
f 143 144 159 160
g Group32944
f 52 36 143 160
f 35 51 159 144
g Group49562
f 36 52 51 35
g Group32941
f 166 165 164 163
g Group32944
f 57 55 163 164
f 56 58 165 166
g Group49562
f 56 55 57 58
g Group32941
f 164 165 168 167
g Group32944
f 59 57 164 167
f 58 60 168 165
g Group49562
f 57 59 60 58
g Group32941
f 170 169 166 163
g Group32944
f 55 62 170 163
f 61 56 166 169
g Group49562
f 62 55 56 61
g Group32941
f 170 172 171 169
g Group32944
f 63 61 169 171
f 62 64 172 170
g Group49562
f 62 61 63 64
g Group32941
f 176 175 174 173
g Group32944
f 70 66 176 173
f 65 69 174 175
g Group49562
f 66 70 69 65
g Group32941
f 180 179 178 177
g Group32944
f 72 68 180 177
f 67 71 178 179
g Group49562
f 68 72 71 67
g Group32941
f 174 182 181 173
g Group32944
f 74 70 173 181
f 69 73 182 174
g Group49562
f 69 70 74 73
g Group32941
f 182 177 178 181
g Group32944
f 71 74 181 178
f 73 72 177 182
g Group49562
f 73 74 71 72
g Group32941
f 179 180 184 183
g Group32944
f 76 67 179 183
f 68 75 184 180
g Group49562
f 67 76 75 68
g Group32941
f 186 175 176 185
g Group32944
f 66 77 185 176
f 78 65 175 186
g Group49562
f 78 77 66 65
g Group32941
f 186 185 188 187
g Group32944
f 80 78 186 187
f 77 79 188 185
g Group49562
f 78 80 79 77
g Group32941
f 184 190 189 183
g Group32944
f 81 76 183 189
f 75 82 190 184
g Group49562
f 75 76 81 82
g Group32941
f 172 187 188 171
g Group32944
f 79 63 171 188
f 64 80 187 172
g Group49562
f 64 63 79 80
g Group32941
f 194 193 192 191
g Group32944
f 86 84 194 191
f 83 85 192 193
g Group49562
f 84 86 85 83
g Group32941
f 192 167 168 191
g Group32944
f 60 86 191 168
f 85 59 167 192
g Group49562
f 85 86 60 59
g Group32941
f 196 193 194 195
g Group32944
f 84 87 195 194
f 88 83 193 196
g Group49562
f 88 87 84 83
g Group32941
f 196 195 198 197
g Group32944
f 90 88 196 197
f 87 89 198 195
g Group49562
f 88 90 89 87
g Group32941
f 202 201 200 199
g Group32944
f 95 91 199 200
f 92 96 201 202
g Group49562
f 92 91 95 96
g Group32941
f 206 205 204 203
g Group32944
f 97 93 203 204
f 94 98 205 206
g Group49562
f 94 93 97 98
g Group32941
f 200 201 208 207
g Group32944
f 99 95 200 207
f 96 100 208 201
g Group49562
f 95 99 100 96
g Group32941
f 207 208 204 205
g Group32944
f 98 99 207 205
f 100 97 204 208
g Group49562
f 99 98 97 100
g Group32941
f 203 210 209 206
g Group32944
f 101 94 206 209
f 93 102 210 203
g Group49562
f 93 94 101 102
g Group32941
f 212 211 202 199
g Group32944
f 91 104 212 199
f 103 92 202 211
g Group49562
f 104 91 92 103
g Group32941
f 212 214 213 211
g Group32944
f 105 103 211 213
f 104 106 214 212
g Group49562
f 104 103 105 106
g Group32941
f 209 210 216 215
g Group32944
f 108 101 209 215
f 102 107 216 210
g Group49562
f 101 108 107 102
g Group32941
f 197 198 213 214
g Group32944
f 106 90 197 214
f 89 105 213 198
g Group49562
f 90 106 105 89
g Group32941
f 135 136 215 216
g Group32944
f 107 27 135 216
f 28 108 215 136
g Group49562
f 27 107 108 28
g Group32941
f 161 162 189 190
g Group32944
f 82 54 161 190
f 53 81 189 162
g Group49562
f 54 82 81 53

 