# File exported by ZBrush version 2021
# www.zbrush.com
#Vertex Count 256
#Face Count 272
#Auto scale x=1.000000 y=1.000000 z=1.000000
#Auto offset x=0.000000 y=0.000000 z=0.000000
v -0.17154894 1.78487503 0.29404449
v -0.31863996 1.47339105 0.29404449
v -1.29618692 1.96880102 0.29566648
v -1.30524396 1.62472105 0.29404449
v -1.78118896 0.172936 0.29440048
v -1.46991694 0.320477 0.29440048
v -1.96672797 1.29731798 0.29602247
v -1.62266194 1.30686903 0.29440048
v -1.49804294 1.49983799 0.29422348
v -1.72454798 1.72601604 0.29584449
v -0.00064995 1.42783105 0.29584348
v -0.00081295 1.74792599 0.29422247
v -2.07294583 0.20059099 0.29404449
v -2.31475591 0.50239402 0.29404449
v -1.26792097 0.83772099 0.29566648
v -1.39605498 1.12487101 0.29404449
v -0.19969795 2.0765841 0.29440048
v -0.50185596 2.31794905 0.29440048
v -0.83563298 1.27062201 0.29602247
v -1.12297093 1.39833498 0.29440048
v -1.24142193 1.24354004 0.29422348
v -1.01491296 1.01736497 0.29584449
v -0.81423795 1.99410605 0.29440048
v -0.42121896 1.89276003 0.29514449
v -1.037413 1.62607598 0.29440048
v -0.66624593 1.57457304 0.29591348
v -1.57413089 0.66635698 0.29555049
v -1.62705791 1.03741896 0.29404449
v -1.89153695 0.39910501 0.29479348
v -1.98880994 0.817236 0.29404449
v 1.78116309 0.174617 0.29404449
v 1.46975207 0.32185998 0.29404449
v 1.96564507 1.29916405 0.29566648
v 1.62156903 1.30838894 0.29404449
v 0.17002004 1.78505301 0.29440048
v 0.31740605 1.47370696 0.29440048
v 1.29449307 1.97003603 0.29602247
v 1.30387401 1.62596404 0.29440048
v 1.49678206 1.50125098 0.29422348
v 1.723073 1.72764301 0.29584449
v 0.19781905 2.07679605 0.29404449
v 0.49974104 2.31845498 0.29404449
v 0.00167804 2.45150709 0.29566648
v 0.00176404 2.13141107 0.29404449
v 0.83455103 1.27145505 0.29566648
v 1.12176406 1.39944696 0.29404449
v 2.07288599 0.20262099 0.29440048
v 2.31439995 0.50465899 0.29440048
v 1.26724004 0.83895397 0.29602247
v 1.39509308 1.12622797 0.29440048
v 1.24035704 1.24475598 0.29422348
v 1.01407003 1.01835894 0.29584449
v 1.99071109 0.81720101 0.29440048
v 1.88917303 0.42423299 0.29514449
v 1.622792 1.04055798 0.29440048
v 1.57110607 0.66941797 0.29591348
v 0.66333806 1.57775104 0.29555049
v 1.03442704 1.63049304 0.29404449
v 0.39624404 1.89528799 0.29479348
v 0.81442302 1.99235403 0.29404449
v -0.17154894 -1.78487503 0.29404449
v -0.31863996 -1.47339105 0.29404449
v -1.29618692 -1.96879994 0.29566648
v -1.30524396 -1.62472105 0.29404449
v -1.78118896 -0.172936 0.29440048
v -1.46991694 -0.320477 0.29440048
v -1.96672797 -1.29731798 0.29602247
v -1.62266194 -1.30686998 0.29440048
v -1.49804294 -1.49983799 0.29422348
v -1.72454798 -1.72601604 0.29584449
v -0.00064995 -1.42783105 0.29584348
v -0.00081295 -1.74792695 0.29422247
v -2.07294583 -0.20059099 0.29404449
v -2.31475591 -0.50239402 0.29404449
v -1.26792097 -0.83772099 0.29566648
v -1.39605498 -1.12487101 0.29404449
v -0.19969795 -2.0765841 0.29440048
v -0.50185596 -2.31795001 0.29440048
v -0.83563298 -1.27062296 0.29602247
v -1.12297093 -1.39833498 0.29440048
v -1.24142193 -1.24354004 0.29422348
v -1.01491296 -1.01736497 0.29584449
v -0.81423795 -1.99410605 0.29440048
v -0.42121896 -1.89276099 0.29514449
v -1.037413 -1.62607598 0.29440048
v -0.66624593 -1.57457304 0.29591348
v -1.57413089 -0.66635698 0.29555049
v -1.62705791 -1.03741896 0.29404449
v -1.89153695 -0.39910501 0.29479348
v -1.98880994 -0.81723702 0.29404449
v 1.78116309 -0.174617 0.29404449
v 1.46975207 -0.32185998 0.29404449
v 1.96564507 -1.29916405 0.29566648
v 1.62156903 -1.30839097 0.29404449
v 0.17002004 -1.78505301 0.29440048
v 0.31740605 -1.47370696 0.29440048
v 1.29449307 -1.97003603 0.29602247
v 1.30387401 -1.62596499 0.29440048
v 1.49678206 -1.50125098 0.29422348
v 1.723073 -1.72764396 0.29584449
v 0.19781905 -2.07679605 0.29404449
v 0.49974104 -2.31845593 0.29404449
v 0.00167804 -2.45150709 0.29566648
v 0.00176404 -2.13141107 0.29404449
v 0.83455103 -1.27145505 0.29566648
v 1.12176406 -1.39944803 0.29404449
v 2.07288599 -0.20262099 0.29440048
v 2.31439995 -0.50465899 0.29440048
v 1.26724004 -0.83895397 0.29602247
v 1.39509308 -1.12622904 0.29440048
v 1.24035704 -1.24475705 0.29422348
v 1.01407003 -1.01835894 0.29584449
v 1.99071109 -0.81720101 0.29440048
v 1.88917303 -0.42423299 0.29514449
v 1.622792 -1.04055798 0.29440048
v 1.57110607 -0.66941797 0.29591348
v 0.66333806 -1.57775104 0.29555049
v 1.03442704 -1.63049304 0.29404449
v 0.39624404 -1.89528894 0.29479348
v 0.81442302 -1.99235403 0.29404449
v -1.74398791 -0 0.29440048
v -1.4238919 -0 0.29602247
v -2.44756102 -0 0.29566648
v -2.12746596 -0 0.29404449
v 1.42403602 -0 0.29584348
v 1.74413108 -0 0.29422247
v 2.12760806 -0 0.29422247
v 2.44770407 -0 0.29584348
v -0.00023595 1.42593503 -0.29421654
v -0.31892195 1.47284901 -0.2960225
v -0.17183095 1.78433299 -0.2960225
v -0.00039895 1.74602997 -0.29583749
v -1.30657899 1.62683403 -0.29601153
v -1.29752194 1.97091496 -0.29439052
v -0.81397795 1.99375903 -0.29566249
v -1.03637898 1.62563204 -0.29566249
v -1.50041389 1.50182497 -0.29583051
v -1.72691798 1.72800302 -0.29420951
v -1.78037798 0.17286999 -0.2956635
v -1.46910595 0.32041099 -0.2956635
v -1.4219979 -0 -0.2940385
v -1.74209392 -0 -0.29565951
v -1.98858392 0.81736797 -0.29602053
v -1.9691379 1.29894197 -0.29403254
v -1.625072 1.30849301 -0.29565349
v -1.62673389 1.03678202 -0.29602149
v -2.44969105 -0 -0.29439154
v -2.315315 0.50192898 -0.29601851
v -2.07350492 0.20012499 -0.29601851
v -2.12959504 -0 -0.29601249
v -1.39432489 1.12252903 -0.29600951
v -1.266191 0.835379 -0.29438749
v -1.57323896 0.66558098 -0.29451254
v -1.23898696 1.24168705 -0.29583051
v -1.01247894 1.01551199 -0.29420849
v -1.89074289 0.399098 -0.2952685
v -0.19949595 2.07700491 -0.29566249
v -0.50165396 2.3183701 -0.29566249
v 0.00141104 2.45349788 -0.29439154
v 0.00149704 2.1334021 -0.2960135
v -0.66582697 1.57390105 -0.29415252
v -0.83304894 1.26924002 -0.29403153
v -1.120386 1.39695298 -0.29565349
v -0.42157295 1.89218497 -0.29491952
v 1.42204999 -0 -0.29421749
v 1.469213 0.322158 -0.2960225
v 1.7806251 0.174915 -0.2960225
v 1.74214506 -0 -0.2958385
v 1.62368309 1.30972302 -0.29601153
v 1.96776008 1.30049705 -0.29439052
v 1.99036407 0.81694102 -0.29566249
v 1.62234807 1.03952503 -0.29566249
v 1.49876999 1.50362002 -0.29583051
v 1.72506105 1.73001301 -0.29420951
v 0.17015405 1.78428804 -0.29566249
v 0.31754005 1.47294294 -0.29566249
v 0.81455504 1.99212801 -0.29602053
v 1.29611802 1.97244501 -0.29403254
v 1.30549907 1.62837398 -0.29565349
v 1.03378999 1.63016998 -0.29602149
v 0.49927103 2.31901693 -0.29601851
v 0.19734904 2.077358 -0.29601851
v 1.11942207 1.39771902 -0.29600951
v 0.83220803 1.26972603 -0.29438749
v 0.66256207 1.57685899 -0.29451254
v 1.23850309 1.24232196 -0.29583051
v 1.01221609 1.01592505 -0.29420849
v 0.39623606 1.89449501 -0.2952685
v 2.07337594 0.20228999 -0.29566249
v 2.31489014 0.50432801 -0.29566249
v 2.44969105 -0 -0.29421451
v 2.12959504 -0 -0.29583552
v 1.57043302 0.66899901 -0.29415252
v 1.2658571 0.83636999 -0.29403153
v 1.39370906 1.12364494 -0.29565349
v 1.88859808 0.42458701 -0.29491952
v -0.17183095 -1.78433299 -0.2960225
v -0.31892195 -1.47284901 -0.2960225
v -0.00023595 -1.42593503 -0.29421654
v -0.00039895 -1.74603104 -0.29583749
v -0.81397795 -1.99375903 -0.29566249
v -1.29752194 -1.970914 -0.29439052
v -1.30657899 -1.62683498 -0.29601153
v -1.03637898 -1.625633 -0.29566249
v -1.72691798 -1.72800302 -0.29420951
v -1.50041389 -1.50182497 -0.29583051
v -1.46910595 -0.32041201 -0.2956635
v -1.78037798 -0.17286999 -0.2956635
v -1.625072 -1.30849301 -0.29565349
v -1.9691379 -1.29894197 -0.29403254
v -1.98858392 -0.81736797 -0.29602053
v -1.62673389 -1.03678298 -0.29602149
v -2.07350492 -0.20012499 -0.29601851
v -2.315315 -0.50192898 -0.29601851
v -1.57323896 -0.66558098 -0.29451254
v -1.266191 -0.835379 -0.29438749
v -1.39432489 -1.12252998 -0.29600951
v -1.01247894 -1.01551199 -0.29420849
v -1.23898696 -1.24168705 -0.29583051
v -1.89074289 -0.399098 -0.2952685
v 0.00141104 -2.45349788 -0.29439154
v -0.50165396 -2.3183701 -0.29566249
v -0.19949595 -2.07700491 -0.29566249
v 0.00149704 -2.1334021 -0.2960135
v -1.120386 -1.39695298 -0.29565349
v -0.83304894 -1.26924097 -0.29403153
v -0.66582697 -1.57390105 -0.29415252
v -0.42157295 -1.89218497 -0.29491952
v 1.7806251 -0.174915 -0.2960225
v 1.469213 -0.322158 -0.2960225
v 1.99036407 -0.81694102 -0.29566249
v 1.96776008 -1.300498 -0.29439052
v 1.62368309 -1.30972504 -0.29601153
v 1.62234807 -1.03952503 -0.29566249
v 1.72506105 -1.73001301 -0.29420951
v 1.49876999 -1.50362002 -0.29583051
v 0.31754005 -1.47294294 -0.29566249
v 0.17015405 -1.78428804 -0.29566249
v 1.30549907 -1.62837398 -0.29565349
v 1.29611802 -1.97244596 -0.29403254
v 0.81455504 -1.99212801 -0.29601952
v 1.03378999 -1.63016998 -0.29602149
v 0.19734904 -2.077358 -0.29601851
v 0.49927103 -2.31901693 -0.29601851
v 0.66256207 -1.57685995 -0.29451254
v 0.83220803 -1.26972603 -0.29438749
v 1.11942207 -1.39771902 -0.29600951
v 1.01221609 -1.015926 -0.29420849
v 1.23850309 -1.24232304 -0.29583051
v 0.39623606 -1.89449501 -0.2952685
v 2.31489014 -0.50432801 -0.29566249
v 2.07337594 -0.20228999 -0.29566249
v 1.39370906 -1.12364494 -0.29565349
v 1.2658571 -0.83636999 -0.29403153
v 1.57043302 -0.66899901 -0.29415252
v 1.88859808 -0.42458701 -0.29491952
g Group32941
f 132 131 130 129
g Group32944
f 2 11 129 130
f 12 1 131 132
g Group51961
f 12 11 2 1
g Group32941
f 136 135 134 133
g Group32944
f 4 25 136 133
f 23 3 134 135
g Group51961
f 25 4 3 23
g Group32941
f 133 134 138 137
g Group32944
f 9 4 133 137
f 3 10 138 134
g Group51961
f 4 9 10 3
g Group32941
f 142 141 140 139
g Group32944
f 5 121 142 139
f 122 6 140 141
g Group51961
f 121 5 6 122
g Group32941
f 146 145 144 143
g Group32944
f 7 30 143 144
f 28 8 145 146
g Group51961
f 28 30 7 8
g Group32941
f 145 137 138 144
g Group32944
f 10 7 144 138
f 8 9 137 145
g Group51961
f 8 7 10 9
g Group32941
f 150 149 148 147
g Group32944
f 14 123 147 148
f 124 13 149 150
g Group51961
f 124 123 14 13
g Group32941
f 146 153 152 151
g Group32944
f 16 28 146 151
f 27 15 152 153
g Group51961
f 28 16 15 27
g Group32941
f 151 152 155 154
g Group32944
f 21 16 151 154
f 15 22 155 152
g Group51961
f 16 21 22 15
g Group32941
f 148 149 156 143
g Group32944
f 30 14 148 143
f 13 29 156 149
g Group51961
f 14 30 29 13
g Group32941
f 160 159 158 157
g Group32944
f 17 44 160 157
f 43 18 158 159
g Group51961
f 44 17 18 43
g Group32941
f 136 163 162 161
g Group32944
f 19 26 161 162
f 25 20 163 136
g Group51961
f 25 26 19 20
g Group32941
f 163 154 155 162
g Group32944
f 22 19 162 155
f 20 21 154 163
g Group51961
f 20 19 22 21
g Group32941
f 158 135 164 157
g Group32944
f 24 17 157 164
f 18 23 135 158
g Group51961
f 18 17 24 23
g Group32941
f 135 136 161 164
g Group51961
f 23 24 26 25
g Group32941
f 143 156 153 146
g Group51961
f 30 28 27 29
g Group32941
f 153 156 139 140
g Group32944
f 6 27 153 140
f 29 5 139 156
g Group51961
f 27 6 5 29
g Group32941
f 164 161 130 131
g Group32944
f 1 24 164 131
f 26 2 130 161
g Group51961
f 24 1 2 26
g Group32941
f 168 167 166 165
g Group32944
f 32 125 165 166
f 126 31 167 168
g Group51961
f 126 125 32 31
g Group32941
f 172 171 170 169
g Group32944
f 34 55 172 169
f 53 33 170 171
g Group51961
f 55 34 33 53
g Group32941
f 169 170 174 173
g Group32944
f 39 34 169 173
f 33 40 174 170
g Group51961
f 34 39 40 33
g Group32941
f 132 129 176 175
g Group32944
f 35 12 132 175
f 11 36 176 129
g Group51961
f 12 35 36 11
g Group32941
f 180 179 178 177
g Group32944
f 37 60 177 178
f 58 38 179 180
g Group51961
f 58 60 37 38
g Group32941
f 179 173 174 178
g Group32944
f 40 37 178 174
f 38 39 173 179
g Group51961
f 38 37 40 39
g Group32941
f 160 182 181 159
g Group32944
f 42 43 159 181
f 44 41 182 160
g Group51961
f 44 43 42 41
g Group32941
f 180 185 184 183
g Group32944
f 46 58 180 183
f 57 45 184 185
g Group51961
f 58 46 45 57
g Group32941
f 183 184 187 186
g Group32944
f 51 46 183 186
f 45 52 187 184
g Group51961
f 46 51 52 45
g Group32941
f 181 182 188 177
g Group32944
f 60 42 181 177
f 41 59 188 182
g Group51961
f 42 60 59 41
g Group32941
f 192 191 190 189
g Group32944
f 47 127 192 189
f 128 48 190 191
g Group51961
f 127 47 48 128
g Group32941
f 172 195 194 193
g Group32944
f 49 56 193 194
f 55 50 195 172
g Group51961
f 55 56 49 50
g Group32941
f 195 186 187 194
g Group32944
f 52 49 194 187
f 50 51 186 195
g Group51961
f 50 49 52 51
g Group32941
f 190 171 196 189
g Group32944
f 54 47 189 196
f 48 53 171 190
g Group51961
f 48 47 54 53
g Group32941
f 171 172 193 196
g Group51961
f 53 54 56 55
g Group32941
f 177 188 185 180
g Group51961
f 60 58 57 59
g Group32941
f 185 188 175 176
g Group32944
f 36 57 185 176
f 59 35 175 188
g Group51961
f 57 36 35 59
g Group32941
f 196 193 166 167
g Group32944
f 31 54 196 167
f 56 32 166 193
g Group51961
f 54 31 32 56
g Group32941
f 200 199 198 197
g Group32944
f 61 72 200 197
f 71 62 198 199
g Group51961
f 72 61 62 71
g Group32941
f 204 203 202 201
g Group32944
f 63 83 201 202
f 85 64 203 204
g Group51961
f 85 83 63 64
g Group32941
f 203 206 205 202
g Group32944
f 70 63 202 205
f 64 69 206 203
g Group51961
f 64 63 70 69
g Group32941
f 142 208 207 141
g Group32944
f 66 122 141 207
f 121 65 208 142
g Group51961
f 121 122 66 65
g Group32941
f 212 211 210 209
g Group32944
f 68 88 212 209
f 90 67 210 211
g Group51961
f 88 68 67 90
g Group32941
f 209 210 205 206
g Group32944
f 69 68 209 206
f 67 70 205 210
g Group51961
f 68 69 70 67
g Group32941
f 150 147 214 213
g Group32944
f 73 124 150 213
f 123 74 214 147
g Group51961
f 124 73 74 123
g Group32941
f 212 217 216 215
g Group32944
f 75 87 215 216
f 88 76 217 212
g Group51961
f 88 87 75 76
g Group32941
f 217 219 218 216
g Group32944
f 82 75 216 218
f 76 81 219 217
g Group51961
f 76 75 82 81
g Group32941
f 214 211 220 213
g Group32944
f 89 73 213 220
f 74 90 211 214
g Group51961
f 74 73 89 90
g Group32941
f 224 223 222 221
g Group32944
f 78 103 221 222
f 104 77 223 224
g Group51961
f 104 103 78 77
g Group32941
f 204 227 226 225
g Group32944
f 80 85 204 225
f 86 79 226 227
g Group51961
f 85 80 79 86
g Group32941
f 225 226 218 219
g Group32944
f 81 80 225 219
f 79 82 218 226
g Group51961
f 80 81 82 79
g Group32941
f 222 223 228 201
g Group32944
f 83 78 222 201
f 77 84 228 223
g Group51961
f 78 83 84 77
g Group32941
f 201 228 227 204
g Group51961
f 83 85 86 84
g Group32941
f 211 212 215 220
g Group51961
f 90 89 87 88
g Group32941
f 215 207 208 220
g Group32944
f 65 89 220 208
f 87 66 207 215
g Group51961
f 87 89 65 66
g Group32941
f 228 197 198 227
g Group32944
f 62 86 227 198
f 84 61 197 228
g Group51961
f 84 86 62 61
g Group32941
f 168 165 230 229
g Group32944
f 91 126 168 229
f 125 92 230 165
g Group51961
f 126 91 92 125
g Group32941
f 234 233 232 231
g Group32944
f 93 113 231 232
f 115 94 233 234
g Group51961
f 115 113 93 94
g Group32941
f 233 236 235 232
g Group32944
f 100 93 232 235
f 94 99 236 233
g Group51961
f 94 93 100 99
g Group32941
f 200 238 237 199
g Group32944
f 96 71 199 237
f 72 95 238 200
g Group51961
f 72 71 96 95
g Group32941
f 242 241 240 239
g Group32944
f 98 118 242 239
f 120 97 240 241
g Group51961
f 118 98 97 120
g Group32941
f 239 240 235 236
g Group32944
f 99 98 239 236
f 97 100 235 240
g Group51961
f 98 99 100 97
g Group32941
f 224 221 244 243
g Group32944
f 101 104 224 243
f 103 102 244 221
g Group51961
f 104 101 102 103
g Group32941
f 242 247 246 245
g Group32944
f 105 117 245 246
f 118 106 247 242
g Group51961
f 118 117 105 106
g Group32941
f 247 249 248 246
g Group32944
f 112 105 246 248
f 106 111 249 247
g Group51961
f 106 105 112 111
g Group32941
f 244 241 250 243
g Group32944
f 119 101 243 250
f 102 120 241 244
g Group51961
f 102 101 119 120
g Group32941
f 192 252 251 191
g Group32944
f 108 128 191 251
f 127 107 252 192
g Group51961
f 127 128 108 107
g Group32941
f 234 255 254 253
g Group32944
f 110 115 234 253
f 116 109 254 255
g Group51961
f 115 110 109 116
g Group32941
f 253 254 248 249
g Group32944
f 111 110 253 249
f 109 112 248 254
g Group51961
f 110 111 112 109
g Group32941
f 251 252 256 231
g Group32944
f 113 108 251 231
f 107 114 256 252
g Group51961
f 108 113 114 107
g Group32941
f 231 256 255 234
g Group51961
f 113 115 116 114
g Group32941
f 241 242 245 250
g Group51961
f 120 119 117 118
g Group32941
f 245 237 238 250
g Group32944
f 95 119 250 238
f 117 96 237 245
g Group51961
f 117 119 95 96
g Group32941
f 256 229 230 255
g Group32944
f 92 116 255 230
f 114 91 229 256
g Group51961
f 114 116 92 91

 