# File exported by ZBrush version 2021
# www.zbrush.com
#Vertex Count 960
#Face Count 960
#Auto scale x=1.000000 y=1.000000 z=1.000000
#Auto offset x=0.000000 y=0.000000 z=0.000000
v 1.57495796 -2.19509792 0.12536498
v 1.43102204 -1.98997998 0.12514299
v 1.43829703 -2.29032802 0.12536498
v 1.30453205 -2.07367992 0.12514299
v 1.62830495 -2.2106049 0.12536399
v 1.54989504 -2.34479594 0.12536399
v 1.72483599 -2.08160805 0.12536498
v 1.56670796 -1.88723802 0.12514299
v 1.85355401 -1.97588694 0.12536498
v 1.68129301 -1.78838801 0.12514299
v 1.72529494 -2.1371591 0.12536399
v 1.875723 -2.09807896 0.12536399
v 1.77223002 -2.29990696 0.12536399
v 1.70230197 -2.20756006 0.12536399
v 2.09478592 -1.71743702 0.12536498
v 1.903144 -1.55599498 0.12514299
v 1.98705399 -1.84447598 0.12536498
v 1.80229103 -1.66928398 0.12514299
v 2.1503241 -1.71877205 0.12536399
v 2.10887599 -1.86856603 0.12536399
v 2.21062207 -1.56936395 0.12536498
v 2.0080111 -1.42194402 0.12514299
v 2.30799102 -1.43422102 0.12536498
v 2.09347701 -1.29705905 0.12514299
v 2.22528505 -1.62294995 0.12536399
v 2.36069893 -1.546664 0.12536399
v 2.31231403 -1.76826095 0.12536399
v 2.22107911 -1.69689095 0.12536399
v 1.74946904 -1.66109597 0.12536399
v 1.78253495 -1.52770996 0.12536399
v 1.67329299 -1.73605299 0.12536399
v 1.53939497 -1.76696705 0.12536399
v 1.60138201 -1.58679103 0.12536399
v 1.68262803 -1.66935503 0.12536399
v 2.07224893 -1.24867403 0.12536399
v 1.95071804 -1.31282305 0.12536399
v 1.96453797 -1.12278294 0.12536399
v 2.06420588 -1.18180799 0.12536399
v 1.25467395 -2.0527811 0.12536399
v 1.32083094 -1.93233299 0.12536399
v 0.26061299 -2.68175697 0.12536498
v 0.23717999 -2.43227505 0.12514299
v 0.094723 -2.69679093 0.12536498
v 0.085836 -2.44232702 0.12514299
v 0.29927301 -2.72164702 0.12536399
v 0.164688 -2.79938793 0.12536399
v 0.44702801 -2.65741205 0.12536498
v 0.40594101 -2.41023492 0.12514299
v 0.61121302 -2.62932801 0.12536498
v 0.55444598 -2.38111996 0.12514299
v 0.41991001 -2.70589304 0.12536399
v 0.569947 -2.746454 0.12536399
v 0.38006499 -2.87052297 0.12536399
v 0.36506301 -2.75566005 0.12536399
v 0.94879299 -2.52430391 0.12536498
v 0.86228299 -2.28913211 0.12514299
v 0.79227799 -2.58129906 0.12536498
v 0.71855497 -2.33758807 0.12514299
v 0.99637699 -2.55297493 0.12536399
v 0.88617301 -2.66256904 0.12536399
v 1.12276494 -2.45304989 0.12536498
v 1.01978004 -2.22463107 0.12514299
v 1.27429401 -2.3838849 0.12536498
v 1.15588605 -2.15847802 0.12514299
v 1.10896205 -2.50686788 0.12536399
v 1.264382 -2.50766992 0.12536399
v 1.11258304 -2.67620897 0.12536399
v 1.068681 -2.56901311 0.12536399
v 0.67672401 -2.30431008 0.12536399
v 0.77151799 -2.20482111 0.12536399
v 0.57341897 -2.33169508 0.12536399
v 0.44179001 -2.29222488 0.12536399
v 0.58488798 -2.16640901 0.12536399
v 0.61456799 -2.27837991 0.12536399
v 1.16140997 -2.10592889 0.12536399
v 1.02406394 -2.10145497 0.12536399
v 1.130203 -1.94321203 0.12536399
v 1.18754696 -2.04385709 0.12536399
v 0.052878 -2.39947295 0.12536399
v 0.17001099 -2.32761192 0.12536399
v 2.47448802 -1.12378799 0.12536498
v 2.24795794 -1.01667296 0.12514299
v 2.40279388 -1.27413702 0.12536498
v 2.17939901 -1.151968 0.12514299
v 2.52852702 -1.11088895 0.12536399
v 2.52672696 -1.26629996 0.12536399
v 2.54864692 -0.95103299 0.12536498
v 2.31509399 -0.86027497 0.12514299
v 2.60825491 -0.79549598 0.12536498
v 2.36581611 -0.71770101 0.12514299
v 2.5765171 -0.99909299 0.12536399
v 2.68794107 -0.89073902 0.12536399
v 2.69778299 -1.11734294 0.12536399
v 2.59134006 -1.07165396 0.12536399
v 2.69013905 -0.45156699 0.12536498
v 2.44373393 -0.40600299 0.12514299
v 2.65931296 -0.61525797 0.12536498
v 2.41209101 -0.55434101 0.12514299
v 2.73907303 -0.42526701 0.12536399
v 2.777112 -0.575962 0.12536399
v 2.71760606 -0.26558798 0.12536498
v 2.46860098 -0.237635 0.12514299
v 2.73541498 -0.099973 0.12536498
v 2.48113799 -0.086823 0.12514299
v 2.7568469 -0.30491301 0.12536399
v 2.83682489 -0.171645 0.12536399
v 2.90434289 -0.38818401 0.12536399
v 2.78975105 -0.371261 0.12536399
v 2.36213111 -0.57334798 0.12536399
v 2.32491898 -0.44106099 0.12536399
v 2.33298206 -0.67616301 0.12536399
v 2.231884 -0.76924002 0.12536399
v 2.19667291 -0.58198201 0.12536399
v 2.3081181 -0.61357802 0.12536399
v 2.43876195 -0.055268 0.12536399
v 2.36484789 -0.17111399 0.12536399
v 2.12572908 -1.15845394 0.12536399
v 2.1236751 -1.02104699 0.12536399
v -2.2079699 -1.57350802 0.12536498
v -2.00541901 -1.42597794 0.12514299
v -2.30559301 -1.43854403 0.12536498
v -2.09133601 -1.300987 0.12514299
v -2.22253298 -1.62712001 0.12536399
v -2.35808801 -1.55108594 0.12536399
v -2.09185695 -1.72136294 0.12536498
v -1.90030205 -1.559834 0.12514299
v -1.98388505 -1.84819901 0.12536498
v -1.79945099 -1.67265903 0.12514299
v -2.14739203 -1.72280395 0.12536399
v -2.10566306 -1.87251997 0.12536399
v -2.30928802 -1.772596 0.12536399
v -2.2181859 -1.70105004 0.12536399
v -1.72122204 -2.08484005 0.12536498
v -1.56318199 -1.89038205 0.12514299
v -1.85013997 -1.97935998 0.12536498
v -1.67823004 -1.79154205 0.12514299
v -1.72157895 -2.14039397 0.12536399
v -1.87207794 -2.10159111 0.12536399
v -1.57113099 -2.19804692 0.12536498
v -1.42730402 -1.99286794 0.12514299
v -1.43429195 -2.29302191 0.12536498
v -1.30093395 -2.07612395 0.12514299
v -1.62444901 -2.21365404 0.12536399
v -1.54578805 -2.34770107 0.12536399
v -1.768206 -2.3032279 0.12536399
v -1.69845295 -2.2107501 0.12536399
v -1.67097497 -1.73858201 0.12536399
v -1.53702902 -1.76929402 0.12536399
v -1.74726402 -1.66373705 0.12536399
v -1.78053295 -1.53040802 0.12536399
v -1.59929001 -1.58921098 0.12536399
v -1.68041098 -1.67189705 0.12536399
v -1.25293004 -2.05404591 0.12536399
v -1.31920802 -1.93366599 0.12536399
v -1.128955 -1.94413101 0.12536399
v -1.18621695 -2.04482603 0.12536399
v -2.07131791 -1.25076699 0.12536399
v -1.94972205 -1.31479203 0.12536399
v -2.71771192 -0.26794201 0.12536498
v -2.46868109 -0.24011799 0.12514299
v -2.73566699 -0.102341 0.12536498
v -2.48140096 -0.08897499 0.12514299
v -2.756922 -0.30730199 0.12536399
v -2.83701491 -0.174103 0.12536399
v -2.69008207 -0.45389899 0.12536498
v -2.44366908 -0.40846601 0.12514299
v -2.65911603 -0.61756598 0.12536498
v -2.41194891 -0.55643397 0.12514299
v -2.73903989 -0.42764198 0.12536399
v -2.77694988 -0.57836902 0.12536399
v -2.90434289 -0.39070099 0.12536399
v -2.78976488 -0.37367799 0.12536399
v -2.54815888 -0.95324301 0.12536498
v -2.31454491 -0.86260199 0.12514299
v -2.60790109 -0.79775399 0.12536498
v -2.36552906 -0.719751 0.12514299
v -2.5759859 -1.00132501 0.12536399
v -2.687505 -0.89306598 0.12536399
v -2.47385311 -1.12592899 0.12536498
v -2.24727606 -1.01893699 0.12514299
v -2.40202498 -1.27621603 0.12536498
v -2.17873811 -1.15385305 0.12514299
v -2.52789998 -1.11307704 0.12536399
v -2.52596688 -1.268489 0.12536399
v -2.69715189 -1.11967897 0.12536399
v -2.59074902 -1.07389795 0.12536399
v -2.33299398 -0.677338 0.12536399
v -2.231848 -0.77036398 0.12536399
v -2.3621931 -0.57453298 0.12536399
v -2.32504701 -0.44222599 0.12536399
v -2.19673109 -0.58308601 0.12536399
v -2.30816006 -0.614735 0.12536399
v -2.12610101 -1.15845394 0.12536399
v -2.12404704 -1.02104699 0.12536399
v -1.96395897 -1.12438499 0.12536399
v -2.06357908 -1.18349099 0.12536399
v -2.43913388 -0.055268 0.12536399
v -2.36521911 -0.17111399 0.12536399
v -1.12097394 -2.45402407 0.12536498
v -1.01786601 -2.22564101 0.12514299
v -1.27256405 -2.38498711 0.12536498
v -1.15435195 -2.1594789 0.12514299
v -1.10712504 -2.50782203 0.12536399
v -1.26254403 -2.50876498 0.12536399
v -0.94694197 -2.52512788 0.12536498
v -0.86031299 -2.29001188 0.12514299
v -0.79037702 -2.58198308 0.12536498
v -0.716865 -2.3382101 0.12514299
v -0.99450099 -2.55383706 0.12536399
v -0.88420099 -2.66333699 0.12536399
v -1.11059904 -2.67716908 0.12536399
v -1.06678998 -2.56993794 0.12536399
v -0.44506001 -2.65779209 0.12536498
v -0.40384399 -2.41062688 0.12514299
v -0.60926997 -2.62985992 0.12536498
v -0.55271798 -2.3815999 0.12514299
v -0.417901 -2.7062571 0.12536399
v -0.56790202 -2.746948 0.12536399
v -0.25862398 -2.68197989 0.12536498
v -0.235063 -2.43252205 0.12514299
v -0.09272299 -2.69687104 0.12536498
v -0.084057 -2.44240093 0.12514299
v -0.29725 -2.72190809 0.12536399
v -0.16259899 -2.79952788 0.12536399
v -0.37791299 -2.87084889 0.12536399
v -0.363011 -2.7559781 0.12536399
v -0.57259702 -2.33198189 0.12536399
v -0.44098699 -2.29244709 0.12536399
v -0.675915 -2.30465197 0.12536399
v -0.77075898 -2.20520806 0.12536399
v -0.584149 -2.16670489 0.12536399
v -0.61377298 -2.27868795 0.12536399
v -0.05325 -2.39947295 0.12536399
v -0.17038199 -2.32761192 0.12536399
v 0.000163 -2.2426331 0.12536399
v 0.000181 -2.35847401 0.12536399
v -1.16178202 -2.10592889 0.12536399
v -1.02443397 -2.10145497 0.12536399
v 1.57495796 2.19509792 0.12536498
v 1.43102204 1.98997998 0.12514299
v 1.43829703 2.29032897 0.12536498
v 1.30453205 2.07368207 0.12514299
v 1.62830495 2.2106049 0.12536399
v 1.54989504 2.34479904 0.12536399
v 1.72483599 2.08160805 0.12536498
v 1.56670796 1.88723802 0.12514299
v 1.85355401 1.97588598 0.12536498
v 1.68129301 1.78839099 0.12514299
v 1.72529494 2.13716006 0.12536399
v 1.875723 2.09807491 0.12536399
v 1.77223002 2.29990696 0.12536399
v 1.70230197 2.2075591 0.12536399
v 2.09478592 1.71743702 0.12536498
v 1.903144 1.55599296 0.12514299
v 1.98705399 1.84447395 0.12536498
v 1.80229103 1.66928303 0.12514299
v 2.1503241 1.71877205 0.12536399
v 2.10887599 1.86856305 0.12536399
v 2.21062207 1.56936395 0.12536498
v 2.0080111 1.42194294 0.12514299
v 2.30799102 1.43421995 0.12536498
v 2.09347701 1.29705798 0.12514299
v 2.22528505 1.62294697 0.12536399
v 2.36069893 1.546664 0.12536399
v 2.31231403 1.76826095 0.12536399
v 2.22107911 1.69689095 0.12536399
v 1.74946904 1.66109597 0.12536399
v 1.78253495 1.52770996 0.12536399
v 1.67329299 1.73605597 0.12536399
v 1.53939497 1.76696801 0.12536399
v 1.60138201 1.58679103 0.12536399
v 1.68262803 1.66935503 0.12536399
v 2.07224893 1.24867403 0.12536399
v 1.95071804 1.31282305 0.12536399
v 1.96453797 1.12278294 0.12536399
v 2.06420588 1.18180799 0.12536399
v 1.25467395 2.0527811 0.12536399
v 1.32083094 1.93233299 0.12536399
v 0.26061299 2.68175697 0.12536498
v 0.23717999 2.4322741 0.12514299
v 0.094723 2.69678998 0.12536498
v 0.085836 2.44232702 0.12514299
v 0.29927301 2.72164988 0.12536399
v 0.164688 2.79938411 0.12536399
v 0.44702801 2.65740895 0.12536498
v 0.40594101 2.41023302 0.12514299
v 0.61121302 2.62932801 0.12536498
v 0.55444598 2.38112092 0.12514299
v 0.41991001 2.70589399 0.12536399
v 0.569947 2.746454 0.12536399
v 0.38006499 2.87052297 0.12536399
v 0.36506301 2.75566196 0.12536399
v 0.94879299 2.52430295 0.12536498
v 0.86228299 2.28913211 0.12514299
v 0.79227799 2.58129811 0.12536498
v 0.71855497 2.33758807 0.12514299
v 0.99637699 2.55297493 0.12536399
v 0.88617301 2.66256904 0.12536399
v 1.12276494 2.45305299 0.12536498
v 1.01978004 2.22462701 0.12514299
v 1.27429401 2.38388395 0.12536498
v 1.15588605 2.15847802 0.12514299
v 1.10896205 2.50686597 0.12536399
v 1.264382 2.50766992 0.12536399
v 1.11258304 2.67620897 0.12536399
v 1.068681 2.56901311 0.12536399
v 0.67672401 2.30431008 0.12536399
v 0.77151799 2.20482111 0.12536399
v 0.57341897 2.33169508 0.12536399
v 0.44179001 2.29222488 0.12536399
v 0.58488798 2.16640901 0.12536399
v 0.61456799 2.27837991 0.12536399
v 1.16140997 2.10592889 0.12536399
v 1.02406394 2.10145497 0.12536399
v 1.130203 1.94321 0.12536399
v 1.18754696 2.04385805 0.12536399
v 0.052878 2.39947295 0.12536399
v 0.17001099 2.32761097 0.12536399
v 2.47448802 1.12378597 0.12536498
v 2.24795794 1.01667296 0.12514299
v 2.40279388 1.27413702 0.12536498
v 2.17939901 1.151968 0.12514299
v 2.52852702 1.11088895 0.12536399
v 2.52672696 1.26629996 0.12536399
v 2.54864692 0.95103299 0.12536498
v 2.31509399 0.86027401 0.12514299
v 2.60825491 0.79549598 0.12536498
v 2.36581611 0.71770101 0.12514299
v 2.5765171 0.99909299 0.12536399
v 2.68794107 0.89073902 0.12536399
v 2.69778299 1.11734294 0.12536399
v 2.59134006 1.07165396 0.12536399
v 2.69013905 0.45156699 0.12536498
v 2.44373393 0.40600299 0.12514299
v 2.65931296 0.61525797 0.12536498
v 2.41209101 0.55434101 0.12514299
v 2.73907303 0.42526701 0.12536399
v 2.777112 0.575962 0.12536399
v 2.71760606 0.26558798 0.12536498
v 2.46860098 0.237635 0.12514299
v 2.73541498 0.099973 0.12536498
v 2.48113799 0.086823 0.12514299
v 2.7568469 0.30491301 0.12536399
v 2.83682489 0.171645 0.12536399
v 2.90434289 0.38818401 0.12536399
v 2.78975105 0.371261 0.12536399
v 2.36213111 0.57334601 0.12536399
v 2.32491898 0.44106099 0.12536399
v 2.33298206 0.67616301 0.12536399
v 2.231884 0.76924002 0.12536399
v 2.19667291 0.58198201 0.12536399
v 2.3081181 0.613577 0.12536399
v 2.43876195 0.055268 0.12536399
v 2.36484789 0.17111399 0.12536399
v 2.28289198 -0.0009 0.12536399
v 2.3987081 0.001125 0.12536399
v 2.12572908 1.15845394 0.12536399
v 2.1236751 1.02104699 0.12536399
v -2.2079699 1.57350802 0.12536498
v -2.00541901 1.42598104 0.12514299
v -2.30559301 1.43854594 0.12536498
v -2.09133601 1.300987 0.12514299
v -2.22253298 1.62712001 0.12536399
v -2.35808801 1.55108594 0.12536399
v -2.09185695 1.72136199 0.12536498
v -1.90030205 1.559834 0.12514299
v -1.98388505 1.84819901 0.12536498
v -1.79945099 1.67265903 0.12514299
v -2.14739203 1.72280299 0.12536399
v -2.10566306 1.87251603 0.12536399
v -2.30928802 1.772596 0.12536399
v -2.2181859 1.70105004 0.12536399
v -1.72122204 2.08484005 0.12536498
v -1.56318199 1.89038205 0.12514299
v -1.85013997 1.97935998 0.12536498
v -1.67823004 1.79154205 0.12514299
v -1.72157895 2.14039206 0.12536399
v -1.87207794 2.10158991 0.12536399
v -1.57113099 2.19804596 0.12536498
v -1.42730402 1.99286902 0.12514299
v -1.43429195 2.29302096 0.12536498
v -1.30093395 2.07612395 0.12514299
v -1.62444901 2.21365404 0.12536399
v -1.54578805 2.34770298 0.12536399
v -1.768206 2.3032279 0.12536399
v -1.69845295 2.2107501 0.12536399
v -1.67097497 1.73858201 0.12536399
v -1.53702902 1.76929402 0.12536399
v -1.74726402 1.66373705 0.12536399
v -1.78053295 1.53041005 0.12536399
v -1.59929001 1.58921098 0.12536399
v -1.68041098 1.67189705 0.12536399
v -1.25293004 2.05404806 0.12536399
v -1.31920802 1.93366503 0.12536399
v -1.128955 1.94413101 0.12536399
v -1.18621695 2.04482603 0.12536399
v -2.07131791 1.25076603 0.12536399
v -1.94972205 1.31479203 0.12536399
v -2.71771192 0.26794299 0.12536498
v -2.46868109 0.24011799 0.12514299
v -2.73566699 0.102342 0.12536498
v -2.48140096 0.08897499 0.12514299
v -2.756922 0.30730199 0.12536399
v -2.83701491 0.174103 0.12536399
v -2.69008207 0.45389899 0.12536498
v -2.44366908 0.40846601 0.12514299
v -2.65911603 0.61756402 0.12536498
v -2.41194891 0.55643397 0.12514299
v -2.73903989 0.42764198 0.12536399
v -2.77694988 0.57836902 0.12536399
v -2.90434289 0.39070099 0.12536399
v -2.78976488 0.37367799 0.12536399
v -2.54815888 0.95324301 0.12536498
v -2.31454491 0.86260199 0.12514299
v -2.60790109 0.79775399 0.12536498
v -2.36552906 0.719751 0.12514299
v -2.5759859 1.00132501 0.12536399
v -2.687505 0.89306598 0.12536399
v -2.47385311 1.12592899 0.12536498
v -2.24727606 1.01893603 0.12514299
v -2.40202498 1.27621603 0.12536498
v -2.17873811 1.15385305 0.12514299
v -2.52789998 1.11307704 0.12536399
v -2.52596688 1.26848805 0.12536399
v -2.69715189 1.11967897 0.12536399
v -2.59074902 1.07389795 0.12536399
v -2.33299398 0.677338 0.12536399
v -2.231848 0.77036398 0.12536399
v -2.3621931 0.57453298 0.12536399
v -2.32504701 0.44222599 0.12536399
v -2.19673109 0.58308601 0.12536399
v -2.30816006 0.614735 0.12536399
v -2.12610101 1.15845394 0.12536399
v -2.12404704 1.02104699 0.12536399
v -1.96395897 1.12438499 0.12536399
v -2.06357908 1.18349099 0.12536399
v -2.43913388 0.055268 0.12536399
v -2.36521911 0.17111399 0.12536399
v -2.28326296 -0.0009 0.12536399
v -2.39908289 0.001125 0.12536399
v -1.12097394 2.45402407 0.12536498
v -1.01786601 2.22564101 0.12514299
v -1.27256405 2.38498711 0.12536498
v -1.15435195 2.15947604 0.12514299
v -1.10712504 2.50782489 0.12536399
v -1.26254403 2.50876498 0.12536399
v -0.94694197 2.52512693 0.12536498
v -0.86031299 2.29000997 0.12514299
v -0.79037702 2.58198308 0.12536498
v -0.716865 2.3382101 0.12514299
v -0.99450099 2.55383706 0.12536399
v -0.88420099 2.66333699 0.12536399
v -1.11059904 2.67717003 0.12536399
v -1.06678998 2.56993889 0.12536399
v -0.44506001 2.65779209 0.12536498
v -0.40384399 2.41062688 0.12514299
v -0.60926997 2.62985897 0.12536498
v -0.55271798 2.38160109 0.12514299
v -0.417901 2.70625591 0.12536399
v -0.56790202 2.74694609 0.12536399
v -0.25862398 2.68198108 0.12536498
v -0.235063 2.43252205 0.12514299
v -0.09272299 2.69686889 0.12536498
v -0.084057 2.44239997 0.12514299
v -0.29725 2.72190904 0.12536399
v -0.16259899 2.79952597 0.12536399
v -0.37791299 2.87084889 0.12536399
v -0.363011 2.7559781 0.12536399
v -0.57259702 2.33198189 0.12536399
v -0.44098699 2.29244494 0.12536399
v -0.675915 2.30465292 0.12536399
v -0.77075898 2.20521092 0.12536399
v -0.584149 2.16670489 0.12536399
v -0.61377298 2.278687 0.12536399
v -0.05325 2.39947295 0.12536399
v -0.17038199 2.32761097 0.12536399
v 0.000163 2.24263501 0.12536399
v 0.000181 2.35847306 0.12536399
v -1.16178202 2.10592889 0.12536399
v -1.02443397 2.10145497 0.12536399
v 1.30435705 -2.07354807 -0.125365
v 1.43084704 -1.98984801 -0.125365
v 1.575019 -2.19518899 -0.125143
v 1.43835794 -2.2904191 -0.125143
v 1.62830495 -2.2106049 -0.125143
v 1.54989504 -2.34479498 -0.125143
v 1.70230197 -2.20756006 -0.125143
v 1.77223002 -2.29990696 -0.125143
v 1.72490704 -2.08169198 -0.125143
v 1.56662702 -1.88703203 -0.125365
v 1.68121302 -1.78818202 -0.125365
v 1.85362398 -1.97597003 -0.125143
v 1.875723 -2.09807896 -0.125143
v 1.72529494 -2.1371591 -0.125143
v 1.80208694 -1.66919994 -0.125365
v 1.90294003 -1.55591094 -0.125365
v 2.09486794 -1.71750903 -0.125143
v 1.98713696 -1.84454798 -0.125143
v 2.1503241 -1.71877205 -0.125143
v 2.10887599 -1.86856603 -0.125143
v 2.22107911 -1.69689095 -0.125143
v 2.31231403 -1.76826095 -0.125143
v 2.21071195 -1.56942796 -0.125143
v 2.00787997 -1.42176497 -0.125365
v 2.09334611 -1.29688096 -0.125365
v 2.30808091 -1.43428397 -0.125143
v 2.36069893 -1.546664 -0.125143
v 2.22528505 -1.62294995 -0.125143
v 1.68262803 -1.66935503 -0.125143
v 1.60138201 -1.58679103 -0.125143
v 1.78224897 -1.52755403 -0.125143
v 1.74918305 -1.66094005 -0.125143
v 1.53924298 -1.76667702 -0.125143
v 1.673141 -1.73576295 -0.125143
v 1.95049798 -1.31258201 -0.125143
v 1.96453797 -1.12278294 -0.125143
v 2.06420588 -1.18180799 -0.125143
v 2.07202792 -1.24843204 -0.125143
v 1.32059395 -1.93210995 -0.125143
v 1.25443697 -2.05255794 -0.125143
v 0.08574999 -2.44212603 -0.125365
v 0.237093 -2.43207311 -0.125365
v 0.26062199 -2.68186688 -0.125143
v 0.094732 -2.69689989 -0.125143
v 0.29927301 -2.72164702 -0.125143
v 0.164688 -2.79938793 -0.125143
v 0.36506301 -2.75566005 -0.125143
v 0.38006499 -2.87052297 -0.125143
v 0.447048 -2.6575191 -0.125143
v 0.40597298 -2.41001606 -0.125365
v 0.55447697 -2.38090109 -0.125365
v 0.61123198 -2.62943601 -0.125143
v 0.569947 -2.746454 -0.125143
v 0.41991001 -2.70589304 -0.125143
v 0.71841901 -2.33741498 -0.125365
v 0.86214697 -2.28895807 -0.125365
v 0.94883 -2.52440691 -0.125143
v 0.79231399 -2.58140206 -0.125143
v 0.99637699 -2.55297493 -0.125143
v 0.88617301 -2.66256904 -0.125143
v 1.068681 -2.56901311 -0.125143
v 1.11258304 -2.67620897 -0.125143
v 1.12281203 -2.45314908 -0.125143
v 1.019755 -2.22441196 -0.125365
v 1.15585994 -2.15825796 -0.125365
v 1.27434098 -2.38398408 -0.125143
v 1.264382 -2.50766992 -0.125143
v 1.10896205 -2.50686788 -0.125143
v 0.61456799 -2.27837991 -0.125143
v 0.58488798 -2.16640901 -0.125143
v 0.77134597 -2.20454406 -0.125143
v 0.67655199 -2.30403304 -0.125143
v 0.44180199 -2.29189896 -0.125143
v 0.57343202 -2.33136797 -0.125143
v 1.02399194 -2.10113596 -0.125143
v 1.130203 -1.94321203 -0.125143
v 1.18754696 -2.04385709 -0.125143
v 1.16133797 -2.10560989 -0.125143
v 0.169916 -2.32730007 -0.125143
v 0.052783 -2.39916205 -0.125143
v 2.17918205 -1.15193903 -0.125365
v 2.24774098 -1.016644 -0.125365
v 2.47458696 -1.12383699 -0.125143
v 2.40289211 -1.27418601 -0.125143
v 2.52852702 -1.11088895 -0.125143
v 2.52672696 -1.26629996 -0.125143
v 2.59134006 -1.07165396 -0.125143
v 2.69778299 -1.11734294 -0.125143
v 2.54874897 -0.95107102 -0.125143
v 2.31492209 -0.86013501 -0.125365
v 2.36564397 -0.71756202 -0.125365
v 2.6083579 -0.79553401 -0.125143
v 2.68794107 -0.89073902 -0.125143
v 2.5765171 -0.99909198 -0.125143
v 2.4118731 -0.55436897 -0.125365
v 2.44351506 -0.40603101 -0.125365
v 2.6902461 -0.45158898 -0.125143
v 2.65942001 -0.61527997 -0.125143
v 2.73907303 -0.42526701 -0.125143
v 2.77711105 -0.575962 -0.125143
v 2.78975105 -0.371261 -0.125143
v 2.90434289 -0.38818401 -0.125143
v 2.71771502 -0.26559901 -0.125143
v 2.46839904 -0.237544 -0.125365
v 2.48093605 -0.086732 -0.125365
v 2.73552393 -0.09998399 -0.125143
v 2.83682489 -0.171645 -0.125143
v 2.7568469 -0.30491301 -0.125143
v 2.3081181 -0.61357802 -0.125143
v 2.19667291 -0.58198201 -0.125143
v 2.32459306 -0.44106799 -0.125143
v 2.36180496 -0.573354 -0.125143
v 2.2316091 -0.76906299 -0.125143
v 2.33270692 -0.67598599 -0.125143
v 2.43845105 -0.055167 -0.125143
v 2.36453604 -0.17101299 -0.125143
v 2.12335991 -1.02096998 -0.125143
v 2.12541294 -1.15837705 -0.125143
v -2.09120702 -1.30080997 -0.125365
v -2.00529003 -1.42580103 -0.125365
v -2.20805907 -1.57357204 -0.125143
v -2.30568289 -1.43860697 -0.125143
v -2.22253298 -1.62712001 -0.125143
v -2.35808801 -1.55108594 -0.125143
v -2.2181859 -1.70105004 -0.125143
v -2.30928802 -1.772596 -0.125143
v -2.09193992 -1.72143495 -0.125143
v -1.90009701 -1.55974996 -0.125365
v -1.79924595 -1.67257499 -0.125365
v -1.98396694 -1.84827101 -0.125143
v -2.10566306 -1.87251997 -0.125143
v -2.14739203 -1.72280299 -0.125143
v -1.67815005 -1.79133701 -0.125365
v -1.563102 -1.89017701 -0.125365
v -1.72129297 -2.08492398 -0.125143
v -1.85020995 -1.97944402 -0.125143
v -1.72157895 -2.14039397 -0.125143
v -1.87207794 -2.10158991 -0.125143
v -1.69845295 -2.2107501 -0.125143
v -1.768206 -2.3032279 -0.125143
v -1.57119298 -2.19813704 -0.125143
v -1.42712795 -1.99273395 -0.125365
v -1.300758 -2.07598996 -0.125365
v -1.43435394 -2.29311204 -0.125143
v -1.54578805 -2.34770107 -0.125143
v -1.62444901 -2.21365404 -0.125143
v -1.68041098 -1.67189705 -0.125143
v -1.59929001 -1.58921098 -0.125143
v -1.53687894 -1.76900494 -0.125143
v -1.67082405 -1.73829197 -0.125143
v -1.78024494 -1.53025198 -0.125143
v -1.74697697 -1.66357994 -0.125143
v -1.31896996 -1.93344104 -0.125143
v -1.128955 -1.94413101 -0.125143
v -1.18621695 -2.04482603 -0.125143
v -1.25269305 -2.05382204 -0.125143
v -1.94950294 -1.31455099 -0.125143
v -2.07109904 -1.25052595 -0.125143
v -2.48120093 -0.088885 -0.125365
v -2.46848011 -0.24002799 -0.125365
v -2.71782088 -0.26795199 -0.125143
v -2.73577594 -0.102351 -0.125143
v -2.756922 -0.30730199 -0.125143
v -2.83701491 -0.174103 -0.125143
v -2.78976488 -0.37367799 -0.125143
v -2.90434289 -0.39070099 -0.125143
v -2.69019007 -0.45392 -0.125143
v -2.44344902 -0.40849399 -0.125365
v -2.41172909 -0.55646199 -0.125365
v -2.65922308 -0.61758798 -0.125143
v -2.77694988 -0.57836902 -0.125143
v -2.73903989 -0.42764198 -0.125143
v -2.36535811 -0.719612 -0.125365
v -2.31437301 -0.86246299 -0.125365
v -2.54826188 -0.95328098 -0.125143
v -2.60800409 -0.79779201 -0.125143
v -2.5759859 -1.00132501 -0.125143
v -2.687505 -0.89306598 -0.125143
v -2.59074902 -1.07389795 -0.125143
v -2.69715189 -1.11967897 -0.125143
v -2.47395205 -1.12597703 -0.125143
v -2.247056 -1.01890695 -0.125365
v -2.17851901 -1.15382397 -0.125365
v -2.40212392 -1.27626502 -0.125143
v -2.52596688 -1.268489 -0.125143
v -2.52789998 -1.11307704 -0.125143
v -2.30816006 -0.614735 -0.125143
v -2.19673109 -0.58308601 -0.125143
v -2.23157405 -0.77018702 -0.125143
v -2.33272004 -0.67716097 -0.125143
v -2.3247199 -0.44223299 -0.125143
v -2.36186599 -0.57454001 -0.125143
v -2.12372899 -1.02096903 -0.125143
v -1.96395897 -1.12438499 -0.125143
v -2.06357908 -1.18349099 -0.125143
v -2.12578296 -1.15837705 -0.125143
v -2.36490988 -0.17101399 -0.125143
v -2.43882489 -0.05516799 -0.125143
v -1.15432703 -2.15926098 -0.125365
v -1.01784098 -2.22542309 -0.125365
v -1.12102103 -2.45412397 -0.125143
v -1.27260994 -2.38508606 -0.125143
v -1.10712504 -2.50782203 -0.125143
v -1.26254403 -2.50876498 -0.125143
v -1.06678998 -2.56993794 -0.125143
v -1.11059904 -2.67716908 -0.125143
v -0.94697797 -2.52523088 -0.125143
v -0.86017698 -2.28983688 -0.125365
v -0.71672898 -2.3380351 -0.125365
v -0.79041302 -2.58208704 -0.125143
v -0.88420099 -2.66333699 -0.125143
v -0.99449998 -2.55383706 -0.125143
v -0.55274999 -2.38138198 -0.125365
v -0.403876 -2.41040897 -0.125365
v -0.44508001 -2.65790009 -0.125143
v -0.60929 -2.62996697 -0.125143
v -0.417901 -2.7062571 -0.125143
v -0.56790202 -2.746948 -0.125143
v -0.363011 -2.7559781 -0.125143
v -0.37791299 -2.87084889 -0.125143
v -0.25863298 -2.68208909 -0.125143
v -0.234977 -2.43231892 -0.125365
v -0.08397 -2.44219708 -0.125365
v -0.09273199 -2.69698 -0.125143
v -0.16259899 -2.79952693 -0.125143
v -0.29725 -2.72190809 -0.125143
v -0.61377298 -2.27868795 -0.125143
v -0.584149 -2.16670489 -0.125143
v -0.44100001 -2.29212093 -0.125143
v -0.57261002 -2.33165597 -0.125143
v -0.77058702 -2.20493006 -0.125143
v -0.67574298 -2.30437398 -0.125143
v -0.17028699 -2.32729911 -0.125143
v 0.000163 -2.2426331 -0.125143
v 0.000181 -2.35847401 -0.125143
v -0.05315399 -2.3991599 -0.125143
v -1.02436304 -2.10113811 -0.125143
v -1.16171097 -2.10561204 -0.125143
v 1.575019 2.19518899 -0.125143
v 1.43084704 1.98984801 -0.125365
v 1.30435705 2.07354903 -0.125365
v 1.43835794 2.29042005 -0.125143
v 1.54989504 2.34479904 -0.125143
v 1.62830495 2.2106049 -0.125143
v 1.77223002 2.29990696 -0.125143
v 1.70230197 2.2075591 -0.125143
v 1.68121302 1.788185 -0.125365
v 1.56662702 1.88703203 -0.125365
v 1.72490704 2.08169198 -0.125143
v 1.85362398 1.97597003 -0.125143
v 1.72529494 2.13716006 -0.125143
v 1.875723 2.09807491 -0.125143
v 2.09486794 1.71750903 -0.125143
v 1.90294003 1.55590903 -0.125365
v 1.80208694 1.66919899 -0.125365
v 1.98713696 1.84454596 -0.125143
v 2.10887599 1.86856305 -0.125143
v 2.1503241 1.71877205 -0.125143
v 2.31231403 1.76826095 -0.125143
v 2.22107911 1.69689095 -0.125143
v 2.09334611 1.29687905 -0.125365
v 2.00787997 1.42176401 -0.125365
v 2.21071195 1.56942701 -0.125143
v 2.30808091 1.43428301 -0.125143
v 2.22528505 1.62294697 -0.125143
v 2.36069893 1.54666304 -0.125143
v 1.78224897 1.52755498 -0.125143
v 1.60138201 1.58679103 -0.125143
v 1.68262803 1.66935503 -0.125143
v 1.74918305 1.66094005 -0.125143
v 1.53924298 1.76667797 -0.125143
v 1.673141 1.73576605 -0.125143
v 2.06420588 1.18180799 -0.125143
v 1.96453797 1.12278294 -0.125143
v 1.95049798 1.31258094 -0.125143
v 2.07202792 1.24843204 -0.125143
v 1.32059395 1.93210995 -0.125143
v 1.25443697 2.05255699 -0.125143
v 0.26062199 2.68186688 -0.125143
v 0.237093 2.43207311 -0.125365
v 0.08574999 2.44212508 -0.125365
v 0.094732 2.69689989 -0.125143
v 0.164688 2.79938411 -0.125143
v 0.29927301 2.72164988 -0.125143
v 0.38006499 2.87052297 -0.125143
v 0.36506301 2.75566196 -0.125143
v 0.55447697 2.38090205 -0.125365
v 0.40597298 2.41001391 -0.125365
v 0.447048 2.657516 -0.125143
v 0.61123198 2.62943601 -0.125143
v 0.41991001 2.70589399 -0.125143
v 0.569947 2.74645304 -0.125143
v 0.94883 2.52440691 -0.125143
v 0.86214697 2.28895807 -0.125365
v 0.71841901 2.33741498 -0.125365
v 0.79231399 2.58140111 -0.125143
v 0.88617301 2.66256904 -0.125143
v 0.99637699 2.55297493 -0.125143
v 1.11258304 2.67620897 -0.125143
v 1.068681 2.56901311 -0.125143
v 1.15585994 2.15825796 -0.125365
v 1.019755 2.22440695 -0.125365
v 1.12281203 2.45315194 -0.125143
v 1.27434098 2.38398289 -0.125143
v 1.10896205 2.50686597 -0.125143
v 1.264382 2.50766992 -0.125143
v 0.77134597 2.20454311 -0.125143
v 0.58488798 2.16640901 -0.125143
v 0.61456799 2.27837991 -0.125143
v 0.67655199 2.30403304 -0.125143
v 0.44180199 2.29189801 -0.125143
v 0.57343202 2.33136797 -0.125143
v 1.18754696 2.04385805 -0.125143
v 1.130203 1.94321 -0.125143
v 1.02399194 2.10113596 -0.125143
v 1.16133797 2.10560989 -0.125143
v 0.169916 2.32730007 -0.125143
v 0.052783 2.3991611 -0.125143
v 2.47458696 1.12383496 -0.125143
v 2.24774098 1.016644 -0.125365
v 2.17918205 1.15193903 -0.125365
v 2.40289211 1.27418601 -0.125143
v 2.52672696 1.26629996 -0.125143
v 2.52852702 1.11088895 -0.125143
v 2.69778299 1.11734294 -0.125143
v 2.59134006 1.07165396 -0.125143
v 2.36564397 0.717561 -0.125365
v 2.31492209 0.86013501 -0.125365
v 2.54874897 0.95107102 -0.125143
v 2.6083579 0.79553401 -0.125143
v 2.5765171 0.99909198 -0.125143
v 2.68794107 0.89073902 -0.125143
v 2.6902461 0.45158898 -0.125143
v 2.44351506 0.40603101 -0.125365
v 2.4118731 0.55436897 -0.125365
v 2.65942001 0.61527901 -0.125143
v 2.77711105 0.575962 -0.125143
v 2.73907303 0.42526701 -0.125143
v 2.90434289 0.38818401 -0.125143
v 2.78975105 0.371261 -0.125143
v 2.48093605 0.086732 -0.125365
v 2.46839904 0.237544 -0.125365
v 2.71771502 0.26559901 -0.125143
v 2.73552393 0.09998399 -0.125143
v 2.7568469 0.30491301 -0.125143
v 2.83682489 0.171645 -0.125143
v 2.32459306 0.44106799 -0.125143
v 2.19667291 0.58198201 -0.125143
v 2.3081181 0.613577 -0.125143
v 2.36180496 0.57335299 -0.125143
v 2.2316091 0.76906299 -0.125143
v 2.33270692 0.67598599 -0.125143
v 2.3987081 0.001125 -0.125143
v 2.28289198 -0.0009 -0.125143
v 2.36453604 0.17101299 -0.125143
v 2.43845105 0.055167 -0.125143
v 2.12335991 1.02096998 -0.125143
v 2.12541294 1.15837705 -0.125143
v -2.20805907 1.57357204 -0.125143
v -2.00529003 1.42580401 -0.125365
v -2.09120702 1.30080997 -0.125365
v -2.30568289 1.438609 -0.125143
v -2.35808801 1.55108594 -0.125143
v -2.22253298 1.62712001 -0.125143
v -2.30928802 1.772596 -0.125143
v -2.2181859 1.70105004 -0.125143
v -1.79924595 1.67257499 -0.125365
v -1.90009701 1.55974996 -0.125365
v -2.09193992 1.72143399 -0.125143
v -1.98396694 1.84827101 -0.125143
v -2.14739203 1.72280299 -0.125143
v -2.10566306 1.87251603 -0.125143
v -1.72129297 2.08492398 -0.125143
v -1.563102 1.89017701 -0.125365
v -1.67815005 1.79133701 -0.125365
v -1.85020995 1.97944402 -0.125143
v -1.87207794 2.10158991 -0.125143
v -1.72157895 2.14039206 -0.125143
v -1.768206 2.3032279 -0.125143
v -1.69845295 2.2107501 -0.125143
v -1.300758 2.07598996 -0.125365
v -1.42712795 1.99273502 -0.125365
v -1.57119298 2.19813704 -0.125143
v -1.43435394 2.29311204 -0.125143
v -1.62444901 2.21365308 -0.125143
v -1.54578805 2.34770298 -0.125143
v -1.53687894 1.76900398 -0.125143
v -1.59929001 1.58921098 -0.125143
v -1.68041098 1.67189705 -0.125143
v -1.67082405 1.73829197 -0.125143
v -1.78024494 1.53025305 -0.125143
v -1.74697697 1.66357994 -0.125143
v -1.18621695 2.04482603 -0.125143
v -1.128955 1.94413101 -0.125143
v -1.31896996 1.93343997 -0.125143
v -1.25269305 2.05382299 -0.125143
v -1.94950294 1.31455099 -0.125143
v -2.07109904 1.25052595 -0.125143
v -2.71782088 0.26795399 -0.125143
v -2.46848011 0.24002799 -0.125365
v -2.48120093 0.088885 -0.125365
v -2.73577594 0.10235299 -0.125143
v -2.83701491 0.17410199 -0.125143
v -2.756922 0.30730199 -0.125143
v -2.90434289 0.39070099 -0.125143
v -2.78976488 0.37367799 -0.125143
v -2.41172909 0.55646199 -0.125365
v -2.44344902 0.40849399 -0.125365
v -2.69019007 0.45392 -0.125143
v -2.65922308 0.61758601 -0.125143
v -2.73903989 0.42764198 -0.125143
v -2.77694988 0.57836902 -0.125143
v -2.54826188 0.95328098 -0.125143
v -2.31437301 0.86246299 -0.125365
v -2.36535811 0.719612 -0.125365
v -2.60800409 0.79779201 -0.125143
v -2.687505 0.89306598 -0.125143
v -2.5759859 1.00132501 -0.125143
v -2.69715189 1.11967897 -0.125143
v -2.59074902 1.07389795 -0.125143
v -2.17851901 1.15382397 -0.125365
v -2.247056 1.01890695 -0.125365
v -2.47395205 1.12597703 -0.125143
v -2.40212392 1.27626395 -0.125143
v -2.52789998 1.11307704 -0.125143
v -2.52596688 1.26848805 -0.125143
v -2.23157405 0.77018702 -0.125143
v -2.19673109 0.58308601 -0.125143
v -2.30816006 0.614735 -0.125143
v -2.33272004 0.67716097 -0.125143
v -2.3247199 0.44223299 -0.125143
v -2.36186599 0.57454001 -0.125143
v -2.06357908 1.18349099 -0.125143
v -1.96395897 1.12438499 -0.125143
v -2.12372899 1.02096903 -0.125143
v -2.12578296 1.15837705 -0.125143
v -2.36490988 0.17101399 -0.125143
v -2.28326296 -0.0009 -0.125143
v -2.39908289 0.001125 -0.125143
v -2.43882489 0.05516799 -0.125143
v -1.12102103 2.45412302 -0.125143
v -1.01784098 2.22542309 -0.125365
v -1.15432703 2.15925788 -0.125365
v -1.27260994 2.38508606 -0.125143
v -1.26254403 2.50876498 -0.125143
v -1.10712504 2.50782489 -0.125143
v -1.11059904 2.67717003 -0.125143
v -1.06678998 2.56993889 -0.125143
v -0.71672898 2.3380351 -0.125365
v -0.86017698 2.28983497 -0.125365
v -0.94697797 2.52522993 -0.125143
v -0.79041302 2.58208704 -0.125143
v -0.99449998 2.55383706 -0.125143
v -0.88420099 2.66333699 -0.125143
v -0.44508001 2.65790009 -0.125143
v -0.403876 2.41040992 -0.125365
v -0.55274999 2.38138389 -0.125365
v -0.60929 2.62996697 -0.125143
v -0.56790202 2.74694609 -0.125143
v -0.417901 2.70625591 -0.125143
v -0.37791299 2.87084889 -0.125143
v -0.363011 2.7559781 -0.125143
v -0.08397 2.44219589 -0.125365
v -0.234977 2.43231892 -0.125365
v -0.25863298 2.68209004 -0.125143
v -0.09273199 2.69697904 -0.125143
v -0.29725 2.72190904 -0.125143
v -0.16259899 2.79952597 -0.125143
v -0.44100001 2.29211902 -0.125143
v -0.584149 2.16670489 -0.125143
v -0.61377298 2.278687 -0.125143
v -0.57261002 2.33165597 -0.125143
v -0.77058702 2.20493292 -0.125143
v -0.67574298 2.30437493 -0.125143
v 0.000181 2.35847306 -0.125143
v 0.000163 2.24263501 -0.125143
v -0.17028699 2.32729792 -0.125143
v -0.05315399 2.3991599 -0.125143
v -1.02436304 2.10113811 -0.125143
v -1.16171097 2.10561108 -0.125143
g Group32941
f 484 483 482 481
g Group32944
f 4 3 484 481
f 1 2 482 483
g Group17741
f 3 4 2 1
g Group32941
f 484 486 485 483
g Group32944
f 5 1 483 485
f 3 6 486 484
g Group17741
f 3 1 5 6
g Group32941
f 485 486 488 487
g Group32944
f 14 5 485 487
f 6 13 488 486
g Group17741
f 5 14 13 6
g Group32941
f 492 491 490 489
g Group32944
f 8 7 489 490
f 9 10 491 492
g Group17741
f 9 7 8 10
g Group32941
f 492 489 494 493
g Group32944
f 12 9 492 493
f 7 11 494 489
g Group17741
f 9 12 11 7
g Group32941
f 494 487 488 493
g Group32944
f 13 12 493 488
f 11 14 487 494
g Group17741
f 11 12 13 14
g Group32941
f 498 497 496 495
g Group32944
f 18 17 498 495
f 15 16 496 497
g Group17741
f 17 18 16 15
g Group32941
f 498 500 499 497
g Group32944
f 19 15 497 499
f 17 20 500 498
g Group17741
f 17 15 19 20
g Group32941
f 499 500 502 501
g Group32944
f 28 19 499 501
f 20 27 502 500
g Group17741
f 19 28 27 20
g Group32941
f 506 505 504 503
g Group32944
f 22 21 503 504
f 23 24 505 506
g Group17741
f 23 21 22 24
g Group32941
f 506 503 508 507
g Group32944
f 26 23 506 507
f 21 25 508 503
g Group17741
f 23 26 25 21
g Group32941
f 508 501 502 507
g Group32944
f 27 26 507 502
f 25 28 501 508
g Group17741
f 25 26 27 28
g Group32941
f 512 511 510 509
g Group32944
f 34 29 512 509
f 30 33 510 511
g Group17741
f 29 34 33 30
g Group32941
f 514 509 510 513
g Group32944
f 33 32 513 510
f 31 34 509 514
g Group17741
f 31 32 33 34
g Group32941
f 496 511 512 495
g Group32944
f 29 18 495 512
f 16 30 511 496
g Group17741
f 16 18 29 30
g Group32941
f 491 514 513 490
g Group32944
f 32 8 490 513
f 10 31 514 491
g Group17741
f 10 8 32 31
g Group32941
f 518 517 516 515
g Group32944
f 37 36 515 516
f 35 38 517 518
g Group17741
f 35 36 37 38
g Group32941
f 515 504 505 518
g Group32944
f 24 35 518 505
f 36 22 504 515
g Group17741
f 36 35 24 22
g Group32941
f 520 481 482 519
g Group32944
f 2 40 519 482
f 39 4 481 520
g Group17741
f 39 40 2 4
g Group32941
f 524 523 522 521
g Group32944
f 44 43 524 521
f 41 42 522 523
g Group17741
f 43 44 42 41
g Group32941
f 524 526 525 523
g Group32944
f 45 41 523 525
f 43 46 526 524
g Group17741
f 43 41 45 46
g Group32941
f 525 526 528 527
g Group32944
f 54 45 525 527
f 46 53 528 526
g Group17741
f 45 54 53 46
g Group32941
f 532 531 530 529
g Group32944
f 48 47 529 530
f 49 50 531 532
g Group17741
f 49 47 48 50
g Group32941
f 532 529 534 533
g Group32944
f 52 49 532 533
f 47 51 534 529
g Group17741
f 49 52 51 47
g Group32941
f 534 527 528 533
g Group32944
f 53 52 533 528
f 51 54 527 534
g Group17741
f 51 52 53 54
g Group32941
f 538 537 536 535
g Group32944
f 58 57 538 535
f 55 56 536 537
g Group17741
f 57 58 56 55
g Group32941
f 538 540 539 537
g Group32944
f 59 55 537 539
f 57 60 540 538
g Group17741
f 57 55 59 60
g Group32941
f 539 540 542 541
g Group32944
f 68 59 539 541
f 60 67 542 540
g Group17741
f 59 68 67 60
g Group32941
f 546 545 544 543
g Group32944
f 62 61 543 544
f 63 64 545 546
g Group17741
f 63 61 62 64
g Group32941
f 546 543 548 547
g Group32944
f 66 63 546 547
f 61 65 548 543
g Group17741
f 63 66 65 61
g Group32941
f 548 541 542 547
g Group32944
f 67 66 547 542
f 65 68 541 548
g Group17741
f 65 66 67 68
g Group32941
f 552 551 550 549
g Group32944
f 74 69 552 549
f 70 73 550 551
g Group17741
f 69 74 73 70
g Group32941
f 554 549 550 553
g Group32944
f 73 72 553 550
f 71 74 549 554
g Group17741
f 71 72 73 74
g Group32941
f 536 551 552 535
g Group32944
f 69 58 535 552
f 56 70 551 536
g Group17741
f 56 58 69 70
g Group32941
f 531 554 553 530
g Group32944
f 72 48 530 553
f 50 71 554 531
g Group17741
f 50 48 72 71
g Group32941
f 558 557 556 555
g Group32944
f 77 76 555 556
f 75 78 557 558
g Group17741
f 75 76 77 78
g Group32941
f 555 544 545 558
g Group32944
f 64 75 558 545
f 76 62 544 555
g Group17741
f 76 75 64 62
g Group32941
f 560 521 522 559
g Group32944
f 42 80 559 522
f 79 44 521 560
g Group17741
f 79 80 42 44
g Group32941
f 564 563 562 561
g Group32944
f 84 83 564 561
f 81 82 562 563
g Group17741
f 83 84 82 81
g Group32941
f 564 566 565 563
g Group32944
f 85 81 563 565
f 83 86 566 564
g Group17741
f 83 81 85 86
g Group32941
f 565 566 568 567
g Group32944
f 94 85 565 567
f 86 93 568 566
g Group17741
f 85 94 93 86
g Group32941
f 572 571 570 569
g Group32944
f 88 87 569 570
f 89 90 571 572
g Group17741
f 89 87 88 90
g Group32941
f 572 569 574 573
g Group32944
f 92 89 572 573
f 87 91 574 569
g Group17741
f 89 92 91 87
g Group32941
f 574 567 568 573
g Group32944
f 93 92 573 568
f 91 94 567 574
g Group17741
f 91 92 93 94
g Group32941
f 578 577 576 575
g Group32944
f 98 97 578 575
f 95 96 576 577
g Group17741
f 97 98 96 95
g Group32941
f 578 580 579 577
g Group32944
f 99 95 577 579
f 97 100 580 578
g Group17741
f 97 95 99 100
g Group32941
f 579 580 582 581
g Group32944
f 108 99 579 581
f 100 107 582 580
g Group17741
f 99 108 107 100
g Group32941
f 586 585 584 583
g Group32944
f 102 101 583 584
f 103 104 585 586
g Group17741
f 103 101 102 104
g Group32941
f 586 583 588 587
g Group32944
f 106 103 586 587
f 101 105 588 583
g Group17741
f 103 106 105 101
g Group32941
f 588 581 582 587
g Group32944
f 107 106 587 582
f 105 108 581 588
g Group17741
f 105 106 107 108
g Group32941
f 592 591 590 589
g Group32944
f 114 109 592 589
f 110 113 590 591
g Group17741
f 109 114 113 110
g Group32941
f 594 589 590 593
g Group32944
f 113 112 593 590
f 111 114 589 594
g Group17741
f 111 112 113 114
g Group32941
f 576 591 592 575
g Group32944
f 109 98 575 592
f 96 110 591 576
g Group17741
f 96 98 109 110
g Group32941
f 571 594 593 570
g Group32944
f 112 88 570 593
f 90 111 594 571
g Group17741
f 90 88 112 111
g Group32941
f 596 584 585 595
g Group32944
f 104 115 595 585
f 116 102 584 596
g Group17741
f 116 115 104 102
g Group32941
f 598 561 562 597
g Group32944
f 82 118 597 562
f 117 84 561 598
g Group17741
f 117 118 82 84
g Group32941
f 519 556 557 520
g Group32944
f 78 39 520 557
f 40 77 556 519
g Group17741
f 40 39 78 77
g Group32941
f 597 516 517 598
g Group32944
f 38 117 598 517
f 118 37 516 597
g Group17741
f 118 117 38 37
g Group32941
f 602 601 600 599
g Group32944
f 122 121 602 599
f 119 120 600 601
g Group17741
f 121 122 120 119
g Group32941
f 602 604 603 601
g Group32944
f 123 119 601 603
f 121 124 604 602
g Group17741
f 121 119 123 124
g Group32941
f 603 604 606 605
g Group32944
f 132 123 603 605
f 124 131 606 604
g Group17741
f 123 132 131 124
g Group32941
f 610 609 608 607
g Group32944
f 126 125 607 608
f 127 128 609 610
g Group17741
f 127 125 126 128
g Group32941
f 610 607 612 611
g Group32944
f 130 127 610 611
f 125 129 612 607
g Group17741
f 127 130 129 125
g Group32941
f 612 605 606 611
g Group32944
f 131 130 611 606
f 129 132 605 612
g Group17741
f 129 130 131 132
g Group32941
f 616 615 614 613
g Group32944
f 136 135 616 613
f 133 134 614 615
g Group17741
f 135 136 134 133
g Group32941
f 616 618 617 615
g Group32944
f 137 133 615 617
f 135 138 618 616
g Group17741
f 135 133 137 138
g Group32941
f 617 618 620 619
g Group32944
f 146 137 617 619
f 138 145 620 618
g Group17741
f 137 146 145 138
g Group32941
f 624 623 622 621
g Group32944
f 140 139 621 622
f 141 142 623 624
g Group17741
f 141 139 140 142
g Group32941
f 624 621 626 625
g Group32944
f 144 141 624 625
f 139 143 626 621
g Group17741
f 141 144 143 139
g Group32941
f 626 619 620 625
g Group32944
f 145 144 625 620
f 143 146 619 626
g Group17741
f 143 144 145 146
g Group32941
f 630 629 628 627
g Group32944
f 152 147 630 627
f 148 151 628 629
g Group17741
f 147 152 151 148
g Group32941
f 632 627 628 631
g Group32944
f 151 150 631 628
f 149 152 627 632
g Group17741
f 149 150 151 152
g Group32941
f 614 629 630 613
g Group32944
f 147 136 613 630
f 134 148 629 614
g Group17741
f 134 136 147 148
g Group32941
f 609 632 631 608
g Group32944
f 150 126 608 631
f 128 149 632 609
g Group17741
f 128 126 150 149
g Group32941
f 636 635 634 633
g Group32944
f 155 154 633 634
f 153 156 635 636
g Group17741
f 153 154 155 156
g Group32941
f 633 622 623 636
g Group32944
f 142 153 636 623
f 154 140 622 633
g Group17741
f 154 153 142 140
g Group32941
f 638 599 600 637
g Group32944
f 120 158 637 600
f 157 122 599 638
g Group17741
f 157 158 120 122
g Group32941
f 642 641 640 639
g Group32944
f 162 161 642 639
f 159 160 640 641
g Group17741
f 161 162 160 159
g Group32941
f 642 644 643 641
g Group32944
f 163 159 641 643
f 161 164 644 642
g Group17741
f 161 159 163 164
g Group32941
f 643 644 646 645
g Group32944
f 172 163 643 645
f 164 171 646 644
g Group17741
f 163 172 171 164
g Group32941
f 650 649 648 647
g Group32944
f 166 165 647 648
f 167 168 649 650
g Group17741
f 167 165 166 168
g Group32941
f 650 647 652 651
g Group32944
f 170 167 650 651
f 165 169 652 647
g Group17741
f 167 170 169 165
g Group32941
f 652 645 646 651
g Group32944
f 171 170 651 646
f 169 172 645 652
g Group17741
f 169 170 171 172
g Group32941
f 656 655 654 653
g Group32944
f 176 175 656 653
f 173 174 654 655
g Group17741
f 175 176 174 173
g Group32941
f 656 658 657 655
g Group32944
f 177 173 655 657
f 175 178 658 656
g Group17741
f 175 173 177 178
g Group32941
f 657 658 660 659
g Group32944
f 186 177 657 659
f 178 185 660 658
g Group17741
f 177 186 185 178
g Group32941
f 664 663 662 661
g Group32944
f 180 179 661 662
f 181 182 663 664
g Group17741
f 181 179 180 182
g Group32941
f 664 661 666 665
g Group32944
f 184 181 664 665
f 179 183 666 661
g Group17741
f 181 184 183 179
g Group32941
f 666 659 660 665
g Group32944
f 185 184 665 660
f 183 186 659 666
g Group17741
f 183 184 185 186
g Group32941
f 670 669 668 667
g Group32944
f 192 187 670 667
f 188 191 668 669
g Group17741
f 187 192 191 188
g Group32941
f 672 667 668 671
g Group32944
f 191 190 671 668
f 189 192 667 672
g Group17741
f 189 190 191 192
g Group32941
f 654 669 670 653
g Group32944
f 187 176 653 670
f 174 188 669 654
g Group17741
f 174 176 187 188
g Group32941
f 649 672 671 648
g Group32944
f 190 166 648 671
f 168 189 672 649
g Group17741
f 168 166 190 189
g Group32941
f 676 675 674 673
g Group32944
f 195 194 673 674
f 193 196 675 676
g Group17741
f 193 194 195 196
g Group32941
f 673 662 663 676
g Group32944
f 182 193 676 663
f 194 180 662 673
g Group17741
f 194 193 182 180
g Group32941
f 678 639 640 677
g Group32944
f 160 198 677 640
f 197 162 639 678
g Group17741
f 197 198 160 162
g Group32941
f 682 681 680 679
g Group32944
f 202 201 682 679
f 199 200 680 681
g Group17741
f 201 202 200 199
g Group32941
f 682 684 683 681
g Group32944
f 203 199 681 683
f 201 204 684 682
g Group17741
f 201 199 203 204
g Group32941
f 683 684 686 685
g Group32944
f 212 203 683 685
f 204 211 686 684
g Group17741
f 203 212 211 204
g Group32941
f 690 689 688 687
g Group32944
f 206 205 687 688
f 207 208 689 690
g Group17741
f 207 205 206 208
g Group32941
f 690 687 692 691
g Group32944
f 210 207 690 691
f 205 209 692 687
g Group17741
f 207 210 209 205
g Group32941
f 692 685 686 691
g Group32944
f 211 210 691 686
f 209 212 685 692
g Group17741
f 209 210 211 212
g Group32941
f 696 695 694 693
g Group32944
f 216 215 696 693
f 213 214 694 695
g Group17741
f 215 216 214 213
g Group32941
f 696 698 697 695
g Group32944
f 217 213 695 697
f 215 218 698 696
g Group17741
f 215 213 217 218
g Group32941
f 697 698 700 699
g Group32944
f 226 217 697 699
f 218 225 700 698
g Group17741
f 217 226 225 218
g Group32941
f 704 703 702 701
g Group32944
f 220 219 701 702
f 221 222 703 704
g Group17741
f 221 219 220 222
g Group32941
f 704 701 706 705
g Group32944
f 224 221 704 705
f 219 223 706 701
g Group17741
f 221 224 223 219
g Group32941
f 706 699 700 705
g Group32944
f 225 224 705 700
f 223 226 699 706
g Group17741
f 223 224 225 226
g Group32941
f 710 709 708 707
g Group32944
f 232 227 710 707
f 228 231 708 709
g Group17741
f 227 232 231 228
g Group32941
f 712 707 708 711
g Group32944
f 231 230 711 708
f 229 232 707 712
g Group17741
f 229 230 231 232
g Group32941
f 694 709 710 693
g Group32944
f 227 216 693 710
f 214 228 709 694
g Group17741
f 214 216 227 228
g Group32941
f 689 712 711 688
g Group32944
f 230 206 688 711
f 208 229 712 689
g Group17741
f 208 206 230 229
g Group32941
f 716 715 714 713
g Group32944
f 235 234 713 714
f 233 236 715 716
g Group17741
f 233 234 235 236
g Group32941
f 713 702 703 716
g Group32944
f 222 233 716 703
f 234 220 702 713
g Group17741
f 234 233 222 220
g Group32941
f 718 679 680 717
g Group32944
f 200 238 717 680
f 237 202 679 718
g Group17741
f 237 238 200 202
g Group32941
f 637 674 675 638
g Group32944
f 196 157 638 675
f 158 195 674 637
g Group17741
f 158 157 196 195
g Group32941
f 717 634 635 718
g Group32944
f 156 237 718 635
f 238 155 634 717
g Group17741
f 238 237 156 155
g Group32941
f 559 714 715 560
g Group32944
f 236 79 560 715
f 80 235 714 559
g Group17741
f 80 79 236 235
g Group32941
f 722 721 720 719
g Group32944
f 240 239 719 720
f 241 242 721 722
g Group17741
f 241 239 240 242
g Group32941
f 722 719 724 723
g Group32944
f 244 241 722 723
f 239 243 724 719
g Group17741
f 241 244 243 239
g Group32941
f 724 726 725 723
g Group32944
f 251 244 723 725
f 243 252 726 724
g Group17741
f 243 244 251 252
g Group32941
f 730 729 728 727
g Group32944
f 248 247 730 727
f 245 246 728 729
g Group17741
f 247 248 246 245
g Group32941
f 730 732 731 729
g Group32944
f 249 245 729 731
f 247 250 732 730
g Group17741
f 247 245 249 250
g Group32941
f 731 732 725 726
g Group32944
f 252 249 731 726
f 250 251 725 732
g Group17741
f 249 252 251 250
g Group32941
f 736 735 734 733
g Group32944
f 254 253 733 734
f 255 256 735 736
g Group17741
f 255 253 254 256
g Group32941
f 736 733 738 737
g Group32944
f 258 255 736 737
f 253 257 738 733
g Group17741
f 255 258 257 253
g Group32941
f 738 740 739 737
g Group32944
f 265 258 737 739
f 257 266 740 738
g Group17741
f 257 258 265 266
g Group32941
f 744 743 742 741
g Group32944
f 262 261 744 741
f 259 260 742 743
g Group17741
f 261 262 260 259
g Group32941
f 744 746 745 743
g Group32944
f 263 259 743 745
f 261 264 746 744
g Group17741
f 261 259 263 264
g Group32941
f 745 746 739 740
g Group32944
f 266 263 745 740
f 264 265 739 746
g Group17741
f 263 266 265 264
g Group32941
f 750 749 748 747
g Group32944
f 271 268 747 748
f 267 272 749 750
g Group17741
f 267 268 271 272
g Group32941
f 752 751 748 749
g Group32944
f 272 269 752 749
f 270 271 748 751
g Group17741
f 269 272 271 270
g Group32941
f 734 735 750 747
g Group32944
f 268 254 734 747
f 256 267 750 735
g Group17741
f 254 268 267 256
g Group32941
f 727 728 751 752
g Group32944
f 269 248 727 752
f 246 270 751 728
g Group17741
f 248 269 270 246
g Group32941
f 756 755 754 753
g Group32944
f 276 273 756 753
f 274 275 754 755
g Group17741
f 273 276 275 274
g Group32941
f 755 756 741 742
g Group32944
f 260 274 755 742
f 273 262 741 756
g Group17741
f 274 260 262 273
g Group32941
f 758 757 720 721
g Group32944
f 242 277 758 721
f 278 240 720 757
g Group17741
f 277 242 240 278
g Group32941
f 762 761 760 759
g Group32944
f 280 279 759 760
f 281 282 761 762
g Group17741
f 281 279 280 282
g Group32941
f 762 759 764 763
g Group32944
f 284 281 762 763
f 279 283 764 759
g Group17741
f 281 284 283 279
g Group32941
f 764 766 765 763
g Group32944
f 291 284 763 765
f 283 292 766 764
g Group17741
f 283 284 291 292
g Group32941
f 770 769 768 767
g Group32944
f 288 287 770 767
f 285 286 768 769
g Group17741
f 287 288 286 285
g Group32941
f 770 772 771 769
g Group32944
f 289 285 769 771
f 287 290 772 770
g Group17741
f 287 285 289 290
g Group32941
f 771 772 765 766
g Group32944
f 292 289 771 766
f 290 291 765 772
g Group17741
f 289 292 291 290
g Group32941
f 776 775 774 773
g Group32944
f 294 293 773 774
f 295 296 775 776
g Group17741
f 295 293 294 296
g Group32941
f 776 773 778 777
g Group32944
f 298 295 776 777
f 293 297 778 773
g Group17741
f 295 298 297 293
g Group32941
f 778 780 779 777
g Group32944
f 305 298 777 779
f 297 306 780 778
g Group17741
f 297 298 305 306
g Group32941
f 784 783 782 781
g Group32944
f 302 301 784 781
f 299 300 782 783
g Group17741
f 301 302 300 299
g Group32941
f 784 786 785 783
g Group32944
f 303 299 783 785
f 301 304 786 784
g Group17741
f 301 299 303 304
g Group32941
f 785 786 779 780
g Group32944
f 306 303 785 780
f 304 305 779 786
g Group17741
f 303 306 305 304
g Group32941
f 790 789 788 787
g Group32944
f 311 308 787 788
f 307 312 789 790
g Group17741
f 307 308 311 312
g Group32941
f 792 791 788 789
g Group32944
f 312 309 792 789
f 310 311 788 791
g Group17741
f 309 312 311 310
g Group32941
f 774 775 790 787
g Group32944
f 308 294 774 787
f 296 307 790 775
g Group17741
f 294 308 307 296
g Group32941
f 767 768 791 792
g Group32944
f 309 288 767 792
f 286 310 791 768
g Group17741
f 288 309 310 286
g Group32941
f 796 795 794 793
g Group32944
f 316 313 796 793
f 314 315 794 795
g Group17741
f 313 316 315 314
g Group32941
f 795 796 781 782
g Group32944
f 300 314 795 782
f 313 302 781 796
g Group17741
f 314 300 302 313
g Group32941
f 798 797 760 761
g Group32944
f 282 317 798 761
f 318 280 760 797
g Group17741
f 317 282 280 318
g Group32941
f 802 801 800 799
g Group32944
f 320 319 799 800
f 321 322 801 802
g Group17741
f 321 319 320 322
g Group32941
f 802 799 804 803
g Group32944
f 324 321 802 803
f 319 323 804 799
g Group17741
f 321 324 323 319
g Group32941
f 804 806 805 803
g Group32944
f 331 324 803 805
f 323 332 806 804
g Group17741
f 323 324 331 332
g Group32941
f 810 809 808 807
g Group32944
f 328 327 810 807
f 325 326 808 809
g Group17741
f 327 328 326 325
g Group32941
f 810 812 811 809
g Group32944
f 329 325 809 811
f 327 330 812 810
g Group17741
f 327 325 329 330
g Group32941
f 811 812 805 806
g Group32944
f 332 329 811 806
f 330 331 805 812
g Group17741
f 329 332 331 330
g Group32941
f 816 815 814 813
g Group32944
f 334 333 813 814
f 335 336 815 816
g Group17741
f 335 333 334 336
g Group32941
f 816 813 818 817
g Group32944
f 338 335 816 817
f 333 337 818 813
g Group17741
f 335 338 337 333
g Group32941
f 818 820 819 817
g Group32944
f 345 338 817 819
f 337 346 820 818
g Group17741
f 337 338 345 346
g Group32941
f 824 823 822 821
g Group32944
f 342 341 824 821
f 339 340 822 823
g Group17741
f 341 342 340 339
g Group32941
f 824 826 825 823
g Group32944
f 343 339 823 825
f 341 344 826 824
g Group17741
f 341 339 343 344
g Group32941
f 825 826 819 820
g Group32944
f 346 343 825 820
f 344 345 819 826
g Group17741
f 343 346 345 344
g Group32941
f 830 829 828 827
g Group32944
f 351 348 827 828
f 347 352 829 830
g Group17741
f 347 348 351 352
g Group32941
f 832 831 828 829
g Group32944
f 352 349 832 829
f 350 351 828 831
g Group17741
f 349 352 351 350
g Group32941
f 814 815 830 827
g Group32944
f 348 334 814 827
f 336 347 830 815
g Group17741
f 334 348 347 336
g Group32941
f 807 808 831 832
g Group32944
f 349 328 807 832
f 326 350 831 808
g Group17741
f 328 349 350 326
g Group32941
f 836 835 834 833
g Group32944
f 356 353 836 833
f 354 355 834 835
g Group17741
f 353 356 355 354
g Group32941
f 835 836 821 822
g Group32944
f 340 354 835 822
f 353 342 821 836
g Group17741
f 354 340 342 353
g Group32941
f 838 837 800 801
g Group32944
f 322 357 838 801
f 358 320 800 837
g Group17741
f 357 322 320 358
g Group32941
f 757 758 793 794
g Group32944
f 315 278 757 794
f 277 316 793 758
g Group17741
f 278 315 316 277
g Group32941
f 837 838 753 754
g Group32944
f 275 358 837 754
f 357 276 753 838
g Group17741
f 358 275 276 357
g Group32941
f 842 841 840 839
g Group32944
f 360 359 839 840
f 361 362 841 842
g Group17741
f 361 359 360 362
g Group32941
f 842 839 844 843
g Group32944
f 364 361 842 843
f 359 363 844 839
g Group17741
f 361 364 363 359
g Group32941
f 844 846 845 843
g Group32944
f 371 364 843 845
f 363 372 846 844
g Group17741
f 363 364 371 372
g Group32941
f 850 849 848 847
g Group32944
f 368 367 850 847
f 365 366 848 849
g Group17741
f 367 368 366 365
g Group32941
f 850 852 851 849
g Group32944
f 369 365 849 851
f 367 370 852 850
g Group17741
f 367 365 369 370
g Group32941
f 851 852 845 846
g Group32944
f 372 369 851 846
f 370 371 845 852
g Group17741
f 369 372 371 370
g Group32941
f 856 855 854 853
g Group32944
f 374 373 853 854
f 375 376 855 856
g Group17741
f 375 373 374 376
g Group32941
f 856 853 858 857
g Group32944
f 378 375 856 857
f 373 377 858 853
g Group17741
f 375 378 377 373
g Group32941
f 858 860 859 857
g Group32944
f 385 378 857 859
f 377 386 860 858
g Group17741
f 377 378 385 386
g Group32941
f 864 863 862 861
g Group32944
f 382 381 864 861
f 379 380 862 863
g Group17741
f 381 382 380 379
g Group32941
f 864 866 865 863
g Group32944
f 383 379 863 865
f 381 384 866 864
g Group17741
f 381 379 383 384
g Group32941
f 865 866 859 860
g Group32944
f 386 383 865 860
f 384 385 859 866
g Group17741
f 383 386 385 384
g Group32941
f 870 869 868 867
g Group32944
f 391 388 867 868
f 387 392 869 870
g Group17741
f 387 388 391 392
g Group32941
f 872 871 868 869
g Group32944
f 392 389 872 869
f 390 391 868 871
g Group17741
f 389 392 391 390
g Group32941
f 854 855 870 867
g Group32944
f 388 374 854 867
f 376 387 870 855
g Group17741
f 374 388 387 376
g Group32941
f 847 848 871 872
g Group32944
f 389 368 847 872
f 366 390 871 848
g Group17741
f 368 389 390 366
g Group32941
f 876 875 874 873
g Group32944
f 396 393 876 873
f 394 395 874 875
g Group17741
f 393 396 395 394
g Group32941
f 875 876 861 862
g Group32944
f 380 394 875 862
f 393 382 861 876
g Group17741
f 394 380 382 393
g Group32941
f 878 877 840 841
g Group32944
f 362 397 878 841
f 398 360 840 877
g Group17741
f 397 362 360 398
g Group32941
f 882 881 880 879
g Group32944
f 400 399 879 880
f 401 402 881 882
g Group17741
f 401 399 400 402
g Group32941
f 882 879 884 883
g Group32944
f 404 401 882 883
f 399 403 884 879
g Group17741
f 401 404 403 399
g Group32941
f 884 886 885 883
g Group32944
f 411 404 883 885
f 403 412 886 884
g Group17741
f 403 404 411 412
g Group32941
f 890 889 888 887
g Group32944
f 408 407 890 887
f 405 406 888 889
g Group17741
f 407 408 406 405
g Group32941
f 890 892 891 889
g Group32944
f 409 405 889 891
f 407 410 892 890
g Group17741
f 407 405 409 410
g Group32941
f 891 892 885 886
g Group32944
f 412 409 891 886
f 410 411 885 892
g Group17741
f 409 412 411 410
g Group32941
f 896 895 894 893
g Group32944
f 414 413 893 894
f 415 416 895 896
g Group17741
f 415 413 414 416
g Group32941
f 896 893 898 897
g Group32944
f 418 415 896 897
f 413 417 898 893
g Group17741
f 415 418 417 413
g Group32941
f 898 900 899 897
g Group32944
f 425 418 897 899
f 417 426 900 898
g Group17741
f 417 418 425 426
g Group32941
f 904 903 902 901
g Group32944
f 422 421 904 901
f 419 420 902 903
g Group17741
f 421 422 420 419
g Group32941
f 904 906 905 903
g Group32944
f 423 419 903 905
f 421 424 906 904
g Group17741
f 421 419 423 424
g Group32941
f 905 906 899 900
g Group32944
f 426 423 905 900
f 424 425 899 906
g Group17741
f 423 426 425 424
g Group32941
f 910 909 908 907
g Group32944
f 431 428 907 908
f 427 432 909 910
g Group17741
f 427 428 431 432
g Group32941
f 912 911 908 909
g Group32944
f 432 429 912 909
f 430 431 908 911
g Group17741
f 429 432 431 430
g Group32941
f 894 895 910 907
g Group32944
f 428 414 894 907
f 416 427 910 895
g Group17741
f 414 428 427 416
g Group32941
f 887 888 911 912
g Group32944
f 429 408 887 912
f 406 430 911 888
g Group17741
f 408 429 430 406
g Group32941
f 916 915 914 913
g Group32944
f 436 433 916 913
f 434 435 914 915
g Group17741
f 433 436 435 434
g Group32941
f 915 916 901 902
g Group32944
f 420 434 915 902
f 433 422 901 916
g Group17741
f 434 420 422 433
g Group32941
f 920 919 918 917
g Group32944
f 439 438 917 918
f 437 440 919 920
g Group17741
f 437 438 439 440
g Group32941
f 920 917 880 881
g Group32944
f 402 437 920 881
f 438 400 880 917
g Group17741
f 437 402 400 438
g Group32941
f 924 923 922 921
g Group32944
f 442 441 921 922
f 443 444 923 924
g Group17741
f 443 441 442 444
g Group32941
f 924 921 926 925
g Group32944
f 446 443 924 925
f 441 445 926 921
g Group17741
f 443 446 445 441
g Group32941
f 926 928 927 925
g Group32944
f 453 446 925 927
f 445 454 928 926
g Group17741
f 445 446 453 454
g Group32941
f 932 931 930 929
g Group32944
f 450 449 932 929
f 447 448 930 931
g Group17741
f 449 450 448 447
g Group32941
f 932 934 933 931
g Group32944
f 451 447 931 933
f 449 452 934 932
g Group17741
f 449 447 451 452
g Group32941
f 933 934 927 928
g Group32944
f 454 451 933 928
f 452 453 927 934
g Group17741
f 451 454 453 452
g Group32941
f 938 937 936 935
g Group32944
f 456 455 935 936
f 457 458 937 938
g Group17741
f 457 455 456 458
g Group32941
f 938 935 940 939
g Group32944
f 460 457 938 939
f 455 459 940 935
g Group17741
f 457 460 459 455
g Group32941
f 940 942 941 939
g Group32944
f 467 460 939 941
f 459 468 942 940
g Group17741
f 459 460 467 468
g Group32941
f 946 945 944 943
g Group32944
f 464 463 946 943
f 461 462 944 945
g Group17741
f 463 464 462 461
g Group32941
f 946 948 947 945
g Group32944
f 465 461 945 947
f 463 466 948 946
g Group17741
f 463 461 465 466
g Group32941
f 947 948 941 942
g Group32944
f 468 465 947 942
f 466 467 941 948
g Group17741
f 465 468 467 466
g Group32941
f 952 951 950 949
g Group32944
f 473 470 949 950
f 469 474 951 952
g Group17741
f 469 470 473 474
g Group32941
f 954 953 950 951
g Group32944
f 474 471 954 951
f 472 473 950 953
g Group17741
f 471 474 473 472
g Group32941
f 936 937 952 949
g Group32944
f 470 456 936 949
f 458 469 952 937
g Group17741
f 456 470 469 458
g Group32941
f 929 930 953 954
g Group32944
f 471 450 929 954
f 448 472 953 930
g Group17741
f 450 471 472 448
g Group32941
f 958 957 956 955
g Group32944
f 478 475 958 955
f 476 477 956 957
g Group17741
f 475 478 477 476
g Group32941
f 957 958 943 944
g Group32944
f 462 476 957 944
f 475 464 943 958
g Group17741
f 476 462 464 475
g Group32941
f 960 959 922 923
g Group32944
f 444 479 960 923
f 480 442 922 959
g Group17741
f 479 444 442 480
g Group32941
f 877 878 913 914
g Group32944
f 435 398 877 914
f 397 436 913 878
g Group17741
f 398 435 436 397
g Group32941
f 959 960 873 874
g Group32944
f 395 480 959 874
f 479 396 873 960
g Group17741
f 480 395 396 479
g Group32941
f 797 798 955 956
g Group32944
f 477 318 797 956
f 317 478 955 798
g Group17741
f 318 477 478 317
g Group32941
f 596 595 833 834
g Group32944
f 355 116 596 834
f 115 356 833 595
g Group17741
f 116 355 356 115
g Group32941
f 678 677 918 919
g Group32944
f 440 197 678 919
f 198 439 918 677
g Group17741
f 197 440 439 198

 