# File exported by ZBrush version 2021
# www.zbrush.com
#Vertex Count 256
#Face Count 256
#Auto scale x=1.000000 y=1.000000 z=1.000000
#Auto offset x=0.000000 y=0.000000 z=0.000000
v -0.11395946 2.34296536 0.263976
v -0.23238447 2.15330243 0.263976
v -0.72444045 2.35593557 0.263976
v -0.54814648 2.54149746 0.26499798
v -0.77923345 2.58706235 0.26499798
v -0.84396445 2.38508343 0.263976
v -1.58270144 1.73349344 0.2642
v -1.36478447 1.68340146 0.2642
v -1.16076242 2.17488551 0.2642
v -1.41664242 2.18110752 0.26522198
v -1.28571045 2.37690258 0.26522198
v -1.09699249 2.28009557 0.2642
v -0.98059749 2.35697436 0.26408898
v -1.05791151 2.54328751 0.26510998
v -1.74138152 1.57461345 0.263976
v -1.6910355 1.35675549 0.263976
v -2.18228054 1.15216553 0.263976
v -2.18880152 1.40803647 0.26499798
v -2.38444042 1.27687752 0.26499798
v -2.2874155 1.08827042 0.263976
v -2.34916138 0.10517147 0.2642
v -2.15963649 0.22381848 0.2642
v -2.12158751 -0.00582552 0.26522198
v -2.32330441 -0.00599552 0.2642
v -2.36284136 0.71563947 0.2642
v -2.5481975 0.53912949 0.26522198
v -2.59403252 0.77016246 0.26522198
v -2.39212751 0.83512949 0.2642
v -2.36416935 0.9717915 0.26408898
v -2.55057144 1.04888844 0.26510998
v -1.50106549 1.49326443 0.265109
v -1.64378249 1.63581645 0.264088
v 2.34911561 0.10498047 0.263976
v 2.15960145 0.22364248 0.263976
v 2.12153244 -0.00599752 0.26499798
v 2.32324862 -0.00583452 0.263976
v 2.36284661 0.7154445 0.263976
v 2.54818749 0.53891944 0.26499798
v 2.59404158 0.76995044 0.26499798
v 2.39214062 0.83493346 0.263976
v 1.74147355 1.57447946 0.2642
v 1.69111049 1.35662543 0.2642
v 2.18234062 1.15199244 0.2642
v 2.18888044 1.40786445 0.26522198
v 2.38451147 1.27668845 0.26522198
v 2.28746843 1.08809042 0.2642
v 2.36420345 0.97160047 0.26408898
v 2.55061149 1.04868245 0.26510998
v 1.58279049 1.7333585 0.263976
v 1.36487054 1.68328344 0.263976
v 1.16089057 2.17478442 0.263976
v 1.4167695 2.1809864 0.26499798
v 1.28585553 2.37678957 0.26499798
v 1.09712851 2.27999854 0.263976
v 0.11410553 2.34296846 0.2642
v 0.23251652 2.15329456 0.2642
v 0.72459054 2.35588741 0.2642
v 0.54831153 2.54146337 0.26522198
v 0.77940255 2.58700943 0.26522198
v 0.84411752 2.38502454 0.2642
v 0.98074454 2.35689759 0.26408898
v 1.05807352 2.54320144 0.26510998
v 1.5011425 1.49314343 0.265109
v 1.64387154 1.63568341 0.264088
v -0.00010247 2.31724453 0.264088
v 0.00006453 2.11552953 0.265109
v -0.11395946 -2.3429656 0.263976
v -0.23238447 -2.15330243 0.263976
v -0.72444045 -2.35593843 0.263976
v -0.54814648 -2.54149556 0.26499798
v -0.77923345 -2.5870614 0.26499798
v -0.84396445 -2.38508153 0.263976
v -1.58270144 -1.73349356 0.2642
v -1.36478447 -1.68340349 0.2642
v -1.16076242 -2.17488551 0.2642
v -1.41664242 -2.18110752 0.26522198
v -1.28571045 -2.37690043 0.26522198
v -1.09699249 -2.28009557 0.2642
v -0.98059749 -2.35697555 0.26408898
v -1.05791151 -2.5432856 0.26510998
v -1.74138152 -1.57461357 0.263976
v -1.6910355 -1.35675656 0.263976
v -2.18228054 -1.15216553 0.263976
v -2.18880152 -1.40803754 0.26499798
v -2.38444042 -1.27687847 0.26499798
v -2.2874155 -1.08827054 0.263976
v -2.34916138 -0.10517252 0.2642
v -2.15963649 -0.22381952 0.2642
v -2.36284136 -0.71563953 0.2642
v -2.5481975 -0.5391305 0.26522198
v -2.59403252 -0.77016454 0.26522198
v -2.39212751 -0.83512949 0.2642
v -2.36416935 -0.97179454 0.26408898
v -2.55057144 -1.04888951 0.26510998
v -1.50106549 -1.49326551 0.265109
v -1.64378249 -1.63581955 0.264088
v 2.34911561 -0.10498152 0.263976
v 2.15960145 -0.22364352 0.263976
v 2.36284661 -0.71544551 0.263976
v 2.54818749 -0.53892052 0.26499798
v 2.59404158 -0.76995152 0.26499798
v 2.39214062 -0.83493351 0.263976
v 1.74147355 -1.5744785 0.2642
v 1.69111049 -1.35662651 0.2642
v 2.18234062 -1.15199649 0.2642
v 2.18888044 -1.40786552 0.26522198
v 2.38451147 -1.27668952 0.26522198
v 2.28746843 -1.08809053 0.2642
v 2.36420345 -0.97160154 0.26408898
v 2.55061149 -1.04868352 0.26510998
v 1.58279049 -1.73335754 0.263976
v 1.36487054 -1.68328547 0.263976
v 1.16089057 -2.17478561 0.263976
v 1.4167695 -2.1809864 0.26499798
v 1.28585553 -2.37678861 0.26499798
v 1.09712851 -2.27999758 0.263976
v 0.11410553 -2.34296941 0.2642
v 0.23251652 -2.15329456 0.2642
v 0.72459054 -2.35588741 0.2642
v 0.54831153 -2.54146242 0.26522198
v 0.77940255 -2.58701062 0.26522198
v 0.84411752 -2.38502454 0.2642
v 0.98074454 -2.35689759 0.26408898
v 1.05807352 -2.54320144 0.26510998
v 1.5011425 -1.49314451 0.265109
v 1.64387154 -1.63568353 0.264088
v -0.00010247 -2.31724548 0.264088
v 0.00006453 -2.11552953 0.265109
v 0.00038953 2.11377358 -0.26408502
v -0.23158846 2.15308451 -0.26522198
v -0.11316247 2.34274745 -0.26522198
v 0.00022253 2.31548857 -0.26510599
v -0.84408444 2.38769435 -0.26521399
v -0.77935349 2.58967351 -0.26419201
v -0.54786849 2.54343748 -0.26419499
v -0.72416245 2.35787558 -0.26521602
v -0.98189348 2.35940337 -0.26510098
v -1.05920743 2.54571652 -0.264079
v -1.58295142 1.73307144 -0.26499798
v -1.36503446 1.68297946 -0.26499798
v -1.49958944 1.49225246 -0.26408502
v -1.64230644 1.63480448 -0.26510599
v -1.41821241 2.18228054 -0.263971
v -1.28768241 2.37863636 -0.26396802
v -1.09896349 2.28182959 -0.26498898
v -1.16233241 2.17605948 -0.26499202
v -1.69031143 1.35716748 -0.26522198
v -1.74065744 1.57502543 -0.26522198
v -2.28934645 1.09003245 -0.26521399
v -2.38637137 1.27863943 -0.26419201
v -2.18997645 1.40960443 -0.26419499
v -2.18345642 1.15373349 -0.26521602
v -2.36680436 0.97259348 -0.26510098
v -2.55320549 1.04969048 -0.264079
v -2.34898757 0.10452747 -0.26499798
v -2.1594634 0.22317448 -0.26499798
v -2.11981248 -0.00578152 -0.26397302
v -2.32152843 -0.00595152 -0.26499399
v -2.55013752 0.53884947 -0.263971
v -2.5966525 0.76999545 -0.26396802
v -2.39474844 0.83496147 -0.26498898
v -2.36478138 0.71535944 -0.26499202
v 2.11975646 -0.00595352 -0.26419702
v 2.15942859 0.22299847 -0.26522198
v 2.34894251 0.10433547 -0.26522198
v 2.32147264 -0.00579052 -0.26521799
v 2.3947525 0.83504945 -0.26521399
v 2.5966525 0.7700665 -0.26419201
v 2.5501275 0.53863948 -0.26419499
v 2.36478662 0.71516448 -0.26521602
v 2.3666346 0.97289347 -0.26510098
v 2.55304241 1.04997551 -0.264079
v 1.74105048 1.57473051 -0.26499798
v 1.69068753 1.35687649 -0.26499798
v 1.5001285 1.49166846 -0.26408502
v 1.64285755 1.63420844 -0.26510599
v 2.19005656 1.40943253 -0.263971
v 2.38624763 1.27865743 -0.26396802
v 2.28920555 1.09006047 -0.26498898
v 2.18351554 1.15356051 -0.26499202
v 1.36528158 1.68255949 -0.26522198
v 1.58320248 1.73263347 -0.26522198
v 1.09889257 2.28192639 -0.26521399
v 1.28761947 2.37871837 -0.26419201
v 1.41833949 2.18215942 -0.26419499
v 1.16246056 2.17595839 -0.26521602
v 0.98155051 2.3595314 -0.26510098
v 1.05887854 2.54583454 -0.264079
v 0.11363452 2.34284758 -0.26499798
v 0.23204553 2.1531744 -0.26499798
v 0.54803454 2.54340338 -0.263971
v 0.77923852 2.58963036 -0.26396802
v 0.84395253 2.38764452 -0.26498898
v 0.72431254 2.35782742 -0.26499202
v -0.11316247 -2.34274745 -0.26522198
v -0.23158846 -2.15308451 -0.26522198
v 0.00038953 -2.11377453 -0.26408502
v 0.00022253 -2.31549048 -0.26510599
v -0.54786849 -2.54343557 -0.26419499
v -0.77935349 -2.58967351 -0.26419201
v -0.84408444 -2.38769245 -0.26521399
v -0.72416245 -2.35787844 -0.26521602
v -1.05920743 -2.54571557 -0.264079
v -0.98189348 -2.35940551 -0.26510098
v -1.49958944 -1.49225449 -0.26408502
v -1.36503446 -1.68298149 -0.26499798
v -1.58295142 -1.73307049 -0.26499798
v -1.64230644 -1.63480746 -0.26510599
v -1.09896349 -2.28182959 -0.26498898
v -1.28768241 -2.37863445 -0.26396802
v -1.41821241 -2.18228054 -0.263971
v -1.16233241 -2.17605948 -0.26499202
v -1.74065744 -1.57502555 -0.26522198
v -1.69031143 -1.35716855 -0.26522198
v -2.18997645 -1.4096055 -0.26419499
v -2.38637137 -1.27864158 -0.26419201
v -2.28934645 -1.09003257 -0.26521399
v -2.18345642 -1.15373349 -0.26521602
v -2.55320549 -1.04969155 -0.264079
v -2.36680436 -0.97259652 -0.26510098
v -2.39474844 -0.83496254 -0.26498898
v -2.5966525 -0.76999652 -0.26396802
v -2.55013752 -0.53885054 -0.263971
v -2.36478138 -0.7153595 -0.26499202
v -2.34897542 -0.10448452 -0.26499798
v -2.15945053 -0.22313152 -0.26499798
v 2.5501275 -0.53864049 -0.26419499
v 2.5966525 -0.77006751 -0.26419201
v 2.3947525 -0.83504951 -0.26521399
v 2.36478662 -0.71516549 -0.26521602
v 2.55304241 -1.04997646 -0.264079
v 2.3666346 -0.97289454 -0.26510098
v 2.34892845 -0.10429352 -0.26522198
v 2.15941453 -0.22295452 -0.26522198
v 1.5001285 -1.49166953 -0.26408502
v 1.69068753 -1.35687756 -0.26499798
v 1.74105048 -1.57472956 -0.26499798
v 1.64285755 -1.63420856 -0.26510599
v 2.28920555 -1.09005951 -0.26498898
v 2.38624763 -1.2786585 -0.26396802
v 2.19005656 -1.40943348 -0.263971
v 2.18351554 -1.15356457 -0.26499202
v 1.58320248 -1.73263251 -0.26522198
v 1.36528158 -1.68256151 -0.26522198
v 1.41833949 -2.18216061 -0.26419499
v 1.28761947 -2.37871742 -0.26419201
v 1.09889257 -2.28192663 -0.26521399
v 1.16246056 -2.17595863 -0.26521697
v 1.05887854 -2.54583549 -0.264079
v 0.98155051 -2.35953164 -0.26510098
v 0.23204553 -2.15317463 -0.26499798
v 0.11363452 -2.34284853 -0.26499798
v 0.84395253 -2.38764452 -0.26498898
v 0.77923852 -2.58963155 -0.26396802
v 0.54803454 -2.54340243 -0.263971
v 0.72431254 -2.35782861 -0.26499202
g Group32941
f 132 131 130 129
g Group32944
f 2 66 129 130
f 65 1 131 132
g Group43469
f 65 66 2 1
g Group32941
f 136 135 134 133
g Group32944
f 6 3 136 133
f 4 5 134 135
g Group43469
f 3 6 5 4
g Group32941
f 133 134 138 137
g Group32944
f 13 6 133 137
f 5 14 138 134
g Group43469
f 6 13 14 5
g Group32941
f 130 131 135 136
g Group32944
f 3 2 130 136
f 1 4 135 131
g Group43469
f 2 3 4 1
g Group32941
f 142 141 140 139
g Group32944
f 7 32 142 139
f 31 8 140 141
g Group43469
f 32 7 8 31
g Group32941
f 146 145 144 143
g Group32944
f 11 10 143 144
f 9 12 145 146
g Group43469
f 9 10 11 12
g Group32941
f 145 137 138 144
g Group32944
f 14 11 144 138
f 12 13 137 145
g Group43469
f 12 11 14 13
g Group32941
f 140 146 143 139
g Group32944
f 10 7 139 143
f 8 9 146 140
g Group43469
f 8 7 10 9
g Group32941
f 142 148 147 141
g Group32944
f 16 31 141 147
f 32 15 148 142
g Group43469
f 32 31 16 15
g Group32941
f 152 151 150 149
g Group32944
f 20 17 152 149
f 18 19 150 151
g Group43469
f 17 20 19 18
g Group32941
f 149 150 154 153
g Group32944
f 29 20 149 153
f 19 30 154 150
g Group43469
f 20 29 30 19
g Group32941
f 147 148 151 152
g Group32944
f 17 16 147 152
f 15 18 151 148
g Group43469
f 16 17 18 15
g Group32941
f 158 157 156 155
g Group32944
f 21 24 158 155
f 23 22 156 157
g Group43469
f 24 21 22 23
g Group32941
f 162 161 160 159
g Group32944
f 27 26 159 160
f 25 28 161 162
g Group43469
f 25 26 27 28
g Group32941
f 161 153 154 160
g Group32944
f 30 27 160 154
f 28 29 153 161
g Group43469
f 28 27 30 29
g Group32941
f 156 162 159 155
g Group32944
f 26 21 155 159
f 22 25 162 156
g Group43469
f 22 21 26 25
g Group32941
f 166 165 164 163
g Group32944
f 34 35 163 164
f 36 33 165 166
g Group43469
f 36 35 34 33
g Group32941
f 170 169 168 167
g Group32944
f 40 37 170 167
f 38 39 168 169
g Group43469
f 37 40 39 38
g Group32941
f 167 168 172 171
g Group32944
f 47 40 167 171
f 39 48 172 168
g Group43469
f 40 47 48 39
g Group32941
f 164 165 169 170
g Group32944
f 37 34 164 170
f 33 38 169 165
g Group43469
f 34 37 38 33
g Group32941
f 176 175 174 173
g Group32944
f 41 64 176 173
f 63 42 174 175
g Group43469
f 64 41 42 63
g Group32941
f 180 179 178 177
g Group32944
f 45 44 177 178
f 43 46 179 180
g Group43469
f 43 44 45 46
g Group32941
f 179 171 172 178
g Group32944
f 48 45 178 172
f 46 47 171 179
g Group43469
f 46 45 48 47
g Group32941
f 174 180 177 173
g Group32944
f 44 41 173 177
f 42 43 180 174
g Group43469
f 42 41 44 43
g Group32941
f 176 182 181 175
g Group32944
f 50 63 175 181
f 64 49 182 176
g Group43469
f 64 63 50 49
g Group32941
f 186 185 184 183
g Group32944
f 54 51 186 183
f 52 53 184 185
g Group43469
f 51 54 53 52
g Group32941
f 183 184 188 187
g Group32944
f 61 54 183 187
f 53 62 188 184
g Group43469
f 54 61 62 53
g Group32941
f 181 182 185 186
g Group32944
f 51 50 181 186
f 49 52 185 182
g Group43469
f 50 51 52 49
g Group32941
f 132 129 190 189
g Group32944
f 55 65 132 189
f 66 56 190 129
g Group43469
f 65 55 56 66
g Group32941
f 194 193 192 191
g Group32944
f 59 58 191 192
f 57 60 193 194
g Group43469
f 57 58 59 60
g Group32941
f 193 187 188 192
g Group32944
f 62 59 192 188
f 60 61 187 193
g Group43469
f 60 59 62 61
g Group32941
f 190 194 191 189
g Group32944
f 58 55 189 191
f 56 57 194 190
g Group43469
f 56 55 58 57
g Group32941
f 198 197 196 195
g Group32944
f 67 127 198 195
f 128 68 196 197
g Group43469
f 127 67 68 128
g Group32941
f 202 201 200 199
g Group32944
f 71 70 199 200
f 69 72 201 202
g Group43469
f 69 70 71 72
g Group32941
f 201 204 203 200
g Group32944
f 80 71 200 203
f 72 79 204 201
g Group43469
f 72 71 80 79
g Group32941
f 196 202 199 195
g Group32944
f 70 67 195 199
f 68 69 202 196
g Group43469
f 68 67 70 69
g Group32941
f 208 207 206 205
g Group32944
f 74 95 205 206
f 96 73 207 208
g Group43469
f 96 95 74 73
g Group32941
f 212 211 210 209
g Group32944
f 78 75 212 209
f 76 77 210 211
g Group43469
f 75 78 77 76
g Group32941
f 209 210 203 204
g Group32944
f 79 78 209 204
f 77 80 203 210
g Group43469
f 78 79 80 77
g Group32941
f 206 207 211 212
g Group32944
f 75 74 206 212
f 73 76 211 207
g Group43469
f 74 75 76 73
g Group32941
f 208 205 214 213
g Group32944
f 81 96 208 213
f 95 82 214 205
g Group43469
f 96 81 82 95
g Group32941
f 218 217 216 215
g Group32944
f 85 84 215 216
f 83 86 217 218
g Group43469
f 83 84 85 86
g Group32941
f 217 220 219 216
g Group32944
f 94 85 216 219
f 86 93 220 217
g Group43469
f 86 85 94 93
g Group32941
f 214 218 215 213
g Group32944
f 84 81 213 215
f 82 83 218 214
g Group43469
f 82 81 84 83
g Group32941
f 224 223 222 221
g Group32944
f 92 89 224 221
f 90 91 222 223
g Group43469
f 89 92 91 90
g Group32941
f 221 222 219 220
g Group32944
f 93 92 221 220
f 91 94 219 222
g Group43469
f 92 93 94 91
g Group32941
f 226 225 223 224
g Group32944
f 89 88 226 224
f 87 90 223 225
g Group43469
f 88 89 90 87
g Group32941
f 230 229 228 227
g Group32944
f 101 100 227 228
f 99 102 229 230
g Group43469
f 99 100 101 102
g Group32941
f 229 232 231 228
g Group32944
f 110 101 228 231
f 102 109 232 229
g Group43469
f 102 101 110 109
g Group32941
f 234 230 227 233
g Group32944
f 100 97 233 227
f 98 99 230 234
g Group43469
f 98 97 100 99
g Group32941
f 238 237 236 235
g Group32944
f 104 125 235 236
f 126 103 237 238
g Group43469
f 126 125 104 103
g Group32941
f 242 241 240 239
g Group32944
f 108 105 242 239
f 106 107 240 241
g Group43469
f 105 108 107 106
g Group32941
f 239 240 231 232
g Group32944
f 109 108 239 232
f 107 110 231 240
g Group43469
f 108 109 110 107
g Group32941
f 236 237 241 242
g Group32944
f 105 104 236 242
f 103 106 241 237
g Group43469
f 104 105 106 103
g Group32941
f 238 235 244 243
g Group32944
f 111 126 238 243
f 125 112 244 235
g Group43469
f 126 111 112 125
g Group32941
f 248 247 246 245
g Group32944
f 115 114 245 246
f 113 116 247 248
g Group43469
f 113 114 115 116
g Group32941
f 247 250 249 246
g Group32944
f 124 115 246 249
f 116 123 250 247
g Group43469
f 116 115 124 123
g Group32941
f 244 248 245 243
g Group32944
f 114 111 243 245
f 112 113 248 244
g Group43469
f 112 111 114 113
g Group32941
f 198 252 251 197
g Group32944
f 118 128 197 251
f 127 117 252 198
g Group43469
f 127 128 118 117
g Group32941
f 256 255 254 253
g Group32944
f 122 119 256 253
f 120 121 254 255
g Group43469
f 119 122 121 120
g Group32941
f 253 254 249 250
g Group32944
f 123 122 253 250
f 121 124 249 254
g Group43469
f 122 123 124 121
g Group32941
f 251 252 255 256
g Group32944
f 119 118 251 256
f 117 120 255 252
g Group43469
f 118 119 120 117
g Group32941
f 234 233 166 163
g Group32944
f 35 98 234 163
f 97 36 166 233
g Group43469
f 98 35 36 97
g Group32941
f 225 226 157 158
g Group32944
f 24 87 225 158
f 88 23 157 226
g Group43469
f 87 24 23 88

 