# File exported by ZBrush version 2021
# www.zbrush.com
#Vertex Count 640
#Face Count 576
#Auto scale x=1.000000 y=1.000000 z=1.000000
#Auto offset x=0.000000 y=0.000000 z=0.000000
v 0.0571655 3.21052455 0.089358
v 0.0569645 0.78141343 0.08156
v -0.05771549 3.21052455 0.089358
v -0.05751449 0.78141343 0.08156
v 0.0571655 -0.78196358 0.089358
v 0.0569645 -3.21107339 0.08156
v -0.05771549 -0.78196358 0.089358
v -0.05751449 -3.21107339 0.08156
v 3.2105236 -0.05771657 0.089358
v 0.78141349 -0.05751457 0.08156
v 3.21052455 0.05716544 0.089358
v 0.78141349 0.05696442 0.08156
v -0.78196346 -0.05771556 0.089358
v -3.21107339 -0.05751356 0.08156
v -0.78196346 0.05716642 0.089358
v -3.21107339 0.05696442 0.08156
v 2.31071949 2.22948551 0.089358
v 0.59293651 0.5119884 0.08156
v 2.22948646 2.31071949 0.089358
v 0.5119875 0.59293639 0.08156
v -0.5123955 -0.59362858 0.089358
v -2.23017835 -2.31112575 0.08156
v -0.59362947 -0.51239556 0.089358
v -2.3111267 -2.2301774 0.08156
v 2.22948551 -2.31126976 0.089358
v 0.5119875 -0.59348654 0.08156
v 2.31071949 -2.23003673 0.089358
v 0.59293651 -0.51253759 0.08156
v -0.59362846 0.51184541 0.089358
v -2.31112527 2.22962856 0.08156
v -0.5123955 0.59307944 0.089358
v -2.2301774 2.31057643 0.08156
v 2.94413471 -1.2820636 0.089358
v 0.70000648 -0.35229659 0.08156
v 2.98809862 -1.17592656 0.089358
v 0.74381548 -0.24653154 0.08156
v -0.74444246 0.24579642 0.089358
v -2.98856926 1.17556238 0.08156
v -0.7004795 0.35193243 0.089358
v -2.94476032 1.28132641 0.08156
v 2.98809766 1.17537546 0.089358
v 0.74381548 0.24598242 0.08156
v 2.94413471 1.28151249 0.089358
v 0.70000648 0.35174644 0.08156
v -0.7004795 -0.35248255 0.089358
v -2.94476127 -1.28187561 0.08156
v -0.74444246 -0.24634558 0.089358
v -2.98856926 -1.17611157 0.08156
v 1.28151249 2.94413423 0.089358
v 0.3517465 0.70000642 0.08156
v 1.17537546 2.98809766 0.089358
v 0.24598151 0.74381542 0.08156
v -0.24634549 -0.74444258 0.089358
v -1.17611253 -2.98856973 0.08156
v -0.35248249 -0.70047855 0.089358
v -1.28187644 -2.94476079 0.08156
v -1.17592549 2.98809766 0.089358
v -0.2465325 0.74381542 0.08156
v -1.28206253 2.94413423 0.089358
v -0.3522965 0.70000642 0.08156
v 0.35193249 -0.70047855 0.089358
v 1.28132653 -2.94476079 0.08156
v 0.2457955 -0.74444258 0.089358
v 1.17556154 -2.98856973 0.08156
v -0.09733949 0.77747243 0.08156
v -0.20959749 0.75503742 0.08156
v 0.2092455 -0.75554859 0.089358
v 0.09659151 -0.77806162 0.089358
v 0.09678851 0.77747243 0.08156
v 0.20904651 0.75503742 0.08156
v -0.20979648 -0.75554859 0.089358
v -0.09714249 -0.77806162 0.089358
v 0.38703149 0.6811254 0.08156
v 0.48215851 0.61743843 0.08156
v -0.4828785 -0.61787557 0.089358
v -0.38741448 -0.68178653 0.089358
v 0.61830949 0.48104143 0.08156
v 0.6818245 0.38579842 0.08156
v -0.68248748 -0.38617956 0.089358
v -0.61874848 -0.48175758 0.089358
v 0.75541448 0.20768143 0.08156
v 0.77764648 0.09538242 0.08156
v -0.7782365 -0.09573257 0.089358
v -0.75592547 -0.20842754 0.089358
v 0.77747249 -0.09733855 0.08156
v 0.75503748 -0.20959657 0.08156
v -0.75554847 0.20924642 0.089358
v -0.7780615 0.09659242 0.089358
v 0.68112552 -0.38758057 0.08156
v 0.61743849 -0.48270857 0.08156
v -0.61787647 0.48232841 0.089358
v -0.68178647 0.38686543 0.089358
v 0.48104152 -0.61885958 0.08156
v 0.38579851 -0.68237459 0.08156
v -0.3861795 0.68193841 0.089358
v -0.48175749 0.61819839 0.089358
v -0.19251048 1.25388145 0.08312
v -0.30484747 1.23143041 0.08312
v -0.28768149 1.73029041 0.084679
v -0.40009748 1.70782339 0.084679
v -0.38285148 2.20669937 0.086239
v -0.4953475 2.18421649 0.086239
v -0.47802248 2.68310833 0.08779799
v -0.59059751 2.66061019 0.08779799
v 0.30429649 1.23143041 0.08312
v 0.1919595 1.25388145 0.08312
v 0.3995465 1.70782339 0.084679
v 0.2871305 1.73029041 0.084679
v 0.49479651 2.18421745 0.086239
v 0.38230049 2.20669937 0.086239
v 0.59004652 2.66061019 0.08779799
v 0.4774715 2.68310833 0.08779799
v 0.75246548 1.02111744 0.08312
v 0.6572715 1.08484935 0.08312
v 1.02277255 1.42479646 0.084679
v 0.92751151 1.48857343 0.084679
v 1.29308044 1.82847642 0.086239
v 1.19775247 1.89229846 0.086239
v 1.56338751 2.23215532 0.08779799
v 1.46799254 2.29602241 0.08779799
v 1.08603751 0.65530741 0.08312
v 1.0224775 0.75061744 0.08312
v 1.49025046 0.92481643 0.084679
v 1.42664551 1.02019345 0.084679
v 1.89446353 1.19432544 0.086239
v 1.83081352 1.28976941 0.086239
v 2.29867649 1.4638344 0.08779799
v 2.23498153 1.55934548 0.08779799
v 1.25422656 0.18969042 0.08312
v 1.23197948 0.30206841 0.08312
v 1.73080754 0.28399843 0.084679
v 1.70854449 0.39645543 0.084679
v 2.20738744 0.37830743 0.086239
v 2.18510961 0.49084341 0.086239
v 2.68396854 0.47261542 0.08779799
v 2.66167354 0.58523041 0.08779799
v 1.23143053 -0.30484658 0.08312
v 1.25388145 -0.19250959 0.08312
v 1.70782351 -0.40009659 0.084679
v 1.73029053 -0.28768056 0.084679
v 2.18421649 -0.49534755 0.086239
v 2.20669937 -0.38285058 0.086239
v 2.66060972 -0.59059757 0.08779799
v 2.68310833 -0.47802156 0.08779799
v 1.02111744 -0.75301551 0.08312
v 1.08484947 -0.65782058 0.08312
v 1.42479646 -1.02332353 0.084679
v 1.48857355 -0.9280616 0.084679
v 1.82847654 -1.2936306 0.086239
v 1.8922975 -1.19830155 0.086239
v 2.23215532 -1.56393861 0.08779799
v 2.29602146 -1.46854257 0.08779799
v 0.65530753 -1.08658754 0.08312
v 0.7506175 -1.02302753 0.08312
v 0.92481648 -1.49079954 0.084679
v 1.02019345 -1.42719554 0.084679
v 1.19432556 -1.89501249 0.086239
v 1.28976845 -1.83136355 0.086239
v 1.46383345 -2.2992258 0.08779799
v 1.55934453 -2.2355318 0.08779799
v 0.5899285 -2.66118478 0.08312
v 0.4775905 -2.68363571 0.08312
v 0.4947575 -2.18477535 0.084679
v 0.38234052 -2.20724153 0.084679
v 0.39958751 -1.70836651 0.086239
v 0.28709149 -1.73084867 0.086239
v 0.3044165 -1.23195755 0.08779799
v 0.19184151 -1.25445461 0.08779799
v -0.47814148 -2.68363571 0.08312
v -0.59047949 -2.66118478 0.08312
v -0.3828915 -2.20724153 0.084679
v -0.49530848 -2.18477535 0.084679
v -0.28764247 -1.73084867 0.086239
v -0.40013849 -1.70836651 0.086239
v -0.19239249 -1.25445461 0.08779799
v -0.30496749 -1.23195755 0.08779799
v -1.46864354 -2.29650449 0.08312
v -1.56383943 -2.23277235 0.08312
v -1.19833648 -1.89282548 0.084679
v -1.29359948 -1.82904851 0.084679
v -0.92802846 -1.48914551 0.086239
v -1.02335846 -1.4253236 0.086239
v -0.65772151 -1.08546662 0.08779799
v -0.75311851 -1.02159953 0.08779799
v -2.23559951 -1.55979454 0.08312
v -2.29915952 -1.46448361 0.08312
v -1.83138644 -1.29028558 0.084679
v -1.89499151 -1.19490754 0.084679
v -1.42717444 -1.02077555 0.086239
v -1.4908235 -0.92533159 0.086239
v -1.02296149 -0.75126659 0.08779799
v -1.08665549 -0.65575552 0.08779799
v -2.66224765 -0.58566159 0.08312
v -2.68449544 -0.47328257 0.08312
v -2.18566751 -0.49135255 0.084679
v -2.20793056 -0.37889456 0.084679
v -1.70908653 -0.39704459 0.086239
v -1.73136544 -0.28450757 0.086239
v -1.23250544 -0.30273556 0.08779799
v -1.25480151 -0.19011956 0.08779799
v -2.68363428 0.47759142 0.08312
v -2.66118335 0.58993041 0.08312
v -2.20724153 0.38234144 0.084679
v -2.18477439 0.49475944 0.084679
v -1.73084855 0.28709244 0.086239
v -1.70836544 0.39958843 0.086239
v -1.25445449 0.19184243 0.08779799
v -1.23195743 0.30441743 0.08779799
v -2.29650449 1.46809446 0.08312
v -2.23277235 1.5632894 0.08312
v -1.89282548 1.1977874 0.084679
v -1.82904851 1.29304945 0.084679
v -1.48914551 0.92747944 0.086239
v -1.42532444 1.02280843 0.086239
v -1.08546555 0.65717244 0.08779799
v -1.02160048 0.75256842 0.08779799
v -1.55979454 2.23504948 0.08312
v -1.4644835 2.29860925 0.08312
v -1.29028546 1.83083641 0.084679
v -1.19490754 1.89444148 0.084679
v -1.02077543 1.42662346 0.086239
v -0.92533147 1.49027442 0.086239
v -0.75126647 1.02241134 0.08779799
v -0.65575552 1.08610642 0.08779799
v 1.30488646 0.47833043 0.08350899
v 1.26103854 0.58418846 0.08350899
v 1.86595654 0.71067845 0.085459
v 1.82207047 0.81662941 0.085459
v 2.4270277 0.94302743 0.08740799
v 2.38310241 1.04907035 0.08740799
v 1.02238249 0.94136244 0.08350899
v 0.9413625 1.02238249 0.08350899
v 1.45182848 1.37073636 0.085459
v 1.37073755 1.4518274 0.085459
v 1.8812735 1.80011141 0.08740799
v 1.80011153 1.88127338 0.08740799
v 0.58418852 1.26103842 0.08350899
v 0.47833049 1.30488634 0.08350899
v 0.81662952 1.82207047 0.085459
v 0.71067851 1.86595642 0.085459
v 1.04907155 2.38310241 0.08740799
v 0.94302648 2.42702722 0.08740799
v 0.0570145 1.38869142 0.08350899
v -0.05756449 1.38869142 0.08350899
v 0.0570655 1.99596846 0.085459
v -0.05761449 1.99596846 0.085459
v 0.0571155 2.60324621 0.08740799
v -0.05766549 2.60324621 0.08740799
v -0.47888049 1.30488634 0.08350899
v -0.58473748 1.26103842 0.08350899
v -0.71122849 1.86595642 0.085459
v -0.8171795 1.82207047 0.085459
v -0.94357746 2.42702722 0.08740799
v -1.0496205 2.38310241 0.08740799
v -1.88175153 1.80018246 0.08350899
v -1.80073154 1.88120245 0.08350899
v -1.45237648 1.37073636 0.085459
v -1.37128651 1.4518274 0.085459
v -1.0230025 0.94129145 0.08740799
v -0.94184047 1.02245342 0.08740799
v -2.42753744 0.94312042 0.08350899
v -2.38369035 1.04897737 0.08350899
v -1.8665055 0.71067941 0.085459
v -1.82261943 0.81662941 0.085459
v -1.30547452 0.47823742 0.08740799
v -1.26154947 0.58428043 0.08740799
v -2.60379552 -0.05756455 0.08350899
v -2.60379552 0.05701443 0.08350899
v -1.99651849 -0.05761456 0.085459
v -1.99651849 0.05706542 0.085459
v -1.3892405 -0.05766457 0.08740799
v -1.3892405 0.05711543 0.08740799
v -2.38369035 -1.04952752 0.08350899
v -2.42753744 -0.94367051 0.08350899
v -1.82262051 -0.81717956 0.085459
v -1.8665055 -0.7112286 0.085459
v -1.26154947 -0.58483058 0.08740799
v -1.30547452 -0.47878754 0.08740799
v -1.80073249 -1.88175165 0.08350899
v -1.88175249 -1.80073249 0.08350899
v -1.37128651 -1.45237755 0.085459
v -1.45237743 -1.37128651 0.085459
v -0.94184148 -1.02300262 0.08740799
v -1.02300345 -0.94184052 0.08740799
v -0.94367051 -2.42753744 0.08350899
v -1.04952752 -2.38369035 0.08350899
v -0.7112295 -1.86650645 0.085459
v -0.8171795 -1.82261955 0.085459
v -0.47878748 -1.30547452 0.08740799
v -0.58483046 -1.26154959 0.08740799
v 0.0570145 -2.60379648 0.08350899
v -0.05756449 -2.60379648 0.08350899
v 0.0570655 -1.99651849 0.085459
v -0.05761449 -1.99651849 0.085459
v 0.0571155 -1.38924157 0.08740799
v -0.05766549 -1.38924157 0.08740799
v 1.04897844 -2.38369035 0.08350899
v 0.94312048 -2.42753744 0.08350899
v 0.81662952 -1.82261955 0.085459
v 0.71067851 -1.86650645 0.085459
v 0.5842815 -1.26154959 0.08740799
v 0.47823751 -1.30547452 0.08740799
v 0.94136148 -1.02293252 0.08350899
v 1.02238249 -0.94191253 0.08350899
v 1.37073648 -1.45237851 0.085459
v 1.45182848 -1.37128758 0.085459
v 1.80011045 -1.88182365 0.08740799
v 1.8812735 -1.80066168 0.08740799
v 1.26103854 -0.58473855 0.08350899
v 1.30488646 -0.47888058 0.08350899
v 1.82207047 -0.81718051 0.085459
v 1.86595749 -0.71122956 0.085459
v 2.38310241 -1.04962158 0.08740799
v 2.4270277 -0.94357752 0.08740799
v 1.38869154 -0.05756557 0.08350899
v 1.38869154 0.05701443 0.08350899
v 1.99596846 -0.05761557 0.085459
v 1.99596846 0.05706542 0.085459
v 2.60324668 -0.05766657 0.08740799
v 2.60324668 0.05711543 0.08740799
v -0.20970548 0.75557541 -0.08935799
v -0.30495449 1.2319684 -0.08779799
v -0.19261848 1.25441944 -0.08779799
v -0.09744749 0.77801042 -0.08935799
v -0.40020549 1.70836138 -0.086239
v -0.28778949 1.7308284 -0.086239
v -0.4954555 2.18475437 -0.084679
v -0.3829585 2.20723748 -0.084679
v -0.5907045 2.66114854 -0.08311999
v -0.4781295 2.6836462 -0.08311999
v 0.0968965 0.77801042 -0.08935799
v 0.1920675 1.25441944 -0.08779799
v 0.30440449 1.2319684 -0.08779799
v 0.2091545 0.75557541 -0.08935799
v 0.2872385 1.7308284 -0.086239
v 0.3996545 1.70836138 -0.086239
v 0.3824085 2.20723748 -0.084679
v 0.49490451 2.18475532 -0.084679
v 0.4775795 2.6836462 -0.08311999
v 0.59015452 2.66114854 -0.08311999
v 0.38733649 0.68158143 -0.08935799
v 0.6575765 1.08530545 -0.08779799
v 0.75277048 1.02157342 -0.08779799
v 0.4824635 0.61789441 -0.08935799
v 0.92781651 1.4890294 -0.086239
v 1.02307748 1.42525243 -0.086239
v 1.19805753 1.89275443 -0.084679
v 1.2933855 1.8289324 -0.084679
v 1.46829748 2.29647827 -0.08311999
v 1.56369245 2.23261141 -0.08311999
v 0.61876648 0.48134541 -0.08935799
v 1.02293348 0.75092142 -0.08779799
v 1.08649456 0.65561139 -0.08779799
v 0.68228149 0.38610243 -0.08935799
v 1.42710256 1.02049744 -0.086239
v 1.49070656 0.92512041 -0.086239
v 1.83127045 1.29007339 -0.084679
v 1.89492046 1.19462943 -0.084679
v 2.23543739 1.55964946 -0.08311999
v 2.2991333 1.46413838 -0.08311999
v 0.75595253 0.20778842 -0.08935799
v 1.23251748 0.30217543 -0.08779799
v 1.25476455 0.18979743 -0.08779799
v 0.77818453 0.09548944 -0.08935799
v 1.70908248 0.39656242 -0.086239
v 1.73134553 0.28410542 -0.086239
v 2.18564748 0.49095043 -0.084679
v 2.20792627 0.37841442 -0.084679
v 2.66221141 0.5853374 -0.08311999
v 2.68450641 0.47272244 -0.08311999
v 0.77801048 -0.09744656 -0.08935799
v 1.25441956 -0.19261759 -0.08779799
v 1.23196852 -0.30495458 -0.08779799
v 0.75557547 -0.20970457 -0.08935799
v 1.73082852 -0.28778857 -0.086239
v 1.7083615 -0.40020459 -0.086239
v 2.20723772 -0.38295859 -0.084679
v 2.18475437 -0.49545556 -0.084679
v 2.68364667 -0.47812855 -0.08311999
v 2.66114759 -0.59070456 -0.08311999
v 0.68158149 -0.38788557 -0.08935799
v 1.08530545 -0.65812552 -0.08779799
v 1.02157354 -0.75332057 -0.08779799
v 0.61789453 -0.48301357 -0.08935799
v 1.48902952 -0.92836654 -0.086239
v 1.42525255 -1.02362859 -0.086239
v 1.89275348 -1.19860661 -0.084679
v 1.82893252 -1.29393553 -0.084679
v 2.29647731 -1.46884751 -0.08311999
v 2.23261165 -1.56424355 -0.08311999
v 0.48134651 -0.61931657 -0.08935799
v 0.75092148 -1.02348351 -0.08779799
v 0.65561151 -1.08704352 -0.08779799
v 0.38610351 -0.68283152 -0.08935799
v 1.02049756 -1.42765152 -0.086239
v 0.92512053 -1.49125552 -0.086239
v 1.29007256 -1.8318206 -0.084679
v 1.1946305 -1.89546954 -0.084679
v 1.55964851 -2.23598861 -0.08311999
v 1.46413755 -2.29968261 -0.08311999
v 0.47748351 -2.68309736 -0.08779799
v 0.3822335 -2.20670366 -0.086239
v 0.4946495 -2.18423748 -0.086239
v 0.58982151 -2.66064643 -0.08779799
v 0.28698352 -1.73031055 -0.084679
v 0.3994795 -1.70782864 -0.084679
v 0.1917335 -1.25391662 -0.08311999
v 0.3043085 -1.23141956 -0.08311999
v 0.0964835 -0.77752351 -0.08155999
v 0.20913751 -0.7550106 -0.08155999
v -0.5903725 -2.66064643 -0.08779799
v -0.49520048 -2.18423748 -0.086239
v -0.3827835 -2.20670366 -0.086239
v -0.47803348 -2.68309736 -0.08779799
v -0.40003049 -1.70782864 -0.084679
v -0.2875345 -1.73031055 -0.084679
v -0.30485948 -1.23141956 -0.08311999
v -0.19228449 -1.25391662 -0.08311999
v -0.2096885 -0.7550106 -0.08155999
v -0.09703449 -0.77752351 -0.08155999
v -1.56353449 -2.23231649 -0.08779799
v -1.29329454 -1.82859265 -0.086239
v -1.19803154 -1.89236962 -0.086239
v -1.46833849 -2.29604864 -0.08779799
v -1.02305352 -1.42486751 -0.084679
v -0.92772346 -1.48868954 -0.084679
v -0.75281351 -1.02114355 -0.08311999
v -0.65741646 -1.08501052 -0.08311999
v -0.48257347 -0.61741954 -0.08155999
v -0.38710948 -0.68133056 -0.08155999
v -2.29870271 -1.46417951 -0.08779799
v -1.89453554 -1.19460356 -0.086239
v -1.83092951 -1.2899816 -0.086239
v -2.2351427 -1.55949056 -0.08779799
v -1.49036645 -0.9250276 -0.084679
v -1.42671752 -1.02047157 -0.084679
v -1.08619844 -0.65545153 -0.08311999
v -1.02250552 -0.75096261 -0.08311999
v -0.68203049 -0.38587558 -0.08155999
v -0.61829149 -0.48145359 -0.08155999
v -2.68395757 -0.47317659 -0.08779799
v -2.20739126 -0.37878757 -0.086239
v -2.18512868 -0.49124556 -0.086239
v -2.6617093 -0.58555555 -0.08779799
v -1.73082745 -0.28440159 -0.084679
v -1.70854854 -0.39693856 -0.084679
v -1.25426352 -0.19001358 -0.08311999
v -1.23196744 -0.30262857 -0.08311999
v -0.77769851 -0.09562557 -0.08155999
v -0.75538748 -0.20832055 -0.08155999
v -2.66064548 0.58982342 -0.08779799
v -2.18423652 0.49465143 -0.086239
v -2.20670366 0.38223344 -0.086239
v -2.6830964 0.47748443 -0.08779799
v -1.70782744 0.39948043 -0.084679
v -1.73031044 0.28698444 -0.084679
v -1.23141944 0.30430942 -0.08311999
v -1.2539165 0.19173443 -0.08311999
v -0.75501048 0.20913842 -0.08155999
v -0.77752351 0.09648442 -0.08155999
v -2.23231649 1.56298446 -0.08779799
v -1.82859253 1.29274439 -0.086239
v -1.8923695 1.19748234 -0.086239
v -2.29604864 1.46778941 -0.08779799
v -1.42486846 1.02250337 -0.084679
v -1.48868954 0.92717444 -0.084679
v -1.0211445 0.75226342 -0.08311999
v -1.08500945 0.65686744 -0.08311999
v -0.61742049 0.48202341 -0.08155999
v -0.6813305 0.38656044 -0.08155999
v -1.46417951 2.2981534 -0.08779799
v -1.19460344 1.89398539 -0.086239
v -1.28998053 1.83037948 -0.086239
v -1.55949044 2.23459339 -0.08779799
v -0.92502749 1.48981738 -0.084679
v -1.0204705 1.42616748 -0.084679
v -0.65545147 1.08565044 -0.08311999
v -0.75096249 1.02195441 -0.08311999
v -0.38587549 0.68148142 -0.08155999
v -0.48145249 0.61774146 -0.08155999
v 0.70051348 0.35195642 -0.08935799
v 1.26154553 0.58439844 -0.08740899
v 1.30539345 0.47854042 -0.08740899
v 0.74432247 0.24619242 -0.08935799
v 1.82257747 0.81683945 -0.085459
v 1.86646354 0.71088838 -0.085459
v 2.38360929 1.0492804 -0.08351
v 2.42753458 0.94323742 -0.08351
v 2.94464159 1.28172242 -0.08155999
v 2.98860454 1.1755855 -0.08155999
v 0.51237553 0.59332442 -0.08935799
v 0.94175052 1.0227704 -0.08740899
v 1.02277052 0.9417504 -0.08740899
v 0.59332448 0.51237642 -0.08935799
v 1.37112546 1.45221543 -0.085459
v 1.4522165 1.3711245 -0.085459
v 1.80049955 1.88166141 -0.08351
v 1.88166153 1.80049943 -0.08351
v 2.22987461 2.31110739 -0.08155999
v 2.31110763 2.22987341 -0.08155999
v 0.2461915 0.74432241 -0.08935799
v 0.47854051 1.30539345 -0.08740899
v 0.5843985 1.26154542 -0.08740899
v 0.35195651 0.70051342 -0.08935799
v 0.7108885 1.86646342 -0.085459
v 0.81683951 1.82257747 -0.085459
v 0.94323653 2.42753458 -0.08351
v 1.04928147 2.38360929 -0.08351
v 1.1755855 2.98860454 -0.08155999
v 1.28172254 2.94464159 -0.08155999
v -0.05751449 0.78196239 -0.08935799
v -0.05756449 1.38924038 -0.08740899
v 0.0570145 1.38924038 -0.08740899
v 0.0569645 0.78196239 -0.08935799
v -0.05761449 1.99651742 -0.085459
v 0.0570655 1.99651742 -0.085459
v -0.05766549 2.60379457 -0.08351
v 0.0571155 2.60379457 -0.08351
v -0.05771549 3.21107339 -0.08155999
v 0.0571655 3.21107339 -0.08155999
v -0.35250648 0.70051342 -0.08935799
v -0.58494746 1.26154542 -0.08740899
v -0.47909048 1.30539345 -0.08740899
v -0.24674248 0.74432241 -0.08935799
v -0.81738948 1.82257747 -0.085459
v -0.71143847 1.86646342 -0.085459
v -1.04983043 2.38360929 -0.08351
v -0.94378751 2.42753458 -0.08351
v -1.28227245 2.94464159 -0.08155999
v -1.17613554 2.98860454 -0.08155999
v -2.22978925 2.31018829 -0.08935799
v -1.80034351 1.88081443 -0.08740899
v -1.88136351 1.79979443 -0.08740899
v -2.31073761 2.22924041 -0.08935799
v -1.37089848 1.45143938 -0.085459
v -1.45198845 1.37034845 -0.085459
v -0.9414525 1.0220654 -0.08351
v -1.02261447 0.94090342 -0.08351
v -0.51200747 0.59269142 -0.08155999
v -0.59324049 0.51145744 -0.08155999
v -2.94425344 1.28111648 -0.08935799
v -2.38318347 1.04876744 -0.08740899
v -2.42703056 0.94291043 -0.08740899
v -2.98806238 1.17535245 -0.08935799
v -1.82211244 0.81641942 -0.085459
v -1.8659985 0.71046942 -0.085459
v -1.26104247 0.58407044 -0.08351
v -1.30496752 0.47802743 -0.08351
v -0.69997251 0.35172241 -0.08155999
v -0.74393546 0.24558642 -0.08155999
v -3.21052455 0.05696442 -0.08935799
v -2.60324668 0.05701443 -0.08740899
v -2.60324668 -0.05756455 -0.08740899
v -3.21052455 -0.05751356 -0.08935799
v -1.99596953 0.05706542 -0.085459
v -1.99596953 -0.05761456 -0.085459
v -1.38869154 0.05711543 -0.08351
v -1.38869154 -0.05766457 -0.08351
v -0.7814145 0.05716642 -0.08155999
v -0.7814145 -0.05771556 -0.08155999
v -2.98806238 -1.17590153 -0.08935799
v -2.42703056 -0.94346058 -0.08740899
v -2.38318347 -1.04931759 -0.08740899
v -2.94425439 -1.28166556 -0.08935799
v -1.8659985 -0.71101856 -0.085459
v -1.82211351 -0.81696951 -0.085459
v -1.30496752 -0.47857755 -0.08351
v -1.26104247 -0.58462059 -0.08351
v -0.74393546 -0.24613559 -0.08155999
v -0.69997251 -0.35227257 -0.08155999
v -2.31073856 -2.22978973 -0.08935799
v -1.88136446 -1.80034458 -0.08740899
v -1.80034446 -1.88136351 -0.08740899
v -2.22979068 -2.31073761 -0.08935799
v -1.45198953 -1.3708986 -0.085459
v -1.37089848 -1.45198953 -0.085459
v -1.02261555 -0.94145262 -0.08351
v -0.94145351 -1.02261459 -0.08351
v -0.59324151 -0.51200759 -0.08155999
v -0.51200747 -0.59324055 -0.08155999
v -1.28166651 -2.94425344 -0.08935799
v -1.04931747 -2.38318347 -0.08740899
v -0.94346046 -2.42703056 -0.08740899
v -1.17590248 -2.98806238 -0.08935799
v -0.81696951 -1.82211267 -0.085459
v -0.71101951 -1.86599957 -0.085459
v -0.58462047 -1.26104259 -0.08351
v -0.47857749 -1.30496752 -0.08351
v -0.35227248 -0.69997155 -0.08155999
v -0.24613548 -0.74393558 -0.08155999
v -0.05751449 -3.21052455 -0.08935799
v -0.05756449 -2.60324764 -0.08740899
v 0.0570145 -2.60324764 -0.08740899
v 0.0569645 -3.21052455 -0.08935799
v -0.05761449 -1.99596965 -0.085459
v 0.0570655 -1.99596965 -0.085459
v -0.05766549 -1.38869261 -0.08351
v 0.0571155 -1.38869261 -0.08351
v -0.05771549 -0.78141462 -0.08155999
v 0.0571655 -0.78141462 -0.08155999
v 1.1753515 -2.98806238 -0.08935799
v 0.94291049 -2.42703056 -0.08740899
v 1.04876852 -2.38318347 -0.08740899
v 1.28111648 -2.94425344 -0.08935799
v 0.71046853 -1.86599957 -0.085459
v 0.81641948 -1.82211267 -0.085459
v 0.47802749 -1.30496752 -0.08351
v 0.58407151 -1.26104259 -0.08351
v 0.2455855 -0.74393558 -0.08155999
v 0.3517225 -0.69997155 -0.08155999
v 0.59332448 -0.51292556 -0.08935799
v 1.02277052 -0.94230055 -0.08740899
v 0.94174951 -1.02332055 -0.08740899
v 0.51237553 -0.59387457 -0.08935799
v 1.4522165 -1.37167561 -0.085459
v 1.3711245 -1.45276653 -0.085459
v 1.88166153 -1.80104959 -0.08351
v 1.80049848 -1.88221156 -0.08351
v 2.31110763 -2.2304244 -0.08155999
v 2.22987365 -2.31165742 -0.08155999
v 0.74432247 -0.24674159 -0.08935799
v 1.30539345 -0.47909057 -0.08740899
v 1.26154553 -0.58494859 -0.08740899
v 0.70051348 -0.35250657 -0.08935799
v 1.86646449 -0.71143961 -0.085459
v 1.82257747 -0.81739056 -0.085459
v 2.42753458 -0.94378757 -0.08351
v 2.38360929 -1.04983162 -0.08351
v 2.98860549 -1.17613661 -0.08155999
v 2.94464159 -1.28227353 -0.08155999
v 0.78196251 0.05696442 -0.08935799
v 1.3892405 0.05701443 -0.08740899
v 1.3892405 -0.05756557 -0.08740899
v 0.78196251 -0.05751457 -0.08935799
v 1.99651753 0.05706542 -0.085459
v 1.99651753 -0.05761557 -0.085459
v 2.60379552 0.05711543 -0.08351
v 2.60379552 -0.05766657 -0.08351
v 3.21107339 0.05716544 -0.08155999
v 3.21107244 -0.05771657 -0.08155999
g Group32941
f 324 323 322 321
g Group32944
f 66 65 324 321
f 98 66 321 322
f 65 97 323 324
g Group60259
f 65 66 98 97
g Group32941
f 323 326 325 322
g Group32944
f 100 98 322 325
f 97 99 326 323
g Group60259
f 97 98 100 99
g Group32941
f 326 328 327 325
g Group32944
f 102 100 325 327
f 99 101 328 326
g Group60259
f 99 100 102 101
g Group32941
f 328 330 329 327
g Group32944
f 104 102 327 329
f 103 104 329 330
f 101 103 330 328
g Group60259
f 101 102 104 103
g Group32941
f 334 333 332 331
g Group32944
f 69 70 334 331
f 106 69 331 332
f 70 105 333 334
g Group60259
f 70 69 106 105
g Group32941
f 333 336 335 332
g Group32944
f 108 106 332 335
f 105 107 336 333
g Group60259
f 105 106 108 107
g Group32941
f 336 338 337 335
g Group32944
f 110 108 335 337
f 107 109 338 336
g Group60259
f 107 108 110 109
g Group32941
f 338 340 339 337
g Group32944
f 112 110 337 339
f 111 112 339 340
f 109 111 340 338
g Group60259
f 109 110 112 111
g Group32941
f 344 343 342 341
g Group32944
f 73 74 344 341
f 114 73 341 342
f 74 113 343 344
g Group60259
f 74 73 114 113
g Group32941
f 343 346 345 342
g Group32944
f 116 114 342 345
f 113 115 346 343
g Group60259
f 113 114 116 115
g Group32941
f 346 348 347 345
g Group32944
f 118 116 345 347
f 115 117 348 346
g Group60259
f 115 116 118 117
g Group32941
f 348 350 349 347
g Group32944
f 120 118 347 349
f 119 120 349 350
f 117 119 350 348
g Group60259
f 117 118 120 119
g Group32941
f 354 353 352 351
g Group32944
f 77 78 354 351
f 122 77 351 352
f 78 121 353 354
g Group60259
f 78 77 122 121
g Group32941
f 353 356 355 352
g Group32944
f 124 122 352 355
f 121 123 356 353
g Group60259
f 121 122 124 123
g Group32941
f 356 358 357 355
g Group32944
f 126 124 355 357
f 123 125 358 356
g Group60259
f 123 124 126 125
g Group32941
f 358 360 359 357
g Group32944
f 128 126 357 359
f 127 128 359 360
f 125 127 360 358
g Group60259
f 125 126 128 127
g Group32941
f 364 363 362 361
g Group32944
f 81 82 364 361
f 130 81 361 362
f 82 129 363 364
g Group60259
f 82 81 130 129
g Group32941
f 363 366 365 362
g Group32944
f 132 130 362 365
f 129 131 366 363
g Group60259
f 129 130 132 131
g Group32941
f 366 368 367 365
g Group32944
f 134 132 365 367
f 131 133 368 366
g Group60259
f 131 132 134 133
g Group32941
f 368 370 369 367
g Group32944
f 136 134 367 369
f 135 136 369 370
f 133 135 370 368
g Group60259
f 133 134 136 135
g Group32941
f 374 373 372 371
g Group32944
f 85 86 374 371
f 138 85 371 372
f 86 137 373 374
g Group60259
f 86 85 138 137
g Group32941
f 373 376 375 372
g Group32944
f 140 138 372 375
f 137 139 376 373
g Group60259
f 137 138 140 139
g Group32941
f 376 378 377 375
g Group32944
f 142 140 375 377
f 139 141 378 376
g Group60259
f 139 140 142 141
g Group32941
f 378 380 379 377
g Group32944
f 144 142 377 379
f 143 144 379 380
f 141 143 380 378
g Group60259
f 141 142 144 143
g Group32941
f 384 383 382 381
g Group32944
f 89 90 384 381
f 146 89 381 382
f 90 145 383 384
g Group60259
f 90 89 146 145
g Group32941
f 383 386 385 382
g Group32944
f 148 146 382 385
f 145 147 386 383
g Group60259
f 145 146 148 147
g Group32941
f 386 388 387 385
g Group32944
f 150 148 385 387
f 147 149 388 386
g Group60259
f 147 148 150 149
g Group32941
f 388 390 389 387
g Group32944
f 152 150 387 389
f 151 152 389 390
f 149 151 390 388
g Group60259
f 149 150 152 151
g Group32941
f 394 393 392 391
g Group32944
f 93 94 394 391
f 154 93 391 392
f 94 153 393 394
g Group60259
f 94 93 154 153
g Group32941
f 393 396 395 392
g Group32944
f 156 154 392 395
f 153 155 396 393
g Group60259
f 153 154 156 155
g Group32941
f 396 398 397 395
g Group32944
f 158 156 395 397
f 155 157 398 396
g Group60259
f 155 156 158 157
g Group32941
f 398 400 399 397
g Group32944
f 160 158 397 399
f 159 160 399 400
f 157 159 400 398
g Group60259
f 157 158 160 159
g Group32941
f 404 403 402 401
g Group32944
f 162 161 404 401
f 164 162 401 402
f 161 163 403 404
g Group60259
f 161 162 164 163
g Group32941
f 403 406 405 402
g Group32944
f 166 164 402 405
f 163 165 406 403
g Group60259
f 163 164 166 165
g Group32941
f 406 408 407 405
g Group32944
f 168 166 405 407
f 165 167 408 406
g Group60259
f 165 166 168 167
g Group32941
f 408 410 409 407
g Group32944
f 68 168 407 409
f 67 68 409 410
f 167 67 410 408
g Group60259
f 167 168 68 67
g Group32941
f 414 413 412 411
g Group32944
f 170 169 414 411
f 172 170 411 412
f 169 171 413 414
g Group60259
f 169 170 172 171
g Group32941
f 413 416 415 412
g Group32944
f 174 172 412 415
f 171 173 416 413
g Group60259
f 171 172 174 173
g Group32941
f 416 418 417 415
g Group32944
f 176 174 415 417
f 173 175 418 416
g Group60259
f 173 174 176 175
g Group32941
f 418 420 419 417
g Group32944
f 71 176 417 419
f 72 71 419 420
f 175 72 420 418
g Group60259
f 175 176 71 72
g Group32941
f 424 423 422 421
g Group32944
f 178 177 424 421
f 180 178 421 422
f 177 179 423 424
g Group60259
f 177 178 180 179
g Group32941
f 423 426 425 422
g Group32944
f 182 180 422 425
f 179 181 426 423
g Group60259
f 179 180 182 181
g Group32941
f 426 428 427 425
g Group32944
f 184 182 425 427
f 181 183 428 426
g Group60259
f 181 182 184 183
g Group32941
f 428 430 429 427
g Group32944
f 75 184 427 429
f 76 75 429 430
f 183 76 430 428
g Group60259
f 183 184 75 76
g Group32941
f 434 433 432 431
g Group32944
f 186 185 434 431
f 188 186 431 432
f 185 187 433 434
g Group60259
f 185 186 188 187
g Group32941
f 433 436 435 432
g Group32944
f 190 188 432 435
f 187 189 436 433
g Group60259
f 187 188 190 189
g Group32941
f 436 438 437 435
g Group32944
f 192 190 435 437
f 189 191 438 436
g Group60259
f 189 190 192 191
g Group32941
f 438 440 439 437
g Group32944
f 79 192 437 439
f 80 79 439 440
f 191 80 440 438
g Group60259
f 191 192 79 80
g Group32941
f 444 443 442 441
g Group32944
f 194 193 444 441
f 196 194 441 442
f 193 195 443 444
g Group60259
f 193 194 196 195
g Group32941
f 443 446 445 442
g Group32944
f 198 196 442 445
f 195 197 446 443
g Group60259
f 195 196 198 197
g Group32941
f 446 448 447 445
g Group32944
f 200 198 445 447
f 197 199 448 446
g Group60259
f 197 198 200 199
g Group32941
f 448 450 449 447
g Group32944
f 83 200 447 449
f 84 83 449 450
f 199 84 450 448
g Group60259
f 199 200 83 84
g Group32941
f 454 453 452 451
g Group32944
f 202 201 454 451
f 204 202 451 452
f 201 203 453 454
g Group60259
f 201 202 204 203
g Group32941
f 453 456 455 452
g Group32944
f 206 204 452 455
f 203 205 456 453
g Group60259
f 203 204 206 205
g Group32941
f 456 458 457 455
g Group32944
f 208 206 455 457
f 205 207 458 456
g Group60259
f 205 206 208 207
g Group32941
f 458 460 459 457
g Group32944
f 87 208 457 459
f 88 87 459 460
f 207 88 460 458
g Group60259
f 207 208 87 88
g Group32941
f 464 463 462 461
g Group32944
f 210 209 464 461
f 212 210 461 462
f 209 211 463 464
g Group60259
f 209 210 212 211
g Group32941
f 463 466 465 462
g Group32944
f 214 212 462 465
f 211 213 466 463
g Group60259
f 211 212 214 213
g Group32941
f 466 468 467 465
g Group32944
f 216 214 465 467
f 213 215 468 466
g Group60259
f 213 214 216 215
g Group32941
f 468 470 469 467
g Group32944
f 91 216 467 469
f 92 91 469 470
f 215 92 470 468
g Group60259
f 215 216 91 92
g Group32941
f 474 473 472 471
g Group32944
f 218 217 474 471
f 220 218 471 472
f 217 219 473 474
g Group60259
f 217 218 220 219
g Group32941
f 473 476 475 472
g Group32944
f 222 220 472 475
f 219 221 476 473
g Group60259
f 219 220 222 221
g Group32941
f 476 478 477 475
g Group32944
f 224 222 475 477
f 221 223 478 476
g Group60259
f 221 222 224 223
g Group32941
f 478 480 479 477
g Group32944
f 95 224 477 479
f 96 95 479 480
f 223 96 480 478
g Group60259
f 223 224 95 96
g Group32941
f 484 483 482 481
g Group32944
f 44 42 484 481
f 226 44 481 482
f 42 225 483 484
g Group60259
f 42 44 226 225
g Group32941
f 483 486 485 482
g Group32944
f 228 226 482 485
f 225 227 486 483
g Group60259
f 225 226 228 227
g Group32941
f 486 488 487 485
g Group32944
f 230 228 485 487
f 227 229 488 486
g Group60259
f 227 228 230 229
g Group32941
f 488 490 489 487
g Group32944
f 43 230 487 489
f 41 43 489 490
f 229 41 490 488
g Group60259
f 229 230 43 41
g Group32941
f 494 493 492 491
g Group32944
f 20 18 494 491
f 232 20 491 492
f 18 231 493 494
g Group60259
f 18 20 232 231
g Group32941
f 493 496 495 492
g Group32944
f 234 232 492 495
f 231 233 496 493
g Group60259
f 231 232 234 233
g Group32941
f 496 498 497 495
g Group32944
f 236 234 495 497
f 233 235 498 496
g Group60259
f 233 234 236 235
g Group32941
f 498 500 499 497
g Group32944
f 19 236 497 499
f 17 19 499 500
f 235 17 500 498
g Group60259
f 235 236 19 17
g Group32941
f 504 503 502 501
g Group32944
f 52 50 504 501
f 238 52 501 502
f 50 237 503 504
g Group60259
f 50 52 238 237
g Group32941
f 503 506 505 502
g Group32944
f 240 238 502 505
f 237 239 506 503
g Group60259
f 237 238 240 239
g Group32941
f 506 508 507 505
g Group32944
f 242 240 505 507
f 239 241 508 506
g Group60259
f 239 240 242 241
g Group32941
f 508 510 509 507
g Group32944
f 51 242 507 509
f 49 51 509 510
f 241 49 510 508
g Group60259
f 241 242 51 49
g Group32941
f 514 513 512 511
g Group32944
f 4 2 514 511
f 244 4 511 512
f 2 243 513 514
g Group60259
f 2 4 244 243
g Group32941
f 513 516 515 512
g Group32944
f 246 244 512 515
f 243 245 516 513
g Group60259
f 243 244 246 245
g Group32941
f 516 518 517 515
g Group32944
f 248 246 515 517
f 245 247 518 516
g Group60259
f 245 246 248 247
g Group32941
f 518 520 519 517
g Group32944
f 3 248 517 519
f 1 3 519 520
f 247 1 520 518
g Group60259
f 247 248 3 1
g Group32941
f 524 523 522 521
g Group32944
f 60 58 524 521
f 250 60 521 522
f 58 249 523 524
g Group60259
f 58 60 250 249
g Group32941
f 523 526 525 522
g Group32944
f 252 250 522 525
f 249 251 526 523
g Group60259
f 249 250 252 251
g Group32941
f 526 528 527 525
g Group32944
f 254 252 525 527
f 251 253 528 526
g Group60259
f 251 252 254 253
g Group32941
f 528 530 529 527
g Group32944
f 59 254 527 529
f 57 59 529 530
f 253 57 530 528
g Group60259
f 253 254 59 57
g Group32941
f 534 533 532 531
g Group32944
f 32 30 534 531
f 256 32 531 532
f 30 255 533 534
g Group60259
f 30 32 256 255
g Group32941
f 533 536 535 532
g Group32944
f 258 256 532 535
f 255 257 536 533
g Group60259
f 255 256 258 257
g Group32941
f 536 538 537 535
g Group32944
f 260 258 535 537
f 257 259 538 536
g Group60259
f 257 258 260 259
g Group32941
f 538 540 539 537
g Group32944
f 31 260 537 539
f 29 31 539 540
f 259 29 540 538
g Group60259
f 259 260 31 29
g Group32941
f 544 543 542 541
g Group32944
f 40 38 544 541
f 262 40 541 542
f 38 261 543 544
g Group60259
f 38 40 262 261
g Group32941
f 543 546 545 542
g Group32944
f 264 262 542 545
f 261 263 546 543
g Group60259
f 261 262 264 263
g Group32941
f 546 548 547 545
g Group32944
f 266 264 545 547
f 263 265 548 546
g Group60259
f 263 264 266 265
g Group32941
f 548 550 549 547
g Group32944
f 39 266 547 549
f 37 39 549 550
f 265 37 550 548
g Group60259
f 265 266 39 37
g Group32941
f 554 553 552 551
g Group32944
f 16 14 554 551
f 268 16 551 552
f 14 267 553 554
g Group60259
f 14 16 268 267
g Group32941
f 553 556 555 552
g Group32944
f 270 268 552 555
f 267 269 556 553
g Group60259
f 267 268 270 269
g Group32941
f 556 558 557 555
g Group32944
f 272 270 555 557
f 269 271 558 556
g Group60259
f 269 270 272 271
g Group32941
f 558 560 559 557
g Group32944
f 15 272 557 559
f 13 15 559 560
f 271 13 560 558
g Group60259
f 271 272 15 13
g Group32941
f 564 563 562 561
g Group32944
f 48 46 564 561
f 274 48 561 562
f 46 273 563 564
g Group60259
f 46 48 274 273
g Group32941
f 563 566 565 562
g Group32944
f 276 274 562 565
f 273 275 566 563
g Group60259
f 273 274 276 275
g Group32941
f 566 568 567 565
g Group32944
f 278 276 565 567
f 275 277 568 566
g Group60259
f 275 276 278 277
g Group32941
f 568 570 569 567
g Group32944
f 47 278 567 569
f 45 47 569 570
f 277 45 570 568
g Group60259
f 277 278 47 45
g Group32941
f 574 573 572 571
g Group32944
f 24 22 574 571
f 280 24 571 572
f 22 279 573 574
g Group60259
f 22 24 280 279
g Group32941
f 573 576 575 572
g Group32944
f 282 280 572 575
f 279 281 576 573
g Group60259
f 279 280 282 281
g Group32941
f 576 578 577 575
g Group32944
f 284 282 575 577
f 281 283 578 576
g Group60259
f 281 282 284 283
g Group32941
f 578 580 579 577
g Group32944
f 23 284 577 579
f 21 23 579 580
f 283 21 580 578
g Group60259
f 283 284 23 21
g Group32941
f 584 583 582 581
g Group32944
f 56 54 584 581
f 286 56 581 582
f 54 285 583 584
g Group60259
f 54 56 286 285
g Group32941
f 583 586 585 582
g Group32944
f 288 286 582 585
f 285 287 586 583
g Group60259
f 285 286 288 287
g Group32941
f 586 588 587 585
g Group32944
f 290 288 585 587
f 287 289 588 586
g Group60259
f 287 288 290 289
g Group32941
f 588 590 589 587
g Group32944
f 55 290 587 589
f 53 55 589 590
f 289 53 590 588
g Group60259
f 289 290 55 53
g Group32941
f 594 593 592 591
g Group32944
f 8 6 594 591
f 292 8 591 592
f 6 291 593 594
g Group60259
f 6 8 292 291
g Group32941
f 593 596 595 592
g Group32944
f 294 292 592 595
f 291 293 596 593
g Group60259
f 291 292 294 293
g Group32941
f 596 598 597 595
g Group32944
f 296 294 595 597
f 293 295 598 596
g Group60259
f 293 294 296 295
g Group32941
f 598 600 599 597
g Group32944
f 7 296 597 599
f 5 7 599 600
f 295 5 600 598
g Group60259
f 295 296 7 5
g Group32941
f 604 603 602 601
g Group32944
f 64 62 604 601
f 298 64 601 602
f 62 297 603 604
g Group60259
f 62 64 298 297
g Group32941
f 603 606 605 602
g Group32944
f 300 298 602 605
f 297 299 606 603
g Group60259
f 297 298 300 299
g Group32941
f 606 608 607 605
g Group32944
f 302 300 605 607
f 299 301 608 606
g Group60259
f 299 300 302 301
g Group32941
f 608 610 609 607
g Group32944
f 63 302 607 609
f 61 63 609 610
f 301 61 610 608
g Group60259
f 301 302 63 61
g Group32941
f 614 613 612 611
g Group32944
f 28 26 614 611
f 304 28 611 612
f 26 303 613 614
g Group60259
f 26 28 304 303
g Group32941
f 613 616 615 612
g Group32944
f 306 304 612 615
f 303 305 616 613
g Group60259
f 303 304 306 305
g Group32941
f 616 618 617 615
g Group32944
f 308 306 615 617
f 305 307 618 616
g Group60259
f 305 306 308 307
g Group32941
f 618 620 619 617
g Group32944
f 27 308 617 619
f 25 27 619 620
f 307 25 620 618
g Group60259
f 307 308 27 25
g Group32941
f 624 623 622 621
g Group32944
f 36 34 624 621
f 310 36 621 622
f 34 309 623 624
g Group60259
f 34 36 310 309
g Group32941
f 623 626 625 622
g Group32944
f 312 310 622 625
f 309 311 626 623
g Group60259
f 309 310 312 311
g Group32941
f 626 628 627 625
g Group32944
f 314 312 625 627
f 311 313 628 626
g Group60259
f 311 312 314 313
g Group32941
f 628 630 629 627
g Group32944
f 35 314 627 629
f 33 35 629 630
f 313 33 630 628
g Group60259
f 313 314 35 33
g Group32941
f 634 633 632 631
g Group32944
f 12 10 634 631
f 316 12 631 632
f 10 315 633 634
g Group60259
f 10 12 316 315
g Group32941
f 633 636 635 632
g Group32944
f 318 316 632 635
f 315 317 636 633
g Group60259
f 315 316 318 317
g Group32941
f 636 638 637 635
g Group32944
f 320 318 635 637
f 317 319 638 636
g Group60259
f 317 318 320 319
g Group32941
f 638 640 639 637
g Group32944
f 11 320 637 639
f 9 11 639 640
f 319 9 640 638
g Group60259
f 319 320 11 9

 