# File exported by ZBrush version 2021
# www.zbrush.com
#Vertex Count 256
#Face Count 256
#Auto scale x=1.000000 y=1.000000 z=1.000000
#Auto offset x=0.000000 y=0.000000 z=0.000000
v -1.57893645 1.55528998 0.296054
v -1.83048856 1.49593198 0.296489
v -1.51564049 1.798388 0.296054
v -1.78101551 1.75352501 0.296489
v -1.27093553 2.32253408 0.296054
v -1.56396246 2.3153851 0.296489
v -2.34746241 1.54517698 0.297403
v -2.36045956 1.25991094 0.297403
v -1.41210448 2.06233501 0.296054
v -1.6918205 2.03511309 0.296489
v -2.0645945 1.66876196 0.29694601
v -2.09702658 1.39684605 0.29694601
v -0.85862153 2.01763296 0.29513701
v -0.6971355 2.23576092 0.29513701
v -2.28241848 0.68717098 0.297396
v -2.0607624 0.84457099 0.29693999
v -1.1277945 2.05692911 0.295596
v -0.97513848 2.29594707 0.295596
v -2.33823657 0.96494001 0.29739999
v -2.0958364 1.11343503 0.296943
v -0.2672255 2.62867593 0.29513901
v -0.56498754 2.7372179 0.295598
v -2.78633642 0.55612999 0.29831099
v -2.68252658 0.26596799 0.29830801
v -0.50243252 2.441293 0.295138
v -0.78772449 2.52433991 0.29559701
v -2.57000255 0.77846902 0.29785502
v -2.49117541 0.49351599 0.29785201
v -2.37201142 -0.23135599 0.298296
v -2.2469275 -0.001246 0.29783999
v -2.54936957 0.002984 0.29830199
v -2.38185739 0.23298299 0.29784601
v 1.58000445 1.55421102 0.296054
v 1.51446545 1.80422496 0.296489
v 1.82458651 1.49692702 0.296054
v 1.77319753 1.76111495 0.296489
v 2.35460639 1.26521098 0.296054
v 2.34023642 1.55797505 0.296489
v 1.55095243 2.32225489 0.297403
v 1.26545345 2.32821798 0.297403
v 2.09100556 1.39992594 0.296054
v 2.05689859 1.67888605 0.296489
v 1.68147051 2.04252004 0.29694601
v 1.40883743 2.06823802 0.29694601
v 2.05995845 0.84550797 0.29513701
v 2.28199958 0.68944799 0.29513701
v 0.69481051 2.23608398 0.297396
v 0.85762548 2.01837492 0.29693999
v 2.09261155 1.11556601 0.295596
v 2.33531737 0.96885001 0.295596
v 0.97111946 2.29873204 0.29739999
v 1.12554347 2.06006503 0.296943
v 2.68585753 0.276499 0.29513901
v 2.78656458 0.56969702 0.295598
v 0.55139046 2.73661994 0.29831099
v 0.2638745 2.62568998 0.29830801
v 2.49226951 0.49986898 0.295138
v 2.56825947 0.78711998 0.29559701
v 0.77899348 2.52583193 0.29785502
v 0.49606949 2.44000411 0.29785201
v 0.00425248 2.48609089 0.29830199
v 0.23830948 2.32429909 0.29784601
v -0.2232875 2.32830309 0.29830199
v 0.01063048 2.18873906 0.29784601
v -1.57893645 -1.55529105 0.296054
v -1.83048856 -1.49593305 0.296489
v -1.51564049 -1.798388 0.296054
v -1.78101551 -1.75352501 0.296489
v -1.27093553 -2.32253503 0.296054
v -1.56396246 -2.3153851 0.296489
v -2.34746241 -1.54517805 0.297403
v -2.36045956 -1.25991201 0.297403
v -1.41210448 -2.06233501 0.296054
v -1.6918205 -2.03511309 0.296489
v -2.0645945 -1.66876304 0.29694601
v -2.09702658 -1.39684605 0.29694601
v -0.85862153 -2.01763296 0.29513701
v -0.6971355 -2.23576092 0.29513701
v -2.28241848 -0.687173 0.297396
v -2.0607624 -0.844572 0.29693999
v -1.1277945 -2.05692911 0.295596
v -0.97513848 -2.29594707 0.295596
v -2.33823657 -0.96494102 0.29739999
v -2.0958364 -1.11343598 0.296943
v -0.2672255 -2.62867593 0.29513901
v -0.56498754 -2.73721909 0.295598
v -2.78633642 -0.55613201 0.29831099
v -2.68252658 -0.265969 0.29830801
v -0.50243252 -2.441293 0.295138
v -0.78772449 -2.5243411 0.29559701
v -2.57000255 -0.77846998 0.29785502
v -2.49117541 -0.49351701 0.29785201
v 1.58000445 -1.55421197 0.296054
v 1.51446545 -1.80422496 0.296489
v 1.82458651 -1.49692797 0.296054
v 1.77319753 -1.76111602 0.296489
v 2.35460639 -1.26521205 0.296054
v 2.34023642 -1.55797505 0.296489
v 1.55095243 -2.32225489 0.297403
v 1.26545345 -2.32821893 0.297403
v 2.09100556 -1.39992702 0.296054
v 2.05689859 -1.67888701 0.296489
v 1.68147051 -2.04252004 0.29694601
v 1.40883743 -2.06823897 0.29694601
v 2.05995845 -0.84550899 0.29513701
v 2.28199958 -0.68944901 0.29513701
v 0.69481051 -2.23608398 0.297396
v 0.85762548 -2.01837492 0.29693999
v 2.09261155 -1.11556696 0.295596
v 2.33531737 -0.96885198 0.295596
v 0.97111946 -2.29873204 0.29739999
v 1.12554347 -2.06006503 0.296943
v 2.68585753 -0.27649998 0.29513901
v 2.78656458 -0.56969797 0.295598
v 0.55139046 -2.73661899 0.29831099
v 0.2638745 -2.62569093 0.29830801
v 2.49226951 -0.49987 0.295138
v 2.56825947 -0.78712099 0.29559701
v 0.77899348 -2.52583193 0.29785502
v 0.49606949 -2.44000506 0.29785201
v 2.25523853 0.004123 0.29421901
v 2.38065838 0.228834 0.29422
v 2.38702058 -0.234784 0.294678
v 2.55672955 -0.007925 0.29467999
v 0.00425248 -2.48609089 0.29830199
v 0.23830948 -2.32429909 0.29784601
v -0.2232875 -2.32830309 0.29830199
v 0.01063048 -2.18874001 0.29784601
v -1.57998049 1.55552494 -0.296476
v -1.83152949 1.49612999 -0.29604101
v -1.78204047 1.75377404 -0.29604101
v -1.51665747 1.79867994 -0.296476
v -1.69277954 2.03551888 -0.29604101
v -1.41304647 2.062783 -0.296476
v -1.56488955 2.31584596 -0.29604101
v -1.27185356 2.3230319 -0.296476
v -2.09806656 1.39691495 -0.29558402
v -2.06562948 1.66888403 -0.29558402
v -2.36149954 1.25993502 -0.29512697
v -2.34849357 1.54526102 -0.29512697
v -0.97599852 2.29656004 -0.29693502
v -1.12868952 2.05749893 -0.29693502
v -0.69797152 2.23641204 -0.29739296
v -0.85950452 2.01823997 -0.29739296
v -2.09688949 1.11333298 -0.295587
v -2.33927941 0.96479201 -0.29513001
v -2.0618174 0.84440201 -0.29558998
v -2.28345656 0.68696802 -0.295134
v -0.7884565 2.52507805 -0.296934
v -0.50152152 2.43990993 -0.29740297
v -0.56566453 2.73799705 -0.29693198
v -0.26546549 2.62625289 -0.29739797
v -2.49216461 0.493191 -0.29467797
v -2.57100653 0.77819597 -0.29467499
v -2.68349957 0.26559999 -0.29422199
v -2.78732347 0.55582302 -0.29421901
v -2.38279342 0.232472 -0.29468399
v -2.55002045 0.002819 -0.29422897
v -2.2478404 -0.001839 -0.29469001
v -2.37250948 -0.231389 -0.29423499
v 1.58021354 1.55526101 -0.296476
v 1.51463747 1.80527102 -0.29604101
v 1.77342152 1.76214599 -0.29604101
v 1.82485353 1.49795103 -0.296476
v 2.05728149 1.67985498 -0.29604101
v 2.09143042 1.40087795 -0.296476
v 2.3406744 1.55891299 -0.29604101
v 2.35508155 1.26614105 -0.296476
v 1.40888154 2.0692799 -0.29558402
v 1.68156743 2.04355692 -0.29558402
v 1.2654525 2.32925891 -0.29512697
v 1.55101144 2.32328701 -0.29512697
v 2.33590841 0.96972501 -0.29693502
v 2.09315943 1.11647498 -0.296934
v 2.28263139 0.69029897 -0.29739296
v 2.06054353 0.84640598 -0.29739296
v 1.12541449 2.06111502 -0.295587
v 0.97094649 2.29977011 -0.29513096
v 0.85743045 2.0194261 -0.29558998
v 0.6945815 2.23711705 -0.295134
v 2.56897759 0.78787499 -0.296934
v 2.49330449 0.50062102 -0.29739201
v 2.78732347 0.57040298 -0.29693198
v 2.68707037 0.27722498 -0.29738998
v 0.49572148 2.44098496 -0.29467797
v 0.77869647 2.526829 -0.29467499
v 0.26348349 2.62665295 -0.29422199
v 0.55105948 2.73759794 -0.29421901
v 2.55785441 -0.008087 -0.29785001
v 2.3819344 0.22891999 -0.29830998
v 0.23779448 2.32522106 -0.29468399
v 0.00530748 2.48483109 -0.29423898
v 0.01005348 2.18963503 -0.29468399
v -0.2214775 2.32593894 -0.29423499
v -1.78204047 -1.75377404 -0.29604101
v -1.83152949 -1.49613094 -0.29604101
v -1.57998049 -1.55552697 -0.296476
v -1.51665747 -1.79868102 -0.296476
v -1.41304647 -2.062783 -0.296476
v -1.69277954 -2.03551888 -0.29604101
v -1.27185356 -2.32303309 -0.296476
v -1.56488955 -2.31584596 -0.29604101
v -2.06562948 -1.66888499 -0.29558402
v -2.09806656 -1.39691603 -0.29558402
v -2.34849357 -1.54526197 -0.29512697
v -2.36149954 -1.25993597 -0.29512697
v -1.12868952 -2.05749893 -0.29693502
v -0.97599852 -2.29655909 -0.29693502
v -0.85950452 -2.01823997 -0.29739296
v -0.69797152 -2.236413 -0.29739296
v -2.33927941 -0.96479302 -0.29513001
v -2.09688949 -1.11333394 -0.295587
v -2.28345656 -0.68696898 -0.295134
v -2.0618174 -0.84440302 -0.29558998
v -0.50152152 -2.43990993 -0.29740297
v -0.7884565 -2.52507805 -0.29693299
v -0.26546549 -2.62625289 -0.29739797
v -0.56566453 -2.73799705 -0.29693198
v -2.57100653 -0.77819699 -0.29467499
v -2.49187254 -0.49316 -0.29467797
v -2.78732347 -0.55582499 -0.29421901
v -2.6830616 -0.26555201 -0.29422301
v 1.77342152 -1.76214599 -0.29604101
v 1.51463747 -1.80527102 -0.29604101
v 1.58021354 -1.55526101 -0.296476
v 1.82485353 -1.49795305 -0.296476
v 2.09143042 -1.40087997 -0.296476
v 2.05728149 -1.67985498 -0.29604101
v 2.35508155 -1.26614105 -0.296476
v 2.3406744 -1.55891394 -0.29604101
v 1.68156743 -2.04355692 -0.29558402
v 1.40888154 -2.0692799 -0.29558402
v 1.55101144 -2.32328701 -0.29512697
v 1.2654525 -2.32925891 -0.29512697
v 2.09315943 -1.11647605 -0.296934
v 2.33590841 -0.96972602 -0.29693502
v 2.06054353 -0.84640699 -0.29739296
v 2.28263139 -0.690301 -0.29739296
v 0.97094649 -2.29977011 -0.29513001
v 1.12541544 -2.06111502 -0.295587
v 0.6945815 -2.23711705 -0.295134
v 0.85743045 -2.0194261 -0.29558998
v 2.49302244 -0.500593 -0.29739201
v 2.56897759 -0.78787601 -0.296934
v 2.68664741 -0.27718201 -0.29739099
v 2.78732347 -0.57040399 -0.29693198
v 0.77869647 -2.526829 -0.29467499
v 0.49572148 -2.44098591 -0.29467797
v 0.55105948 -2.73759794 -0.29421901
v 0.26348349 -2.62665391 -0.29422199
v 2.38787245 -0.235401 -0.29785198
v 2.25612258 0.00355 -0.29831099
v 0.00530748 -2.48483109 -0.29423898
v 0.23779448 -2.3252201 -0.29468399
v -0.2214775 -2.32593894 -0.294236
v 0.01005348 -2.18963599 -0.29468399
g Group32941
f 132 131 130 129
g Group32944
f 1 3 132 129
f 2 1 129 130
g Group36759
f 3 1 2 4
g Group32941
f 132 134 133 131
g Group32944
f 10 4 131 133
f 3 9 134 132
g Group36759
f 3 4 10 9
g Group32941
f 134 136 135 133
g Group32944
f 6 10 133 135
f 5 6 135 136
g Group36759
f 9 10 6 5
g Group32941
f 131 138 137 130
g Group32944
f 12 2 130 137
f 4 11 138 131
g Group36759
f 4 2 12 11
g Group32941
f 138 140 139 137
g Group32944
f 7 8 139 140
f 11 7 140 138
g Group36759
f 11 12 8 7
g Group32941
f 134 142 141 136
g Group32944
f 18 5 136 141
f 9 17 142 134
g Group36759
f 9 5 18 17
g Group32941
f 142 144 143 141
g Group32944
f 13 14 143 144
f 17 13 144 142
g Group36759
f 17 18 14 13
g Group32941
f 139 146 145 137
g Group32944
f 20 12 137 145
f 8 19 146 139
g Group36759
f 8 12 20 19
g Group32941
f 146 148 147 145
g Group32944
f 16 20 145 147
f 15 16 147 148
g Group36759
f 19 20 16 15
g Group32941
f 143 150 149 141
g Group32944
f 26 18 141 149
f 14 25 150 143
g Group36759
f 14 18 26 25
g Group32941
f 150 152 151 149
g Group32944
f 22 26 149 151
f 21 22 151 152
g Group36759
f 25 26 22 21
g Group32941
f 146 154 153 148
g Group32944
f 28 15 148 153
f 19 27 154 146
g Group36759
f 19 15 28 27
g Group32941
f 154 156 155 153
g Group32944
f 23 24 155 156
f 27 23 156 154
g Group36759
f 27 28 24 23
g Group32941
f 155 158 157 153
g Group32944
f 32 28 153 157
f 24 31 158 155
g Group36759
f 24 28 32 31
g Group32941
f 158 160 159 157
g Group32944
f 30 32 157 159
f 29 30 159 160
g Group36759
f 31 32 30 29
g Group32941
f 164 163 162 161
g Group32944
f 33 35 164 161
f 34 33 161 162
g Group36759
f 35 33 34 36
g Group32941
f 164 166 165 163
g Group32944
f 42 36 163 165
f 35 41 166 164
g Group36759
f 35 36 42 41
g Group32941
f 166 168 167 165
g Group32944
f 38 42 165 167
f 37 38 167 168
g Group36759
f 41 42 38 37
g Group32941
f 163 170 169 162
g Group32944
f 44 34 162 169
f 36 43 170 163
g Group36759
f 36 34 44 43
g Group32941
f 170 172 171 169
g Group32944
f 39 40 171 172
f 43 39 172 170
g Group36759
f 43 44 40 39
g Group32941
f 166 174 173 168
g Group32944
f 50 37 168 173
f 41 49 174 166
g Group36759
f 41 37 50 49
g Group32941
f 174 176 175 173
g Group32944
f 45 46 175 176
f 49 45 176 174
g Group36759
f 49 50 46 45
g Group32941
f 171 178 177 169
g Group32944
f 52 44 169 177
f 40 51 178 171
g Group36759
f 40 44 52 51
g Group32941
f 178 180 179 177
g Group32944
f 48 52 177 179
f 47 48 179 180
g Group36759
f 51 52 48 47
g Group32941
f 175 182 181 173
g Group32944
f 58 50 173 181
f 46 57 182 175
g Group36759
f 46 50 58 57
g Group32941
f 182 184 183 181
g Group32944
f 54 58 181 183
f 53 54 183 184
g Group36759
f 57 58 54 53
g Group32941
f 178 186 185 180
g Group32944
f 60 47 180 185
f 51 59 186 178
g Group36759
f 51 47 60 59
g Group32941
f 186 188 187 185
g Group32944
f 55 56 187 188
f 59 55 188 186
g Group36759
f 59 60 56 55
g Group32941
f 182 190 189 184
g Group32944
f 124 53 184 189
f 57 122 190 182
g Group36759
f 57 53 124 122
g Group32941
f 187 192 191 185
g Group32944
f 62 60 185 191
f 56 61 192 187
g Group36759
f 56 60 62 61
g Group32941
f 191 192 194 193
g Group32944
f 64 62 191 193
f 63 64 193 194
g Group36759
f 62 64 63 61
g Group32941
f 152 150 194 192
g Group32944
f 61 21 152 192
f 25 63 194 150
g Group36759
f 21 61 63 25
g Group32941
f 198 197 196 195
g Group32944
f 65 66 196 197
f 67 65 197 198
g Group36759
f 67 68 66 65
g Group32941
f 198 195 200 199
g Group32944
f 73 67 198 199
f 68 74 200 195
g Group36759
f 67 73 74 68
g Group32941
f 199 200 202 201
g Group32944
f 70 69 201 202
f 74 70 202 200
g Group36759
f 73 69 70 74
g Group32941
f 195 196 204 203
g Group32944
f 75 68 195 203
f 66 76 204 196
g Group36759
f 68 75 76 66
g Group32941
f 203 204 206 205
g Group32944
f 71 75 203 205
f 72 71 205 206
g Group36759
f 75 71 72 76
g Group32941
f 199 201 208 207
g Group32944
f 81 73 199 207
f 69 82 208 201
g Group36759
f 73 81 82 69
g Group32941
f 207 208 210 209
g Group32944
f 77 81 207 209
f 78 77 209 210
g Group36759
f 81 77 78 82
g Group32941
f 206 204 212 211
g Group32944
f 83 72 206 211
f 76 84 212 204
g Group36759
f 72 83 84 76
g Group32941
f 211 212 214 213
g Group32944
f 80 79 213 214
f 84 80 214 212
g Group36759
f 83 79 80 84
g Group32941
f 210 208 216 215
g Group32944
f 89 78 210 215
f 82 90 216 208
g Group36759
f 78 89 90 82
g Group32941
f 215 216 218 217
g Group32944
f 86 85 217 218
f 90 86 218 216
g Group36759
f 89 85 86 90
g Group32941
f 211 213 220 219
g Group32944
f 91 83 211 219
f 79 92 220 213
g Group36759
f 83 91 92 79
g Group32941
f 219 220 222 221
g Group32944
f 87 91 219 221
f 88 87 221 222
g Group36759
f 91 87 88 92
g Group32941
f 222 220 160 158
g Group32944
f 31 88 222 158
f 92 29 160 220
g Group36759
f 88 31 29 92
g Group32941
f 226 225 224 223
g Group32944
f 93 94 224 225
f 95 93 225 226
g Group36759
f 95 96 94 93
g Group32941
f 226 223 228 227
g Group32944
f 101 95 226 227
f 96 102 228 223
g Group36759
f 95 101 102 96
g Group32941
f 227 228 230 229
g Group32944
f 98 97 229 230
f 102 98 230 228
g Group36759
f 101 97 98 102
g Group32941
f 223 224 232 231
g Group32944
f 103 96 223 231
f 94 104 232 224
g Group36759
f 96 103 104 94
g Group32941
f 231 232 234 233
g Group32944
f 99 103 231 233
f 100 99 233 234
g Group36759
f 103 99 100 104
g Group32941
f 227 229 236 235
g Group32944
f 109 101 227 235
f 97 110 236 229
g Group36759
f 101 109 110 97
g Group32941
f 235 236 238 237
g Group32944
f 105 109 235 237
f 106 105 237 238
g Group36759
f 109 105 106 110
g Group32941
f 234 232 240 239
g Group32944
f 111 100 234 239
f 104 112 240 232
g Group36759
f 100 111 112 104
g Group32941
f 239 240 242 241
g Group32944
f 108 107 241 242
f 112 108 242 240
g Group36759
f 111 107 108 112
g Group32941
f 238 236 244 243
g Group32944
f 117 106 238 243
f 110 118 244 236
g Group36759
f 106 117 118 110
g Group32941
f 243 244 246 245
g Group32944
f 114 113 245 246
f 118 114 246 244
g Group36759
f 117 113 114 118
g Group32941
f 239 241 248 247
g Group32944
f 119 111 239 247
f 107 120 248 241
g Group36759
f 111 119 120 107
g Group32941
f 247 248 250 249
g Group32944
f 115 119 247 249
f 116 115 249 250
g Group36759
f 119 115 116 120
g Group32941
f 243 245 189 251
g Group32944
f 123 117 243 251
f 113 124 189 245
g Group36759
f 117 123 124 113
g Group32941
f 251 189 190 252
g Group32944
f 121 123 251 252
f 122 121 252 190
g Group36759
f 123 121 122 124
g Group32941
f 250 248 254 253
g Group32944
f 125 116 250 253
f 120 126 254 248
g Group36759
f 116 125 126 120
g Group32941
f 254 256 255 253
g Group32944
f 128 127 255 256
f 126 128 256 254
g Group36759
f 126 125 127 128
g Group32941
f 217 253 255 215
g Group32944
f 127 89 215 255
f 85 125 253 217
g Group36759
f 85 89 127 125

 