# File exported by ZBrush version 2021
# www.zbrush.com
#Vertex Count 800
#Face Count 800
#Auto scale x=1.000000 y=1.000000 z=1.000000
#Auto offset x=0.000000 y=0.000000 z=0.000000
v -0.078795 2.63796496 0.1955485
v -0.31317201 2.62101411 0.1955485
v 0.31830799 2.63576102 0.1955485
v 0.111238 2.62561297 0.1955485
v -0.046824 2.68467807 0.1955485
v -0.229865 2.79685497 0.1955485
v 0.23109899 2.796911 0.1955485
v 0.064971 2.68389105 0.1955485
v 0.009789 2.704988 0.1955485
v 0.009299 2.86332511 0.1955485
v 0.491802 2.47600603 0.1955485
v 0.71065098 2.42399096 0.1955485
v 0.117568 2.47387599 0.1955485
v 0.31189099 2.52857494 0.1955485
v 0.45283201 2.43651008 0.1955485
v 0.58101099 2.28566789 0.1955485
v 0.196961 2.34785199 0.1955485
v 0.35078701 2.45317411 0.1955485
v 0.39815101 2.42555308 0.1955485
v 0.37413498 2.26904988 0.1955485
v 0.74330699 2.53552103 0.1955485
v 0.51470601 2.58994007 0.1955485
v 1.12130999 2.41382694 0.1955485
v 0.920798 2.46651291 0.1955485
v 0.787862 2.570441 0.1955485
v 0.64710199 2.73252606 0.1955485
v 1.08668303 2.59375596 0.1955485
v 0.89423102 2.53602099 0.1955485
v 0.84796398 2.57276105 0.1955485
v 0.89518201 2.72388792 0.1955485
v 0.881136 2.31991195 0.1955485
v 1.08290994 2.31355691 0.1955485
v 0.91888898 2.17583489 0.1955485
v 1.09729194 2.22993588 0.1955485
v 1.98299503 1.80250394 0.1955485
v 2.09896707 1.630656 0.1955485
v 2.16426396 1.82926595 0.1955485
v 2.1733489 1.62854099 0.1955485
v 1.75113201 1.845649 0.1955485
v 1.57833802 1.98966896 0.1955485
v 1.97370302 1.54478204 0.1955485
v 1.90103495 1.73313105 0.1955485
v 1.74286699 1.79077994 0.1955485
v 1.5453 1.80299401 0.1955485
v 1.82523596 1.53281605 0.1955485
v 1.81736302 1.71907997 0.1955485
v 1.76687002 1.74044299 0.1955485
v 1.65597701 1.62742698 0.1955485
v 1.64805102 2.08265399 0.1955485
v 1.82861304 1.93226504 0.1955485
v 1.32409596 2.31232404 0.1955485
v 1.48643803 2.18338298 0.1955485
v 1.64929795 2.13924408 0.1955485
v 1.863415 2.1237061 0.1955485
v 1.48888897 2.39243793 0.1955485
v 1.55800104 2.20377206 0.1955485
v 1.61513805 2.18875098 0.1955485
v 1.70782601 2.31712198 0.1955485
v 1.39285004 2.06377601 0.1955485
v 1.26683497 2.2214899 0.1955485
v 1.25487995 2.00765109 0.1955485
v 1.19127905 2.18289089 0.1955485
v 1.13574004 2.18923497 0.1955485
v 1.06385695 2.04745602 0.1955485
v -0.49180498 2.47600603 0.1955485
v -0.710653 2.42399096 0.1955485
v -0.11756999 2.47387599 0.1955485
v -0.311892 2.52857494 0.1955485
v -0.45283401 2.43651008 0.1955485
v -0.58101302 2.28566789 0.1955485
v -0.19696299 2.34785199 0.1955485
v -0.35078901 2.45317411 0.1955485
v -0.398153 2.42555308 0.1955485
v -0.37413701 2.26904988 0.1955485
v -0.74330902 2.53552103 0.1955485
v -0.51470798 2.58994007 0.1955485
v -1.12131202 2.41382694 0.1955485
v -0.92079997 2.46651291 0.1955485
v -0.78786402 2.570441 0.1955485
v -0.64710402 2.73252606 0.1955485
v -1.08668398 2.59375596 0.1955485
v -0.89423298 2.53601789 0.1955485
v -0.84796601 2.57276105 0.1955485
v -0.89518302 2.72388601 0.1955485
v -0.88113802 2.31991195 0.1955485
v -1.08291196 2.31355309 0.1955485
v -0.91888999 2.17583394 0.1955485
v -1.09729301 2.22993397 0.1955485
v -1.98299694 1.80250096 0.1955485
v -2.09896898 1.63065397 0.1955485
v -2.1642661 1.82926595 0.1955485
v -2.1733489 1.62854099 0.1955485
v -1.75113403 1.845649 0.1955485
v -1.57834005 1.98966705 0.1955485
v -1.97370398 1.54478204 0.1955485
v -1.90103697 1.73313105 0.1955485
v -1.74286997 1.79077994 0.1955485
v -1.54530096 1.80299401 0.1955485
v -1.82523798 1.53281199 0.1955485
v -1.81736505 1.71907794 0.1955485
v -1.76687097 1.74044299 0.1955485
v -1.65597796 1.627424 0.1955485
v -1.64805305 2.08265399 0.1955485
v -1.82861602 1.93226397 0.1955485
v -1.32409703 2.31232404 0.1955485
v -1.48643994 2.18338298 0.1955485
v -1.64930105 2.13924408 0.1955485
v -1.86341702 2.12370109 0.1955485
v -1.48889005 2.39243602 0.1955485
v -1.55800294 2.20377206 0.1955485
v -1.61513996 2.18875098 0.1955485
v -1.70782899 2.31712198 0.1955485
v -1.39285194 2.06377196 0.1955485
v -1.26683604 2.2214899 0.1955485
v -1.25488197 2.00765109 0.1955485
v -1.19128096 2.18288898 0.1955485
v -1.13574099 2.18923497 0.1955485
v -1.06385898 2.04745292 0.1955485
v 2.76725411 0.087531 0.1955485
v 2.73642206 0.32048898 0.1955485
v 2.81578111 0.058389 0.1955485
v 2.9168961 0.24776299 0.1955485
v 2.83941793 0.00308 0.1955485
v 2.9974451 0.012966 0.1955485
v 2.58107304 0.49020299 0.1955485
v 2.51616311 0.705576 0.1955485
v 2.60115194 0.116498 0.1955485
v 2.64422488 0.313721 0.1955485
v 2.54395699 0.44895499 0.1955485
v 2.3857789 0.56795901 0.1955485
v 2.47063803 0.18827499 0.1955485
v 2.56664705 0.34807598 0.1955485
v 2.53626895 0.39372199 0.1955485
v 2.38146591 0.360457 0.1955485
v 2.62556099 0.74479502 0.1955485
v 2.69344806 0.51982402 0.1955485
v 2.48164796 1.11491298 0.1955485
v 2.54613995 0.91787797 0.1955485
v 2.65776801 0.79134702 0.1955485
v 2.82792806 0.66044902 0.1955485
v 2.66331791 1.09101903 0.1955485
v 2.61710095 0.89547801 0.1955485
v 2.65651893 0.85147398 0.1955485
v 2.80458402 0.90758001 0.1955485
v 2.40215301 0.86958199 0.1955485
v 2.38382792 1.07062602 0.1955485
v 2.2560811 0.89871597 0.1955485
v 2.29950594 1.08001899 0.1955485
v 2.36828994 1.311311 0.1955485
v 2.22994208 1.46572005 0.1955485
v 2.43848109 1.48056995 0.1955485
v 2.24604702 1.53836596 0.1955485
v 2.22766089 1.59451103 0.1955485
v 2.35030794 1.69464802 0.1955485
v 2.11609911 1.36519503 0.1955485
v 2.28101205 1.24876296 0.1955485
v 2.0682559 1.22413694 0.1955485
v 2.24696588 1.17104995 0.1955485
v 2.25659608 1.11598897 0.1955485
v 2.11933088 1.03581404 0.1955485
v -2.76725411 0.087531 0.1955485
v -2.7364211 0.32048898 0.1955485
v -2.81577992 0.058389 0.1955485
v -2.9168961 0.24776299 0.1955485
v -2.83941698 0.00308 0.1955485
v -2.9974451 0.012966 0.1955485
v -2.58107304 0.49020299 0.1955485
v -2.51616191 0.705576 0.1955485
v -2.60115099 0.116498 0.1955485
v -2.64422488 0.313721 0.1955485
v -2.54395604 0.44895499 0.1955485
v -2.38577795 0.56795901 0.1955485
v -2.47063803 0.18827499 0.1955485
v -2.56664705 0.34807598 0.1955485
v -2.53626799 0.39372199 0.1955485
v -2.38146591 0.360457 0.1955485
v -2.62556004 0.74479502 0.1955485
v -2.69344806 0.51982402 0.1955485
v -2.48164796 1.11491298 0.1955485
v -2.54613995 0.91787797 0.1955485
v -2.65776705 0.79134702 0.1955485
v -2.82792806 0.66044902 0.1955485
v -2.66331791 1.09101903 0.1955485
v -2.61710095 0.89547801 0.1955485
v -2.65651893 0.85147398 0.1955485
v -2.80458307 0.90758001 0.1955485
v -2.40215301 0.86958199 0.1955485
v -2.38382792 1.07062602 0.1955485
v -2.25607991 0.89871597 0.1955485
v -2.29950594 1.08001899 0.1955485
v -2.36828994 1.311311 0.1955485
v -2.22994208 1.46572005 0.1955485
v -2.43848109 1.48056995 0.1955485
v -2.24604606 1.53836596 0.1955485
v -2.22766089 1.59451103 0.1955485
v -2.35030698 1.69464802 0.1955485
v -2.11609911 1.36519503 0.1955485
v -2.28101205 1.24876296 0.1955485
v -2.0682559 1.22413694 0.1955485
v -2.24696588 1.17104995 0.1955485
v -2.25659608 1.11598897 0.1955485
v -2.11933088 1.03581404 0.1955485
v -0.078795 -2.6379621 0.1955485
v -0.31317201 -2.62100291 0.1955485
v 0.31830799 -2.63575792 0.1955485
v 0.111238 -2.62560701 0.1955485
v -0.046824 -2.68467402 0.1955485
v -0.229865 -2.7968471 0.1955485
v 0.23109899 -2.79690909 0.1955485
v 0.064971 -2.6838901 0.1955485
v 0.009789 -2.70498704 0.1955485
v 0.009299 -2.86332511 0.1955485
v 0.491802 -2.47600507 0.1955485
v 0.71065098 -2.4239881 0.1955485
v 0.117568 -2.47387194 0.1955485
v 0.31189099 -2.52857589 0.1955485
v 0.45283201 -2.43650794 0.1955485
v 0.58101099 -2.28566503 0.1955485
v 0.196961 -2.34785008 0.1955485
v 0.35078701 -2.45317411 0.1955485
v 0.39815101 -2.42555189 0.1955485
v 0.37413498 -2.26904606 0.1955485
v 0.74330699 -2.53551793 0.1955485
v 0.51470601 -2.58993792 0.1955485
v 1.12130999 -2.41382503 0.1955485
v 0.920798 -2.46651101 0.1955485
v 0.787862 -2.57043194 0.1955485
v 0.64710199 -2.73252606 0.1955485
v 1.08668303 -2.5937519 0.1955485
v 0.89423102 -2.53601694 0.1955485
v 0.84796398 -2.5727601 0.1955485
v 0.89518201 -2.72388196 0.1955485
v 0.881136 -2.31991004 0.1955485
v 1.08290994 -2.31355094 0.1955485
v 0.91888898 -2.17583203 0.1955485
v 1.09729194 -2.22993207 0.1955485
v 1.98299503 -1.80250096 0.1955485
v 2.09896707 -1.63065397 0.1955485
v 2.16426396 -1.82926404 0.1955485
v 2.1733489 -1.62854099 0.1955485
v 1.75113201 -1.84564697 0.1955485
v 1.57833802 -1.98966705 0.1955485
v 1.97370302 -1.54478001 0.1955485
v 1.90103495 -1.73312997 0.1955485
v 1.74286699 -1.79077804 0.1955485
v 1.5453 -1.80299198 0.1955485
v 1.82523596 -1.53281402 0.1955485
v 1.81736302 -1.71907794 0.1955485
v 1.76687002 -1.74044096 0.1955485
v 1.65597701 -1.62741994 0.1955485
v 1.64805102 -2.08265209 0.1955485
v 1.82861304 -1.93226194 0.1955485
v 1.32409596 -2.3123219 0.1955485
v 1.48643803 -2.18338108 0.1955485
v 1.64929795 -2.13924408 0.1955485
v 1.863415 -2.12370109 0.1955485
v 1.48888897 -2.39243388 0.1955485
v 1.55800104 -2.20376491 0.1955485
v 1.61513805 -2.18874907 0.1955485
v 1.70782601 -2.31712102 0.1955485
v 1.39285004 -2.0637741 0.1955485
v 1.26683497 -2.22148799 0.1955485
v 1.25487995 -2.00764894 0.1955485
v 1.19127905 -2.18288707 0.1955485
v 1.13574004 -2.18923306 0.1955485
v 1.06385695 -2.04745411 0.1955485
v -0.49180498 -2.47600507 0.1955485
v -0.710653 -2.4239881 0.1955485
v -0.11756999 -2.47387194 0.1955485
v -0.311892 -2.52857589 0.1955485
v -0.45283401 -2.43650794 0.1955485
v -0.58101302 -2.28566503 0.1955485
v -0.19696299 -2.34785008 0.1955485
v -0.35078901 -2.45317411 0.1955485
v -0.398153 -2.42555189 0.1955485
v -0.37413701 -2.26904606 0.1955485
v -0.74330902 -2.53551793 0.1955485
v -0.51470798 -2.58993792 0.1955485
v -1.12131202 -2.41382503 0.1955485
v -0.92079997 -2.46651101 0.1955485
v -0.78786402 -2.57043194 0.1955485
v -0.64710402 -2.73252606 0.1955485
v -1.08668398 -2.5937519 0.1955485
v -0.89423298 -2.53601694 0.1955485
v -0.84796601 -2.5727601 0.1955485
v -0.89518302 -2.72388196 0.1955485
v -0.88113802 -2.31990695 0.1955485
v -1.08291196 -2.31355094 0.1955485
v -0.91888999 -2.17583203 0.1955485
v -1.09729301 -2.22993207 0.1955485
v -1.98299694 -1.80249905 0.1955485
v -2.09896898 -1.63064897 0.1955485
v -2.1642661 -1.82926404 0.1955485
v -2.1733489 -1.62853896 0.1955485
v -1.75113403 -1.84564697 0.1955485
v -1.57834005 -1.98966205 0.1955485
v -1.97370398 -1.54477703 0.1955485
v -1.90103697 -1.73312103 0.1955485
v -1.74286997 -1.79077804 0.1955485
v -1.54530096 -1.80299198 0.1955485
v -1.82523798 -1.53280997 0.1955485
v -1.81736505 -1.71907603 0.1955485
v -1.76687097 -1.74043905 0.1955485
v -1.65597796 -1.62741994 0.1955485
v -1.64805305 -2.08265209 0.1955485
v -1.82861602 -1.93226194 0.1955485
v -1.32409703 -2.31231904 0.1955485
v -1.48643994 -2.18338108 0.1955485
v -1.64930105 -2.13924193 0.1955485
v -1.86341702 -2.12369895 0.1955485
v -1.48889005 -2.39243006 0.1955485
v -1.55800294 -2.20376491 0.1955485
v -1.61513996 -2.18874907 0.1955485
v -1.70782899 -2.31712102 0.1955485
v -1.39285194 -2.06377005 0.1955485
v -1.26683604 -2.22148799 0.1955485
v -1.25488197 -2.00764894 0.1955485
v -1.19128096 -2.18288493 0.1955485
v -1.13574099 -2.18923306 0.1955485
v -1.06385898 -2.04745101 0.1955485
v 2.76725411 -0.08752799 0.1955485
v 2.73642206 -0.32048401 0.1955485
v 2.81578111 -0.058387 0.1955485
v 2.9168961 -0.24775999 0.1955485
v 2.58107304 -0.49020099 0.1955485
v 2.51616311 -0.70557397 0.1955485
v 2.60115194 -0.116494 0.1955485
v 2.64422488 -0.313719 0.1955485
v 2.54395699 -0.448951 0.1955485
v 2.3857789 -0.56795597 0.1955485
v 2.47063803 -0.18827 0.1955485
v 2.56664705 -0.34807398 0.1955485
v 2.53626895 -0.39371898 0.1955485
v 2.38146591 -0.36045599 0.1955485
v 2.62556099 -0.74479299 0.1955485
v 2.69344806 -0.519822 0.1955485
v 2.48164796 -1.11490798 0.1955485
v 2.54613995 -0.917876 0.1955485
v 2.65776801 -0.791341 0.1955485
v 2.82792806 -0.660447 0.1955485
v 2.66331791 -1.091017 0.1955485
v 2.61710095 -0.89547598 0.1955485
v 2.65651893 -0.85147202 0.1955485
v 2.80458402 -0.90757697 0.1955485
v 2.40215301 -0.86957997 0.1955485
v 2.38382792 -1.07062399 0.1955485
v 2.2560811 -0.898714 0.1955485
v 2.29950594 -1.08001697 0.1955485
v 2.36828994 -1.31130898 0.1955485
v 2.22994208 -1.46571803 0.1955485
v 2.43848109 -1.48056805 0.1955485
v 2.24604702 -1.53836405 0.1955485
v 2.22766089 -1.59450495 0.1955485
v 2.35030794 -1.694646 0.1955485
v 2.11609911 -1.36519205 0.1955485
v 2.28101205 -1.24876105 0.1955485
v 2.0682559 -1.22413504 0.1955485
v 2.24696588 -1.17104601 0.1955485
v 2.25659608 -1.11598396 0.1955485
v 2.11933088 -1.03581202 0.1955485
v -2.76725411 -0.08752799 0.1955485
v -2.7364211 -0.32048401 0.1955485
v -2.81577992 -0.058387 0.1955485
v -2.9168961 -0.24775999 0.1955485
v -2.58107304 -0.49020099 0.1955485
v -2.51616191 -0.70557397 0.1955485
v -2.60115099 -0.116494 0.1955485
v -2.64422488 -0.313719 0.1955485
v -2.54395604 -0.448951 0.1955485
v -2.38577795 -0.56795597 0.1955485
v -2.47063803 -0.18827 0.1955485
v -2.56664705 -0.34807398 0.1955485
v -2.53626799 -0.39371898 0.1955485
v -2.38146591 -0.36045599 0.1955485
v -2.62556004 -0.74479299 0.1955485
v -2.69344806 -0.519822 0.1955485
v -2.48164796 -1.11490798 0.1955485
v -2.54613995 -0.917876 0.1955485
v -2.65776705 -0.791341 0.1955485
v -2.82792806 -0.660447 0.1955485
v -2.66331791 -1.091017 0.1955485
v -2.61710095 -0.89547598 0.1955485
v -2.65651893 -0.85147202 0.1955485
v -2.80458307 -0.90757697 0.1955485
v -2.40215301 -0.86957997 0.1955485
v -2.38382792 -1.07062399 0.1955485
v -2.25607991 -0.898714 0.1955485
v -2.29950594 -1.08001697 0.1955485
v -2.36828994 -1.31130898 0.1955485
v -2.22994208 -1.46571803 0.1955485
v -2.43848109 -1.48056805 0.1955485
v -2.24604606 -1.53836405 0.1955485
v -2.22766089 -1.59450495 0.1955485
v -2.35030698 -1.694646 0.1955485
v -2.11609911 -1.36519205 0.1955485
v -2.28101205 -1.24876105 0.1955485
v -2.0682559 -1.22413504 0.1955485
v -2.24696588 -1.17104601 0.1955485
v -2.25659608 -1.11598396 0.1955485
v -2.11933088 -1.03581202 0.1955485
v -0.229865 2.79685401 -0.1955485
v -0.046824 2.68467688 -0.1955485
v -0.078795 2.63796401 -0.1955485
v -0.31317201 2.62101411 -0.1955485
v 0.06497199 2.68389105 -0.1955485
v 0.23109899 2.796911 -0.1955485
v 0.31830799 2.63576102 -0.1955485
v 0.111238 2.62561297 -0.1955485
v 0.009299 2.86332511 -0.1955485
v 0.009789 2.704988 -0.1955485
v 0.58101099 2.28566908 -0.1955485
v 0.45283299 2.43651008 -0.1955485
v 0.49180299 2.47600698 -0.1955485
v 0.71065098 2.42399191 -0.1955485
v 0.350786 2.45317411 -0.1955485
v 0.19696 2.34785199 -0.1955485
v 0.117568 2.47387599 -0.1955485
v 0.31189099 2.52857494 -0.1955485
v 0.374134 2.26904988 -0.1955485
v 0.39815101 2.42555403 -0.1955485
v 0.64710098 2.73252511 -0.1955485
v 0.787862 2.570441 -0.1955485
v 0.74330699 2.53552103 -0.1955485
v 0.514705 2.58993911 -0.1955485
v 0.89423102 2.53602099 -0.1955485
v 1.08668303 2.593755 -0.1955485
v 1.12130999 2.41382694 -0.1955485
v 0.920798 2.46651291 -0.1955485
v 0.89518201 2.72388792 -0.1955485
v 0.847965 2.57276105 -0.1955485
v 1.09729099 2.22993707 -0.1955485
v 0.91888797 2.17583608 -0.1955485
v 0.881136 2.31991195 -0.1955485
v 1.08290994 2.31355691 -0.1955485
v 1.06385803 2.04745602 -0.1955485
v 1.13574004 2.18923497 -0.1955485
v 1.98299503 1.80250394 -0.1955485
v 2.16426301 1.82926595 -0.1955485
v 2.17334795 1.62854099 -0.1955485
v 2.09896707 1.630656 -0.1955485
v 1.75113296 1.845649 -0.1955485
v 1.74286794 1.79078102 -0.1955485
v 1.54530096 1.80299401 -0.1955485
v 1.57833898 1.98966896 -0.1955485
v 1.97370302 1.54478204 -0.1955485
v 1.82523596 1.53281605 -0.1955485
v 1.81736397 1.71907997 -0.1955485
v 1.90103495 1.73313105 -0.1955485
v 1.76687002 1.74044299 -0.1955485
v 1.65597796 1.62742698 -0.1955485
v 1.64805102 2.08265304 -0.1955485
v 1.64929795 2.13924288 -0.1955485
v 1.863415 2.12370491 -0.1955485
v 1.82861304 1.93226504 -0.1955485
v 1.32409596 2.31232404 -0.1955485
v 1.48888802 2.39243793 -0.1955485
v 1.55799996 2.20377206 -0.1955485
v 1.48643803 2.18338298 -0.1955485
v 1.61513805 2.18875098 -0.1955485
v 1.70782601 2.31712198 -0.1955485
v 1.39285004 2.06377601 -0.1955485
v 1.25488102 2.00765109 -0.1955485
v 1.19128 2.18289089 -0.1955485
v 1.26683497 2.2214899 -0.1955485
v -0.49180498 2.47600698 -0.1955485
v -0.45283499 2.43651008 -0.1955485
v -0.58101302 2.28566908 -0.1955485
v -0.710653 2.42399191 -0.1955485
v -0.11756999 2.47387599 -0.1955485
v -0.19696299 2.34785199 -0.1955485
v -0.35078799 2.45317411 -0.1955485
v -0.311892 2.52857494 -0.1955485
v -0.398153 2.42555403 -0.1955485
v -0.374136 2.26904988 -0.1955485
v -0.74330902 2.53552103 -0.1955485
v -0.78786402 2.570441 -0.1955485
v -0.64710402 2.73252511 -0.1955485
v -0.51470798 2.58993911 -0.1955485
v -1.12131202 2.41382694 -0.1955485
v -1.08668494 2.593755 -0.1955485
v -0.89423298 2.53601789 -0.1955485
v -0.92079997 2.46651291 -0.1955485
v -0.84796601 2.57276105 -0.1955485
v -0.89518398 2.72388601 -0.1955485
v -0.88113802 2.31991195 -0.1955485
v -0.91888999 2.17583394 -0.1955485
v -1.09729301 2.22993397 -0.1955485
v -1.08291196 2.31355309 -0.1955485
v -1.06386005 2.04745292 -0.1955485
v -1.13574099 2.18923497 -0.1955485
v -2.17334795 1.62854099 -0.1955485
v -2.16426491 1.82926595 -0.1955485
v -1.98299694 1.80250096 -0.1955485
v -2.09896898 1.63065397 -0.1955485
v -1.54530096 1.80299401 -0.1955485
v -1.74287104 1.79078102 -0.1955485
v -1.75113403 1.845649 -0.1955485
v -1.57834005 1.98966801 -0.1955485
v -1.817366 1.71907794 -0.1955485
v -1.82523798 1.53281199 -0.1955485
v -1.97370398 1.54478204 -0.1955485
v -1.90103697 1.73313105 -0.1955485
v -1.65597903 1.627424 -0.1955485
v -1.76687097 1.74044299 -0.1955485
v -1.86341702 2.1236999 -0.1955485
v -1.64930105 2.13924288 -0.1955485
v -1.64805305 2.08265304 -0.1955485
v -1.82861495 1.93226397 -0.1955485
v -1.55800294 2.20377206 -0.1955485
v -1.48888897 2.39243602 -0.1955485
v -1.32409703 2.31232404 -0.1955485
v -1.48643994 2.18338298 -0.1955485
v -1.70782804 2.31712198 -0.1955485
v -1.61513996 2.18875098 -0.1955485
v -1.19128203 2.18288898 -0.1955485
v -1.25488305 2.00765109 -0.1955485
v -1.39285194 2.06377196 -0.1955485
v -1.26683604 2.2214899 -0.1955485
v 2.9168961 0.24776299 -0.1955485
v 2.81577992 0.058389 -0.1955485
v 2.76725411 0.087531 -0.1955485
v 2.7364211 0.32048898 -0.1955485
v 2.9974451 0.012966 -0.1955485
v 2.83941793 0.00308 -0.1955485
v 2.58107304 0.49020299 -0.1955485
v 2.54395699 0.44895499 -0.1955485
v 2.38578009 0.56795901 -0.1955485
v 2.51616311 0.705576 -0.1955485
v 2.60115194 0.116498 -0.1955485
v 2.47063803 0.18827499 -0.1955485
v 2.566648 0.348075 -0.1955485
v 2.64422488 0.313721 -0.1955485
v 2.53626895 0.39372101 -0.1955485
v 2.3814671 0.360457 -0.1955485
v 2.62556004 0.74479401 -0.1955485
v 2.65776705 0.79134601 -0.1955485
v 2.82792806 0.66044902 -0.1955485
v 2.69344806 0.51982402 -0.1955485
v 2.48164796 1.11491298 -0.1955485
v 2.66331696 1.09101903 -0.1955485
v 2.61710095 0.89547902 -0.1955485
v 2.54613995 0.91787797 -0.1955485
v 2.65651798 0.85147398 -0.1955485
v 2.80458402 0.90758097 -0.1955485
v 2.40215301 0.86958199 -0.1955485
v 2.2560811 0.89871597 -0.1955485
v 2.2995069 1.08001899 -0.1955485
v 2.38382792 1.07062602 -0.1955485
v 2.11933088 1.035815 -0.1955485
v 2.25659704 1.11598897 -0.1955485
v 2.24604702 1.53836596 -0.1955485
v 2.43848109 1.480569 -0.1955485
v 2.36828994 1.311311 -0.1955485
v 2.22994208 1.46572005 -0.1955485
v 2.35030698 1.69464695 -0.1955485
v 2.22766089 1.59451103 -0.1955485
v 2.24696588 1.17105102 -0.1955485
v 2.0682559 1.22413802 -0.1955485
v 2.11609911 1.36519503 -0.1955485
v 2.28101205 1.24876296 -0.1955485
v -2.76725411 0.087531 -0.1955485
v -2.81577897 0.058389 -0.1955485
v -2.91689491 0.24776299 -0.1955485
v -2.7364211 0.32048898 -0.1955485
v -2.83941698 0.00308 -0.1955485
v -2.9974451 0.012966 -0.1955485
v -2.38577795 0.56795901 -0.1955485
v -2.54395699 0.44895499 -0.1955485
v -2.58107304 0.49020299 -0.1955485
v -2.51616311 0.705576 -0.1955485
v -2.566648 0.348075 -0.1955485
v -2.47063803 0.18827499 -0.1955485
v -2.60115099 0.116498 -0.1955485
v -2.64422488 0.313721 -0.1955485
v -2.38146591 0.360457 -0.1955485
v -2.53626895 0.39372101 -0.1955485
v -2.82792711 0.66044902 -0.1955485
v -2.65776705 0.79134601 -0.1955485
v -2.62556004 0.74479401 -0.1955485
v -2.69344711 0.51982402 -0.1955485
v -2.6171 0.89547902 -0.1955485
v -2.66331696 1.09101903 -0.1955485
v -2.48164796 1.11491298 -0.1955485
v -2.54613995 0.91787797 -0.1955485
v -2.80458307 0.90758097 -0.1955485
v -2.65651798 0.85147398 -0.1955485
v -2.2995069 1.08001899 -0.1955485
v -2.2560811 0.89871597 -0.1955485
v -2.40215301 0.86958199 -0.1955485
v -2.38382792 1.07062602 -0.1955485
v -2.11933088 1.035815 -0.1955485
v -2.25659608 1.11598897 -0.1955485
v -2.36828994 1.311311 -0.1955485
v -2.43848109 1.480569 -0.1955485
v -2.24604606 1.53836596 -0.1955485
v -2.22994208 1.46572005 -0.1955485
v -2.35030603 1.69464695 -0.1955485
v -2.22766089 1.59451103 -0.1955485
v -2.11609911 1.36519503 -0.1955485
v -2.0682559 1.22413802 -0.1955485
v -2.24696588 1.17105102 -0.1955485
v -2.28101205 1.24876296 -0.1955485
v -0.078795 -2.6379621 -0.1955485
v -0.046824 -2.68467402 -0.1955485
v -0.229865 -2.7968471 -0.1955485
v -0.31317201 -2.62100291 -0.1955485
v 0.31830799 -2.63575792 -0.1955485
v 0.23109899 -2.79690909 -0.1955485
v 0.06497199 -2.68388891 -0.1955485
v 0.111238 -2.62560701 -0.1955485
v 0.009789 -2.70498609 -0.1955485
v 0.009299 -2.86332511 -0.1955485
v 0.49180299 -2.47600507 -0.1955485
v 0.45283299 -2.43650889 -0.1955485
v 0.58101099 -2.28566503 -0.1955485
v 0.71065098 -2.4239881 -0.1955485
v 0.117568 -2.47387194 -0.1955485
v 0.19696 -2.34785008 -0.1955485
v 0.350786 -2.45317411 -0.1955485
v 0.31189099 -2.52857589 -0.1955485
v 0.39815101 -2.42555189 -0.1955485
v 0.374134 -2.26904606 -0.1955485
v 0.74330699 -2.53551697 -0.1955485
v 0.787862 -2.57043099 -0.1955485
v 0.64710098 -2.73252511 -0.1955485
v 0.514705 -2.58993792 -0.1955485
v 1.12130999 -2.41382503 -0.1955485
v 1.08668303 -2.5937519 -0.1955485
v 0.89423102 -2.53601598 -0.1955485
v 0.920798 -2.46651101 -0.1955485
v 0.847965 -2.57275891 -0.1955485
v 0.89518201 -2.723881 -0.1955485
v 0.881136 -2.31991004 -0.1955485
v 0.91888797 -2.17583203 -0.1955485
v 1.09729099 -2.22993207 -0.1955485
v 1.08290994 -2.31355094 -0.1955485
v 1.06385803 -2.04745411 -0.1955485
v 1.13574004 -2.18923306 -0.1955485
v 2.17334795 -1.62854099 -0.1955485
v 2.16426301 -1.82926404 -0.1955485
v 1.98299503 -1.80250096 -0.1955485
v 2.09896707 -1.63065397 -0.1955485
v 1.54530096 -1.80299305 -0.1955485
v 1.74286794 -1.79077899 -0.1955485
v 1.75113296 -1.84564805 -0.1955485
v 1.57833898 -1.98966801 -0.1955485
v 1.81736397 -1.71907794 -0.1955485
v 1.82523596 -1.53281402 -0.1955485
v 1.97370302 -1.54478001 -0.1955485
v 1.90103495 -1.73312997 -0.1955485
v 1.65597796 -1.62741994 -0.1955485
v 1.76687002 -1.74044096 -0.1955485
v 1.863415 -2.12370109 -0.1955485
v 1.64929795 -2.13924408 -0.1955485
v 1.64805102 -2.08265209 -0.1955485
v 1.82861304 -1.93226194 -0.1955485
v 1.55799996 -2.20376491 -0.1955485
v 1.48888802 -2.39243388 -0.1955485
v 1.32409596 -2.3123219 -0.1955485
v 1.48643803 -2.18338108 -0.1955485
v 1.70782601 -2.31712102 -0.1955485
v 1.61513805 -2.18874907 -0.1955485
v 1.19128 -2.18288707 -0.1955485
v 1.25488102 -2.00764894 -0.1955485
v 1.39285004 -2.0637741 -0.1955485
v 1.26683497 -2.22148799 -0.1955485
v -0.58101302 -2.28566503 -0.1955485
v -0.45283499 -2.43650889 -0.1955485
v -0.49180498 -2.47600507 -0.1955485
v -0.710653 -2.4239881 -0.1955485
v -0.35078799 -2.45317411 -0.1955485
v -0.19696299 -2.34785008 -0.1955485
v -0.11756999 -2.47387194 -0.1955485
v -0.311892 -2.52857589 -0.1955485
v -0.374136 -2.26904606 -0.1955485
v -0.398153 -2.42555189 -0.1955485
v -0.64710402 -2.73252511 -0.1955485
v -0.78786402 -2.57043099 -0.1955485
v -0.74330902 -2.53551697 -0.1955485
v -0.51470798 -2.58993792 -0.1955485
v -0.89423298 -2.53601598 -0.1955485
v -1.08668494 -2.5937519 -0.1955485
v -1.12131202 -2.41382503 -0.1955485
v -0.92079997 -2.46651101 -0.1955485
v -0.89518398 -2.723881 -0.1955485
v -0.84796601 -2.57275891 -0.1955485
v -1.09729301 -2.22993207 -0.1955485
v -0.91888999 -2.17583203 -0.1955485
v -0.88113802 -2.31990695 -0.1955485
v -1.08291196 -2.31355094 -0.1955485
v -1.06386005 -2.04745197 -0.1955485
v -1.13574099 -2.18923306 -0.1955485
v -1.98299694 -1.80249905 -0.1955485
v -2.16426491 -1.82926404 -0.1955485
v -2.17334795 -1.62853896 -0.1955485
v -2.09896898 -1.63064897 -0.1955485
v -1.75113403 -1.84564805 -0.1955485
v -1.74287104 -1.79077899 -0.1955485
v -1.54530096 -1.80299305 -0.1955485
v -1.57834005 -1.989663 -0.1955485
v -1.97370398 -1.54477703 -0.1955485
v -1.82523798 -1.53280997 -0.1955485
v -1.817366 -1.71907603 -0.1955485
v -1.90103697 -1.73312103 -0.1955485
v -1.76687097 -1.74043798 -0.1955485
v -1.65597903 -1.62741994 -0.1955485
v -1.64805305 -2.08265209 -0.1955485
v -1.64930105 -2.13924193 -0.1955485
v -1.86341702 -2.12369895 -0.1955485
v -1.82861495 -1.93226194 -0.1955485
v -1.32409703 -2.31231904 -0.1955485
v -1.48888897 -2.39243006 -0.1955485
v -1.55800294 -2.20376491 -0.1955485
v -1.48643994 -2.18338108 -0.1955485
v -1.61513996 -2.18874907 -0.1955485
v -1.70782804 -2.31712102 -0.1955485
v -1.39285194 -2.06377005 -0.1955485
v -1.25488305 -2.00764894 -0.1955485
v -1.19128203 -2.18288493 -0.1955485
v -1.26683604 -2.22148799 -0.1955485
v 2.76725411 -0.08752799 -0.1955485
v 2.81577992 -0.058387 -0.1955485
v 2.9168961 -0.24775999 -0.1955485
v 2.7364211 -0.32048401 -0.1955485
v 2.38578009 -0.56795597 -0.1955485
v 2.54395794 -0.448951 -0.1955485
v 2.58107399 -0.49020099 -0.1955485
v 2.51616311 -0.70557397 -0.1955485
v 2.566648 -0.348073 -0.1955485
v 2.47063803 -0.188269 -0.1955485
v 2.60115194 -0.116494 -0.1955485
v 2.64422488 -0.313719 -0.1955485
v 2.3814671 -0.360455 -0.1955485
v 2.53626895 -0.393718 -0.1955485
v 2.82792806 -0.660447 -0.1955485
v 2.65776705 -0.79133999 -0.1955485
v 2.62556004 -0.74479299 -0.1955485
v 2.69344806 -0.519822 -0.1955485
v 2.61710095 -0.89547699 -0.1955485
v 2.66331696 -1.091017 -0.1955485
v 2.48164796 -1.11490798 -0.1955485
v 2.54613995 -0.917876 -0.1955485
v 2.80458402 -0.90757697 -0.1955485
v 2.65651798 -0.85147202 -0.1955485
v 2.2995069 -1.08001697 -0.1955485
v 2.2560811 -0.898714 -0.1955485
v 2.40215301 -0.86957997 -0.1955485
v 2.38382792 -1.07062399 -0.1955485
v 2.11933088 -1.03581297 -0.1955485
v 2.25659704 -1.11598396 -0.1955485
v 2.36828994 -1.31130898 -0.1955485
v 2.43848109 -1.48056697 -0.1955485
v 2.24604702 -1.53836405 -0.1955485
v 2.22994208 -1.46571803 -0.1955485
v 2.35030698 -1.694646 -0.1955485
v 2.22766089 -1.59450495 -0.1955485
v 2.11609911 -1.36519205 -0.1955485
v 2.0682559 -1.22413599 -0.1955485
v 2.24696588 -1.17104697 -0.1955485
v 2.28101205 -1.24876105 -0.1955485
v -2.91689491 -0.24775999 -0.1955485
v -2.81577897 -0.058387 -0.1955485
v -2.76725411 -0.08752799 -0.1955485
v -2.7364211 -0.32048401 -0.1955485
v -2.58107304 -0.49020099 -0.1955485
v -2.54395699 -0.448951 -0.1955485
v -2.38577795 -0.56795597 -0.1955485
v -2.51616311 -0.70557397 -0.1955485
v -2.60115099 -0.116494 -0.1955485
v -2.47063803 -0.188269 -0.1955485
v -2.566648 -0.348073 -0.1955485
v -2.64422488 -0.313719 -0.1955485
v -2.53626895 -0.393718 -0.1955485
v -2.38146591 -0.360455 -0.1955485
v -2.62556004 -0.74479299 -0.1955485
v -2.65776705 -0.79133999 -0.1955485
v -2.82792711 -0.660447 -0.1955485
v -2.69344711 -0.519822 -0.1955485
v -2.48164796 -1.11490798 -0.1955485
v -2.66331696 -1.091017 -0.1955485
v -2.6171 -0.89547699 -0.1955485
v -2.54613995 -0.917876 -0.1955485
v -2.65651798 -0.85147202 -0.1955485
v -2.80458307 -0.90757697 -0.1955485
v -2.40215301 -0.86957997 -0.1955485
v -2.2560811 -0.898714 -0.1955485
v -2.2995069 -1.08001697 -0.1955485
v -2.38382792 -1.07062399 -0.1955485
v -2.11933088 -1.03581297 -0.1955485
v -2.25659608 -1.11598396 -0.1955485
v -2.24604606 -1.53836405 -0.1955485
v -2.43848109 -1.48056697 -0.1955485
v -2.36828994 -1.31130898 -0.1955485
v -2.22994208 -1.46571803 -0.1955485
v -2.35030603 -1.694646 -0.1955485
v -2.22766089 -1.59450495 -0.1955485
v -2.24696588 -1.17104697 -0.1955485
v -2.0682559 -1.22413599 -0.1955485
v -2.11609911 -1.36519205 -0.1955485
v -2.28101205 -1.24876105 -0.1955485
g Group32941
f 404 403 402 401
g Group32944
f 6 2 404 401
f 1 5 402 403
g Group33565
f 2 6 5 1
g Group32941
f 408 407 406 405
g Group32944
f 8 4 408 405
f 3 7 406 407
g Group33565
f 4 8 7 3
g Group32941
f 402 410 409 401
g Group32944
f 10 6 401 409
f 5 9 410 402
g Group33565
f 5 6 10 9
g Group32941
f 410 405 406 409
g Group32944
f 7 10 409 406
f 9 8 405 410
g Group33565
f 9 10 7 8
g Group32941
f 414 413 412 411
g Group32944
f 16 12 414 411
f 11 15 412 413
g Group33565
f 12 16 15 11
g Group32941
f 418 417 416 415
g Group32944
f 18 14 418 415
f 13 17 416 417
g Group33565
f 14 18 17 13
g Group32941
f 412 420 419 411
g Group32944
f 20 16 411 419
f 15 19 420 412
g Group33565
f 15 16 20 19
g Group32941
f 420 415 416 419
g Group32944
f 17 20 419 416
f 19 18 415 420
g Group33565
f 19 20 17 18
g Group32941
f 407 408 417 418
g Group32944
f 14 3 407 418
f 4 13 417 408
g Group33565
f 3 14 13 4
g Group32941
f 424 423 422 421
g Group32944
f 26 22 424 421
f 21 25 422 423
g Group33565
f 22 26 25 21
g Group32941
f 428 427 426 425
g Group32944
f 28 24 428 425
f 23 27 426 427
g Group33565
f 24 28 27 23
g Group32941
f 422 430 429 421
g Group32944
f 30 26 421 429
f 25 29 430 422
g Group33565
f 25 26 30 29
g Group32941
f 430 425 426 429
g Group32944
f 27 30 429 426
f 29 28 425 430
g Group33565
f 29 30 27 28
g Group32941
f 434 433 432 431
g Group32944
f 34 32 434 431
f 31 33 432 433
g Group33565
f 32 34 33 31
g Group32941
f 436 431 432 435
g Group32944
f 33 64 435 432
f 63 34 431 436
g Group33565
f 63 64 33 34
g Group32941
f 427 428 433 434
g Group32944
f 32 23 427 434
f 24 31 433 428
g Group33565
f 23 32 31 24
g Group32941
f 423 424 413 414
g Group32944
f 12 21 423 414
f 22 11 413 424
g Group33565
f 21 12 11 22
g Group32941
f 440 439 438 437
g Group32944
f 37 35 437 438
f 36 38 439 440
g Group33565
f 36 35 37 38
g Group32941
f 444 443 442 441
g Group32944
f 43 39 441 442
f 40 44 443 444
g Group33565
f 40 39 43 44
g Group32941
f 448 447 446 445
g Group32944
f 45 41 445 446
f 42 46 447 448
g Group33565
f 42 41 45 46
g Group32941
f 442 443 450 449
g Group32944
f 47 43 442 449
f 44 48 450 443
g Group33565
f 43 47 48 44
g Group32941
f 449 450 446 447
g Group32944
f 46 47 449 447
f 48 45 446 450
g Group33565
f 47 46 45 48
g Group32941
f 437 448 445 440
g Group32944
f 41 36 440 445
f 35 42 448 437
g Group33565
f 35 36 41 42
g Group32941
f 454 453 452 451
g Group32944
f 53 49 451 452
f 50 54 453 454
g Group33565
f 50 49 53 54
g Group32941
f 458 457 456 455
g Group32944
f 55 51 455 456
f 52 56 457 458
g Group33565
f 52 51 55 56
g Group32941
f 452 453 460 459
g Group32944
f 57 53 452 459
f 54 58 460 453
g Group33565
f 53 57 58 54
g Group32941
f 459 460 456 457
g Group32944
f 56 57 459 457
f 58 55 456 460
g Group33565
f 57 56 55 58
g Group32941
f 464 463 462 461
g Group32944
f 61 59 461 462
f 60 62 463 464
g Group33565
f 60 59 61 62
g Group32941
f 436 435 462 463
g Group32944
f 62 63 436 463
f 64 61 462 435
g Group33565
f 63 62 61 64
g Group32941
f 455 464 461 458
g Group32944
f 59 52 458 461
f 51 60 464 455
g Group33565
f 51 52 59 60
g Group32941
f 451 444 441 454
g Group32944
f 39 50 454 441
f 49 40 444 451
g Group33565
f 49 50 39 40
g Group32941
f 468 467 466 465
g Group32944
f 69 65 465 466
f 66 70 467 468
g Group33565
f 66 65 69 70
g Group32941
f 472 471 470 469
g Group32944
f 71 67 469 470
f 68 72 471 472
g Group33565
f 68 67 71 72
g Group32941
f 466 467 474 473
g Group32944
f 73 69 466 473
f 70 74 474 467
g Group33565
f 69 73 74 70
g Group32941
f 473 474 470 471
g Group32944
f 72 73 473 471
f 74 71 470 474
g Group33565
f 73 72 71 74
g Group32941
f 478 477 476 475
g Group32944
f 79 75 475 476
f 76 80 477 478
g Group33565
f 76 75 79 80
g Group32941
f 482 481 480 479
g Group32944
f 81 77 479 480
f 78 82 481 482
g Group33565
f 78 77 81 82
g Group32941
f 476 477 484 483
g Group32944
f 83 79 476 483
f 80 84 484 477
g Group33565
f 79 83 84 80
g Group32941
f 483 484 480 481
g Group32944
f 82 83 483 481
f 84 81 480 484
g Group33565
f 83 82 81 84
g Group32941
f 488 487 486 485
g Group32944
f 87 85 485 486
f 86 88 487 488
g Group33565
f 86 85 87 88
g Group32941
f 490 489 486 487
g Group32944
f 88 117 490 487
f 118 87 486 489
g Group33565
f 117 88 87 118
g Group32941
f 479 488 485 482
g Group32944
f 85 78 482 485
f 77 86 488 479
g Group33565
f 77 78 85 86
g Group32941
f 475 468 465 478
g Group32944
f 65 76 478 465
f 75 66 468 475
g Group33565
f 75 76 65 66
g Group32941
f 494 493 492 491
g Group32944
f 92 90 494 491
f 89 91 492 493
g Group33565
f 90 92 91 89
g Group32941
f 498 497 496 495
g Group32944
f 98 94 498 495
f 93 97 496 497
g Group33565
f 94 98 97 93
g Group32941
f 502 501 500 499
g Group32944
f 100 96 502 499
f 95 99 500 501
g Group33565
f 96 100 99 95
g Group32941
f 496 504 503 495
g Group32944
f 102 98 495 503
f 97 101 504 496
g Group33565
f 97 98 102 101
g Group32941
f 504 499 500 503
g Group32944
f 99 102 503 500
f 101 100 499 504
g Group33565
f 101 102 99 100
g Group32941
f 493 494 501 502
g Group32944
f 96 89 493 502
f 90 95 501 494
g Group33565
f 89 96 95 90
g Group32941
f 508 507 506 505
g Group32944
f 108 104 508 505
f 103 107 506 507
g Group33565
f 104 108 107 103
g Group32941
f 512 511 510 509
g Group32944
f 110 106 512 509
f 105 109 510 511
g Group33565
f 106 110 109 105
g Group32941
f 506 514 513 505
g Group32944
f 112 108 505 513
f 107 111 514 506
g Group33565
f 107 108 112 111
g Group32941
f 514 509 510 513
g Group32944
f 109 112 513 510
f 111 110 509 514
g Group33565
f 111 112 109 110
g Group32941
f 518 517 516 515
g Group32944
f 116 114 518 515
f 113 115 516 517
g Group33565
f 114 116 115 113
g Group32941
f 490 515 516 489
g Group32944
f 115 118 489 516
f 117 116 515 490
g Group33565
f 117 118 115 116
g Group32941
f 511 512 517 518
g Group32944
f 114 105 511 518
f 106 113 517 512
g Group33565
f 105 114 113 106
g Group32941
f 507 508 497 498
g Group32944
f 94 103 507 498
f 104 93 497 508
g Group33565
f 103 94 93 104
g Group32941
f 403 404 472 469
g Group32944
f 67 1 403 469
f 2 68 472 404
g Group33565
f 1 67 68 2
g Group32941
f 522 521 520 519
g Group32944
f 122 120 522 519
f 119 121 520 521
g Group33565
f 120 122 121 119
g Group32941
f 520 524 523 519
g Group32944
f 124 122 519 523
f 121 123 524 520
g Group33565
f 121 122 124 123
g Group32941
f 528 527 526 525
g Group32944
f 129 125 525 526
f 126 130 527 528
g Group33565
f 126 125 129 130
g Group32941
f 532 531 530 529
g Group32944
f 131 127 529 530
f 128 132 531 532
g Group33565
f 128 127 131 132
g Group32941
f 526 527 534 533
g Group32944
f 133 129 526 533
f 130 134 534 527
g Group33565
f 129 133 134 130
g Group32941
f 533 534 530 531
g Group32944
f 132 133 533 531
f 134 131 530 534
g Group33565
f 133 132 131 134
g Group32941
f 538 537 536 535
g Group32944
f 139 135 535 536
f 136 140 537 538
g Group33565
f 136 135 139 140
g Group32941
f 542 541 540 539
g Group32944
f 141 137 539 540
f 138 142 541 542
g Group33565
f 138 137 141 142
g Group32941
f 536 537 544 543
g Group32944
f 143 139 536 543
f 140 144 544 537
g Group33565
f 139 143 144 140
g Group32941
f 543 544 540 541
g Group32944
f 142 143 543 541
f 144 141 540 544
g Group33565
f 143 142 141 144
g Group32941
f 548 547 546 545
g Group32944
f 147 145 545 546
f 146 148 547 548
g Group33565
f 146 145 147 148
g Group32941
f 550 549 546 547
g Group32944
f 148 159 550 547
f 160 147 546 549
g Group33565
f 159 148 147 160
g Group32941
f 539 548 545 542
g Group32944
f 145 138 542 545
f 137 146 548 539
g Group33565
f 137 138 145 146
g Group32941
f 535 528 525 538
g Group32944
f 125 136 538 525
f 135 126 528 535
g Group33565
f 135 136 125 126
g Group32941
f 554 553 552 551
g Group32944
f 152 150 554 551
f 149 151 552 553
g Group33565
f 150 152 151 149
g Group32941
f 556 551 552 555
g Group32944
f 151 154 555 552
f 153 152 551 556
g Group33565
f 153 154 151 152
g Group32941
f 560 559 558 557
g Group32944
f 158 156 560 557
f 155 157 558 559
g Group33565
f 156 158 157 155
g Group32941
f 550 557 558 549
g Group32944
f 157 160 549 558
f 159 158 557 550
g Group33565
f 159 160 157 158
g Group32941
f 553 554 559 560
g Group32944
f 156 149 553 560
f 150 155 559 554
g Group33565
f 149 156 155 150
g Group32941
f 521 522 532 529
g Group32944
f 127 119 521 529
f 120 128 532 522
g Group33565
f 119 127 128 120
g Group32941
f 564 563 562 561
g Group32944
f 163 161 561 562
f 162 164 563 564
g Group33565
f 162 161 163 164
g Group32941
f 562 563 566 565
g Group32944
f 165 163 562 565
f 164 166 566 563
g Group33565
f 163 165 166 164
g Group32941
f 570 569 568 567
g Group32944
f 172 168 570 567
f 167 171 568 569
g Group33565
f 168 172 171 167
g Group32941
f 574 573 572 571
g Group32944
f 174 170 574 571
f 169 173 572 573
g Group33565
f 170 174 173 169
g Group32941
f 568 576 575 567
g Group32944
f 176 172 567 575
f 171 175 576 568
g Group33565
f 171 172 176 175
g Group32941
f 576 571 572 575
g Group32944
f 173 176 575 572
f 175 174 571 576
g Group33565
f 175 176 173 174
g Group32941
f 580 579 578 577
g Group32944
f 182 178 580 577
f 177 181 578 579
g Group33565
f 178 182 181 177
g Group32941
f 584 583 582 581
g Group32944
f 184 180 584 581
f 179 183 582 583
g Group33565
f 180 184 183 179
g Group32941
f 578 586 585 577
g Group32944
f 186 182 577 585
f 181 185 586 578
g Group33565
f 181 182 186 185
g Group32941
f 586 581 582 585
g Group32944
f 183 186 585 582
f 185 184 581 586
g Group33565
f 185 186 183 184
g Group32941
f 590 589 588 587
g Group32944
f 190 188 590 587
f 187 189 588 589
g Group33565
f 188 190 189 187
g Group32941
f 592 587 588 591
g Group32944
f 189 202 591 588
f 201 190 587 592
g Group33565
f 201 202 189 190
g Group32941
f 583 584 589 590
g Group32944
f 188 179 583 590
f 180 187 589 584
g Group33565
f 179 188 187 180
g Group32941
f 579 580 569 570
g Group32944
f 168 177 579 570
f 178 167 569 580
g Group33565
f 177 168 167 178
g Group32941
f 596 595 594 593
g Group32944
f 193 191 593 594
f 192 194 595 596
g Group33565
f 192 191 193 194
g Group32941
f 598 597 594 595
g Group32944
f 194 195 598 595
f 196 193 594 597
g Group33565
f 195 194 193 196
g Group32941
f 602 601 600 599
g Group32944
f 199 197 599 600
f 198 200 601 602
g Group33565
f 198 197 199 200
g Group32941
f 592 591 600 601
g Group32944
f 200 201 592 601
f 202 199 600 591
g Group33565
f 201 200 199 202
g Group32941
f 593 602 599 596
g Group32944
f 197 192 596 599
f 191 198 602 593
g Group33565
f 191 192 197 198
g Group32941
f 561 573 574 564
g Group32944
f 170 162 564 574
f 161 169 573 561
g Group33565
f 161 162 170 169
g Group32941
f 438 439 556 555
g Group32944
f 154 37 438 555
f 38 153 556 439
g Group33565
f 37 154 153 38
g Group32941
f 491 492 597 598
g Group32944
f 195 92 491 598
f 91 196 597 492
g Group33565
f 92 195 196 91
g Group32941
f 606 605 604 603
g Group32944
f 207 203 603 604
f 204 208 605 606
g Group33565
f 204 203 207 208
g Group32941
f 610 609 608 607
g Group32944
f 209 205 607 608
f 206 210 609 610
g Group33565
f 206 205 209 210
g Group32941
f 604 605 612 611
g Group32944
f 211 207 604 611
f 208 212 612 605
g Group33565
f 207 211 212 208
g Group32941
f 611 612 608 609
g Group32944
f 210 211 611 609
f 212 209 608 612
g Group33565
f 211 210 209 212
g Group32941
f 616 615 614 613
g Group32944
f 217 213 613 614
f 214 218 615 616
g Group33565
f 214 213 217 218
g Group32941
f 620 619 618 617
g Group32944
f 219 215 617 618
f 216 220 619 620
g Group33565
f 216 215 219 220
g Group32941
f 614 615 622 621
g Group32944
f 221 217 614 621
f 218 222 622 615
g Group33565
f 217 221 222 218
g Group32941
f 621 622 618 619
g Group32944
f 220 221 621 619
f 222 219 618 622
g Group33565
f 221 220 219 222
g Group32941
f 607 620 617 610
g Group32944
f 215 206 610 617
f 205 216 620 607
g Group33565
f 205 206 215 216
g Group32941
f 626 625 624 623
g Group32944
f 227 223 623 624
f 224 228 625 626
g Group33565
f 224 223 227 228
g Group32941
f 630 629 628 627
g Group32944
f 229 225 627 628
f 226 230 629 630
g Group33565
f 226 225 229 230
g Group32941
f 624 625 632 631
g Group32944
f 231 227 624 631
f 228 232 632 625
g Group33565
f 227 231 232 228
g Group32941
f 631 632 628 629
g Group32944
f 230 231 631 629
f 232 229 628 632
g Group33565
f 231 230 229 232
g Group32941
f 636 635 634 633
g Group32944
f 235 233 633 634
f 234 236 635 636
g Group33565
f 234 233 235 236
g Group32941
f 638 637 634 635
g Group32944
f 236 265 638 635
f 266 235 634 637
g Group33565
f 265 236 235 266
g Group32941
f 627 636 633 630
g Group32944
f 233 226 630 633
f 225 234 636 627
g Group33565
f 225 226 233 234
g Group32941
f 623 616 613 626
g Group32944
f 213 224 626 613
f 223 214 616 623
g Group33565
f 223 224 213 214
g Group32941
f 642 641 640 639
g Group32944
f 240 238 642 639
f 237 239 640 641
g Group33565
f 238 240 239 237
g Group32941
f 646 645 644 643
g Group32944
f 246 242 646 643
f 241 245 644 645
g Group33565
f 242 246 245 241
g Group32941
f 650 649 648 647
g Group32944
f 248 244 650 647
f 243 247 648 649
g Group33565
f 244 248 247 243
g Group32941
f 644 652 651 643
g Group32944
f 250 246 643 651
f 245 249 652 644
g Group33565
f 245 246 250 249
g Group32941
f 652 647 648 651
g Group32944
f 247 250 651 648
f 249 248 647 652
g Group33565
f 249 250 247 248
g Group32941
f 641 642 649 650
g Group32944
f 244 237 641 650
f 238 243 649 642
g Group33565
f 237 244 243 238
g Group32941
f 656 655 654 653
g Group32944
f 256 252 656 653
f 251 255 654 655
g Group33565
f 252 256 255 251
g Group32941
f 660 659 658 657
g Group32944
f 258 254 660 657
f 253 257 658 659
g Group33565
f 254 258 257 253
g Group32941
f 654 662 661 653
g Group32944
f 260 256 653 661
f 255 259 662 654
g Group33565
f 255 256 260 259
g Group32941
f 662 657 658 661
g Group32944
f 257 260 661 658
f 259 258 657 662
g Group33565
f 259 260 257 258
g Group32941
f 666 665 664 663
g Group32944
f 264 262 666 663
f 261 263 664 665
g Group33565
f 262 264 263 261
g Group32941
f 638 663 664 637
g Group32944
f 263 266 637 664
f 265 264 663 638
g Group33565
f 265 266 263 264
g Group32941
f 659 660 665 666
g Group32944
f 262 253 659 666
f 254 261 665 660
g Group33565
f 253 262 261 254
g Group32941
f 655 656 645 646
g Group32944
f 242 251 655 646
f 252 241 645 656
g Group33565
f 251 242 241 252
g Group32941
f 670 669 668 667
g Group32944
f 272 268 670 667
f 267 271 668 669
g Group33565
f 268 272 271 267
g Group32941
f 674 673 672 671
g Group32944
f 274 270 674 671
f 269 273 672 673
g Group33565
f 270 274 273 269
g Group32941
f 668 676 675 667
g Group32944
f 276 272 667 675
f 271 275 676 668
g Group33565
f 271 272 276 275
g Group32941
f 676 671 672 675
g Group32944
f 273 276 675 672
f 275 274 671 676
g Group33565
f 275 276 273 274
g Group32941
f 680 679 678 677
g Group32944
f 282 278 680 677
f 277 281 678 679
g Group33565
f 278 282 281 277
g Group32941
f 684 683 682 681
g Group32944
f 284 280 684 681
f 279 283 682 683
g Group33565
f 280 284 283 279
g Group32941
f 678 686 685 677
g Group32944
f 286 282 677 685
f 281 285 686 678
g Group33565
f 281 282 286 285
g Group32941
f 686 681 682 685
g Group32944
f 283 286 685 682
f 285 284 681 686
g Group33565
f 285 286 283 284
g Group32941
f 690 689 688 687
g Group32944
f 290 288 690 687
f 287 289 688 689
g Group33565
f 288 290 289 287
g Group32941
f 692 687 688 691
g Group32944
f 289 320 691 688
f 319 290 687 692
g Group33565
f 319 320 289 290
g Group32941
f 683 684 689 690
g Group32944
f 288 279 683 690
f 280 287 689 684
g Group33565
f 279 288 287 280
g Group32941
f 679 680 669 670
g Group32944
f 268 277 679 670
f 278 267 669 680
g Group33565
f 277 268 267 278
g Group32941
f 696 695 694 693
g Group32944
f 293 291 693 694
f 292 294 695 696
g Group33565
f 292 291 293 294
g Group32941
f 700 699 698 697
g Group32944
f 299 295 697 698
f 296 300 699 700
g Group33565
f 296 295 299 300
g Group32941
f 704 703 702 701
g Group32944
f 301 297 701 702
f 298 302 703 704
g Group33565
f 298 297 301 302
g Group32941
f 698 699 706 705
g Group32944
f 303 299 698 705
f 300 304 706 699
g Group33565
f 299 303 304 300
g Group32941
f 705 706 702 703
g Group32944
f 302 303 705 703
f 304 301 702 706
g Group33565
f 303 302 301 304
g Group32941
f 693 704 701 696
g Group32944
f 297 292 696 701
f 291 298 704 693
g Group33565
f 291 292 297 298
g Group32941
f 710 709 708 707
g Group32944
f 309 305 707 708
f 306 310 709 710
g Group33565
f 306 305 309 310
g Group32941
f 714 713 712 711
g Group32944
f 311 307 711 712
f 308 312 713 714
g Group33565
f 308 307 311 312
g Group32941
f 708 709 716 715
g Group32944
f 313 309 708 715
f 310 314 716 709
g Group33565
f 309 313 314 310
g Group32941
f 715 716 712 713
g Group32944
f 312 313 715 713
f 314 311 712 716
g Group33565
f 313 312 311 314
g Group32941
f 720 719 718 717
g Group32944
f 317 315 717 718
f 316 318 719 720
g Group33565
f 316 315 317 318
g Group32941
f 692 691 718 719
g Group32944
f 318 319 692 719
f 320 317 718 691
g Group33565
f 319 318 317 320
g Group32941
f 711 720 717 714
g Group32944
f 315 308 714 717
f 307 316 720 711
g Group33565
f 307 308 315 316
g Group32941
f 707 700 697 710
g Group32944
f 295 306 710 697
f 305 296 700 707
g Group33565
f 305 306 295 296
g Group32941
f 603 673 674 606
g Group32944
f 270 204 606 674
f 203 269 673 603
g Group33565
f 203 204 270 269
g Group32941
f 724 723 722 721
g Group32944
f 323 321 721 722
f 322 324 723 724
g Group33565
f 322 321 323 324
g Group32941
f 728 727 726 725
g Group32944
f 330 326 728 725
f 325 329 726 727
g Group33565
f 326 330 329 325
g Group32941
f 732 731 730 729
g Group32944
f 332 328 732 729
f 327 331 730 731
g Group33565
f 328 332 331 327
g Group32941
f 726 734 733 725
g Group32944
f 334 330 725 733
f 329 333 734 726
g Group33565
f 329 330 334 333
g Group32941
f 734 729 730 733
g Group32944
f 331 334 733 730
f 333 332 729 734
g Group33565
f 333 334 331 332
g Group32941
f 738 737 736 735
g Group32944
f 340 336 738 735
f 335 339 736 737
g Group33565
f 336 340 339 335
g Group32941
f 742 741 740 739
g Group32944
f 342 338 742 739
f 337 341 740 741
g Group33565
f 338 342 341 337
g Group32941
f 736 744 743 735
g Group32944
f 344 340 735 743
f 339 343 744 736
g Group33565
f 339 340 344 343
g Group32941
f 744 739 740 743
g Group32944
f 341 344 743 740
f 343 342 739 744
g Group33565
f 343 344 341 342
g Group32941
f 748 747 746 745
g Group32944
f 348 346 748 745
f 345 347 746 747
g Group33565
f 346 348 347 345
g Group32941
f 750 745 746 749
g Group32944
f 347 360 749 746
f 359 348 745 750
g Group33565
f 359 360 347 348
g Group32941
f 741 742 747 748
g Group32944
f 346 337 741 748
f 338 345 747 742
g Group33565
f 337 346 345 338
g Group32941
f 737 738 727 728
g Group32944
f 326 335 737 728
f 336 325 727 738
g Group33565
f 335 326 325 336
g Group32941
f 754 753 752 751
g Group32944
f 351 349 751 752
f 350 352 753 754
g Group33565
f 350 349 351 352
g Group32941
f 756 755 752 753
g Group32944
f 352 353 756 753
f 354 351 752 755
g Group33565
f 353 352 351 354
g Group32941
f 760 759 758 757
g Group32944
f 357 355 757 758
f 356 358 759 760
g Group33565
f 356 355 357 358
g Group32941
f 750 749 758 759
g Group32944
f 358 359 750 759
f 360 357 758 749
g Group33565
f 359 358 357 360
g Group32941
f 751 760 757 754
g Group32944
f 355 350 754 757
f 349 356 760 751
g Group33565
f 349 350 355 356
g Group32941
f 721 731 732 724
g Group32944
f 328 322 724 732
f 321 327 731 721
g Group33565
f 321 322 328 327
g Group32941
f 764 763 762 761
g Group32944
f 364 362 764 761
f 361 363 762 763
g Group33565
f 362 364 363 361
g Group32941
f 768 767 766 765
g Group32944
f 369 365 765 766
f 366 370 767 768
g Group33565
f 366 365 369 370
g Group32941
f 772 771 770 769
g Group32944
f 371 367 769 770
f 368 372 771 772
g Group33565
f 368 367 371 372
g Group32941
f 766 767 774 773
g Group32944
f 373 369 766 773
f 370 374 774 767
g Group33565
f 369 373 374 370
g Group32941
f 773 774 770 771
g Group32944
f 372 373 773 771
f 374 371 770 774
g Group33565
f 373 372 371 374
g Group32941
f 778 777 776 775
g Group32944
f 379 375 775 776
f 376 380 777 778
g Group33565
f 376 375 379 380
g Group32941
f 782 781 780 779
g Group32944
f 381 377 779 780
f 378 382 781 782
g Group33565
f 378 377 381 382
g Group32941
f 776 777 784 783
g Group32944
f 383 379 776 783
f 380 384 784 777
g Group33565
f 379 383 384 380
g Group32941
f 783 784 780 781
g Group32944
f 382 383 783 781
f 384 381 780 784
g Group33565
f 383 382 381 384
g Group32941
f 788 787 786 785
g Group32944
f 387 385 785 786
f 386 388 787 788
g Group33565
f 386 385 387 388
g Group32941
f 790 789 786 787
g Group32944
f 388 399 790 787
f 400 387 786 789
g Group33565
f 399 388 387 400
g Group32941
f 779 788 785 782
g Group32944
f 385 378 782 785
f 377 386 788 779
g Group33565
f 377 378 385 386
g Group32941
f 775 768 765 778
g Group32944
f 365 376 778 765
f 375 366 768 775
g Group33565
f 375 376 365 366
g Group32941
f 794 793 792 791
g Group32944
f 392 390 794 791
f 389 391 792 793
g Group33565
f 390 392 391 389
g Group32941
f 796 791 792 795
g Group32944
f 391 394 795 792
f 393 392 791 796
g Group33565
f 393 394 391 392
g Group32941
f 800 799 798 797
g Group32944
f 398 396 800 797
f 395 397 798 799
g Group33565
f 396 398 397 395
g Group32941
f 790 797 798 789
g Group32944
f 397 400 789 798
f 399 398 797 790
g Group33565
f 399 400 397 398
g Group32941
f 793 794 799 800
g Group32944
f 396 389 793 800
f 390 395 799 794
g Group33565
f 389 396 395 390
g Group32941
f 763 764 772 769
g Group32944
f 367 361 763 769
f 362 368 772 764
g Group33565
f 361 367 368 362
g Group32941
f 640 755 756 639
g Group32944
f 353 240 639 756
f 239 354 755 640
g Group33565
f 239 240 353 354
g Group32941
f 695 796 795 694
g Group32944
f 394 293 694 795
f 294 393 796 695
g Group33565
f 294 293 394 393
g Group32941
f 523 524 722 723
g Group32944
f 324 124 523 723
f 123 323 722 524
g Group33565
f 124 324 323 123
g Group32941
f 565 566 761 762
g Group32944
f 363 165 565 762
f 166 364 761 566
g Group33565
f 165 363 364 166

 