# File exported by ZBrush version 2021
# www.zbrush.com
#Vertex Count 324
#Face Count 322
#Auto scale x=1.000000 y=1.000000 z=1.000000
#Auto offset x=0.000000 y=0.000000 z=0.000000
v -0.480017 -0.54766702 0.2110535
v -0.64067 -0.45904898 0.2110535
v -0.710675 -0.801189 0.2110535
v -0.803375 -0.511388 0.2110535
v -1.96819996 -0.439038 0.2110535
v -2.1458311 -0.54085797 0.2110535
v -1.81145203 -0.50734502 0.2110535
v -1.92892599 -0.79366397 0.2110535
v -2.03559207 -0.933335 0.2110535
v -1.60481298 -0.94702202 0.2110535
v -1.52639102 -0.55151301 0.2110535
v -1.81407201 -0.20057499 0.2110535
v -1.99473297 -0.202213 0.2110535
v -2.20500493 -0.20976099 0.2110535
v -2.42746806 -0.22285099 0.2110535
v -2.62018299 -0.256924 0.2110535
v -2.45645499 -0.706299 0.2110535
v -2.30767989 -0.62056201 0.2110535
v -2.13855409 -1.06927299 0.2110535
v -1.70946097 -1.29055798 0.2110535
v -1.65605104 -1.12155294 0.2110535
v -1.51569998 -0.20564399 0.2110535
v -1.10326802 -0.20701 0.2110535
v -0.795834 -0.20237599 0.2110535
v -0.61581897 -0.20389999 0.2110535
v -0.40813699 -0.21158799 0.2110535
v -0.190922 -0.226702 0.2110535
v -0.32500699 -0.63263297 0.2110535
v -0.178231 -0.72570997 0.2110535
v -0.60673397 -0.94271397 0.2110535
v -0.49977201 -1.08093297 0.2110535
v -0.99497497 -1.12957 0.2110535
v -0.948062 -1.30323505 0.2110535
v -1.04317903 -0.95319801 0.2110535
v -1.10188901 -0.55351501 0.2110535
v -1.32677805 -1.16673398 0.2110535
v -1.32460999 -0.982046 0.2110535
v -1.31814205 -0.56338399 0.2110535
v -1.311962 -0.20838999 0.2110535
v -1.33049905 -1.34644901 0.2110535
v -2.14117193 0.54769098 0.2110535
v -1.97348797 0.44583699 0.2110535
v -1.91060602 0.801189 0.2110535
v -1.81702303 0.51160699 0.2110535
v -0.63108497 0.46230599 0.2110535
v -0.47007998 0.54303097 0.2110535
v -0.79883301 0.51120001 0.2110535
v -0.69038999 0.79448902 0.2110535
v -0.58559697 0.93341702 0.2110535
v -1.01640296 0.947052 0.2110535
v -1.08860194 0.55353701 0.2110535
v -0.78974998 0.206409 0.2110535
v -0.61192798 0.20733 0.2110535
v -0.40787899 0.21292699 0.2110535
v -0.191567 0.223866 0.2110535
v -0.164846 0.70633602 0.2110535
v -0.31228599 0.62124502 0.2110535
v -0.482726 1.06927299 0.2110535
v -0.91181999 1.29055798 0.2110535
v -0.96522998 1.12155294 0.2110535
v -1.09288394 0.209543 0.2110535
v -1.51223397 0.20861099 0.2110535
v -1.816208 0.205225 0.2110535
v -1.99782097 0.206382 0.2110535
v -2.20945 0.21288 0.2110535
v -2.4298911 0.226907 0.2110535
v -2.61906409 0.26421999 0.2110535
v -2.29627394 0.63263297 0.2110535
v -2.44304895 0.72570902 0.2110535
v -2.01454711 0.94271397 0.2110535
v -2.12150788 1.08093297 0.2110535
v -1.62630498 1.12957 0.2110535
v -1.67321801 1.30323398 0.2110535
v -1.57810103 0.95319801 0.2110535
v -1.51931095 0.55352497 0.2110535
v -1.29450202 1.16673302 0.2110535
v -1.29666996 0.982046 0.2110535
v -1.30133795 0.56389397 0.2110535
v -1.30326795 0.21012 0.2110535
v -1.29078102 1.34644901 0.2110535
v 2.14123511 -0.54766702 0.2110535
v 1.98058295 -0.45904898 0.2110535
v 1.91057801 -0.801189 0.2110535
v 1.817878 -0.511388 0.2110535
v 0.65305298 -0.439038 0.2110535
v 0.47542199 -0.54085797 0.2110535
v 0.80980098 -0.50734502 0.2110535
v 0.69232702 -0.79366397 0.2110535
v 0.58566099 -0.933335 0.2110535
v 1.01644003 -0.94702202 0.2110535
v 1.09486198 -0.55151301 0.2110535
v 0.807181 -0.20057499 0.2110535
v 0.62651997 -0.202213 0.2110535
v 0.41624799 -0.20976099 0.2110535
v 0.19378399 -0.22285099 0.2110535
v 0.164798 -0.706299 0.2110535
v 0.313573 -0.62056201 0.2110535
v 0.48269799 -1.06927299 0.2110535
v 0.91179198 -1.29055798 0.2110535
v 0.96520298 -1.12155294 0.2110535
v 1.10555303 -0.20564399 0.2110535
v 1.51798498 -0.20701 0.2110535
v 1.82541894 -0.20237599 0.2110535
v 2.00543308 -0.20389999 0.2110535
v 2.21311593 -0.21158799 0.2110535
v 2.43033099 -0.226702 0.2110535
v 2.619035 -0.26421999 0.2110535
v 2.29624605 -0.63263297 0.2110535
v 2.44302105 -0.72570997 0.2110535
v 2.01451802 -0.94271397 0.2110535
v 2.12148094 -1.08093297 0.2110535
v 1.62627804 -1.12957 0.2110535
v 1.67319095 -1.30323505 0.2110535
v 1.57807302 -0.95319801 0.2110535
v 1.51936399 -0.55351501 0.2110535
v 1.29447495 -1.16673398 0.2110535
v 1.29664301 -0.982046 0.2110535
v 1.30311095 -0.56338399 0.2110535
v 1.309291 -0.20838999 0.2110535
v 1.290753 -1.34644901 0.2110535
v 0.48008099 0.54769098 0.2110535
v 0.64776498 0.44583699 0.2110535
v 0.71064698 0.801189 0.2110535
v 0.80422997 0.51160699 0.2110535
v 1.99016797 0.46230599 0.2110535
v 2.15117311 0.54303097 0.2110535
v 1.82242 0.51120001 0.2110535
v 1.93086302 0.79448902 0.2110535
v 2.03565692 0.93341702 0.2110535
v 1.60485005 0.947052 0.2110535
v 1.53265094 0.55353701 0.2110535
v 1.83150303 0.206409 0.2110535
v 2.00932407 0.20733 0.2110535
v 2.21337294 0.21292699 0.2110535
v 2.42968606 0.223866 0.2110535
v 2.62018299 0.25699299 0.2110535
v 2.45640707 0.70633602 0.2110535
v 2.30896711 0.62124502 0.2110535
v 2.1385281 1.06927299 0.2110535
v 1.70943403 1.29055798 0.2110535
v 1.65602302 1.12155294 0.2110535
v 1.52836895 0.209543 0.2110535
v 1.10901999 0.20861099 0.2110535
v 0.805045 0.205225 0.2110535
v 0.62343102 0.206382 0.2110535
v 0.411803 0.21288 0.2110535
v 0.19136199 0.226907 0.2110535
v 0.32497999 0.63263297 0.2110535
v 0.178203 0.72570902 0.2110535
v 0.60670602 0.94271397 0.2110535
v 0.49974399 1.08093297 0.2110535
v 0.99494898 1.12957 0.2110535
v 0.948035 1.30323398 0.2110535
v 1.04315197 0.95319801 0.2110535
v 1.10194194 0.55352497 0.2110535
v 1.32675099 1.16673302 0.2110535
v 1.32458305 0.982046 0.2110535
v 1.31991505 0.56389397 0.2110535
v 1.31798505 0.21012 0.2110535
v 1.33047199 1.34644901 0.2110535
v 0.001249 0.25685998 0.2110535
v -0.000609 -0.263567 0.2110535
v -0.948062 -1.30323505 -0.2110535
v -1.33049905 -1.34644901 -0.2110535
v -1.32677805 -1.16673398 -0.2110535
v -0.99497497 -1.12957 -0.2110535
v -0.480017 -0.54766702 -0.2110535
v -0.710675 -0.801189 -0.2110535
v -0.803375 -0.511388 -0.2110535
v -0.64067 -0.45904898 -0.2110535
v -0.61581897 -0.20389999 -0.2110535
v -0.795834 -0.20237599 -0.2110535
v -1.32460999 -0.982046 -0.2110535
v -1.04317903 -0.95319801 -0.2110535
v -1.10326802 -0.20701 -0.2110535
v -1.10188901 -0.55351501 -0.2110535
v -1.81145203 -0.50734502 -0.2110535
v -1.92892599 -0.79366397 -0.2110535
v -2.1458311 -0.54085797 -0.2110535
v -1.96819996 -0.439038 -0.2110535
v -2.03559207 -0.933335 -0.2110535
v -2.30767989 -0.62056201 -0.2110535
v -1.60481298 -0.94702202 -0.2110535
v -1.65605104 -1.12155294 -0.2110535
v -1.52639102 -0.55151301 -0.2110535
v -1.99473297 -0.202213 -0.2110535
v -2.20500493 -0.20976099 -0.2110535
v -1.31814205 -0.56338399 -0.2110535
v -0.32500699 -0.63263297 -0.2110535
v -0.60673397 -0.94271397 -0.2110535
v -1.81407201 -0.20057499 -0.2110535
v -1.51569998 -0.20564399 -0.2110535
v -0.49977201 -1.08093297 -0.2110535
v -0.178231 -0.72570997 -0.2110535
v -0.190922 -0.226702 -0.2110535
v -0.000609 -0.263567 -0.2110535
v -1.30326795 0.21012 -0.2110535
v -1.51223397 0.20861099 -0.2110535
v -1.51931095 0.55352497 -0.2110535
v -1.30133795 0.56389397 -0.2110535
v -2.20945 0.21288 -0.2110535
v -2.14117193 0.54769098 -0.2110535
v -1.97348797 0.44583699 -0.2110535
v -1.99782097 0.206382 -0.2110535
v -1.08860194 0.55353701 -0.2110535
v -1.09288394 0.209543 -0.2110535
v -1.57810103 0.95319801 -0.2110535
v -1.91060602 0.801189 -0.2110535
v -2.01454711 0.94271397 -0.2110535
v -1.62630498 1.12957 -0.2110535
v -2.45645499 -0.706299 -0.2110535
v -2.62018299 -0.256924 -0.2110535
v -2.42746806 -0.22285099 -0.2110535
v -1.01640296 0.947052 -0.2110535
v -1.29666996 0.982046 -0.2110535
v -2.13855409 -1.06927299 -0.2110535
v -1.70946097 -1.29055798 -0.2110535
v -0.40813699 -0.21158799 -0.2110535
v -1.311962 -0.20838999 -0.2110535
v -1.29450202 1.16673302 -0.2110535
v -0.96522998 1.12155294 -0.2110535
v -1.29078102 1.34644901 -0.2110535
v -0.91181999 1.29055798 -0.2110535
v -2.4298911 0.226907 -0.2110535
v -2.29627394 0.63263297 -0.2110535
v -1.67321801 1.30323398 -0.2110535
v -1.81702303 0.51160699 -0.2110535
v -1.816208 0.205225 -0.2110535
v -0.79883301 0.51120001 -0.2110535
v -0.69038999 0.79448902 -0.2110535
v -0.47007998 0.54303097 -0.2110535
v -0.63108497 0.46230599 -0.2110535
v -0.58559697 0.93341702 -0.2110535
v -0.31228599 0.62124502 -0.2110535
v -0.61192798 0.20733 -0.2110535
v -0.40787899 0.21292699 -0.2110535
v -0.78974998 0.206409 -0.2110535
v -2.12150788 1.08093297 -0.2110535
v -2.44304895 0.72570902 -0.2110535
v -2.61906409 0.26421999 -0.2110535
v -0.164846 0.70633602 -0.2110535
v 0.001249 0.25685998 -0.2110535
v -0.191567 0.223866 -0.2110535
v -0.482726 1.06927299 -0.2110535
v 1.67319095 -1.30323505 -0.2110535
v 1.290753 -1.34644901 -0.2110535
v 1.29447495 -1.16673398 -0.2110535
v 1.62627804 -1.12957 -0.2110535
v 2.14123511 -0.54766702 -0.2110535
v 1.91057801 -0.801189 -0.2110535
v 1.817878 -0.511388 -0.2110535
v 1.98058295 -0.45904898 -0.2110535
v 2.00543308 -0.20389999 -0.2110535
v 1.82541894 -0.20237599 -0.2110535
v 1.29664301 -0.982046 -0.2110535
v 1.57807302 -0.95319801 -0.2110535
v 1.51798498 -0.20701 -0.2110535
v 1.51936399 -0.55351501 -0.2110535
v 0.80980098 -0.50734502 -0.2110535
v 0.69232702 -0.79366397 -0.2110535
v 0.47542199 -0.54085797 -0.2110535
v 0.65305298 -0.439038 -0.2110535
v 0.58566099 -0.933335 -0.2110535
v 0.313573 -0.62056201 -0.2110535
v 1.01644003 -0.94702202 -0.2110535
v 0.96520298 -1.12155294 -0.2110535
v 1.09486198 -0.55151301 -0.2110535
v 0.62651997 -0.202213 -0.2110535
v 0.41624799 -0.20976099 -0.2110535
v 1.30311095 -0.56338399 -0.2110535
v 2.29624605 -0.63263297 -0.2110535
v 2.01451802 -0.94271397 -0.2110535
v 0.807181 -0.20057499 -0.2110535
v 1.10555303 -0.20564399 -0.2110535
v 2.12148094 -1.08093297 -0.2110535
v 2.44302105 -0.72570997 -0.2110535
v 2.43033099 -0.226702 -0.2110535
v 2.619035 -0.26421999 -0.2110535
v 1.31798505 0.21012 -0.2110535
v 1.10901999 0.20861099 -0.2110535
v 1.10194194 0.55352497 -0.2110535
v 1.31991505 0.56389397 -0.2110535
v 0.411803 0.21288 -0.2110535
v 0.48008099 0.54769098 -0.2110535
v 0.64776498 0.44583699 -0.2110535
v 0.62343102 0.206382 -0.2110535
v 1.53265094 0.55353701 -0.2110535
v 1.52836895 0.209543 -0.2110535
v 1.04315197 0.95319801 -0.2110535
v 0.71064698 0.801189 -0.2110535
v 0.60670602 0.94271397 -0.2110535
v 0.99494898 1.12957 -0.2110535
v 0.164798 -0.706299 -0.2110535
v 0.19378399 -0.22285099 -0.2110535
v 1.60485005 0.947052 -0.2110535
v 1.32458305 0.982046 -0.2110535
v 0.48269799 -1.06927299 -0.2110535
v 0.91179198 -1.29055798 -0.2110535
v 2.21311593 -0.21158799 -0.2110535
v 1.309291 -0.20838999 -0.2110535
v 1.32675099 1.16673302 -0.2110535
v 1.65602302 1.12155294 -0.2110535
v 1.33047199 1.34644901 -0.2110535
v 1.70943403 1.29055798 -0.2110535
v 0.19136199 0.226907 -0.2110535
v 0.32497999 0.63263297 -0.2110535
v 0.948035 1.30323398 -0.2110535
v 0.80422997 0.51160699 -0.2110535
v 0.805045 0.205225 -0.2110535
v 1.82242 0.51120001 -0.2110535
v 1.93086302 0.79448902 -0.2110535
v 2.15117311 0.54303097 -0.2110535
v 1.99016797 0.46230599 -0.2110535
v 2.03565692 0.93341702 -0.2110535
v 2.30896711 0.62124502 -0.2110535
v 2.00932407 0.20733 -0.2110535
v 2.21337294 0.21292699 -0.2110535
v 1.83150303 0.206409 -0.2110535
v 0.49974399 1.08093297 -0.2110535
v 0.178203 0.72570902 -0.2110535
v 2.45640707 0.70633602 -0.2110535
v 2.62018299 0.25699299 -0.2110535
v 2.42968606 0.223866 -0.2110535
v 2.1385281 1.06927299 -0.2110535
g Group32941
f 166 165 164 163
g Group32944
f 40 33 163 164
g Group46994
f 32 33 40 36
g Group32941
f 170 169 168 167
g Group46994
f 2 1 3 4
g Group32941
f 172 169 170 171
g Group46994
f 24 25 2 4
g Group32941
f 165 166 174 173
g Group46994
f 36 37 34 32
g Group32941
f 176 169 172 175
g Group46994
f 35 23 24 4
g Group32941
f 180 179 178 177
g Group46994
f 5 7 8 6
g Group32941
f 178 179 182 181
g Group46994
f 8 9 18 6
g Group32941
f 178 181 184 183
g Group46994
f 8 10 21 9
g Group32941
f 178 183 185 177
g Group46994
f 8 7 11 10
g Group32941
f 187 179 180 186
g Group46994
f 14 13 5 6
g Group32941
f 173 174 176 188
g Group46994
f 37 38 35 34
g Group32941
f 190 189 167 168
g Group46994
f 30 3 1 28
g Group32941
f 185 192 191 177
g Group46994
f 11 7 12 22
g Group32941
f 191 186 180 177
g Group46994
f 12 7 5 13
g Group32941
f 194 189 190 193
g Group32944
f 31 29 194 193
g Group46994
f 29 31 30 28
g Group32941
f 193 190 166 163
g Group32944
f 33 31 193 163
g Group46994
f 31 33 32 30
g Group32941
f 196 195 189 194
g Group32944
f 29 162 196 194
g Group46994
f 162 29 28 27
g Group32941
f 200 199 198 197
g Group46994
f 78 79 62 75
g Group32941
f 204 203 202 201
g Group46994
f 64 65 41 42
g Group32941
f 200 197 206 205
g Group46994
f 78 51 61 79
g Group32941
f 210 209 208 207
g Group46994
f 72 74 43 70
g Group32941
f 213 212 211 182
g Group32944
f 16 17 211 212
g Group46994
f 15 18 17 16
g Group32941
f 213 182 179 187
g Group46994
f 15 14 6 18
g Group32941
f 174 168 169 176
g Group46994
f 34 35 4 3
g Group32941
f 215 200 205 214
g Group46994
f 77 50 51 78
g Group32941
f 211 216 181 182
g Group32944
f 17 19 216 211
g Group46994
f 17 18 9 19
g Group32941
f 216 217 184 181
g Group32944
f 19 20 217 216
g Group46994
f 19 9 21 20
g Group32941
f 218 167 189 195
g Group46994
f 26 27 28 1
g Group32941
f 184 217 164 165
g Group32944
f 20 40 164 217
g Group46994
f 21 36 40 20
g Group32941
f 184 165 173 183
g Group46994
f 21 10 37 36
g Group32941
f 173 188 185 183
g Group46994
f 37 10 11 38
g Group32941
f 166 190 168 174
g Group46994
f 32 34 3 30
g Group32941
f 188 219 192 185
g Group46994
f 38 11 22 39
g Group32941
f 221 220 215 214
g Group46994
f 60 50 77 76
g Group32941
f 171 170 167 218
g Group46994
f 25 26 1 2
g Group32941
f 221 223 222 220
g Group32944
f 59 80 222 223
g Group46994
f 60 76 80 59
g Group32941
f 188 176 175 219
g Group46994
f 38 39 23 35
g Group32941
f 201 202 225 224
g Group46994
f 65 66 68 41
g Group32941
f 210 220 222 226
g Group32944
f 80 73 226 222
g Group46994
f 72 73 80 76
g Group32941
f 203 227 208 202
g Group46994
f 42 41 43 44
g Group32941
f 228 227 203 204
g Group46994
f 63 64 42 44
g Group32941
f 220 210 207 215
g Group46994
f 76 77 74 72
g Group32941
f 199 227 228 198
g Group46994
f 75 62 63 44
g Group32941
f 232 231 230 229
g Group46994
f 45 47 48 46
g Group32941
f 230 231 234 233
g Group46994
f 48 49 57 46
g Group32941
f 230 233 221 214
g Group46994
f 48 50 60 49
g Group32941
f 230 214 205 229
g Group46994
f 48 47 51 50
g Group32941
f 236 231 232 235
g Group46994
f 54 53 45 46
g Group32941
f 215 207 199 200
g Group46994
f 77 78 75 74
g Group32941
f 209 225 202 208
g Group46994
f 70 43 41 68
g Group32941
f 205 206 237 229
g Group46994
f 51 47 52 61
g Group32941
f 237 235 232 229
g Group46994
f 52 47 45 53
g Group32941
f 239 225 209 238
g Group32944
f 71 69 239 238
g Group46994
f 69 71 70 68
g Group32941
f 238 209 210 226
g Group32944
f 73 71 238 226
g Group46994
f 71 73 72 70
g Group32941
f 240 224 225 239
g Group32944
f 69 67 240 239
g Group46994
f 67 69 68 66
g Group32941
f 243 242 241 234
g Group32944
f 161 56 241 242
g Group46994
f 55 57 56 161
g Group32941
f 243 234 231 236
g Group46994
f 55 54 46 57
g Group32941
f 207 208 227 199
g Group46994
f 74 75 44 43
g Group32941
f 241 244 233 234
g Group32944
f 56 58 244 241
g Group46994
f 56 57 49 58
g Group32941
f 244 223 221 233
g Group32944
f 58 59 223 244
g Group46994
f 58 49 60 59
g Group32941
f 172 237 206 175
g Group46994
f 24 23 61 52
g Group32941
f 186 204 201 187
g Group46994
f 13 14 65 64
g Group32941
f 243 195 196 242
g Group46994
f 55 161 162 27
g Group32941
f 197 219 175 206
g Group46994
f 79 61 23 39
g Group32941
f 192 198 228 191
g Group46994
f 22 12 63 62
g Group32941
f 187 201 224 213
g Group46994
f 14 15 66 65
g Group32941
f 191 228 204 186
g Group46994
f 12 13 64 63
g Group32941
f 213 224 240 212
g Group32944
f 67 16 212 240
g Group46994
f 15 16 67 66
g Group32941
f 195 243 236 218
g Group46994
f 27 26 54 55
g Group32941
f 198 192 219 197
g Group46994
f 62 79 39 22
g Group32941
f 235 171 218 236
g Group46994
f 53 54 26 25
g Group32941
f 237 172 171 235
g Group46994
f 52 53 25 24
g Group32941
f 248 247 246 245
g Group32944
f 120 113 245 246
g Group46994
f 112 113 120 116
g Group32941
f 252 251 250 249
g Group46994
f 82 81 83 84
g Group32941
f 254 251 252 253
g Group46994
f 103 104 82 84
g Group32941
f 247 248 256 255
g Group46994
f 116 117 114 112
g Group32941
f 258 251 254 257
g Group46994
f 115 102 103 84
g Group32941
f 262 261 260 259
g Group46994
f 85 87 88 86
g Group32941
f 260 261 264 263
g Group46994
f 88 89 97 86
g Group32941
f 260 263 266 265
g Group46994
f 88 90 100 89
g Group32941
f 260 265 267 259
g Group46994
f 88 87 91 90
g Group32941
f 269 261 262 268
g Group46994
f 94 93 85 86
g Group32941
f 255 256 258 270
g Group46994
f 117 118 115 114
g Group32941
f 272 271 249 250
g Group46994
f 110 83 81 108
g Group32941
f 267 274 273 259
g Group46994
f 91 87 92 101
g Group32941
f 273 268 262 259
g Group46994
f 92 87 85 93
g Group32941
f 276 271 272 275
g Group32944
f 111 109 276 275
g Group46994
f 109 111 110 108
g Group32941
f 275 272 248 245
g Group32944
f 113 111 275 245
g Group46994
f 111 113 112 110
g Group32941
f 278 277 271 276
g Group32944
f 109 107 278 276
g Group46994
f 107 109 108 106
g Group32941
f 282 281 280 279
g Group46994
f 158 159 143 155
g Group32941
f 286 285 284 283
g Group46994
f 145 146 121 122
g Group32941
f 282 279 288 287
g Group46994
f 158 131 142 159
g Group32941
f 292 291 290 289
g Group46994
f 152 154 123 150
g Group32941
f 294 196 293 264
g Group32944
f 162 96 293 196
g Group46994
f 95 97 96 162
g Group32941
f 294 264 261 269
g Group46994
f 95 94 86 97
g Group32941
f 256 250 251 258
g Group46994
f 114 115 84 83
g Group32941
f 296 282 287 295
g Group46994
f 157 130 131 158
g Group32941
f 293 297 263 264
g Group32944
f 96 98 297 293
g Group46994
f 96 97 89 98
g Group32941
f 297 298 266 263
g Group32944
f 98 99 298 297
g Group46994
f 98 89 100 99
g Group32941
f 299 249 271 277
g Group46994
f 105 106 108 81
g Group32941
f 266 298 246 247
g Group32944
f 99 120 246 298
g Group46994
f 100 116 120 99
g Group32941
f 266 247 255 265
g Group46994
f 100 90 117 116
g Group32941
f 255 270 267 265
g Group46994
f 117 90 91 118
g Group32941
f 248 272 250 256
g Group46994
f 112 114 83 110
g Group32941
f 270 300 274 267
g Group46994
f 118 91 101 119
g Group32941
f 302 301 296 295
g Group46994
f 141 130 157 156
g Group32941
f 253 252 249 299
g Group46994
f 104 105 81 82
g Group32941
f 302 304 303 301
g Group32944
f 140 160 303 304
g Group46994
f 141 156 160 140
g Group32941
f 270 258 257 300
g Group46994
f 118 119 102 115
g Group32941
f 283 284 306 305
g Group46994
f 146 147 148 121
g Group32941
f 292 301 303 307
g Group32944
f 160 153 307 303
g Group46994
f 152 153 160 156
g Group32941
f 285 308 290 284
g Group46994
f 122 121 123 124
g Group32941
f 309 308 285 286
g Group46994
f 144 145 122 124
g Group32941
f 301 292 289 296
g Group46994
f 156 157 154 152
g Group32941
f 281 308 309 280
g Group46994
f 155 143 144 124
g Group32941
f 313 312 311 310
g Group46994
f 125 127 128 126
g Group32941
f 311 312 315 314
g Group46994
f 128 129 138 126
g Group32941
f 311 314 302 295
g Group46994
f 128 130 141 129
g Group32941
f 311 295 287 310
g Group46994
f 128 127 131 130
g Group32941
f 317 312 313 316
g Group46994
f 134 133 125 126
g Group32941
f 296 289 281 282
g Group46994
f 157 158 155 154
g Group32941
f 291 306 284 290
g Group46994
f 150 123 121 148
g Group32941
f 287 288 318 310
g Group46994
f 131 127 132 142
g Group32941
f 318 316 313 310
g Group46994
f 132 127 125 133
g Group32941
f 320 306 291 319
g Group32944
f 151 149 320 319
g Group46994
f 149 151 150 148
g Group32941
f 319 291 292 307
g Group32944
f 153 151 319 307
g Group46994
f 151 153 152 150
g Group32941
f 242 305 306 320
g Group32944
f 149 161 242 320
g Group46994
f 161 149 148 147
g Group32941
f 323 322 321 315
g Group32944
f 136 137 321 322
g Group46994
f 135 138 137 136
g Group32941
f 323 315 312 317
g Group46994
f 135 134 126 138
g Group32941
f 289 290 308 281
g Group46994
f 154 155 124 123
g Group32941
f 321 324 314 315
g Group32944
f 137 139 324 321
g Group46994
f 137 138 129 139
g Group32941
f 324 304 302 314
g Group32944
f 139 140 304 324
g Group46994
f 139 129 141 140
g Group32941
f 254 318 288 257
g Group46994
f 103 102 142 132
g Group32941
f 268 286 283 269
g Group46994
f 93 94 146 145
g Group32941
f 323 277 278 322
g Group32944
f 107 136 322 278
g Group46994
f 135 136 107 106
g Group32941
f 279 300 257 288
g Group46994
f 159 142 102 119
g Group32941
f 274 280 309 273
g Group46994
f 101 92 144 143
g Group32941
f 269 283 305 294
g Group46994
f 94 95 147 146
g Group32941
f 273 309 286 268
g Group46994
f 92 93 145 144
g Group32941
f 294 305 242 196
g Group46994
f 95 162 161 147
g Group32941
f 277 323 317 299
g Group46994
f 106 105 134 135
g Group32941
f 280 274 300 279
g Group46994
f 143 159 119 101
g Group32941
f 316 253 299 317
g Group46994
f 133 134 105 104
g Group32941
f 318 254 253 316
g Group46994
f 132 133 104 103

 