# File exported by ZBrush version 2021
# www.zbrush.com
#Vertex Count 164
#Face Count 162
#Auto scale x=1.000000 y=1.000000 z=1.000000
#Auto offset x=0.000000 y=0.000000 z=0.000000
v 1.21656703 -0.80215001 0.29482549
v 0.98126298 -0.67235499 0.29482549
v 0.87872999 -1.17347598 0.29482549
v 0.74295502 -0.74901402 0.29482549
v -0.96312797 -0.64304399 0.29482549
v -1.22329795 -0.79217797 0.29482549
v -0.73354297 -0.74309301 0.29482549
v -0.905604 -1.162454 0.29482549
v -1.06183505 -1.36702501 0.29482549
v -0.430886 -1.38707304 0.29482549
v -0.31602299 -0.80778402 0.29482549
v -0.73738098 -0.293776 0.29482549
v -1.001989 -0.296175 0.29482549
v -1.30996799 -0.307231 0.29482549
v -1.63580405 -0.326402 0.29482549
v -1.91806602 -0.376309 0.29482549
v -1.67825901 -1.03449404 0.29482549
v -1.46035301 -0.90891802 0.29482549
v -1.21264004 -1.56613099 0.29482549
v -0.58415997 -1.890239 0.29482549
v -0.50593197 -1.64270305 0.29482549
v -0.30036601 -0.30120098 0.29482549
v 0.30371099 -0.30320099 0.29482549
v 0.754 -0.29641398 0.29482549
v 1.017663 -0.298646 0.29482549
v 1.32184696 -0.309906 0.29482549
v 1.63999605 -0.33204299 0.29482549
v 1.916386 -0.386994 0.29482549
v 1.44360494 -0.92659801 0.29482549
v 1.65858304 -1.06292295 0.29482549
v 1.03096902 -1.380764 0.29482549
v 1.18763303 -1.58320796 0.29482549
v 0.46232399 -1.65444505 0.29482549
v 0.53103601 -1.90880596 0.29482549
v 0.39172101 -1.39611899 0.29482549
v 0.30573099 -0.81071597 0.29482549
v -0.023658 -1.70887804 0.29482549
v -0.020482 -1.43837201 0.29482549
v -0.011008 -0.82516998 0.29482549
v -0.001957 -0.305222 0.29482549
v -0.029108 -1.97210097 0.29482549
v -1.21647405 0.80218499 0.29482549
v -0.97087198 0.65300297 0.29482549
v -0.878771 1.17347598 0.29482549
v -0.74170297 0.74933499 0.29482549
v 0.99530297 0.67712497 0.29482549
v 1.23112201 0.79536002 0.29482549
v 0.74960798 0.748739 0.29482549
v 0.908441 1.16366303 0.29482549
v 1.06192803 1.36714601 0.29482549
v 0.43093898 1.38711702 0.29482549
v 0.32519298 0.81074798 0.29482549
v 0.76291197 0.30232098 0.29482549
v 1.02336096 0.30366998 0.29482549
v 1.32222604 0.31186699 0.29482549
v 1.63905096 0.32788899 0.29482549
v 1.91806602 0.37640899 0.29482549
v 1.67818796 1.03454804 0.29482549
v 1.462237 0.90991801 0.29482549
v 1.21259999 1.56613099 0.29482549
v 0.58411997 1.890239 0.29482549
v 0.50589102 1.64270305 0.29482549
v 0.318921 0.306912 0.29482549
v -0.29528701 0.30554699 0.29482549
v -0.74050998 0.30058699 0.29482549
v -1.006513 0.30228099 0.29482549
v -1.31647896 0.31179899 0.29482549
v -1.63935196 0.33234399 0.29482549
v -1.91642701 0.38699498 0.29482549
v -1.44364595 0.92659801 0.29482549
v -1.65862405 1.06292295 0.29482549
v -1.03101003 1.380764 0.29482549
v -1.18767404 1.58320796 0.29482549
v -0.46236398 1.65444505 0.29482549
v -0.53107702 1.90880596 0.29482549
v -0.39176198 1.39611899 0.29482549
v -0.30565398 0.81072998 0.29482549
v 0.02361699 1.70887804 0.29482549
v 0.02044099 1.43837201 0.29482549
v 0.013605 0.82591801 0.29482549
v 0.010778 0.30775699 0.29482549
v 0.029067 1.97210097 0.29482549
v 0.53103601 -1.90880596 -0.29482549
v -0.029108 -1.97210097 -0.29482549
v -0.023658 -1.70887804 -0.29482549
v 0.46232399 -1.65444505 -0.29482549
v 1.21656703 -0.80215001 -0.29482549
v 0.87872999 -1.17347598 -0.29482549
v 0.74295502 -0.74901402 -0.29482549
v 0.98126298 -0.67235499 -0.29482549
v 1.017663 -0.298646 -0.29482549
v 0.754 -0.29641398 -0.29482549
v -0.020482 -1.43837201 -0.29482549
v 0.39172101 -1.39611899 -0.29482549
v 0.30371099 -0.30320099 -0.29482549
v 0.30573099 -0.81071597 -0.29482549
v -0.73354297 -0.74309301 -0.29482549
v -0.905604 -1.162454 -0.29482549
v -1.22329795 -0.79217797 -0.29482549
v -0.96312797 -0.64304399 -0.29482549
v -1.06183505 -1.36702501 -0.29482549
v -1.46035301 -0.90891802 -0.29482549
v -0.430886 -1.38707304 -0.29482549
v -0.50593197 -1.64270305 -0.29482549
v -0.31602299 -0.80778402 -0.29482549
v -1.001989 -0.296175 -0.29482549
v -1.30996799 -0.307231 -0.29482549
v -0.011008 -0.82516998 -0.29482549
v 1.44360494 -0.92659801 -0.29482549
v 1.03096902 -1.380764 -0.29482549
v -0.73738098 -0.293776 -0.29482549
v -0.30036601 -0.30120098 -0.29482549
v 1.18763303 -1.58320796 -0.29482549
v 1.65858304 -1.06292295 -0.29482549
v 1.63999605 -0.33204299 -0.29482549
v 1.916386 -0.386994 -0.29482549
v 0.010778 0.30775699 -0.29482549
v -0.29528701 0.30554699 -0.29482549
v -0.30565398 0.81072998 -0.29482549
v 0.013605 0.82591801 -0.29482549
v -1.31647896 0.31179899 -0.29482549
v -1.21647405 0.80218499 -0.29482549
v -0.97087198 0.65300297 -0.29482549
v -1.006513 0.30228099 -0.29482549
v 0.32519298 0.81074798 -0.29482549
v 0.318921 0.306912 -0.29482549
v -0.39176198 1.39611899 -0.29482549
v -0.878771 1.17347598 -0.29482549
v -1.03101003 1.380764 -0.29482549
v -0.46236398 1.65444505 -0.29482549
v -1.67825901 -1.03449404 -0.29482549
v -1.91806602 -0.376309 -0.29482549
v -1.63580405 -0.326402 -0.29482549
v 0.43093898 1.38711702 -0.29482549
v 0.02044099 1.43837201 -0.29482549
v -1.21264004 -1.56613099 -0.29482549
v -0.58415997 -1.890239 -0.29482549
v 1.32184696 -0.309906 -0.29482549
v -0.001957 -0.305222 -0.29482549
v 0.02361699 1.70887804 -0.29482549
v 0.50589102 1.64270305 -0.29482549
v 0.029067 1.97210097 -0.29482549
v 0.58411997 1.890239 -0.29482549
v -1.63935196 0.33234399 -0.29482549
v -1.44364595 0.92659801 -0.29482549
v -0.53107702 1.90880596 -0.29482549
v -0.74170297 0.74933499 -0.29482549
v -0.74050998 0.30058699 -0.29482549
v 0.74960798 0.748739 -0.29482549
v 0.908441 1.16366303 -0.29482549
v 1.23112201 0.79536002 -0.29482549
v 0.99530297 0.67712497 -0.29482549
v 1.06192803 1.36714601 -0.29482549
v 1.462237 0.90991801 -0.29482549
v 1.02336096 0.30366998 -0.29482549
v 1.32222604 0.31186699 -0.29482549
v 0.76291197 0.30232098 -0.29482549
v -1.18767404 1.58320796 -0.29482549
v -1.65862405 1.06292295 -0.29482549
v -1.91642701 0.38699498 -0.29482549
v 1.67818796 1.03454804 -0.29482549
v 1.91806602 0.37640899 -0.29482549
v 1.63905096 0.32788899 -0.29482549
v 1.21259999 1.56613099 -0.29482549
g Group32941
f 86 85 84 83
g Group32944
f 41 34 83 84
g Group30994
f 33 34 41 37
g Group32941
f 90 89 88 87
g Group30994
f 2 1 3 4
g Group32941
f 92 89 90 91
g Group30994
f 24 25 2 4
g Group32941
f 85 86 94 93
g Group30994
f 37 38 35 33
g Group32941
f 96 89 92 95
g Group30994
f 36 23 24 4
g Group32941
f 100 99 98 97
g Group30994
f 5 7 8 6
g Group32941
f 98 99 102 101
g Group30994
f 8 9 18 6
g Group32941
f 98 101 104 103
g Group30994
f 8 10 21 9
g Group32941
f 98 103 105 97
g Group30994
f 8 7 11 10
g Group32941
f 107 99 100 106
g Group30994
f 14 13 5 6
g Group32941
f 93 94 96 108
g Group30994
f 38 39 36 35
g Group32941
f 110 109 87 88
g Group30994
f 31 3 1 29
g Group32941
f 105 112 111 97
g Group30994
f 11 7 12 22
g Group32941
f 111 106 100 97
g Group30994
f 12 7 5 13
g Group32941
f 114 109 110 113
g Group32944
f 32 30 114 113
g Group30994
f 30 32 31 29
g Group32941
f 113 110 86 83
g Group32944
f 34 32 113 83
g Group30994
f 32 34 33 31
g Group32941
f 116 115 109 114
g Group32944
f 30 28 116 114
g Group30994
f 28 30 29 27
g Group32941
f 120 119 118 117
g Group30994
f 80 81 64 77
g Group32941
f 124 123 122 121
g Group30994
f 66 67 42 43
g Group32941
f 120 117 126 125
g Group30994
f 80 52 63 81
g Group32941
f 130 129 128 127
g Group30994
f 74 76 44 72
g Group32941
f 133 132 131 102
g Group32944
f 16 17 131 132
g Group30994
f 15 18 17 16
g Group32941
f 133 102 99 107
g Group30994
f 15 14 6 18
g Group32941
f 94 88 89 96
g Group30994
f 35 36 4 3
g Group32941
f 135 120 125 134
g Group30994
f 79 51 52 80
g Group32941
f 131 136 101 102
g Group32944
f 17 19 136 131
g Group30994
f 17 18 9 19
g Group32941
f 136 137 104 101
g Group32944
f 19 20 137 136
g Group30994
f 19 9 21 20
g Group32941
f 138 87 109 115
g Group30994
f 26 27 29 1
g Group32941
f 104 137 84 85
g Group32944
f 20 41 84 137
g Group30994
f 21 37 41 20
g Group32941
f 104 85 93 103
g Group30994
f 21 10 38 37
g Group32941
f 93 108 105 103
g Group30994
f 38 10 11 39
g Group32941
f 86 110 88 94
g Group30994
f 33 35 3 31
g Group32941
f 108 139 112 105
g Group30994
f 39 11 22 40
g Group32941
f 141 140 135 134
g Group30994
f 62 51 79 78
g Group32941
f 91 90 87 138
g Group30994
f 25 26 1 2
g Group32941
f 141 143 142 140
g Group32944
f 61 82 142 143
g Group30994
f 62 78 82 61
g Group32941
f 108 96 95 139
g Group30994
f 39 40 23 36
g Group32941
f 121 122 145 144
g Group30994
f 67 68 70 42
g Group32941
f 130 140 142 146
g Group32944
f 82 75 146 142
g Group30994
f 74 75 82 78
g Group32941
f 123 147 128 122
g Group30994
f 43 42 44 45
g Group32941
f 148 147 123 124
g Group30994
f 65 66 43 45
g Group32941
f 140 130 127 135
g Group30994
f 78 79 76 74
g Group32941
f 119 147 148 118
g Group30994
f 77 64 65 45
g Group32941
f 152 151 150 149
g Group30994
f 46 48 49 47
g Group32941
f 150 151 154 153
g Group30994
f 49 50 59 47
g Group32941
f 150 153 141 134
g Group30994
f 49 51 62 50
g Group32941
f 150 134 125 149
g Group30994
f 49 48 52 51
g Group32941
f 156 151 152 155
g Group30994
f 55 54 46 47
g Group32941
f 135 127 119 120
g Group30994
f 79 80 77 76
g Group32941
f 129 145 122 128
g Group30994
f 72 44 42 70
g Group32941
f 125 126 157 149
g Group30994
f 52 48 53 63
g Group32941
f 157 155 152 149
g Group30994
f 53 48 46 54
g Group32941
f 159 145 129 158
g Group32944
f 73 71 159 158
g Group30994
f 71 73 72 70
g Group32941
f 158 129 130 146
g Group32944
f 75 73 158 146
g Group30994
f 73 75 74 72
g Group32941
f 160 144 145 159
g Group32944
f 71 69 160 159
g Group30994
f 69 71 70 68
g Group32941
f 163 162 161 154
g Group32944
f 57 58 161 162
g Group30994
f 56 59 58 57
g Group32941
f 163 154 151 156
g Group30994
f 56 55 47 59
g Group32941
f 127 128 147 119
g Group30994
f 76 77 45 44
g Group32941
f 161 164 153 154
g Group32944
f 58 60 164 161
g Group30994
f 58 59 50 60
g Group32941
f 164 143 141 153
g Group32944
f 60 61 143 164
g Group30994
f 60 50 62 61
g Group32941
f 92 157 126 95
g Group30994
f 24 23 63 53
g Group32941
f 106 124 121 107
g Group30994
f 13 14 67 66
g Group32941
f 163 115 116 162
g Group32944
f 28 57 162 116
g Group30994
f 56 57 28 27
g Group32941
f 117 139 95 126
g Group30994
f 81 63 23 40
g Group32941
f 112 118 148 111
g Group30994
f 22 12 65 64
g Group32941
f 107 121 144 133
g Group30994
f 14 15 68 67
g Group32941
f 111 148 124 106
g Group30994
f 12 13 66 65
g Group32941
f 133 144 160 132
g Group32944
f 69 16 132 160
g Group30994
f 15 16 69 68
g Group32941
f 115 163 156 138
g Group30994
f 27 26 55 56
g Group32941
f 118 112 139 117
g Group30994
f 64 81 40 22
g Group32941
f 155 91 138 156
g Group30994
f 54 55 26 25
g Group32941
f 157 92 91 155
g Group30994
f 53 54 25 24

 