# File exported by ZBrush version 2021
# www.zbrush.com
#Vertex Count 636
#Face Count 636
#Auto scale x=1.000000 y=1.000000 z=1.000000
#Auto offset x=0.000000 y=0.000000 z=0.000000
v -0.52429246 0.81391549 0.29220649
v -0.69906646 0.91032147 0.29220649
v -0.77522349 0.53810846 0.29220649
v -0.87607246 0.85338246 0.29220649
v -2.14328336 0.93209248 0.29220649
v -2.33652854 0.8213225 0.29220649
v -1.9727565 0.85778045 0.29220649
v -2.10055756 0.54629546 0.29220649
v -2.21659946 0.39434748 0.29220649
v -1.74795544 0.37945747 0.29220649
v -1.66264045 0.80973047 0.29220649
v -1.97560846 1.19151544 0.29220649
v -2.17214846 1.18973243 0.29220649
v -2.40090346 1.18152153 0.29220649
v -2.64292144 1.1672815 0.29220649
v -2.85257554 1.13021349 0.29220649
v -2.67445635 0.64133948 0.29220649
v -2.51260352 0.73461246 0.29220649
v -2.32861256 0.24646048 0.29220649
v -1.8618015 0.00572547 0.29220649
v -1.80369651 0.18958547 0.29220649
v -1.65101051 1.18600046 0.29220649
v -1.20232546 1.18451547 0.29220649
v -0.86786747 1.18955647 0.29220649
v -0.67203044 1.18789851 0.29220649
v -0.44609347 1.17953443 0.29220649
v -0.20978547 1.16309249 0.29220649
v -0.35565647 0.72148048 0.29220649
v -0.19597947 0.62022244 0.29220649
v -0.66214644 0.38414347 0.29220649
v -0.5457825 0.23377548 0.29220649
v -1.08451449 0.18086347 0.29220649
v -1.03347742 -0.00806652 0.29220649
v -1.13695442 0.37273848 0.29220649
v -1.20082449 0.80755245 0.29220649
v -1.44548249 0.14043347 0.29220649
v -1.4431225 0.34135448 0.29220649
v -1.43608653 0.79681646 0.29220649
v -1.42936348 1.18301343 0.29220649
v -1.43295943 -0.00281552 0.29220649
v -2.33145952 2.00555253 0.29220649
v -2.1490364 1.89474642 0.29220649
v -2.08062648 2.28133344 0.29220649
v -1.97881853 1.96629643 0.29220649
v -0.68863749 1.9126625 0.29220649
v -0.51348048 2.00048351 0.29220649
v -0.87113046 1.96585547 0.29220649
v -0.75315648 2.27404451 0.29220649
v -0.63915145 2.42518353 0.29220649
v -1.10782551 2.4400165 0.29220649
v -1.18636941 2.01191353 0.29220649
v -0.8612495 1.63427245 0.29220649
v -0.6677975 1.63527548 0.29220649
v -0.44581246 1.64136445 0.29220649
v -0.21048747 1.65326452 0.29220649
v -0.18141847 2.17814254 0.29220649
v -0.34181746 2.08557248 0.29220649
v -0.52723848 2.57298159 0.29220649
v -0.99404948 2.81371641 0.29220649
v -1.05215442 2.62985658 0.29220649
v -1.19102847 1.63768243 0.29220649
v -1.64723849 1.63666951 0.29220649
v -1.97793149 1.63298547 0.29220649
v -2.17550945 1.63424348 0.29220649
v -2.40573859 1.64131343 0.29220649
v -2.64555645 1.65657353 0.29220649
v -2.85135841 1.69716453 0.29220649
v -2.50019455 2.09796237 0.29220649
v -2.65987253 2.19921755 0.29220649
v -2.19370341 2.43529748 0.29220649
v -2.31006741 2.58566546 0.29220649
v -1.77133643 2.63857841 0.29220649
v -1.82237243 2.82750749 0.29220649
v -1.71889543 2.44670343 0.29220649
v -1.6549375 2.01189947 0.29220649
v -1.41036844 2.67900848 0.29220649
v -1.41272747 2.47808742 0.29220649
v -1.41780448 2.02317953 0.29220649
v -1.41990447 1.63831043 0.29220649
v -1.40632045 2.87452054 0.29220649
v 2.33152747 0.81391549 0.29220649
v 2.15675354 0.91032147 0.29220649
v 2.08059644 0.53810846 0.29220649
v 1.97974658 0.85338246 0.29220649
v 0.7125355 0.93209248 0.29220649
v 0.51929152 0.8213225 0.29220649
v 0.88306254 0.85778045 0.29220649
v 0.75526154 0.54629546 0.29220649
v 0.63921952 0.39434748 0.29220649
v 1.10786354 0.37945747 0.29220649
v 1.19317948 0.80973047 0.29220649
v 0.88021051 1.19151544 0.29220649
v 0.68367052 1.18973243 0.29220649
v 0.45491552 1.18152153 0.29220649
v 0.21289752 1.1672815 0.29220649
v 0.18136352 0.64133948 0.29220649
v 0.3432165 0.73461246 0.29220649
v 0.52720654 0.24646048 0.29220649
v 0.99401849 0.00572547 0.29220649
v 1.05212247 0.18958547 0.29220649
v 1.20480954 1.18600046 0.29220649
v 1.65349447 1.18451547 0.29220649
v 1.98795151 1.18955647 0.29220649
v 2.18378853 1.18789851 0.29220649
v 2.40972662 1.17953443 0.29220649
v 2.64603352 1.16309249 0.29220649
v 2.85132646 1.12227749 0.29220649
v 2.50016355 0.72148048 0.29220649
v 2.65984153 0.62022244 0.29220649
v 2.19367241 0.38414347 0.29220649
v 2.31003642 0.23377548 0.29220649
v 1.77130556 0.18086347 0.29220649
v 1.82234156 -0.00806652 0.29220649
v 1.71886456 0.37273848 0.29220649
v 1.65499448 0.80755245 0.29220649
v 1.41033756 0.14043347 0.29220649
v 1.41269552 0.34135448 0.29220649
v 1.41973352 0.79681646 0.29220649
v 1.42645549 1.18301343 0.29220649
v 1.42174148 0.00706147 0.29220649
v 0.52435952 2.00555253 0.29220649
v 0.70678353 1.89474642 0.29220649
v 0.77519249 2.28133344 0.29220649
v 0.87700051 1.96629643 0.29220649
v 2.16718149 1.9126625 0.29220649
v 2.34233951 2.00048351 0.29220649
v 1.98468947 1.96585547 0.29220649
v 2.10266351 2.27404451 0.29220649
v 2.21666741 2.42518353 0.29220649
v 1.74799549 2.4400165 0.29220649
v 1.66944956 2.01191353 0.29220649
v 1.99457049 1.63427245 0.29220649
v 2.18802261 1.63527548 0.29220649
v 2.41000747 1.64136445 0.29220649
v 2.64533257 1.65326452 0.29220649
v 2.85257554 1.68930244 0.29220649
v 2.67440152 2.17814254 0.29220649
v 2.51400351 2.08557248 0.29220649
v 2.32858157 2.57298159 0.29220649
v 1.86177146 2.81371641 0.29220649
v 1.80366647 2.62985658 0.29220649
v 1.66479146 1.63768243 0.29220649
v 1.20858156 1.63666951 0.29220649
v 0.87788754 1.63298547 0.29220649
v 0.68030953 1.63424348 0.29220649
v 0.45008051 1.64131343 0.29220649
v 0.21026252 1.65657353 0.29220649
v 0.35562452 2.09796237 0.29220649
v 0.19594752 2.19921755 0.29220649
v 0.66211551 2.43529748 0.29220649
v 0.54575151 2.58566546 0.29220649
v 1.08448255 2.63857841 0.29220649
v 1.03344655 2.82750749 0.29220649
v 1.13692355 2.44670343 0.29220649
v 1.20088148 2.01189947 0.29220649
v 1.44544947 2.67900848 0.29220649
v 1.44309246 2.47808742 0.29220649
v 1.4380145 2.02317953 0.29220649
v 1.43591451 1.63831043 0.29220649
v 1.44949948 2.87452054 0.29220649
v 0.00022952 1.6897335 0.29220649
v -0.00100447 1.12553548 0.29220649
v -0.52429246 -2.00552558 0.29220649
v -0.69906646 -1.90911853 0.29220649
v -0.77522349 -2.28133249 0.29220649
v -0.87607246 -1.96605849 0.29220649
v -2.14328336 -1.88734757 0.29220649
v -2.33652854 -1.99811852 0.29220649
v -1.9727565 -1.96165955 0.29220649
v -2.10055756 -2.27314662 0.29220649
v -2.21659946 -2.42509341 0.29220649
v -1.74795544 -2.43998241 0.29220649
v -1.66264045 -2.00971055 0.29220649
v -1.97560846 -1.62792456 0.29220649
v -2.17214846 -1.62970757 0.29220649
v -2.40090346 -1.63791847 0.29220649
v -2.64292144 -1.65215849 0.29220649
v -2.85257554 -1.6892265 0.29220649
v -2.67445635 -2.17809963 0.29220649
v -2.51260352 -2.08482742 0.29220649
v -2.32861256 -2.57298064 0.29220649
v -1.8618015 -2.81371545 0.29220649
v -1.80369651 -2.62985444 0.29220649
v -1.65101051 -1.63343954 0.29220649
v -1.20232546 -1.63492453 0.29220649
v -0.86786747 -1.62988352 0.29220649
v -0.67203044 -1.63154053 0.29220649
v -0.44609347 -1.63990449 0.29220649
v -0.20978547 -1.65634751 0.29220649
v -0.35565647 -2.09796047 0.29220649
v -0.19597947 -2.19921755 0.29220649
v -0.66214644 -2.43529653 0.29220649
v -0.5457825 -2.58566546 0.29220649
v -1.08451449 -2.6385765 0.29220649
v -1.03347742 -2.82750749 0.29220649
v -1.13695442 -2.44670248 0.29220649
v -1.20082449 -2.01188755 0.29220649
v -1.44548249 -2.67900753 0.29220649
v -1.4431225 -2.47808647 0.29220649
v -1.43608653 -2.02262353 0.29220649
v -1.42936348 -1.63642656 0.29220649
v -1.44953048 -2.87452054 0.29220649
v -2.33145952 -0.81388652 0.29220649
v -2.1490364 -0.92469352 0.29220649
v -2.08062648 -0.5381065 0.29220649
v -1.97881853 -0.85314154 0.29220649
v -0.68863749 -0.90677654 0.29220649
v -0.51348048 -0.81895649 0.29220649
v -0.87113046 -0.85358554 0.29220649
v -0.75315648 -0.54539549 0.29220649
v -0.63915145 -0.39425653 0.29220649
v -1.10782551 -0.37942352 0.29220649
v -1.18636941 -0.80752652 0.29220649
v -0.8612495 -1.18516647 0.29220649
v -0.6677975 -1.18416452 0.29220649
v -0.44581246 -1.1780765 0.29220649
v -0.21048747 -1.16617655 0.29220649
v -0.18141847 -0.64129751 0.29220649
v -0.34181746 -0.73386752 0.29220649
v -0.52723848 -0.24645751 0.29220649
v -0.00100447 -1.69390451 0.29220649
v -1.05215442 -0.18958352 0.29220649
v -1.19102847 -1.18175756 0.29220649
v -1.64723849 -1.18277049 0.29220649
v -1.97793149 -1.18645548 0.29220649
v -2.17550945 -1.18519651 0.29220649
v -2.40573859 -1.17812657 0.29220649
v -2.64555645 -1.16286647 0.29220649
v -2.85135841 -1.12227451 0.29220649
v -2.50019455 -0.72147852 0.29220649
v -2.65987253 -0.62022149 0.29220649
v -2.19370341 -0.38414153 0.29220649
v -2.31006741 -0.23377353 0.29220649
v -1.77133643 -0.18086151 0.29220649
v 0.00022952 -1.1297065 0.29220649
v -1.71889543 -0.37273553 0.29220649
v -1.6549375 -0.80754053 0.29220649
v -1.41689443 -0.14043152 0.29220649
v -1.41272747 -0.34135252 0.29220649
v -1.41780448 -0.79625952 0.29220649
v -1.41990447 -1.18112957 0.29220649
v 2.33152747 -2.00552558 0.29220649
v 2.15675354 -1.90911853 0.29220649
v 2.08059644 -2.28133249 0.29220649
v 1.97974658 -1.96605849 0.29220649
v 0.7125355 -1.88734757 0.29220649
v 0.51929152 -1.99811852 0.29220649
v 0.88306254 -1.96165955 0.29220649
v 0.75526154 -2.27314662 0.29220649
v 0.63921952 -2.42509341 0.29220649
v 1.10786354 -2.43998241 0.29220649
v 1.19317948 -2.00971055 0.29220649
v 0.88021051 -1.62792456 0.29220649
v 0.68367052 -1.62970757 0.29220649
v 0.45491552 -1.63791847 0.29220649
v 0.21289752 -1.65215849 0.29220649
v 0.18136352 -2.17809963 0.29220649
v 0.3432165 -2.08482742 0.29220649
v 0.52720654 -2.57298064 0.29220649
v 0.99401849 -2.81371545 0.29220649
v 1.05212247 -2.62985444 0.29220649
v 1.20480954 -1.63343954 0.29220649
v 1.65349447 -1.63492453 0.29220649
v 1.98795151 -1.62988352 0.29220649
v 2.18378853 -1.63154053 0.29220649
v 2.40972662 -1.63990449 0.29220649
v 2.64603352 -1.65634751 0.29220649
v 2.85132646 -1.69716358 0.29220649
v 2.50016355 -2.09796047 0.29220649
v 2.65984153 -2.19921755 0.29220649
v 2.19367241 -2.43529653 0.29220649
v 2.31003642 -2.58566546 0.29220649
v 1.77130556 -2.6385765 0.29220649
v 1.82234156 -2.82750749 0.29220649
v 1.71886456 -2.44670248 0.29220649
v 1.65499448 -2.01188755 0.29220649
v 1.41033756 -2.67900753 0.29220649
v 1.41269552 -2.47808647 0.29220649
v 1.41973352 -2.02262353 0.29220649
v 1.42645549 -1.63642656 0.29220649
v 1.4062885 -2.87452054 0.29220649
v 0.52435952 -0.81388652 0.29220649
v 0.70678353 -0.92469352 0.29220649
v 0.77519249 -0.5381065 0.29220649
v 0.87700051 -0.85314154 0.29220649
v 2.16718149 -0.90677654 0.29220649
v 2.34233951 -0.81895649 0.29220649
v 1.98468947 -0.85358554 0.29220649
v 2.10266351 -0.54539549 0.29220649
v 2.21666741 -0.39425653 0.29220649
v 1.74799549 -0.37942352 0.29220649
v 1.66944956 -0.80752652 0.29220649
v 1.99457049 -1.18516647 0.29220649
v 2.18802261 -1.18416452 0.29220649
v 2.41000747 -1.1780765 0.29220649
v 2.64533257 -1.16617655 0.29220649
v 2.85257554 -1.13013649 0.29220649
v 2.67440152 -0.64129751 0.29220649
v 2.51400351 -0.73386752 0.29220649
v 2.32858157 -0.24645751 0.29220649
v 1.4380145 -0.79625952 0.29220649
v 1.80366647 -0.18958352 0.29220649
v 1.66479146 -1.18175756 0.29220649
v 1.20858156 -1.18277049 0.29220649
v 0.87788754 -1.18645548 0.29220649
v 0.68030953 -1.18519651 0.29220649
v 0.45008051 -1.17812657 0.29220649
v 0.21026252 -1.16286647 0.29220649
v 0.35562452 -0.72147852 0.29220649
v 0.19594752 -0.62022149 0.29220649
v 0.66211551 -0.38414153 0.29220649
v 0.54575151 -0.23377353 0.29220649
v 1.08448255 -0.18086151 0.29220649
v 1.43591451 -1.18112957 0.29220649
v 1.13692355 -0.37273553 0.29220649
v 1.20088148 -0.80754053 0.29220649
v 1.4250015 -0.14179451 0.29220649
v 1.44309246 -0.34135252 0.29220649
v -1.03347742 -0.00806652 -0.29220649
v -1.43295943 -0.00281552 -0.29220649
v -1.44548249 0.14043347 -0.29220649
v -1.08451449 0.18086347 -0.29220649
v -0.52429246 0.81391549 -0.29220649
v -0.77522349 0.53810846 -0.29220649
v -0.87607246 0.85338246 -0.29220649
v -0.69906646 0.91032147 -0.29220649
v -0.67203044 1.18789851 -0.29220649
v -0.86786747 1.18955647 -0.29220649
v -1.4431225 0.34135448 -0.29220649
v -1.13695442 0.37273848 -0.29220649
v -1.20232546 1.18451547 -0.29220649
v -1.20082449 0.80755245 -0.29220649
v -1.9727565 0.85778045 -0.29220649
v -2.10055756 0.54629546 -0.29220649
v -2.33652854 0.8213225 -0.29220649
v -2.14328336 0.93209248 -0.29220649
v -2.21659946 0.39434748 -0.29220649
v -2.51260352 0.73461246 -0.29220649
v -1.74795544 0.37945747 -0.29220649
v -1.80369651 0.18958547 -0.29220649
v -1.66264045 0.80973047 -0.29220649
v -2.17214846 1.18973243 -0.29220649
v -2.40090346 1.18152153 -0.29220649
v -1.43608653 0.79681646 -0.29220649
v -0.35565647 0.72148048 -0.29220649
v -0.66214644 0.38414347 -0.29220649
v -1.97560846 1.19151544 -0.29220649
v -1.65101051 1.18600046 -0.29220649
v -0.5457825 0.23377548 -0.29220649
v -0.19597947 0.62022244 -0.29220649
v -0.20978547 1.16309249 -0.29220649
v -0.00100447 1.12553548 -0.29220649
v -1.41990447 1.63831043 -0.29220649
v -1.64723849 1.63666951 -0.29220649
v -1.6549375 2.01189947 -0.29220649
v -1.41780448 2.02317953 -0.29220649
v -2.40573859 1.64131343 -0.29220649
v -2.33145952 2.00555253 -0.29220649
v -2.1490364 1.89474642 -0.29220649
v -2.17550945 1.63424348 -0.29220649
v -1.18636941 2.01191353 -0.29220649
v -1.19102847 1.63768243 -0.29220649
v -1.71889543 2.44670343 -0.29220649
v -2.08062648 2.28133344 -0.29220649
v -2.19370341 2.43529748 -0.29220649
v -1.77133643 2.63857841 -0.29220649
v -2.67445635 0.64133948 -0.29220649
v -2.85257554 1.13021349 -0.29220649
v -2.64292144 1.1672815 -0.29220649
v -1.10782551 2.4400165 -0.29220649
v -1.41272747 2.47808742 -0.29220649
v -2.32861256 0.24646048 -0.29220649
v -1.8618015 0.00572547 -0.29220649
v -0.44609347 1.17953443 -0.29220649
v -1.42936348 1.18301343 -0.29220649
v -1.41036844 2.67900848 -0.29220649
v -1.05215442 2.62985658 -0.29220649
v -1.40632045 2.87452054 -0.29220649
v -0.99404948 2.81371641 -0.29220649
v -2.64555645 1.65657353 -0.29220649
v -2.50019455 2.09796237 -0.29220649
v -1.82237243 2.82750749 -0.29220649
v -1.97881853 1.96629643 -0.29220649
v -1.97793149 1.63298547 -0.29220649
v -0.87113046 1.96585547 -0.29220649
v -0.75315648 2.27404451 -0.29220649
v -0.51348048 2.00048351 -0.29220649
v -0.68863749 1.9126625 -0.29220649
v -0.63915145 2.42518353 -0.29220649
v -0.34181746 2.08557248 -0.29220649
v -0.6677975 1.63527548 -0.29220649
v -0.44581246 1.64136445 -0.29220649
v -0.8612495 1.63427245 -0.29220649
v -2.31006741 2.58566546 -0.29220649
v -2.65987253 2.19921755 -0.29220649
v -2.85135841 1.69716453 -0.29220649
v -0.18141847 2.17814254 -0.29220649
v 0.00022952 1.6897335 -0.29220649
v -0.21048747 1.65326452 -0.29220649
v -0.52723848 2.57298159 -0.29220649
v 1.82234156 -0.00806652 -0.29220649
v 1.42174148 0.00706147 -0.29220649
v 1.41033756 0.14043347 -0.29220649
v 1.77130556 0.18086347 -0.29220649
v 2.33152747 0.81391549 -0.29220649
v 2.08059644 0.53810846 -0.29220649
v 1.97974658 0.85338246 -0.29220649
v 2.15675354 0.91032147 -0.29220649
v 2.18378853 1.18789851 -0.29220649
v 1.98795151 1.18955647 -0.29220649
v 1.41269552 0.34135448 -0.29220649
v 1.71886456 0.37273848 -0.29220649
v 1.65349447 1.18451547 -0.29220649
v 1.65499448 0.80755245 -0.29220649
v 0.88306254 0.85778045 -0.29220649
v 0.75526154 0.54629546 -0.29220649
v 0.51929152 0.8213225 -0.29220649
v 0.7125355 0.93209248 -0.29220649
v 0.63921952 0.39434748 -0.29220649
v 0.3432165 0.73461246 -0.29220649
v 1.10786354 0.37945747 -0.29220649
v 1.05212247 0.18958547 -0.29220649
v 1.19317948 0.80973047 -0.29220649
v 0.68367052 1.18973243 -0.29220649
v 0.45491552 1.18152153 -0.29220649
v 1.41973352 0.79681646 -0.29220649
v 2.50016355 0.72148048 -0.29220649
v 2.19367241 0.38414347 -0.29220649
v 0.88021051 1.19151544 -0.29220649
v 1.20480954 1.18600046 -0.29220649
v 2.31003642 0.23377548 -0.29220649
v 2.65984153 0.62022244 -0.29220649
v 2.64603352 1.16309249 -0.29220649
v 2.85132646 1.12227749 -0.29220649
v 1.43591451 1.63831043 -0.29220649
v 1.20858156 1.63666951 -0.29220649
v 1.20088148 2.01189947 -0.29220649
v 1.4380145 2.02317953 -0.29220649
v 0.45008051 1.64131343 -0.29220649
v 0.52435952 2.00555253 -0.29220649
v 0.70678353 1.89474642 -0.29220649
v 0.68030953 1.63424348 -0.29220649
v 1.66944956 2.01191353 -0.29220649
v 1.66479146 1.63768243 -0.29220649
v 1.13692355 2.44670343 -0.29220649
v 0.77519249 2.28133344 -0.29220649
v 0.66211551 2.43529748 -0.29220649
v 1.08448255 2.63857841 -0.29220649
v 0.18136352 0.64133948 -0.29220649
v 0.21289752 1.1672815 -0.29220649
v 1.74799549 2.4400165 -0.29220649
v 1.44309246 2.47808742 -0.29220649
v 0.52720654 0.24646048 -0.29220649
v 0.99401849 0.00572547 -0.29220649
v 2.40972662 1.17953443 -0.29220649
v 1.42645549 1.18301343 -0.29220649
v 1.44544947 2.67900848 -0.29220649
v 1.80366647 2.62985658 -0.29220649
v 1.44949948 2.87452054 -0.29220649
v 1.86177146 2.81371641 -0.29220649
v 0.21026252 1.65657353 -0.29220649
v 0.35562452 2.09796237 -0.29220649
v 1.03344655 2.82750749 -0.29220649
v 0.87700051 1.96629643 -0.29220649
v 0.87788754 1.63298547 -0.29220649
v 1.98468947 1.96585547 -0.29220649
v 2.10266351 2.27404451 -0.29220649
v 2.34233951 2.00048351 -0.29220649
v 2.16718149 1.9126625 -0.29220649
v 2.21666741 2.42518353 -0.29220649
v 2.51400351 2.08557248 -0.29220649
v 2.18802261 1.63527548 -0.29220649
v 2.41000747 1.64136445 -0.29220649
v 1.99457049 1.63427245 -0.29220649
v 0.54575151 2.58566546 -0.29220649
v 0.19594752 2.19921755 -0.29220649
v 2.67440152 2.17814254 -0.29220649
v 2.85257554 1.68930244 -0.29220649
v 2.64533257 1.65326452 -0.29220649
v 2.32858157 2.57298159 -0.29220649
v -1.03347742 -2.82750749 -0.29220649
v -1.44953048 -2.87452054 -0.29220649
v -1.44548249 -2.67900753 -0.29220649
v -1.08451449 -2.6385765 -0.29220649
v -0.52429246 -2.00552558 -0.29220649
v -0.77522349 -2.28133249 -0.29220649
v -0.87607246 -1.96605849 -0.29220649
v -0.69906646 -1.90911853 -0.29220649
v -0.67203044 -1.63154053 -0.29220649
v -0.86786747 -1.62988352 -0.29220649
v -1.4431225 -2.47808647 -0.29220649
v -1.13695442 -2.44670248 -0.29220649
v -1.20232546 -1.63492453 -0.29220649
v -1.20082449 -2.01188755 -0.29220649
v -1.9727565 -1.96165955 -0.29220649
v -2.10055756 -2.27314662 -0.29220649
v -2.33652854 -1.99811852 -0.29220649
v -2.14328336 -1.88734757 -0.29220649
v -2.21659946 -2.42509341 -0.29220649
v -2.51260352 -2.08482742 -0.29220649
v -1.74795544 -2.43998241 -0.29220649
v -1.80369651 -2.62985444 -0.29220649
v -1.66264045 -2.00971055 -0.29220649
v -2.17214846 -1.62970757 -0.29220649
v -2.40090346 -1.63791847 -0.29220649
v -1.43608653 -2.02262353 -0.29220649
v -0.35565647 -2.09796047 -0.29220649
v -0.66214644 -2.43529653 -0.29220649
v -1.97560846 -1.62792456 -0.29220649
v -1.65101051 -1.63343954 -0.29220649
v -0.5457825 -2.58566546 -0.29220649
v -0.19597947 -2.19921755 -0.29220649
v -0.20978547 -1.65634751 -0.29220649
v -0.00100447 -1.69390451 -0.29220649
v -1.41990447 -1.18112957 -0.29220649
v -1.64723849 -1.18277049 -0.29220649
v -1.6549375 -0.80754053 -0.29220649
v -1.41780448 -0.79625952 -0.29220649
v -2.40573859 -1.17812657 -0.29220649
v -2.33145952 -0.81388652 -0.29220649
v -2.1490364 -0.92469352 -0.29220649
v -2.17550945 -1.18519651 -0.29220649
v -1.18636941 -0.80752652 -0.29220649
v -1.19102847 -1.18175756 -0.29220649
v -1.71889543 -0.37273553 -0.29220649
v -2.08062648 -0.5381065 -0.29220649
v -2.19370341 -0.38414153 -0.29220649
v -1.77133643 -0.18086151 -0.29220649
v -2.67445635 -2.17809963 -0.29220649
v -2.85257554 -1.6892265 -0.29220649
v -2.64292144 -1.65215849 -0.29220649
v -1.10782551 -0.37942352 -0.29220649
v -1.41272747 -0.34135252 -0.29220649
v -2.32861256 -2.57298064 -0.29220649
v -1.8618015 -2.81371545 -0.29220649
v -0.44609347 -1.63990449 -0.29220649
v -1.42936348 -1.63642656 -0.29220649
v -1.41689443 -0.14043152 -0.29220649
v -1.05215442 -0.18958352 -0.29220649
v -2.64555645 -1.16286647 -0.29220649
v -2.50019455 -0.72147852 -0.29220649
v -1.97881853 -0.85314154 -0.29220649
v -1.97793149 -1.18645548 -0.29220649
v -0.87113046 -0.85358554 -0.29220649
v -0.75315648 -0.54539549 -0.29220649
v -0.51348048 -0.81895649 -0.29220649
v -0.68863749 -0.90677654 -0.29220649
v -0.63915145 -0.39425653 -0.29220649
v -0.34181746 -0.73386752 -0.29220649
v -0.6677975 -1.18416452 -0.29220649
v -0.44581246 -1.1780765 -0.29220649
v -0.8612495 -1.18516647 -0.29220649
v -2.31006741 -0.23377353 -0.29220649
v -2.65987253 -0.62022149 -0.29220649
v -2.85135841 -1.12227451 -0.29220649
v -0.18141847 -0.64129751 -0.29220649
v 0.00022952 -1.1297065 -0.29220649
v -0.21048747 -1.16617655 -0.29220649
v -0.52723848 -0.24645751 -0.29220649
v 1.82234156 -2.82750749 -0.29220649
v 1.4062885 -2.87452054 -0.29220649
v 1.41033756 -2.67900753 -0.29220649
v 1.77130556 -2.6385765 -0.29220649
v 2.33152747 -2.00552558 -0.29220649
v 2.08059644 -2.28133249 -0.29220649
v 1.97974658 -1.96605849 -0.29220649
v 2.15675354 -1.90911853 -0.29220649
v 2.18378853 -1.63154053 -0.29220649
v 1.98795151 -1.62988352 -0.29220649
v 1.41269552 -2.47808647 -0.29220649
v 1.71886456 -2.44670248 -0.29220649
v 1.65349447 -1.63492453 -0.29220649
v 1.65499448 -2.01188755 -0.29220649
v 0.88306254 -1.96165955 -0.29220649
v 0.75526154 -2.27314662 -0.29220649
v 0.51929152 -1.99811852 -0.29220649
v 0.7125355 -1.88734757 -0.29220649
v 0.63921952 -2.42509341 -0.29220649
v 0.3432165 -2.08482742 -0.29220649
v 1.10786354 -2.43998241 -0.29220649
v 1.05212247 -2.62985444 -0.29220649
v 1.19317948 -2.00971055 -0.29220649
v 0.68367052 -1.62970757 -0.29220649
v 0.45491552 -1.63791847 -0.29220649
v 1.41973352 -2.02262353 -0.29220649
v 2.50016355 -2.09796047 -0.29220649
v 2.19367241 -2.43529653 -0.29220649
v 0.88021051 -1.62792456 -0.29220649
v 1.20480954 -1.63343954 -0.29220649
v 2.31003642 -2.58566546 -0.29220649
v 2.65984153 -2.19921755 -0.29220649
v 2.64603352 -1.65634751 -0.29220649
v 2.85132646 -1.69716358 -0.29220649
v 1.43591451 -1.18112957 -0.29220649
v 1.20858156 -1.18277049 -0.29220649
v 1.20088148 -0.80754053 -0.29220649
v 1.4380145 -0.79625952 -0.29220649
v 0.45008051 -1.17812657 -0.29220649
v 0.52435952 -0.81388652 -0.29220649
v 0.70678353 -0.92469352 -0.29220649
v 0.68030953 -1.18519651 -0.29220649
v 1.66944956 -0.80752652 -0.29220649
v 1.66479146 -1.18175756 -0.29220649
v 1.13692355 -0.37273553 -0.29220649
v 0.77519249 -0.5381065 -0.29220649
v 0.66211551 -0.38414153 -0.29220649
v 1.08448255 -0.18086151 -0.29220649
v 0.18136352 -2.17809963 -0.29220649
v 0.21289752 -1.65215849 -0.29220649
v 1.74799549 -0.37942352 -0.29220649
v 1.44309246 -0.34135252 -0.29220649
v 0.52720654 -2.57298064 -0.29220649
v 0.99401849 -2.81371545 -0.29220649
v 2.40972662 -1.63990449 -0.29220649
v 1.42645549 -1.63642656 -0.29220649
v 1.4250015 -0.14179451 -0.29220649
v 1.80366647 -0.18958352 -0.29220649
v 0.21026252 -1.16286647 -0.29220649
v 0.35562452 -0.72147852 -0.29220649
v 0.87700051 -0.85314154 -0.29220649
v 0.87788754 -1.18645548 -0.29220649
v 1.98468947 -0.85358554 -0.29220649
v 2.10266351 -0.54539549 -0.29220649
v 2.34233951 -0.81895649 -0.29220649
v 2.16718149 -0.90677654 -0.29220649
v 2.21666741 -0.39425653 -0.29220649
v 2.51400351 -0.73386752 -0.29220649
v 2.18802261 -1.18416452 -0.29220649
v 2.41000747 -1.1780765 -0.29220649
v 1.99457049 -1.18516647 -0.29220649
v 0.54575151 -0.23377353 -0.29220649
v 0.19594752 -0.62022149 -0.29220649
v 2.67440152 -0.64129751 -0.29220649
v 2.85257554 -1.13013649 -0.29220649
v 2.64533257 -1.16617655 -0.29220649
v 2.32858157 -0.24645751 -0.29220649
g Group32941
f 322 321 320 319
g Group62859
f 32 33 40 36
g Group32941
f 326 325 324 323
g Group62859
f 2 1 3 4
g Group32941
f 328 325 326 327
g Group62859
f 24 25 2 4
g Group32941
f 321 322 330 329
g Group62859
f 36 37 34 32
g Group32941
f 332 325 328 331
g Group62859
f 35 23 24 4
g Group32941
f 336 335 334 333
g Group62859
f 5 7 8 6
g Group32941
f 334 335 338 337
g Group62859
f 8 9 18 6
g Group32941
f 334 337 340 339
g Group62859
f 8 10 21 9
g Group32941
f 334 339 341 333
g Group62859
f 8 7 11 10
g Group32941
f 343 335 336 342
g Group62859
f 14 13 5 6
g Group32941
f 329 330 332 344
g Group62859
f 37 38 35 34
g Group32941
f 346 345 323 324
g Group62859
f 30 3 1 28
g Group32941
f 341 348 347 333
g Group62859
f 11 7 12 22
g Group32941
f 347 342 336 333
g Group62859
f 12 7 5 13
g Group32941
f 350 345 346 349
g Group32944
f 31 29 350 349
g Group62859
f 29 31 30 28
g Group32941
f 349 346 322 319
g Group32944
f 33 31 349 319
g Group62859
f 31 33 32 30
g Group32941
f 352 351 345 350
g Group32944
f 29 162 352 350
g Group62859
f 162 29 28 27
g Group32941
f 356 355 354 353
g Group62859
f 78 79 62 75
g Group32941
f 360 359 358 357
g Group62859
f 64 65 41 42
g Group32941
f 356 353 362 361
g Group62859
f 78 51 61 79
g Group32941
f 366 365 364 363
g Group62859
f 72 74 43 70
g Group32941
f 369 368 367 338
g Group32944
f 16 17 367 368
g Group62859
f 15 18 17 16
g Group32941
f 369 338 335 343
g Group62859
f 15 14 6 18
g Group32941
f 330 324 325 332
g Group62859
f 34 35 4 3
g Group32941
f 371 356 361 370
g Group62859
f 77 50 51 78
g Group32941
f 367 372 337 338
g Group32944
f 17 19 372 367
g Group62859
f 17 18 9 19
g Group32941
f 372 373 340 337
g Group32944
f 19 20 373 372
g Group62859
f 19 9 21 20
g Group32941
f 374 323 345 351
g Group62859
f 26 27 28 1
g Group32941
f 340 373 320 321
g Group62859
f 21 36 40 20
g Group32941
f 340 321 329 339
g Group62859
f 21 10 37 36
g Group32941
f 329 344 341 339
g Group62859
f 37 10 11 38
g Group32941
f 322 346 324 330
g Group62859
f 32 34 3 30
g Group32941
f 344 375 348 341
g Group62859
f 38 11 22 39
g Group32941
f 377 376 371 370
g Group62859
f 60 50 77 76
g Group32941
f 327 326 323 374
g Group62859
f 25 26 1 2
g Group32941
f 377 379 378 376
g Group32944
f 59 80 378 379
g Group62859
f 60 76 80 59
g Group32941
f 344 332 331 375
g Group62859
f 38 39 23 35
g Group32941
f 357 358 381 380
g Group62859
f 65 66 68 41
g Group32941
f 366 376 378 382
g Group32944
f 80 73 382 378
g Group62859
f 72 73 80 76
g Group32941
f 359 383 364 358
g Group62859
f 42 41 43 44
g Group32941
f 384 383 359 360
g Group62859
f 63 64 42 44
g Group32941
f 376 366 363 371
g Group62859
f 76 77 74 72
g Group32941
f 355 383 384 354
g Group62859
f 75 62 63 44
g Group32941
f 388 387 386 385
g Group62859
f 45 47 48 46
g Group32941
f 386 387 390 389
g Group62859
f 48 49 57 46
g Group32941
f 386 389 377 370
g Group62859
f 48 50 60 49
g Group32941
f 386 370 361 385
g Group62859
f 48 47 51 50
g Group32941
f 392 387 388 391
g Group62859
f 54 53 45 46
g Group32941
f 371 363 355 356
g Group62859
f 77 78 75 74
g Group32941
f 365 381 358 364
g Group62859
f 70 43 41 68
g Group32941
f 361 362 393 385
g Group62859
f 51 47 52 61
g Group32941
f 393 391 388 385
g Group62859
f 52 47 45 53
g Group32941
f 395 381 365 394
g Group32944
f 71 69 395 394
g Group62859
f 69 71 70 68
g Group32941
f 394 365 366 382
g Group32944
f 73 71 394 382
g Group62859
f 71 73 72 70
g Group32941
f 396 380 381 395
g Group32944
f 69 67 396 395
g Group62859
f 67 69 68 66
g Group32941
f 399 398 397 390
g Group32944
f 161 56 397 398
g Group62859
f 55 57 56 161
g Group32941
f 399 390 387 392
g Group62859
f 55 54 46 57
g Group32941
f 363 364 383 355
g Group62859
f 74 75 44 43
g Group32941
f 397 400 389 390
g Group32944
f 56 58 400 397
g Group62859
f 56 57 49 58
g Group32941
f 400 379 377 389
g Group32944
f 58 59 379 400
g Group62859
f 58 49 60 59
g Group32941
f 328 393 362 331
g Group62859
f 24 23 61 52
g Group32941
f 342 360 357 343
g Group62859
f 13 14 65 64
g Group32941
f 399 351 352 398
g Group62859
f 55 161 162 27
g Group32941
f 353 375 331 362
g Group62859
f 79 61 23 39
g Group32941
f 348 354 384 347
g Group62859
f 22 12 63 62
g Group32941
f 343 357 380 369
g Group62859
f 14 15 66 65
g Group32941
f 347 384 360 342
g Group62859
f 12 13 64 63
g Group32941
f 369 380 396 368
g Group32944
f 67 16 368 396
g Group62859
f 15 16 67 66
g Group32941
f 351 399 392 374
g Group62859
f 27 26 54 55
g Group32941
f 354 348 375 353
g Group62859
f 62 79 39 22
g Group32941
f 391 327 374 392
g Group62859
f 53 54 26 25
g Group32941
f 393 328 327 391
g Group62859
f 52 53 25 24
g Group32941
f 404 403 402 401
g Group62859
f 112 113 120 116
g Group32941
f 408 407 406 405
g Group62859
f 82 81 83 84
g Group32941
f 410 407 408 409
g Group62859
f 103 104 82 84
g Group32941
f 403 404 412 411
g Group62859
f 116 117 114 112
g Group32941
f 414 407 410 413
g Group62859
f 115 102 103 84
g Group32941
f 418 417 416 415
g Group62859
f 85 87 88 86
g Group32941
f 416 417 420 419
g Group62859
f 88 89 97 86
g Group32941
f 416 419 422 421
g Group62859
f 88 90 100 89
g Group32941
f 416 421 423 415
g Group62859
f 88 87 91 90
g Group32941
f 425 417 418 424
g Group62859
f 94 93 85 86
g Group32941
f 411 412 414 426
g Group62859
f 117 118 115 114
g Group32941
f 428 427 405 406
g Group62859
f 110 83 81 108
g Group32941
f 423 430 429 415
g Group62859
f 91 87 92 101
g Group32941
f 429 424 418 415
g Group62859
f 92 87 85 93
g Group32941
f 432 427 428 431
g Group32944
f 111 109 432 431
g Group62859
f 109 111 110 108
g Group32941
f 431 428 404 401
g Group32944
f 113 111 431 401
g Group62859
f 111 113 112 110
g Group32941
f 434 433 427 432
g Group32944
f 109 107 434 432
g Group62859
f 107 109 108 106
g Group32941
f 438 437 436 435
g Group62859
f 158 159 143 155
g Group32941
f 442 441 440 439
g Group62859
f 145 146 121 122
g Group32941
f 438 435 444 443
g Group62859
f 158 131 142 159
g Group32941
f 448 447 446 445
g Group62859
f 152 154 123 150
g Group32941
f 450 352 449 420
g Group32944
f 162 96 449 352
g Group62859
f 95 97 96 162
g Group32941
f 450 420 417 425
g Group62859
f 95 94 86 97
g Group32941
f 412 406 407 414
g Group62859
f 114 115 84 83
g Group32941
f 452 438 443 451
g Group62859
f 157 130 131 158
g Group32941
f 449 453 419 420
g Group32944
f 96 98 453 449
g Group62859
f 96 97 89 98
g Group32941
f 453 454 422 419
g Group32944
f 98 99 454 453
g Group62859
f 98 89 100 99
g Group32941
f 455 405 427 433
g Group62859
f 105 106 108 81
g Group32941
f 422 454 402 403
g Group62859
f 100 116 120 99
g Group32941
f 422 403 411 421
g Group62859
f 100 90 117 116
g Group32941
f 411 426 423 421
g Group62859
f 117 90 91 118
g Group32941
f 404 428 406 412
g Group62859
f 112 114 83 110
g Group32941
f 426 456 430 423
g Group62859
f 118 91 101 119
g Group32941
f 458 457 452 451
g Group62859
f 141 130 157 156
g Group32941
f 409 408 405 455
g Group62859
f 104 105 81 82
g Group32941
f 458 460 459 457
g Group32944
f 140 160 459 460
g Group62859
f 141 156 160 140
g Group32941
f 426 414 413 456
g Group62859
f 118 119 102 115
g Group32941
f 439 440 462 461
g Group62859
f 146 147 148 121
g Group32941
f 448 457 459 463
g Group32944
f 160 153 463 459
g Group62859
f 152 153 160 156
g Group32941
f 441 464 446 440
g Group62859
f 122 121 123 124
g Group32941
f 465 464 441 442
g Group62859
f 144 145 122 124
g Group32941
f 457 448 445 452
g Group62859
f 156 157 154 152
g Group32941
f 437 464 465 436
g Group62859
f 155 143 144 124
g Group32941
f 469 468 467 466
g Group62859
f 125 127 128 126
g Group32941
f 467 468 471 470
g Group62859
f 128 129 138 126
g Group32941
f 467 470 458 451
g Group62859
f 128 130 141 129
g Group32941
f 467 451 443 466
g Group62859
f 128 127 131 130
g Group32941
f 473 468 469 472
g Group62859
f 134 133 125 126
g Group32941
f 452 445 437 438
g Group62859
f 157 158 155 154
g Group32941
f 447 462 440 446
g Group62859
f 150 123 121 148
g Group32941
f 443 444 474 466
g Group62859
f 131 127 132 142
g Group32941
f 474 472 469 466
g Group62859
f 132 127 125 133
g Group32941
f 476 462 447 475
g Group32944
f 151 149 476 475
g Group62859
f 149 151 150 148
g Group32941
f 475 447 448 463
g Group32944
f 153 151 475 463
g Group62859
f 151 153 152 150
g Group32941
f 398 461 462 476
g Group32944
f 149 161 398 476
g Group62859
f 161 149 148 147
g Group32941
f 479 478 477 471
g Group32944
f 136 137 477 478
g Group62859
f 135 138 137 136
g Group32941
f 479 471 468 473
g Group62859
f 135 134 126 138
g Group32941
f 445 446 464 437
g Group62859
f 154 155 124 123
g Group32941
f 477 480 470 471
g Group32944
f 137 139 480 477
g Group62859
f 137 138 129 139
g Group32941
f 480 460 458 470
g Group32944
f 139 140 460 480
g Group62859
f 139 129 141 140
g Group32941
f 410 474 444 413
g Group62859
f 103 102 142 132
g Group32941
f 424 442 439 425
g Group62859
f 93 94 146 145
g Group32941
f 479 433 434 478
g Group32944
f 107 136 478 434
g Group62859
f 135 136 107 106
g Group32941
f 435 456 413 444
g Group62859
f 159 142 102 119
g Group32941
f 430 436 465 429
g Group62859
f 101 92 144 143
g Group32941
f 425 439 461 450
g Group62859
f 94 95 147 146
g Group32941
f 429 465 442 424
g Group62859
f 92 93 145 144
g Group32941
f 450 461 398 352
g Group62859
f 95 162 161 147
g Group32941
f 433 479 473 455
g Group62859
f 106 105 134 135
g Group32941
f 436 430 456 435
g Group62859
f 143 159 119 101
g Group32941
f 472 409 455 473
g Group62859
f 133 134 105 104
g Group32941
f 474 410 409 472
g Group62859
f 132 133 104 103
g Group32941
f 484 483 482 481
g Group32944
f 202 195 481 482
g Group62859
f 194 195 202 198
g Group32941
f 488 487 486 485
g Group62859
f 164 163 165 166
g Group32941
f 490 487 488 489
g Group62859
f 186 187 164 166
g Group32941
f 483 484 492 491
g Group62859
f 198 199 196 194
g Group32941
f 494 487 490 493
g Group62859
f 197 185 186 166
g Group32941
f 498 497 496 495
g Group62859
f 167 169 170 168
g Group32941
f 496 497 500 499
g Group62859
f 170 171 180 168
g Group32941
f 496 499 502 501
g Group62859
f 170 172 183 171
g Group32941
f 496 501 503 495
g Group62859
f 170 169 173 172
g Group32941
f 505 497 498 504
g Group62859
f 176 175 167 168
g Group32941
f 491 492 494 506
g Group62859
f 199 200 197 196
g Group32941
f 508 507 485 486
g Group62859
f 192 165 163 190
g Group32941
f 503 510 509 495
g Group62859
f 173 169 174 184
g Group32941
f 509 504 498 495
g Group62859
f 174 169 167 175
g Group32941
f 512 507 508 511
g Group32944
f 193 191 512 511
g Group62859
f 191 193 192 190
g Group32941
f 511 508 484 481
g Group32944
f 195 193 511 481
g Group62859
f 193 195 194 192
g Group32941
f 514 513 507 512
g Group32944
f 191 221 514 512
g Group62859
f 221 191 190 189
g Group32941
f 518 517 516 515
g Group62859
f 240 241 224 237
g Group32941
f 522 521 520 519
g Group62859
f 226 227 203 204
g Group32941
f 518 515 524 523
g Group62859
f 240 213 223 241
g Group32941
f 528 527 526 525
g Group62859
f 234 236 205 232
g Group32941
f 531 530 529 500
g Group32944
f 178 179 529 530
g Group62859
f 177 180 179 178
g Group32941
f 531 500 497 505
g Group62859
f 177 176 168 180
g Group32941
f 492 486 487 494
g Group62859
f 196 197 166 165
g Group32941
f 533 518 523 532
g Group62859
f 239 212 213 240
g Group32941
f 529 534 499 500
g Group32944
f 179 181 534 529
g Group62859
f 179 180 171 181
g Group32941
f 534 535 502 499
g Group32944
f 181 182 535 534
g Group62859
f 181 171 183 182
g Group32941
f 536 485 507 513
g Group62859
f 188 189 190 163
g Group32941
f 502 535 482 483
g Group32944
f 182 202 482 535
g Group62859
f 183 198 202 182
g Group32941
f 502 483 491 501
g Group62859
f 183 172 199 198
g Group32941
f 491 506 503 501
g Group62859
f 199 172 173 200
g Group32941
f 484 508 486 492
g Group62859
f 194 196 165 192
g Group32941
f 506 537 510 503
g Group62859
f 200 173 184 201
g Group32941
f 539 538 533 532
g Group62859
f 222 212 239 238
g Group32941
f 489 488 485 536
g Group62859
f 187 188 163 164
g Group32941
f 506 494 493 537
g Group62859
f 200 201 185 197
g Group32941
f 519 520 541 540
g Group62859
f 227 228 230 203
g Group32941
f 521 542 526 520
g Group62859
f 204 203 205 206
g Group32941
f 543 542 521 522
g Group62859
f 225 226 204 206
g Group32941
f 538 528 525 533
g Group62859
f 238 239 236 234
g Group32941
f 517 542 543 516
g Group62859
f 237 224 225 206
g Group32941
f 547 546 545 544
g Group62859
f 207 209 210 208
g Group32941
f 545 546 549 548
g Group62859
f 210 211 219 208
g Group32941
f 545 548 539 532
g Group62859
f 210 212 222 211
g Group32941
f 545 532 523 544
g Group62859
f 210 209 213 212
g Group32941
f 551 546 547 550
g Group62859
f 216 215 207 208
g Group32941
f 533 525 517 518
g Group62859
f 239 240 237 236
g Group32941
f 527 541 520 526
g Group62859
f 232 205 203 230
g Group32941
f 523 524 552 544
g Group62859
f 213 209 214 223
g Group32941
f 552 550 547 544
g Group62859
f 214 209 207 215
g Group32941
f 554 541 527 553
g Group32944
f 233 231 554 553
g Group62859
f 231 233 232 230
g Group32941
f 553 527 528 373
g Group32944
f 20 233 553 373
g Group62859
f 233 20 234 232
g Group32941
f 555 540 541 554
g Group32944
f 231 229 555 554
g Group62859
f 229 231 230 228
g Group32941
f 558 557 556 549
g Group32944
f 235 218 556 557
g Group62859
f 217 219 218 235
g Group32941
f 558 549 546 551
g Group62859
f 217 216 208 219
g Group32941
f 525 526 542 517
g Group62859
f 236 237 206 205
g Group32941
f 556 559 548 549
g Group32944
f 218 220 559 556
g Group62859
f 218 219 211 220
g Group32941
f 559 319 539 548
g Group32944
f 220 33 319 559
g Group62859
f 220 211 222 33
g Group32941
f 490 552 524 493
g Group62859
f 186 185 223 214
g Group32941
f 504 522 519 505
g Group62859
f 175 176 227 226
g Group32941
f 558 513 514 557
g Group62859
f 217 235 221 189
g Group32941
f 515 537 493 524
g Group62859
f 241 223 185 201
g Group32941
f 510 516 543 509
g Group62859
f 184 174 225 224
g Group32941
f 505 519 540 531
g Group62859
f 176 177 228 227
g Group32941
f 509 543 522 504
g Group62859
f 174 175 226 225
g Group32941
f 531 540 555 530
g Group32944
f 229 178 530 555
g Group62859
f 177 178 229 228
g Group32941
f 513 558 551 536
g Group62859
f 189 188 216 217
g Group32941
f 516 510 537 515
g Group62859
f 224 241 201 184
g Group32941
f 550 489 536 551
g Group62859
f 215 216 188 187
g Group32941
f 552 490 489 550
g Group62859
f 214 215 187 186
g Group32941
f 563 562 561 560
g Group32944
f 281 274 560 561
g Group62859
f 273 274 281 277
g Group32941
f 567 566 565 564
g Group62859
f 243 242 244 245
g Group32941
f 569 566 567 568
g Group62859
f 264 265 243 245
g Group32941
f 562 563 571 570
g Group62859
f 277 278 275 273
g Group32941
f 573 566 569 572
g Group62859
f 276 263 264 245
g Group32941
f 577 576 575 574
g Group62859
f 246 248 249 247
g Group32941
f 575 576 579 578
g Group62859
f 249 250 258 247
g Group32941
f 575 578 581 580
g Group62859
f 249 251 261 250
g Group32941
f 575 580 582 574
g Group62859
f 249 248 252 251
g Group32941
f 584 576 577 583
g Group62859
f 255 254 246 247
g Group32941
f 570 571 573 585
g Group62859
f 278 279 276 275
g Group32941
f 587 586 564 565
g Group62859
f 271 244 242 269
g Group32941
f 582 589 588 574
g Group62859
f 252 248 253 262
g Group32941
f 588 583 577 574
g Group62859
f 253 248 246 254
g Group32941
f 591 586 587 590
g Group32944
f 272 270 591 590
g Group62859
f 270 272 271 269
g Group32941
f 590 587 563 560
g Group32944
f 274 272 590 560
g Group62859
f 272 274 273 271
g Group32941
f 593 592 586 591
g Group32944
f 270 268 593 591
g Group62859
f 268 270 269 267
g Group32941
f 597 596 595 594
g Group62859
f 301 314 304 316
g Group32941
f 601 600 599 598
g Group62859
f 306 307 282 283
g Group32941
f 597 594 603 602
g Group62859
f 301 292 303 314
g Group32941
f 607 606 605 604
g Group62859
f 313 315 284 311
g Group32941
f 609 514 608 579
g Group32944
f 221 257 608 514
g Group62859
f 256 258 257 221
g Group32941
f 609 579 576 584
g Group62859
f 256 255 247 258
g Group32941
f 571 565 566 573
g Group62859
f 275 276 245 244
g Group32941
f 611 597 602 610
g Group62859
f 318 291 292 301
g Group32941
f 608 612 578 579
g Group32944
f 257 259 612 608
g Group62859
f 257 258 250 259
g Group32941
f 612 613 581 578
g Group32944
f 259 260 613 612
g Group62859
f 259 250 261 260
g Group32941
f 614 564 586 592
g Group62859
f 266 267 269 242
g Group32941
f 581 613 561 562
g Group32944
f 260 281 561 613
g Group62859
f 261 277 281 260
g Group32941
f 581 562 570 580
g Group62859
f 261 251 278 277
g Group32941
f 570 585 582 580
g Group62859
f 278 251 252 279
g Group32941
f 563 587 565 571
g Group62859
f 273 275 244 271
g Group32941
f 585 615 589 582
g Group62859
f 279 252 262 280
g Group32941
f 617 616 611 610
g Group62859
f 302 291 318 317
g Group32941
f 568 567 564 614
g Group62859
f 265 266 242 243
g Group32941
f 585 573 572 615
g Group62859
f 279 280 263 276
g Group32941
f 598 599 619 618
g Group62859
f 307 308 309 282
g Group32941
f 600 620 605 599
g Group62859
f 283 282 284 285
g Group32941
f 621 620 600 601
g Group62859
f 305 306 283 285
g Group32941
f 616 607 604 611
g Group62859
f 317 318 315 313
g Group32941
f 596 620 621 595
g Group62859
f 316 304 305 285
g Group32941
f 625 624 623 622
g Group62859
f 286 288 289 287
g Group32941
f 623 624 627 626
g Group62859
f 289 290 299 287
g Group32941
f 623 626 617 610
g Group62859
f 289 291 302 290
g Group32941
f 623 610 602 622
g Group62859
f 289 288 292 291
g Group32941
f 629 624 625 628
g Group62859
f 295 294 286 287
g Group32941
f 611 604 596 597
g Group62859
f 318 301 316 315
g Group32941
f 606 619 599 605
g Group62859
f 311 284 282 309
g Group32941
f 602 603 630 622
g Group62859
f 292 288 293 303
g Group32941
f 630 628 625 622
g Group62859
f 293 288 286 294
g Group32941
f 632 619 606 631
g Group32944
f 312 310 632 631
g Group62859
f 310 312 311 309
g Group32941
f 631 606 607 454
g Group32944
f 99 312 631 454
g Group62859
f 312 99 313 311
g Group32941
f 557 618 619 632
g Group32944
f 310 235 557 632
g Group62859
f 235 310 309 308
g Group32941
f 635 634 633 627
g Group32944
f 297 298 633 634
g Group62859
f 296 299 298 297
g Group32941
f 635 627 624 629
g Group62859
f 296 295 287 299
g Group32941
f 604 605 620 596
g Group62859
f 315 316 285 284
g Group32941
f 633 636 626 627
g Group32944
f 298 300 636 633
g Group62859
f 298 299 290 300
g Group32941
f 636 401 617 626
g Group32944
f 300 113 401 636
g Group62859
f 300 290 302 113
g Group32941
f 569 630 603 572
g Group62859
f 264 263 303 293
g Group32941
f 583 601 598 584
g Group62859
f 254 255 307 306
g Group32941
f 635 592 593 634
g Group32944
f 268 297 634 593
g Group62859
f 296 297 268 267
g Group32941
f 594 615 572 603
g Group62859
f 314 303 263 280
g Group32941
f 589 595 621 588
g Group62859
f 262 253 305 304
g Group32941
f 584 598 618 609
g Group62859
f 255 256 308 307
g Group32941
f 588 621 601 583
g Group62859
f 253 254 306 305
g Group32941
f 609 618 557 514
g Group62859
f 256 221 235 308
g Group32941
f 592 635 629 614
g Group62859
f 267 266 295 296
g Group32941
f 595 589 615 594
g Group62859
f 304 314 280 262
g Group32941
f 628 568 614 629
g Group62859
f 294 295 266 265
g Group32941
f 630 569 568 628
g Group62859
f 293 294 265 264
g Group32941
f 320 373 528 538
g Group62859
f 40 238 234 20
g Group32941
f 319 320 538 539
g Group62859
f 33 222 238 40
g Group32941
f 402 454 607 616
g Group62859
f 120 317 313 99
g Group32941
f 616 617 401 402
g Group62859
f 317 120 113 302

 