# File exported by ZBrush version 2021
# www.zbrush.com
#Vertex Count 872
#Face Count 870
#Auto scale x=1.000000 y=1.000000 z=1.000000
#Auto offset x=0.000000 y=0.000000 z=0.000000
v -1.59041404 0.040589 0.17911149
v -1.58844804 0.004907 0.17911949
v -1.57837104 -0.03144799 0.17912849
v -1.55987894 -0.06660799 0.1791365
v -1.53310501 -0.098612 0.1791445
v -1.49863004 -0.12553399 0.1791525
v -1.457484 -0.14554999 0.17915949
v -1.41111505 -0.157066 0.17916549
v -1.361341 -0.15880799 0.1791725
v -1.31028103 -0.14989699 0.17917849
v -1.260257 -0.129919 0.17918549
v -1.21369803 -0.098976 0.1791905
v -1.17302703 -0.057711 0.17919549
v -1.14053404 -0.007294 0.1792005
v -1.11826396 0.05059599 0.17920649
v -1.10790598 0.11382 0.17921049
v -1.11069095 0.17987699 0.17921549
v -1.12731599 0.245982 0.1792185
v -1.15787696 0.30919399 0.17922249
v -1.20184195 0.366546 0.1792265
v -1.25803899 0.41517299 0.17922949
v -1.32468903 0.45245701 0.17923249
v -1.39944398 0.47615701 0.1792355
v -1.47948801 0.48452299 0.1792375
v -1.56162202 0.47639998 0.17923949
v -1.64240801 0.45131099 0.17924149
v -1.71830296 0.40950399 0.17924349
v -1.78582096 0.35196599 0.1792445
v -1.84168005 0.28042298 0.1792455
v -1.88296401 0.197282 0.1792465
v -1.90726399 0.10555999 0.17924749
v -1.912804 0.008769 0.17924749
v -1.89854598 -0.089206 0.17924749
v -1.86425602 -0.184285 0.1792465
v -1.81055605 -0.272336 0.1792455
v -1.73891794 -0.34937 0.1792445
v -1.65164101 -0.41171801 0.17924349
v -1.551777 -0.456198 0.17924149
v -1.44302201 -0.480268 0.17924049
v -1.32958602 -0.48215299 0.1792375
v -1.21603095 -0.460965 0.1792355
v -1.10708105 -0.416749 0.17923349
v -1.00743198 -0.35052999 0.17922949
v -0.92154699 -0.26429098 0.1792265
v -0.85346198 -0.160923 0.17922349
v -0.80659699 -0.044135 0.17921949
v -0.78359597 0.08168999 0.17921549
v -0.78618997 0.211638 0.17921149
v -0.81509202 0.34047499 0.17920649
v -0.86994099 0.46285399 0.17920149
v -0.949283 0.57352501 0.17919649
v -1.05060195 0.66757398 0.1791915
v -1.17039299 0.74062597 0.17918549
v -1.30427801 0.789056 0.17917949
v -1.44717299 0.810153 0.17917349
v -1.593472 0.80225801 0.17916649
v -1.73726999 0.76487201 0.17915949
v -1.87260496 0.69869697 0.1791525
v -1.993698 0.60564702 0.1791445
v -2.09520411 0.48879599 0.17913749
v -2.17244291 0.352279 0.17912949
v -2.22161197 0.201156 0.17912049
v -2.23996591 0.041218 0.17911249
v -2.22595405 -0.12123599 0.17910349
v -2.17932295 -0.27964299 0.17909449
v -2.10114598 -0.42743599 0.17908549
v -1.99382698 -0.55832797 0.17907549
v -1.86101496 -0.66657298 0.17906549
v -1.70750105 -0.747204 0.17905549
v -1.53903102 -0.79628002 0.1790445
v -1.36210501 -0.811055 0.1790345
v -1.18371903 -0.79011797 0.17902249
v -1.01108801 -0.73349201 0.17901149
v -0.85135799 -0.64266002 0.17899949
v -0.71131002 -0.52052998 0.1789875
v -0.59706997 -0.37135899 0.17897649
v -0.513848 -0.20059999 0.17896249
v -0.46570101 -0.014703 0.1789505
v -0.45534199 0.17912 0.17893649
v -0.484005 0.37318399 0.1789245
v -0.55135899 0.55963099 0.17891049
v -0.65548801 0.73074799 0.1788965
v -0.792943 0.879287 0.17888249
v -0.95884698 0.99877101 0.1788675
v -1.14706504 1.08376801 0.17885249
v -1.35043501 1.13014602 0.17883849
v -1.56103503 1.13525497 0.1788225
v -1.77049303 1.09807205 0.17880749
v -1.97031998 1.01927101 0.17879149
v -2.15225195 0.90122699 0.1787755
v -2.30859899 0.74795502 0.1787585
v -2.43255496 0.56497299 0.1787415
v -2.518507 0.35911101 0.17872549
v -2.56227207 0.13824799 0.17870749
v -2.5613029 -0.08897499 0.17869049
v -2.51481699 -0.31351101 0.17867249
v -2.42386198 -0.52625197 0.17865449
v -2.29130601 -0.71840798 0.17863549
v -2.12175011 -0.88185697 0.17861649
v -1.92137205 -1.009503 0.17859849
v -1.69771003 -1.09557795 0.17857949
v -1.45937204 -1.135885 0.17855949
v -1.21570301 -1.12801098 0.1785395
v -0.97643202 -1.07145297 0.1785205
v -0.751266 -0.96765601 0.17849949
v -0.54951101 -0.82001197 0.17847849
v -0.37968099 -0.63372898 0.17845849
v -0.249136 -0.41566801 0.1784365
v -0.16377699 -0.17408099 0.17841549
v -1.69409799 0.02126099 0.17912349
v -1.69183599 -0.01981 0.17913149
v -1.67563796 -0.078247 0.17914149
v -1.64639198 -0.133855 0.17915049
v -1.60466396 -0.18373799 0.17916049
v -1.55164694 -0.225133 0.17916849
v -1.48913896 -0.25554099 0.17917749
v -1.41948199 -0.272843 0.17918449
v -1.34547805 -0.275433 0.17919349
v -1.27028095 -0.26230698 0.1792005
v -1.19725704 -0.23314599 0.1792075
v -1.12984895 -0.18834799 0.17921449
v -1.07141304 -0.129056 0.17922049
v -1.02506005 -0.057133 0.1792265
v -0.99350202 0.024897 0.17923349
v -0.97891598 0.113931 0.17923849
v -0.98281502 0.206401 0.17924349
v -1.00595903 0.29842799 0.17924849
v -1.04828095 0.38596698 0.1792535
v -1.10886395 0.46499699 0.17925849
v -1.18594205 0.53169101 0.1792625
v -1.27694702 0.58260101 0.17926649
v -1.37859201 0.61482602 0.17927049
v -1.48698794 0.626154 0.1792735
v -1.59779202 0.61519801 0.17927649
v -1.70638096 0.58147501 0.17927949
v -1.80804204 0.52547502 0.1792815
v -1.89817798 0.44865998 0.17928449
v -1.97251498 0.35345 0.17928549
v -2.02728891 0.243143 0.17928849
v -2.05943489 0.12180499 0.17928849
v -2.06674408 -0.005881 0.1792905
v -2.04798388 -0.13478399 0.1792905
v -2.0029869 -0.25955 0.1792915
v -1.93269205 -0.37480801 0.1792915
v -1.83914196 -0.475407 0.1792915
v -1.72542905 -0.55664497 0.1792915
v -1.59560298 -0.61446797 0.1792915
v -1.45451998 -0.64569002 0.17928949
v -1.30766904 -0.64813298 0.17928849
v -1.16095602 -0.62075597 0.17928749
v -1.02046096 -0.56373697 0.17928549
v -0.89219898 -0.47850701 0.1792835
v -0.781852 -0.36770299 0.1792815
v -0.69452601 -0.23512299 0.17927849
v -0.63451802 -0.085584 0.17927549
v -0.60511601 0.075263 0.1792725
v -0.60842597 0.24111999 0.17926949
v -0.645258 0.40530899 0.17926549
v -0.715052 0.56103402 0.17926149
v -0.81586897 0.70165997 0.17925749
v -0.944431 0.82099497 0.17925249
v -1.09622299 0.91356402 0.17924849
v -1.26565098 0.97484999 0.17924349
v -1.44624698 1.001513 0.1792375
v -1.63091599 0.991548 0.17923149
v -1.81220698 0.944413 0.1792265
v -1.98262405 0.86108398 0.17921949
v -2.13493204 0.74404698 0.17921349
v -2.26246309 0.59723699 0.17920649
v -2.35939788 0.42590901 0.1791995
v -2.4210391 0.23645399 0.17919249
v -2.44402408 0.03615099 0.17918449
v -2.42649698 -0.16709099 0.17917649
v -2.36821293 -0.365074 0.17916849
v -2.27060008 -0.54961299 0.17915949
v -2.13672089 -0.712897 0.17915149
v -1.97119796 -0.84780001 0.17914149
v -1.78004396 -0.94820302 0.17913249
v -1.57045197 -1.00925898 0.17912349
v -1.35052895 -1.02762305 0.17911249
v -1.12897598 -1.00162005 0.17910249
v -0.914747 -0.931351 0.17909249
v -0.71668899 -0.81872099 0.1790815
v -0.54317098 -0.66740298 0.1790705
v -0.401739 -0.48272299 0.17905949
v -0.29878398 -0.27147901 0.17904749
v -0.23926499 -0.041673 0.1790355
v -0.22646899 0.19775399 0.1790235
v -0.26185199 0.43731299 0.17901149
v -0.34493699 0.66730797 0.1789985
v -0.47330001 0.87825 0.17898549
v -0.64263302 1.06123697 0.17897249
v -0.846879 1.20833396 0.17895849
v -1.07844805 1.31290805 0.17894549
v -1.32850205 1.369933 0.17893049
v -1.58728694 1.37620997 0.17891649
v -1.84451198 1.33054804 0.17890249
v -2.08976411 1.23383295 0.1788875
v -2.31292605 1.08903896 0.17887149
v -2.50459289 0.90113997 0.17885549
v -2.6564691 0.67694598 0.1788405
v -2.76172089 0.42485499 0.17882449
v -2.81528306 0.15454399 0.17880749
v -2.81410002 -0.12340799 0.17879149
v -2.75726509 -0.39792901 0.17877449
v -2.64612102 -0.65789502 0.1787575
v -2.48422193 -0.89258498 0.1787395
v -2.27723097 -1.09211897 0.1787225
v -2.03273701 -1.24787104 0.1787045
v -1.759961 -1.35284495 0.1786855
v -1.46942102 -1.40198099 0.1786665
v -1.17252397 -1.39238905 0.1786475
v -0.88111501 -1.32350397 0.1786285
v -0.60700702 -1.19714701 0.17860949
v -0.36150801 -1.01748704 0.17858949
v -0.154943 -0.79091399 0.17856949
v 0.003771 -0.52579999 0.17854949
v 0.107505 -0.23220999 0.1785285
v 1.59041404 -0.04058999 0.17911149
v 1.58844804 -0.004908 0.17911949
v 1.57837104 0.03144799 0.17912849
v 1.55987894 0.066606 0.1791365
v 1.53310501 0.098612 0.1791445
v 1.498631 0.125533 0.1791525
v 1.457484 0.14554899 0.17915949
v 1.41111505 0.157066 0.17916549
v 1.361341 0.15880699 0.1791725
v 1.31028103 0.14989499 0.17917849
v 1.26025605 0.12991699 0.17918549
v 1.21369803 0.098976 0.1791905
v 1.17302703 0.057711 0.17919549
v 1.14053404 0.007294 0.1792005
v 1.11826396 -0.05059599 0.17920649
v 1.10790598 -0.113821 0.17921049
v 1.11069095 -0.17987799 0.17921549
v 1.12731599 -0.245983 0.1792185
v 1.15787601 -0.30919399 0.17922249
v 1.20184099 -0.36654698 0.1792265
v 1.25803899 -0.41517299 0.17922949
v 1.32468903 -0.45245599 0.17923249
v 1.39944398 -0.47615799 0.1792355
v 1.47948694 -0.48452299 0.1792375
v 1.56162202 -0.47639998 0.17923949
v 1.64240801 -0.45131099 0.17924149
v 1.71830296 -0.40950301 0.17924349
v 1.78582096 -0.35196599 0.1792445
v 1.84168005 -0.280422 0.1792455
v 1.88296294 -0.197283 0.1792465
v 1.90726399 -0.105562 0.17924749
v 1.912804 -0.008769 0.17924749
v 1.89854502 0.08920799 0.17924749
v 1.86425495 0.184285 0.1792465
v 1.81055498 0.272334 0.1792455
v 1.73891794 0.34936898 0.1792445
v 1.65164101 0.41171801 0.17924349
v 1.55177605 0.456198 0.17924149
v 1.44302201 0.48026698 0.17924049
v 1.32958602 0.48215299 0.1792375
v 1.21603095 0.46096399 0.1792355
v 1.10708105 0.416749 0.17923349
v 1.00743198 0.35052999 0.17922949
v 0.92154699 0.26429 0.1792265
v 0.85346102 0.160922 0.17922349
v 0.80659699 0.044135 0.17921949
v 0.78359597 -0.081688 0.17921549
v 0.78618997 -0.211638 0.17921149
v 0.81509202 -0.34047499 0.17920649
v 0.86994099 -0.46285301 0.17920149
v 0.949283 -0.57352501 0.17919649
v 1.05060195 -0.66757398 0.1791915
v 1.17039299 -0.74062597 0.17918549
v 1.30427694 -0.789056 0.17917949
v 1.44717299 -0.81015199 0.17917349
v 1.59347105 -0.802257 0.17916649
v 1.73726904 -0.76487201 0.17915949
v 1.87260496 -0.69869697 0.1791525
v 1.993698 -0.60564798 0.1791445
v 2.09520292 -0.48879501 0.17913749
v 2.17244291 -0.35227799 0.17912949
v 2.22161102 -0.201158 0.17912049
v 2.23996496 -0.041218 0.17911249
v 2.22595405 0.121237 0.17910349
v 2.179322 0.27964299 0.17909449
v 2.10114598 0.42743599 0.17908549
v 1.99382698 0.55832898 0.17907549
v 1.861014 0.66657197 0.17906549
v 1.70750105 0.74720299 0.17905549
v 1.53903102 0.79628002 0.1790445
v 1.36210405 0.81105399 0.1790345
v 1.18371903 0.79011702 0.17902249
v 1.01108694 0.73349201 0.17901149
v 0.85135901 0.64266002 0.17899949
v 0.71131002 0.52052998 0.1789875
v 0.59706997 0.37136 0.17897649
v 0.513848 0.200599 0.17896249
v 0.46570101 0.014703 0.1789505
v 0.45534199 -0.179121 0.17893649
v 0.484005 -0.373185 0.1789245
v 0.55135899 -0.55962997 0.17891049
v 0.655487 -0.73074799 0.1788965
v 0.792943 -0.87928599 0.17888249
v 0.95884597 -0.99877101 0.1788675
v 1.14706504 -1.08376705 0.17885249
v 1.35043501 -1.13014698 0.17883849
v 1.56103503 -1.13525497 0.1788225
v 1.77049303 -1.098073 0.17880749
v 1.97031903 -1.01927101 0.17879149
v 2.15225195 -0.90122699 0.1787755
v 2.30859899 -0.74795597 0.1787585
v 2.43255496 -0.56497299 0.1787415
v 2.51850605 -0.35911101 0.17872549
v 2.56227111 -0.13824899 0.17870749
v 2.5613029 0.088976 0.17869049
v 2.51481604 0.31351199 0.17867249
v 2.42386198 0.52625298 0.17865449
v 2.29130601 0.71840602 0.17863549
v 2.12175011 0.88185697 0.17861649
v 1.92137205 1.00950503 0.17859849
v 1.69771003 1.09557795 0.17857949
v 1.45937204 1.135885 0.17855949
v 1.21570301 1.12801194 0.1785395
v 0.97643202 1.07145202 0.1785205
v 0.751266 0.96765703 0.17849949
v 0.54951202 0.82001197 0.17847849
v 0.37968099 0.63372898 0.17845849
v 0.249136 0.41566699 0.1784365
v 0.16377599 0.17408199 0.17841549
v 1.69409799 -0.02126099 0.17912349
v 1.69183599 0.01981 0.17913149
v 1.67563796 0.078248 0.17914149
v 1.64639198 0.133852 0.17915049
v 1.60466396 0.18373499 0.17916049
v 1.55164694 0.225134 0.17916849
v 1.48913896 0.25554201 0.17917749
v 1.41948103 0.27284398 0.17918449
v 1.34547805 0.275433 0.17919349
v 1.27028095 0.262308 0.1792005
v 1.19725704 0.23314499 0.1792075
v 1.12984895 0.18834599 0.17921449
v 1.07141304 0.129056 0.17922049
v 1.02506005 0.05713199 0.1792265
v 0.993501 -0.024897 0.17923349
v 0.97891497 -0.11393 0.17923849
v 0.98281502 -0.2064 0.17924349
v 1.00595796 -0.29842901 0.17924849
v 1.04828095 -0.385968 0.1792535
v 1.10886395 -0.464998 0.17925849
v 1.18594205 -0.53169 0.1792625
v 1.27694702 -0.58260101 0.17926649
v 1.37859094 -0.61482399 0.17927049
v 1.48698794 -0.62615501 0.1792735
v 1.59779202 -0.61519801 0.17927649
v 1.70638001 -0.58147501 0.17927949
v 1.80804204 -0.52547502 0.1792815
v 1.89817702 -0.448661 0.17928449
v 1.97251403 -0.35345 0.17928549
v 2.02728796 -0.24314199 0.17928849
v 2.05943393 -0.121806 0.17928849
v 2.06674289 0.00588 0.1792905
v 2.04798293 0.134783 0.1792905
v 2.00298595 0.25955 0.1792915
v 1.93269205 0.37480801 0.1792915
v 1.83914196 0.475407 0.1792915
v 1.72542905 0.556643 0.1792915
v 1.59560203 0.61446797 0.1792915
v 1.45451998 0.64569002 0.17928949
v 1.30766904 0.64813202 0.17928849
v 1.16095495 0.62075501 0.17928749
v 1.02046096 0.563739 0.17928549
v 0.89219898 0.47850599 0.1792835
v 0.781852 0.367704 0.1792815
v 0.69452601 0.235126 0.17927849
v 0.63451802 0.085583 0.17927549
v 0.60511601 -0.07526399 0.1792725
v 0.60842502 -0.24111799 0.17926949
v 0.64525699 -0.40530899 0.17926549
v 0.715052 -0.56103301 0.17926149
v 0.81586897 -0.70165997 0.17925749
v 0.944431 -0.82099402 0.17925249
v 1.09622204 -0.913562 0.17924849
v 1.26565003 -0.97484999 0.17924349
v 1.44624698 -1.00151097 0.1792375
v 1.63091504 -0.99154901 0.17923149
v 1.81220603 -0.944413 0.1792265
v 1.98262405 -0.86108499 0.17921949
v 2.13493204 -0.74404698 0.17921349
v 2.26246309 -0.59723699 0.17920649
v 2.35939788 -0.42590999 0.1791995
v 2.42103791 -0.23645399 0.17919249
v 2.44402289 -0.036152 0.17918449
v 2.42649507 0.16708999 0.17917649
v 2.36821293 0.36507299 0.17916849
v 2.27060008 0.54961299 0.17915949
v 2.13672089 0.71289598 0.17915149
v 1.97119796 0.847799 0.17914149
v 1.78004396 0.94820201 0.17913249
v 1.57045197 1.00925803 0.17912349
v 1.350528 1.02762198 0.17911249
v 1.12897598 1.00162005 0.17910249
v 0.914747 0.931351 0.17909249
v 0.71668899 0.81872099 0.1790815
v 0.54317098 0.66740298 0.1790705
v 0.401739 0.48272401 0.17905949
v 0.29878398 0.27147901 0.17904749
v 0.23926599 0.041673 0.1790355
v 0.22646899 -0.19775299 0.1790235
v 0.26185199 -0.43731299 0.17901149
v 0.34493699 -0.66730898 0.1789985
v 0.47330001 -0.87824899 0.17898549
v 0.64263302 -1.06123805 0.17897249
v 0.84687799 -1.20833301 0.17895849
v 1.07844805 -1.31290805 0.17894549
v 1.32850205 -1.36993396 0.17893049
v 1.58728599 -1.37621104 0.17891649
v 1.84451198 -1.33054697 0.17890249
v 2.08976292 -1.233832 0.1788875
v 2.31292605 -1.08903896 0.17887149
v 2.50459194 -0.90114098 0.17885549
v 2.6564691 -0.67694699 0.1788405
v 2.76172089 -0.424856 0.17882449
v 2.81528306 -0.15454199 0.17880749
v 2.81409907 0.12340799 0.17879149
v 2.75726604 0.39792799 0.17877449
v 2.64612197 0.65789502 0.1787575
v 2.48422098 0.89258498 0.1787395
v 2.27723193 1.09211897 0.1787225
v 2.03273701 1.24787104 0.1787045
v 1.759961 1.35284602 0.1786855
v 1.46942102 1.40198099 0.1786665
v 1.17252397 1.39238905 0.1786475
v 0.881114 1.32350301 0.1786285
v 0.60700702 1.19714701 0.17860949
v 0.36150801 1.01748895 0.17858949
v 0.154943 0.79091399 0.17856949
v -0.003771 0.52579999 0.17854949
v -0.107504 0.23220799 0.1785285
v -1.58846902 0.00483 -0.17858649
v -1.69185698 -0.019887 -0.17857451
v -1.69412195 0.021181 -0.1785825
v -1.590438 0.040509 -0.17859549
v -1.57838404 -0.031521 -0.17857749
v -1.67565095 -0.07831999 -0.1785645
v -1.55988204 -0.06667999 -0.17856951
v -1.64639496 -0.133928 -0.1785555
v -1.53309798 -0.098683 -0.1785625
v -1.60465705 -0.18380899 -0.1785465
v -1.49861395 -0.125602 -0.17855449
v -1.55163097 -0.22520099 -0.17853851
v -1.45745897 -0.14561599 -0.17854751
v -1.48911404 -0.255607 -0.17852951
v -1.41108 -0.157128 -0.17854051
v -1.41944694 -0.27290499 -0.17852149
v -1.36129605 -0.158865 -0.1785335
v -1.34543299 -0.27548998 -0.17851351
v -1.31022799 -0.149947 -0.17852748
v -1.27022802 -0.26235801 -0.17850549
v -1.26019597 -0.12996099 -0.17852149
v -1.19719696 -0.233188 -0.17849849
v -1.21363198 -0.099009 -0.1785155
v -1.12978303 -0.18838 -0.17849151
v -1.17295503 -0.05773299 -0.1785105
v -1.07134199 -0.129078 -0.17848549
v -1.14045798 -0.007302 -0.17850549
v -1.02498304 -0.05714 -0.1784795
v -1.11818504 0.050602 -0.17850048
v -0.99342298 0.02490299 -0.17847351
v -1.10782897 0.113838 -0.17849551
v -0.97883898 0.113948 -0.17846749
v -1.11061799 0.179908 -0.17849151
v -0.98274099 0.206431 -0.17846249
v -1.12724804 0.24602699 -0.17848749
v -1.00589096 0.29847198 -0.17845751
v -1.157817 0.30925199 -0.1784835
v -1.04822099 0.38602501 -0.1784525
v -1.20179295 0.36661499 -0.1784795
v -1.10881495 0.46506598 -0.17844851
v -1.25800299 0.41525098 -0.17847649
v -1.18590498 0.53176802 -0.1784435
v -1.32466602 0.452542 -0.17847351
v -1.27692401 0.582686 -0.17843951
v -1.39943695 0.47624599 -0.17847149
v -1.37858498 0.614914 -0.1784365
v -1.47949802 0.484613 -0.17846851
v -1.48699796 0.626244 -0.1784325
v -1.56164896 0.47648799 -0.17846651
v -1.59781897 0.61528599 -0.17842949
v -1.642452 0.451393 -0.17846451
v -1.70642495 0.58155697 -0.17842648
v -1.71836304 0.40957701 -0.17846249
v -1.80810105 0.52554798 -0.17842449
v -1.78589296 0.35202801 -0.1784615
v -1.89824998 0.448722 -0.17842151
v -1.84176504 0.28047099 -0.17846049
v -1.97259903 0.35349801 -0.17842049
v -1.88305699 0.19731299 -0.17846049
v -2.02738189 0.243174 -0.1784185
v -1.90736103 0.10557299 -0.17845951
v -2.05953311 0.12181799 -0.17841748
v -1.91290295 0.008763 -0.17845951
v -2.06684303 -0.005887 -0.1784165
v -1.89864397 -0.08923099 -0.17845951
v -2.04808092 -0.134809 -0.17841549
v -1.864349 -0.18433 -0.17846049
v -2.00307989 -0.25959399 -0.1784145
v -1.81063997 -0.27239799 -0.17846049
v -1.93277597 -0.37487 -0.1784145
v -1.73898899 -0.34944701 -0.1784615
v -1.83921194 -0.47548499 -0.1784145
v -1.65169596 -0.41180801 -0.17846249
v -1.72548401 -0.55673497 -0.1784145
v -1.551813 -0.45629799 -0.17846451
v -1.59563899 -0.61456799 -0.17841549
v -1.44303894 -0.480374 -0.1784655
v -1.45453703 -0.645796 -0.1784165
v -1.32958197 -0.48226198 -0.17846851
v -1.30766403 -0.64824098 -0.17841748
v -1.21600604 -0.46107101 -0.1784705
v -1.16093003 -0.620862 -0.1784185
v -1.10703504 -0.41684898 -0.1784725
v -1.02041494 -0.56383699 -0.17842151
v -1.00736701 -0.35062 -0.17847649
v -0.89213401 -0.47859799 -0.17842249
v -0.92146402 -0.26436799 -0.1784795
v -0.78176897 -0.36778 -0.17842449
v -0.853365 -0.16098199 -0.17848251
v -0.69442898 -0.235183 -0.1784275
v -0.80649 -0.04417499 -0.17848651
v -0.63441097 -0.085624 -0.17843051
v -0.78348302 0.08167199 -0.1784905
v -0.60500198 0.07524599 -0.17843349
v -0.78607499 0.21164299 -0.17849449
v -0.60830998 0.241124 -0.1784365
v -0.814978 0.34050199 -0.1784995
v -0.64514398 0.40533599 -0.17844049
v -0.869834 0.46290299 -0.17850451
v -0.71494501 0.56108301 -0.17844449
v -0.94918799 0.57359498 -0.17850948
v -0.81577402 0.701729 -0.17844949
v -1.05052197 0.66766202 -0.17851449
v -0.94435101 0.82108199 -0.17845349
v -1.170331 0.74072897 -0.17852051
v -1.096161 0.91366601 -0.17845849
v -1.30423605 0.78917002 -0.1785265
v -1.26560902 0.97496402 -0.1784635
v -1.44715404 0.81027197 -0.17853249
v -1.44622898 1.00163304 -0.17846949
v -1.59347796 0.80238002 -0.1785395
v -1.630921 0.99167001 -0.1784745
v -1.73730003 0.76499098 -0.1785465
v -1.81223595 0.94453197 -0.17848049
v -1.87265801 0.69880902 -0.1785535
v -1.98267698 0.86119699 -0.17848651
v -1.99377203 0.60574698 -0.17856149
v -2.1350069 0.744147 -0.17849351
v -2.09529709 0.48887899 -0.17856849
v -2.26255607 0.59732097 -0.1784995
v -2.1725521 0.352344 -0.17857651
v -2.35950708 0.42597499 -0.1785065
v -2.2217319 0.20119799 -0.17858551
v -2.42115902 0.236497 -0.17851449
v -2.24009203 0.04123599 -0.1785935
v -2.44414997 0.036169 -0.17852251
v -2.22608208 -0.12124399 -0.1786025
v -2.42662501 -0.167098 -0.17853049
v -2.17944788 -0.279677 -0.17861251
v -2.3683381 -0.365107 -0.17853851
v -2.10126209 -0.42749398 -0.17862151
v -2.27071595 -0.54966998 -0.1785465
v -1.99392998 -0.558407 -0.17863051
v -2.13682508 -0.71297597 -0.1785555
v -1.86110103 -0.66667097 -0.1786405
v -1.97128403 -0.847898 -0.1785645
v -1.70756602 -0.74731802 -0.17865051
v -1.78011 -0.94831699 -0.1785735
v -1.53907394 -0.79640501 -0.17866151
v -1.57049405 -1.00938499 -0.17858351
v -1.36212098 -0.81118601 -0.1786725
v -1.35054504 -1.02775394 -0.1785935
v -1.18370795 -0.79025101 -0.1786835
v -1.12896597 -1.00175297 -0.17860351
v -1.01105105 -0.73362201 -0.1786945
v -0.91470998 -0.93147999 -0.17861349
v -0.85129702 -0.64278 -0.17870651
v -0.71662801 -0.81884098 -0.17862449
v -0.71122598 -0.52063602 -0.17871849
v -0.543087 -0.66750901 -0.17863549
v -0.59696698 -0.37144699 -0.1787305
v -0.401636 -0.482811 -0.1786475
v -0.51372897 -0.20066499 -0.17874349
v -0.29866498 -0.271544 -0.1786585
v -0.46557098 -0.014744 -0.1787555
v -0.23913499 -0.041714 -0.17867051
v -0.455206 0.17910499 -0.17876951
v -0.226333 0.19774 -0.17868249
v -0.48386898 0.37319698 -0.17878149
v -0.261716 0.43732601 -0.17869551
v -0.55122697 0.55966997 -0.1787955
v -0.344805 0.66734802 -0.17870749
v -0.65536499 0.73081398 -0.17881049
v -0.47317799 0.87831497 -0.17872048
v -0.79283499 0.87937599 -0.17882449
v -0.64252597 1.06132602 -0.17873351
v -0.95875901 0.99887901 -0.1788385
v -0.84679102 1.20844197 -0.17874749
v -1.14699995 1.08389198 -0.17885349
v -1.07838296 1.31303203 -0.17876149
v -1.35039496 1.13028097 -0.17886851
v -1.328462 1.37006795 -0.1787755
v -1.56102395 1.135396 -0.1788835
v -1.58727502 1.37635099 -0.17878951
v -1.77050995 1.098212 -0.17889849
v -1.84452903 1.33068895 -0.1788045
v -1.97036302 1.01940596 -0.1789145
v -2.08980798 1.23396801 -0.17881949
v -2.1523211 0.90135097 -0.1789305
v -2.31299495 1.08916294 -0.17883451
v -2.30869197 0.74806398 -0.17894749
v -2.50468611 0.90124899 -0.17885051
v -2.43266892 0.56506097 -0.17896451
v -2.65658211 0.67703402 -0.1788655
v -2.51863503 0.35917499 -0.17898149
v -2.76185011 0.424919 -0.17888249
v -2.56241107 0.13828599 -0.17899851
v -2.81542205 0.15458099 -0.17889849
v -2.5614469 -0.08896599 -0.17901651
v -2.81424403 -0.12339899 -0.1789145
v -2.514961 -0.31353101 -0.1790335
v -2.75740909 -0.39794901 -0.17893149
v -2.42400002 -0.52630001 -0.1790515
v -2.64625906 -0.65794199 -0.1789485
v -2.2914319 -0.71848201 -0.17907051
v -2.48434805 -0.892659 -0.1789665
v -2.12185907 -0.88195598 -0.1790895
v -2.27734088 -1.09221696 -0.1789845
v -1.92146003 -1.00962197 -0.1791075
v -2.03282403 -1.24798905 -0.1790025
v -1.69777298 -1.09571099 -0.17912749
v -1.76002395 -1.35297894 -0.1790205
v -1.45940697 -1.13602805 -0.17914651
v -1.46945595 -1.40212404 -0.17903949
v -1.21570897 -1.12815904 -0.17916651
v -1.17253005 -1.39253604 -0.1790585
v -0.97640901 -1.071599 -0.1791865
v -0.88109099 -1.32365 -0.17907749
v -0.75121498 -0.96779501 -0.17920748
v -0.60695499 -1.19728601 -0.1790965
v -0.54943299 -0.82013899 -0.17922751
v -0.361429 -1.017614 -0.1791165
v -0.379579 -0.63383799 -0.17924849
v -0.154841 -0.791022 -0.1791365
v -0.249014 -0.41575399 -0.1792695
v 0.003892 -0.52588599 -0.17915649
v -0.16371099 -0.17411799 -0.1792915
v 0.10757 -0.23224699 -0.1791775
v 1.58846902 -0.004831 -0.17858649
v 1.69185698 0.019887 -0.17857451
v 1.69412195 -0.021181 -0.1785825
v 1.590438 -0.04050999 -0.17859549
v 1.57838404 0.031521 -0.17857749
v 1.67565095 0.078321 -0.1785645
v 1.55988204 0.066679 -0.17856951
v 1.64639401 0.133925 -0.1785555
v 1.53309798 0.098683 -0.1785625
v 1.60465705 0.183807 -0.1785465
v 1.49861395 0.12560099 -0.17855449
v 1.55163002 0.22520199 -0.17853851
v 1.45745897 0.14561399 -0.17854751
v 1.48911404 0.25560799 -0.17852951
v 1.41108 0.157128 -0.17854051
v 1.41944694 0.27290698 -0.17852149
v 1.36129605 0.158865 -0.1785335
v 1.34543299 0.27549099 -0.17851351
v 1.31022894 0.149945 -0.17852748
v 1.27022802 0.26235801 -0.17850549
v 1.26019597 0.129959 -0.17852149
v 1.19719696 0.233187 -0.17849849
v 1.21363198 0.099009 -0.1785155
v 1.12978303 0.188378 -0.17849151
v 1.17295503 0.05773299 -0.1785105
v 1.07134199 0.129078 -0.17848549
v 1.14045703 0.007301 -0.17850549
v 1.02498304 0.05714 -0.1784795
v 1.11818504 -0.050601 -0.17850048
v 0.99342298 -0.02490299 -0.17847351
v 1.10782897 -0.113839 -0.17849551
v 0.97883802 -0.113948 -0.17846749
v 1.11061799 -0.179908 -0.17849151
v 0.98274099 -0.206431 -0.17846249
v 1.12724804 -0.246028 -0.17848749
v 1.00589001 -0.298473 -0.17845751
v 1.15781605 -0.30925199 -0.1784835
v 1.04822099 -0.38602599 -0.1784525
v 1.201792 -0.36661601 -0.1784795
v 1.10881495 -0.46506699 -0.17844851
v 1.25800204 -0.41525098 -0.17847649
v 1.18590498 -0.53176802 -0.1784435
v 1.32466602 -0.45254099 -0.17847351
v 1.27692401 -0.582686 -0.17843951
v 1.39943695 -0.47624701 -0.17847149
v 1.37858402 -0.61491298 -0.1784365
v 1.47949802 -0.484613 -0.17846851
v 1.48699903 -0.62624597 -0.1784325
v 1.56164896 -0.47648799 -0.17846651
v 1.59781897 -0.615287 -0.17842949
v 1.642452 -0.451393 -0.17846451
v 1.70642399 -0.58155697 -0.17842648
v 1.71836197 -0.40957599 -0.17846249
v 1.80810105 -0.52554798 -0.17842449
v 1.78589403 -0.35202801 -0.1784615
v 1.89824998 -0.448724 -0.17842151
v 1.84176504 -0.28047001 -0.17846049
v 1.97259903 -0.35349801 -0.17842049
v 1.88305604 -0.19731399 -0.17846049
v 2.02738094 -0.243173 -0.1784185
v 1.90736103 -0.105575 -0.17845951
v 2.05953192 -0.12181899 -0.17841748
v 1.91290295 -0.008763 -0.17845951
v 2.06684303 0.005886 -0.1784165
v 1.89864301 0.089233 -0.17845951
v 2.04808092 0.134809 -0.17841549
v 1.86434805 0.184329 -0.17846049
v 2.00307893 0.25959399 -0.1784145
v 1.81063902 0.27239501 -0.17846049
v 1.93277597 0.37487 -0.1784145
v 1.73898804 0.34944701 -0.1784615
v 1.83921194 0.47548401 -0.1784145
v 1.65169501 0.41180801 -0.17846249
v 1.72548294 0.55673402 -0.1784145
v 1.551813 0.45629799 -0.17846451
v 1.59563899 0.61456799 -0.17841549
v 1.44303894 0.48037299 -0.1784655
v 1.45453703 0.645796 -0.1784165
v 1.32958102 0.48226198 -0.17846851
v 1.30766403 0.64823997 -0.17841748
v 1.21600604 0.46107 -0.1784705
v 1.16093003 0.620862 -0.1784185
v 1.10703504 0.41684898 -0.1784725
v 1.02041494 0.56383901 -0.17842151
v 1.00736701 0.35062 -0.17847649
v 0.89213401 0.47859698 -0.17842249
v 0.92146402 0.26436701 -0.1784795
v 0.78176897 0.36778101 -0.17842449
v 0.853365 0.16098199 -0.17848251
v 0.69442898 0.23518499 -0.1784275
v 0.80649 0.04417499 -0.17848651
v 0.63441097 0.085623 -0.17843051
v 0.78348201 -0.081671 -0.1784905
v 0.60500198 -0.07524599 -0.17843349
v 0.78607398 -0.21164299 -0.17849449
v 0.60830897 -0.241123 -0.1784365
v 0.814978 -0.34050101 -0.1784995
v 0.64514398 -0.405335 -0.17844049
v 0.869834 -0.462902 -0.17850451
v 0.71494501 -0.561082 -0.17844449
v 0.94918698 -0.57359397 -0.17850948
v 0.81577301 -0.701729 -0.17844949
v 1.05052197 -0.66766202 -0.17851449
v 0.94435 -0.82108199 -0.17845349
v 1.170331 -0.74072802 -0.17852051
v 1.09616005 -0.91366499 -0.17845849
v 1.30423605 -0.78916901 -0.1785265
v 1.26560795 -0.974963 -0.1784635
v 1.44715404 -0.81027197 -0.17853249
v 1.44622898 -1.00163102 -0.17846949
v 1.59347701 -0.80237901 -0.1785395
v 1.630921 -0.99167001 -0.1784745
v 1.73729896 -0.76499199 -0.1785465
v 1.81223499 -0.94453197 -0.17848049
v 1.87265694 -0.69880902 -0.1785535
v 1.98267698 -0.86119699 -0.17848651
v 1.99377203 -0.60574799 -0.17856149
v 2.1350069 -0.744147 -0.17849351
v 2.0952959 -0.48887899 -0.17856849
v 2.26255607 -0.59732097 -0.1784995
v 2.1725521 -0.35234299 -0.17857651
v 2.35950708 -0.42597499 -0.1785065
v 2.22173094 -0.201201 -0.17858551
v 2.42115807 -0.236497 -0.17851449
v 2.24009108 -0.04123599 -0.1785935
v 2.44414997 -0.03616999 -0.17852251
v 2.22608208 0.12124499 -0.1786025
v 2.4266231 0.167098 -0.17853049
v 2.17944693 0.27967599 -0.17861251
v 2.3683381 0.36510598 -0.17853851
v 2.10126209 0.42749398 -0.17862151
v 2.27071595 0.54966998 -0.1785465
v 1.99392998 0.55840802 -0.17863051
v 2.13682389 0.71297502 -0.1785555
v 1.86109995 0.66667002 -0.1786405
v 1.97128403 0.84789699 -0.1785645
v 1.70756602 0.74731701 -0.17865051
v 1.78011 0.94831597 -0.1785735
v 1.53907299 0.79640501 -0.17866151
v 1.57049405 1.00938296 -0.17858351
v 1.36212098 0.81118601 -0.1786725
v 1.35054504 1.02775299 -0.1785935
v 1.18370795 0.79025 -0.1786835
v 1.12896597 1.00175201 -0.17860351
v 1.01105105 0.733621 -0.1786945
v 0.91471099 0.93147999 -0.17861349
v 0.85129797 0.64278 -0.17870651
v 0.71662801 0.81884098 -0.17862449
v 0.71122598 0.52063602 -0.17871849
v 0.543087 0.66750901 -0.17863549
v 0.59696602 0.37144699 -0.1787305
v 0.40163499 0.48281198 -0.1786475
v 0.51372897 0.20066399 -0.17874349
v 0.29866498 0.271544 -0.1786585
v 0.46557 0.014744 -0.1787555
v 0.23913499 0.041714 -0.17867051
v 0.455206 -0.17910599 -0.17876951
v 0.226333 -0.197738 -0.17868249
v 0.48386898 -0.37319698 -0.17878149
v 0.26171499 -0.43732601 -0.17869551
v 0.55122697 -0.55966997 -0.1787955
v 0.344805 -0.66734802 -0.17870749
v 0.65536499 -0.73081302 -0.17881049
v 0.47317799 -0.87831401 -0.17872048
v 0.79283499 -0.87937498 -0.17882449
v 0.64252501 -1.06132698 -0.17873351
v 0.95875799 -0.99888002 -0.1788385
v 0.84679001 -1.20844101 -0.17874749
v 1.14699995 -1.08389103 -0.17885349
v 1.07838296 -1.31303095 -0.17876149
v 1.35039496 -1.13028204 -0.17886851
v 1.328462 -1.37006902 -0.1787755
v 1.56102395 -1.135396 -0.1788835
v 1.58727395 -1.37635099 -0.17878951
v 1.770509 -1.09821295 -0.17889849
v 1.84452796 -1.33068704 -0.1788045
v 1.97036194 -1.01940596 -0.1789145
v 2.08980703 -1.23396694 -0.17881949
v 2.1523211 -0.90135097 -0.1789305
v 2.31299495 -1.08916401 -0.17883451
v 2.30869197 -0.74806398 -0.17894749
v 2.50468492 -0.90124899 -0.17885051
v 2.43266797 -0.56506097 -0.17896451
v 2.65658211 -0.67703497 -0.1788655
v 2.51863503 -0.35917601 -0.17898149
v 2.76185011 -0.42491999 -0.17888249
v 2.56241011 -0.13828599 -0.17899851
v 2.81542205 -0.15457899 -0.17889849
v 2.5614469 0.088967 -0.17901651
v 2.81424403 0.12339899 -0.1789145
v 2.51496005 0.31353199 -0.1790335
v 2.75740909 0.39794799 -0.17893149
v 2.42400002 0.52630102 -0.1790515
v 2.64625906 0.65794199 -0.1789485
v 2.2914319 0.718481 -0.17907051
v 2.4843471 0.892659 -0.1789665
v 2.12185907 0.88195502 -0.1790895
v 2.27734088 1.09221696 -0.1789845
v 1.92146003 1.00962305 -0.1791075
v 2.03282403 1.24798905 -0.1790025
v 1.69777298 1.09571194 -0.17912749
v 1.76002395 1.35297894 -0.1790205
v 1.45940697 1.136029 -0.17914651
v 1.46945595 1.40212404 -0.17903949
v 1.21570897 1.12815904 -0.17916651
v 1.17253005 1.39253604 -0.1790585
v 0.97640901 1.07159805 -0.1791865
v 0.88109099 1.32364904 -0.17907749
v 0.75121498 0.96779602 -0.17920748
v 0.606956 1.19728601 -0.1790965
v 0.54943299 0.82013797 -0.17922751
v 0.361429 1.01761496 -0.1791165
v 0.379579 0.63383698 -0.17924849
v 0.154841 0.791022 -0.1791365
v 0.249014 0.41575399 -0.1792695
v -0.003892 0.52588599 -0.17915649
v 0.16371099 0.17411899 -0.1792915
v -0.10757 0.23224499 -0.1791775
g Group32941
f 440 439 438 437
g Group32944
f 2 1 440 437
f 110 111 438 439
f 1 110 439 440
g Group22700
f 1 2 111 110
g Group32941
f 437 438 442 441
g Group32944
f 3 2 437 441
f 111 112 442 438
g Group22700
f 2 3 112 111
g Group32941
f 441 442 444 443
g Group32944
f 4 3 441 443
f 112 113 444 442
g Group22700
f 3 4 113 112
g Group32941
f 443 444 446 445
g Group32944
f 5 4 443 445
f 113 114 446 444
g Group22700
f 4 5 114 113
g Group32941
f 445 446 448 447
g Group32944
f 6 5 445 447
f 114 115 448 446
g Group22700
f 5 6 115 114
g Group32941
f 447 448 450 449
g Group32944
f 7 6 447 449
f 115 116 450 448
g Group22700
f 6 7 116 115
g Group32941
f 449 450 452 451
g Group32944
f 8 7 449 451
f 116 117 452 450
g Group22700
f 7 8 117 116
g Group32941
f 451 452 454 453
g Group32944
f 9 8 451 453
f 117 118 454 452
g Group22700
f 8 9 118 117
g Group32941
f 453 454 456 455
g Group32944
f 10 9 453 455
f 118 119 456 454
g Group22700
f 9 10 119 118
g Group32941
f 455 456 458 457
g Group32944
f 11 10 455 457
f 119 120 458 456
g Group22700
f 10 11 120 119
g Group32941
f 457 458 460 459
g Group32944
f 12 11 457 459
f 120 121 460 458
g Group22700
f 11 12 121 120
g Group32941
f 459 460 462 461
g Group32944
f 13 12 459 461
f 121 122 462 460
g Group22700
f 12 13 122 121
g Group32941
f 461 462 464 463
g Group32944
f 14 13 461 463
f 122 123 464 462
g Group22700
f 13 14 123 122
g Group32941
f 463 464 466 465
g Group32944
f 15 14 463 465
f 123 124 466 464
g Group22700
f 14 15 124 123
g Group32941
f 465 466 468 467
g Group32944
f 16 15 465 467
f 124 125 468 466
g Group22700
f 15 16 125 124
g Group32941
f 467 468 470 469
g Group32944
f 17 16 467 469
f 125 126 470 468
g Group22700
f 16 17 126 125
g Group32941
f 469 470 472 471
g Group32944
f 18 17 469 471
f 126 127 472 470
g Group22700
f 17 18 127 126
g Group32941
f 471 472 474 473
g Group32944
f 19 18 471 473
f 127 128 474 472
g Group22700
f 18 19 128 127
g Group32941
f 473 474 476 475
g Group32944
f 20 19 473 475
f 128 129 476 474
g Group22700
f 19 20 129 128
g Group32941
f 475 476 478 477
g Group32944
f 21 20 475 477
f 129 130 478 476
g Group22700
f 20 21 130 129
g Group32941
f 477 478 480 479
g Group32944
f 22 21 477 479
f 130 131 480 478
g Group22700
f 21 22 131 130
g Group32941
f 479 480 482 481
g Group32944
f 23 22 479 481
f 131 132 482 480
g Group22700
f 22 23 132 131
g Group32941
f 481 482 484 483
g Group32944
f 24 23 481 483
f 132 133 484 482
g Group22700
f 23 24 133 132
g Group32941
f 483 484 486 485
g Group32944
f 25 24 483 485
f 133 134 486 484
g Group22700
f 24 25 134 133
g Group32941
f 485 486 488 487
g Group32944
f 26 25 485 487
f 134 135 488 486
g Group22700
f 25 26 135 134
g Group32941
f 487 488 490 489
g Group32944
f 27 26 487 489
f 135 136 490 488
g Group22700
f 26 27 136 135
g Group32941
f 489 490 492 491
g Group32944
f 28 27 489 491
f 136 137 492 490
g Group22700
f 27 28 137 136
g Group32941
f 491 492 494 493
g Group32944
f 29 28 491 493
f 137 138 494 492
g Group22700
f 28 29 138 137
g Group32941
f 493 494 496 495
g Group32944
f 30 29 493 495
f 138 139 496 494
g Group22700
f 29 30 139 138
g Group32941
f 495 496 498 497
g Group32944
f 31 30 495 497
f 139 140 498 496
g Group22700
f 30 31 140 139
g Group32941
f 497 498 500 499
g Group32944
f 32 31 497 499
f 140 141 500 498
g Group22700
f 31 32 141 140
g Group32941
f 499 500 502 501
g Group32944
f 33 32 499 501
f 141 142 502 500
g Group22700
f 32 33 142 141
g Group32941
f 501 502 504 503
g Group32944
f 34 33 501 503
f 142 143 504 502
g Group22700
f 33 34 143 142
g Group32941
f 503 504 506 505
g Group32944
f 35 34 503 505
f 143 144 506 504
g Group22700
f 34 35 144 143
g Group32941
f 505 506 508 507
g Group32944
f 36 35 505 507
f 144 145 508 506
g Group22700
f 35 36 145 144
g Group32941
f 507 508 510 509
g Group32944
f 37 36 507 509
f 145 146 510 508
g Group22700
f 36 37 146 145
g Group32941
f 509 510 512 511
g Group32944
f 38 37 509 511
f 146 147 512 510
g Group22700
f 37 38 147 146
g Group32941
f 511 512 514 513
g Group32944
f 39 38 511 513
f 147 148 514 512
g Group22700
f 38 39 148 147
g Group32941
f 513 514 516 515
g Group32944
f 40 39 513 515
f 148 149 516 514
g Group22700
f 39 40 149 148
g Group32941
f 515 516 518 517
g Group32944
f 41 40 515 517
f 149 150 518 516
g Group22700
f 40 41 150 149
g Group32941
f 517 518 520 519
g Group32944
f 42 41 517 519
f 150 151 520 518
g Group22700
f 41 42 151 150
g Group32941
f 519 520 522 521
g Group32944
f 43 42 519 521
f 151 152 522 520
g Group22700
f 42 43 152 151
g Group32941
f 521 522 524 523
g Group32944
f 44 43 521 523
f 152 153 524 522
g Group22700
f 43 44 153 152
g Group32941
f 523 524 526 525
g Group32944
f 45 44 523 525
f 153 154 526 524
g Group22700
f 44 45 154 153
g Group32941
f 525 526 528 527
g Group32944
f 46 45 525 527
f 154 155 528 526
g Group22700
f 45 46 155 154
g Group32941
f 527 528 530 529
g Group32944
f 47 46 527 529
f 155 156 530 528
g Group22700
f 46 47 156 155
g Group32941
f 529 530 532 531
g Group32944
f 48 47 529 531
f 156 157 532 530
g Group22700
f 47 48 157 156
g Group32941
f 531 532 534 533
g Group32944
f 49 48 531 533
f 157 158 534 532
g Group22700
f 48 49 158 157
g Group32941
f 533 534 536 535
g Group32944
f 50 49 533 535
f 158 159 536 534
g Group22700
f 49 50 159 158
g Group32941
f 535 536 538 537
g Group32944
f 51 50 535 537
f 159 160 538 536
g Group22700
f 50 51 160 159
g Group32941
f 537 538 540 539
g Group32944
f 52 51 537 539
f 160 161 540 538
g Group22700
f 51 52 161 160
g Group32941
f 539 540 542 541
g Group32944
f 53 52 539 541
f 161 162 542 540
g Group22700
f 52 53 162 161
g Group32941
f 541 542 544 543
g Group32944
f 54 53 541 543
f 162 163 544 542
g Group22700
f 53 54 163 162
g Group32941
f 543 544 546 545
g Group32944
f 55 54 543 545
f 163 164 546 544
g Group22700
f 54 55 164 163
g Group32941
f 545 546 548 547
g Group32944
f 56 55 545 547
f 164 165 548 546
g Group22700
f 55 56 165 164
g Group32941
f 547 548 550 549
g Group32944
f 57 56 547 549
f 165 166 550 548
g Group22700
f 56 57 166 165
g Group32941
f 549 550 552 551
g Group32944
f 58 57 549 551
f 166 167 552 550
g Group22700
f 57 58 167 166
g Group32941
f 551 552 554 553
g Group32944
f 59 58 551 553
f 167 168 554 552
g Group22700
f 58 59 168 167
g Group32941
f 553 554 556 555
g Group32944
f 60 59 553 555
f 168 169 556 554
g Group22700
f 59 60 169 168
g Group32941
f 555 556 558 557
g Group32944
f 61 60 555 557
f 169 170 558 556
g Group22700
f 60 61 170 169
g Group32941
f 557 558 560 559
g Group32944
f 62 61 557 559
f 170 171 560 558
g Group22700
f 61 62 171 170
g Group32941
f 559 560 562 561
g Group32944
f 63 62 559 561
f 171 172 562 560
g Group22700
f 62 63 172 171
g Group32941
f 561 562 564 563
g Group32944
f 64 63 561 563
f 172 173 564 562
g Group22700
f 63 64 173 172
g Group32941
f 563 564 566 565
g Group32944
f 65 64 563 565
f 173 174 566 564
g Group22700
f 64 65 174 173
g Group32941
f 565 566 568 567
g Group32944
f 66 65 565 567
f 174 175 568 566
g Group22700
f 65 66 175 174
g Group32941
f 567 568 570 569
g Group32944
f 67 66 567 569
f 175 176 570 568
g Group22700
f 66 67 176 175
g Group32941
f 569 570 572 571
g Group32944
f 68 67 569 571
f 176 177 572 570
g Group22700
f 67 68 177 176
g Group32941
f 571 572 574 573
g Group32944
f 69 68 571 573
f 177 178 574 572
g Group22700
f 68 69 178 177
g Group32941
f 573 574 576 575
g Group32944
f 70 69 573 575
f 178 179 576 574
g Group22700
f 69 70 179 178
g Group32941
f 575 576 578 577
g Group32944
f 71 70 575 577
f 179 180 578 576
g Group22700
f 70 71 180 179
g Group32941
f 577 578 580 579
g Group32944
f 72 71 577 579
f 180 181 580 578
g Group22700
f 71 72 181 180
g Group32941
f 579 580 582 581
g Group32944
f 73 72 579 581
f 181 182 582 580
g Group22700
f 72 73 182 181
g Group32941
f 581 582 584 583
g Group32944
f 74 73 581 583
f 182 183 584 582
g Group22700
f 73 74 183 182
g Group32941
f 583 584 586 585
g Group32944
f 75 74 583 585
f 183 184 586 584
g Group22700
f 74 75 184 183
g Group32941
f 585 586 588 587
g Group32944
f 76 75 585 587
f 184 185 588 586
g Group22700
f 75 76 185 184
g Group32941
f 587 588 590 589
g Group32944
f 77 76 587 589
f 185 186 590 588
g Group22700
f 76 77 186 185
g Group32941
f 589 590 592 591
g Group32944
f 78 77 589 591
f 186 187 592 590
g Group22700
f 77 78 187 186
g Group32941
f 591 592 594 593
g Group32944
f 79 78 591 593
f 187 188 594 592
g Group22700
f 78 79 188 187
g Group32941
f 593 594 596 595
g Group32944
f 80 79 593 595
f 188 189 596 594
g Group22700
f 79 80 189 188
g Group32941
f 595 596 598 597
g Group32944
f 81 80 595 597
f 189 190 598 596
g Group22700
f 80 81 190 189
g Group32941
f 597 598 600 599
g Group32944
f 82 81 597 599
f 190 191 600 598
g Group22700
f 81 82 191 190
g Group32941
f 599 600 602 601
g Group32944
f 83 82 599 601
f 191 192 602 600
g Group22700
f 82 83 192 191
g Group32941
f 601 602 604 603
g Group32944
f 84 83 601 603
f 192 193 604 602
g Group22700
f 83 84 193 192
g Group32941
f 603 604 606 605
g Group32944
f 85 84 603 605
f 193 194 606 604
g Group22700
f 84 85 194 193
g Group32941
f 605 606 608 607
g Group32944
f 86 85 605 607
f 194 195 608 606
g Group22700
f 85 86 195 194
g Group32941
f 607 608 610 609
g Group32944
f 87 86 607 609
f 195 196 610 608
g Group22700
f 86 87 196 195
g Group32941
f 609 610 612 611
g Group32944
f 88 87 609 611
f 196 197 612 610
g Group22700
f 87 88 197 196
g Group32941
f 611 612 614 613
g Group32944
f 89 88 611 613
f 197 198 614 612
g Group22700
f 88 89 198 197
g Group32941
f 613 614 616 615
g Group32944
f 90 89 613 615
f 198 199 616 614
g Group22700
f 89 90 199 198
g Group32941
f 615 616 618 617
g Group32944
f 91 90 615 617
f 199 200 618 616
g Group22700
f 90 91 200 199
g Group32941
f 617 618 620 619
g Group32944
f 92 91 617 619
f 200 201 620 618
g Group22700
f 91 92 201 200
g Group32941
f 619 620 622 621
g Group32944
f 93 92 619 621
f 201 202 622 620
g Group22700
f 92 93 202 201
g Group32941
f 621 622 624 623
g Group32944
f 94 93 621 623
f 202 203 624 622
g Group22700
f 93 94 203 202
g Group32941
f 623 624 626 625
g Group32944
f 95 94 623 625
f 203 204 626 624
g Group22700
f 94 95 204 203
g Group32941
f 625 626 628 627
g Group32944
f 96 95 625 627
f 204 205 628 626
g Group22700
f 95 96 205 204
g Group32941
f 627 628 630 629
g Group32944
f 97 96 627 629
f 205 206 630 628
g Group22700
f 96 97 206 205
g Group32941
f 629 630 632 631
g Group32944
f 98 97 629 631
f 206 207 632 630
g Group22700
f 97 98 207 206
g Group32941
f 631 632 634 633
g Group32944
f 99 98 631 633
f 207 208 634 632
g Group22700
f 98 99 208 207
g Group32941
f 633 634 636 635
g Group32944
f 100 99 633 635
f 208 209 636 634
g Group22700
f 99 100 209 208
g Group32941
f 635 636 638 637
g Group32944
f 101 100 635 637
f 209 210 638 636
g Group22700
f 100 101 210 209
g Group32941
f 637 638 640 639
g Group32944
f 102 101 637 639
f 210 211 640 638
g Group22700
f 101 102 211 210
g Group32941
f 639 640 642 641
g Group32944
f 103 102 639 641
f 211 212 642 640
g Group22700
f 102 103 212 211
g Group32941
f 641 642 644 643
g Group32944
f 104 103 641 643
f 212 213 644 642
g Group22700
f 103 104 213 212
g Group32941
f 643 644 646 645
g Group32944
f 105 104 643 645
f 213 214 646 644
g Group22700
f 104 105 214 213
g Group32941
f 645 646 648 647
g Group32944
f 106 105 645 647
f 214 215 648 646
g Group22700
f 105 106 215 214
g Group32941
f 647 648 650 649
g Group32944
f 107 106 647 649
f 215 216 650 648
g Group22700
f 106 107 216 215
g Group32941
f 649 650 652 651
g Group32944
f 108 107 649 651
f 216 217 652 650
g Group22700
f 107 108 217 216
g Group32941
f 651 652 654 653
g Group32944
f 109 108 651 653
f 217 218 654 652
g Group22700
f 108 109 218 217
g Group32941
f 658 657 656 655
g Group32944
f 220 219 658 655
f 328 329 656 657
f 219 328 657 658
g Group22700
f 219 220 329 328
g Group32941
f 655 656 660 659
g Group32944
f 221 220 655 659
f 329 330 660 656
g Group22700
f 220 221 330 329
g Group32941
f 659 660 662 661
g Group32944
f 222 221 659 661
f 330 331 662 660
g Group22700
f 221 222 331 330
g Group32941
f 661 662 664 663
g Group32944
f 223 222 661 663
f 331 332 664 662
g Group22700
f 222 223 332 331
g Group32941
f 663 664 666 665
g Group32944
f 224 223 663 665
f 332 333 666 664
g Group22700
f 223 224 333 332
g Group32941
f 665 666 668 667
g Group32944
f 225 224 665 667
f 333 334 668 666
g Group22700
f 224 225 334 333
g Group32941
f 667 668 670 669
g Group32944
f 226 225 667 669
f 334 335 670 668
g Group22700
f 225 226 335 334
g Group32941
f 669 670 672 671
g Group32944
f 227 226 669 671
f 335 336 672 670
g Group22700
f 226 227 336 335
g Group32941
f 671 672 674 673
g Group32944
f 228 227 671 673
f 336 337 674 672
g Group22700
f 227 228 337 336
g Group32941
f 673 674 676 675
g Group32944
f 229 228 673 675
f 337 338 676 674
g Group22700
f 228 229 338 337
g Group32941
f 675 676 678 677
g Group32944
f 230 229 675 677
f 338 339 678 676
g Group22700
f 229 230 339 338
g Group32941
f 677 678 680 679
g Group32944
f 231 230 677 679
f 339 340 680 678
g Group22700
f 230 231 340 339
g Group32941
f 679 680 682 681
g Group32944
f 232 231 679 681
f 340 341 682 680
g Group22700
f 231 232 341 340
g Group32941
f 681 682 684 683
g Group32944
f 233 232 681 683
f 341 342 684 682
g Group22700
f 232 233 342 341
g Group32941
f 683 684 686 685
g Group32944
f 234 233 683 685
f 342 343 686 684
g Group22700
f 233 234 343 342
g Group32941
f 685 686 688 687
g Group32944
f 235 234 685 687
f 343 344 688 686
g Group22700
f 234 235 344 343
g Group32941
f 687 688 690 689
g Group32944
f 236 235 687 689
f 344 345 690 688
g Group22700
f 235 236 345 344
g Group32941
f 689 690 692 691
g Group32944
f 237 236 689 691
f 345 346 692 690
g Group22700
f 236 237 346 345
g Group32941
f 691 692 694 693
g Group32944
f 238 237 691 693
f 346 347 694 692
g Group22700
f 237 238 347 346
g Group32941
f 693 694 696 695
g Group32944
f 239 238 693 695
f 347 348 696 694
g Group22700
f 238 239 348 347
g Group32941
f 695 696 698 697
g Group32944
f 240 239 695 697
f 348 349 698 696
g Group22700
f 239 240 349 348
g Group32941
f 697 698 700 699
g Group32944
f 241 240 697 699
f 349 350 700 698
g Group22700
f 240 241 350 349
g Group32941
f 699 700 702 701
g Group32944
f 242 241 699 701
f 350 351 702 700
g Group22700
f 241 242 351 350
g Group32941
f 701 702 704 703
g Group32944
f 243 242 701 703
f 351 352 704 702
g Group22700
f 242 243 352 351
g Group32941
f 703 704 706 705
g Group32944
f 244 243 703 705
f 352 353 706 704
g Group22700
f 243 244 353 352
g Group32941
f 705 706 708 707
g Group32944
f 245 244 705 707
f 353 354 708 706
g Group22700
f 244 245 354 353
g Group32941
f 707 708 710 709
g Group32944
f 246 245 707 709
f 354 355 710 708
g Group22700
f 245 246 355 354
g Group32941
f 709 710 712 711
g Group32944
f 247 246 709 711
f 355 356 712 710
g Group22700
f 246 247 356 355
g Group32941
f 711 712 714 713
g Group32944
f 248 247 711 713
f 356 357 714 712
g Group22700
f 247 248 357 356
g Group32941
f 713 714 716 715
g Group32944
f 249 248 713 715
f 357 358 716 714
g Group22700
f 248 249 358 357
g Group32941
f 715 716 718 717
g Group32944
f 250 249 715 717
f 358 359 718 716
g Group22700
f 249 250 359 358
g Group32941
f 717 718 720 719
g Group32944
f 251 250 717 719
f 359 360 720 718
g Group22700
f 250 251 360 359
g Group32941
f 719 720 722 721
g Group32944
f 252 251 719 721
f 360 361 722 720
g Group22700
f 251 252 361 360
g Group32941
f 721 722 724 723
g Group32944
f 253 252 721 723
f 361 362 724 722
g Group22700
f 252 253 362 361
g Group32941
f 723 724 726 725
g Group32944
f 254 253 723 725
f 362 363 726 724
g Group22700
f 253 254 363 362
g Group32941
f 725 726 728 727
g Group32944
f 255 254 725 727
f 363 364 728 726
g Group22700
f 254 255 364 363
g Group32941
f 727 728 730 729
g Group32944
f 256 255 727 729
f 364 365 730 728
g Group22700
f 255 256 365 364
g Group32941
f 729 730 732 731
g Group32944
f 257 256 729 731
f 365 366 732 730
g Group22700
f 256 257 366 365
g Group32941
f 731 732 734 733
g Group32944
f 258 257 731 733
f 366 367 734 732
g Group22700
f 257 258 367 366
g Group32941
f 733 734 736 735
g Group32944
f 259 258 733 735
f 367 368 736 734
g Group22700
f 258 259 368 367
g Group32941
f 735 736 738 737
g Group32944
f 260 259 735 737
f 368 369 738 736
g Group22700
f 259 260 369 368
g Group32941
f 737 738 740 739
g Group32944
f 261 260 737 739
f 369 370 740 738
g Group22700
f 260 261 370 369
g Group32941
f 739 740 742 741
g Group32944
f 262 261 739 741
f 370 371 742 740
g Group22700
f 261 262 371 370
g Group32941
f 741 742 744 743
g Group32944
f 263 262 741 743
f 371 372 744 742
g Group22700
f 262 263 372 371
g Group32941
f 743 744 746 745
g Group32944
f 264 263 743 745
f 372 373 746 744
g Group22700
f 263 264 373 372
g Group32941
f 745 746 748 747
g Group32944
f 265 264 745 747
f 373 374 748 746
g Group22700
f 264 265 374 373
g Group32941
f 747 748 750 749
g Group32944
f 266 265 747 749
f 374 375 750 748
g Group22700
f 265 266 375 374
g Group32941
f 749 750 752 751
g Group32944
f 267 266 749 751
f 375 376 752 750
g Group22700
f 266 267 376 375
g Group32941
f 751 752 754 753
g Group32944
f 268 267 751 753
f 376 377 754 752
g Group22700
f 267 268 377 376
g Group32941
f 753 754 756 755
g Group32944
f 269 268 753 755
f 377 378 756 754
g Group22700
f 268 269 378 377
g Group32941
f 755 756 758 757
g Group32944
f 270 269 755 757
f 378 379 758 756
g Group22700
f 269 270 379 378
g Group32941
f 757 758 760 759
g Group32944
f 271 270 757 759
f 379 380 760 758
g Group22700
f 270 271 380 379
g Group32941
f 759 760 762 761
g Group32944
f 272 271 759 761
f 380 381 762 760
g Group22700
f 271 272 381 380
g Group32941
f 761 762 764 763
g Group32944
f 273 272 761 763
f 381 382 764 762
g Group22700
f 272 273 382 381
g Group32941
f 763 764 766 765
g Group32944
f 274 273 763 765
f 382 383 766 764
g Group22700
f 273 274 383 382
g Group32941
f 765 766 768 767
g Group32944
f 275 274 765 767
f 383 384 768 766
g Group22700
f 274 275 384 383
g Group32941
f 767 768 770 769
g Group32944
f 276 275 767 769
f 384 385 770 768
g Group22700
f 275 276 385 384
g Group32941
f 769 770 772 771
g Group32944
f 277 276 769 771
f 385 386 772 770
g Group22700
f 276 277 386 385
g Group32941
f 771 772 774 773
g Group32944
f 278 277 771 773
f 386 387 774 772
g Group22700
f 277 278 387 386
g Group32941
f 773 774 776 775
g Group32944
f 279 278 773 775
f 387 388 776 774
g Group22700
f 278 279 388 387
g Group32941
f 775 776 778 777
g Group32944
f 280 279 775 777
f 388 389 778 776
g Group22700
f 279 280 389 388
g Group32941
f 777 778 780 779
g Group32944
f 281 280 777 779
f 389 390 780 778
g Group22700
f 280 281 390 389
g Group32941
f 779 780 782 781
g Group32944
f 282 281 779 781
f 390 391 782 780
g Group22700
f 281 282 391 390
g Group32941
f 781 782 784 783
g Group32944
f 283 282 781 783
f 391 392 784 782
g Group22700
f 282 283 392 391
g Group32941
f 783 784 786 785
g Group32944
f 284 283 783 785
f 392 393 786 784
g Group22700
f 283 284 393 392
g Group32941
f 785 786 788 787
g Group32944
f 285 284 785 787
f 393 394 788 786
g Group22700
f 284 285 394 393
g Group32941
f 787 788 790 789
g Group32944
f 286 285 787 789
f 394 395 790 788
g Group22700
f 285 286 395 394
g Group32941
f 789 790 792 791
g Group32944
f 287 286 789 791
f 395 396 792 790
g Group22700
f 286 287 396 395
g Group32941
f 791 792 794 793
g Group32944
f 288 287 791 793
f 396 397 794 792
g Group22700
f 287 288 397 396
g Group32941
f 793 794 796 795
g Group32944
f 289 288 793 795
f 397 398 796 794
g Group22700
f 288 289 398 397
g Group32941
f 795 796 798 797
g Group32944
f 290 289 795 797
f 398 399 798 796
g Group22700
f 289 290 399 398
g Group32941
f 797 798 800 799
g Group32944
f 291 290 797 799
f 399 400 800 798
g Group22700
f 290 291 400 399
g Group32941
f 799 800 802 801
g Group32944
f 292 291 799 801
f 400 401 802 800
g Group22700
f 291 292 401 400
g Group32941
f 801 802 804 803
g Group32944
f 293 292 801 803
f 401 402 804 802
g Group22700
f 292 293 402 401
g Group32941
f 803 804 806 805
g Group32944
f 294 293 803 805
f 402 403 806 804
g Group22700
f 293 294 403 402
g Group32941
f 805 806 808 807
g Group32944
f 295 294 805 807
f 403 404 808 806
g Group22700
f 294 295 404 403
g Group32941
f 807 808 810 809
g Group32944
f 296 295 807 809
f 404 405 810 808
g Group22700
f 295 296 405 404
g Group32941
f 809 810 812 811
g Group32944
f 297 296 809 811
f 405 406 812 810
g Group22700
f 296 297 406 405
g Group32941
f 811 812 814 813
g Group32944
f 298 297 811 813
f 406 407 814 812
g Group22700
f 297 298 407 406
g Group32941
f 813 814 816 815
g Group32944
f 299 298 813 815
f 407 408 816 814
g Group22700
f 298 299 408 407
g Group32941
f 815 816 818 817
g Group32944
f 300 299 815 817
f 408 409 818 816
g Group22700
f 299 300 409 408
g Group32941
f 817 818 820 819
g Group32944
f 301 300 817 819
f 409 410 820 818
g Group22700
f 300 301 410 409
g Group32941
f 819 820 822 821
g Group32944
f 302 301 819 821
f 410 411 822 820
g Group22700
f 301 302 411 410
g Group32941
f 821 822 824 823
g Group32944
f 303 302 821 823
f 411 412 824 822
g Group22700
f 302 303 412 411
g Group32941
f 823 824 826 825
g Group32944
f 304 303 823 825
f 412 413 826 824
g Group22700
f 303 304 413 412
g Group32941
f 825 826 828 827
g Group32944
f 305 304 825 827
f 413 414 828 826
g Group22700
f 304 305 414 413
g Group32941
f 827 828 830 829
g Group32944
f 306 305 827 829
f 414 415 830 828
g Group22700
f 305 306 415 414
g Group32941
f 829 830 832 831
g Group32944
f 307 306 829 831
f 415 416 832 830
g Group22700
f 306 307 416 415
g Group32941
f 831 832 834 833
g Group32944
f 308 307 831 833
f 416 417 834 832
g Group22700
f 307 308 417 416
g Group32941
f 833 834 836 835
g Group32944
f 309 308 833 835
f 417 418 836 834
g Group22700
f 308 309 418 417
g Group32941
f 835 836 838 837
g Group32944
f 310 309 835 837
f 418 419 838 836
g Group22700
f 309 310 419 418
g Group32941
f 837 838 840 839
g Group32944
f 311 310 837 839
f 419 420 840 838
g Group22700
f 310 311 420 419
g Group32941
f 839 840 842 841
g Group32944
f 312 311 839 841
f 420 421 842 840
g Group22700
f 311 312 421 420
g Group32941
f 841 842 844 843
g Group32944
f 313 312 841 843
f 421 422 844 842
g Group22700
f 312 313 422 421
g Group32941
f 843 844 846 845
g Group32944
f 314 313 843 845
f 422 423 846 844
g Group22700
f 313 314 423 422
g Group32941
f 845 846 848 847
g Group32944
f 315 314 845 847
f 423 424 848 846
g Group22700
f 314 315 424 423
g Group32941
f 847 848 850 849
g Group32944
f 316 315 847 849
f 424 425 850 848
g Group22700
f 315 316 425 424
g Group32941
f 849 850 852 851
g Group32944
f 317 316 849 851
f 425 426 852 850
g Group22700
f 316 317 426 425
g Group32941
f 851 852 854 853
g Group32944
f 318 317 851 853
f 426 427 854 852
g Group22700
f 317 318 427 426
g Group32941
f 853 854 856 855
g Group32944
f 319 318 853 855
f 427 428 856 854
g Group22700
f 318 319 428 427
g Group32941
f 855 856 858 857
g Group32944
f 320 319 855 857
f 428 429 858 856
g Group22700
f 319 320 429 428
g Group32941
f 857 858 860 859
g Group32944
f 321 320 857 859
f 429 430 860 858
g Group22700
f 320 321 430 429
g Group32941
f 859 860 862 861
g Group32944
f 322 321 859 861
f 430 431 862 860
g Group22700
f 321 322 431 430
g Group32941
f 861 862 864 863
g Group32944
f 323 322 861 863
f 431 432 864 862
g Group22700
f 322 323 432 431
g Group32941
f 863 864 866 865
g Group32944
f 324 323 863 865
f 432 433 866 864
g Group22700
f 323 324 433 432
g Group32941
f 865 866 868 867
g Group32944
f 325 324 865 867
f 433 434 868 866
g Group22700
f 324 325 434 433
g Group32941
f 867 868 870 869
g Group32944
f 326 325 867 869
f 434 435 870 868
g Group22700
f 325 326 435 434
g Group32941
f 869 870 872 871
g Group32944
f 327 326 869 871
f 435 436 872 870
g Group22700
f 326 327 436 435
g Group32941
f 653 654 871 872
g Group32944
f 436 109 653 872
f 218 327 871 654
g Group22700
f 109 436 327 218

 