# File exported by ZBrush version 2021
# www.zbrush.com
#Vertex Count 204
#Face Count 202
#Auto scale x=1.000000 y=1.000000 z=1.000000
#Auto offset x=0.000000 y=0.000000 z=0.000000
v -1.96787905 -0.046519 0.18272
v -1.73036599 -0.2642 0.18272
v -1.57219302 0.450982 0.18272
v -1.51482105 -0.14227899 0.18272
v -0.93279397 -0.73542797 0.18272
v -1.44521796 -0.73927801 0.18272
v -1.70871305 -0.72724098 0.18272
v -2.03091788 -0.69852501 0.18272
v -2.39079308 -0.65564698 0.18272
v -2.72413706 -0.57354998 0.18272
v -2.1658771 0.141817 0.18272
v -2.38737011 0.338775 0.18272
v -1.64727997 0.75258398 0.18272
v -1.74752199 1.04360902 0.18272
v -0.91866099 1.12178897 0.18272
v -0.84954702 1.48670899 0.18272
v -0.97145199 0.752321 0.18272
v -1.05090296 -0.06477899 0.18272
v -0.30513298 1.19482994 0.18272
v -0.47489699 0.81022399 0.18272
v -0.73934 -0.046806 0.18272
v -0.60605698 -0.73277199 0.18272
v -0.086023 1.57446503 0.18272
v -1.604267 -1.11376404 0.18272
v -1.960644 -1.10448598 0.18272
v -0.44405201 -1.12864399 0.18272
v -0.786973 -1.12607801 0.18272
v -1.31730401 -1.12131595 0.18272
v -2.35390806 -1.09462094 0.18272
v -2.66850996 -1.10439002 0.18272
v -0.27181398 -1.13038802 0.18272
v -0.44681 -0.74649202 0.18272
v -0.58468198 -0.048888 0.18272
v -0.32708901 0.79882997 0.18272
v -0.14890299 1.19044494 0.18272
v 0.11258 1.57324194 0.18272
v -2.70194792 -1.30207395 0.18272
v -2.34935903 -1.300933 0.18272
v -1.92237198 -1.30126404 0.18272
v -1.53691101 -1.30319404 0.18272
v -1.23112499 -1.30220103 0.18272
v -0.64784401 -1.303864 0.18272
v -0.27037599 -1.30707597 0.18272
v -0.091334 -1.30785501 0.18272
v -2.69878006 -1.57170498 0.18272
v -2.34902691 -1.57057201 0.18272
v -1.92315197 -1.57090294 0.18272
v -1.53714799 -1.57283699 0.18272
v -1.23107099 -1.57184195 0.18272
v -0.64937597 -1.57350099 0.18272
v -0.27111101 -1.57446503 0.18272
v -0.09027999 -1.57375204 0.18272
v 0.64367801 -0.046519 0.18272
v 0.88119 -0.2642 0.18272
v 1.03936302 0.450982 0.18272
v 1.096735 -0.14227899 0.18272
v 1.67876398 -0.73542797 0.18272
v 1.16633796 -0.73927801 0.18272
v 0.90284401 -0.72724098 0.18272
v 0.58063799 -0.69852501 0.18272
v 0.22076299 -0.65564698 0.18272
v -0.112581 -0.57354998 0.18272
v 0.44567799 0.141817 0.18272
v 0.224186 0.338775 0.18272
v 0.96427601 0.75258398 0.18272
v 0.86403399 1.04360902 0.18272
v 1.692896 1.12178897 0.18272
v 1.76200997 1.48670899 0.18272
v 1.640105 0.752321 0.18272
v 1.56065499 -0.06477899 0.18272
v 2.30642509 1.19482994 0.18272
v 2.13666009 0.81022399 0.18272
v 1.87221705 -0.046806 0.18272
v 2.00550103 -0.73277199 0.18272
v 2.5255351 1.57446503 0.18272
v 1.00728905 -1.11376404 0.18272
v 0.65091198 -1.10448598 0.18272
v 2.16750598 -1.12864399 0.18272
v 1.82458496 -1.12607801 0.18272
v 1.29425299 -1.12131595 0.18272
v 0.257649 -1.09462094 0.18272
v -0.056954 -1.10439002 0.18272
v 2.33974409 -1.13038802 0.18272
v 2.16474795 -0.74649202 0.18272
v 2.02687406 -0.048888 0.18272
v 2.28446793 0.79882997 0.18272
v 2.46265506 1.19044494 0.18272
v 2.72413706 1.57324194 0.18272
v 2.516299 -1.573861 0.18272
v 0.26219698 -1.300933 0.18272
v 0.68918401 -1.30126404 0.18272
v 1.07464397 -1.30319404 0.18272
v 1.38043296 -1.30220103 0.18272
v 1.96371305 -1.303864 0.18272
v 2.34118104 -1.30707597 0.18272
v 2.51573491 -1.30654299 0.18272
v 0.26252898 -1.57057201 0.18272
v 0.68840402 -1.57090294 0.18272
v 1.07440805 -1.57283699 0.18272
v 1.38048601 -1.57184195 0.18272
v 1.96218097 -1.57350099 0.18272
v 2.34510397 -1.57439005 0.18272
v -0.60605698 -0.73277199 -0.18272
v -0.93279397 -0.73542797 -0.18272
v -1.05090296 -0.06477899 -0.18272
v -0.73934 -0.046806 -0.18272
v -2.03091788 -0.69852501 -0.18272
v -1.96787905 -0.046519 -0.18272
v -1.73036599 -0.2642 -0.18272
v -1.70871305 -0.72724098 -0.18272
v -0.97145199 0.752321 -0.18272
v -1.57219302 0.450982 -0.18272
v -1.64727997 0.75258398 -0.18272
v -0.91866099 1.12178897 -0.18272
v -2.39079308 -0.65564698 -0.18272
v -2.1658771 0.141817 -0.18272
v -0.84954702 1.48670899 -0.18272
v -0.086023 1.57446503 -0.18272
v -0.30513298 1.19482994 -0.18272
v -1.51482105 -0.14227899 -0.18272
v -1.44521796 -0.73927801 -0.18272
v -0.47489699 0.81022399 -0.18272
v -1.74752199 1.04360902 -0.18272
v -2.38737011 0.338775 -0.18272
v -2.72413706 -0.57354998 -0.18272
v -1.960644 -1.10448598 -0.18272
v -1.604267 -1.11376404 -0.18272
v -1.31730401 -1.12131595 -0.18272
v -0.786973 -1.12607801 -0.18272
v -2.35390806 -1.09462094 -0.18272
v -2.66850996 -1.10439002 -0.18272
v -0.44405201 -1.12864399 -0.18272
v 0.11258 1.57324194 -0.18272
v -0.14890299 1.19044494 -0.18272
v -0.32708901 0.79882997 -0.18272
v -0.58468198 -0.048888 -0.18272
v -0.44681 -0.74649202 -0.18272
v -0.27181398 -1.13038802 -0.18272
v -0.27037599 -1.30707597 -0.18272
v -0.64784401 -1.303864 -0.18272
v -1.23112499 -1.30220103 -0.18272
v -1.53691101 -1.30319404 -0.18272
v -1.92237198 -1.30126404 -0.18272
v -2.34935903 -1.300933 -0.18272
v -2.70194792 -1.30207395 -0.18272
v -0.27111101 -1.57446503 -0.18272
v -0.64937597 -1.57350099 -0.18272
v -1.23107099 -1.57184195 -0.18272
v -1.53714799 -1.57283699 -0.18272
v -1.92315197 -1.57090294 -0.18272
v -2.34902691 -1.57057201 -0.18272
v -2.69878006 -1.57170498 -0.18272
v 2.00550103 -0.73277199 -0.18272
v 1.67876398 -0.73542797 -0.18272
v 1.56065499 -0.06477899 -0.18272
v 1.87221705 -0.046806 -0.18272
v 0.58063799 -0.69852501 -0.18272
v 0.64367801 -0.046519 -0.18272
v 0.88119 -0.2642 -0.18272
v 0.90284401 -0.72724098 -0.18272
v 1.640105 0.752321 -0.18272
v 1.03936302 0.450982 -0.18272
v 0.96427601 0.75258398 -0.18272
v 1.692896 1.12178897 -0.18272
v 0.22076299 -0.65564698 -0.18272
v 0.44567799 0.141817 -0.18272
v 1.76200997 1.48670899 -0.18272
v 2.5255351 1.57446503 -0.18272
v 2.30642509 1.19482994 -0.18272
v 1.096735 -0.14227899 -0.18272
v 1.16633796 -0.73927801 -0.18272
v 2.13666009 0.81022399 -0.18272
v 0.86403399 1.04360902 -0.18272
v 0.224186 0.338775 -0.18272
v -0.112581 -0.57354998 -0.18272
v 0.65091198 -1.10448598 -0.18272
v 1.00728905 -1.11376404 -0.18272
v 1.29425299 -1.12131595 -0.18272
v 1.82458496 -1.12607801 -0.18272
v 0.257649 -1.09462094 -0.18272
v -0.056954 -1.10439002 -0.18272
v 2.16750598 -1.12864399 -0.18272
v 2.72413706 1.57324194 -0.18272
v 2.46265506 1.19044494 -0.18272
v 2.28446793 0.79882997 -0.18272
v 2.02687406 -0.048888 -0.18272
v 2.16474795 -0.74649202 -0.18272
v 2.33974409 -1.13038802 -0.18272
v 2.51573491 -1.30654299 -0.18272
v 2.34118104 -1.30707597 -0.18272
v 1.96371305 -1.303864 -0.18272
v 1.38043296 -1.30220103 -0.18272
v 1.07464397 -1.30319404 -0.18272
v 0.68918401 -1.30126404 -0.18272
v 0.26219698 -1.300933 -0.18272
v 2.516299 -1.573861 -0.18272
v 2.34510397 -1.57439005 -0.18272
v 1.96218097 -1.57350099 -0.18272
v 1.38048601 -1.57184195 -0.18272
v 1.07440805 -1.57283699 -0.18272
v 0.68840402 -1.57090294 -0.18272
v 0.26252898 -1.57057201 -0.18272
v -0.09027999 -1.57375204 -0.18272
v -0.091334 -1.30785501 -0.18272
g Group32941
f 106 105 104 103
g Group29583
f 21 22 5 18
g Group32941
f 110 109 108 107
g Group29583
f 7 8 1 2
g Group32941
f 114 113 112 111
g Group29583
f 15 17 3 13
g Group32941
f 107 108 116 115
g Group29583
f 8 9 11 1
g Group32941
f 114 119 118 117
g Group32944
f 23 16 117 118
g Group29583
f 15 16 23 19
g Group32941
f 109 120 112 108
g Group29583
f 2 1 3 4
g Group32941
f 121 120 109 110
g Group29583
f 6 7 2 4
g Group32941
f 119 114 111 122
g Group29583
f 19 20 17 15
g Group32941
f 105 120 121 104
g Group29583
f 18 5 6 4
g Group32941
f 122 111 105 106
g Group29583
f 20 21 18 17
g Group32941
f 113 116 108 112
g Group29583
f 13 3 1 11
g Group32941
f 124 116 113 123
g Group32944
f 14 12 124 123
g Group29583
f 12 14 13 11
g Group32941
f 123 113 114 117
g Group32944
f 16 14 123 117
g Group29583
f 14 16 15 13
g Group32941
f 125 115 116 124
g Group32944
f 12 10 125 124
g Group29583
f 10 12 11 9
g Group32941
f 111 112 120 105
g Group29583
f 17 18 4 3
g Group32941
f 127 110 107 126
g Group29583
f 24 25 8 7
g Group32941
f 129 104 121 128
g Group29583
f 27 28 6 5
g Group32941
f 126 107 115 130
g Group29583
f 25 29 9 8
g Group32941
f 128 121 110 127
g Group29583
f 28 24 7 6
g Group32941
f 130 115 125 131
g Group32944
f 10 30 131 125
g Group29583
f 29 30 10 9
g Group32941
f 104 129 132 103
g Group29583
f 5 22 26 27
g Group32941
f 118 119 134 133
g Group32944
f 36 23 118 133
f 35 36 133 134
g Group29583
f 23 36 35 19
g Group32941
f 119 122 135 134
g Group32944
f 34 35 134 135
g Group29583
f 19 35 34 20
g Group32941
f 122 106 136 135
g Group32944
f 33 34 135 136
g Group29583
f 20 34 33 21
g Group32941
f 106 103 137 136
g Group32944
f 32 33 136 137
g Group29583
f 21 33 32 22
g Group32941
f 103 132 138 137
g Group32944
f 31 32 137 138
g Group29583
f 22 32 31 26
g Group32941
f 132 129 140 139
g Group29583
f 26 43 42 27
g Group32941
f 129 128 141 140
g Group29583
f 27 42 41 28
g Group32941
f 128 127 142 141
g Group29583
f 28 41 40 24
g Group32941
f 127 126 143 142
g Group29583
f 24 40 39 25
g Group32941
f 126 130 144 143
g Group29583
f 25 39 38 29
g Group32941
f 130 131 145 144
g Group32944
f 30 37 145 131
g Group29583
f 29 38 37 30
g Group32941
f 139 140 147 146
g Group32944
f 50 51 146 147
g Group29583
f 43 51 50 42
g Group32941
f 140 141 148 147
g Group32944
f 49 50 147 148
g Group29583
f 42 50 49 41
g Group32941
f 141 142 149 148
g Group32944
f 48 49 148 149
g Group29583
f 41 49 48 40
g Group32941
f 142 143 150 149
g Group32944
f 47 48 149 150
g Group29583
f 40 48 47 39
g Group32941
f 143 144 151 150
g Group32944
f 46 47 150 151
g Group29583
f 39 47 46 38
g Group32941
f 144 145 152 151
g Group32944
f 45 46 151 152
f 37 45 152 145
g Group29583
f 38 46 45 37
g Group32941
f 156 155 154 153
g Group29583
f 73 74 57 70
g Group32941
f 160 159 158 157
g Group29583
f 59 60 53 54
g Group32941
f 164 163 162 161
g Group29583
f 67 69 55 65
g Group32941
f 157 158 166 165
g Group29583
f 60 61 63 53
g Group32941
f 164 169 168 167
g Group32944
f 75 68 167 168
g Group29583
f 67 68 75 71
g Group32941
f 159 170 162 158
g Group29583
f 54 53 55 56
g Group32941
f 171 170 159 160
g Group29583
f 58 59 54 56
g Group32941
f 169 164 161 172
g Group29583
f 71 72 69 67
g Group32941
f 155 170 171 154
g Group29583
f 70 57 58 56
g Group32941
f 172 161 155 156
g Group29583
f 72 73 70 69
g Group32941
f 163 166 158 162
g Group29583
f 65 55 53 63
g Group32941
f 174 166 163 173
g Group32944
f 66 64 174 173
g Group29583
f 64 66 65 63
g Group32941
f 173 163 164 167
g Group32944
f 68 66 173 167
g Group29583
f 66 68 67 65
g Group32941
f 175 165 166 174
g Group32944
f 64 62 175 174
g Group29583
f 62 64 63 61
g Group32941
f 161 162 170 155
g Group29583
f 69 70 56 55
g Group32941
f 177 160 157 176
g Group29583
f 76 77 60 59
g Group32941
f 179 154 171 178
g Group29583
f 79 80 58 57
g Group32941
f 176 157 165 180
g Group29583
f 77 81 61 60
g Group32941
f 178 171 160 177
g Group29583
f 80 76 59 58
g Group32941
f 180 165 175 181
g Group32944
f 62 82 181 175
g Group29583
f 81 82 62 61
g Group32941
f 154 179 182 153
g Group29583
f 57 74 78 79
g Group32941
f 168 169 184 183
g Group32944
f 88 75 168 183
f 87 88 183 184
g Group29583
f 75 88 87 71
g Group32941
f 169 172 185 184
g Group32944
f 86 87 184 185
g Group29583
f 71 87 86 72
g Group32941
f 172 156 186 185
g Group32944
f 85 86 185 186
g Group29583
f 72 86 85 73
g Group32941
f 156 153 187 186
g Group32944
f 84 85 186 187
g Group29583
f 73 85 84 74
g Group32941
f 153 182 188 187
g Group32944
f 83 84 187 188
g Group29583
f 74 84 83 78
g Group32941
f 188 182 190 189
g Group32944
f 96 83 188 189
g Group29583
f 83 96 95 78
g Group32941
f 182 179 191 190
g Group29583
f 78 95 94 79
g Group32941
f 179 178 192 191
g Group29583
f 79 94 93 80
g Group32941
f 178 177 193 192
g Group29583
f 80 93 92 76
g Group32941
f 177 176 194 193
g Group29583
f 76 92 91 77
g Group32941
f 176 180 195 194
g Group29583
f 77 91 90 81
g Group32941
f 189 190 197 196
g Group32944
f 89 96 189 196
f 102 89 196 197
g Group29583
f 96 89 102 95
g Group32941
f 190 191 198 197
g Group32944
f 101 102 197 198
g Group29583
f 95 102 101 94
g Group32941
f 191 192 199 198
g Group32944
f 100 101 198 199
g Group29583
f 94 101 100 93
g Group32941
f 192 193 200 199
g Group32944
f 99 100 199 200
g Group29583
f 93 100 99 92
g Group32941
f 193 194 201 200
g Group32944
f 98 99 200 201
g Group29583
f 92 99 98 91
g Group32941
f 194 195 202 201
g Group32944
f 97 98 201 202
g Group29583
f 91 98 97 90
g Group32941
f 204 203 202 195
g Group32944
f 52 97 202 203
g Group29583
f 44 90 97 52
g Group32941
f 180 181 204 195
g Group32944
f 82 44 204 181
g Group29583
f 81 90 44 82
g Group32941
f 138 132 139 204
g Group32944
f 44 31 138 204
g Group29583
f 31 44 43 26
g Group32941
f 139 146 203 204
g Group32944
f 51 52 203 146
g Group29583
f 43 44 52 51

 