# File exported by ZBrush version 2021
# www.zbrush.com
#Vertex Count 196
#Face Count 194
#Auto scale x=1.000000 y=1.000000 z=1.000000
#Auto offset x=0.000000 y=0.000000 z=0.000000
v 0.73270398 1.35013556 0.18341249
v 0.33750399 1.66226863 0.18341249
v 0.90922898 1.54970157 0.18341249
v 0.87109202 2.11158561 0.18341249
v 0.53572499 0.66807359 0.18317449
v 0.054572 0.68790662 0.18317548
v 0.155897 1.21140062 0.18341349
v 0.63207197 1.14078962 0.18341349
v 1.31369996 2.11158466 0.18341249
v 1.31369996 1.54970157 0.18341249
v 0.76186597 -1.00127244 0.18169949
v 0.25890499 -0.99976241 0.18170149
v 0.70533102 -0.58393639 0.18206949
v 0.20782199 -0.57784539 0.18206949
v 0.648795 -0.1665994 0.18243749
v 0.15673899 -0.1559274 0.18243849
v 0.59226 0.25073659 0.18280649
v 0.105655 0.26598858 0.18280649
v 0.21924699 -1.5880804 0.18103349
v 0.45840901 -1.97110235 0.18103349
v 0.003541 -2.11158561 0.18092949
v -0.006521 -1.68184542 0.18092949
v 0.80601501 -1.32716441 0.18141248
v 0.29889699 -1.33007037 0.18141248
v 0.70758599 -1.68654036 0.18129049
v 0.265809 -1.50269544 0.18118649
v 1.89791703 1.35013556 0.18341249
v 2.293118 1.66226863 0.18341249
v 1.72139298 1.54970157 0.18341249
v 1.75952994 2.11158561 0.18341249
v 2.09489703 0.66807359 0.18317449
v 2.57605099 0.68790662 0.18317548
v 2.474725 1.21140062 0.18341349
v 1.99855005 1.14078962 0.18341349
v 1.86875498 -1.00127244 0.18169949
v 2.37171697 -0.99976241 0.18170149
v 1.92529094 -0.58393639 0.18206949
v 2.42280006 -0.57784539 0.18206949
v 1.98182702 -0.1665994 0.18243749
v 2.47388291 -0.1559274 0.18243849
v 2.03836202 0.25073659 0.18280649
v 2.5249679 0.26598858 0.18280649
v 2.41137409 -1.5880804 0.18103349
v 2.17221307 -1.97110235 0.18103349
v 2.62707996 -2.11158561 0.18092949
v 2.63714289 -1.68184542 0.18092949
v 1.82460701 -1.32716441 0.18141248
v 2.33172488 -1.33007037 0.18141248
v 1.91332399 -1.68092739 0.18129049
v 2.36481308 -1.50269544 0.18118649
v -1.89791798 1.35013556 0.18341249
v -2.293118 1.66226863 0.18341249
v -1.72139298 1.54970157 0.18341249
v -1.75953102 2.11158561 0.18341249
v -2.09489703 0.66807359 0.18317449
v -2.57605004 0.68790662 0.18317548
v -2.47472596 1.21140062 0.18341349
v -1.99855101 1.14078962 0.18341349
v -1.31692004 2.11158466 0.18341249
v -1.31692004 1.54970157 0.18341249
v -1.86875605 -1.00127244 0.18169949
v -2.37171793 -0.99976241 0.18170149
v -1.92529201 -0.58393639 0.18206949
v -2.42280006 -0.57784539 0.18206949
v -1.98182797 -0.1665994 0.18243749
v -2.47388291 -0.1559274 0.18243849
v -2.03836202 0.25073659 0.18280649
v -2.52496695 0.26598858 0.18280649
v -2.41137409 -1.5880804 0.18103349
v -2.17221307 -1.97110235 0.18103349
v -2.62707901 -2.11158561 0.18092949
v -2.63714289 -1.68184542 0.18092949
v -1.82460796 -1.32716441 0.18141248
v -2.33172488 -1.33007037 0.18141248
v -1.92303705 -1.68654036 0.18129049
v -2.36481189 -1.50269544 0.18118649
v -0.73270499 1.35013556 0.18341249
v -0.33750501 1.66226863 0.18341249
v -0.90922999 1.54970157 0.18341249
v -0.87109297 2.11158561 0.18341249
v -0.53572601 0.66807359 0.18317449
v -0.05457299 0.68790662 0.18317548
v -0.155898 1.21140062 0.18341349
v -0.63207298 1.14078962 0.18341349
v -0.76186698 -1.00127244 0.18169949
v -0.258906 -0.99976241 0.18170149
v -0.70533198 -0.58393639 0.18206949
v -0.20782299 -0.57784539 0.18206949
v -0.64879602 -0.1665994 0.18243749
v -0.15673999 -0.1559274 0.18243849
v -0.59226101 0.25073659 0.18280649
v -0.10565599 0.26598858 0.18280649
v -0.21924899 -1.5880804 0.18103349
v -0.45840999 -1.97110235 0.18103349
v -0.80601602 -1.32716441 0.18141248
v -0.29889801 -1.33007037 0.18141248
v -0.71729898 -1.68092739 0.18129049
v -0.26581001 -1.50269544 0.18118649
v 0.73270398 1.35013556 -0.18093049
v 0.33750399 1.66226863 -0.18093049
v 0.87109202 2.11158561 -0.18093049
v 0.90922898 1.54970157 -0.18093049
v 0.632079 1.14087462 -0.18092951
v 0.15590499 1.21148562 -0.18092951
v 0.53573799 0.66831958 -0.18116849
v 0.05458499 0.68815261 -0.18116751
v 1.31369996 1.54970157 -0.18093049
v 1.31369996 2.11158466 -0.18093049
v 0.25890499 -0.99944239 -0.18264251
v 0.207825 -0.57752442 -0.18227452
v 0.705334 -0.58361542 -0.18227452
v 0.76186698 -1.00095236 -0.1826435
v 0.156745 -0.1556064 -0.18190449
v 0.64880198 -0.1662784 -0.1819055
v 0.105664 0.2663106 -0.18153649
v 0.59227001 0.2510586 -0.18153649
v 0.00354 -2.11155462 -0.1834135
v -0.006522 -1.68181538 -0.1834135
v 0.21941499 -1.58795738 -0.18330949
v 0.458577 -1.97097837 -0.18330949
v 0.29893699 -1.32980144 -0.18293049
v 0.806055 -1.32689535 -0.18293049
v 0.26596701 -1.50247836 -0.18315652
v 0.707744 -1.6863234 -0.18305251
v 1.75952994 2.11158561 -0.18093049
v 2.293118 1.66226863 -0.18093049
v 1.89791798 1.35013556 -0.18093049
v 1.72139298 1.54970157 -0.18093049
v 1.99854195 1.14087462 -0.18092951
v 2.4747169 1.21148562 -0.18092951
v 2.57603693 0.68815261 -0.18116751
v 2.09488391 0.66831958 -0.18116849
v 1.925287 -0.58361542 -0.18227452
v 2.42279601 -0.57752442 -0.18227452
v 2.37171697 -0.99944239 -0.18264251
v 1.86875402 -1.00095236 -0.1826435
v 1.98182094 -0.1662784 -0.1819055
v 2.47387695 -0.1556064 -0.18190449
v 2.03835201 0.2510586 -0.18153649
v 2.52495789 0.2663106 -0.18153649
v 2.41121006 -1.58795845 -0.18330949
v 2.63704204 -1.68181443 -0.1834135
v 2.62697792 -2.11155462 -0.1834135
v 2.17204904 -1.9709804 -0.18330949
v 2.33168602 -1.32979941 -0.18293049
v 1.82456696 -1.32689344 -0.18293049
v 2.36465907 -1.50247836 -0.18315652
v 1.91316998 -1.68071043 -0.18305251
v -1.89791905 1.35013556 -0.18093049
v -2.293118 1.66226863 -0.18093049
v -1.75953102 2.11158561 -0.18093049
v -1.72139298 1.54970157 -0.18093049
v -1.99854302 1.14087462 -0.18092951
v -2.47471809 1.21148562 -0.18092951
v -2.09488391 0.66831958 -0.18116849
v -2.57603693 0.68815261 -0.18116751
v -1.31692004 1.54970157 -0.18093049
v -1.31692004 2.11158466 -0.18093049
v -2.37171793 -0.99944239 -0.18264251
v -2.42279601 -0.57752442 -0.18227452
v -1.92528796 -0.58361542 -0.18227452
v -1.86875605 -1.00095236 -0.1826435
v -2.47387599 -0.1556064 -0.18190449
v -1.98182094 -0.1662784 -0.1819055
v -2.52495789 0.2663106 -0.18153649
v -2.03835201 0.2510586 -0.18153649
v -2.62697792 -2.11155462 -0.1834135
v -2.63704109 -1.68181443 -0.1834135
v -2.411206 -1.58795738 -0.18330949
v -2.17204499 -1.97097837 -0.18330949
v -2.33168506 -1.32980144 -0.18293049
v -1.82456803 -1.32689535 -0.18293049
v -2.36465406 -1.50247836 -0.18315652
v -1.92287802 -1.6863234 -0.18305251
v -0.87109297 2.11158561 -0.18093049
v -0.33750501 1.66226863 -0.18093049
v -0.73270499 1.35013556 -0.18093049
v -0.90922999 1.54970157 -0.18093049
v -0.63208097 1.14087462 -0.18092951
v -0.155906 1.21148562 -0.18092951
v -0.05458699 0.68815261 -0.18116751
v -0.535739 0.66831958 -0.18116849
v -0.70533502 -0.58361542 -0.1822735
v -0.207826 -0.57752442 -0.1822735
v -0.258906 -0.99944239 -0.18264251
v -0.761868 -1.00095236 -0.1826435
v -0.64880299 -0.1662784 -0.1819055
v -0.156746 -0.1556064 -0.18190449
v -0.59227097 0.2510586 -0.18153649
v -0.10566599 0.2663106 -0.18153649
v -0.29893699 -1.32979941 -0.18293049
v -0.80605602 -1.32689344 -0.18293049
v -0.265964 -1.50247836 -0.18315652
v -0.21941399 -1.58796036 -0.18330949
v -0.45857501 -1.97098135 -0.18330949
v -0.717453 -1.68071043 -0.18305251
g Group32941
f 102 101 100 99
g Group32944
f 1 3 102 99
f 4 2 100 101
g Group4027
f 3 1 2 4
g Group32941
f 104 103 99 100
g Group32944
f 2 7 104 100
f 8 1 99 103
g Group4027
f 7 2 1 8
g Group32941
f 103 104 106 105
g Group32944
f 5 8 103 105
f 7 6 106 104
g Group4027
f 8 5 6 7
g Group32941
f 108 101 102 107
g Group32944
f 3 10 107 102
f 9 4 101 108
g Group4027
f 9 10 3 4
g Group32941
f 112 111 110 109
g Group32944
f 14 12 109 110
f 11 13 111 112
g Group4027
f 11 12 14 13
g Group32941
f 111 114 113 110
g Group32944
f 16 14 110 113
f 13 15 114 111
g Group4027
f 13 14 16 15
g Group32941
f 114 116 115 113
g Group32944
f 18 16 113 115
f 15 17 116 114
g Group4027
f 15 16 18 17
g Group32941
f 116 105 106 115
g Group32944
f 6 18 115 106
f 17 5 105 116
g Group4027
f 17 18 6 5
g Group32941
f 120 119 118 117
g Group32944
f 21 20 120 117
f 19 22 118 119
g Group4027
f 20 21 22 19
g Group32941
f 122 112 109 121
g Group32944
f 12 24 121 109
f 23 11 112 122
g Group4027
f 23 24 12 11
g Group32941
f 124 123 119 120
g Group32944
f 20 25 124 120
f 26 19 119 123
g Group4027
f 25 20 19 26
g Group32941
f 122 121 123 124
g Group32944
f 25 23 122 124
f 24 26 123 121
g Group4027
f 23 25 26 24
g Group32941
f 128 127 126 125
g Group32944
f 28 30 125 126
f 29 27 127 128
g Group4027
f 29 30 28 27
g Group32941
f 130 126 127 129
g Group32944
f 27 34 129 127
f 33 28 126 130
g Group4027
f 33 34 27 28
g Group32941
f 129 132 131 130
g Group32944
f 32 33 130 131
f 34 31 132 129
g Group4027
f 34 33 32 31
g Group32941
f 136 135 134 133
g Group32944
f 37 35 136 133
f 36 38 134 135
g Group4027
f 35 37 38 36
g Group32941
f 133 134 138 137
g Group32944
f 39 37 133 137
f 38 40 138 134
g Group4027
f 37 39 40 38
g Group32941
f 137 138 140 139
g Group32944
f 41 39 137 139
f 40 42 140 138
g Group4027
f 39 41 42 40
g Group32941
f 139 140 131 132
g Group32944
f 31 41 139 132
f 42 32 131 140
g Group4027
f 41 31 32 42
g Group32941
f 144 143 142 141
g Group32944
f 46 43 141 142
f 45 46 142 143
f 44 45 143 144
g Group4027
f 44 43 46 45
g Group32941
f 146 145 135 136
g Group32944
f 35 47 146 136
f 48 36 135 145
g Group4027
f 47 35 36 48
g Group32941
f 148 144 141 147
g Group32944
f 43 50 147 141
f 49 44 144 148
g Group4027
f 49 50 43 44
g Group32941
f 146 148 147 145
g Group32944
f 50 48 145 147
f 47 49 148 146
g Group4027
f 47 48 50 49
g Group32941
f 128 125 108 107
g Group32944
f 10 29 128 107
f 30 9 108 125
g Group4027
f 29 10 9 30
g Group32941
f 152 151 150 149
g Group32944
f 51 53 152 149
f 54 52 150 151
g Group4027
f 53 51 52 54
g Group32941
f 154 153 149 150
g Group32944
f 52 57 154 150
f 58 51 149 153
g Group4027
f 57 52 51 58
g Group32941
f 153 154 156 155
g Group32944
f 55 58 153 155
f 57 56 156 154
g Group4027
f 58 55 56 57
g Group32941
f 158 151 152 157
g Group32944
f 53 60 157 152
f 59 54 151 158
g Group4027
f 59 60 53 54
g Group32941
f 162 161 160 159
g Group32944
f 64 62 159 160
f 61 63 161 162
g Group4027
f 61 62 64 63
g Group32941
f 161 164 163 160
g Group32944
f 66 64 160 163
f 63 65 164 161
g Group4027
f 63 64 66 65
g Group32941
f 164 166 165 163
g Group32944
f 68 66 163 165
f 65 67 166 164
g Group4027
f 65 66 68 67
g Group32941
f 166 155 156 165
g Group32944
f 56 68 165 156
f 67 55 155 166
g Group4027
f 67 68 56 55
g Group32941
f 170 169 168 167
g Group32944
f 71 70 170 167
f 72 71 167 168
f 69 72 168 169
g Group4027
f 70 71 72 69
g Group32941
f 172 162 159 171
g Group32944
f 62 74 171 159
f 73 61 162 172
g Group4027
f 73 74 62 61
g Group32941
f 174 173 169 170
g Group32944
f 70 75 174 170
f 76 69 169 173
g Group4027
f 75 70 69 76
g Group32941
f 172 171 173 174
g Group32944
f 75 73 172 174
f 74 76 173 171
g Group4027
f 73 75 76 74
g Group32941
f 178 177 176 175
g Group32944
f 78 80 175 176
f 79 77 177 178
g Group4027
f 79 80 78 77
g Group32941
f 180 176 177 179
g Group32944
f 77 84 179 177
f 83 78 176 180
g Group4027
f 83 84 77 78
g Group32941
f 179 182 181 180
g Group32944
f 82 83 180 181
f 84 81 182 179
g Group4027
f 84 83 82 81
g Group32941
f 186 185 184 183
g Group32944
f 87 85 186 183
f 86 88 184 185
g Group4027
f 85 87 88 86
g Group32941
f 183 184 188 187
g Group32944
f 89 87 183 187
f 88 90 188 184
g Group4027
f 87 89 90 88
g Group32941
f 187 188 190 189
g Group32944
f 91 89 187 189
f 90 92 190 188
g Group4027
f 89 91 92 90
g Group32941
f 189 190 181 182
g Group32944
f 81 91 189 182
f 92 82 181 190
g Group4027
f 91 81 82 92
g Group32941
f 192 191 185 186
g Group32944
f 85 95 192 186
f 96 86 185 191
g Group4027
f 95 85 86 96
g Group32941
f 196 195 194 193
g Group32944
f 93 98 193 194
f 97 94 195 196
g Group4027
f 97 98 93 94
g Group32941
f 192 196 193 191
g Group32944
f 98 96 191 193
f 95 97 196 192
g Group4027
f 95 96 98 97
g Group32941
f 178 175 158 157
g Group32944
f 60 79 178 157
f 80 59 158 175
g Group4027
f 79 60 59 80
g Group32941
f 194 195 117 118
g Group32944
f 22 93 194 118
f 94 21 117 195
g Group4027
f 93 22 21 94

 