# File exported by ZBrush version 2021
# www.zbrush.com
#Vertex Count 312
#Face Count 312
#Auto scale x=1.000000 y=1.000000 z=1.000000
#Auto offset x=0.000000 y=0.000000 z=0.000000
v 1.63893997 -0.187656 0.0763
v 1.57920599 -0.112812 0.0763
v 1.59522604 -0.258942 0.0763
v 1.50906598 -0.165141 0.0763
v 1.98447203 -0.25220203 0.075711
v 2.13671493 -0.197636 0.075958
v 1.82439696 -0.27064698 0.075463
v 1.83508002 -0.354559 0.075554
v 2.41324806 -0.063978 0.076561
v 2.2908709 -0.190847 0.07631
v 2.15514707 -0.27465802 0.076058
v 1.99706602 -0.33201903 0.075806
v 2.38216209 0.01308999 0.076453
v 2.26542091 -0.11394 0.076206
v 1.71140897 -0.32319003 0.075927
v 1.72906398 -0.243087 0.075881
v 2.566926 0.10001299 0.076151
v 2.54211306 0.16778799 0.076268
v 2.45826196 0.09954999 0.076357
v 2.50269198 0.04290599 0.076353
v 2.75597405 -0.187656 0.0763
v 2.6962409 -0.112812 0.0763
v 2.71226 -0.258942 0.0763
v 2.62610197 -0.165141 0.0763
v 2.575001 -0.034716 0.0763
v 2.66261696 -0.011792 0.0763
v 2.828444 -0.32319003 0.075927
v 2.84610104 -0.243087 0.075881
v 2.63397693 0.23032298 0.077122
v 2.65352892 0.15862299 0.076733
v 2.80154609 0.29936701 0.07721
v 2.81532788 0.21994799 0.077111
v 2.91888403 0.31782001 0.077802
v 2.92066311 0.23547799 0.077662
v 1.35810697 0.18758998 0.0763
v 1.41783905 0.11274599 0.0763
v 1.40181994 0.25887596 0.0763
v 1.48798203 0.16507498 0.0763
v 1.01257395 0.25213599 0.075711
v 0.86033099 0.19756999 0.075958
v 1.17264795 0.27058297 0.075463
v 1.16196596 0.35449302 0.075554
v 0.583799 0.06391199 0.076561
v 0.70617401 0.19078099 0.07631
v 0.84189897 0.27459198 0.076058
v 0.99997997 0.33195298 0.075806
v 0.61488401 -0.013156 0.076453
v 0.73162502 0.11387399 0.076206
v 1.28563702 0.32312399 0.075927
v 1.26798105 0.24302099 0.075881
v 0.430119 -0.100078 0.076151
v 0.454932 -0.16785401 0.076268
v 0.53878498 -0.099616 0.076357
v 0.49435499 -0.042972 0.076353
v 0.241071 0.18758998 0.0763
v 0.30080398 0.11274599 0.0763
v 0.28478398 0.25887596 0.0763
v 0.37094301 0.16507498 0.0763
v 0.42204499 0.03464999 0.0763
v 0.33442699 0.01172599 0.0763
v 0.16859999 0.32312297 0.075927
v 0.15094499 0.24302099 0.075881
v 0.36306801 -0.230388 0.077122
v 0.343517 -0.158689 0.076733
v 0.195499 -0.29943299 0.07721
v 0.18171699 -0.220014 0.077111
v 0.078162 -0.31788599 0.077802
v 0.07638099 -0.23554301 0.077662
v 1.54300499 0.00661099 0.0763
v 1.45538902 -0.016313 0.0763
v 2.9611721 -0.26792299 0.075463
v 2.96270394 -0.35671103 0.075554
v 2.96220803 0.31782001 0.077802
v 2.96220803 0.23547799 0.077662
v 0.061925 0.26189398 0.075564
v 0.06732899 0.34859597 0.075643
v -1.63893795 -0.187656 0.0763
v -1.57920396 -0.112812 0.0763
v -1.59522604 -0.258942 0.0763
v -1.50906503 -0.165141 0.0763
v -1.98447001 -0.25220203 0.075711
v -2.13671302 -0.197636 0.075958
v -1.82439601 -0.27064698 0.075463
v -1.835078 -0.354559 0.075554
v -2.41324591 -0.063978 0.076561
v -2.29086899 -0.190847 0.07631
v -2.15514588 -0.27465802 0.076058
v -1.99706494 -0.33201903 0.075806
v -2.3821609 0.01308999 0.076453
v -2.26541996 -0.11394 0.076206
v -1.71140694 -0.32319003 0.075927
v -1.72906196 -0.243087 0.075881
v -2.56692504 0.10001299 0.076151
v -2.54211211 0.16778799 0.076268
v -2.45826005 0.09954999 0.076357
v -2.50269007 0.04290599 0.076353
v -2.75597405 -0.187656 0.0763
v -2.6962409 -0.112812 0.0763
v -2.71226 -0.258942 0.0763
v -2.62610197 -0.165141 0.0763
v -2.57500004 -0.034716 0.0763
v -2.66261601 -0.011792 0.0763
v -2.82844305 -0.32319003 0.075927
v -2.84610104 -0.243087 0.075881
v -2.63397693 0.23032298 0.077122
v -2.65352797 0.15862299 0.076733
v -2.80154609 0.29936701 0.07721
v -2.81532788 0.21994799 0.077111
v -2.91888403 0.31782001 0.077802
v -2.92066311 0.23547799 0.077662
v -1.35810601 0.18758998 0.0763
v -1.41783702 0.11274599 0.0763
v -1.40181803 0.25887596 0.0763
v -1.48798 0.16507498 0.0763
v -1.012573 0.25213599 0.075711
v -0.86032998 0.19756999 0.075958
v -1.17264699 0.27058297 0.075463
v -1.16196501 0.35449302 0.075554
v -0.58379799 0.06391199 0.076561
v -0.706173 0.19078099 0.07631
v -0.84189802 0.27459198 0.076058
v -0.999978 0.33195298 0.075806
v -0.614883 -0.013156 0.076453
v -0.731624 0.11387399 0.076206
v -1.28563499 0.32312399 0.075927
v -1.26797902 0.24302099 0.075881
v -0.43011799 -0.100078 0.076151
v -0.45493099 -0.16785401 0.076268
v -0.53878301 -0.099616 0.076357
v -0.49435401 -0.042972 0.076353
v -0.241069 0.18758998 0.0763
v -0.300803 0.11274599 0.0763
v -0.28478199 0.25887596 0.0763
v -0.37094199 0.16507498 0.0763
v -0.422044 0.03464999 0.0763
v -0.33442598 0.01172599 0.0763
v -0.16859899 0.32312297 0.075927
v -0.15094299 0.24302099 0.075881
v -0.363067 -0.230388 0.077122
v -0.343515 -0.158689 0.076733
v -0.195498 -0.29943299 0.07721
v -0.18171499 -0.220014 0.077111
v 0.003665 -0.235456 0.077659
v 0.001791 -0.31794297 0.077805
v -0.07816 -0.31788599 0.077802
v -0.07638 -0.23554301 0.077662
v -1.54300403 0.00661099 0.0763
v -1.45538699 -0.016313 0.0763
v -2.9611721 -0.26792299 0.075463
v -2.96270394 -0.35671103 0.075554
v -2.96220898 0.31782001 0.077802
v -2.96220898 0.23547799 0.077662
v 0.002066 0.35664498 0.075554
v 0.002066 0.26785701 0.075463
v -0.06192399 0.26189398 0.075564
v -0.06732799 0.34859597 0.075643
v 1.72852397 -0.24306 -0.07738599
v 1.71087002 -0.32316303 -0.07733999
v 1.59497797 -0.25886398 -0.07696799
v 1.63869094 -0.187578 -0.07696799
v 1.824234 -0.27076798 -0.07780499
v 1.83491694 -0.35467898 -0.07771399
v 2.45807409 0.09945999 -0.076911
v 2.50250411 0.04281599 -0.07691499
v 2.41339993 -0.064096 -0.07670599
v 2.38231396 0.01297299 -0.07681399
v 1.98474705 -0.25233697 -0.07755699
v 1.99734103 -0.33215403 -0.07746098
v 2.65391397 0.15910498 -0.07653398
v 2.6343379 0.23096399 -0.07614399
v 2.80192589 0.299766 -0.076057
v 2.81570911 0.220348 -0.07615599
v 2.54232001 0.16817198 -0.07699999
v 2.56720805 0.10032599 -0.07711699
v 2.29124403 -0.190931 -0.076957
v 2.26579308 -0.114025 -0.07706099
v 1.50906598 -0.165141 -0.07696799
v 1.57920599 -0.112812 -0.07696799
v 2.15547204 -0.27477502 -0.07720999
v 2.13703894 -0.19775301 -0.07730899
v 1.45538902 -0.016313 -0.07696799
v 1.54300499 0.00661099 -0.07696799
v 2.84559989 -0.24304699 -0.07738599
v 2.82794308 -0.32314997 -0.07733999
v 2.71201109 -0.25886398 -0.07696799
v 2.7557249 -0.187578 -0.07696799
v 0.19511899 -0.29983198 -0.076057
v 0.07779099 -0.31816798 -0.07546499
v 0.076011 -0.235825 -0.07560499
v 0.181336 -0.22041401 -0.07615599
v 2.62610197 -0.165141 -0.07696799
v 2.6962409 -0.112812 -0.07696799
v 2.57521796 -0.034632 -0.07696799
v 2.66283297 -0.011708 -0.07696799
v 2.91925406 0.31809997 -0.07546499
v 2.92103409 0.23575799 -0.07560499
v 1.26851999 0.24299399 -0.07738599
v 1.28617596 0.32309699 -0.07733999
v 1.40206897 0.258798 -0.07696799
v 1.35835599 0.18751199 -0.07696799
v 1.17281103 0.27070301 -0.07780499
v 1.16212904 0.354613 -0.07771399
v 0.53897297 -0.099526 -0.076911
v 0.49454399 -0.042882 -0.07691499
v 0.58364701 0.06402999 -0.07670599
v 0.61473202 -0.013039 -0.07681399
v 1.01229894 0.25227099 -0.07755699
v 0.99970501 0.33208799 -0.07746098
v 0.343131 -0.159171 -0.07653398
v 0.36270698 -0.231029 -0.07614399
v 0.45472499 -0.16823799 -0.07699999
v 0.42983698 -0.10039001 -0.07711699
v 0.70580101 0.19086499 -0.076957
v 0.73125201 0.11395899 -0.07706099
v 1.48798203 0.16507498 -0.07696799
v 1.41783905 0.11274599 -0.07696799
v 0.84157502 0.27470898 -0.07720999
v 0.86000597 0.197687 -0.07730899
v 0.15144099 0.24296599 -0.07738599
v 0.169097 0.32306897 -0.07733999
v 0.285032 0.258798 -0.07696799
v 0.24131999 0.18751199 -0.07696799
v 0.33421099 0.01164199 -0.07696799
v 0.421828 0.03456599 -0.07696799
v 0.37094301 0.16507498 -0.07696799
v 0.30080398 0.11274599 -0.07696799
v 0.062297 0.26198798 -0.07770399
v 0.06770099 0.34868997 -0.07762399
v 2.96066808 -0.26799899 -0.077803
v 2.96220111 -0.35678601 -0.07771299
v 2.96220803 0.31808102 -0.07546499
v 2.96220803 0.23573899 -0.07560499
v -1.59497702 -0.25886398 -0.07696799
v -1.710868 -0.32316303 -0.07733999
v -1.72852301 -0.24306 -0.07738599
v -1.63868904 -0.187578 -0.07696799
v -1.83491504 -0.35467898 -0.07771399
v -1.82423305 -0.27076798 -0.07780499
v -2.41339802 -0.064096 -0.07670599
v -2.50250196 0.04281599 -0.07691499
v -2.45807194 0.09945999 -0.076911
v -2.38231301 0.01297299 -0.07681399
v -1.99733901 -0.33215403 -0.07746098
v -1.98474502 -0.25233697 -0.07755699
v -2.80192589 0.299766 -0.076057
v -2.6343379 0.23096399 -0.07614399
v -2.65391302 0.15910498 -0.07653398
v -2.81570911 0.220348 -0.07615599
v -2.56720709 0.10032599 -0.07711699
v -2.54231905 0.16817198 -0.07699999
v -2.29124188 -0.190931 -0.076957
v -2.26579308 -0.114025 -0.07706099
v -1.57920396 -0.112812 -0.07696799
v -1.50906503 -0.165141 -0.07696799
v -2.15546989 -0.27477502 -0.07720999
v -2.13703703 -0.19775301 -0.07730899
v -1.54300403 0.00661099 -0.07696799
v -1.45538699 -0.016313 -0.07696799
v -2.71201109 -0.25886398 -0.07696799
v -2.82794189 -0.32314997 -0.07733999
v -2.84559989 -0.24304699 -0.07738599
v -2.7557249 -0.187578 -0.07696799
v -0.07601 -0.235825 -0.07560499
v -0.07779 -0.31816798 -0.07546499
v -0.19511799 -0.29983198 -0.076057
v -0.181335 -0.22041401 -0.07615599
v -2.6962409 -0.112812 -0.07696799
v -2.62610197 -0.165141 -0.07696799
v -2.66283297 -0.011708 -0.07696799
v -2.575217 -0.034632 -0.07696799
v -2.92103409 0.23575799 -0.07560499
v -2.91925501 0.31809997 -0.07546499
v -1.40206694 0.258798 -0.07696799
v -1.28617405 0.32309699 -0.07733999
v -1.26851904 0.24299399 -0.07738599
v -1.35835504 0.18751199 -0.07696799
v -1.16212797 0.354613 -0.07771399
v -1.17280995 0.27070301 -0.07780499
v -0.58364599 0.06402999 -0.07670599
v -0.494542 -0.042882 -0.07691499
v -0.53897202 -0.099526 -0.076911
v -0.61473 -0.013039 -0.07681399
v -0.99970299 0.33208799 -0.07746098
v -1.01229798 0.25227099 -0.07755699
v -0.362706 -0.231029 -0.07614399
v -0.34312999 -0.159171 -0.07653398
v -0.429836 -0.10039001 -0.07711699
v -0.45472401 -0.16823799 -0.07699999
v -0.70580101 0.19086499 -0.076957
v -0.731251 0.11395899 -0.07706099
v -1.41783702 0.11274599 -0.07696799
v -1.48798 0.16507498 -0.07696799
v -0.841573 0.27470898 -0.07720999
v -0.86000502 0.197687 -0.07730899
v -0.28503099 0.258798 -0.07696799
v -0.16909499 0.32306897 -0.07733999
v -0.15143899 0.24296599 -0.07738599
v -0.241318 0.18751199 -0.07696799
v -0.42182698 0.03456599 -0.07696799
v -0.33420899 0.01164199 -0.07696799
v -0.300803 0.11274599 -0.07696799
v -0.37094199 0.16507498 -0.07696799
v 0.003665 -0.235722 -0.075608
v 0.001791 -0.31820797 -0.07546299
v -0.06769199 0.34868997 -0.07762399
v -0.062288 0.26198798 -0.07770399
v -2.96220111 -0.35678601 -0.07771299
v -2.96066808 -0.26799899 -0.077803
v -2.96220898 0.23573899 -0.07560499
v -2.96220898 0.31808102 -0.07546499
v 0.002073 0.35678601 -0.07771399
v 0.002074 0.26799798 -0.07780399
g Group32941
f 160 159 158 157
g Group32944
f 16 1 160 157
f 3 15 158 159
g Group46924
f 1 16 15 3
g Group32941
f 157 158 162 161
g Group32944
f 7 16 157 161
f 15 8 162 158
g Group46924
f 16 7 8 15
g Group32941
f 166 165 164 163
g Group32944
f 19 13 166 163
f 9 20 164 165
g Group46924
f 13 19 20 9
g Group32941
f 161 162 168 167
g Group32944
f 5 7 161 167
f 8 12 168 162
g Group46924
f 7 5 12 8
g Group32941
f 172 171 170 169
g Group32944
f 30 32 172 169
f 31 29 170 171
g Group46924
f 32 30 29 31
g Group32941
f 163 164 174 173
g Group32944
f 18 19 163 173
f 20 17 174 164
g Group46924
f 19 18 17 20
g Group32941
f 176 175 165 166
g Group32944
f 13 14 176 166
f 10 9 165 175
g Group46924
f 14 13 9 10
g Group32941
f 169 170 173 174
g Group32944
f 29 18 173 170
g Group46924
f 30 17 18 29
g Group32941
f 159 160 178 177
g Group32944
f 4 3 159 177
f 1 2 178 160
g Group46924
f 3 4 2 1
g Group32941
f 180 179 175 176
g Group32944
f 14 6 180 176
f 11 10 175 179
g Group46924
f 6 14 10 11
g Group32941
f 177 178 182 181
g Group32944
f 70 4 177 181
f 2 69 182 178
g Group46924
f 4 70 69 2
g Group32941
f 167 168 179 180
g Group32944
f 6 5 167 180
f 12 11 179 168
g Group46924
f 5 6 11 12
g Group32941
f 186 185 184 183
g Group32944
f 28 21 186 183
f 23 27 184 185
g Group46924
f 21 28 27 23
g Group32941
f 190 189 188 187
g Group32944
f 67 65 187 188
f 66 68 189 190
g Group46924
f 66 65 67 68
g Group32941
f 185 186 192 191
g Group32944
f 24 23 185 191
f 21 22 192 186
g Group46924
f 23 24 22 21
g Group32941
f 191 192 194 193
g Group32944
f 25 24 191 193
f 22 26 194 192
g Group46924
f 24 25 26 22
g Group32941
f 169 174 193 194
g Group32944
f 26 30 169 194
f 17 25 193 174
g Group46924
f 30 26 25 17
g Group32941
f 172 196 195 171
g Group32944
f 33 31 171 195
f 32 34 196 172
g Group46924
f 32 31 33 34
g Group32941
f 200 199 198 197
g Group32944
f 50 35 200 197
f 37 49 198 199
g Group46924
f 35 50 49 37
g Group32941
f 197 198 202 201
g Group32944
f 41 50 197 201
f 49 42 202 198
g Group46924
f 50 41 42 49
g Group32941
f 206 205 204 203
g Group32944
f 53 47 206 203
f 43 54 204 205
g Group46924
f 47 53 54 43
g Group32941
f 201 202 208 207
g Group32944
f 39 41 201 207
f 42 46 208 202
g Group46924
f 41 39 46 42
g Group32941
f 190 187 210 209
g Group32944
f 64 66 190 209
f 65 63 210 187
g Group46924
f 66 64 63 65
g Group32941
f 203 204 212 211
g Group32944
f 52 53 203 211
f 54 51 212 204
g Group46924
f 53 52 51 54
g Group32941
f 214 213 205 206
g Group32944
f 47 48 214 206
f 44 43 205 213
g Group46924
f 48 47 43 44
g Group32941
f 209 210 211 212
g Group32944
f 63 52 211 210
g Group46924
f 64 51 52 63
g Group32941
f 199 200 216 215
g Group32944
f 38 37 199 215
f 35 36 216 200
g Group46924
f 37 38 36 35
g Group32941
f 218 217 213 214
g Group32944
f 48 40 218 214
f 45 44 213 217
g Group46924
f 40 48 44 45
g Group32941
f 215 216 181 182
g Group32944
f 69 38 215 182
f 36 70 181 216
g Group46924
f 38 69 70 36
g Group32941
f 207 208 217 218
g Group32944
f 40 39 207 218
f 46 45 217 208
g Group46924
f 39 40 45 46
g Group32941
f 222 221 220 219
g Group32944
f 62 55 222 219
f 57 61 220 221
g Group46924
f 55 62 61 57
g Group32941
f 209 212 224 223
g Group32944
f 60 64 209 223
f 51 59 224 212
g Group46924
f 64 60 59 51
g Group32941
f 221 222 226 225
g Group32944
f 58 57 221 225
f 55 56 226 222
g Group46924
f 57 58 56 55
g Group32941
f 225 226 223 224
g Group32944
f 59 58 225 224
f 56 60 223 226
g Group46924
f 58 59 60 56
g Group32941
f 220 228 227 219
g Group32944
f 75 62 219 227
f 61 76 228 220
g Group46924
f 61 62 75 76
g Group32941
f 184 230 229 183
g Group32944
f 71 28 183 229
f 72 71 229 230
f 27 72 230 184
g Group46924
f 27 28 71 72
g Group32941
f 195 196 232 231
g Group32944
f 73 33 195 231
f 74 73 231 232
f 34 74 232 196
g Group46924
f 33 73 74 34
g Group32941
f 236 235 234 233
g Group32944
f 91 79 233 234
f 77 92 235 236
g Group46924
f 77 79 91 92
g Group32941
f 235 238 237 234
g Group32944
f 84 91 234 237
f 92 83 238 235
g Group46924
f 92 91 84 83
g Group32941
f 242 241 240 239
g Group32944
f 96 85 239 240
f 89 95 241 242
g Group46924
f 89 85 96 95
g Group32941
f 238 244 243 237
g Group32944
f 88 84 237 243
f 83 81 244 238
g Group46924
f 83 84 88 81
g Group32941
f 248 247 246 245
g Group32944
f 105 107 245 246
f 108 106 247 248
g Group46924
f 108 107 105 106
g Group32941
f 241 250 249 240
g Group32944
f 93 96 240 249
f 95 94 250 241
g Group46924
f 95 96 93 94
g Group32941
f 252 242 239 251
g Group32944
f 85 86 251 239
f 90 89 242 252
g Group46924
f 90 86 85 89
g Group32941
f 247 249 250 246
g Group32944
f 94 105 246 250
g Group46924
f 106 105 94 93
g Group32941
f 233 254 253 236
g Group32944
f 78 77 236 253
f 79 80 254 233
g Group46924
f 79 77 78 80
g Group32941
f 256 252 251 255
g Group32944
f 86 87 255 251
f 82 90 252 256
g Group46924
f 82 87 86 90
g Group32941
f 254 258 257 253
g Group32944
f 147 78 253 257
f 80 148 258 254
g Group46924
f 80 78 147 148
g Group32941
f 244 256 255 243
g Group32944
f 87 88 243 255
f 81 82 256 244
g Group46924
f 81 88 87 82
g Group32941
f 262 261 260 259
g Group32944
f 103 99 259 260
f 97 104 261 262
g Group46924
f 97 99 103 104
g Group32941
f 266 265 264 263
g Group32944
f 146 142 266 263
f 141 145 264 265
g Group46924
f 142 146 145 141
g Group32941
f 259 268 267 262
g Group32944
f 98 97 262 267
f 99 100 268 259
g Group46924
f 99 97 98 100
g Group32941
f 268 270 269 267
g Group32944
f 102 98 267 269
f 100 101 270 268
g Group46924
f 100 98 102 101
g Group32941
f 247 269 270 249
g Group32944
f 101 93 249 270
f 106 102 269 247
g Group46924
f 106 93 101 102
g Group32941
f 248 245 272 271
g Group32944
f 110 108 248 271
f 107 109 272 245
g Group46924
f 108 110 109 107
g Group32941
f 276 275 274 273
g Group32944
f 125 113 273 274
f 111 126 275 276
g Group46924
f 111 113 125 126
g Group32941
f 275 278 277 274
g Group32944
f 118 125 274 277
f 126 117 278 275
g Group46924
f 126 125 118 117
g Group32941
f 282 281 280 279
g Group32944
f 130 119 279 280
f 123 129 281 282
g Group46924
f 123 119 130 129
g Group32941
f 278 284 283 277
g Group32944
f 122 118 277 283
f 117 115 284 278
g Group46924
f 117 118 122 115
g Group32941
f 266 286 285 265
g Group32944
f 139 141 265 285
f 142 140 286 266
g Group46924
f 142 141 139 140
g Group32941
f 281 288 287 280
g Group32944
f 127 130 280 287
f 129 128 288 281
g Group46924
f 129 130 127 128
g Group32941
f 290 282 279 289
g Group32944
f 119 120 289 279
f 124 123 282 290
g Group46924
f 124 120 119 123
g Group32941
f 286 287 288 285
g Group32944
f 128 139 285 288
g Group46924
f 140 139 128 127
g Group32941
f 273 292 291 276
g Group32944
f 112 111 276 291
f 113 114 292 273
g Group46924
f 113 111 112 114
g Group32941
f 294 290 289 293
g Group32944
f 120 121 293 289
f 116 124 290 294
g Group46924
f 116 121 120 124
g Group32941
f 292 257 258 291
g Group32944
f 148 112 291 258
f 114 147 257 292
g Group46924
f 114 112 148 147
g Group32941
f 284 294 293 283
g Group32944
f 121 122 283 293
f 115 116 294 284
g Group46924
f 115 122 121 116
g Group32941
f 298 297 296 295
g Group32944
f 137 133 295 296
f 131 138 297 298
g Group46924
f 131 133 137 138
g Group32941
f 286 300 299 287
g Group32944
f 135 127 287 299
f 140 136 300 286
g Group46924
f 140 127 135 136
g Group32941
f 295 302 301 298
g Group32944
f 132 131 298 301
f 133 134 302 295
g Group46924
f 133 131 132 134
g Group32941
f 302 299 300 301
g Group32944
f 136 132 301 300
f 134 135 299 302
g Group46924
f 134 132 136 135
g Group32941
f 304 303 263 264
g Group32944
f 145 144 304 264
f 143 146 263 303
g Group46924
f 144 145 146 143
g Group32941
f 296 297 306 305
g Group32944
f 156 137 296 305
f 138 155 306 297
g Group46924
f 137 156 155 138
g Group32941
f 260 261 308 307
g Group32944
f 150 103 260 307
f 149 150 307 308
f 104 149 308 261
g Group46924
f 103 150 149 104
g Group32941
f 272 310 309 271
g Group32944
f 152 110 271 309
f 151 152 309 310
f 109 151 310 272
g Group46924
f 109 110 152 151
g Group32941
f 305 306 312 311
g Group32944
f 153 156 305 311
f 155 154 312 306
g Group46924
f 156 153 154 155
g Group32941
f 227 228 311 312
g Group32944
f 154 75 227 312
f 76 153 311 228
g Group46924
f 75 154 153 76
g Group32941
f 188 189 303 304
g Group32944
f 144 67 188 304
f 68 143 303 189
g Group46924
f 67 144 143 68

 