# File exported by ZBrush version 2021
# www.zbrush.com
#Vertex Count 248
#Face Count 244
#Auto scale x=1.000000 y=1.000000 z=1.000000
#Auto offset x=0.000000 y=0.000000 z=0.000000
v -0.69299447 -1.96150052 0.2478245
v -0.69434648 -0.87968552 0.2468705
v -0.25173047 -1.97969651 0.2478245
v -0.25153946 -0.88045752 0.2468705
v -0.78351146 -2.14980149 0.2478245
v -0.42092746 -2.43617463 0.2478245
v -1.19158852 -1.96150052 0.2478245
v -1.19124949 -0.87973952 0.2468705
v -1.63285148 -1.97969651 0.2478245
v -1.6330415 -0.88045752 0.2468705
v -1.10107147 -2.14980149 0.2478245
v -1.46365547 -2.43617343 0.2478245
v -0.94229149 -2.82939553 0.2478245
v -0.94229149 -2.3293066 0.2478245
v -2.57016658 -1.96150052 0.2478245
v -2.57151842 -0.87968552 0.2468705
v -2.12890338 -1.97969651 0.2478245
v -2.12871241 -0.88045752 0.2468705
v -2.66068339 -2.14980149 0.2478245
v -2.29810047 -2.43617343 0.2478245
v -2.81946349 -2.82939553 0.2478245
v -2.81946349 -2.3293066 0.2478245
v -2.03833842 -0.69151049 0.2478245
v -2.40092158 -0.40513852 0.2478245
v -1.72077846 -0.69151049 0.2478245
v -1.35819542 -0.40513953 0.2478245
v -1.87955844 -0.01191652 0.2478245
v -1.87955844 -0.51200652 0.2478245
v -0.15807947 -0.69151151 0.2478245
v -0.52066248 -0.40513953 0.2478245
v 0.00070152 -0.01191652 0.2478245
v 0.00070152 -0.51200652 0.2478245
v -2.11997342 1.96149945 0.2478245
v -2.11862158 0.87968444 0.2468705
v -2.56123638 1.97969543 0.2478245
v -2.56142544 0.88045644 0.2468705
v -2.02945542 2.14980149 0.2478245
v -2.39203953 2.43617343 0.2478245
v -1.62137842 1.96149945 0.2478245
v -1.62171649 0.87973946 0.2468705
v -1.18011546 1.97969543 0.2478245
v -1.17992544 0.88045644 0.2468705
v -1.71189546 2.14980149 0.2478245
v -1.34931242 2.43617343 0.2478245
v -1.87067544 2.82939553 0.2478245
v -1.87067544 2.32930636 0.2478245
v -2.65180039 0.69151049 0.2478245
v -2.28921651 0.40513947 0.2478245
v -2.81058049 0.01191647 0.2478245
v -2.81058049 0.51200646 0.2478245
v -1.09274649 0.69151049 0.2478245
v -1.45532941 0.40513947 0.2478245
v -0.93396645 0.01191647 0.2478245
v -0.93396645 0.51200646 0.2478245
v -0.23517647 1.96149945 0.2478245
v -0.23382547 0.87968444 0.2468705
v -0.67644047 1.97969543 0.2478245
v -0.67663049 0.88045644 0.2468705
v -0.14465947 2.14980149 0.2478245
v -0.50724345 2.43617343 0.2478245
v 0.01412052 2.82939553 0.2478245
v 0.01412052 2.32930636 0.2478245
v -0.77009248 0.69151049 0.2478245
v -0.40750846 0.40513947 0.2478245
v 2.56014251 -1.96150052 0.2478245
v 2.56048154 -0.87973952 0.2468705
v 2.11887955 -1.97969651 0.2478245
v 2.11869049 -0.88045752 0.2468705
v 2.65065956 -2.14980149 0.2478245
v 2.28807544 -2.43617343 0.2478245
v 2.80943942 -2.82939553 0.2478245
v 2.80943942 -2.3293066 0.2478245
v 1.18156456 -1.96150052 0.2478245
v 1.18021249 -0.87968552 0.2468705
v 1.62282848 -1.97969651 0.2478245
v 1.6230185 -0.88045752 0.2468705
v 1.09104657 -2.14980149 0.2478245
v 1.45363056 -2.43617343 0.2478245
v 0.68296951 -1.96150052 0.2478245
v 0.68330854 -0.87973952 0.2468705
v 0.24170552 -1.97969555 0.2478245
v 0.24151551 -0.88045752 0.2468705
v 0.77348649 -2.14980149 0.2478245
v 0.41090253 -2.43617343 0.2478245
v 0.93226754 -2.82939553 0.2478245
v 0.93226754 -2.3293066 0.2478245
v 1.71339249 -0.69151049 0.2478245
v 1.3508085 -0.40513852 0.2478245
v 2.0309534 -0.69151049 0.2478245
v 2.39353656 -0.40513953 0.2478245
v 1.87217247 -0.01191652 0.2478245
v 1.87217247 -0.51200652 0.2478245
v 0.15433652 -0.69151049 0.2478245
v 0.51692152 -0.40513953 0.2478245
v 2.81946349 0.01191647 0.2478245
v 2.81946349 0.51200646 0.2478245
v 0.24978351 1.96149945 0.2478245
v 0.24944452 0.87973946 0.2468705
v 0.69104653 1.97969543 0.2478245
v 0.6912375 0.88045746 0.2468705
v 0.15926753 2.14980149 0.2478245
v 0.52185052 2.43617343 0.2478245
v 1.62836158 1.96149945 0.2478245
v 1.62971556 0.87968444 0.2468705
v 1.1870985 1.97969543 0.2478245
v 1.18690848 0.88045746 0.2468705
v 1.71887958 2.14980149 0.2478245
v 1.35629653 2.43617343 0.2478245
v 2.12695741 1.96149945 0.2478245
v 2.12661743 0.87973946 0.2468705
v 2.56821942 1.97969543 0.2478245
v 2.56840944 0.88045746 0.2468705
v 2.03643941 2.14980149 0.2478245
v 2.39902353 2.43617343 0.2478245
v 1.87765955 2.82939553 0.2478245
v 1.87765955 2.32930636 0.2478245
v 1.09653449 0.69151049 0.2478245
v 1.45911848 0.40513947 0.2478245
v 0.77897352 0.69151049 0.2478245
v 0.4163905 0.40513947 0.2478245
v 0.93775451 0.01191647 0.2478245
v 0.93775451 0.51200646 0.2478245
v 2.65558743 0.69151049 0.2478245
v 2.29300451 0.40513947 0.2478245
v -0.69299846 -1.96171653 -0.2468695
v -0.69412845 -0.87927949 -0.24782449
v -0.25132247 -0.88005149 -0.24782449
v -0.25173547 -1.97991251 -0.2468695
v -0.42092746 -2.43617343 -0.2468695
v -0.78351146 -2.14980149 -0.2468695
v -0.94229149 -2.82939553 -0.2468695
v -0.94229149 -2.3293066 -0.2468695
v -1.63325953 -0.88004851 -0.24782449
v -1.19146847 -0.87933051 -0.24782449
v -1.19158446 -1.96171653 -0.2468695
v -1.63284647 -1.97991251 -0.2468695
v -1.10107147 -2.14980149 -0.2468695
v -1.46365547 -2.43617343 -0.2468695
v -2.57017159 -1.96171653 -0.2468695
v -2.5713005 -0.87927752 -0.24782449
v -2.1284945 -0.88004952 -0.24782449
v -2.12890744 -1.97991251 -0.2468695
v -2.29809951 -2.43617343 -0.2468695
v -2.66068339 -2.14980149 -0.2468695
v -2.81946349 -2.82939553 -0.2468695
v -2.81946349 -2.3293066 -0.2468695
v -2.40069937 -0.40451452 -0.2468695
v -1.87955844 -0.01191652 -0.2468695
v -1.87955844 -0.51200652 -0.2468695
v -2.03811645 -0.69088649 -0.2468695
v -1.35841846 -0.40451353 -0.2468695
v -1.7210015 -0.69088453 -0.2468695
v -0.52044147 -0.40451753 -0.2468695
v 0.00070152 -0.01191652 -0.2468695
v 0.00070152 -0.51200652 -0.2468695
v -0.15785747 -0.69088852 -0.2468695
v -2.11996841 1.96171653 -0.2468695
v -2.1188395 0.87927746 -0.24782449
v -2.56164336 0.88004946 -0.24782449
v -2.56123137 1.97991251 -0.2468695
v -2.39203953 2.43617343 -0.2468695
v -2.02945542 2.14980053 -0.2468695
v -1.87067544 2.82939553 -0.2468695
v -1.87067544 2.32930636 -0.2468695
v -1.17970645 0.8800475 -0.24782449
v -1.62149751 0.8793295 -0.24782449
v -1.62138342 1.96171653 -0.2468695
v -1.18012046 1.97991251 -0.2468695
v -1.71189546 2.14980053 -0.2468695
v -1.34931147 2.43617343 -0.2468695
v -2.28943944 0.40451449 -0.2468695
v -2.81058049 0.01191647 -0.2468695
v -2.81058049 0.51200646 -0.2468695
v -2.65202355 0.69088649 -0.2468695
v -0.93396645 0.51200646 -0.2468695
v -0.93396645 0.01191647 -0.2468695
v -1.45510649 0.40451347 -0.2468695
v -1.09252345 0.69088447 -0.2468695
v -0.23517248 1.96171653 -0.2468695
v -0.23404248 0.87927949 -0.24782449
v -0.67684745 0.88005149 -0.24782449
v -0.67643547 1.97991251 -0.2468695
v -0.50724345 2.43617343 -0.2468695
v -0.14465947 2.14980053 -0.2468695
v 0.01412052 2.82939553 -0.2468695
v 0.01412052 2.32930636 -0.2468695
v -0.40773049 0.40451648 -0.2468695
v -0.77031445 0.69088846 -0.2468695
v 2.11847162 -0.88004851 -0.24782449
v 2.56026244 -0.87933051 -0.24782449
v 2.56014657 -1.96171653 -0.2468695
v 2.11888361 -1.97991251 -0.2468695
v 2.65065956 -2.14980149 -0.2468695
v 2.28807544 -2.43617343 -0.2468695
v 2.80943942 -2.3293066 -0.2468695
v 2.80943942 -2.82939553 -0.2468695
v 1.18155956 -1.96171653 -0.2468695
v 1.18043053 -0.87927752 -0.24782449
v 1.62323653 -0.88004952 -0.24782449
v 1.62282347 -1.97991251 -0.2468695
v 1.45363056 -2.43617343 -0.2468695
v 1.09104657 -2.14980149 -0.2468695
v 0.93226754 -2.82939553 -0.2468695
v 0.93226754 -2.3293066 -0.2468695
v 0.24129653 -0.8800475 -0.24782449
v 0.68308949 -0.8793295 -0.24782449
v 0.6829735 -1.96171653 -0.2468695
v 0.24171052 -1.97991156 -0.2468695
v 0.77348649 -2.14980149 -0.2468695
v 0.41090253 -2.43617343 -0.2468695
v 1.35103046 -0.40451452 -0.2468695
v 1.87217247 -0.01191652 -0.2468695
v 1.87217247 -0.51200652 -0.2468695
v 1.71361446 -0.69088649 -0.2468695
v 2.39331245 -0.40451353 -0.2468695
v 2.03073048 -0.69088453 -0.2468695
v 0.15411351 -0.69088453 -0.2468695
v 0.51669752 -0.40451353 -0.2468695
v 0.69145649 0.8800475 -0.24782449
v 0.24966351 0.8793295 -0.24782449
v 0.24977952 1.96171653 -0.2468695
v 0.69104254 1.97991251 -0.2468695
v 0.15926753 2.14980053 -0.2468695
v 0.52185052 2.43617343 -0.2468695
v 1.62836647 1.96171653 -0.2468695
v 1.62949752 0.87927746 -0.24782449
v 1.18669056 0.88004946 -0.24782449
v 1.18710255 1.97991251 -0.2468695
v 1.35629546 2.43617343 -0.2468695
v 1.71887958 2.14980053 -0.2468695
v 1.87765955 2.82939553 -0.2468695
v 1.87765955 2.32930636 -0.2468695
v 2.56862855 0.8800475 -0.24782449
v 2.12683653 0.8793295 -0.24782449
v 2.12695241 1.96171653 -0.2468695
v 2.56821441 1.97991251 -0.2468695
v 2.03643941 2.14980053 -0.2468695
v 2.39902353 2.43617343 -0.2468695
v 1.45889556 0.40451547 -0.2468695
v 0.93775451 0.01191647 -0.2468695
v 0.93775451 0.51200646 -0.2468695
v 1.09631156 0.69088649 -0.2468695
v 0.41661351 0.40451347 -0.2468695
v 0.7791965 0.69088447 -0.2468695
v 2.65581154 0.69088447 -0.2468695
v 2.29322862 0.40451347 -0.2468695
v 2.81946349 0.51200646 -0.2468695
v 2.81946349 0.01191647 -0.2468695
g Group32941
f 128 127 126 125
g Group32944
f 2 1 125 126
f 3 4 127 128
g Group41858
f 3 1 2 4
g Group32941
f 128 125 130 129
g Group32944
f 6 3 128 129
f 1 5 130 125
g Group41858
f 3 6 5 1
g Group32941
f 130 132 131 129
g Group32944
f 13 6 129 131
f 5 14 132 130
g Group41858
f 5 6 13 14
g Group32941
f 136 135 134 133
g Group32944
f 10 9 136 133
f 7 8 134 135
g Group41858
f 9 10 8 7
g Group32941
f 136 138 137 135
g Group32944
f 11 7 135 137
f 9 12 138 136
g Group41858
f 9 7 11 12
g Group32941
f 137 138 131 132
g Group32944
f 14 11 137 132
f 12 13 131 138
g Group41858
f 11 14 13 12
g Group32941
f 142 141 140 139
g Group32944
f 16 15 139 140
f 17 18 141 142
g Group41858
f 17 15 16 18
g Group32941
f 142 139 144 143
g Group32944
f 20 17 142 143
f 15 19 144 139
g Group41858
f 17 20 19 15
g Group32941
f 144 146 145 143
g Group32944
f 21 20 143 145
f 22 21 145 146
f 19 22 146 144
g Group41858
f 19 20 21 22
g Group32941
f 150 149 148 147
g Group32944
f 27 24 147 148
f 23 28 149 150
g Group41858
f 23 24 27 28
g Group32941
f 152 151 148 149
g Group32944
f 28 25 152 149
f 26 27 148 151
g Group41858
f 25 28 27 26
g Group32941
f 140 141 150 147
g Group32944
f 24 16 140 147
f 18 23 150 141
g Group41858
f 16 24 23 18
g Group32941
f 133 134 151 152
g Group32944
f 25 10 133 152
f 8 26 151 134
g Group41858
f 10 25 26 8
g Group32941
f 156 155 154 153
g Group32944
f 31 30 153 154
f 29 32 155 156
g Group41858
f 29 30 31 32
g Group32941
f 156 153 126 127
g Group32944
f 4 29 156 127
f 30 2 126 153
g Group41858
f 29 4 2 30
g Group32941
f 160 159 158 157
g Group32944
f 34 33 157 158
f 35 36 159 160
g Group41858
f 35 33 34 36
g Group32941
f 160 157 162 161
g Group32944
f 38 35 160 161
f 33 37 162 157
g Group41858
f 35 38 37 33
g Group32941
f 162 164 163 161
g Group32944
f 45 38 161 163
f 37 46 164 162
g Group41858
f 37 38 45 46
g Group32941
f 168 167 166 165
g Group32944
f 42 41 168 165
f 39 40 166 167
g Group41858
f 41 42 40 39
g Group32941
f 168 170 169 167
g Group32944
f 43 39 167 169
f 41 44 170 168
g Group41858
f 41 39 43 44
g Group32941
f 169 170 163 164
g Group32944
f 46 43 169 164
f 44 45 163 170
g Group41858
f 43 46 45 44
g Group32941
f 174 173 172 171
g Group32944
f 49 48 171 172
f 50 49 172 173
f 47 50 173 174
g Group41858
f 47 48 49 50
g Group32941
f 158 159 174 171
g Group32944
f 48 34 158 171
f 36 47 174 159
g Group41858
f 34 48 47 36
g Group32941
f 178 177 176 175
g Group32944
f 54 51 178 175
f 52 53 176 177
g Group41858
f 51 54 53 52
g Group32941
f 177 178 165 166
g Group32944
f 40 52 177 166
f 51 42 165 178
g Group41858
f 52 40 42 51
g Group32941
f 182 181 180 179
g Group32944
f 56 55 179 180
f 57 58 181 182
g Group41858
f 57 55 56 58
g Group32941
f 182 179 184 183
g Group32944
f 60 57 182 183
f 55 59 184 179
g Group41858
f 57 60 59 55
g Group32941
f 184 186 185 183
g Group32944
f 61 60 183 185
f 59 62 186 184
g Group41858
f 59 60 61 62
g Group32941
f 188 187 180 181
g Group32944
f 58 63 188 181
f 64 56 180 187
g Group41858
f 63 58 56 64
g Group32941
f 187 188 175 176
g Group32944
f 53 64 187 176
f 63 54 175 188
g Group41858
f 64 53 54 63
g Group32941
f 192 191 190 189
g Group32944
f 68 67 192 189
f 65 66 190 191
g Group41858
f 67 68 66 65
g Group32941
f 192 194 193 191
g Group32944
f 69 65 191 193
f 67 70 194 192
g Group41858
f 67 65 69 70
g Group32941
f 193 194 196 195
g Group32944
f 72 69 193 195
f 71 72 195 196
f 70 71 196 194
g Group41858
f 69 72 71 70
g Group32941
f 200 199 198 197
g Group32944
f 74 73 197 198
f 75 76 199 200
g Group41858
f 75 73 74 76
g Group32941
f 200 197 202 201
g Group32944
f 78 75 200 201
f 73 77 202 197
g Group41858
f 75 78 77 73
g Group32941
f 202 204 203 201
g Group32944
f 85 78 201 203
f 77 86 204 202
g Group41858
f 77 78 85 86
g Group32941
f 208 207 206 205
g Group32944
f 82 81 208 205
f 79 80 206 207
g Group41858
f 81 82 80 79
g Group32941
f 208 210 209 207
g Group32944
f 83 79 207 209
f 81 84 210 208
g Group41858
f 81 79 83 84
g Group32941
f 209 210 203 204
g Group32944
f 86 83 209 204
f 84 85 203 210
g Group41858
f 83 86 85 84
g Group32941
f 214 213 212 211
g Group32944
f 91 88 211 212
f 87 92 213 214
g Group41858
f 87 88 91 92
g Group32941
f 216 215 212 213
g Group32944
f 92 89 216 213
f 90 91 212 215
g Group41858
f 89 92 91 90
g Group32941
f 198 199 214 211
g Group32944
f 88 74 198 211
f 76 87 214 199
g Group41858
f 74 88 87 76
g Group32941
f 189 190 215 216
g Group32944
f 89 68 189 216
f 66 90 215 190
g Group41858
f 68 89 90 66
g Group32941
f 218 217 205 206
g Group32944
f 80 94 218 206
f 93 82 205 217
g Group41858
f 94 80 82 93
g Group32941
f 222 221 220 219
g Group32944
f 100 99 222 219
f 97 98 220 221
g Group41858
f 99 100 98 97
g Group32941
f 222 224 223 221
g Group32944
f 101 97 221 223
f 99 102 224 222
g Group41858
f 99 97 101 102
g Group32941
f 228 227 226 225
g Group32944
f 104 103 225 226
f 105 106 227 228
g Group41858
f 105 103 104 106
g Group32941
f 228 225 230 229
g Group32944
f 108 105 228 229
f 103 107 230 225
g Group41858
f 105 108 107 103
g Group32941
f 230 232 231 229
g Group32944
f 115 108 229 231
f 107 116 232 230
g Group41858
f 107 108 115 116
g Group32941
f 236 235 234 233
g Group32944
f 112 111 236 233
f 109 110 234 235
g Group41858
f 111 112 110 109
g Group32941
f 236 238 237 235
g Group32944
f 113 109 235 237
f 111 114 238 236
g Group41858
f 111 109 113 114
g Group32941
f 237 238 231 232
g Group32944
f 116 113 237 232
f 114 115 231 238
g Group41858
f 113 116 115 114
g Group32941
f 242 241 240 239
g Group32944
f 121 118 239 240
f 117 122 241 242
g Group41858
f 117 118 121 122
g Group32941
f 244 243 240 241
g Group32944
f 122 119 244 241
f 120 121 240 243
g Group41858
f 119 122 121 120
g Group32941
f 226 227 242 239
g Group32944
f 118 104 226 239
f 106 117 242 227
g Group41858
f 104 118 117 106
g Group32941
f 219 220 243 244
g Group32944
f 119 100 219 244
f 98 120 243 220
g Group41858
f 100 119 120 98
g Group32941
f 246 245 233 234
g Group32944
f 110 124 246 234
f 123 112 233 245
g Group41858
f 124 110 112 123
g Group32941
f 245 246 248 247
g Group32944
f 96 123 245 247
f 95 96 247 248
f 124 95 248 246
g Group41858
f 123 96 95 124
g Group32941
f 185 186 223 224
g Group32944
f 102 61 185 224
f 62 101 223 186
g Group41858
f 61 102 101 62
g Group32941
f 217 218 154 155
g Group32944
f 32 93 217 155
f 94 31 154 218
g Group41858
f 93 32 31 94

 