# File exported by ZBrush version 2021
# www.zbrush.com
#Vertex Count 156
#Face Count 154
#Auto scale x=1.000000 y=1.000000 z=1.000000
#Auto offset x=0.000000 y=0.000000 z=0.000000
v 2.66758799 0.651178 0.196122
v 2.87371897 0.392901 0.196122
v 2.81843709 0.89717698 0.196122
v 3.11576604 0.57348102 0.196122
v 3.29210805 0.123401 0.196122
v 2.98974895 0.044291 0.196122
v 3.0068171 -0.229433 0.196122
v 3.32248997 -0.23453399 0.196122
v 2.63053488 -0.96811699 0.196122
v 2.8501451 -0.76819402 0.196122
v 1.47519803 0.87391799 0.194091
v 2.78475904 -1.22713899 0.196122
v 3.09248089 -0.95089399 0.196122
v 3.28505611 -0.56255 0.196122
v 2.98182797 -0.48015299 0.196122
v 0.94982701 0.68561899 0.194945
v 2.02759504 0.93757301 0.193237
v 1.990731 1.22713899 0.193551
v 0.88621801 0.95140999 0.195288
v 1.43173599 1.14935696 0.19442001
v 2.41750502 1.11888802 0.194837
v 2.35657501 0.84246301 0.194679
v -2.66758799 -0.651178 0.196122
v -2.87371897 -0.392901 0.196122
v -2.81843709 -0.89717698 0.196122
v -3.11576604 -0.57348102 0.196122
v -3.29210805 -0.123401 0.196122
v -2.9897499 -0.044291 0.196122
v -3.0068171 0.229433 0.196122
v -3.32248997 0.23453399 0.196122
v -2.63053393 0.96811598 0.196122
v -2.8501439 0.76819402 0.196122
v -1.47519695 -0.87391799 0.194091
v -2.78475904 1.22713899 0.196122
v -3.09248089 0.95089399 0.196122
v -3.28505611 0.56255 0.196122
v -2.98182797 0.48015299 0.196122
v -0.94982701 -0.68561899 0.194945
v -2.02759409 -0.93757402 0.193237
v -1.99073004 -1.22713899 0.193551
v 0.004455 -0.22438 0.197025
v -0.417851 -0.66218799 0.196157
v -0.88621699 -0.95140999 0.195288
v -1.43173599 -1.14935696 0.19442001
v -0.10281299 0.041572 0.19665201
v -0.50567501 -0.39679598 0.195799
v -2.41750502 -1.11888802 0.194837
v -2.35657501 -0.84246403 0.194679
v 0.61422699 0.46738401 0.19559
v 0.444274 0.66307002 0.195985
v 0.15888999 0.356269 0.19631899
v 0.31297901 0.146962 0.196307
v 3.14092803 0.083846 0.196122
v 3.16465401 -0.231983 0.196122
v 2.74301195 0.77417701 0.196122
v 2.9947431 0.48319101 0.196122
v 2.971313 -0.85954397 0.196122
v 2.70764589 -1.09762799 0.196122
v 3.13344311 -0.52135098 0.196122
v -0.04917899 -0.09140499 0.196839
v 0.235934 0.251616 0.196313
v -3.13344192 0.52135098 0.196122
v -3.16465401 0.231983 0.196122
v -2.971313 0.85954397 0.196122
v 0.52925002 0.56522697 0.19578699
v -0.46176299 -0.52949202 0.195977
v -2.70764589 1.09762704 0.196122
v -0.91802102 -0.818515 0.19511699
v -2.9947431 -0.48319101 0.196122
v -3.14092898 -0.083846 0.196122
v -1.45346605 -1.01163804 0.194255
v -2.74301195 -0.77417802 0.196122
v 0.91802197 0.81851398 0.19511699
v 2.0091629 1.08235597 0.193393
v 1.45346701 1.01163697 0.194255
v -2.00916194 -1.08235597 0.193393
v 2.38704109 0.98067599 0.19475799
v -2.3870399 -0.980677 0.19475799
v 3.32248997 -0.23453399 -0.194139
v 3.16465401 -0.231983 -0.194139
v 3.14092803 0.083846 -0.194139
v 3.29210805 0.123401 -0.194139
v 3.0068171 -0.229433 -0.194139
v 2.98974895 0.044291 -0.194139
v 3.11576604 0.57348102 -0.194139
v 2.9947431 0.48319101 -0.194139
v 2.74364709 0.77397799 -0.194139
v 2.81901907 0.896999 -0.194139
v 2.87371897 0.392901 -0.194139
v 2.66827702 0.65095698 -0.194139
v 2.78475904 -1.22713899 -0.194139
v 2.70764589 -1.09762799 -0.194139
v 2.971313 -0.85954397 -0.194139
v 3.09248089 -0.95089399 -0.194139
v 2.63053488 -0.96811699 -0.194139
v 2.8501451 -0.76819402 -0.194139
v 3.13344311 -0.52135098 -0.194139
v 3.28505611 -0.56255 -0.194139
v 2.98182797 -0.48015299 -0.194139
v 0.158543 0.35605901 -0.19394201
v 0.23552499 0.251363 -0.19394698
v -0.04878899 -0.09169799 -0.19342199
v -0.102389 0.041297 -0.19360899
v 0.312507 0.146667 -0.193953
v 0.004812 -0.224692 -0.19323599
v -3.0068171 0.229433 -0.194139
v -3.16465401 0.231983 -0.194139
v -3.13344192 0.52135098 -0.194139
v -2.98182797 0.48015299 -0.194139
v -3.32248997 0.23453399 -0.194139
v -3.28505611 0.56255 -0.194139
v -3.09248089 0.95089399 -0.194139
v -2.971313 0.85954397 -0.194139
v -2.8501439 0.76819402 -0.194139
v 0.44361001 0.66316402 -0.19427499
v 0.52854198 0.565288 -0.19447299
v 0.61347502 0.46741399 -0.19466999
v -0.46081501 -0.52970701 -0.19428199
v -0.50472098 -0.397008 -0.19446098
v -0.41690999 -0.66240602 -0.194103
v -2.78475904 1.22713899 -0.194139
v -2.70764589 1.09762704 -0.194139
v -2.63053393 0.96811598 -0.194139
v -0.91719698 -0.81881201 -0.19514298
v -0.94899702 -0.68591398 -0.195315
v -0.88539701 -0.95170897 -0.194972
v -3.29210805 -0.123401 -0.194139
v -3.14092898 -0.083846 -0.194139
v -2.9947431 -0.48319101 -0.194139
v -3.11576604 -0.57348102 -0.194139
v -2.9897499 -0.044291 -0.194139
v -2.87371897 -0.392901 -0.194139
v -1.45276701 -1.01198196 -0.19600498
v -1.47449696 -0.87426197 -0.19616898
v -1.43103599 -1.14970099 -0.19584
v -2.74364805 -0.773979 -0.194139
v -2.81901907 -0.89700001 -0.194139
v -2.66827797 -0.65095698 -0.194139
v 0.91724097 0.81878799 -0.19514298
v 0.949032 0.68588602 -0.195315
v 0.88545 0.95169097 -0.194972
v 1.47449898 0.87426102 -0.19616898
v 1.45276796 1.01198101 -0.19600498
v 2.00958204 1.08266305 -0.19686898
v 2.02808189 0.93787699 -0.197025
v 1.43103694 1.14970099 -0.19584
v 1.99108195 1.22744798 -0.196711
v -2.00958108 -1.08266305 -0.19686898
v -2.02808094 -0.93787801 -0.197025
v -1.99108099 -1.22744798 -0.196711
v 2.41876506 1.11884403 -0.19542199
v 2.38842105 0.98060697 -0.19549998
v 2.3580749 0.84237098 -0.19557899
v -2.3884201 -0.98060798 -0.19549998
v -2.3580749 -0.84237098 -0.19557899
v -2.41876506 -1.11884403 -0.19542199
g Group32941
f 82 81 80 79
g Group32944
f 8 5 82 79
g Group31013
f 5 8 54 53
g Group32941
f 81 84 83 80
g Group32944
f 6 7 83 84
g Group31013
f 53 54 7 6
g Group32941
f 88 87 86 85
g Group32944
f 4 3 88 85
g Group31013
f 3 4 56 55
g Group32941
f 87 90 89 86
g Group32944
f 1 2 89 90
g Group31013
f 55 56 2 1
g Group32941
f 85 86 81 82
g Group32944
f 5 4 85 82
g Group31013
f 4 5 53 56
g Group32941
f 86 89 84 81
g Group32944
f 2 6 84 89
g Group31013
f 56 53 6 2
g Group32941
f 94 93 92 91
g Group32944
f 12 13 94 91
f 58 12 91 92
g Group31013
f 13 12 58 57
g Group32941
f 93 96 95 92
g Group32944
f 9 58 92 95
f 10 9 95 96
g Group31013
f 57 58 9 10
g Group32941
f 98 97 93 94
g Group32944
f 13 14 98 94
g Group31013
f 14 13 57 59
g Group32941
f 97 99 96 93
g Group32944
f 15 10 96 99
g Group31013
f 59 57 10 15
g Group32941
f 99 97 80 83
g Group32944
f 7 15 99 83
g Group31013
f 15 7 54 59
g Group32941
f 97 98 79 80
g Group32944
f 14 8 79 98
g Group31013
f 59 54 8 14
g Group32941
f 103 102 101 100
g Group32944
f 51 45 103 100
g Group31013
f 45 51 61 60
g Group32941
f 102 105 104 101
g Group32944
f 41 52 104 105
g Group31013
f 60 61 52 41
g Group32941
f 109 108 107 106
g Group32944
f 29 37 109 106
g Group31013
f 37 29 63 62
g Group32941
f 108 111 110 107
g Group32944
f 36 30 110 111
g Group31013
f 62 63 30 36
g Group32941
f 111 108 113 112
g Group32944
f 35 36 111 112
g Group31013
f 36 35 64 62
g Group32941
f 108 109 114 113
g Group32944
f 37 32 114 109
g Group31013
f 62 64 32 37
g Group32941
f 100 101 116 115
g Group32944
f 50 51 100 115
g Group31013
f 51 50 65 61
g Group32941
f 101 104 117 116
g Group32944
f 52 49 117 104
g Group31013
f 61 65 49 52
g Group32941
f 119 118 102 103
g Group32944
f 45 46 119 103
g Group31013
f 46 45 60 66
g Group32941
f 118 120 105 102
g Group32944
f 42 41 105 120
g Group31013
f 66 60 41 42
g Group32941
f 112 113 122 121
g Group32944
f 34 35 112 121
f 67 34 121 122
g Group31013
f 35 34 67 64
g Group32941
f 113 114 123 122
g Group32944
f 31 67 122 123
f 32 31 123 114
g Group31013
f 64 67 31 32
g Group32941
f 125 124 118 119
g Group32944
f 46 38 125 119
g Group31013
f 38 46 66 68
g Group32941
f 124 126 120 118
g Group32944
f 43 42 120 126
g Group31013
f 68 66 42 43
g Group32941
f 130 129 128 127
g Group32944
f 27 26 130 127
g Group31013
f 26 27 70 69
g Group32941
f 129 132 131 128
g Group32944
f 24 28 131 132
g Group31013
f 69 70 28 24
g Group32941
f 134 133 124 125
g Group32944
f 38 33 134 125
g Group31013
f 33 38 68 71
g Group32941
f 133 135 126 124
g Group32944
f 44 43 126 135
g Group31013
f 71 68 43 44
g Group32941
f 137 136 129 130
g Group32944
f 26 25 137 130
g Group31013
f 25 26 69 72
g Group32941
f 136 138 132 129
g Group32944
f 23 24 132 138
g Group31013
f 72 69 24 23
g Group32941
f 140 139 116 117
g Group32944
f 49 16 140 117
g Group31013
f 16 49 65 73
g Group32941
f 139 141 115 116
g Group32944
f 19 50 115 141
g Group31013
f 73 65 50 19
g Group32941
f 106 107 128 131
g Group32944
f 28 29 106 131
g Group31013
f 29 28 70 63
g Group32941
f 107 110 127 128
g Group32944
f 30 27 127 110
g Group31013
f 63 70 27 30
g Group32941
f 145 144 143 142
g Group32944
f 11 17 145 142
g Group31013
f 17 11 75 74
g Group32941
f 144 147 146 143
g Group32944
f 18 20 146 147
g Group31013
f 74 75 20 18
g Group32941
f 142 143 139 140
g Group32944
f 16 11 142 140
g Group31013
f 11 16 73 75
g Group32941
f 143 146 141 139
g Group32944
f 20 19 141 146
g Group31013
f 75 73 19 20
g Group32941
f 149 148 133 134
g Group32944
f 33 39 149 134
g Group31013
f 39 33 71 76
g Group32941
f 148 150 135 133
g Group32944
f 40 44 135 150
g Group31013
f 76 71 44 40
g Group32941
f 147 144 152 151
g Group32944
f 21 18 147 151
g Group31013
f 18 21 77 74
g Group32941
f 144 145 153 152
g Group32944
f 17 22 153 145
g Group31013
f 74 77 22 17
g Group32941
f 151 152 87 88
g Group32944
f 3 21 151 88
g Group31013
f 21 3 55 77
g Group32941
f 152 153 90 87
g Group32944
f 22 1 90 153
g Group31013
f 77 55 1 22
g Group32941
f 155 154 148 149
g Group32944
f 39 48 155 149
g Group31013
f 48 39 76 78
g Group32941
f 154 156 150 148
g Group32944
f 47 40 150 156
g Group31013
f 78 76 40 47
g Group32941
f 138 136 154 155
g Group32944
f 48 23 138 155
g Group31013
f 23 48 78 72
g Group32941
f 136 137 156 154
g Group32944
f 25 47 156 137
g Group31013
f 72 78 47 25

 