# File exported by ZBrush version 2021
# www.zbrush.com
#Vertex Count 164
#Face Count 162
#Auto scale x=1.000000 y=1.000000 z=1.000000
#Auto offset x=0.000000 y=0.000000 z=0.000000
v -2.66842651 -0.196471 0.23219899
v -2.35948157 0.14289699 0.23219899
v -2.79990148 -0.64551097 0.23219899
v -2.79860258 -0.87224602 0.23219899
v -3.05685257 -0.62600702 0.23219899
v -3.06296753 -0.87224602 0.23219899
v -3.30787539 -0.57592797 0.23219899
v -3.32427048 -0.87224602 0.23219899
v -2.87576437 -0.082744 0.23219899
v -3.07224941 0.041855 0.23219899
v -2.49862551 0.33235299 0.23219899
v -2.64181256 0.51738297 0.23219899
v -1.97889649 0.58249098 0.23219899
v -2.04169845 0.81497198 0.23219899
v -1.91436648 0.34638801 0.23219899
v -1.53472149 0.63224101 0.23219899
v -1.53762447 0.38500601 0.23219899
v -1.52974045 0.87282097 0.23219899
v -0.39612346 -0.196471 0.23219899
v -0.70506745 0.14289699 0.23219899
v -0.25671649 -0.64213699 0.23219899
v -0.25484746 -0.87224602 0.23219899
v 0.00295852 -0.62600702 0.23219899
v -0.00158347 -0.87224602 0.23219899
v -0.18878647 -0.082744 0.23219899
v 0.00414852 0.041855 0.23219899
v -0.56592547 0.33235299 0.23219899
v -0.42273846 0.51738297 0.23219899
v -1.08565342 0.58249098 0.23219899
v -1.02285242 0.81497198 0.23219899
v -1.15018248 0.34638801 0.23219899
v 0.39612251 -0.196471 0.23219899
v 0.7050665 0.14289699 0.23219899
v 0.26464751 -0.64551097 0.23219899
v 0.26480552 -0.87282097 0.23219899
v 0.18878552 -0.082744 0.23219899
v 0.56592553 0.33235299 0.23219899
v 0.4227375 0.51738297 0.23219899
v 1.08565354 0.58249098 0.23219899
v 1.02285146 0.81497198 0.23219899
v 1.15018248 0.34638801 0.23219899
v 1.52982854 0.63224101 0.23219899
v 1.52692556 0.38500601 0.23219899
v 1.53480947 0.87282097 0.23219899
v 2.66842651 -0.196471 0.23219899
v 2.35948157 0.14289699 0.23219899
v 2.80783462 -0.64213699 0.23219899
v 2.80970263 -0.87224602 0.23219899
v 3.05685257 -0.62600702 0.23219899
v 3.06296658 -0.87224602 0.23219899
v 3.30787348 -0.57592797 0.23219899
v 3.32427048 -0.87224602 0.23219899
v 2.8757646 -0.082744 0.23219899
v 3.07224845 0.041855 0.23219899
v 2.49862456 0.33235299 0.23219899
v 2.6418116 0.51738297 0.23219899
v 1.97889649 0.58249098 0.23219899
v 2.04169845 0.81497198 0.23219899
v 1.91436648 0.34638801 0.23219899
v -0.09291447 -0.35437598 0.23219899
v -0.32641947 -0.41930401 0.23219899
v 1.53231954 0.75253099 0.23219899
v 1.0542525 0.69873201 0.23219899
v 0.4943315 0.42486798 0.23219899
v 2.57021856 0.42486798 0.23219899
v 2.97400641 -0.020445 0.23219899
v 2.01029658 0.69873201 0.23219899
v 3.18236351 -0.600968 0.23219899
v 3.19361853 -0.87224602 0.23219899
v 0.09646752 -0.020445 0.23219899
v -1.53223049 0.75253099 0.23219899
v -2.01029753 0.69873201 0.23219899
v -2.97400736 -0.020445 0.23219899
v -2.57021856 0.42486798 0.23219899
v -3.18236446 -0.600968 0.23219899
v -3.19361949 -0.87224602 0.23219899
v -0.49433147 0.42486798 0.23219899
v -0.09231847 -0.020445 0.23219899
v -1.05425345 0.69873201 0.23219899
v 0.33038553 -0.420991 0.23219899
v 0.09587152 -0.35437598 0.23219899
v 0.00177652 -0.18740999 0.23219899
v -1.53762447 0.38500601 -0.23219899
v -1.91436648 0.34638801 -0.23219899
v -1.97889649 0.58249098 -0.23219899
v -1.53472149 0.63224101 -0.23219899
v -2.35948157 0.14289699 -0.23219899
v -2.66842651 -0.196471 -0.23219899
v -2.87576437 -0.082744 -0.23219899
v -2.49862551 0.33235299 -0.23219899
v -3.06296753 -0.87224602 -0.23219899
v -3.05685257 -0.62600702 -0.23219899
v -2.79990148 -0.64551097 -0.23219899
v -2.79860258 -0.87224602 -0.23219899
v -0.18878647 -0.082744 -0.23219899
v -0.39612346 -0.196471 -0.23219899
v -0.70506745 0.14289699 -0.23219899
v -0.56592547 0.33235299 -0.23219899
v -0.25671649 -0.64213699 -0.23219899
v 0.00295852 -0.62600702 -0.23219899
v -0.00158347 -0.87224602 -0.23219899
v -0.25484746 -0.87224602 -0.23219899
v -1.15018248 0.34638801 -0.23219899
v -1.08565342 0.58249098 -0.23219899
v 1.52692556 0.38500601 -0.23219899
v 1.15018248 0.34638801 -0.23219899
v 1.08565354 0.58249098 -0.23219899
v 1.52982854 0.63224101 -0.23219899
v 0.7050665 0.14289699 -0.23219899
v 0.39612251 -0.196471 -0.23219899
v 0.18878552 -0.082744 -0.23219899
v 0.56592553 0.33235299 -0.23219899
v 2.8757646 -0.082744 -0.23219899
v 2.66842651 -0.196471 -0.23219899
v 2.35948157 0.14289699 -0.23219899
v 2.49862456 0.33235299 -0.23219899
v 2.80783462 -0.64213699 -0.23219899
v 3.05685257 -0.62600702 -0.23219899
v 3.06296658 -0.87224602 -0.23219899
v 2.80970263 -0.87224602 -0.23219899
v 1.91436648 0.34638801 -0.23219899
v 1.97889649 0.58249098 -0.23219899
v 0.26480552 -0.87282097 -0.23219899
v 0.26464751 -0.64551097 -0.23219899
v -0.32641947 -0.41930401 -0.23219899
v -0.09291447 -0.35437598 -0.23219899
v 1.0542525 0.69873201 -0.23219899
v 1.53231954 0.75253099 -0.23219899
v 1.02285146 0.81497198 -0.23219899
v 1.53480947 0.87282097 -0.23219899
v 0.4943315 0.42486798 -0.23219899
v 0.4227375 0.51738297 -0.23219899
v 3.07224845 0.041855 -0.23219899
v 2.97400641 -0.020445 -0.23219899
v 2.57021856 0.42486798 -0.23219899
v 2.6418116 0.51738297 -0.23219899
v 2.01029658 0.69873201 -0.23219899
v 2.04169845 0.81497198 -0.23219899
v 3.30787348 -0.57592797 -0.23219899
v 3.18236351 -0.600968 -0.23219899
v 3.19361853 -0.87224602 -0.23219899
v 3.32427048 -0.87224602 -0.23219899
v 0.09646752 -0.020445 -0.23219899
v 0.00414852 0.041855 -0.23219899
v -2.01029753 0.69873201 -0.23219899
v -1.53223049 0.75253099 -0.23219899
v -2.04169845 0.81497198 -0.23219899
v -1.52974045 0.87282097 -0.23219899
v -2.64181256 0.51738297 -0.23219899
v -2.57021856 0.42486798 -0.23219899
v -2.97400736 -0.020445 -0.23219899
v -3.07224941 0.041855 -0.23219899
v -3.18236446 -0.600968 -0.23219899
v -3.30787539 -0.57592797 -0.23219899
v -3.19361949 -0.87224602 -0.23219899
v -3.32427048 -0.87224602 -0.23219899
v -0.09231847 -0.020445 -0.23219899
v -0.49433147 0.42486798 -0.23219899
v -0.42273846 0.51738297 -0.23219899
v -1.05425345 0.69873201 -0.23219899
v -1.02285242 0.81497198 -0.23219899
v 0.09587152 -0.35437598 -0.23219899
v 0.33038553 -0.420991 -0.23219899
v 0.00177652 -0.18740999 -0.23219899
g Group32941
f 86 85 84 83
g Group32944
f 15 17 83 84
g Group41166
f 16 17 15 13
g Group32941
f 90 89 88 87
g Group32944
f 1 2 87 88
g Group41166
f 11 2 1 9
g Group32941
f 94 93 92 91
g Group32944
f 6 4 94 91
f 4 3 93 94
g Group41166
f 4 6 5 3
g Group32941
f 93 88 89 92
g Group32944
f 3 1 88 93
g Group41166
f 3 5 9 1
g Group32941
f 85 90 87 84
g Group32944
f 2 15 84 87
g Group41166
f 13 15 2 11
g Group32941
f 98 97 96 95
g Group32944
f 20 19 96 97
g Group41166
f 27 25 19 20
g Group32941
f 102 101 100 99
g Group32944
f 21 22 102 99
f 22 24 101 102
g Group41166
f 22 21 23 24
g Group32941
f 104 103 97 98
g Group32944
f 31 20 97 103
g Group41166
f 29 27 20 31
g Group32941
f 103 104 86 83
g Group32944
f 17 31 103 83
g Group41166
f 31 17 16 29
g Group32941
f 108 107 106 105
g Group32944
f 41 43 105 106
g Group41166
f 42 43 41 39
g Group32941
f 112 111 110 109
g Group32944
f 32 33 109 110
g Group41166
f 37 33 32 36
g Group32941
f 107 112 109 106
g Group32944
f 33 41 106 109
g Group41166
f 39 41 33 37
g Group32941
f 116 115 114 113
g Group32944
f 46 45 114 115
g Group41166
f 55 53 45 46
g Group32941
f 120 119 118 117
g Group32944
f 47 48 120 117
f 48 50 119 120
g Group41166
f 48 47 49 50
g Group32941
f 117 118 113 114
g Group32944
f 45 47 117 114
g Group41166
f 47 45 53 49
g Group32941
f 122 121 115 116
g Group32944
f 59 46 115 121
g Group41166
f 57 55 46 59
g Group32941
f 121 122 108 105
g Group32944
f 43 59 121 105
g Group41166
f 59 43 42 57
g Group32941
f 124 100 101 123
g Group32944
f 35 34 124 123
f 24 35 123 101
g Group41166
f 34 35 24 23
g Group32941
f 100 126 125 99
g Group32944
f 61 21 99 125
g Group41166
f 23 21 61 60
g Group32941
f 126 95 96 125
g Group32944
f 19 61 125 96
g Group41166
f 60 61 19 25
g Group32941
f 108 128 127 107
g Group41166
f 42 39 63 62
g Group32941
f 128 130 129 127
g Group32944
f 44 40 129 130
g Group41166
f 62 63 40 44
g Group32941
f 132 131 127 129
g Group32944
f 40 38 132 129
g Group41166
f 38 40 63 64
g Group32941
f 131 112 107 127
g Group41166
f 64 63 39 37
g Group32941
f 136 135 134 133
g Group32944
f 54 56 136 133
g Group41166
f 56 54 66 65
g Group32941
f 135 116 113 134
g Group41166
f 65 66 53 55
g Group32941
f 138 137 135 136
g Group32944
f 56 58 138 136
g Group41166
f 58 56 65 67
g Group32941
f 137 122 116 135
g Group41166
f 67 65 55 57
g Group32941
f 133 134 140 139
g Group32944
f 51 54 133 139
g Group41166
f 54 51 68 66
g Group32941
f 134 113 118 140
g Group41166
f 66 68 49 53
g Group32941
f 119 141 140 118
g Group32944
f 50 69 141 119
g Group41166
f 50 49 68 69
g Group32941
f 141 142 139 140
g Group32944
f 52 51 139 142
f 69 52 142 141
g Group41166
f 69 68 51 52
g Group32941
f 122 137 128 108
g Group41166
f 57 42 62 67
g Group32941
f 137 138 130 128
g Group32944
f 58 44 130 138
g Group41166
f 67 62 44 58
g Group32941
f 112 131 143 111
g Group41166
f 37 36 70 64
g Group32941
f 131 132 144 143
g Group32944
f 38 26 144 132
g Group41166
f 64 70 26 38
g Group32941
f 86 146 145 85
g Group41166
f 16 13 72 71
g Group32941
f 146 148 147 145
g Group32944
f 18 14 147 148
g Group41166
f 71 72 14 18
g Group32941
f 152 151 150 149
g Group32944
f 12 10 152 149
g Group41166
f 10 12 74 73
g Group32941
f 151 89 90 150
g Group41166
f 73 74 11 9
g Group32941
f 149 150 145 147
g Group32944
f 14 12 149 147
g Group41166
f 12 14 72 74
g Group32941
f 150 90 85 145
g Group41166
f 74 72 13 11
g Group32941
f 154 153 151 152
g Group32944
f 10 7 154 152
g Group41166
f 7 10 73 75
g Group32941
f 153 92 89 151
g Group41166
f 75 73 9 5
g Group32941
f 92 153 155 91
g Group32944
f 76 6 91 155
g Group41166
f 5 6 76 75
g Group32941
f 153 154 156 155
g Group32944
f 8 76 155 156
f 7 8 156 154
g Group41166
f 75 76 8 7
g Group32941
f 159 158 157 144
g Group32944
f 26 28 159 144
g Group41166
f 28 26 78 77
g Group32941
f 158 98 95 157
g Group41166
f 77 78 25 27
g Group32941
f 161 160 158 159
g Group32944
f 28 30 161 159
g Group41166
f 30 28 77 79
g Group32941
f 160 104 98 158
g Group41166
f 79 77 27 29
g Group32941
f 104 160 146 86
g Group41166
f 29 16 71 79
g Group32941
f 160 161 148 146
g Group32944
f 30 18 148 161
g Group41166
f 79 71 18 30
g Group32941
f 124 163 162 100
g Group32944
f 34 80 163 124
g Group41166
f 34 23 81 80
g Group32941
f 163 110 111 162
g Group32944
f 80 32 110 163
g Group41166
f 80 81 36 32
g Group32941
f 126 164 157 95
g Group41166
f 60 25 78 82
g Group32941
f 164 143 144 157
g Group41166
f 82 78 26 70
g Group32941
f 100 162 164 126
g Group41166
f 23 60 82 81
g Group32941
f 162 111 143 164
g Group41166
f 81 82 70 36

 