# File exported by ZBrush version 2021
# www.zbrush.com
#Vertex Count 1348
#Face Count 1346
#Auto scale x=1.000000 y=1.000000 z=1.000000
#Auto offset x=0.000000 y=0.000000 z=0.000000
v -0.10200694 0.19074247 0.1011235
v -0.12617994 0.18941147 0.1011295
v -0.15080994 0.18258446 0.1011355
v -0.17462694 0.17005747 0.10114049
v -0.19630993 0.15191946 0.10114549
v -0.21454694 0.12856346 0.1011515
v -0.22810694 0.10068947 0.1011555
v -0.23590993 0.06927646 0.1011605
v -0.23708894 0.03555747 0.1011655
v -0.23105093 0.00096647 0.1011695
v -0.21751694 -0.03292252 0.1011735
v -0.19655594 -0.06446352 0.1011765
v -0.16859994 -0.09201653 0.1011805
v -0.13444495 -0.11402852 0.1011845
v -0.09522894 -0.12911553 0.1011875
v -0.05239594 -0.13613252 0.1011905
v -0.00764594 -0.13424553 0.1011935
v 0.03713605 -0.12298353 0.1011965
v 0.07995905 -0.10228052 0.1011995
v 0.11881205 -0.07249652 0.1012015
v 0.15175505 -0.03442452 0.1012045
v 0.17701305 0.01072647 0.10120549
v 0.19306805 0.06137047 0.1012075
v 0.19873505 0.11559546 0.10120949
v 0.19323405 0.17123746 0.1012105
v 0.17623806 0.22596646 0.1012125
v 0.14791405 0.27738148 0.1012135
v 0.10893605 0.32312145 0.10121449
v 0.06046905 0.36096346 0.10121449
v 0.00414505 0.38893148 0.1012155
v -0.05799194 0.40539348 0.1012155
v -0.12356294 0.40914645 0.1012155
v -0.18993794 0.39948648 0.1012155
v -0.25434893 0.37625747 0.1012155
v -0.31399795 0.33987745 0.10121449
v -0.36618495 0.29134747 0.10121449
v -0.40842396 0.23222146 0.1012135
v -0.43855693 0.16456747 0.1012125
v -0.45486193 0.09089147 0.1012115
v -0.45613995 0.01404447 0.10120949
v -0.44178494 -0.06288352 0.1012085
v -0.41183194 -0.13669152 0.1012065
v -0.36697194 -0.20419852 0.1012045
v -0.30854794 -0.26238152 0.1012015
v -0.23852194 -0.30850651 0.1011995
v -0.15940295 -0.34025451 0.1011965
v -0.07416394 -0.35583654 0.1011945
v 0.01387005 -0.35407954 0.10119149
v 0.10115105 -0.33450052 0.1011885
v 0.18405605 -0.29734253 0.1011845
v 0.25903105 -0.24359253 0.1011805
v 0.32274404 -0.17495353 0.10117749
v 0.37223306 -0.09380152 0.1011735
v 0.40504205 -0.00310053 0.1011695
v 0.41933405 0.09370447 0.1011655
v 0.41398605 0.19281446 0.1011615
v 0.38865906 0.29023048 0.1011565
v 0.34382906 0.38191247 0.1011515
v 0.28079205 0.46394747 0.1011465
v 0.20163005 0.53271347 0.1011415
v 0.10914705 0.58503949 0.1011355
v 0.00676905 0.61834949 0.1011305
v -0.10158194 0.63078248 0.1011245
v -0.21163694 0.62129044 0.1011185
v -0.31894895 0.58970046 0.1011125
v -0.41907295 0.53673946 0.1011055
v -0.50774496 0.46403548 0.10109949
v -0.58107394 0.37406247 0.1010925
v -0.63569897 0.27006346 0.10108549
v -0.66894596 0.15593347 0.1010785
v -0.67895495 0.03607447 0.10107149
v -0.66477096 -0.08477353 0.1010635
v -0.62640994 -0.20172253 0.1010565
v -0.56487494 -0.30993151 0.10104849
v -0.48213893 -0.40480753 0.10103949
v -0.38108193 -0.48219952 0.1010315
v -0.26540094 -0.53857851 0.1010235
v -0.13946594 -0.57119554 0.1010145
v -0.00815994 -0.57821255 0.1010055
v 0.12331005 -0.55879551 0.1009965
v 0.24961805 -0.51316654 0.1009875
v 0.36554104 -0.44262453 0.1009785
v 0.46617004 -0.34950554 0.1009685
v 0.54711407 -0.23711353 0.1009585
v 0.60469508 -0.10960453 0.1009485
v 0.63611406 0.02816947 0.10093849
v 0.63957506 0.17084047 0.1009285
v 0.61438506 0.31273746 0.1009175
v 0.56100207 0.44811046 0.1009075
v 0.48103305 0.57136148 0.1008955
v 0.37719804 0.67727845 0.1008845
v 0.25323706 0.76125246 0.1008735
v 0.11377505 0.81948047 0.1008615
v -0.03584794 0.84912848 0.1008505
v -0.18978194 0.84847247 0.1008385
v -0.34189394 0.81698048 0.1008265
v -0.48601594 0.75536346 0.10081449
v -0.61619097 0.66556346 0.1008015
v -0.72691994 0.55069649 0.1007885
v -0.81339496 0.41495147 0.1007765
v -0.87170594 0.26343146 0.1007625
v -0.89901197 0.10196746 0.1007495
v -0.89367795 -0.06310553 0.10073649
v -0.85536193 -0.22520053 0.10072249
v -0.78504496 -0.37773853 0.10070949
v -0.68502295 -0.51441752 0.10069549
v -0.55882495 -0.62947052 0.10068149
v -0.41109895 -0.71790754 0.1006665
v -0.24743594 -0.77573454 0.1006525
v -0.07416394 -0.80012452 0.1006375
v -0.11509994 0.26098448 0.10113149
v -0.14292395 0.25945147 0.1011375
v -0.18251395 0.24847747 0.1011435
v -0.22018294 0.22866547 0.1011505
v -0.25397694 0.20039646 0.1011565
v -0.28202095 0.16448047 0.1011625
v -0.30262193 0.12213347 0.10116849
v -0.31434294 0.07494447 0.1011735
v -0.31609693 0.02481047 0.1011785
v -0.30720493 -0.02613152 0.1011835
v -0.28744894 -0.07560153 0.1011885
v -0.25709995 -0.12126752 0.1011925
v -0.21693295 -0.16085453 0.1011975
v -0.16820994 -0.19225652 0.1012015
v -0.11263794 -0.21363653 0.10120549
v -0.05232294 -0.22351752 0.10120949
v 0.01032205 -0.22087553 0.1012135
v 0.07266505 -0.20519752 0.1012165
v 0.13197004 -0.17652553 0.1012195
v 0.18550905 -0.13548353 0.1012225
v 0.23069004 -0.08326753 0.1012265
v 0.26518005 -0.02161552 0.10122849
v 0.28701004 0.04724347 0.1012305
v 0.29468405 0.12067647 0.1012335
v 0.28726205 0.19574147 0.1012355
v 0.26441606 0.26930448 0.1012365
v 0.22647805 0.33817446 0.1012395
v 0.17444105 0.39923846 0.1012405
v 0.10994105 0.44959846 0.10124149
v 0.03521305 0.48670446 0.1012435
v -0.04698794 0.50848144 0.1012435
v -0.13348794 0.51343345 0.1012445
v -0.22081394 0.50072348 0.1012455
v -0.30533695 0.47024047 0.1012455
v -0.38341793 0.42261946 0.1012455
v -0.45156994 0.35924348 0.1012455
v -0.50660294 0.28220847 0.1012455
v -0.54577595 0.19425746 0.1012455
v -0.56692796 0.09868147 0.1012445
v -0.56858295 -0.00080353 0.1012435
v -0.55003696 -0.10019452 0.1012435
v -0.51140993 -0.19537253 0.1012405
v -0.45366993 -0.28226351 0.1012405
v -0.37860593 -0.35701853 0.1012385
v -0.28878995 -0.41617852 0.1012365
v -0.18748295 -0.45682951 0.1012345
v -0.07851694 -0.47674852 0.1012335
v 0.03384305 -0.47450652 0.1012305
v 0.14507305 -0.44955453 0.10122849
v 0.25056806 -0.40227153 0.1012255
v 0.34583506 -0.33397352 0.1012225
v 0.42667904 -0.24687953 0.1012195
v 0.48939004 -0.14404752 0.1012155
v 0.53090804 -0.02926852 0.1012125
v 0.54897105 0.09307747 0.1012085
v 0.54222106 0.21818047 0.10120549
v 0.51028907 0.34099546 0.10120049
v 0.45383805 0.45644545 0.1011965
v 0.37455004 0.55962848 0.1011925
v 0.27509406 0.64602345 0.1011885
v 0.15902905 0.71169245 0.1011835
v 0.03068205 0.75345146 0.10117749
v -0.10501194 0.76902246 0.1011735
v -0.24269995 0.75714749 0.1011675
v -0.37682393 0.71766346 0.1011625
v -0.50184094 0.65153545 0.1011565
v -0.61245691 0.56084048 0.1011505
v -0.70384794 0.44870546 0.1011445
v -0.77186495 0.31920746 0.1011375
v -0.81322795 0.17721946 0.10113149
v -0.82566893 0.02823147 0.1011245
v -0.80805295 -0.12185853 0.10111749
v -0.76044893 -0.26698851 0.1011105
v -0.68414795 -0.40116351 0.1011035
v -0.58163791 -0.51871353 0.1010965
v -0.45652693 -0.61452651 0.1010885
v -0.31341695 -0.68427354 0.1010805
v -0.15773694 -0.72459453 0.1010725
v 0.00446405 -0.73326355 0.1010635
v 0.16675305 -0.70929354 0.1010565
v 0.32256406 -0.6530075 0.1010475
v 0.46546605 -0.56604754 0.1010385
v 0.58943206 -0.45133253 0.1010295
v 0.68908304 -0.31296652 0.1010205
v 0.75992608 -0.15608952 0.1010105
v 0.79855704 0.01331047 0.1010015
v 0.80281102 0.18862347 0.1009915
v 0.77187705 0.36288148 0.1009815
v 0.70635706 0.52902847 0.1009715
v 0.60826605 0.68020945 0.10096149
v 0.48097404 0.81005448 0.1009505
v 0.32909405 0.91294348 0.1009395
v 0.15831504 0.98424649 0.10092949
v -0.02480894 1.02053237 0.1009185
v -0.21310794 1.01972937 0.1009075
v -0.39908194 0.98122847 0.1008945
v -0.57519692 0.90593349 0.10088349
v -0.73418796 0.79625344 0.1008725
v -0.86936193 0.65602845 0.10086049
v -0.97487694 0.49039447 0.1008475
v -1.04599189 0.30560246 0.1008345
v -1.07927894 0.10877647 0.1008225
v -1.07277989 -0.09235753 0.1008095
v -1.02611398 -0.28977352 0.10079649
v -0.94051396 -0.47546753 0.1007835
v -0.81880396 -0.6417815 0.1007705
v -0.66796892 -0.77465754 0.1007145
v -2.10140991 0.19074247 0.1011235
v -2.12558388 0.18941147 0.1011295
v -2.150213 0.18258446 0.1011355
v -2.17402982 0.17005747 0.10114049
v -2.19571399 0.15191946 0.10114549
v -2.21395087 0.12856346 0.1011515
v -2.22750997 0.10068947 0.1011555
v -2.23531293 0.06927646 0.1011605
v -2.23649287 0.03555747 0.1011655
v -2.23045492 0.00096647 0.1011695
v -2.21692085 -0.03292252 0.1011735
v -2.19596004 -0.06446352 0.1011765
v -2.16800284 -0.09201653 0.1011805
v -2.1338489 -0.11402852 0.1011845
v -2.09463286 -0.12911553 0.1011875
v -2.05180001 -0.13613252 0.1011905
v -2.00705099 -0.13424553 0.1011935
v -1.96226799 -0.12298353 0.1011965
v -1.91944491 -0.10228052 0.1011995
v -1.88059198 -0.07249652 0.1012015
v -1.84764897 -0.03442452 0.1012045
v -1.82238996 0.01072647 0.10120549
v -1.80633497 0.06137047 0.1012075
v -1.800668 0.11559546 0.10120949
v -1.80616998 0.17123746 0.1012105
v -1.82316589 0.22596646 0.1012125
v -1.85148894 0.27738148 0.1012135
v -1.890468 0.32312145 0.10121449
v -1.93893599 0.36096346 0.10121449
v -1.99525892 0.38893148 0.1012155
v -2.05739688 0.40539348 0.1012155
v -2.122967 0.40914645 0.1012155
v -2.18934202 0.39948648 0.1012155
v -2.25375199 0.37625747 0.1012155
v -2.31340193 0.33987745 0.10121449
v -2.36558795 0.29134747 0.10121449
v -2.4078269 0.23222146 0.1012135
v -2.4379599 0.16456747 0.1012125
v -2.45426583 0.09089147 0.1012115
v -2.45554399 0.01404447 0.10120949
v -2.44118905 -0.06288352 0.1012085
v -2.41123485 -0.13669152 0.1012065
v -2.36637496 -0.20419852 0.1012045
v -2.30795192 -0.26238152 0.1012015
v -2.237926 -0.30850651 0.1011995
v -2.15880703 -0.34025451 0.1011965
v -2.07356691 -0.35583654 0.1011945
v -1.98553395 -0.35407954 0.10119149
v -1.89825296 -0.33450052 0.1011885
v -1.81534695 -0.29734253 0.1011845
v -1.74037289 -0.24359253 0.1011805
v -1.67665898 -0.17495353 0.10117749
v -1.62716996 -0.09380152 0.1011735
v -1.59436094 -0.00310053 0.1011695
v -1.58006894 0.09370447 0.1011655
v -1.58541798 0.19281446 0.1011615
v -1.61074495 0.29023048 0.1011565
v -1.65557396 0.38191247 0.1011515
v -1.7186129 0.46394747 0.1011465
v -1.797773 0.53271347 0.1011415
v -1.89025592 0.58503949 0.1011355
v -1.99263489 0.61834949 0.1011305
v -2.10098505 0.63078248 0.1011245
v -2.21104097 0.62129044 0.1011185
v -2.31835293 0.58970046 0.1011125
v -2.41847586 0.53673946 0.1011055
v -2.50714898 0.46403548 0.10109949
v -2.58047795 0.37406247 0.1010925
v -2.63510203 0.27006346 0.10108549
v -2.66834998 0.15593347 0.1010785
v -2.67835688 0.03607447 0.10107149
v -2.66417384 -0.08477353 0.1010635
v -2.625813 -0.20172253 0.1010565
v -2.56427884 -0.30993151 0.10104849
v -2.48154187 -0.40480753 0.10103949
v -2.38048601 -0.48219952 0.1010315
v -2.26480484 -0.53857851 0.1010235
v -2.13887 -0.57119554 0.1010145
v -2.00756382 -0.57821255 0.1010055
v -1.87609398 -0.55879551 0.1009965
v -1.7497859 -0.51316654 0.1009875
v -1.63386189 -0.44262453 0.1009785
v -1.533234 -0.34950554 0.1009685
v -1.45228993 -0.23711353 0.1009585
v -1.39470899 -0.10960453 0.1009485
v -1.36328995 0.02816947 0.10093849
v -1.35982799 0.17084047 0.1009285
v -1.38501799 0.31273746 0.1009175
v -1.43840193 0.44811046 0.1009075
v -1.51837098 0.57136148 0.1008955
v -1.6222049 0.67727845 0.1008845
v -1.74616599 0.76125246 0.1008735
v -1.88562798 0.81948047 0.1008615
v -2.03525185 0.84912848 0.1008505
v -2.1891849 0.84847247 0.1008385
v -2.34129786 0.81698048 0.1008265
v -2.48541903 0.75536346 0.10081449
v -2.61559486 0.66556346 0.1008015
v -2.72632288 0.55069649 0.1007885
v -2.81279897 0.41495147 0.1007765
v -2.871109 0.26343146 0.1007625
v -2.89841485 0.10196746 0.1007495
v -2.8930819 -0.06310553 0.10073649
v -2.85476493 -0.22520053 0.10072249
v -2.78444886 -0.37773853 0.10070949
v -2.68442583 -0.51441752 0.10069549
v -2.55822897 -0.62947052 0.10068149
v -2.07356691 -0.80012452 0.1006375
v -2.11450386 0.26098448 0.10113149
v -2.14232683 0.25945147 0.1011375
v -2.1819179 0.24847747 0.1011435
v -2.21958684 0.22866547 0.1011505
v -2.25338101 0.20039646 0.1011565
v -2.28142595 0.16448047 0.1011625
v -2.30202484 0.12213347 0.10116849
v -2.31374597 0.07494447 0.1011735
v -2.31550002 0.02481047 0.1011785
v -2.30660891 -0.02613152 0.1011835
v -2.28685188 -0.07560153 0.1011885
v -2.25650286 -0.12126752 0.1011925
v -2.21633696 -0.16085453 0.1011975
v -2.16761302 -0.19225652 0.1012015
v -2.11204195 -0.21363653 0.10120549
v -2.05172705 -0.22351752 0.10120949
v -1.98908197 -0.22087553 0.1012135
v -1.9267379 -0.20519752 0.1012165
v -1.86743497 -0.17652553 0.1012195
v -1.81389498 -0.13548353 0.1012225
v -1.76871395 -0.08326753 0.1012265
v -1.73422396 -0.02161552 0.10122849
v -1.71239399 0.04724347 0.1012305
v -1.70471894 0.12067647 0.1012335
v -1.71214199 0.19574147 0.1012355
v -1.73498797 0.26930448 0.1012365
v -1.7729249 0.33817446 0.1012395
v -1.82496297 0.39923846 0.1012405
v -1.88946294 0.44959846 0.10124149
v -1.96419096 0.48670446 0.1012435
v -2.04639101 0.50848144 0.1012435
v -2.13289094 0.51343345 0.1012445
v -2.22021794 0.50072348 0.1012455
v -2.3047409 0.47024047 0.1012455
v -2.38282299 0.42261946 0.1012455
v -2.45097303 0.35924348 0.1012455
v -2.506006 0.28220847 0.1012455
v -2.54517984 0.19425746 0.1012455
v -2.56633186 0.09868147 0.1012445
v -2.56798601 -0.00080353 0.1012435
v -2.5494399 -0.10019452 0.1012435
v -2.51081395 -0.19537253 0.1012405
v -2.45307302 -0.28226351 0.1012405
v -2.37800884 -0.35701853 0.1012385
v -2.28819489 -0.41617852 0.1012365
v -2.18688702 -0.45682951 0.1012345
v -2.07791996 -0.47674852 0.1012335
v -1.96556091 -0.47450652 0.1012305
v -1.85433089 -0.44955453 0.10122849
v -1.74883496 -0.40227153 0.1012255
v -1.65356791 -0.33397352 0.1012225
v -1.57272493 -0.24687953 0.1012195
v -1.51001393 -0.14404752 0.1012155
v -1.46849489 -0.02926852 0.1012125
v -1.45043194 0.09307747 0.1012085
v -1.457183 0.21818047 0.10120549
v -1.489115 0.34099546 0.10120049
v -1.54556596 0.45644545 0.1011965
v -1.62485289 0.55962848 0.1011925
v -1.72430896 0.64602345 0.1011885
v -1.84037494 0.71169245 0.1011835
v -1.96872198 0.75345146 0.10117749
v -2.10441589 0.76902246 0.1011735
v -2.24210405 0.75714749 0.1011675
v -2.3762269 0.71766346 0.1011625
v -2.50124383 0.65153545 0.1011565
v -2.61186003 0.56084048 0.1011505
v -2.70325088 0.44870546 0.1011445
v -2.77126884 0.31920746 0.1011375
v -2.81263184 0.17721946 0.10113149
v -2.825073 0.02823147 0.1011245
v -2.80745697 -0.12185853 0.10111749
v -2.75985288 -0.26698851 0.1011105
v -2.68355083 -0.40116351 0.1011035
v -2.58104085 -0.51871353 0.1010965
v -2.45592999 -0.61452651 0.1010885
v -2.31282091 -0.68427354 0.1010805
v -2.15714097 -0.72459453 0.1010725
v -1.99493992 -0.73326355 0.1010635
v -1.8326509 -0.70929354 0.1010565
v -1.67683994 -0.6530075 0.1010475
v -1.53393697 -0.56604754 0.1010385
v -1.40997195 -0.45133253 0.1010295
v -1.31032097 -0.31296652 0.1010205
v -1.23947691 -0.15608952 0.1010105
v -1.20084595 0.01331047 0.1010015
v -1.19659197 0.18862347 0.1009915
v -1.2275269 0.36288148 0.1009815
v -1.29304695 0.52902847 0.1009715
v -1.391137 0.68020945 0.10096149
v -1.51842999 0.81005448 0.1009505
v -1.6703099 0.91294348 0.1009395
v -1.84108996 0.98424649 0.10092949
v -2.02421283 1.02053237 0.1009185
v -2.21251106 1.01972937 0.1009075
v -2.39848494 0.98122847 0.1008945
v -2.57459998 0.90593349 0.10088349
v -2.73359203 0.79625344 0.1008725
v -2.86876487 0.65602845 0.10086049
v -2.97428083 0.49039447 0.1008475
v -3.04539489 0.30560246 0.1008345
v -3.07868099 0.10877647 0.1008225
v -3.07218289 -0.09235753 0.1008095
v -3.02551603 -0.28977352 0.10079649
v -2.93991684 -0.47546753 0.1007835
v -2.81820702 -0.6417815 0.1007705
v -2.07526087 -0.98920953 0.1007145
v -1.50490498 -1.01049757 0.1007145
v -1.5032109 -0.8294695 0.1006375
v -0.92046594 -1.02052354 0.1007145
v -0.95108795 -0.84341651 0.1006375
v -0.56003391 -0.8774355 0.1007105
v -0.27276793 -0.98807454 0.1007295
v -0.07367294 -0.9892835 0.1007295
v 1.89827907 0.19074247 0.1011235
v 1.87410605 0.18941147 0.1011295
v 1.84947705 0.18258446 0.1011355
v 1.82565903 0.17005747 0.10114049
v 1.8039751 0.15191946 0.10114549
v 1.78574001 0.12856346 0.1011515
v 1.772179 0.10068947 0.1011555
v 1.76437699 0.06927646 0.1011605
v 1.76319706 0.03555747 0.1011655
v 1.76923406 0.00096647 0.1011695
v 1.78277003 -0.03292252 0.1011735
v 1.80373108 -0.06446352 0.1011765
v 1.83168602 -0.09201653 0.1011805
v 1.86584103 -0.11402852 0.1011845
v 1.90505707 -0.12911553 0.1011875
v 1.94788909 -0.13613252 0.1011905
v 1.99264001 -0.13424553 0.1011935
v 2.03742313 -0.12298353 0.1011965
v 2.08024597 -0.10228052 0.1011995
v 2.11909914 -0.07249652 0.1012015
v 2.15204 -0.03442452 0.1012045
v 2.17729997 0.01072647 0.10120549
v 2.19335508 0.06137047 0.1012075
v 2.19902205 0.11559546 0.10120949
v 2.19352006 0.17123746 0.1012105
v 2.17652416 0.22596646 0.1012125
v 2.14820003 0.27738148 0.1012135
v 2.10922193 0.32312145 0.10121449
v 2.06075406 0.36096346 0.10121449
v 2.00443005 0.38893148 0.1012155
v 1.942294 0.40539348 0.1012155
v 1.87672209 0.40914645 0.1012155
v 1.81034803 0.39948648 0.1012155
v 1.74593806 0.37625747 0.1012155
v 1.68628799 0.33987745 0.10121449
v 1.63410103 0.29134747 0.10121449
v 1.59186101 0.23222146 0.1012135
v 1.561728 0.16456747 0.1012125
v 1.5454241 0.09089147 0.1012115
v 1.54414606 0.01404447 0.10120949
v 1.558501 -0.06288352 0.1012085
v 1.58845508 -0.13669152 0.1012065
v 1.63331401 -0.20419852 0.1012045
v 1.69173705 -0.26238152 0.1012015
v 1.76176309 -0.30850651 0.1011995
v 1.84088301 -0.34025451 0.1011965
v 1.92612206 -0.35583654 0.1011945
v 2.0141561 -0.35407954 0.10119149
v 2.10143709 -0.33450052 0.1011885
v 2.1843431 -0.29734253 0.1011845
v 2.25931716 -0.24359253 0.1011805
v 2.32303094 -0.17495353 0.10117749
v 2.37251806 -0.09380152 0.1011735
v 2.40532803 -0.00310053 0.1011695
v 2.41962003 0.09370447 0.1011655
v 2.41427111 0.19281446 0.1011615
v 2.38894414 0.29023048 0.1011565
v 2.34411406 0.38191247 0.1011515
v 2.28107905 0.46394747 0.1011465
v 2.20191597 0.53271347 0.1011415
v 2.10943412 0.58503949 0.1011355
v 2.00705504 0.61834949 0.1011305
v 1.89870405 0.63078248 0.1011245
v 1.78864908 0.62129044 0.1011185
v 1.68133604 0.58970046 0.1011125
v 1.58121407 0.53673946 0.1011055
v 1.49254 0.46403548 0.10109949
v 1.41921103 0.37406247 0.1010925
v 1.36458599 0.27006346 0.10108549
v 1.33134007 0.15593347 0.1010785
v 1.32133007 0.03607447 0.10107149
v 1.33551406 -0.08477353 0.1010635
v 1.37387609 -0.20172253 0.1010565
v 1.43541002 -0.30993151 0.10104849
v 1.51814711 -0.40480753 0.10103949
v 1.61920404 -0.48219952 0.1010315
v 1.73488509 -0.53857851 0.1010235
v 1.86082005 -0.57119554 0.1010145
v 1.99212503 -0.57821255 0.1010055
v 2.12359595 -0.55879551 0.1009965
v 2.24990415 -0.51316654 0.1009875
v 2.36582708 -0.44262453 0.1009785
v 2.46645498 -0.34950554 0.1009685
v 2.54739999 -0.23711353 0.1009585
v 2.60498094 -0.10960453 0.1009485
v 2.63639998 0.02816947 0.10093849
v 2.63986206 0.17084047 0.1009285
v 2.61467099 0.31273746 0.1009175
v 2.56128811 0.44811046 0.1009075
v 2.48131895 0.57136148 0.1008955
v 2.37748503 0.67727845 0.1008845
v 2.25352406 0.76125246 0.1008735
v 2.11406111 0.81948047 0.1008615
v 1.96443808 0.84912848 0.1008505
v 1.81050503 0.84847247 0.1008385
v 1.65839207 0.81698048 0.1008265
v 1.51427006 0.75536346 0.10081449
v 1.38409507 0.66556346 0.1008015
v 1.27336704 0.55069649 0.1007885
v 1.18689 0.41495147 0.1007765
v 1.12858009 0.26343146 0.1007625
v 1.10127401 0.10196746 0.1007495
v 1.10660708 -0.06310553 0.10073649
v 1.14492404 -0.22520053 0.10072249
v 1.21524 -0.37773853 0.10070949
v 1.31526303 -0.51441752 0.10069549
v 1.44146001 -0.62947052 0.10068149
v 1.58918702 -0.71790754 0.1006665
v 1.75285005 -0.77573454 0.1006525
v 1.92612206 -0.80012452 0.1006375
v 1.885185 0.26098448 0.10113149
v 1.8573631 0.25945147 0.1011375
v 1.81777107 0.24847747 0.1011435
v 1.78010308 0.22866547 0.1011505
v 1.74630808 0.20039646 0.1011565
v 1.7182641 0.16448047 0.1011625
v 1.69766402 0.12213347 0.10116849
v 1.685943 0.07494447 0.1011735
v 1.68418908 0.02481047 0.1011785
v 1.69308102 -0.02613152 0.1011835
v 1.7128371 -0.07560153 0.1011885
v 1.74318599 -0.12126752 0.1011925
v 1.78335309 -0.16085453 0.1011975
v 1.83207607 -0.19225652 0.1012015
v 1.88764703 -0.21363653 0.10120549
v 1.94796407 -0.22351752 0.10120949
v 2.01060795 -0.22087553 0.1012135
v 2.07295203 -0.20519752 0.1012165
v 2.13225507 -0.17652553 0.1012195
v 2.18579411 -0.13548353 0.1012225
v 2.23097801 -0.08326753 0.1012265
v 2.26546597 -0.02161552 0.10122849
v 2.28729605 0.04724347 0.1012305
v 2.29497194 0.12067647 0.1012335
v 2.28754901 0.19574147 0.1012355
v 2.26470112 0.26930448 0.1012365
v 2.22676515 0.33817446 0.1012395
v 2.17472815 0.39923846 0.1012405
v 2.1102271 0.44959846 0.10124149
v 2.03549909 0.48670446 0.1012435
v 1.95329809 0.50848144 0.1012435
v 1.86679804 0.51343345 0.1012445
v 1.77947211 0.50072348 0.1012455
v 1.69494903 0.47024047 0.1012455
v 1.61686706 0.42261946 0.1012455
v 1.54871499 0.35924348 0.1012455
v 1.4936831 0.28220847 0.1012455
v 1.45451009 0.19425746 0.1012455
v 1.43335807 0.09868147 0.1012445
v 1.43170309 -0.00080353 0.1012435
v 1.45024907 -0.10019452 0.1012435
v 1.4888761 -0.19537253 0.1012405
v 1.54661607 -0.28226351 0.1012405
v 1.62168002 -0.35701853 0.1012385
v 1.71149599 -0.41617852 0.1012365
v 1.81280207 -0.45682951 0.1012345
v 1.92177009 -0.47674852 0.1012335
v 2.03412914 -0.47450652 0.1012305
v 2.14535903 -0.44955453 0.10122849
v 2.25085616 -0.40227153 0.1012255
v 2.34612202 -0.33397352 0.1012225
v 2.42696404 -0.24687953 0.1012195
v 2.48967599 -0.14404752 0.1012155
v 2.53119397 -0.02926852 0.1012125
v 2.54925704 0.09307747 0.1012085
v 2.54250598 0.21818047 0.10120549
v 2.51057505 0.34099546 0.10120049
v 2.45412516 0.45644545 0.1011965
v 2.37483596 0.55962848 0.1011925
v 2.27538108 0.64602345 0.1011885
v 2.1593151 0.71169245 0.1011835
v 2.03096795 0.75345146 0.10117749
v 1.89527404 0.76902246 0.1011735
v 1.757586 0.75714749 0.1011675
v 1.62346303 0.71766346 0.1011625
v 1.49844503 0.65153545 0.1011565
v 1.38782906 0.56084048 0.1011505
v 1.29643702 0.44870546 0.1011445
v 1.22842001 0.31920746 0.1011375
v 1.18705701 0.17721946 0.10113149
v 1.17461705 0.02823147 0.1011245
v 1.19223308 -0.12185853 0.10111749
v 1.23983609 -0.26698851 0.1011105
v 1.31613802 -0.40116351 0.1011035
v 1.418648 -0.51871353 0.1010965
v 1.54375803 -0.61452651 0.1010885
v 1.68686807 -0.68427354 0.1010805
v 1.84254801 -0.72459453 0.1010725
v 2.00474906 -0.73326355 0.1010635
v 2.16704011 -0.70929354 0.1010565
v 2.32284998 -0.6530075 0.1010475
v 2.46575212 -0.56604754 0.1010385
v 2.58971715 -0.45133253 0.1010295
v 2.68936896 -0.31296652 0.1010205
v 2.76021194 -0.15608952 0.1010105
v 2.79884314 0.01331047 0.1010015
v 2.80309605 0.18862347 0.1009915
v 2.772161 0.36288148 0.1009815
v 2.7066431 0.52902847 0.1009715
v 2.60855197 0.68020945 0.10096149
v 2.4812591 0.81005448 0.1009505
v 2.32938003 0.91294348 0.1009395
v 2.15860104 0.98424649 0.10092949
v 1.97547709 1.02053237 0.1009185
v 1.78717804 1.01972937 0.1009075
v 1.60120511 0.98122847 0.1008945
v 1.425089 0.90593349 0.10088349
v 1.26609802 0.79625344 0.1008725
v 1.13092303 0.65602845 0.10086049
v 1.0254091 0.49039447 0.1008475
v 0.95429402 0.30560246 0.1008345
v 0.92100703 0.10877647 0.1008225
v 0.92750507 -0.09235753 0.1008095
v 0.97417205 -0.28977352 0.10079649
v 1.05977201 -0.47546753 0.1007835
v 1.18148207 -0.6417815 0.1007705
v 1.33247506 -0.77799755 0.1007195
v 0.49538004 -1.01049757 0.1007145
v 0.49707505 -0.8294695 0.1006375
v 1.07981908 -1.02052354 0.1007145
v 1.04919803 -0.84341651 0.1006375
v 1.43950605 -0.89339053 0.1007115
v 1.72663009 -0.98962855 0.1007295
v 1.92661202 -0.9892835 0.1007295
v -2.41164898 -0.71790754 0.1006665
v -2.24798703 -0.77573454 0.1006525
v -2.66752505 -0.78047853 0.1007285
v -2.92101693 -1.02052354 0.1007145
v -2.95163893 -0.84341651 0.1006375
v -2.5621109 -0.91397553 0.10071349
v -2.27342295 -0.98782151 0.1007295
v 2.49432396 -1.01049757 0.1007145
v 2.49601817 -0.8294695 0.1006375
v 3.07876205 -1.02052354 0.1007145
v 3.04814004 -0.84341651 0.1006375
v -0.12622293 0.18942247 -0.10075349
v -0.14296694 0.25946345 -0.10074549
v -0.11514694 0.26099747 -0.10075149
v -0.10205294 0.19075547 -0.10075949
v -0.15084993 0.18259146 -0.1007475
v -0.18255394 0.24848447 -0.1007395
v -0.17466694 0.17005947 -0.10074249
v -0.22022394 0.22866746 -0.10073249
v -0.19634994 0.15191547 -0.1007375
v -0.25401693 0.20039247 -0.10072649
v -0.21458594 0.12855346 -0.10073149
v -0.28206095 0.16447046 -0.1007215
v -0.22814394 0.10067547 -0.10072749
v -0.30265894 0.12212047 -0.10071449
v -0.23594394 0.06925746 -0.10072249
v -0.31437695 0.07492546 -0.1007105
v -0.23712094 0.03553146 -0.10071749
v -0.31612893 0.02478547 -0.10070449
v -0.23107995 0.00093647 -0.10071349
v -0.30723395 -0.02616152 -0.10069949
v -0.21754194 -0.03295652 -0.1007105
v -0.28747293 -0.07563553 -0.1006945
v -0.19657294 -0.06450153 -0.10070649
v -0.25711795 -0.12130452 -0.10069049
v -0.16861094 -0.09205752 -0.1007025
v -0.21694394 -0.16089552 -0.1006855
v -0.13444994 -0.11407153 -0.10069849
v -0.16821494 -0.19229953 -0.10068149
v -0.09522594 -0.12915852 -0.10069549
v -0.11263494 -0.21367852 -0.10067749
v -0.05238594 -0.13617552 -0.1006925
v -0.05231194 -0.22356052 -0.1006735
v -0.00762794 -0.13428753 -0.10068949
v 0.01034105 -0.22091752 -0.10066949
v 0.03716205 -0.12302152 -0.10068649
v 0.07269105 -0.20523552 -0.1006665
v 0.07999205 -0.10231453 -0.1006835
v 0.13200205 -0.17655952 -0.1006635
v 0.11885005 -0.07252352 -0.10068149
v 0.18554705 -0.13551153 -0.10066049
v 0.15179905 -0.03444552 -0.10067849
v 0.23073405 -0.08328852 -0.1006575
v 0.17706005 0.01071347 -0.10067749
v 0.26522806 -0.02162852 -0.1006545
v 0.19311805 0.06136646 -0.1006755
v 0.28705906 0.04724047 -0.10065249
v 0.19878505 0.11560147 -0.1006735
v 0.29473406 0.12068247 -0.10064949
v 0.19328305 0.17125247 -0.1006725
v 0.28731104 0.19575646 -0.1006475
v 0.17628306 0.22599047 -0.10067149
v 0.26446205 0.26932945 -0.1006465
v 0.14795506 0.27741548 -0.10066949
v 0.22651904 0.33820846 -0.10064349
v 0.10897105 0.32316246 -0.10066849
v 0.17447605 0.39927947 -0.10064249
v 0.06049605 0.36101046 -0.10066849
v 0.10996805 0.44964546 -0.10064149
v 0.00416205 0.38898345 -0.10066749
v 0.03523005 0.48675647 -0.1006395
v -0.05798494 0.40544846 -0.10066749
v -0.04698094 0.50853747 -0.1006395
v -0.12356694 0.40920245 -0.10066749
v -0.13349095 0.51348948 -0.1006385
v -0.18995194 0.39954248 -0.10066749
v -0.22082795 0.50077849 -0.1006375
v -0.25437295 0.37630948 -0.10066749
v -0.30536195 0.47029247 -0.1006375
v -0.31403294 0.33992448 -0.10066849
v -0.38345295 0.42266646 -0.1006375
v -0.36622893 0.29138648 -0.10066849
v -0.45161393 0.35928246 -0.1006375
v -0.40847495 0.23225246 -0.10066949
v -0.50665396 0.28223946 -0.1006375
v -0.43861293 0.16458846 -0.10067149
v -0.54583293 0.19427846 -0.1006375
v -0.45492193 0.09090147 -0.10067149
v -0.56698793 0.09869047 -0.1006385
v -0.45620194 0.01404247 -0.1006735
v -0.56864392 -0.00080553 -0.1006395
v -0.44184595 -0.06289753 -0.1006745
v -0.55009692 -0.10020852 -0.1006395
v -0.41188794 -0.13671752 -0.10067649
v -0.51146596 -0.19539752 -0.10064249
v -0.36702293 -0.20423552 -0.10067849
v -0.45371994 -0.28230053 -0.10064249
v -0.30859193 -0.26242852 -0.10068149
v -0.37864893 -0.35706552 -0.10064449
v -0.23855595 -0.30856052 -0.1006835
v -0.28882393 -0.41623252 -0.1006465
v -0.15942494 -0.34031552 -0.10068649
v -0.18750494 -0.45688954 -0.1006485
v -0.07417394 -0.35590052 -0.10068849
v -0.07852694 -0.47681254 -0.10065049
v 0.01387205 -0.35414552 -0.1006915
v 0.03384505 -0.47457152 -0.10065249
v 0.10116605 -0.33456453 -0.1006945
v 0.14508806 -0.44961953 -0.1006545
v 0.18408405 -0.29740354 -0.10069849
v 0.25059506 -0.40233254 -0.1006575
v 0.25907105 -0.24364553 -0.1007025
v 0.34587505 -0.33402752 -0.10066049
v 0.32279405 -0.17499853 -0.10070549
v 0.42672905 -0.24692453 -0.1006635
v 0.37229105 -0.09383653 -0.1007095
v 0.48944804 -0.14408353 -0.10066749
v 0.40510606 -0.00312353 -0.10071349
v 0.53097206 -0.02929252 -0.10067049
v 0.41940206 0.09369347 -0.10071749
v 0.54903906 0.09306646 -0.1006745
v 0.41405504 0.19281746 -0.1007215
v 0.54229003 0.21818347 -0.10067749
v 0.38872605 0.29024645 -0.10072649
v 0.51035606 0.34101247 -0.1006825
v 0.34389206 0.38194248 -0.10073149
v 0.45390105 0.45647546 -0.10068649
v 0.28084805 0.46399048 -0.10073649
v 0.37460705 0.55967044 -0.10069049
v 0.20167805 0.53276646 -0.10074149
v 0.27514204 0.64607548 -0.1006945
v 0.10918405 0.58510047 -0.1007475
v 0.15906505 0.71175348 -0.10069949
v 0.00679305 0.61841648 -0.10075249
v 0.03070605 0.75351846 -0.10070549
v -0.10157194 0.63085347 -0.1007585
v -0.10500194 0.76909345 -0.1007105
v -0.21164093 0.62136244 -0.1007645
v -0.24270494 0.75721949 -0.10071549
v -0.31896793 0.58977049 -0.10077049
v -0.37684294 0.71773344 -0.1007205
v -0.41910493 0.53680545 -0.10077749
v -0.50187295 0.65160048 -0.10072649
v -0.50778996 0.46409347 -0.1007835
v -0.61250191 0.56089848 -0.10073249
v -0.58112996 0.37411147 -0.10079049
v -0.70390296 0.44875446 -0.1007385
v -0.63576293 0.27010047 -0.10079749
v -0.77192896 0.31924447 -0.10074549
v -0.66901594 0.15595647 -0.1008045
v -0.81329792 0.17724247 -0.10075149
v -0.67902892 0.03608347 -0.1008115
v -0.82574296 0.02824047 -0.1007585
v -0.66484594 -0.08477853 -0.1008195
v -0.80812794 -0.12186452 -0.1007655
v -0.62648296 -0.20174352 -0.10082649
v -0.76052093 -0.26700854 -0.10077249
v -0.56494295 -0.30996552 -0.10083449
v -0.68421495 -0.40119752 -0.10077949
v -0.48219794 -0.40485453 -0.10084349
v -0.58169692 -0.5187605 -0.1007865
v -0.38113093 -0.48225751 -0.10085149
v -0.45657596 -0.61458551 -0.1007945
v -0.26543793 -0.5386455 -0.1008595
v -0.31345394 -0.68434053 -0.1008025
v -0.13948895 -0.57126951 -0.1008685
v -0.15776094 -0.72466754 -0.1008105
v -0.00816894 -0.5782895 -0.1008775
v 0.00445605 -0.73333954 -0.1008195
v 0.12331705 -0.55887252 -0.1008865
v 0.16676105 -0.70937055 -0.10082649
v 0.24964004 -0.51324051 -0.1008955
v 0.32258704 -0.65308153 -0.10083549
v 0.36557805 -0.44269353 -0.1009045
v 0.46550306 -0.56611651 -0.10084449
v 0.46622005 -0.34956553 -0.1009145
v 0.58948206 -0.45139351 -0.10085349
v 0.54717505 -0.23716352 -0.10092449
v 0.68914407 -0.31301653 -0.10086249
v 0.60476505 -0.10964153 -0.10093449
v 0.75999605 -0.15612652 -0.10087249
v 0.63619005 0.02814647 -0.10094449
v 0.79863303 0.01328747 -0.10088149
v 0.63965404 0.17083346 -0.10095449
v 0.80289006 0.18861746 -0.10089149
v 0.61446404 0.31274646 -0.10096549
v 0.77195602 0.36289048 -0.10090149
v 0.56107807 0.44813546 -0.10097549
v 0.70643305 0.52905345 -0.1009115
v 0.48110306 0.57140046 -0.1009875
v 0.60833603 0.68024849 -0.1009215
v 0.37726005 0.67733144 -0.10099849
v 0.48103505 0.81010747 -0.1009325
v 0.25328704 0.76131647 -0.10100949
v 0.32914304 0.91300648 -0.10094349
v 0.11381105 0.81955248 -0.1010215
v 0.15835104 0.98431849 -0.10095449
v -0.03582694 0.84920746 -0.1010325
v -0.02478794 1.02061057 -0.10096449
v -0.18977694 0.84855449 -0.10104449
v -0.21310193 1.01981043 -0.10097549
v -0.34190493 0.81706148 -0.10105649
v -0.39909294 0.98130947 -0.1009885
v -0.48604294 0.75544148 -0.1010685
v -0.57522392 0.90601044 -0.10099949
v -0.61623293 0.66563445 -0.10108149
v -0.73422992 0.79632449 -0.10101049
v -0.72697496 0.55075848 -0.10109449
v -0.86941695 0.65608948 -0.1010225
v -0.81346094 0.41500046 -0.1011065
v -0.97494292 0.49044448 -0.10103549
v -0.87178093 0.26346647 -0.10112049
v -1.04606699 0.30563747 -0.10104849
v -0.89909297 0.10198747 -0.1011335
v -1.07935893 0.10879547 -0.1010605
v -0.89376092 -0.06310153 -0.10114649
v -1.07286298 -0.09235452 -0.10107349
v -0.85544395 -0.22521352 -0.1011605
v -1.026196 -0.28978651 -0.1010865
v -0.78512394 -0.37776851 -0.10117349
v -0.94059193 -0.47549653 -0.10109949
v -0.68509495 -0.51444655 -0.1011875
v -0.81887596 -0.64180952 -0.10111249
v -0.55887591 -0.6294915 -0.10120149
v -0.66799092 -0.77468353 -0.1011685
v -0.41112494 -0.71794855 -0.1012165
v -0.56003892 -0.87747454 -0.10117249
v -0.24745294 -0.77580452 -0.10123049
v -0.27278393 -0.98814451 -0.1011535
v -0.07417394 -0.80021351 -0.1012455
v -0.07368394 -0.98937153 -0.1011535
v -2.12562704 0.18942247 -0.10075349
v -2.14237093 0.25946345 -0.10074549
v -2.11455082 0.26099747 -0.10075149
v -2.10145688 0.19075547 -0.10075949
v -2.15025401 0.18259047 -0.1007475
v -2.18195796 0.24848447 -0.1007395
v -2.17406988 0.17005947 -0.10074249
v -2.21962785 0.22866746 -0.10073249
v -2.19575405 0.15191547 -0.1007375
v -2.25342083 0.20039247 -0.10072649
v -2.21398997 0.12855346 -0.10073149
v -2.28146505 0.16447046 -0.1007205
v -2.22754693 0.10067547 -0.10072749
v -2.30206084 0.12212047 -0.10071449
v -2.23534703 0.06925746 -0.10072249
v -2.31378102 0.07492546 -0.1007105
v -2.23652386 0.03553146 -0.10071749
v -2.31553196 0.02478547 -0.10070449
v -2.230484 0.00093647 -0.10071349
v -2.306638 -0.02616152 -0.10069949
v -2.21694493 -0.03295652 -0.1007105
v -2.28687691 -0.07563553 -0.1006945
v -2.19597792 -0.06450153 -0.10070649
v -2.25652098 -0.12130452 -0.10069049
v -2.16801405 -0.09205752 -0.1007025
v -2.21634793 -0.16089552 -0.1006855
v -2.13385391 -0.11407153 -0.10069849
v -2.16761803 -0.19229953 -0.10068149
v -2.09463 -0.12915852 -0.10069549
v -2.11203885 -0.21367852 -0.10067749
v -2.05178999 -0.13617552 -0.1006925
v -2.05171704 -0.22356052 -0.1006735
v -2.00703191 -0.13428753 -0.10068949
v -1.9890629 -0.22091752 -0.10066949
v -1.96224188 -0.12302152 -0.10068649
v -1.92671191 -0.20523552 -0.1006665
v -1.91941297 -0.10231453 -0.1006835
v -1.86740291 -0.17655952 -0.1006635
v -1.88055288 -0.07252352 -0.10068149
v -1.81385588 -0.13551153 -0.10066049
v -1.84760499 -0.03444552 -0.10067849
v -1.76866996 -0.08328852 -0.1006575
v -1.82234299 0.01071347 -0.10067749
v -1.73417592 -0.02162852 -0.1006545
v -1.8062849 0.06136646 -0.1006755
v -1.71234393 0.04724047 -0.10065249
v -1.80061793 0.11560147 -0.1006735
v -1.70466899 0.12068247 -0.10065049
v -1.80612099 0.17125247 -0.1006725
v -1.71209299 0.19575646 -0.1006475
v -1.82312095 0.22599047 -0.10067149
v -1.73494195 0.26932945 -0.1006465
v -1.85144889 0.27741548 -0.10066949
v -1.77288496 0.33820846 -0.10064349
v -1.89043295 0.32316246 -0.10066849
v -1.82492792 0.39927947 -0.10064249
v -1.93890893 0.36101046 -0.10066849
v -1.88943588 0.44964546 -0.10064149
v -1.995242 0.38898345 -0.10066749
v -1.96417391 0.48675647 -0.1006395
v -2.05738997 0.40544846 -0.10066749
v -2.04638385 0.50853747 -0.1006395
v -2.12297105 0.40920245 -0.10066749
v -2.13289403 0.51348948 -0.1006385
v -2.18935585 0.39954248 -0.10066749
v -2.22023201 0.50077849 -0.1006375
v -2.25377702 0.37630948 -0.10066749
v -2.30476498 0.47029247 -0.1006375
v -2.31343603 0.33992448 -0.10066849
v -2.38285684 0.42266646 -0.1006375
v -2.36563205 0.29138648 -0.10066849
v -2.4510169 0.35928246 -0.1006375
v -2.40787792 0.23225246 -0.10066949
v -2.50605702 0.28223946 -0.1006375
v -2.43801689 0.16458846 -0.10067149
v -2.54523706 0.19427846 -0.1006375
v -2.45432591 0.09090147 -0.10067149
v -2.56639194 0.09869047 -0.1006385
v -2.45560503 0.01404247 -0.1006735
v -2.56804704 -0.00080553 -0.1006395
v -2.44124889 -0.06289753 -0.1006745
v -2.54949998 -0.10020852 -0.1006395
v -2.41129088 -0.13671752 -0.10067649
v -2.51086998 -0.19539752 -0.10064249
v -2.36642599 -0.20423552 -0.10067849
v -2.45312404 -0.28230053 -0.10064249
v -2.30799484 -0.26242852 -0.10068149
v -2.37805295 -0.35706552 -0.10064449
v -2.23795986 -0.30856052 -0.1006835
v -2.28822803 -0.41623252 -0.1006465
v -2.15882897 -0.34031552 -0.10068649
v -2.18690896 -0.45688954 -0.1006485
v -2.07357692 -0.35590052 -0.10068849
v -2.07792997 -0.47681254 -0.10065049
v -1.98553097 -0.35414552 -0.1006915
v -1.96555888 -0.47457152 -0.10065249
v -1.89823699 -0.33456453 -0.1006945
v -1.85431599 -0.44961953 -0.1006545
v -1.81531989 -0.29740354 -0.10069849
v -1.7488079 -0.40233254 -0.1006575
v -1.74033391 -0.24364553 -0.1007025
v -1.65352892 -0.33402752 -0.10066049
v -1.67660999 -0.17499853 -0.10070549
v -1.57267499 -0.24692453 -0.1006635
v -1.62711191 -0.09383653 -0.1007095
v -1.509956 -0.14408353 -0.10066749
v -1.59429693 -0.00312353 -0.10071349
v -1.46843099 -0.02929252 -0.10067049
v -1.58000099 0.09369347 -0.10071749
v -1.45036399 0.09306646 -0.1006745
v -1.58534896 0.19281746 -0.1007215
v -1.45711398 0.21818347 -0.10067749
v -1.61067795 0.29024645 -0.10072649
v -1.489048 0.34101247 -0.1006825
v -1.65551197 0.38194248 -0.10073149
v -1.5455029 0.45647546 -0.10068649
v -1.71855592 0.46399048 -0.10073649
v -1.62479698 0.55967044 -0.10069049
v -1.79772591 0.53276646 -0.10074149
v -1.72426092 0.64607548 -0.1006945
v -1.89021992 0.58510047 -0.1007475
v -1.84033799 0.71175348 -0.10069949
v -1.99261093 0.61841648 -0.10075249
v -1.9686979 0.75351846 -0.10070549
v -2.10097503 0.63085347 -0.1007585
v -2.10440588 0.76909345 -0.1007105
v -2.21104502 0.62136244 -0.1007645
v -2.24210906 0.75721949 -0.10071549
v -2.31837105 0.58977049 -0.10077049
v -2.37624502 0.71773344 -0.1007205
v -2.41850805 0.53680545 -0.10077749
v -2.50127601 0.65160048 -0.10072649
v -2.50719404 0.46409347 -0.1007835
v -2.61190486 0.56089848 -0.10073249
v -2.58053398 0.37411147 -0.10079049
v -2.70330691 0.44875446 -0.1007385
v -2.63516688 0.27010047 -0.10079749
v -2.77133297 0.31924447 -0.10074549
v -2.66842103 0.15595647 -0.1008045
v -2.81270194 0.17724247 -0.10075149
v -2.67843103 0.03608347 -0.1008115
v -2.82514691 0.02824047 -0.1007585
v -2.66424894 -0.08477853 -0.1008195
v -2.80753183 -0.12186452 -0.1007655
v -2.62588596 -0.20174352 -0.10082649
v -2.75992488 -0.26700854 -0.10077249
v -2.56434583 -0.30996552 -0.10083449
v -2.68361783 -0.40119752 -0.10077949
v -2.481601 -0.40485453 -0.10084349
v -2.58110094 -0.5187605 -0.1007865
v -2.38053488 -0.48225751 -0.10085149
v -2.45598006 -0.61458551 -0.1007945
v -2.26484203 -0.5386455 -0.1008595
v -2.31285786 -0.68434053 -0.1008025
v -2.13889288 -0.57126951 -0.1008685
v -2.15716385 -0.72466754 -0.1008105
v -2.00757193 -0.5782895 -0.1008775
v -1.99494791 -0.7333405 -0.1008195
v -1.87608695 -0.55887252 -0.1008865
v -1.83264291 -0.70937055 -0.10082649
v -1.74976289 -0.51324051 -0.1008955
v -1.67681694 -0.65308153 -0.10083549
v -1.63382494 -0.44269353 -0.1009045
v -1.5338999 -0.56611651 -0.10084449
v -1.53318393 -0.34956553 -0.1009145
v -1.409922 -0.45139351 -0.10085349
v -1.4522289 -0.23716352 -0.10092449
v -1.31025993 -0.31301653 -0.10086249
v -1.39463889 -0.10964153 -0.10093449
v -1.23940789 -0.15612652 -0.10087249
v -1.36321389 0.02814647 -0.10094449
v -1.2007699 0.01328747 -0.10088149
v -1.35974896 0.17083346 -0.10095449
v -1.19651293 0.18861746 -0.10089149
v -1.38493895 0.31274646 -0.10096549
v -1.22744798 0.36289048 -0.10090149
v -1.438326 0.44813546 -0.10097549
v -1.29297089 0.52905345 -0.1009115
v -1.51830089 0.57140046 -0.1009875
v -1.3910669 0.68024849 -0.1009215
v -1.62214398 0.67733144 -0.10099849
v -1.51836788 0.81010747 -0.1009325
v -1.74611592 0.76131647 -0.10100949
v -1.6702609 0.91300648 -0.10094349
v -1.88559198 0.81955248 -0.1010215
v -1.84105396 0.98431849 -0.10095449
v -2.03523087 0.84920746 -0.1010325
v -2.02419185 1.02061057 -0.10096449
v -2.18917989 0.84855449 -0.10104449
v -2.21250605 1.01981043 -0.10097549
v -2.34130883 0.81706148 -0.10105649
v -2.39849591 0.98130947 -0.1009885
v -2.48544597 0.75544148 -0.1010685
v -2.57462692 0.90601044 -0.10099949
v -2.61563706 0.66563445 -0.10108149
v -2.73363399 0.79632449 -0.10101049
v -2.72637796 0.55075848 -0.10109449
v -2.8688209 0.65608948 -0.1010225
v -2.81286501 0.41500046 -0.1011065
v -2.97434687 0.49044448 -0.10103549
v -2.87118387 0.26346647 -0.10112049
v -3.04546999 0.30563747 -0.10104849
v -2.89849591 0.10198747 -0.1011335
v -3.07876205 0.10879547 -0.1010605
v -2.89316487 -0.06310153 -0.10114649
v -3.07226586 -0.09235452 -0.10107349
v -2.85484695 -0.22521352 -0.1011605
v -3.025599 -0.28978651 -0.1010865
v -2.78452706 -0.37776851 -0.10117349
v -2.939996 -0.47549653 -0.10109949
v -2.68449783 -0.5144515 -0.1011875
v -2.81827902 -0.64181554 -0.10111249
v -1.503214 -0.82955551 -0.1012455
v -1.50490796 -1.01058363 -0.1011685
v -2.07527399 -0.98928952 -0.1011685
v -2.07357883 -0.80020552 -0.1012455
v -0.95107096 -0.8434785 -0.1012455
v -0.92044997 -1.02058553 -0.1011685
v 1.87406301 0.18942247 -0.10075349
v 1.85731899 0.25946345 -0.10074549
v 1.8851391 0.26099747 -0.10075149
v 1.89823305 0.19075547 -0.10075949
v 1.84943604 0.18259146 -0.1007475
v 1.81773102 0.24848447 -0.1007395
v 1.8256191 0.17005947 -0.10074249
v 1.78006207 0.22866746 -0.10073249
v 1.80393505 0.15191547 -0.1007375
v 1.74626803 0.20039247 -0.10072649
v 1.78570103 0.12855346 -0.10073149
v 1.718225 0.16447046 -0.1007215
v 1.77214205 0.10067547 -0.10072749
v 1.69762706 0.12212047 -0.10071449
v 1.76434302 0.06925746 -0.10072249
v 1.68590903 0.07492546 -0.1007105
v 1.76316499 0.03553146 -0.10071749
v 1.68415701 0.02478547 -0.10070449
v 1.76920604 0.00093647 -0.10071349
v 1.69305205 -0.02616152 -0.10069949
v 1.782745 -0.03295652 -0.1007105
v 1.71281206 -0.07563553 -0.1006945
v 1.80371308 -0.06450153 -0.10070649
v 1.74316906 -0.12130452 -0.10069049
v 1.83167505 -0.09205752 -0.1007025
v 1.783342 -0.16089552 -0.1006855
v 1.86583602 -0.11407153 -0.10069849
v 1.83207106 -0.19229953 -0.10068149
v 1.90506005 -0.12915852 -0.10069549
v 1.88765001 -0.21367852 -0.10067749
v 1.94790005 -0.13617552 -0.1006925
v 1.94797503 -0.22356052 -0.1006735
v 1.99265801 -0.13428753 -0.10068949
v 2.01062607 -0.22091752 -0.10066949
v 2.03744816 -0.12302152 -0.10068649
v 2.07297802 -0.20523552 -0.1006665
v 2.08027815 -0.10231453 -0.1006835
v 2.13228702 -0.17655952 -0.1006635
v 2.11913704 -0.07252352 -0.10068149
v 2.18583297 -0.13551153 -0.10066049
v 2.15208411 -0.03444552 -0.10067849
v 2.23102116 -0.08328852 -0.1006575
v 2.17734813 0.01071347 -0.10067749
v 2.26551294 -0.02162852 -0.1006545
v 2.19340395 0.06136646 -0.1006755
v 2.28734612 0.04724047 -0.10065249
v 2.19907212 0.11560147 -0.1006735
v 2.29502201 0.12068247 -0.10065049
v 2.19356894 0.17125247 -0.1006725
v 2.28759813 0.19575646 -0.1006475
v 2.17656993 0.22599047 -0.10067149
v 2.26474714 0.26932945 -0.1006465
v 2.14824104 0.27741548 -0.10066949
v 2.22680497 0.33820846 -0.10064349
v 2.10925698 0.32316246 -0.10066849
v 2.17476296 0.39927947 -0.10064249
v 2.060781 0.36101046 -0.10066849
v 2.11025404 0.44964546 -0.10064149
v 2.00444698 0.38898345 -0.10066749
v 2.03551602 0.48675647 -0.1006395
v 1.94230103 0.40544846 -0.10066749
v 1.953305 0.50853747 -0.1006395
v 1.87671899 0.40920245 -0.10066749
v 1.86679506 0.51348948 -0.1006385
v 1.81033408 0.39954248 -0.10066749
v 1.77945804 0.50077849 -0.1006375
v 1.7459141 0.37630948 -0.10066749
v 1.69492507 0.47029247 -0.1006375
v 1.68625402 0.33992448 -0.10066849
v 1.61683309 0.42266646 -0.1006375
v 1.63405704 0.29138648 -0.10066849
v 1.548671 0.35928246 -0.1006375
v 1.5918101 0.23225246 -0.10066949
v 1.49363207 0.28223946 -0.1006375
v 1.56167209 0.16458846 -0.10067149
v 1.45445311 0.19427846 -0.1006375
v 1.54536402 0.09090147 -0.10067149
v 1.43329811 0.09869047 -0.1006385
v 1.54408407 0.01404247 -0.1006735
v 1.4316411 -0.00080553 -0.1006395
v 1.55844008 -0.06289753 -0.1006745
v 1.45018911 -0.10020852 -0.1006395
v 1.58839905 -0.13671752 -0.10067649
v 1.48882007 -0.19539752 -0.10064249
v 1.63326406 -0.20423552 -0.10067849
v 1.54656505 -0.28230053 -0.10064249
v 1.69169306 -0.26242852 -0.10068149
v 1.6216371 -0.35706552 -0.10064449
v 1.76173007 -0.30856052 -0.1006835
v 1.71146202 -0.41623252 -0.1006465
v 1.84086108 -0.34031552 -0.10068649
v 1.81278002 -0.45688954 -0.1006485
v 1.926113 -0.35590052 -0.10068849
v 1.92176008 -0.47681254 -0.10064949
v 2.01415801 -0.35414552 -0.1006915
v 2.034132 -0.47457152 -0.10065249
v 2.10145211 -0.33456453 -0.1006945
v 2.14537406 -0.44961953 -0.1006545
v 2.18437004 -0.29740354 -0.10069849
v 2.2508831 -0.40233254 -0.1006575
v 2.25935697 -0.24364553 -0.1007025
v 2.34616112 -0.33402752 -0.10066049
v 2.32308006 -0.17499853 -0.10070549
v 2.42701411 -0.24692453 -0.1006635
v 2.37257599 -0.09383653 -0.1007095
v 2.48973298 -0.14408353 -0.10066749
v 2.40539217 -0.00312353 -0.10071349
v 2.5312581 -0.02929252 -0.10067049
v 2.41968798 0.09369347 -0.10071749
v 2.54932498 0.09306646 -0.1006745
v 2.41434001 0.19281746 -0.1007215
v 2.54257512 0.21818347 -0.10067749
v 2.38901114 0.29024645 -0.10072649
v 2.51064205 0.34101247 -0.1006825
v 2.344177 0.38194248 -0.10073149
v 2.45418715 0.45647546 -0.10068649
v 2.28113603 0.46399048 -0.10073649
v 2.37489199 0.55967044 -0.10069049
v 2.20196294 0.53276646 -0.10074149
v 2.27542805 0.64607548 -0.1006945
v 2.10947012 0.58510047 -0.1007475
v 2.15935111 0.71175348 -0.10069949
v 2.00707912 0.61841648 -0.10075249
v 2.03099203 0.75351846 -0.10070549
v 1.89871406 0.63085347 -0.1007585
v 1.89528405 0.76909345 -0.1007105
v 1.78864502 0.62136244 -0.1007645
v 1.75758206 0.75721949 -0.10071549
v 1.68131804 0.58977049 -0.10077049
v 1.62344408 0.71773344 -0.1007205
v 1.581182 0.53680545 -0.10077749
v 1.49841308 0.65160048 -0.10072649
v 1.49249601 0.46409347 -0.1007835
v 1.387784 0.56089848 -0.10073249
v 1.41915607 0.37411147 -0.10079049
v 1.29638207 0.44875446 -0.1007385
v 1.36452209 0.27010047 -0.10079749
v 1.228356 0.31924447 -0.10074549
v 1.33127009 0.15595647 -0.1008045
v 1.18698704 0.17724247 -0.10075149
v 1.32125604 0.03608347 -0.1008115
v 1.17454302 0.02824047 -0.1007585
v 1.33543908 -0.08477853 -0.1008195
v 1.1921581 -0.12186452 -0.1007655
v 1.37380302 -0.20174352 -0.10082649
v 1.23976409 -0.26700854 -0.10077249
v 1.43534302 -0.30996552 -0.10083449
v 1.31607103 -0.40119752 -0.10077949
v 1.5180881 -0.40485453 -0.10084349
v 1.41858899 -0.5187605 -0.1007865
v 1.61915504 -0.48225751 -0.10085149
v 1.54370904 -0.61458551 -0.1007945
v 1.73484802 -0.5386455 -0.1008595
v 1.68683099 -0.68434053 -0.1008025
v 1.86079609 -0.57126951 -0.1008685
v 1.842525 -0.72466754 -0.1008105
v 1.99211704 -0.5782895 -0.1008775
v 2.00474095 -0.7333405 -0.1008195
v 2.1236031 -0.55887252 -0.1008865
v 2.16704702 -0.70937055 -0.10082649
v 2.24992609 -0.51324051 -0.1008955
v 2.32287216 -0.65308153 -0.10083549
v 2.36586403 -0.44269353 -0.1009045
v 2.46578908 -0.56611651 -0.10084449
v 2.46650505 -0.34956553 -0.1009145
v 2.58976817 -0.45139351 -0.10085349
v 2.54746103 -0.23716352 -0.10092449
v 2.68942999 -0.31301653 -0.10086249
v 2.60505008 -0.10964153 -0.10093449
v 2.76028204 -0.15612652 -0.10087249
v 2.63647604 0.02814647 -0.10094449
v 2.79892015 0.01328747 -0.10088149
v 2.63994097 0.17083346 -0.10095449
v 2.80317616 0.18861746 -0.10089149
v 2.61475014 0.31274646 -0.10096549
v 2.77224016 0.36289048 -0.10090149
v 2.56136393 0.44813546 -0.10097549
v 2.70671916 0.52905345 -0.1009115
v 2.48138904 0.57140046 -0.1009875
v 2.60862207 0.68024849 -0.1009215
v 2.37754607 0.67733144 -0.10099849
v 2.48132014 0.81010747 -0.1009325
v 2.25357294 0.76131647 -0.10100949
v 2.32942915 0.91300648 -0.10094349
v 2.11409711 0.81955248 -0.1010215
v 2.15863704 0.98431849 -0.10095449
v 1.96445906 0.84920746 -0.1010325
v 1.97549808 1.02061057 -0.10096449
v 1.81051003 0.84855449 -0.10104449
v 1.78718304 1.01981043 -0.10097549
v 1.6583811 0.81706148 -0.10105649
v 1.60119402 0.98130947 -0.1009885
v 1.514243 0.75544148 -0.1010685
v 1.42506206 0.90601044 -0.10099949
v 1.38405311 0.66563445 -0.10108149
v 1.26605606 0.79632449 -0.10101049
v 1.27331101 0.55075848 -0.10109449
v 1.13086807 0.65608948 -0.1010225
v 1.18682408 0.41500046 -0.1011065
v 1.02534306 0.49044448 -0.10103549
v 1.12850511 0.26346647 -0.10112049
v 0.95421904 0.30563747 -0.10104849
v 1.10119307 0.10198747 -0.1011335
v 0.92092704 0.10879547 -0.1010605
v 1.10652411 -0.06310153 -0.10114649
v 0.92742204 -0.09235452 -0.10107349
v 1.14484107 -0.22521352 -0.1011605
v 0.97409004 -0.28978651 -0.1010865
v 1.21516203 -0.37776851 -0.10117349
v 1.05969405 -0.47549653 -0.10109949
v 1.3151921 -0.51444751 -0.1011875
v 1.18141007 -0.64181155 -0.10111249
v 1.44140803 -0.62949353 -0.10120149
v 1.33245205 -0.77802354 -0.10116349
v 1.58916103 -0.71794754 -0.1012165
v 1.43950009 -0.89342755 -0.1011715
v 1.75283408 -0.77580452 -0.10123049
v 1.72661507 -0.98969751 -0.1011535
v 1.92611205 -0.80021351 -0.1012455
v 1.926602 -0.98937153 -0.1011535
v 1.049214 -0.84347653 -0.1012455
v 1.07983601 -1.02058363 -0.1011685
v 0.49537605 -1.01058745 -0.1011685
v 0.49707105 -0.8295595 -0.1012455
v -2.24800491 -0.77580052 -0.10123049
v -2.27344083 -0.9878875 -0.1011535
v -2.562119 -0.91400951 -0.1011695
v -2.41167783 -0.71794652 -0.1012165
v -2.66755104 -0.78050452 -0.10115449
v -2.92098188 -1.02054858 -0.1011685
v -2.95160388 -0.84344154 -0.1012455
v -2.55828404 -0.62949651 -0.10120149
v 3.04813814 -0.84350454 -0.1012455
v 3.07876014 -1.02061057 -0.1011685
v 2.49432015 -1.01058745 -0.1011685
v 2.49601316 -0.8295595 -0.1012455
g Group32941
f 678 677 676 675
g Group32944
f 2 1 678 675
f 111 112 676 677
f 1 111 677 678
g Group51606
f 1 2 112 111
g Group32941
f 675 676 680 679
g Group32944
f 3 2 675 679
f 112 113 680 676
g Group51606
f 2 3 113 112
g Group32941
f 679 680 682 681
g Group32944
f 4 3 679 681
f 113 114 682 680
g Group51606
f 3 4 114 113
g Group32941
f 681 682 684 683
g Group32944
f 5 4 681 683
f 114 115 684 682
g Group51606
f 4 5 115 114
g Group32941
f 683 684 686 685
g Group32944
f 6 5 683 685
f 115 116 686 684
g Group51606
f 5 6 116 115
g Group32941
f 685 686 688 687
g Group32944
f 7 6 685 687
f 116 117 688 686
g Group51606
f 6 7 117 116
g Group32941
f 687 688 690 689
g Group32944
f 8 7 687 689
f 117 118 690 688
g Group51606
f 7 8 118 117
g Group32941
f 689 690 692 691
g Group32944
f 9 8 689 691
f 118 119 692 690
g Group51606
f 8 9 119 118
g Group32941
f 691 692 694 693
g Group32944
f 10 9 691 693
f 119 120 694 692
g Group51606
f 9 10 120 119
g Group32941
f 693 694 696 695
g Group32944
f 11 10 693 695
f 120 121 696 694
g Group51606
f 10 11 121 120
g Group32941
f 695 696 698 697
g Group32944
f 12 11 695 697
f 121 122 698 696
g Group51606
f 11 12 122 121
g Group32941
f 697 698 700 699
g Group32944
f 13 12 697 699
f 122 123 700 698
g Group51606
f 12 13 123 122
g Group32941
f 699 700 702 701
g Group32944
f 14 13 699 701
f 123 124 702 700
g Group51606
f 13 14 124 123
g Group32941
f 701 702 704 703
g Group32944
f 15 14 701 703
f 124 125 704 702
g Group51606
f 14 15 125 124
g Group32941
f 703 704 706 705
g Group32944
f 16 15 703 705
f 125 126 706 704
g Group51606
f 15 16 126 125
g Group32941
f 705 706 708 707
g Group32944
f 17 16 705 707
f 126 127 708 706
g Group51606
f 16 17 127 126
g Group32941
f 707 708 710 709
g Group32944
f 18 17 707 709
f 127 128 710 708
g Group51606
f 17 18 128 127
g Group32941
f 709 710 712 711
g Group32944
f 19 18 709 711
f 128 129 712 710
g Group51606
f 18 19 129 128
g Group32941
f 711 712 714 713
g Group32944
f 20 19 711 713
f 129 130 714 712
g Group51606
f 19 20 130 129
g Group32941
f 713 714 716 715
g Group32944
f 21 20 713 715
f 130 131 716 714
g Group51606
f 20 21 131 130
g Group32941
f 715 716 718 717
g Group32944
f 22 21 715 717
f 131 132 718 716
g Group51606
f 21 22 132 131
g Group32941
f 717 718 720 719
g Group32944
f 23 22 717 719
f 132 133 720 718
g Group51606
f 22 23 133 132
g Group32941
f 719 720 722 721
g Group32944
f 24 23 719 721
f 133 134 722 720
g Group51606
f 23 24 134 133
g Group32941
f 721 722 724 723
g Group32944
f 25 24 721 723
f 134 135 724 722
g Group51606
f 24 25 135 134
g Group32941
f 723 724 726 725
g Group32944
f 26 25 723 725
f 135 136 726 724
g Group51606
f 25 26 136 135
g Group32941
f 725 726 728 727
g Group32944
f 27 26 725 727
f 136 137 728 726
g Group51606
f 26 27 137 136
g Group32941
f 727 728 730 729
g Group32944
f 28 27 727 729
f 137 138 730 728
g Group51606
f 27 28 138 137
g Group32941
f 729 730 732 731
g Group32944
f 29 28 729 731
f 138 139 732 730
g Group51606
f 28 29 139 138
g Group32941
f 731 732 734 733
g Group32944
f 30 29 731 733
f 139 140 734 732
g Group51606
f 29 30 140 139
g Group32941
f 733 734 736 735
g Group32944
f 31 30 733 735
f 140 141 736 734
g Group51606
f 30 31 141 140
g Group32941
f 735 736 738 737
g Group32944
f 32 31 735 737
f 141 142 738 736
g Group51606
f 31 32 142 141
g Group32941
f 737 738 740 739
g Group32944
f 33 32 737 739
f 142 143 740 738
g Group51606
f 32 33 143 142
g Group32941
f 739 740 742 741
g Group32944
f 34 33 739 741
f 143 144 742 740
g Group51606
f 33 34 144 143
g Group32941
f 741 742 744 743
g Group32944
f 35 34 741 743
f 144 145 744 742
g Group51606
f 34 35 145 144
g Group32941
f 743 744 746 745
g Group32944
f 36 35 743 745
f 145 146 746 744
g Group51606
f 35 36 146 145
g Group32941
f 745 746 748 747
g Group32944
f 37 36 745 747
f 146 147 748 746
g Group51606
f 36 37 147 146
g Group32941
f 747 748 750 749
g Group32944
f 38 37 747 749
f 147 148 750 748
g Group51606
f 37 38 148 147
g Group32941
f 749 750 752 751
g Group32944
f 39 38 749 751
f 148 149 752 750
g Group51606
f 38 39 149 148
g Group32941
f 751 752 754 753
g Group32944
f 40 39 751 753
f 149 150 754 752
g Group51606
f 39 40 150 149
g Group32941
f 753 754 756 755
g Group32944
f 41 40 753 755
f 150 151 756 754
g Group51606
f 40 41 151 150
g Group32941
f 755 756 758 757
g Group32944
f 42 41 755 757
f 151 152 758 756
g Group51606
f 41 42 152 151
g Group32941
f 757 758 760 759
g Group32944
f 43 42 757 759
f 152 153 760 758
g Group51606
f 42 43 153 152
g Group32941
f 759 760 762 761
g Group32944
f 44 43 759 761
f 153 154 762 760
g Group51606
f 43 44 154 153
g Group32941
f 761 762 764 763
g Group32944
f 45 44 761 763
f 154 155 764 762
g Group51606
f 44 45 155 154
g Group32941
f 763 764 766 765
g Group32944
f 46 45 763 765
f 155 156 766 764
g Group51606
f 45 46 156 155
g Group32941
f 765 766 768 767
g Group32944
f 47 46 765 767
f 156 157 768 766
g Group51606
f 46 47 157 156
g Group32941
f 767 768 770 769
g Group32944
f 48 47 767 769
f 157 158 770 768
g Group51606
f 47 48 158 157
g Group32941
f 769 770 772 771
g Group32944
f 49 48 769 771
f 158 159 772 770
g Group51606
f 48 49 159 158
g Group32941
f 771 772 774 773
g Group32944
f 50 49 771 773
f 159 160 774 772
g Group51606
f 49 50 160 159
g Group32941
f 773 774 776 775
g Group32944
f 51 50 773 775
f 160 161 776 774
g Group51606
f 50 51 161 160
g Group32941
f 775 776 778 777
g Group32944
f 52 51 775 777
f 161 162 778 776
g Group51606
f 51 52 162 161
g Group32941
f 777 778 780 779
g Group32944
f 53 52 777 779
f 162 163 780 778
g Group51606
f 52 53 163 162
g Group32941
f 779 780 782 781
g Group32944
f 54 53 779 781
f 163 164 782 780
g Group51606
f 53 54 164 163
g Group32941
f 781 782 784 783
g Group32944
f 55 54 781 783
f 164 165 784 782
g Group51606
f 54 55 165 164
g Group32941
f 783 784 786 785
g Group32944
f 56 55 783 785
f 165 166 786 784
g Group51606
f 55 56 166 165
g Group32941
f 785 786 788 787
g Group32944
f 57 56 785 787
f 166 167 788 786
g Group51606
f 56 57 167 166
g Group32941
f 787 788 790 789
g Group32944
f 58 57 787 789
f 167 168 790 788
g Group51606
f 57 58 168 167
g Group32941
f 789 790 792 791
g Group32944
f 59 58 789 791
f 168 169 792 790
g Group51606
f 58 59 169 168
g Group32941
f 791 792 794 793
g Group32944
f 60 59 791 793
f 169 170 794 792
g Group51606
f 59 60 170 169
g Group32941
f 793 794 796 795
g Group32944
f 61 60 793 795
f 170 171 796 794
g Group51606
f 60 61 171 170
g Group32941
f 795 796 798 797
g Group32944
f 62 61 795 797
f 171 172 798 796
g Group51606
f 61 62 172 171
g Group32941
f 797 798 800 799
g Group32944
f 63 62 797 799
f 172 173 800 798
g Group51606
f 62 63 173 172
g Group32941
f 799 800 802 801
g Group32944
f 64 63 799 801
f 173 174 802 800
g Group51606
f 63 64 174 173
g Group32941
f 801 802 804 803
g Group32944
f 65 64 801 803
f 174 175 804 802
g Group51606
f 64 65 175 174
g Group32941
f 803 804 806 805
g Group32944
f 66 65 803 805
f 175 176 806 804
g Group51606
f 65 66 176 175
g Group32941
f 805 806 808 807
g Group32944
f 67 66 805 807
f 176 177 808 806
g Group51606
f 66 67 177 176
g Group32941
f 807 808 810 809
g Group32944
f 68 67 807 809
f 177 178 810 808
g Group51606
f 67 68 178 177
g Group32941
f 809 810 812 811
g Group32944
f 69 68 809 811
f 178 179 812 810
g Group51606
f 68 69 179 178
g Group32941
f 811 812 814 813
g Group32944
f 70 69 811 813
f 179 180 814 812
g Group51606
f 69 70 180 179
g Group32941
f 813 814 816 815
g Group32944
f 71 70 813 815
f 180 181 816 814
g Group51606
f 70 71 181 180
g Group32941
f 815 816 818 817
g Group32944
f 72 71 815 817
f 181 182 818 816
g Group51606
f 71 72 182 181
g Group32941
f 817 818 820 819
g Group32944
f 73 72 817 819
f 182 183 820 818
g Group51606
f 72 73 183 182
g Group32941
f 819 820 822 821
g Group32944
f 74 73 819 821
f 183 184 822 820
g Group51606
f 73 74 184 183
g Group32941
f 821 822 824 823
g Group32944
f 75 74 821 823
f 184 185 824 822
g Group51606
f 74 75 185 184
g Group32941
f 823 824 826 825
g Group32944
f 76 75 823 825
f 185 186 826 824
g Group51606
f 75 76 186 185
g Group32941
f 825 826 828 827
g Group32944
f 77 76 825 827
f 186 187 828 826
g Group51606
f 76 77 187 186
g Group32941
f 827 828 830 829
g Group32944
f 78 77 827 829
f 187 188 830 828
g Group51606
f 77 78 188 187
g Group32941
f 829 830 832 831
g Group32944
f 79 78 829 831
f 188 189 832 830
g Group51606
f 78 79 189 188
g Group32941
f 831 832 834 833
g Group32944
f 80 79 831 833
f 189 190 834 832
g Group51606
f 79 80 190 189
g Group32941
f 833 834 836 835
g Group32944
f 81 80 833 835
f 190 191 836 834
g Group51606
f 80 81 191 190
g Group32941
f 835 836 838 837
g Group32944
f 82 81 835 837
f 191 192 838 836
g Group51606
f 81 82 192 191
g Group32941
f 837 838 840 839
g Group32944
f 83 82 837 839
f 192 193 840 838
g Group51606
f 82 83 193 192
g Group32941
f 839 840 842 841
g Group32944
f 84 83 839 841
f 193 194 842 840
g Group51606
f 83 84 194 193
g Group32941
f 841 842 844 843
g Group32944
f 85 84 841 843
f 194 195 844 842
g Group51606
f 84 85 195 194
g Group32941
f 843 844 846 845
g Group32944
f 86 85 843 845
f 195 196 846 844
g Group51606
f 85 86 196 195
g Group32941
f 845 846 848 847
g Group32944
f 87 86 845 847
f 196 197 848 846
g Group51606
f 86 87 197 196
g Group32941
f 847 848 850 849
g Group32944
f 88 87 847 849
f 197 198 850 848
g Group51606
f 87 88 198 197
g Group32941
f 849 850 852 851
g Group32944
f 89 88 849 851
f 198 199 852 850
g Group51606
f 88 89 199 198
g Group32941
f 851 852 854 853
g Group32944
f 90 89 851 853
f 199 200 854 852
g Group51606
f 89 90 200 199
g Group32941
f 853 854 856 855
g Group32944
f 91 90 853 855
f 200 201 856 854
g Group51606
f 90 91 201 200
g Group32941
f 855 856 858 857
g Group32944
f 92 91 855 857
f 201 202 858 856
g Group51606
f 91 92 202 201
g Group32941
f 857 858 860 859
g Group32944
f 93 92 857 859
f 202 203 860 858
g Group51606
f 92 93 203 202
g Group32941
f 859 860 862 861
g Group32944
f 94 93 859 861
f 203 204 862 860
g Group51606
f 93 94 204 203
g Group32941
f 861 862 864 863
g Group32944
f 95 94 861 863
f 204 205 864 862
g Group51606
f 94 95 205 204
g Group32941
f 863 864 866 865
g Group32944
f 96 95 863 865
f 205 206 866 864
g Group51606
f 95 96 206 205
g Group32941
f 865 866 868 867
g Group32944
f 97 96 865 867
f 206 207 868 866
g Group51606
f 96 97 207 206
g Group32941
f 867 868 870 869
g Group32944
f 98 97 867 869
f 207 208 870 868
g Group51606
f 97 98 208 207
g Group32941
f 869 870 872 871
g Group32944
f 99 98 869 871
f 208 209 872 870
g Group51606
f 98 99 209 208
g Group32941
f 871 872 874 873
g Group32944
f 100 99 871 873
f 209 210 874 872
g Group51606
f 99 100 210 209
g Group32941
f 873 874 876 875
g Group32944
f 101 100 873 875
f 210 211 876 874
g Group51606
f 100 101 211 210
g Group32941
f 875 876 878 877
g Group32944
f 102 101 875 877
f 211 212 878 876
g Group51606
f 101 102 212 211
g Group32941
f 877 878 880 879
g Group32944
f 103 102 877 879
f 212 213 880 878
g Group51606
f 102 103 213 212
g Group32941
f 879 880 882 881
g Group32944
f 104 103 879 881
f 213 214 882 880
g Group51606
f 103 104 214 213
g Group32941
f 881 882 884 883
g Group32944
f 105 104 881 883
f 214 215 884 882
g Group51606
f 104 105 215 214
g Group32941
f 883 884 886 885
g Group32944
f 106 105 883 885
f 215 216 886 884
g Group51606
f 105 106 216 215
g Group32941
f 885 886 888 887
g Group32944
f 107 106 885 887
f 216 217 888 886
g Group51606
f 106 107 217 216
g Group32941
f 887 888 890 889
g Group32944
f 108 107 887 889
g Group51606
f 107 108 437 217
g Group32941
f 889 890 892 891
g Group32944
f 109 108 889 891
f 437 438 892 890
g Group51606
f 108 109 438 437
g Group32941
f 891 892 894 893
g Group32944
f 110 109 891 893
f 438 439 894 892
g Group51606
f 109 110 439 438
g Group32941
f 898 897 896 895
g Group32944
f 219 218 898 895
f 326 327 896 897
f 218 326 897 898
g Group51606
f 218 219 327 326
g Group32941
f 895 896 900 899
g Group32944
f 220 219 895 899
f 327 328 900 896
g Group51606
f 219 220 328 327
g Group32941
f 899 900 902 901
g Group32944
f 221 220 899 901
f 328 329 902 900
g Group51606
f 220 221 329 328
g Group32941
f 901 902 904 903
g Group32944
f 222 221 901 903
f 329 330 904 902
g Group51606
f 221 222 330 329
g Group32941
f 903 904 906 905
g Group32944
f 223 222 903 905
f 330 331 906 904
g Group51606
f 222 223 331 330
g Group32941
f 905 906 908 907
g Group32944
f 224 223 905 907
f 331 332 908 906
g Group51606
f 223 224 332 331
g Group32941
f 907 908 910 909
g Group32944
f 225 224 907 909
f 332 333 910 908
g Group51606
f 224 225 333 332
g Group32941
f 909 910 912 911
g Group32944
f 226 225 909 911
f 333 334 912 910
g Group51606
f 225 226 334 333
g Group32941
f 911 912 914 913
g Group32944
f 227 226 911 913
f 334 335 914 912
g Group51606
f 226 227 335 334
g Group32941
f 913 914 916 915
g Group32944
f 228 227 913 915
f 335 336 916 914
g Group51606
f 227 228 336 335
g Group32941
f 915 916 918 917
g Group32944
f 229 228 915 917
f 336 337 918 916
g Group51606
f 228 229 337 336
g Group32941
f 917 918 920 919
g Group32944
f 230 229 917 919
f 337 338 920 918
g Group51606
f 229 230 338 337
g Group32941
f 919 920 922 921
g Group32944
f 231 230 919 921
f 338 339 922 920
g Group51606
f 230 231 339 338
g Group32941
f 921 922 924 923
g Group32944
f 232 231 921 923
f 339 340 924 922
g Group51606
f 231 232 340 339
g Group32941
f 923 924 926 925
g Group32944
f 233 232 923 925
f 340 341 926 924
g Group51606
f 232 233 341 340
g Group32941
f 925 926 928 927
g Group32944
f 234 233 925 927
f 341 342 928 926
g Group51606
f 233 234 342 341
g Group32941
f 927 928 930 929
g Group32944
f 235 234 927 929
f 342 343 930 928
g Group51606
f 234 235 343 342
g Group32941
f 929 930 932 931
g Group32944
f 236 235 929 931
f 343 344 932 930
g Group51606
f 235 236 344 343
g Group32941
f 931 932 934 933
g Group32944
f 237 236 931 933
f 344 345 934 932
g Group51606
f 236 237 345 344
g Group32941
f 933 934 936 935
g Group32944
f 238 237 933 935
f 345 346 936 934
g Group51606
f 237 238 346 345
g Group32941
f 935 936 938 937
g Group32944
f 239 238 935 937
f 346 347 938 936
g Group51606
f 238 239 347 346
g Group32941
f 937 938 940 939
g Group32944
f 240 239 937 939
f 347 348 940 938
g Group51606
f 239 240 348 347
g Group32941
f 939 940 942 941
g Group32944
f 241 240 939 941
f 348 349 942 940
g Group51606
f 240 241 349 348
g Group32941
f 941 942 944 943
g Group32944
f 242 241 941 943
f 349 350 944 942
g Group51606
f 241 242 350 349
g Group32941
f 943 944 946 945
g Group32944
f 243 242 943 945
f 350 351 946 944
g Group51606
f 242 243 351 350
g Group32941
f 945 946 948 947
g Group32944
f 244 243 945 947
f 351 352 948 946
g Group51606
f 243 244 352 351
g Group32941
f 947 948 950 949
g Group32944
f 245 244 947 949
f 352 353 950 948
g Group51606
f 244 245 353 352
g Group32941
f 949 950 952 951
g Group32944
f 246 245 949 951
f 353 354 952 950
g Group51606
f 245 246 354 353
g Group32941
f 951 952 954 953
g Group32944
f 247 246 951 953
f 354 355 954 952
g Group51606
f 246 247 355 354
g Group32941
f 953 954 956 955
g Group32944
f 248 247 953 955
f 355 356 956 954
g Group51606
f 247 248 356 355
g Group32941
f 955 956 958 957
g Group32944
f 249 248 955 957
f 356 357 958 956
g Group51606
f 248 249 357 356
g Group32941
f 957 958 960 959
g Group32944
f 250 249 957 959
f 357 358 960 958
g Group51606
f 249 250 358 357
g Group32941
f 959 960 962 961
g Group32944
f 251 250 959 961
f 358 359 962 960
g Group51606
f 250 251 359 358
g Group32941
f 961 962 964 963
g Group32944
f 252 251 961 963
f 359 360 964 962
g Group51606
f 251 252 360 359
g Group32941
f 963 964 966 965
g Group32944
f 253 252 963 965
f 360 361 966 964
g Group51606
f 252 253 361 360
g Group32941
f 965 966 968 967
g Group32944
f 254 253 965 967
f 361 362 968 966
g Group51606
f 253 254 362 361
g Group32941
f 967 968 970 969
g Group32944
f 255 254 967 969
f 362 363 970 968
g Group51606
f 254 255 363 362
g Group32941
f 969 970 972 971
g Group32944
f 256 255 969 971
f 363 364 972 970
g Group51606
f 255 256 364 363
g Group32941
f 971 972 974 973
g Group32944
f 257 256 971 973
f 364 365 974 972
g Group51606
f 256 257 365 364
g Group32941
f 973 974 976 975
g Group32944
f 258 257 973 975
f 365 366 976 974
g Group51606
f 257 258 366 365
g Group32941
f 975 976 978 977
g Group32944
f 259 258 975 977
f 366 367 978 976
g Group51606
f 258 259 367 366
g Group32941
f 977 978 980 979
g Group32944
f 260 259 977 979
f 367 368 980 978
g Group51606
f 259 260 368 367
g Group32941
f 979 980 982 981
g Group32944
f 261 260 979 981
f 368 369 982 980
g Group51606
f 260 261 369 368
g Group32941
f 981 982 984 983
g Group32944
f 262 261 981 983
f 369 370 984 982
g Group51606
f 261 262 370 369
g Group32941
f 983 984 986 985
g Group32944
f 263 262 983 985
f 370 371 986 984
g Group51606
f 262 263 371 370
g Group32941
f 985 986 988 987
g Group32944
f 264 263 985 987
f 371 372 988 986
g Group51606
f 263 264 372 371
g Group32941
f 987 988 990 989
g Group32944
f 265 264 987 989
f 372 373 990 988
g Group51606
f 264 265 373 372
g Group32941
f 989 990 992 991
g Group32944
f 266 265 989 991
f 373 374 992 990
g Group51606
f 265 266 374 373
g Group32941
f 991 992 994 993
g Group32944
f 267 266 991 993
f 374 375 994 992
g Group51606
f 266 267 375 374
g Group32941
f 993 994 996 995
g Group32944
f 268 267 993 995
f 375 376 996 994
g Group51606
f 267 268 376 375
g Group32941
f 995 996 998 997
g Group32944
f 269 268 995 997
f 376 377 998 996
g Group51606
f 268 269 377 376
g Group32941
f 997 998 1000 999
g Group32944
f 270 269 997 999
f 377 378 1000 998
g Group51606
f 269 270 378 377
g Group32941
f 999 1000 1002 1001
g Group32944
f 271 270 999 1001
f 378 379 1002 1000
g Group51606
f 270 271 379 378
g Group32941
f 1001 1002 1004 1003
g Group32944
f 272 271 1001 1003
f 379 380 1004 1002
g Group51606
f 271 272 380 379
g Group32941
f 1003 1004 1006 1005
g Group32944
f 273 272 1003 1005
f 380 381 1006 1004
g Group51606
f 272 273 381 380
g Group32941
f 1005 1006 1008 1007
g Group32944
f 274 273 1005 1007
f 381 382 1008 1006
g Group51606
f 273 274 382 381
g Group32941
f 1007 1008 1010 1009
g Group32944
f 275 274 1007 1009
f 382 383 1010 1008
g Group51606
f 274 275 383 382
g Group32941
f 1009 1010 1012 1011
g Group32944
f 276 275 1009 1011
f 383 384 1012 1010
g Group51606
f 275 276 384 383
g Group32941
f 1011 1012 1014 1013
g Group32944
f 277 276 1011 1013
f 384 385 1014 1012
g Group51606
f 276 277 385 384
g Group32941
f 1013 1014 1016 1015
g Group32944
f 278 277 1013 1015
f 385 386 1016 1014
g Group51606
f 277 278 386 385
g Group32941
f 1015 1016 1018 1017
g Group32944
f 279 278 1015 1017
f 386 387 1018 1016
g Group51606
f 278 279 387 386
g Group32941
f 1017 1018 1020 1019
g Group32944
f 280 279 1017 1019
f 387 388 1020 1018
g Group51606
f 279 280 388 387
g Group32941
f 1019 1020 1022 1021
g Group32944
f 281 280 1019 1021
f 388 389 1022 1020
g Group51606
f 280 281 389 388
g Group32941
f 1021 1022 1024 1023
g Group32944
f 282 281 1021 1023
f 389 390 1024 1022
g Group51606
f 281 282 390 389
g Group32941
f 1023 1024 1026 1025
g Group32944
f 283 282 1023 1025
f 390 391 1026 1024
g Group51606
f 282 283 391 390
g Group32941
f 1025 1026 1028 1027
g Group32944
f 284 283 1025 1027
f 391 392 1028 1026
g Group51606
f 283 284 392 391
g Group32941
f 1027 1028 1030 1029
g Group32944
f 285 284 1027 1029
f 392 393 1030 1028
g Group51606
f 284 285 393 392
g Group32941
f 1029 1030 1032 1031
g Group32944
f 286 285 1029 1031
f 393 394 1032 1030
g Group51606
f 285 286 394 393
g Group32941
f 1031 1032 1034 1033
g Group32944
f 287 286 1031 1033
f 394 395 1034 1032
g Group51606
f 286 287 395 394
g Group32941
f 1033 1034 1036 1035
g Group32944
f 288 287 1033 1035
f 395 396 1036 1034
g Group51606
f 287 288 396 395
g Group32941
f 1035 1036 1038 1037
g Group32944
f 289 288 1035 1037
f 396 397 1038 1036
g Group51606
f 288 289 397 396
g Group32941
f 1037 1038 1040 1039
g Group32944
f 290 289 1037 1039
f 397 398 1040 1038
g Group51606
f 289 290 398 397
g Group32941
f 1039 1040 1042 1041
g Group32944
f 291 290 1039 1041
f 398 399 1042 1040
g Group51606
f 290 291 399 398
g Group32941
f 1041 1042 1044 1043
g Group32944
f 292 291 1041 1043
f 399 400 1044 1042
g Group51606
f 291 292 400 399
g Group32941
f 1043 1044 1046 1045
g Group32944
f 293 292 1043 1045
f 400 401 1046 1044
g Group51606
f 292 293 401 400
g Group32941
f 1045 1046 1048 1047
g Group32944
f 294 293 1045 1047
f 401 402 1048 1046
g Group51606
f 293 294 402 401
g Group32941
f 1047 1048 1050 1049
g Group32944
f 295 294 1047 1049
f 402 403 1050 1048
g Group51606
f 294 295 403 402
g Group32941
f 1049 1050 1052 1051
g Group32944
f 296 295 1049 1051
f 403 404 1052 1050
g Group51606
f 295 296 404 403
g Group32941
f 1051 1052 1054 1053
g Group32944
f 297 296 1051 1053
f 404 405 1054 1052
g Group51606
f 296 297 405 404
g Group32941
f 1053 1054 1056 1055
g Group32944
f 298 297 1053 1055
f 405 406 1056 1054
g Group51606
f 297 298 406 405
g Group32941
f 1055 1056 1058 1057
g Group32944
f 299 298 1055 1057
f 406 407 1058 1056
g Group51606
f 298 299 407 406
g Group32941
f 1057 1058 1060 1059
g Group32944
f 300 299 1057 1059
f 407 408 1060 1058
g Group51606
f 299 300 408 407
g Group32941
f 1059 1060 1062 1061
g Group32944
f 301 300 1059 1061
f 408 409 1062 1060
g Group51606
f 300 301 409 408
g Group32941
f 1061 1062 1064 1063
g Group32944
f 302 301 1061 1063
f 409 410 1064 1062
g Group51606
f 301 302 410 409
g Group32941
f 1063 1064 1066 1065
g Group32944
f 303 302 1063 1065
f 410 411 1066 1064
g Group51606
f 302 303 411 410
g Group32941
f 1065 1066 1068 1067
g Group32944
f 304 303 1065 1067
f 411 412 1068 1066
g Group51606
f 303 304 412 411
g Group32941
f 1067 1068 1070 1069
g Group32944
f 305 304 1067 1069
f 412 413 1070 1068
g Group51606
f 304 305 413 412
g Group32941
f 1069 1070 1072 1071
g Group32944
f 306 305 1069 1071
f 413 414 1072 1070
g Group51606
f 305 306 414 413
g Group32941
f 1071 1072 1074 1073
g Group32944
f 307 306 1071 1073
f 414 415 1074 1072
g Group51606
f 306 307 415 414
g Group32941
f 1073 1074 1076 1075
g Group32944
f 308 307 1073 1075
f 415 416 1076 1074
g Group51606
f 307 308 416 415
g Group32941
f 1075 1076 1078 1077
g Group32944
f 309 308 1075 1077
f 416 417 1078 1076
g Group51606
f 308 309 417 416
g Group32941
f 1077 1078 1080 1079
g Group32944
f 310 309 1077 1079
f 417 418 1080 1078
g Group51606
f 309 310 418 417
g Group32941
f 1079 1080 1082 1081
g Group32944
f 311 310 1079 1081
f 418 419 1082 1080
g Group51606
f 310 311 419 418
g Group32941
f 1081 1082 1084 1083
g Group32944
f 312 311 1081 1083
f 419 420 1084 1082
g Group51606
f 311 312 420 419
g Group32941
f 1083 1084 1086 1085
g Group32944
f 313 312 1083 1085
f 420 421 1086 1084
g Group51606
f 312 313 421 420
g Group32941
f 1085 1086 1088 1087
g Group32944
f 314 313 1085 1087
f 421 422 1088 1086
g Group51606
f 313 314 422 421
g Group32941
f 1087 1088 1090 1089
g Group32944
f 315 314 1087 1089
f 422 423 1090 1088
g Group51606
f 314 315 423 422
g Group32941
f 1089 1090 1092 1091
g Group32944
f 316 315 1089 1091
f 423 424 1092 1090
g Group51606
f 315 316 424 423
g Group32941
f 1091 1092 1094 1093
g Group32944
f 317 316 1091 1093
f 424 425 1094 1092
g Group51606
f 316 317 425 424
g Group32941
f 1093 1094 1096 1095
g Group32944
f 318 317 1093 1095
f 425 426 1096 1094
g Group51606
f 317 318 426 425
g Group32941
f 1095 1096 1098 1097
g Group32944
f 319 318 1095 1097
f 426 427 1098 1096
g Group51606
f 318 319 427 426
g Group32941
f 1097 1098 1100 1099
g Group32944
f 320 319 1097 1099
f 427 428 1100 1098
g Group51606
f 319 320 428 427
g Group32941
f 1099 1100 1102 1101
g Group32944
f 321 320 1099 1101
f 428 429 1102 1100
g Group51606
f 320 321 429 428
g Group32941
f 1101 1102 1104 1103
g Group32944
f 322 321 1101 1103
f 429 430 1104 1102
g Group51606
f 321 322 430 429
g Group32941
f 1103 1104 1106 1105
g Group32944
f 323 322 1103 1105
f 430 431 1106 1104
g Group51606
f 322 323 431 430
g Group32941
f 1110 1109 1108 1107
g Group32944
f 434 325 1110 1107
f 432 433 1108 1109
g Group51606
f 325 434 433 432
g Group32941
f 1107 1108 1112 1111
g Group32944
f 436 434 1107 1111
f 433 435 1112 1108
g Group51606
f 434 436 435 433
g Group32941
f 1111 1112 890 888
g Group32944
f 217 436 1111 888
f 435 437 890 1112
g Group51606
f 436 217 437 435
g Group32941
f 1116 1115 1114 1113
g Group32944
f 441 440 1116 1113
f 550 551 1114 1115
f 440 550 1115 1116
g Group51606
f 440 441 551 550
g Group32941
f 1113 1114 1118 1117
g Group32944
f 442 441 1113 1117
f 551 552 1118 1114
g Group51606
f 441 442 552 551
g Group32941
f 1117 1118 1120 1119
g Group32944
f 443 442 1117 1119
f 552 553 1120 1118
g Group51606
f 442 443 553 552
g Group32941
f 1119 1120 1122 1121
g Group32944
f 444 443 1119 1121
f 553 554 1122 1120
g Group51606
f 443 444 554 553
g Group32941
f 1121 1122 1124 1123
g Group32944
f 445 444 1121 1123
f 554 555 1124 1122
g Group51606
f 444 445 555 554
g Group32941
f 1123 1124 1126 1125
g Group32944
f 446 445 1123 1125
f 555 556 1126 1124
g Group51606
f 445 446 556 555
g Group32941
f 1125 1126 1128 1127
g Group32944
f 447 446 1125 1127
f 556 557 1128 1126
g Group51606
f 446 447 557 556
g Group32941
f 1127 1128 1130 1129
g Group32944
f 448 447 1127 1129
f 557 558 1130 1128
g Group51606
f 447 448 558 557
g Group32941
f 1129 1130 1132 1131
g Group32944
f 449 448 1129 1131
f 558 559 1132 1130
g Group51606
f 448 449 559 558
g Group32941
f 1131 1132 1134 1133
g Group32944
f 450 449 1131 1133
f 559 560 1134 1132
g Group51606
f 449 450 560 559
g Group32941
f 1133 1134 1136 1135
g Group32944
f 451 450 1133 1135
f 560 561 1136 1134
g Group51606
f 450 451 561 560
g Group32941
f 1135 1136 1138 1137
g Group32944
f 452 451 1135 1137
f 561 562 1138 1136
g Group51606
f 451 452 562 561
g Group32941
f 1137 1138 1140 1139
g Group32944
f 453 452 1137 1139
f 562 563 1140 1138
g Group51606
f 452 453 563 562
g Group32941
f 1139 1140 1142 1141
g Group32944
f 454 453 1139 1141
f 563 564 1142 1140
g Group51606
f 453 454 564 563
g Group32941
f 1141 1142 1144 1143
g Group32944
f 455 454 1141 1143
f 564 565 1144 1142
g Group51606
f 454 455 565 564
g Group32941
f 1143 1144 1146 1145
g Group32944
f 456 455 1143 1145
f 565 566 1146 1144
g Group51606
f 455 456 566 565
g Group32941
f 1145 1146 1148 1147
g Group32944
f 457 456 1145 1147
f 566 567 1148 1146
g Group51606
f 456 457 567 566
g Group32941
f 1147 1148 1150 1149
g Group32944
f 458 457 1147 1149
f 567 568 1150 1148
g Group51606
f 457 458 568 567
g Group32941
f 1149 1150 1152 1151
g Group32944
f 459 458 1149 1151
f 568 569 1152 1150
g Group51606
f 458 459 569 568
g Group32941
f 1151 1152 1154 1153
g Group32944
f 460 459 1151 1153
f 569 570 1154 1152
g Group51606
f 459 460 570 569
g Group32941
f 1153 1154 1156 1155
g Group32944
f 461 460 1153 1155
f 570 571 1156 1154
g Group51606
f 460 461 571 570
g Group32941
f 1155 1156 1158 1157
g Group32944
f 462 461 1155 1157
f 571 572 1158 1156
g Group51606
f 461 462 572 571
g Group32941
f 1157 1158 1160 1159
g Group32944
f 463 462 1157 1159
f 572 573 1160 1158
g Group51606
f 462 463 573 572
g Group32941
f 1159 1160 1162 1161
g Group32944
f 464 463 1159 1161
f 573 574 1162 1160
g Group51606
f 463 464 574 573
g Group32941
f 1161 1162 1164 1163
g Group32944
f 465 464 1161 1163
f 574 575 1164 1162
g Group51606
f 464 465 575 574
g Group32941
f 1163 1164 1166 1165
g Group32944
f 466 465 1163 1165
f 575 576 1166 1164
g Group51606
f 465 466 576 575
g Group32941
f 1165 1166 1168 1167
g Group32944
f 467 466 1165 1167
f 576 577 1168 1166
g Group51606
f 466 467 577 576
g Group32941
f 1167 1168 1170 1169
g Group32944
f 468 467 1167 1169
f 577 578 1170 1168
g Group51606
f 467 468 578 577
g Group32941
f 1169 1170 1172 1171
g Group32944
f 469 468 1169 1171
f 578 579 1172 1170
g Group51606
f 468 469 579 578
g Group32941
f 1171 1172 1174 1173
g Group32944
f 470 469 1171 1173
f 579 580 1174 1172
g Group51606
f 469 470 580 579
g Group32941
f 1173 1174 1176 1175
g Group32944
f 471 470 1173 1175
f 580 581 1176 1174
g Group51606
f 470 471 581 580
g Group32941
f 1175 1176 1178 1177
g Group32944
f 472 471 1175 1177
f 581 582 1178 1176
g Group51606
f 471 472 582 581
g Group32941
f 1177 1178 1180 1179
g Group32944
f 473 472 1177 1179
f 582 583 1180 1178
g Group51606
f 472 473 583 582
g Group32941
f 1179 1180 1182 1181
g Group32944
f 474 473 1179 1181
f 583 584 1182 1180
g Group51606
f 473 474 584 583
g Group32941
f 1181 1182 1184 1183
g Group32944
f 475 474 1181 1183
f 584 585 1184 1182
g Group51606
f 474 475 585 584
g Group32941
f 1183 1184 1186 1185
g Group32944
f 476 475 1183 1185
f 585 586 1186 1184
g Group51606
f 475 476 586 585
g Group32941
f 1185 1186 1188 1187
g Group32944
f 477 476 1185 1187
f 586 587 1188 1186
g Group51606
f 476 477 587 586
g Group32941
f 1187 1188 1190 1189
g Group32944
f 478 477 1187 1189
f 587 588 1190 1188
g Group51606
f 477 478 588 587
g Group32941
f 1189 1190 1192 1191
g Group32944
f 479 478 1189 1191
f 588 589 1192 1190
g Group51606
f 478 479 589 588
g Group32941
f 1191 1192 1194 1193
g Group32944
f 480 479 1191 1193
f 589 590 1194 1192
g Group51606
f 479 480 590 589
g Group32941
f 1193 1194 1196 1195
g Group32944
f 481 480 1193 1195
f 590 591 1196 1194
g Group51606
f 480 481 591 590
g Group32941
f 1195 1196 1198 1197
g Group32944
f 482 481 1195 1197
f 591 592 1198 1196
g Group51606
f 481 482 592 591
g Group32941
f 1197 1198 1200 1199
g Group32944
f 483 482 1197 1199
f 592 593 1200 1198
g Group51606
f 482 483 593 592
g Group32941
f 1199 1200 1202 1201
g Group32944
f 484 483 1199 1201
f 593 594 1202 1200
g Group51606
f 483 484 594 593
g Group32941
f 1201 1202 1204 1203
g Group32944
f 485 484 1201 1203
f 594 595 1204 1202
g Group51606
f 484 485 595 594
g Group32941
f 1203 1204 1206 1205
g Group32944
f 486 485 1203 1205
f 595 596 1206 1204
g Group51606
f 485 486 596 595
g Group32941
f 1205 1206 1208 1207
g Group32944
f 487 486 1205 1207
f 596 597 1208 1206
g Group51606
f 486 487 597 596
g Group32941
f 1207 1208 1210 1209
g Group32944
f 488 487 1207 1209
f 597 598 1210 1208
g Group51606
f 487 488 598 597
g Group32941
f 1209 1210 1212 1211
g Group32944
f 489 488 1209 1211
f 598 599 1212 1210
g Group51606
f 488 489 599 598
g Group32941
f 1211 1212 1214 1213
g Group32944
f 490 489 1211 1213
f 599 600 1214 1212
g Group51606
f 489 490 600 599
g Group32941
f 1213 1214 1216 1215
g Group32944
f 491 490 1213 1215
f 600 601 1216 1214
g Group51606
f 490 491 601 600
g Group32941
f 1215 1216 1218 1217
g Group32944
f 492 491 1215 1217
f 601 602 1218 1216
g Group51606
f 491 492 602 601
g Group32941
f 1217 1218 1220 1219
g Group32944
f 493 492 1217 1219
f 602 603 1220 1218
g Group51606
f 492 493 603 602
g Group32941
f 1219 1220 1222 1221
g Group32944
f 494 493 1219 1221
f 603 604 1222 1220
g Group51606
f 493 494 604 603
g Group32941
f 1221 1222 1224 1223
g Group32944
f 495 494 1221 1223
f 604 605 1224 1222
g Group51606
f 494 495 605 604
g Group32941
f 1223 1224 1226 1225
g Group32944
f 496 495 1223 1225
f 605 606 1226 1224
g Group51606
f 495 496 606 605
g Group32941
f 1225 1226 1228 1227
g Group32944
f 497 496 1225 1227
f 606 607 1228 1226
g Group51606
f 496 497 607 606
g Group32941
f 1227 1228 1230 1229
g Group32944
f 498 497 1227 1229
f 607 608 1230 1228
g Group51606
f 497 498 608 607
g Group32941
f 1229 1230 1232 1231
g Group32944
f 499 498 1229 1231
f 608 609 1232 1230
g Group51606
f 498 499 609 608
g Group32941
f 1231 1232 1234 1233
g Group32944
f 500 499 1231 1233
f 609 610 1234 1232
g Group51606
f 499 500 610 609
g Group32941
f 1233 1234 1236 1235
g Group32944
f 501 500 1233 1235
f 610 611 1236 1234
g Group51606
f 500 501 611 610
g Group32941
f 1235 1236 1238 1237
g Group32944
f 502 501 1235 1237
f 611 612 1238 1236
g Group51606
f 501 502 612 611
g Group32941
f 1237 1238 1240 1239
g Group32944
f 503 502 1237 1239
f 612 613 1240 1238
g Group51606
f 502 503 613 612
g Group32941
f 1239 1240 1242 1241
g Group32944
f 504 503 1239 1241
f 613 614 1242 1240
g Group51606
f 503 504 614 613
g Group32941
f 1241 1242 1244 1243
g Group32944
f 505 504 1241 1243
f 614 615 1244 1242
g Group51606
f 504 505 615 614
g Group32941
f 1243 1244 1246 1245
g Group32944
f 506 505 1243 1245
f 615 616 1246 1244
g Group51606
f 505 506 616 615
g Group32941
f 1245 1246 1248 1247
g Group32944
f 507 506 1245 1247
f 616 617 1248 1246
g Group51606
f 506 507 617 616
g Group32941
f 1247 1248 1250 1249
g Group32944
f 508 507 1247 1249
f 617 618 1250 1248
g Group51606
f 507 508 618 617
g Group32941
f 1249 1250 1252 1251
g Group32944
f 509 508 1249 1251
f 618 619 1252 1250
g Group51606
f 508 509 619 618
g Group32941
f 1251 1252 1254 1253
g Group32944
f 510 509 1251 1253
f 619 620 1254 1252
g Group51606
f 509 510 620 619
g Group32941
f 1253 1254 1256 1255
g Group32944
f 511 510 1253 1255
f 620 621 1256 1254
g Group51606
f 510 511 621 620
g Group32941
f 1255 1256 1258 1257
g Group32944
f 512 511 1255 1257
f 621 622 1258 1256
g Group51606
f 511 512 622 621
g Group32941
f 1257 1258 1260 1259
g Group32944
f 513 512 1257 1259
f 622 623 1260 1258
g Group51606
f 512 513 623 622
g Group32941
f 1259 1260 1262 1261
g Group32944
f 514 513 1259 1261
f 623 624 1262 1260
g Group51606
f 513 514 624 623
g Group32941
f 1261 1262 1264 1263
g Group32944
f 515 514 1261 1263
f 624 625 1264 1262
g Group51606
f 514 515 625 624
g Group32941
f 1263 1264 1266 1265
g Group32944
f 516 515 1263 1265
f 625 626 1266 1264
g Group51606
f 515 516 626 625
g Group32941
f 1265 1266 1268 1267
g Group32944
f 517 516 1265 1267
f 626 627 1268 1266
g Group51606
f 516 517 627 626
g Group32941
f 1267 1268 1270 1269
g Group32944
f 518 517 1267 1269
f 627 628 1270 1268
g Group51606
f 517 518 628 627
g Group32941
f 1269 1270 1272 1271
g Group32944
f 519 518 1269 1271
f 628 629 1272 1270
g Group51606
f 518 519 629 628
g Group32941
f 1271 1272 1274 1273
g Group32944
f 520 519 1271 1273
f 629 630 1274 1272
g Group51606
f 519 520 630 629
g Group32941
f 1273 1274 1276 1275
g Group32944
f 521 520 1273 1275
f 630 631 1276 1274
g Group51606
f 520 521 631 630
g Group32941
f 1275 1276 1278 1277
g Group32944
f 522 521 1275 1277
f 631 632 1278 1276
g Group51606
f 521 522 632 631
g Group32941
f 1277 1278 1280 1279
g Group32944
f 523 522 1277 1279
f 632 633 1280 1278
g Group51606
f 522 523 633 632
g Group32941
f 1279 1280 1282 1281
g Group32944
f 524 523 1279 1281
f 633 634 1282 1280
g Group51606
f 523 524 634 633
g Group32941
f 1281 1282 1284 1283
g Group32944
f 525 524 1281 1283
f 634 635 1284 1282
g Group51606
f 524 525 635 634
g Group32941
f 1283 1284 1286 1285
g Group32944
f 526 525 1283 1285
f 635 636 1286 1284
g Group51606
f 525 526 636 635
g Group32941
f 1285 1286 1288 1287
g Group32944
f 527 526 1285 1287
f 636 637 1288 1286
g Group51606
f 526 527 637 636
g Group32941
f 1287 1288 1290 1289
g Group32944
f 528 527 1287 1289
f 637 638 1290 1288
g Group51606
f 527 528 638 637
g Group32941
f 1289 1290 1292 1291
g Group32944
f 529 528 1289 1291
f 638 639 1292 1290
g Group51606
f 528 529 639 638
g Group32941
f 1291 1292 1294 1293
g Group32944
f 530 529 1291 1293
f 639 640 1294 1292
g Group51606
f 529 530 640 639
g Group32941
f 1293 1294 1296 1295
g Group32944
f 531 530 1293 1295
f 640 641 1296 1294
g Group51606
f 530 531 641 640
g Group32941
f 1295 1296 1298 1297
g Group32944
f 532 531 1295 1297
f 641 642 1298 1296
g Group51606
f 531 532 642 641
g Group32941
f 1297 1298 1300 1299
g Group32944
f 533 532 1297 1299
f 642 643 1300 1298
g Group51606
f 532 533 643 642
g Group32941
f 1299 1300 1302 1301
g Group32944
f 534 533 1299 1301
f 643 644 1302 1300
g Group51606
f 533 534 644 643
g Group32941
f 1301 1302 1304 1303
g Group32944
f 535 534 1301 1303
f 644 645 1304 1302
g Group51606
f 534 535 645 644
g Group32941
f 1303 1304 1306 1305
g Group32944
f 536 535 1303 1305
f 645 646 1306 1304
g Group51606
f 535 536 646 645
g Group32941
f 1305 1306 1308 1307
g Group32944
f 537 536 1305 1307
f 646 647 1308 1306
g Group51606
f 536 537 647 646
g Group32941
f 1307 1308 1310 1309
g Group32944
f 538 537 1307 1309
f 647 648 1310 1308
g Group51606
f 537 538 648 647
g Group32941
f 1309 1310 1312 1311
g Group32944
f 539 538 1309 1311
f 648 649 1312 1310
g Group51606
f 538 539 649 648
g Group32941
f 1311 1312 1314 1313
g Group32944
f 540 539 1311 1313
f 649 650 1314 1312
g Group51606
f 539 540 650 649
g Group32941
f 1313 1314 1316 1315
g Group32944
f 541 540 1313 1315
f 650 651 1316 1314
g Group51606
f 540 541 651 650
g Group32941
f 1315 1316 1318 1317
g Group32944
f 542 541 1315 1317
f 651 652 1318 1316
g Group51606
f 541 542 652 651
g Group32941
f 1317 1318 1320 1319
g Group32944
f 543 542 1317 1319
f 652 653 1320 1318
g Group51606
f 542 543 653 652
g Group32941
f 1319 1320 1322 1321
g Group32944
f 544 543 1319 1321
f 653 654 1322 1320
g Group51606
f 543 544 654 653
g Group32941
f 1321 1322 1324 1323
g Group32944
f 545 544 1321 1323
f 654 655 1324 1322
g Group51606
f 544 545 655 654
g Group32941
f 1323 1324 1326 1325
g Group32944
f 546 545 1323 1325
f 655 656 1326 1324
g Group51606
f 545 546 656 655
g Group32941
f 1325 1326 1328 1327
g Group32944
f 547 546 1325 1327
g Group51606
f 546 547 661 656
g Group32941
f 1327 1328 1330 1329
g Group32944
f 548 547 1327 1329
f 661 662 1330 1328
g Group51606
f 547 548 662 661
g Group32941
f 1329 1330 1332 1331
g Group32944
f 549 548 1329 1331
f 662 663 1332 1330
g Group51606
f 548 549 663 662
g Group32941
f 1336 1335 1334 1333
g Group32944
f 660 658 1336 1333
f 657 659 1334 1335
g Group51606
f 658 660 659 657
g Group32941
f 1333 1334 1328 1326
g Group32944
f 656 660 1333 1326
f 659 661 1328 1334
g Group51606
f 660 656 661 659
g Group32941
f 1340 1339 1338 1337
g Group32944
f 665 664 1340 1337
f 669 670 1338 1339
g Group51606
f 664 665 670 669
g Group32941
f 1343 1342 1339 1341
g Group32944
f 666 668 1343 1341
f 667 669 1339 1342
f 668 667 1342 1343
g Group51606
f 668 666 669 667
g Group32941
f 1337 1338 1109 1110
g Group32944
f 325 665 1337 1110
f 670 432 1109 1338
g Group51606
f 665 325 432 670
g Group32941
f 1339 1340 1344 1341
g Group32944
f 664 324 1344 1340
g Group51606
f 669 666 324 664
g Group32941
f 1105 1106 1341 1344
g Group32944
f 324 323 1105 1344
f 431 666 1341 1106
g Group51606
f 323 324 666 431
g Group32941
f 893 894 1335 1336
g Group32944
f 658 110 893 1336
f 439 657 1335 894
g Group51606
f 110 658 657 439
g Group32941
f 1348 1347 1346 1345
g Group32944
f 674 672 1348 1345
f 673 674 1345 1346
f 671 673 1346 1347
g Group51606
f 672 674 673 671
g Group32941
f 1347 1348 1331 1332
g Group32944
f 663 671 1347 1332
f 672 549 1331 1348
g Group51606
f 671 663 549 672

 