# File exported by ZBrush version 2021
# www.zbrush.com
#Vertex Count 156
#Face Count 154
#Auto scale x=1.000000 y=1.000000 z=1.000000
#Auto offset x=0.000000 y=0.000000 z=0.000000
v -1.14941597 0.07558153 0.2339635
v -0.51589697 -0.40898045 0.2339635
v -0.95558399 0.75883752 0.2339635
v -0.98837602 1.07012057 0.2339635
v -1.27514803 0.68949556 0.2339635
v -1.04679405 1.14906454 0.2339635
v -1.38812601 -0.04977546 0.2339635
v -1.73256504 -0.20214246 0.2339635
v -0.76634097 -0.78336143 0.2339635
v -0.94936698 -1.04199957 0.2339635
v 0.004131 -0.82807344 0.2339635
v 0.003135 -1.14400744 0.2339635
v 0.002027 -0.50513148 0.2339635
v -2.30059695 0.32391855 0.2339635
v -2.44505095 -0.07665646 0.2339635
v -1.61149096 0.71569955 0.2339635
v -1.14510595 1.04843044 0.2339635
v -2.09805202 0.14353454 0.2339635
v -2.25713491 -0.39043447 0.2339635
v -1.95956504 -0.80265545 0.2339635
v -2.66603398 -0.79095047 0.2339635
v -2.55446791 -1.09948635 0.2339635
v -2.770226 -0.45382446 0.2339635
v -3.13257002 -0.85296446 0.2339635
v -3.12979507 -0.50752347 0.2339635
v -3.13464093 -1.14906454 0.2339635
v -1.449633 0.34874752 0.2339635
v -1.10946404 0.41486254 0.2339635
v -3.1331551 -1.0058844 0.2339635
v -2.61230397 -0.94829046 0.2339635
v -2.1135981 -0.58776843 0.2339635
v -1.95518803 -0.00488546 0.2339635
v -0.867684 -0.92585945 0.2339635
v -1.56979298 -0.12528546 0.2339635
v 0.002713 -0.98775947 0.2339635
v -2.06966495 0.51102751 0.2339635
v -1.80834102 0.40226653 0.2339635
v -1.76247501 0.20925153 0.2339635
v -1.10202205 0.93551951 0.2339635
v -0.95639199 0.92053854 0.2339635
v -1.32866799 0.87506753 0.2339635
v 1.98109197 0.07558153 0.2339635
v 2.61461401 -0.40898045 0.2339635
v 2.17492795 0.75883752 0.2339635
v 2.14213299 1.07012057 0.2339635
v 1.85536098 0.68949556 0.2339635
v 2.08371591 1.14906454 0.2339635
v 1.742383 -0.04977546 0.2339635
v 1.39794504 -0.20214246 0.2339635
v 2.36416792 -0.78336143 0.2339635
v 2.18114399 -1.04199957 0.2339635
v 3.13464093 -0.82807344 0.2339635
v 3.13364505 -1.14400744 0.2339635
v 3.13253688 -0.50513148 0.2339635
v 0.82991099 0.32391855 0.2339635
v 0.68545901 -0.07665646 0.2339635
v 1.51901805 0.71569955 0.2339635
v 1.98540401 1.04843044 0.2339635
v 1.03245699 0.14353454 0.2339635
v 0.87337601 -0.39043447 0.2339635
v 1.17094504 -0.80265545 0.2339635
v 0.46447399 -0.79095047 0.2339635
v 0.57604199 -1.09948635 0.2339635
v 0.360284 -0.45382446 0.2339635
v 1.68087601 0.34874752 0.2339635
v 2.02104711 0.41486254 0.2339635
v 0.51820498 -0.94829046 0.2339635
v 1.01691305 -0.58776843 0.2339635
v 1.17532098 -0.00488546 0.2339635
v 2.26282692 -0.92585945 0.2339635
v 1.56071806 -0.12528546 0.2339635
v 3.13322496 -0.98775947 0.2339635
v 1.06084501 0.51102751 0.2339635
v 1.32216894 0.40226653 0.2339635
v 1.368034 0.20925153 0.2339635
v 2.02848792 0.93551951 0.2339635
v 2.17411804 0.92053854 0.2339635
v 1.80184304 0.87506753 0.2339635
v -1.38812601 -0.04977546 -0.2339635
v -1.14941597 0.07558153 -0.2339635
v -0.51589697 -0.40898045 -0.2339635
v -0.76634097 -0.78336143 -0.2339635
v 0.002027 -0.50513148 -0.2339635
v 0.004131 -0.82807344 -0.2339635
v -3.12979507 -0.50752347 -0.2339635
v -2.770226 -0.45382446 -0.2339635
v -2.66603398 -0.79095047 -0.2339635
v -3.13257002 -0.85296446 -0.2339635
v -2.44505095 -0.07665646 -0.2339635
v -2.30059695 0.32391855 -0.2339635
v -2.09805202 0.14353454 -0.2339635
v -2.25713491 -0.39043447 -0.2339635
v -0.95558399 0.75883752 -0.2339635
v -1.10946404 0.41486254 -0.2339635
v -1.449633 0.34874752 -0.2339635
v -1.27514803 0.68949556 -0.2339635
v -2.61230397 -0.94829046 -0.2339635
v -3.1331551 -1.0058844 -0.2339635
v -2.55446791 -1.09948635 -0.2339635
v -3.13464093 -1.14906454 -0.2339635
v -2.1135981 -0.58776843 -0.2339635
v -1.95956504 -0.80265545 -0.2339635
v -1.95518803 -0.00488546 -0.2339635
v -1.73256504 -0.20214246 -0.2339635
v -1.56979298 -0.12528546 -0.2339635
v -0.867684 -0.92585945 -0.2339635
v -0.94936698 -1.04199957 -0.2339635
v 0.002713 -0.98775947 -0.2339635
v 0.003135 -1.14400744 -0.2339635
v -1.80834102 0.40226653 -0.2339635
v -2.06966495 0.51102751 -0.2339635
v -1.61149096 0.71569955 -0.2339635
v -1.76247501 0.20925153 -0.2339635
v -0.98837602 1.07012057 -0.2339635
v -0.95639199 0.92053854 -0.2339635
v -1.10202205 0.93551951 -0.2339635
v -1.04679405 1.14906454 -0.2339635
v -1.32866799 0.87506753 -0.2339635
v -1.14510595 1.04843044 -0.2339635
v 1.742383 -0.04977546 -0.2339635
v 1.98109197 0.07558153 -0.2339635
v 2.61461401 -0.40898045 -0.2339635
v 2.36416792 -0.78336143 -0.2339635
v 3.13253688 -0.50513148 -0.2339635
v 3.13464093 -0.82807344 -0.2339635
v 0.68545901 -0.07665646 -0.2339635
v 0.82991099 0.32391855 -0.2339635
v 1.03245699 0.14353454 -0.2339635
v 0.87337601 -0.39043447 -0.2339635
v 0.360284 -0.45382446 -0.2339635
v 0.46447399 -0.79095047 -0.2339635
v 2.17492795 0.75883752 -0.2339635
v 2.02104711 0.41486254 -0.2339635
v 1.68087601 0.34874752 -0.2339635
v 1.85536098 0.68949556 -0.2339635
v 0.57604199 -1.09948635 -0.2339635
v 0.51820498 -0.94829046 -0.2339635
v 1.01691305 -0.58776843 -0.2339635
v 1.17094504 -0.80265545 -0.2339635
v 1.17532098 -0.00488546 -0.2339635
v 1.39794504 -0.20214246 -0.2339635
v 1.56071806 -0.12528546 -0.2339635
v 2.26282692 -0.92585945 -0.2339635
v 2.18114399 -1.04199957 -0.2339635
v 3.13322496 -0.98775947 -0.2339635
v 3.13364505 -1.14400744 -0.2339635
v 1.32216894 0.40226653 -0.2339635
v 1.06084501 0.51102751 -0.2339635
v 1.51901805 0.71569955 -0.2339635
v 1.368034 0.20925153 -0.2339635
v 2.14213299 1.07012057 -0.2339635
v 2.17411804 0.92053854 -0.2339635
v 2.02848792 0.93551951 -0.2339635
v 2.08371591 1.14906454 -0.2339635
v 1.80184304 0.87506753 -0.2339635
v 1.98540401 1.04843044 -0.2339635
g Group32941
f 82 81 80 79
g Group32944
f 2 1 80 81
g Group24467
f 9 7 1 2
g Group32941
f 84 83 81 82
g Group32944
f 13 2 81 83
g Group24467
f 11 9 2 13
g Group32941
f 88 87 86 85
g Group32944
f 25 24 88 85
f 23 25 85 86
g Group24467
f 24 25 23 21
g Group32941
f 92 91 90 89
g Group32944
f 14 15 89 90
g Group24467
f 19 15 14 18
g Group32941
f 87 92 89 86
g Group32944
f 15 23 86 89
g Group24467
f 21 23 15 19
g Group32941
f 96 95 94 93
g Group32944
f 28 3 93 94
g Group24467
f 5 3 28 27
g Group32941
f 95 79 80 94
g Group32944
f 1 28 94 80
g Group24467
f 27 28 1 7
g Group32941
f 88 98 97 87
g Group32944
f 24 29 98 88
g Group24467
f 24 21 30 29
g Group32941
f 98 100 99 97
g Group32944
f 26 22 99 100
f 29 26 100 98
g Group24467
f 29 30 22 26
g Group32941
f 102 101 97 99
g Group32944
f 22 20 102 99
g Group24467
f 20 22 30 31
g Group32941
f 101 92 87 97
g Group24467
f 31 30 21 19
g Group32941
f 92 101 103 91
g Group24467
f 19 18 32 31
g Group32941
f 101 102 104 103
g Group32944
f 20 8 104 102
g Group24467
f 31 32 8 20
g Group32941
f 107 106 105 104
g Group32944
f 8 10 107 104
g Group24467
f 10 8 34 33
g Group32941
f 106 82 79 105
g Group24467
f 33 34 7 9
g Group32941
f 109 108 106 107
g Group32944
f 10 12 109 107
g Group24467
f 12 10 33 35
g Group32941
f 108 84 82 106
g Group24467
f 35 33 9 11
g Group32941
f 112 111 110 96
g Group32944
f 16 36 111 112
g Group24467
f 16 5 37 36
g Group32941
f 111 90 91 110
g Group32944
f 36 14 90 111
g Group24467
f 36 37 18 14
g Group32941
f 95 113 105 79
g Group24467
f 27 7 34 38
g Group32941
f 113 103 104 105
g Group24467
f 38 34 8 32
g Group32941
f 96 110 113 95
g Group24467
f 5 27 38 37
g Group32941
f 110 91 103 113
g Group24467
f 37 38 32 18
g Group32941
f 117 116 115 114
g Group32944
f 4 6 117 114
f 40 4 114 115
g Group24467
f 6 4 40 39
g Group32941
f 116 96 93 115
g Group32944
f 3 40 115 93
g Group24467
f 39 40 3 5
g Group32941
f 96 116 118 112
g Group32944
f 41 16 112 118
g Group24467
f 5 16 41 39
g Group32941
f 116 117 119 118
g Group32944
f 17 41 118 119
f 6 17 119 117
g Group24467
f 39 41 17 6
g Group32941
f 123 122 121 120
g Group32944
f 43 42 121 122
g Group24467
f 50 48 42 43
g Group32941
f 125 124 122 123
g Group32944
f 54 43 122 124
f 52 54 124 125
g Group24467
f 52 50 43 54
g Group32941
f 129 128 127 126
g Group32944
f 55 56 126 127
g Group24467
f 60 56 55 59
g Group32941
f 131 129 126 130
g Group32944
f 56 64 130 126
g Group24467
f 62 64 56 60
g Group32941
f 135 134 133 132
g Group32944
f 66 44 132 133
g Group24467
f 46 44 66 65
g Group32941
f 134 120 121 133
g Group32944
f 42 66 133 121
g Group24467
f 65 66 42 48
g Group32941
f 139 138 137 136
g Group32944
f 63 61 139 136
g Group24467
f 61 63 67 68
g Group32941
f 138 129 131 137
g Group24467
f 68 67 62 60
g Group32941
f 129 138 140 128
g Group24467
f 60 59 69 68
g Group32941
f 138 139 141 140
g Group32944
f 61 49 141 139
g Group24467
f 68 69 49 61
g Group32941
f 144 143 142 141
g Group32944
f 49 51 144 141
g Group24467
f 51 49 71 70
g Group32941
f 143 123 120 142
g Group24467
f 70 71 48 50
g Group32941
f 146 145 143 144
g Group32944
f 51 53 146 144
f 53 72 145 146
g Group24467
f 53 51 70 72
g Group32941
f 145 125 123 143
g Group32944
f 72 52 125 145
g Group24467
f 72 70 50 52
g Group32941
f 149 148 147 135
g Group32944
f 57 73 148 149
g Group24467
f 57 46 74 73
g Group32941
f 148 127 128 147
g Group32944
f 73 55 127 148
g Group24467
f 73 74 59 55
g Group32941
f 134 150 142 120
g Group24467
f 65 48 71 75
g Group32941
f 150 140 141 142
g Group24467
f 75 71 49 69
g Group32941
f 135 147 150 134
g Group24467
f 46 65 75 74
g Group32941
f 147 128 140 150
g Group24467
f 74 75 69 59
g Group32941
f 154 153 152 151
g Group32944
f 45 47 154 151
f 77 45 151 152
g Group24467
f 47 45 77 76
g Group32941
f 153 135 132 152
g Group32944
f 44 77 152 132
g Group24467
f 76 77 44 46
g Group32941
f 135 153 155 149
g Group32944
f 78 57 149 155
g Group24467
f 46 57 78 76
g Group32941
f 153 154 156 155
g Group32944
f 58 78 155 156
f 47 58 156 154
g Group24467
f 76 78 58 47
g Group32941
f 131 130 83 84
g Group32944
f 64 13 83 130
g Group24467
f 62 11 13 64
g Group32941
f 137 131 84 108
g Group24467
f 67 35 11 62
g Group32941
f 136 137 108 109
g Group32944
f 12 63 136 109
g Group24467
f 63 12 35 67

 