# File exported by ZBrush version 2021
# www.zbrush.com
#Vertex Count 254
#Face Count 252
#Auto scale x=1.000000 y=1.000000 z=1.000000
#Auto offset x=0.000000 y=0.000000 z=0.000000
v 1.04021704 -0.452315 0.173087
v 1.04219102 -0.284193 0.173087
v 1.03682899 -0.615911 0.173087
v 0.26596298 0.11121399 0.173087
v 0.476047 -0.11955799 0.173087
v 0.171165 0.41427099 0.173087
v 0.05134899 0.57183301 0.173087
v -0.005416 0.40330201 0.173087
v -0.003365 0.615911 0.173087
v 0.124972 0.03387999 0.173087
v -0.006225 -0.050849 0.173087
v 0.38142898 -0.248389 0.173087
v 0.28406101 -0.37421101 0.173087
v 0.734847 -0.41848498 0.173087
v 0.69214201 -0.57657301 0.173087
v 0.778728 -0.25793299 0.173087
v -0.27276998 0.111215 0.173087
v -0.48285299 -0.11955799 0.173087
v -0.183366 0.416565 0.173087
v -0.061018 0.57008099 0.173087
v -0.131779 0.03387999 0.173087
v -0.388237 -0.248389 0.173087
v -0.29086801 -0.37421101 0.173087
v -0.74165397 -0.418484 0.173087
v -0.69894897 -0.57657301 0.173087
v -0.78553402 -0.25793299 0.173087
v -1.043697 -0.452315 0.173087
v -1.04172301 -0.284193 0.173087
v -1.04708397 -0.615911 0.173087
v 0.059779 0.218591 0.173087
v 0.218564 0.26274201 0.173087
v -1.04539096 -0.53411299 0.173087
v -0.72030198 -0.497529 0.173087
v -0.33955198 -0.3113 0.173087
v -0.069002 -0.008484 0.173087
v 1.03852295 -0.53411299 0.173087
v 0.33274498 -0.3113 0.173087
v 0.05937299 -0.008484 0.173087
v 0.71349501 -0.497529 0.173087
v -0.22806799 0.26388999 0.173087
v -0.06859699 0.218591 0.173087
v -0.004612 0.105053 0.173087
v -0.00439 0.509606 0.173087
v 0.111257 0.493052 0.173087
v -0.122192 0.49332299 0.173087
v 3.12518501 -0.452315 0.173087
v 3.12715911 -0.284193 0.173087
v 3.12179708 -0.615911 0.173087
v 2.35093092 0.11121399 0.173087
v 2.56101489 -0.11955799 0.173087
v 2.25613308 0.41427099 0.173087
v 2.13631701 0.57183301 0.173087
v 2.07955193 0.40330201 0.173087
v 2.081604 0.615911 0.173087
v 2.2099421 0.03387999 0.173087
v 2.07874298 -0.050849 0.173087
v 2.46639704 -0.248389 0.173087
v 2.36902999 -0.37421101 0.173087
v 2.81981492 -0.41848498 0.173087
v 2.7771101 -0.57657301 0.173087
v 2.86369609 -0.25793299 0.173087
v 1.81219899 0.111215 0.173087
v 1.60211503 -0.11955799 0.173087
v 1.90160203 0.416565 0.173087
v 2.02395105 0.57008099 0.173087
v 1.95318901 0.03387999 0.173087
v 1.69673097 -0.248389 0.173087
v 1.79410004 -0.37421101 0.173087
v 1.34331405 -0.418484 0.173087
v 1.38601899 -0.57657301 0.173087
v 1.29943394 -0.25793299 0.173087
v 2.14474797 0.218591 0.173087
v 2.30353188 0.26274201 0.173087
v 1.36466598 -0.497529 0.173087
v 1.74541604 -0.3113 0.173087
v 2.01596593 -0.008484 0.173087
v 3.12349104 -0.53411299 0.173087
v 2.41771292 -0.3113 0.173087
v 2.14434289 -0.008484 0.173087
v 2.7984631 -0.497529 0.173087
v 1.85689997 0.26388999 0.173087
v 2.01637101 0.218591 0.173087
v 2.08035588 0.105053 0.173087
v 2.08057808 0.509606 0.173087
v 2.19622588 0.493052 0.173087
v 1.96277594 0.49332299 0.173087
v -1.81411194 0.11121399 0.173087
v -1.60402905 -0.11955799 0.173087
v -1.90891003 0.41427099 0.173087
v -2.0287261 0.57183301 0.173087
v -2.08549094 0.40330201 0.173087
v -2.08344006 0.615911 0.173087
v -1.95510304 0.03387999 0.173087
v -2.08630108 -0.050849 0.173087
v -1.69864594 -0.248389 0.173087
v -1.79601395 -0.37421101 0.173087
v -1.34522795 -0.41848498 0.173087
v -1.38793396 -0.57657301 0.173087
v -1.30134701 -0.25793299 0.173087
v -2.35284495 0.111215 0.173087
v -2.5629301 -0.11955799 0.173087
v -2.26344108 0.416565 0.173087
v -2.14109206 0.57008099 0.173087
v -2.21185493 0.03387999 0.173087
v -2.46831107 -0.248389 0.173087
v -2.37094306 -0.37421101 0.173087
v -2.82172989 -0.418484 0.173087
v -2.77902507 -0.57657301 0.173087
v -2.86561107 -0.25793299 0.173087
v -3.12377095 -0.452315 0.173087
v -3.12179708 -0.284193 0.173087
v -3.12715911 -0.615911 0.173087
v -2.02029705 0.218591 0.173087
v -1.86151099 0.26274201 0.173087
v -3.12546491 -0.53411299 0.173087
v -2.80037689 -0.497529 0.173087
v -2.4196279 -0.3113 0.173087
v -2.14907789 -0.008484 0.173087
v -1.74732995 -0.3113 0.173087
v -2.02070093 -0.008484 0.173087
v -1.36658 -0.497529 0.173087
v -2.3081429 0.26388999 0.173087
v -2.1486721 0.218591 0.173087
v -2.08468604 0.105053 0.173087
v -2.08446502 0.509606 0.173087
v -1.96881794 0.493052 0.173087
v -2.20226693 0.49332299 0.173087
v 0.124972 0.03387999 -0.173087
v 0.26596298 0.11121399 -0.173087
v 0.476047 -0.11955799 -0.173087
v 0.38142898 -0.248389 -0.173087
v 0.778728 -0.25793299 -0.173087
v 0.734847 -0.41848498 -0.173087
v 1.04219102 -0.284193 -0.173087
v 1.04021704 -0.452315 -0.173087
v -1.04172301 -0.284193 -0.173087
v -0.78553402 -0.25793299 -0.173087
v -0.74165397 -0.418484 -0.173087
v -1.043697 -0.452315 -0.173087
v -0.48285299 -0.11955799 -0.173087
v -0.27276998 0.111215 -0.173087
v -0.131779 0.03387999 -0.173087
v -0.388237 -0.248389 -0.173087
v 0.171165 0.41427099 -0.173087
v 0.218564 0.26274201 -0.173087
v 0.059779 0.218591 -0.173087
v -0.005416 0.40330201 -0.173087
v -0.72030198 -0.497529 -0.173087
v -1.04539096 -0.53411299 -0.173087
v -0.69894897 -0.57657301 -0.173087
v -1.04708397 -0.615911 -0.173087
v -0.33955198 -0.3113 -0.173087
v -0.29086801 -0.37421101 -0.173087
v -0.069002 -0.008484 -0.173087
v -0.006225 -0.050849 -0.173087
v 0.05937299 -0.008484 -0.173087
v 0.33274498 -0.3113 -0.173087
v 0.28406101 -0.37421101 -0.173087
v 0.71349501 -0.497529 -0.173087
v 0.69214201 -0.57657301 -0.173087
v 1.03852295 -0.53411299 -0.173087
v 1.03682899 -0.615911 -0.173087
v -0.06859699 0.218591 -0.173087
v -0.22806799 0.26388999 -0.173087
v -0.183366 0.416565 -0.173087
v -0.004612 0.105053 -0.173087
v 0.05134899 0.57183301 -0.173087
v 0.111257 0.493052 -0.173087
v -0.00439 0.509606 -0.173087
v -0.003365 0.615911 -0.173087
v -0.122192 0.49332299 -0.173087
v -0.061018 0.57008099 -0.173087
v 2.2099421 0.03387999 -0.173087
v 2.35093092 0.11121399 -0.173087
v 2.56101489 -0.11955799 -0.173087
v 2.46639704 -0.248389 -0.173087
v 2.86369609 -0.25793299 -0.173087
v 2.81981492 -0.41848498 -0.173087
v 3.12715911 -0.284193 -0.173087
v 3.12518501 -0.452315 -0.173087
v 1.60211503 -0.11955799 -0.173087
v 1.81219899 0.111215 -0.173087
v 1.95318901 0.03387999 -0.173087
v 1.69673097 -0.248389 -0.173087
v 1.29943394 -0.25793299 -0.173087
v 1.34331405 -0.418484 -0.173087
v 2.25613308 0.41427099 -0.173087
v 2.30353188 0.26274201 -0.173087
v 2.14474797 0.218591 -0.173087
v 2.07955193 0.40330201 -0.173087
v 1.38601899 -0.57657301 -0.173087
v 1.36466598 -0.497529 -0.173087
v 1.74541604 -0.3113 -0.173087
v 1.79410004 -0.37421101 -0.173087
v 2.01596593 -0.008484 -0.173087
v 2.07874298 -0.050849 -0.173087
v 2.14434289 -0.008484 -0.173087
v 2.41771292 -0.3113 -0.173087
v 2.36902999 -0.37421101 -0.173087
v 2.7984631 -0.497529 -0.173087
v 2.7771101 -0.57657301 -0.173087
v 3.12349104 -0.53411299 -0.173087
v 3.12179708 -0.615911 -0.173087
v 2.01637101 0.218591 -0.173087
v 1.85689997 0.26388999 -0.173087
v 1.90160203 0.416565 -0.173087
v 2.08035588 0.105053 -0.173087
v 2.13631701 0.57183301 -0.173087
v 2.19622588 0.493052 -0.173087
v 2.08057808 0.509606 -0.173087
v 2.081604 0.615911 -0.173087
v 1.96277594 0.49332299 -0.173087
v 2.02395105 0.57008099 -0.173087
v -1.95510304 0.03387999 -0.173087
v -1.81411194 0.11121399 -0.173087
v -1.60402905 -0.11955799 -0.173087
v -1.69864594 -0.248389 -0.173087
v -1.30134701 -0.25793299 -0.173087
v -1.34522795 -0.41848498 -0.173087
v -3.12179708 -0.284193 -0.173087
v -2.86561107 -0.25793299 -0.173087
v -2.82172989 -0.418484 -0.173087
v -3.12377095 -0.452315 -0.173087
v -2.5629301 -0.11955799 -0.173087
v -2.35284495 0.111215 -0.173087
v -2.21185493 0.03387999 -0.173087
v -2.46831107 -0.248389 -0.173087
v -1.90891003 0.41427099 -0.173087
v -1.86151099 0.26274201 -0.173087
v -2.02029705 0.218591 -0.173087
v -2.08549094 0.40330201 -0.173087
v -2.80037689 -0.497529 -0.173087
v -3.12546491 -0.53411299 -0.173087
v -2.77902507 -0.57657301 -0.173087
v -3.12715911 -0.615911 -0.173087
v -2.4196279 -0.3113 -0.173087
v -2.37094306 -0.37421101 -0.173087
v -2.14907789 -0.008484 -0.173087
v -2.08630108 -0.050849 -0.173087
v -2.02070093 -0.008484 -0.173087
v -1.74732995 -0.3113 -0.173087
v -1.79601395 -0.37421101 -0.173087
v -1.36658 -0.497529 -0.173087
v -1.38793396 -0.57657301 -0.173087
v -2.1486721 0.218591 -0.173087
v -2.3081429 0.26388999 -0.173087
v -2.26344108 0.416565 -0.173087
v -2.08468604 0.105053 -0.173087
v -2.0287261 0.57183301 -0.173087
v -1.96881794 0.493052 -0.173087
v -2.08446502 0.509606 -0.173087
v -2.08344006 0.615911 -0.173087
v -2.20226693 0.49332299 -0.173087
v -2.14109206 0.57008099 -0.173087
g Group32941
f 131 130 129 128
g Group32944
f 5 4 129 130
g Group7281
f 12 10 4 5
g Group32941
f 133 132 130 131
g Group32944
f 16 5 130 132
g Group7281
f 14 12 5 16
g Group32941
f 132 133 135 134
g Group32944
f 2 16 132 134
g Group7281
f 16 2 1 14
g Group32941
f 139 138 137 136
g Group32944
f 26 28 136 137
g Group7281
f 27 28 26 24
g Group32941
f 143 142 141 140
g Group32944
f 17 18 140 141
g Group7281
f 22 18 17 21
g Group32941
f 138 143 140 137
g Group32944
f 18 26 137 140
g Group7281
f 24 26 18 22
g Group32941
f 147 146 145 144
g Group32944
f 31 6 144 145
g Group7281
f 8 6 31 30
g Group32941
f 146 128 129 145
g Group32944
f 4 31 145 129
g Group7281
f 30 31 4 10
g Group32941
f 139 149 148 138
g Group7281
f 27 24 33 32
g Group32941
f 149 151 150 148
g Group32944
f 29 25 150 151
g Group7281
f 32 33 25 29
g Group32941
f 153 152 148 150
g Group32944
f 25 23 153 150
g Group7281
f 23 25 33 34
g Group32941
f 152 143 138 148
g Group7281
f 34 33 24 22
g Group32941
f 143 152 154 142
g Group7281
f 22 21 35 34
g Group32941
f 152 153 155 154
g Group32944
f 23 11 155 153
g Group7281
f 34 35 11 23
g Group32941
f 158 157 156 155
g Group32944
f 11 13 158 155
g Group7281
f 13 11 38 37
g Group32941
f 157 131 128 156
g Group7281
f 37 38 10 12
g Group32941
f 160 159 157 158
g Group32944
f 13 15 160 158
g Group7281
f 15 13 37 39
g Group32941
f 159 133 131 157
g Group7281
f 39 37 12 14
g Group32941
f 133 159 161 135
g Group7281
f 14 1 36 39
g Group32941
f 159 160 162 161
g Group32944
f 15 3 162 160
g Group7281
f 39 36 3 15
g Group32941
f 165 164 163 147
g Group32944
f 19 40 164 165
g Group7281
f 19 8 41 40
g Group32941
f 164 141 142 163
g Group32944
f 40 17 141 164
g Group7281
f 40 41 21 17
g Group32941
f 146 166 156 128
g Group7281
f 30 10 38 42
g Group32941
f 166 154 155 156
g Group7281
f 42 38 11 35
g Group32941
f 147 163 166 146
g Group7281
f 8 30 42 41
g Group32941
f 163 142 154 166
g Group7281
f 41 42 35 21
g Group32941
f 170 169 168 167
g Group32944
f 7 9 170 167
f 44 7 167 168
g Group7281
f 9 7 44 43
g Group32941
f 169 147 144 168
g Group32944
f 6 44 168 144
g Group7281
f 43 44 6 8
g Group32941
f 147 169 171 165
g Group32944
f 45 19 165 171
g Group7281
f 8 19 45 43
g Group32941
f 169 170 172 171
g Group32944
f 20 45 171 172
f 9 20 172 170
g Group7281
f 43 45 20 9
g Group32941
f 176 175 174 173
g Group32944
f 50 49 174 175
g Group7281
f 57 55 49 50
g Group32941
f 178 177 175 176
g Group32944
f 61 50 175 177
g Group7281
f 59 57 50 61
g Group32941
f 177 178 180 179
g Group32944
f 47 61 177 179
f 46 47 179 180
g Group7281
f 61 47 46 59
g Group32941
f 184 183 182 181
g Group32944
f 62 63 181 182
g Group7281
f 67 63 62 66
g Group32941
f 186 184 181 185
g Group32944
f 63 71 185 181
g Group7281
f 69 71 63 67
g Group32941
f 190 189 188 187
g Group32944
f 73 51 187 188
g Group7281
f 53 51 73 72
g Group32941
f 189 173 174 188
g Group32944
f 49 73 188 174
g Group7281
f 72 73 49 55
g Group32941
f 194 193 192 191
g Group32944
f 70 68 194 191
g Group7281
f 68 70 74 75
g Group32941
f 193 184 186 192
g Group7281
f 75 74 69 67
g Group32941
f 184 193 195 183
g Group7281
f 67 66 76 75
g Group32941
f 193 194 196 195
g Group32944
f 68 56 196 194
g Group7281
f 75 76 56 68
g Group32941
f 199 198 197 196
g Group32944
f 56 58 199 196
g Group7281
f 58 56 79 78
g Group32941
f 198 176 173 197
g Group7281
f 78 79 55 57
g Group32941
f 201 200 198 199
g Group32944
f 58 60 201 199
g Group7281
f 60 58 78 80
g Group32941
f 200 178 176 198
g Group7281
f 80 78 57 59
g Group32941
f 178 200 202 180
g Group32944
f 77 46 180 202
g Group7281
f 59 46 77 80
g Group32941
f 200 201 203 202
g Group32944
f 48 77 202 203
f 60 48 203 201
g Group7281
f 80 77 48 60
g Group32941
f 206 205 204 190
g Group32944
f 64 81 205 206
g Group7281
f 64 53 82 81
g Group32941
f 205 182 183 204
g Group32944
f 81 62 182 205
g Group7281
f 81 82 66 62
g Group32941
f 189 207 197 173
g Group7281
f 72 55 79 83
g Group32941
f 207 195 196 197
g Group7281
f 83 79 56 76
g Group32941
f 190 204 207 189
g Group7281
f 53 72 83 82
g Group32941
f 204 183 195 207
g Group7281
f 82 83 76 66
g Group32941
f 211 210 209 208
g Group32944
f 52 54 211 208
f 85 52 208 209
g Group7281
f 54 52 85 84
g Group32941
f 210 190 187 209
g Group32944
f 51 85 209 187
g Group7281
f 84 85 51 53
g Group32941
f 190 210 212 206
g Group32944
f 86 64 206 212
g Group7281
f 53 64 86 84
g Group32941
f 210 211 213 212
g Group32944
f 65 86 212 213
f 54 65 213 211
g Group7281
f 84 86 65 54
g Group32941
f 217 216 215 214
g Group32944
f 88 87 215 216
g Group7281
f 95 93 87 88
g Group32941
f 219 218 216 217
g Group32944
f 99 88 216 218
g Group7281
f 97 95 88 99
g Group32941
f 223 222 221 220
g Group32944
f 111 110 223 220
f 109 111 220 221
g Group7281
f 110 111 109 107
g Group32941
f 227 226 225 224
g Group32944
f 100 101 224 225
g Group7281
f 105 101 100 104
g Group32941
f 222 227 224 221
g Group32944
f 101 109 221 224
g Group7281
f 107 109 101 105
g Group32941
f 231 230 229 228
g Group32944
f 114 89 228 229
g Group7281
f 91 89 114 113
g Group32941
f 230 214 215 229
g Group32944
f 87 114 229 215
g Group7281
f 113 114 87 93
g Group32941
f 223 233 232 222
g Group32944
f 110 115 233 223
g Group7281
f 110 107 116 115
g Group32941
f 233 235 234 232
g Group32944
f 112 108 234 235
f 115 112 235 233
g Group7281
f 115 116 108 112
g Group32941
f 237 236 232 234
g Group32944
f 108 106 237 234
g Group7281
f 106 108 116 117
g Group32941
f 236 227 222 232
g Group7281
f 117 116 107 105
g Group32941
f 227 236 238 226
g Group7281
f 105 104 118 117
g Group32941
f 236 237 239 238
g Group32944
f 106 94 239 237
g Group7281
f 117 118 94 106
g Group32941
f 242 241 240 239
g Group32944
f 94 96 242 239
g Group7281
f 96 94 120 119
g Group32941
f 241 217 214 240
g Group7281
f 119 120 93 95
g Group32941
f 244 243 241 242
g Group32944
f 96 98 244 242
g Group7281
f 98 96 119 121
g Group32941
f 243 219 217 241
g Group7281
f 121 119 95 97
g Group32941
f 247 246 245 231
g Group32944
f 102 122 246 247
g Group7281
f 102 91 123 122
g Group32941
f 246 225 226 245
g Group32944
f 122 100 225 246
g Group7281
f 122 123 104 100
g Group32941
f 230 248 240 214
g Group7281
f 113 93 120 124
g Group32941
f 248 238 239 240
g Group7281
f 124 120 94 118
g Group32941
f 231 245 248 230
g Group7281
f 91 113 124 123
g Group32941
f 245 226 238 248
g Group7281
f 123 124 118 104
g Group32941
f 252 251 250 249
g Group32944
f 90 92 252 249
f 126 90 249 250
g Group7281
f 92 90 126 125
g Group32941
f 251 231 228 250
g Group32944
f 89 126 250 228
g Group7281
f 125 126 89 91
g Group32941
f 231 251 253 247
g Group32944
f 127 102 247 253
g Group7281
f 91 102 127 125
g Group32941
f 251 252 254 253
g Group32944
f 103 127 253 254
f 92 103 254 252
g Group7281
f 125 127 103 92
g Group32941
f 186 185 134 135
g Group32944
f 71 2 134 185
g Group7281
f 69 1 2 71
g Group32941
f 192 186 135 161
g Group7281
f 74 36 1 69
g Group32941
f 191 192 161 162
g Group32944
f 3 70 191 162
g Group7281
f 70 3 36 74
g Group32941
f 218 219 139 136
g Group32944
f 28 99 218 136
g Group7281
f 99 28 27 97
g Group32941
f 219 243 149 139
g Group7281
f 97 27 32 121
g Group32941
f 243 244 151 149
g Group32944
f 98 29 151 244
g Group7281
f 121 32 29 98

 