# File exported by ZBrush version 2021
# www.zbrush.com
#Vertex Count 136
#Face Count 140
#Auto scale x=1.000000 y=1.000000 z=1.000000
#Auto offset x=0.000000 y=0.000000 z=0.000000
v -0.18094345 -0.2236305 0.27295899
v -0.40198844 -0.6595245 0.27295899
v -1.09721541 0.63837748 0.275433
v -1.27557849 0.22185649 0.27295899
v -2.77703452 -0.22360551 0.27350199
v -2.5559895 -0.65949952 0.27350199
v -2.95470356 -0.7812035 0.275976
v -2.95501041 -0.29260951 0.27350199
v -1.86076045 0.63840252 0.275976
v -1.68239843 0.22188149 0.27350199
v -1.4789884 0.2768535 0.273231
v -1.4789884 0.76544851 0.27570501
v -0.00119045 -0.78121548 0.27570399
v -0.00119045 -0.29262149 0.27323001
v -2.77706742 0.22372849 0.27295899
v -2.5560224 0.65962249 0.27295899
v -2.95473742 0.78132647 0.275433
v -2.95447635 0.29273247 0.27295899
v -1.86079549 -0.63827949 0.275433
v -1.68243241 -0.22175851 0.27295899
v -0.18097746 0.22370348 0.27350199
v -0.40202245 0.65959751 0.27350199
v -1.0972495 -0.63830453 0.275976
v -1.27561247 -0.2217835 0.27350199
v -1.4790225 -0.27675551 0.273231
v -1.4790225 -0.76535052 0.27570501
v -0.73079645 0.32759448 0.27350199
v -0.41303044 -0.0007015 0.27463701
v -1.07056641 -0.0155145 0.27350199
v -0.75494247 -0.35041749 0.27581
v -2.20572757 -0.34776851 0.275256
v -1.89053642 -0.0124025 0.27295899
v -2.5675795 -0.0050375 0.274102
v -2.22479653 0.32514149 0.27295899
v 2.77479362 -0.2236305 0.27295899
v 2.55374956 -0.6595245 0.27295899
v 1.85852158 0.63837748 0.275433
v 1.68015849 0.22185649 0.27295899
v 0.17870254 -0.22360551 0.27350199
v 0.39974755 -0.65949952 0.27350199
v 1.09497654 0.63840252 0.275976
v 1.27333855 0.22188149 0.27350199
v 1.47674858 0.2768535 0.273231
v 1.47674858 0.76544851 0.27570501
v 2.95454645 -0.78121548 0.27570399
v 2.95454645 -0.29262149 0.27323001
v 0.17866954 0.22372849 0.27295899
v 0.39971453 0.65962249 0.27295899
v 0.00099954 0.78132647 0.275433
v 0.00126054 0.29273247 0.27295899
v 1.09494149 -0.63827949 0.275433
v 1.27330458 -0.22175851 0.27295899
v 2.77475953 0.22370348 0.27350199
v 2.55371451 0.65959751 0.27350199
v 1.85848748 -0.63830453 0.275976
v 1.68012452 -0.2217835 0.27350199
v 1.47671449 -0.27675551 0.273231
v 1.47671449 -0.76535052 0.27570501
v 2.95451259 0.78131347 0.27570399
v 2.95451259 0.29271948 0.27323001
v 2.22494053 0.32759448 0.27350199
v 2.54270649 -0.0007015 0.27463701
v 1.88517057 -0.0155145 0.27350199
v 2.20079445 -0.35041749 0.27581
v 0.75000953 -0.34776851 0.275256
v 1.06520056 -0.0124025 0.27295899
v 0.38815754 -0.0050375 0.274102
v 0.73094052 0.32514149 0.27295899
v -0.00071445 -0.78309547 -0.27322197
v -0.40240246 -0.65984749 -0.275976
v -0.18135745 -0.22395351 -0.275976
v -0.00071445 -0.29450151 -0.27569598
v -1.27526342 0.22413249 -0.275963
v -1.09690046 0.64065349 -0.27348899
v -0.73044848 0.3271895 -0.27542698
v -1.06953442 -0.0163595 -0.27542597
v -1.47946846 0.2796815 -0.275689
v -1.47946846 0.76827651 -0.27321499
v -2.77699947 -0.2242795 -0.27542901
v -2.55595445 -0.66017353 -0.27542901
v -2.95643544 -0.78308749 -0.27294498
v -2.95674252 -0.29449349 -0.27541899
v -2.22471356 0.32502448 -0.275972
v -1.86092746 0.64101749 -0.272946
v -1.68256545 0.22449649 -0.27542001
v -1.89113247 -0.0129565 -0.27597302
v -2.95647144 0.7832095 -0.27348798
v -2.55680251 0.6600905 -0.27596998
v -2.77784752 0.22419649 -0.27596998
v -2.95621037 0.29461547 -0.27596199
v -1.68356442 -0.22434851 -0.27596098
v -1.8619275 -0.64086949 -0.27348697
v -2.20606446 -0.34897652 -0.27367299
v -1.47854244 -0.27958351 -0.275689
v -1.47854244 -0.76817852 -0.27321499
v -2.56723642 -0.0058085 -0.27482599
v -0.18068446 0.22405949 -0.27542698
v -0.40172946 0.65995252 -0.27542698
v 0.00051454 0.78309351 -0.27349197
v 0.00077554 0.29449948 -0.27596598
v -0.75499546 -0.3513565 -0.27312296
v -1.0956335 -0.64080148 -0.27294302
v -1.27399647 -0.2242805 -0.27541697
v -0.41376745 -0.0012005 -0.27429401
v 2.95674252 -0.7832095 -0.27321499
v 2.55333542 -0.65984749 -0.275976
v 2.77438044 -0.22395351 -0.275976
v 2.95674252 -0.2946155 -0.275689
v 1.68047356 0.22413249 -0.27596402
v 1.85883653 0.64065349 -0.27349001
v 2.22528863 0.3271895 -0.27542698
v 1.88620257 -0.0163595 -0.27542698
v 1.47626853 0.2796815 -0.275689
v 1.47626853 0.76827651 -0.27321499
v 0.17898154 -0.22422151 -0.27542799
v 0.40002653 -0.66011548 -0.27542799
v 0.73102456 0.32502448 -0.275972
v 1.09480953 0.64101749 -0.272946
v 1.27317154 0.22449649 -0.27542001
v 1.06460452 -0.0129565 -0.27597302
v 0.39893454 0.6600905 -0.27596998
v 0.17788954 0.22419649 -0.27596998
v 1.27217149 -0.22434851 -0.27596098
v 1.09380948 -0.64086949 -0.27348697
v 0.74967253 -0.34897652 -0.27367299
v 1.47719454 -0.27958351 -0.275689
v 1.47719454 -0.76817852 -0.27321499
v 0.38850054 -0.0058085 -0.27482599
v 2.77529263 0.22411648 -0.27542698
v 2.55424857 0.66001051 -0.27542698
v 2.95575761 0.7830795 -0.27321898
v 2.95575761 0.29448548 -0.27569299
v 2.20074152 -0.3513565 -0.27312296
v 1.86010348 -0.64080148 -0.27294302
v 1.68174052 -0.2242805 -0.27541697
v 2.54196953 -0.0012005 -0.274293
g Group32941
f 72 71 70 69
g Group32944
f 2 13 69 70
f 14 1 71 72
g Group34893
f 14 13 2 1
g Group32941
f 76 75 74 73
g Group32944
f 4 29 76 73
f 27 3 74 75
g Group34893
f 29 4 3 27
g Group32941
f 73 74 78 77
g Group32944
f 11 4 73 77
f 3 12 78 74
g Group34893
f 4 11 12 3
g Group32941
f 82 81 80 79
g Group32944
f 5 8 82 79
f 7 6 80 81
f 8 7 81 82
g Group34893
f 8 5 6 7
g Group32941
f 86 85 84 83
g Group32944
f 9 34 83 84
f 32 10 85 86
g Group34893
f 32 34 9 10
g Group32941
f 85 77 78 84
g Group32944
f 12 9 84 78
f 10 11 77 85
g Group34893
f 10 9 12 11
g Group32941
f 90 89 88 87
g Group32944
f 17 18 90 87
f 16 17 87 88
f 18 15 89 90
g Group34893
f 18 17 16 15
g Group32941
f 86 93 92 91
g Group32944
f 20 32 86 91
f 31 19 92 93
g Group34893
f 32 20 19 31
g Group32941
f 91 92 95 94
g Group32944
f 25 20 91 94
f 19 26 95 92
g Group34893
f 20 25 26 19
g Group32941
f 88 89 96 83
g Group32944
f 34 16 88 83
f 15 33 96 89
g Group34893
f 16 34 33 15
g Group32941
f 100 99 98 97
g Group32944
f 21 50 100 97
f 49 22 98 99
g Group34893
f 50 21 22 49
g Group32941
f 76 103 102 101
g Group32944
f 23 30 101 102
f 29 24 103 76
g Group34893
f 29 30 23 24
g Group32941
f 103 94 95 102
g Group32944
f 26 23 102 95
f 24 25 94 103
g Group34893
f 24 23 26 25
g Group32941
f 98 75 104 97
g Group32944
f 28 21 97 104
f 22 27 75 98
g Group34893
f 22 21 28 27
g Group32941
f 75 76 101 104
g Group34893
f 27 28 30 29
g Group32941
f 83 96 93 86
g Group34893
f 34 32 31 33
g Group32941
f 93 96 79 80
g Group32944
f 6 31 93 80
f 33 5 79 96
g Group34893
f 31 6 5 33
g Group32941
f 104 101 70 71
g Group32944
f 1 28 104 71
f 30 2 70 101
g Group34893
f 28 1 2 30
g Group32941
f 108 107 106 105
g Group32944
f 45 46 108 105
f 36 45 105 106
f 46 35 107 108
g Group34893
f 46 45 36 35
g Group32941
f 112 111 110 109
g Group32944
f 38 63 112 109
f 61 37 110 111
g Group34893
f 63 38 37 61
g Group32941
f 109 110 114 113
g Group32944
f 43 38 109 113
f 37 44 114 110
g Group34893
f 38 43 44 37
g Group32941
f 72 69 116 115
g Group32944
f 39 14 72 115
f 13 40 116 69
g Group34893
f 14 39 40 13
g Group32941
f 120 119 118 117
g Group32944
f 41 68 117 118
f 66 42 119 120
g Group34893
f 66 68 41 42
g Group32941
f 119 113 114 118
g Group32944
f 44 41 118 114
f 42 43 113 119
g Group34893
f 42 41 44 43
g Group32941
f 100 122 121 99
g Group32944
f 48 49 99 121
f 50 47 122 100
g Group34893
f 50 49 48 47
g Group32941
f 120 125 124 123
g Group32944
f 52 66 120 123
f 65 51 124 125
g Group34893
f 66 52 51 65
g Group32941
f 123 124 127 126
g Group32944
f 57 52 123 126
f 51 58 127 124
g Group34893
f 52 57 58 51
g Group32941
f 121 122 128 117
g Group32944
f 68 48 121 117
f 47 67 128 122
g Group34893
f 48 68 67 47
g Group32941
f 132 131 130 129
g Group32944
f 53 60 132 129
f 59 54 130 131
f 60 59 131 132
g Group34893
f 60 53 54 59
g Group32941
f 112 135 134 133
g Group32944
f 55 64 133 134
f 63 56 135 112
g Group34893
f 63 64 55 56
g Group32941
f 135 126 127 134
g Group32944
f 58 55 134 127
f 56 57 126 135
g Group34893
f 56 55 58 57
g Group32941
f 130 111 136 129
g Group32944
f 62 53 129 136
f 54 61 111 130
g Group34893
f 54 53 62 61
g Group32941
f 111 112 133 136
g Group34893
f 61 62 64 63
g Group32941
f 117 128 125 120
g Group34893
f 68 66 65 67
g Group32941
f 125 128 115 116
g Group32944
f 40 65 125 116
f 67 39 115 128
g Group34893
f 65 40 39 67
g Group32941
f 136 133 106 107
g Group32944
f 35 62 136 107
f 64 36 106 133
g Group34893
f 62 35 36 64

 