# File exported by ZBrush version 2021
# www.zbrush.com
#Vertex Count 440
#Face Count 440
#Auto scale x=1.000000 y=1.000000 z=1.000000
#Auto offset x=0.000000 y=0.000000 z=0.000000
v -2.29716825 -0.65870297 0.1864085
v -2.18282032 -0.57413494 0.18613949
v -1.97008943 -0.81317895 0.1866195
v -2.06669139 -0.91663497 0.18692649
v -1.84750843 -0.92641896 0.1868605
v -1.94487452 -1.03100895 0.18716849
v -1.72580742 -1.03884792 0.1870985
v -1.82211744 -1.14626693 0.1874125
v -1.60027253 -1.14082193 0.18733449
v -1.68836844 -1.25506699 0.18766149
v -1.46796751 -1.24228799 0.1875775
v -1.55547046 -1.35659301 0.18790149
v -1.33543145 -1.34393191 0.18782149
v -1.42281842 -1.45793092 0.18814149
v -1.20281148 -1.44634592 0.1880715
v -1.29133546 -1.55957591 0.1883855
v -1.07111942 -1.5492599 0.1883305
v -1.16045749 -1.66296696 0.18863949
v -0.93950247 -1.65211594 0.1885885
v -1.02949643 -1.76642501 0.18889349
v -0.68247145 -1.87942493 0.1891285
v -0.79023045 -1.98379695 0.18939149
v -0.56510245 -1.99826991 0.1893955
v -0.67563247 -2.105021 0.1896505
v -0.44777149 -2.11707496 0.1896635
v -0.56097048 -2.22631216 0.1899095
v -0.33094048 -2.23666477 0.1899455
v -0.44602248 -2.34732103 0.1901775
v -0.21240247 -2.35937118 0.19023749
v -0.33266547 -2.46645879 0.19044549
v -0.10669647 -2.49149179 0.19052849
v -0.22611548 -2.59100389 0.19074149
v -0.00012947 -2.63916683 0.1908935
v -0.12211947 -2.72436094 0.19105449
v 0.11568452 -2.71645975 0.19108949
v 0.00417252 -2.86601781 0.1914625
v 0.11603252 -2.48899793 0.1905715
v 0.22702051 -2.59318113 0.19079349
v 0.23287552 -2.36863088 0.19028249
v 0.34095352 -2.47171115 0.19052049
v 0.34858852 -2.24804973 0.18999449
v 0.45584151 -2.3502779 0.1902485
v 0.46553352 -2.12599611 0.18970349
v 0.56949549 -2.23029375 0.18997949
v 0.58747553 -2.00917911 0.18943449
v 0.6893875 -2.11568498 0.18971449
v 0.70832049 -1.89341294 0.1891675
v 0.81036549 -2.0002141 0.1894485
v 0.96436953 -1.6681329 0.18862849
v 1.05598449 -1.78286194 0.18893349
v 1.09560954 -1.56420195 0.1883675
v 1.18650853 -1.67835891 0.18867649
v 1.22685957 -1.46026396 0.18810649
v 1.31702256 -1.57386398 0.1884205
v 1.35898757 -1.35662698 0.1878525
v 1.44786453 -1.4709109 0.1881725
v 1.49118852 -1.25391292 0.1876055
v 1.58010256 -1.36857092 0.18792949
v 1.62317156 -1.15136694 0.18735949
v 1.71255052 -1.26606893 0.1876875
v 1.74944055 -1.049281 0.18712149
v 1.84677255 -1.15762794 0.18743649
v 1.87013351 -0.93601995 0.18688049
v 1.96922051 -1.04081094 0.1871895
v 1.99208951 -0.82157498 0.18663749
v 2.09035873 -0.92524397 0.1869445
v 2.20429658 -0.58177495 0.1861535
v 2.32036352 -0.66575896 0.18642249
v 2.30126953 -0.44560894 0.1858935
v 2.4190793 -0.53046095 0.18616449
v 2.39694643 -0.31126496 0.1856365
v 2.5191183 -0.39334794 0.18590249
v 2.47280359 -0.17308595 0.1853915
v 2.60557842 -0.23878796 0.1856285
v 2.54540538 -0.02293895 0.1851325
v 2.67931175 -0.08805495 0.1853705
v 2.61787176 0.12692704 0.1848745
v 2.75315332 0.06290204 0.18511249
v 2.6767745 0.27328804 0.18463049
v 2.8194766 0.22687503 0.1848405
v 2.72551059 0.43194204 0.18437649
v 2.86851263 0.38822904 0.18458449
v 2.77454042 0.59155702 0.1841215
v 2.91724062 0.54857003 0.18432949
v 2.81553363 0.74358701 0.18388049
v 2.96289444 0.71989107 0.18406249
v 2.83301162 0.90610104 0.1836345
v 2.98113441 0.89011406 0.1838185
v 2.85088062 1.0722481 0.18338249
v 2.9989767 1.05663704 0.1835805
v 2.84011554 1.38229703 0.18354649
v 2.9855256 1.41105103 0.1837375
v 2.80769443 1.54613709 0.18401649
v 2.95206737 1.57524609 0.18416249
v 2.71229028 1.84028601 0.18501749
v 2.8394494 1.91219902 0.18517549
v 2.62919664 1.98482203 0.18566049
v 2.75550746 2.057621 0.18572449
v 2.5472083 2.12743187 0.18629549
v 2.67042446 2.2050209 0.1862805
v 2.45278167 2.23914623 0.18659849
v 2.54961729 2.34822607 0.1866115
v 2.32631349 2.34588289 0.18665449
v 2.42041873 2.45733404 0.18666049
v 2.1991744 2.45318603 0.1867115
v 2.29182148 2.56593608 0.18670949
v 1.92437458 2.58946704 0.18674749
v 1.97453546 2.72951889 0.18674749
v 1.76683354 2.64482688 0.18674749
v 1.81706154 2.78681802 0.18674749
v 1.46197354 2.69864511 0.18674749
v 1.46809256 2.85268688 0.18674749
v 1.29512548 2.70431995 0.18674749
v 1.30069351 2.85951519 0.18674749
v 1.13450157 2.70978307 0.18674749
v 1.12625157 2.86663103 0.18674749
v 0.98546749 2.67590713 0.18674749
v 0.94749951 2.82638692 0.18674749
v 0.82747054 2.6346898 0.18674749
v 0.78179854 2.78209114 0.18674749
v 0.68459755 2.57762622 0.18674749
v 0.61468452 2.71417427 0.18674749
v 0.54469752 2.5037651 0.18674749
v 0.46046251 2.62951612 0.18674749
v 0.42175251 2.40409612 0.18674749
v 0.32145851 2.51897811 0.18674749
v 0.30892252 2.29207181 0.18674749
v 0.19685252 2.39489316 0.18674749
v 0.20726952 2.16807127 0.18674749
v 0.08427852 2.26303005 0.18674749
v 0.11290852 2.02578926 0.18674749
v -0.01194147 2.13507318 0.18674749
v -0.01753547 1.876248 0.18674749
v -0.13826547 2.02972793 0.18674749
v -0.22919847 2.17122316 0.18674749
v -0.10734348 2.26552581 0.18674749
v -0.33151549 2.29325199 0.18674749
v -0.22146147 2.3963809 0.18674749
v -0.44535547 2.40433788 0.18674749
v -0.34675246 2.51902389 0.18674749
v -0.5690695 2.5032792 0.18674749
v -0.48572546 2.62851715 0.18674749
v -0.7091335 2.57675886 0.18674749
v -0.64000445 2.71242904 0.18674749
v -0.8519485 2.63398599 0.18674749
v -0.80623447 2.78069782 0.18674749
v -1.01000046 2.6750369 0.18674749
v -0.97193449 2.82479381 0.18674749
v -1.15897047 2.70991802 0.18674749
v -1.14935243 2.86695718 0.18674749
v -1.31895053 2.70447397 0.18674749
v -1.32450842 2.85980796 0.18674749
v -1.48559153 2.69880294 0.18674749
v -1.49166846 2.8529849 0.18674749
v -1.79008245 2.64627981 0.18674749
v -1.84073352 2.78904485 0.18674749
v -1.94722449 2.59073019 0.18674749
v -1.99794948 2.73148584 0.18674749
v -2.22132968 2.45487403 0.1867125
v -2.31518936 2.56821394 0.18671049
v -2.34734344 2.34698486 0.18665549
v -2.44302654 2.45869684 0.18666149
v -2.47283649 2.239542 0.18659849
v -2.57121849 2.34887409 0.1866125
v -2.56577158 2.12755727 0.18629649
v -2.6909275 2.20402002 0.18627649
v -2.64579629 1.98415803 0.1856575
v -2.77395248 2.05585718 0.18571749
v -2.72688245 1.83885407 0.18501049
v -2.85596466 1.90950405 0.18516449
v -2.81694459 1.54383599 0.1840105
v -2.96224451 1.57067906 0.1841515
v -2.84664726 1.37974309 0.18353849
v -2.9929943 1.40616202 0.18372449
v -2.85144567 1.07001209 0.18338549
v -2.99897432 1.05194699 0.18358649
v -2.83084154 0.90439903 0.1836375
v -2.97839355 0.88597905 0.18382449
v -2.81069469 0.74246704 0.1838825
v -2.9573307 0.71612805 0.1840685
v -2.76716232 0.59119802 0.1841225
v -2.90849161 0.54619306 0.1843335
v -2.71574831 0.43253305 0.18437649
v -2.85738134 0.38685303 0.18458649
v -2.66464757 0.27483505 0.1846285
v -2.80594062 0.22648504 0.18484149
v -2.60389852 0.12917304 0.18487049
v -2.73750925 0.06395304 0.18511049
v -2.52954864 -0.01940995 0.18512649
v -2.66168451 -0.08589195 0.18536649
v -2.45496559 -0.16845795 0.18538349
v -2.58606863 -0.23532395 0.18562349
v -2.3780694 -0.30631697 0.1856275
v -2.49884033 -0.38853895 0.1858935
v -2.2811923 -0.43919897 0.18588149
v -2.39718961 -0.52471298 0.1861535
v -2.07645559 -0.69365698 0.18637949
v -2.18192958 -0.78766894 0.1866675
v 2.09819364 -0.70167493 0.18639549
v 2.20536136 -0.79550194 0.1866835
v 2.84549856 1.22727298 0.18346449
v 2.99225139 1.23384404 0.18365849
v -2.8490467 1.224877 0.1834615
v -2.99598455 1.22905409 0.1836555
v -1.63783752 2.67254114 0.18674749
v -1.66620051 2.82101488 0.18674749
v 1.61440348 2.67173624 0.18674749
v 1.64257752 2.81975221 0.18674749
v -0.81098645 -1.76577091 0.18885849
v -0.90986347 -1.87511098 0.18914249
v 0.83634549 -1.78077292 0.1888975
v 0.93317455 -1.8915379 0.18919049
v 2.06177473 2.52132606 0.1867295
v 2.13317871 2.64772701 0.18672849
v -2.08427667 2.52280187 0.1867295
v -2.15656948 2.64984989 0.1867295
v 2.75999259 1.69321107 0.1845165
v 2.89575862 1.74372208 0.18466849
v -2.77191352 1.69134509 0.18451049
v -2.90910434 1.74009108 0.18465749
v -2.39741659 -0.52559596 -0.18869049
v -2.28141927 -0.44008195 -0.1889625
v -2.37831831 -0.30716595 -0.1892165
v -2.49908924 -0.38938796 -0.18895049
v -1.94502949 -1.0319699 -0.18767549
v -1.84766352 -0.92737996 -0.18798349
v -1.9702655 -0.81412392 -0.1882245
v -2.06686735 -0.91757994 -0.18791751
v -1.82224845 -1.14724397 -0.18743149
v -1.72593843 -1.03982496 -0.18774549
v -1.68846452 -1.25606596 -0.1871825
v -1.6003685 -1.1418209 -0.18750949
v -1.55555248 -1.35759294 -0.1869425
v -1.46804952 -1.24328792 -0.18726651
v -1.42289149 -1.45892691 -0.1867025
v -1.33550453 -1.3449279 -0.18702249
v -1.29139244 -1.56056892 -0.18645851
v -1.20286846 -1.44733893 -0.18677251
v -1.16050052 -1.66395294 -0.1862045
v -1.07116246 -1.550246 -0.18651349
v -1.02954447 -1.76738393 -0.1859505
v -0.93955045 -1.65307498 -0.1862555
v 1.64257752 2.81975221 -0.18809749
v 1.46809256 2.85268688 -0.18809749
v 1.46197354 2.69864511 -0.18809749
v 1.61440348 2.67173624 -0.18809749
v -0.67566847 -2.10587787 -0.18519349
v -0.56513845 -1.99912691 -0.18544851
v -0.68251645 -1.88031995 -0.18571551
v -0.79027545 -1.98469197 -0.1854525
v -0.56097149 -2.22715282 -0.18493451
v -0.44777247 -2.1179161 -0.1851805
v -0.44598448 -2.34814691 -0.18466649
v -0.33090248 -2.23749113 -0.18489851
v -0.33261448 -2.46727609 -0.18439848
v -0.21235147 -2.36018896 -0.1846065
v -0.22605647 -2.59183883 -0.18410249
v -0.10663747 -2.49232673 -0.18431548
v -0.12204048 -2.72525596 -0.1837895
v -0.00007447 -2.64004802 -0.18395049
v 0.00425852 -2.86695718 -0.18338151
v 0.11573152 -2.71735572 -0.18375448
v 0.22701452 -2.59403419 -0.18405051
v 0.11602652 -2.48985099 -0.18427251
v 0.34095153 -2.472579 -0.1843235
v 0.23287352 -2.36949873 -0.1845615
v 0.45587351 -2.35117578 -0.18459551
v 0.34862053 -2.24894809 -0.18484951
v 0.56955051 -2.231215 -0.1848645
v 0.46558851 -2.12691688 -0.1851405
v 0.68944853 -2.11661291 -0.1851295
v 0.58753651 -2.01010799 -0.1854095
v 0.8104195 -2.00115108 -0.18539549
v 0.7083745 -1.89434993 -0.1856765
v -0.90991246 -1.87604093 -0.1857015
v -0.81103545 -1.76669991 -0.18598549
v 1.18654954 -1.67934191 -0.18616749
v 1.09565055 -1.56518495 -0.18647651
v 0.96441352 -1.66909694 -0.1862155
v 1.05602848 -1.78382599 -0.1859105
v 1.31707847 -1.57485401 -0.18642349
v 1.22691547 -1.461254 -0.18673749
v 1.44793558 -1.47190499 -0.18667151
v 1.35905849 -1.35762095 -0.18699149
v 1.58018255 -1.36956894 -0.18691448
v 1.49126851 -1.25491094 -0.1872385
v 1.7126435 -1.26706695 -0.18715651
v 1.62326455 -1.15236496 -0.18748448
v 1.8468995 -1.1586039 -0.1874075
v 1.7495675 -1.05025696 -0.18772248
v 1.96937453 -1.0417689 -0.18765451
v 1.87028753 -0.93697798 -0.1879635
v 2.09053373 -0.92618793 -0.18789951
v 1.9922645 -0.82251894 -0.1882065
v -2.29738044 -0.65960896 -0.18843551
v -2.18303251 -0.57504093 -0.1887045
v 2.4193077 -0.53134095 -0.1886795
v 2.30149745 -0.44648894 -0.18895049
v 2.20450973 -0.58267998 -0.18869049
v 2.32057666 -0.66666394 -0.1884215
v 2.51936674 -0.39419496 -0.18894149
v 2.39719438 -0.31211194 -0.1892075
v 2.60585451 -0.23958595 -0.18921549
v 2.47307968 -0.17388396 -0.18945251
v 2.67959737 -0.08883696 -0.18947349
v 2.54569149 -0.02372095 -0.18971149
v 2.75345039 0.06213704 -0.18973149
v 2.6181693 0.12616203 -0.18996949
v 2.81979465 0.22615304 -0.19000349
v 2.67709255 0.27256605 -0.19021351
v 2.86884355 0.38753002 -0.1902595
v 2.72584152 0.43124303 -0.19046749
v 2.9175806 0.54787904 -0.19051449
v 2.77488136 0.59086602 -0.19072251
v 2.96326065 0.71925306 -0.19078148
v 2.81589937 0.74294906 -0.19096349
v 2.98153638 0.88951903 -0.19102551
v 2.8334136 0.90550601 -0.19120951
v 2.99943828 1.05643808 -0.19126449
v 2.85134267 1.07204902 -0.1914625
v 2.20555639 -0.79642993 -0.18816049
v 2.09838867 -0.70260298 -0.1884485
v 2.95220661 1.57638609 -0.19068048
v 2.80783367 1.54727709 -0.19082649
v 2.84046173 1.38293004 -0.1912985
v 2.98587274 1.41168403 -0.19110749
v -2.15653324 2.64986896 -0.18811549
v -2.31512832 2.56826496 -0.1881345
v -2.22126865 2.45492506 -0.18813251
v -2.08424043 2.52282095 -0.18811549
v 2.75498342 2.05885887 -0.18911849
v 2.6286726 1.98606002 -0.1891825
v 2.71203231 1.84151899 -0.18982549
v 2.83919143 1.913432 -0.1896675
v 2.66987657 2.20587921 -0.18856351
v 2.54666042 2.12829017 -0.18854849
v 2.5493493 2.34854412 -0.18823351
v 2.45251369 2.2394638 -0.1882465
v 2.42033863 2.45742225 -0.18818451
v 2.32623338 2.3459711 -0.1881905
v 2.29175949 2.56598615 -0.18813549
v 2.19911241 2.4532361 -0.18813349
v 0.93322354 -1.89248693 -0.18565349
v 0.83639454 -1.78172195 -0.1859465
v 1.81706154 2.78681802 -0.18809749
v 1.76683354 2.64482688 -0.18809749
v 1.9243555 2.58947515 -0.18809749
v 1.97451651 2.72952699 -0.18809749
v -1.66620051 2.82101488 -0.18809749
v -1.84073352 2.78904485 -0.18809749
v -1.79008245 2.64627981 -0.18809749
v -1.63783752 2.67254114 -0.18809749
v 1.30069351 2.85951519 -0.18809749
v 1.29512548 2.70431995 -0.18809749
v 1.12625157 2.86663103 -0.18809749
v 1.13450157 2.70978307 -0.18809749
v 0.94749951 2.82638692 -0.18809749
v 0.98546749 2.67590713 -0.18809749
v 0.78179854 2.78209114 -0.18809749
v 0.82747054 2.6346898 -0.18809749
v 0.61468452 2.71417427 -0.18809749
v 0.68459755 2.57762622 -0.18809749
v 0.46046251 2.62951612 -0.18809749
v 0.54469752 2.5037651 -0.18809749
v 0.32145851 2.51897811 -0.18809749
v 0.42175251 2.40409612 -0.18809749
v 0.19685252 2.39489316 -0.18809749
v 0.30892252 2.29207181 -0.18809749
v 0.08427852 2.26303005 -0.18809749
v 0.20726952 2.16807127 -0.18809749
v -0.01194147 2.13507318 -0.18809749
v 0.11290852 2.02578926 -0.18809749
v -0.13826547 2.02972793 -0.18809749
v -0.01753547 1.876248 -0.18809749
v -0.10734348 2.26552581 -0.18809749
v -0.22919847 2.17122316 -0.18809749
v -0.22146147 2.3963809 -0.18809749
v -0.33151549 2.29325199 -0.18809749
v -0.34675246 2.51902389 -0.18809749
v -0.44535547 2.40433788 -0.18809749
v -0.48572546 2.62851715 -0.18809749
v -0.5690695 2.5032792 -0.18809749
v -0.64000445 2.71242904 -0.18809749
v -0.7091335 2.57675886 -0.18809749
v -0.80623447 2.78069782 -0.18809749
v -0.8519485 2.63398599 -0.18809749
v -0.97193449 2.82479381 -0.18809749
v -1.01000046 2.6750369 -0.18809749
v -1.14935243 2.86695718 -0.18809749
v -1.15897047 2.70991802 -0.18809749
v -1.32450842 2.85980796 -0.18809749
v -1.31895053 2.70447397 -0.18809749
v -1.49166846 2.8529849 -0.18809749
v -1.48559153 2.69880294 -0.18809749
v -2.99647331 1.22922599 -0.19118951
v -2.99943828 1.05173003 -0.1912585
v -2.85190963 1.06979501 -0.19145949
v -2.84953546 1.22504901 -0.19138349
v -1.99793052 2.73149395 -0.18809749
v -1.94720542 2.59073782 -0.18809749
v 2.13314151 2.64774513 -0.1881165
v 2.06173753 2.52134418 -0.18811549
v -2.44294643 2.45878601 -0.1881835
v -2.34726333 2.34707403 -0.18818949
v -2.57094955 2.34919595 -0.18823249
v -2.47256755 2.23986387 -0.1882465
v -2.69037771 2.20488596 -0.1885675
v -2.56522226 2.12842321 -0.1885475
v -2.77342844 2.05710506 -0.18912451
v -2.64527225 1.98540604 -0.1891845
v -2.85570955 1.91074001 -0.1896785
v -2.72662735 1.84009003 -0.18983249
v 2.89573574 1.74491107 -0.1901745
v 2.75996971 1.69440007 -0.19032649
v -2.99334049 1.40678203 -0.19112049
v -2.84699344 1.38036298 -0.19130648
v -2.81708669 1.54497301 -0.19083251
v -2.9623866 1.57181608 -0.19069151
v 2.99273872 1.234043 -0.1911865
v 2.84598541 1.22747206 -0.19138051
v -2.97879457 0.88537603 -0.19101949
v -2.83124256 0.90379601 -0.1912065
v -2.95769548 0.71548306 -0.19077549
v -2.81105947 0.74182206 -0.19096149
v -2.90883064 0.54549604 -0.19051049
v -2.76750135 0.59050107 -0.19072149
v -2.85771036 0.38614904 -0.1902575
v -2.71607732 0.43182903 -0.19046749
v -2.80625724 0.22575804 -0.19000251
v -2.66496467 0.27410805 -0.19021551
v -2.73780632 0.06318404 -0.18973349
v -2.60419559 0.12840403 -0.18997348
v -2.66196966 -0.08667995 -0.18947748
v -2.52983427 -0.02019795 -0.18971751
v -2.58634567 -0.23612596 -0.1892205
v -2.45524263 -0.16925995 -0.1894605
v -2.18212556 -0.78859692 -0.18817649
v -2.07665157 -0.69458496 -0.1884645
v -2.90908527 1.74127602 -0.1901855
v -2.77189445 1.69253003 -0.19033248
g Group32941
f 224 223 222 221
g Group32944
f 196 194 224 221
f 193 195 222 223
g Group56050
f 194 196 195 193
g Group32941
f 228 227 226 225
g Group32944
f 6 4 228 225
f 3 5 226 227
g Group56050
f 4 6 5 3
g Group32941
f 225 226 230 229
g Group32944
f 8 6 225 229
f 5 7 230 226
g Group56050
f 6 8 7 5
g Group32941
f 229 230 232 231
g Group32944
f 10 8 229 231
f 7 9 232 230
g Group56050
f 8 10 9 7
g Group32941
f 231 232 234 233
g Group32944
f 12 10 231 233
f 9 11 234 232
g Group56050
f 10 12 11 9
g Group32941
f 233 234 236 235
g Group32944
f 14 12 233 235
f 11 13 236 234
g Group56050
f 12 14 13 11
g Group32941
f 235 236 238 237
g Group32944
f 16 14 235 237
f 13 15 238 236
g Group56050
f 14 16 15 13
g Group32941
f 237 238 240 239
g Group32944
f 18 16 237 239
f 15 17 240 238
g Group56050
f 16 18 17 15
g Group32941
f 239 240 242 241
g Group32944
f 20 18 239 241
f 17 19 242 240
g Group56050
f 18 20 19 17
g Group32941
f 246 245 244 243
g Group32944
f 112 208 243 244
f 207 111 245 246
g Group56050
f 207 208 112 111
g Group32941
f 250 249 248 247
g Group32944
f 24 22 250 247
f 21 23 248 249
g Group56050
f 22 24 23 21
g Group32941
f 247 248 252 251
g Group32944
f 26 24 247 251
f 23 25 252 248
g Group56050
f 24 26 25 23
g Group32941
f 251 252 254 253
g Group32944
f 28 26 251 253
f 25 27 254 252
g Group56050
f 26 28 27 25
g Group32941
f 253 254 256 255
g Group32944
f 30 28 253 255
f 27 29 256 254
g Group56050
f 28 30 29 27
g Group32941
f 255 256 258 257
g Group32944
f 32 30 255 257
f 29 31 258 256
g Group56050
f 30 32 31 29
g Group32941
f 257 258 260 259
g Group32944
f 34 32 257 259
f 31 33 260 258
g Group56050
f 32 34 33 31
g Group32941
f 259 260 262 261
g Group32944
f 36 34 259 261
f 35 36 261 262
g Group56050
f 34 36 35 33
g Group32941
f 262 260 264 263
g Group32944
f 38 35 262 263
f 33 37 264 260
g Group56050
f 35 38 37 33
g Group32941
f 263 264 266 265
g Group32944
f 40 38 263 265
f 37 39 266 264
g Group56050
f 38 40 39 37
g Group32941
f 265 266 268 267
g Group32944
f 42 40 265 267
f 39 41 268 266
g Group56050
f 40 42 41 39
g Group32941
f 267 268 270 269
g Group32944
f 44 42 267 269
f 41 43 270 268
g Group56050
f 42 44 43 41
g Group32941
f 269 270 272 271
g Group32944
f 46 44 269 271
f 43 45 272 270
g Group56050
f 44 46 45 43
g Group32941
f 271 272 274 273
g Group32944
f 48 46 271 273
f 45 47 274 272
g Group56050
f 46 48 47 45
g Group32941
f 276 249 250 275
g Group32944
f 22 210 275 250
f 209 21 249 276
g Group56050
f 209 210 22 21
g Group32941
f 280 279 278 277
g Group32944
f 52 50 280 277
f 49 51 278 279
g Group56050
f 50 52 51 49
g Group32941
f 277 278 282 281
g Group32944
f 54 52 277 281
f 51 53 282 278
g Group56050
f 52 54 53 51
g Group32941
f 281 282 284 283
g Group32944
f 56 54 281 283
f 53 55 284 282
g Group56050
f 54 56 55 53
g Group32941
f 283 284 286 285
g Group32944
f 58 56 283 285
f 55 57 286 284
g Group56050
f 56 58 57 55
g Group32941
f 285 286 288 287
g Group32944
f 60 58 285 287
f 57 59 288 286
g Group56050
f 58 60 59 57
g Group32941
f 287 288 290 289
g Group32944
f 62 60 287 289
f 59 61 290 288
g Group56050
f 60 62 61 59
g Group32941
f 289 290 292 291
g Group32944
f 64 62 289 291
f 61 63 292 290
g Group56050
f 62 64 63 61
g Group32941
f 291 292 294 293
g Group32944
f 66 64 291 293
f 63 65 294 292
g Group56050
f 64 66 65 63
g Group32941
f 221 222 296 295
g Group32944
f 1 196 221 295
f 195 2 296 222
g Group56050
f 196 1 2 195
g Group32941
f 300 299 298 297
g Group32944
f 70 68 300 297
f 67 69 298 299
g Group56050
f 68 70 69 67
g Group32941
f 297 298 302 301
g Group32944
f 72 70 297 301
f 69 71 302 298
g Group56050
f 70 72 71 69
g Group32941
f 301 302 304 303
g Group32944
f 74 72 301 303
f 71 73 304 302
g Group56050
f 72 74 73 71
g Group32941
f 303 304 306 305
g Group32944
f 76 74 303 305
f 73 75 306 304
g Group56050
f 74 76 75 73
g Group32941
f 305 306 308 307
g Group32944
f 78 76 305 307
f 75 77 308 306
g Group56050
f 76 78 77 75
g Group32941
f 307 308 310 309
g Group32944
f 80 78 307 309
f 77 79 310 308
g Group56050
f 78 80 79 77
g Group32941
f 309 310 312 311
g Group32944
f 82 80 309 311
f 79 81 312 310
g Group56050
f 80 82 81 79
g Group32941
f 311 312 314 313
g Group32944
f 84 82 311 313
f 81 83 314 312
g Group56050
f 82 84 83 81
g Group32941
f 313 314 316 315
g Group32944
f 86 84 313 315
f 83 85 316 314
g Group56050
f 84 86 85 83
g Group32941
f 315 316 318 317
g Group32944
f 88 86 315 317
f 85 87 318 316
g Group56050
f 86 88 87 85
g Group32941
f 317 318 320 319
g Group32944
f 90 88 317 319
f 87 89 320 318
g Group56050
f 88 90 89 87
g Group32941
f 322 299 300 321
g Group32944
f 68 200 321 300
f 199 67 299 322
g Group56050
f 199 200 68 67
g Group32941
f 326 325 324 323
g Group32944
f 94 92 326 323
f 91 93 324 325
g Group56050
f 92 94 93 91
g Group32941
f 330 329 328 327
g Group32944
f 160 216 327 328
f 215 159 329 330
g Group56050
f 215 216 160 159
g Group32941
f 334 333 332 331
g Group32944
f 98 96 334 331
f 95 97 332 333
g Group56050
f 96 98 97 95
g Group32941
f 331 332 336 335
g Group32944
f 100 98 331 335
f 97 99 336 332
g Group56050
f 98 100 99 97
g Group32941
f 335 336 338 337
g Group32944
f 102 100 335 337
f 99 101 338 336
g Group56050
f 100 102 101 99
g Group32941
f 337 338 340 339
g Group32944
f 104 102 337 339
f 101 103 340 338
g Group56050
f 102 104 103 101
g Group32941
f 339 340 342 341
g Group32944
f 106 104 339 341
f 103 105 342 340
g Group56050
f 104 106 105 103
g Group32941
f 344 279 280 343
g Group32944
f 50 212 343 280
f 211 49 279 344
g Group56050
f 211 212 50 49
g Group32941
f 348 347 346 345
g Group32944
f 110 108 348 345
f 107 109 346 347
g Group56050
f 108 110 109 107
g Group32941
f 352 351 350 349
g Group32944
f 156 206 349 350
f 205 155 351 352
g Group56050
f 205 206 156 155
g Group32941
f 244 245 354 353
g Group32944
f 114 112 244 353
f 111 113 354 245
g Group56050
f 112 114 113 111
g Group32941
f 353 354 356 355
g Group32944
f 116 114 353 355
f 113 115 356 354
g Group56050
f 114 116 115 113
g Group32941
f 355 356 358 357
g Group32944
f 118 116 355 357
f 115 117 358 356
g Group56050
f 116 118 117 115
g Group32941
f 357 358 360 359
g Group32944
f 120 118 357 359
f 117 119 360 358
g Group56050
f 118 120 119 117
g Group32941
f 359 360 362 361
g Group32944
f 122 120 359 361
f 119 121 362 360
g Group56050
f 120 122 121 119
g Group32941
f 361 362 364 363
g Group32944
f 124 122 361 363
f 121 123 364 362
g Group56050
f 122 124 123 121
g Group32941
f 363 364 366 365
g Group32944
f 126 124 363 365
f 123 125 366 364
g Group56050
f 124 126 125 123
g Group32941
f 365 366 368 367
g Group32944
f 128 126 365 367
f 125 127 368 366
g Group56050
f 126 128 127 125
g Group32941
f 367 368 370 369
g Group32944
f 130 128 367 369
f 127 129 370 368
g Group56050
f 128 130 129 127
g Group32941
f 369 370 372 371
g Group32944
f 132 130 369 371
f 129 131 372 370
g Group56050
f 130 132 131 129
g Group32941
f 371 372 374 373
g Group32944
f 133 134 373 374
f 131 133 374 372
g Group56050
f 132 134 133 131
g Group32941
f 371 373 376 375
g Group32944
f 136 132 371 375
f 134 135 376 373
g Group56050
f 132 136 135 134
g Group32941
f 375 376 378 377
g Group32944
f 138 136 375 377
f 135 137 378 376
g Group56050
f 136 138 137 135
g Group32941
f 377 378 380 379
g Group32944
f 140 138 377 379
f 137 139 380 378
g Group56050
f 138 140 139 137
g Group32941
f 379 380 382 381
g Group32944
f 142 140 379 381
f 139 141 382 380
g Group56050
f 140 142 141 139
g Group32941
f 381 382 384 383
g Group32944
f 144 142 381 383
f 141 143 384 382
g Group56050
f 142 144 143 141
g Group32941
f 383 384 386 385
g Group32944
f 146 144 383 385
f 143 145 386 384
g Group56050
f 144 146 145 143
g Group32941
f 385 386 388 387
g Group32944
f 148 146 385 387
f 145 147 388 386
g Group56050
f 146 148 147 145
g Group32941
f 387 388 390 389
g Group32944
f 150 148 387 389
f 147 149 390 388
g Group56050
f 148 150 149 147
g Group32941
f 389 390 392 391
g Group32944
f 152 150 389 391
f 149 151 392 390
g Group56050
f 150 152 151 149
g Group32941
f 391 392 394 393
g Group32944
f 154 152 391 393
f 151 153 394 392
g Group56050
f 152 154 153 151
g Group32941
f 398 397 396 395
g Group32944
f 176 204 395 396
f 203 175 397 398
g Group56050
f 203 204 176 175
g Group32941
f 350 351 400 399
g Group32944
f 158 156 350 399
f 155 157 400 351
g Group56050
f 156 158 157 155
g Group32941
f 402 347 348 401
g Group32944
f 108 214 401 348
f 213 107 347 402
g Group56050
f 213 214 108 107
g Group32941
f 328 329 404 403
g Group32944
f 162 160 328 403
f 159 161 404 329
g Group56050
f 160 162 161 159
g Group32941
f 403 404 406 405
g Group32944
f 164 162 403 405
f 161 163 406 404
g Group56050
f 162 164 163 161
g Group32941
f 405 406 408 407
g Group32944
f 166 164 405 407
f 163 165 408 406
g Group56050
f 164 166 165 163
g Group32941
f 407 408 410 409
g Group32944
f 168 166 407 409
f 165 167 410 408
g Group56050
f 166 168 167 165
g Group32941
f 409 410 412 411
g Group32944
f 170 168 409 411
f 167 169 412 410
g Group56050
f 168 170 169 167
g Group32941
f 414 333 334 413
g Group32944
f 96 218 413 334
f 217 95 333 414
g Group56050
f 217 218 96 95
g Group32941
f 418 417 416 415
g Group32944
f 174 172 418 415
f 171 173 416 417
g Group56050
f 172 174 173 171
g Group32941
f 420 325 326 419
g Group32944
f 92 202 419 326
f 201 91 325 420
g Group56050
f 201 202 92 91
g Group32941
f 396 397 422 421
g Group32944
f 178 176 396 421
f 175 177 422 397
g Group56050
f 176 178 177 175
g Group32941
f 421 422 424 423
g Group32944
f 180 178 421 423
f 177 179 424 422
g Group56050
f 178 180 179 177
g Group32941
f 423 424 426 425
g Group32944
f 182 180 423 425
f 179 181 426 424
g Group56050
f 180 182 181 179
g Group32941
f 425 426 428 427
g Group32944
f 184 182 425 427
f 181 183 428 426
g Group56050
f 182 184 183 181
g Group32941
f 427 428 430 429
g Group32944
f 186 184 427 429
f 183 185 430 428
g Group56050
f 184 186 185 183
g Group32941
f 429 430 432 431
g Group32944
f 188 186 429 431
f 185 187 432 430
g Group56050
f 186 188 187 185
g Group32941
f 431 432 434 433
g Group32944
f 190 188 431 433
f 187 189 434 432
g Group56050
f 188 190 189 187
g Group32941
f 433 434 436 435
g Group32944
f 192 190 433 435
f 189 191 436 434
g Group56050
f 190 192 191 189
g Group32941
f 435 436 223 224
g Group32944
f 194 192 435 224
f 191 193 223 436
g Group56050
f 192 194 193 191
g Group32941
f 296 438 437 295
g Group32944
f 198 1 295 437
f 2 197 438 296
g Group56050
f 2 1 198 197
g Group32941
f 438 227 228 437
g Group32944
f 4 198 437 228
f 197 3 227 438
g Group56050
f 197 198 4 3
g Group32941
f 294 322 321 293
g Group32944
f 200 66 293 321
f 65 199 322 294
g Group56050
f 65 66 200 199
g Group32941
f 320 420 419 319
g Group32944
f 202 90 319 419
f 89 201 420 320
g Group56050
f 89 90 202 201
g Group32941
f 416 398 395 415
g Group32944
f 204 174 415 395
f 173 203 398 416
g Group56050
f 173 174 204 203
g Group32941
f 394 352 349 393
g Group32944
f 206 154 393 349
f 153 205 352 394
g Group56050
f 153 154 206 205
g Group32941
f 346 246 243 345
g Group32944
f 208 110 345 243
f 109 207 246 346
g Group56050
f 109 110 208 207
g Group32941
f 242 276 275 241
g Group32944
f 210 20 241 275
f 19 209 276 242
g Group56050
f 19 20 210 209
g Group32941
f 274 344 343 273
g Group32944
f 212 48 273 343
f 47 211 344 274
g Group56050
f 47 48 212 211
g Group32941
f 342 402 401 341
g Group32944
f 214 106 341 401
f 105 213 402 342
g Group56050
f 105 106 214 213
g Group32941
f 400 330 327 399
g Group32944
f 216 158 399 327
f 157 215 330 400
g Group56050
f 157 158 216 215
g Group32941
f 324 414 413 323
g Group32944
f 218 94 323 413
f 93 217 414 324
g Group56050
f 93 94 218 217
g Group32941
f 412 440 439 411
g Group32944
f 220 170 411 439
f 169 219 440 412
g Group56050
f 169 170 220 219
g Group32941
f 440 417 418 439
g Group32944
f 172 220 439 418
f 219 171 417 440
g Group56050
f 219 220 172 171

 