# File exported by ZBrush version 2021
# www.zbrush.com
#Vertex Count 600
#Face Count 702
#Auto scale x=1.000000 y=1.000000 z=1.000000
#Auto offset x=0.000000 y=0.000000 z=0.000000
v -1.07418894 -0.99143397 0.1490685
v -0.988393 -1.07722997 0.1490685
v -1.15969598 -1.07711195 0.1488215
v -1.07391595 -1.16289401 0.1488215
v -0.80176502 -1.43504405 0.1488215
v -0.71558398 -1.34920895 0.14855049
v -1.34372699 -0.71862202 0.14855049
v -1.43231594 -0.80527102 0.14934049
v -0.71590399 -0.80490499 0.14934049
v -0.801445 -0.71894002 0.14934049
v -1.43207204 -1.34903895 0.1480295
v -1.34628903 -1.43481802 0.1480295
v -1.07418894 -0.27510699 0.1490685
v -0.988393 -0.360904 0.1490685
v -1.15969598 -0.36078599 0.1488215
v -1.07391595 -0.44656598 0.1488215
v -1.43251502 -0.63183897 0.14854949
v -0.71629297 -0.63288301 0.14855049
v -1.34633994 -0.000499 0.14854949
v -1.43167901 -0.088831 0.14934049
v -0.71590399 -0.087304 0.14934049
v -0.80096 -0.000675 0.14934049
v -0.35808599 -0.99143397 0.1490685
v -0.272289 -1.07722997 0.1490685
v -0.44358998 -1.07711195 0.1488215
v -0.35780999 -1.16289401 0.1488215
v -0.085661 -1.43504405 0.1488215
v 0.000805 -1.34920895 0.14854949
v -0.62762397 -0.71862202 0.14855049
v 0.003401 -0.086282 0.14934049
v 0.002707 -0.805781 0.14934049
v -0.084725 -0.718324 0.14934049
v -0.62981301 -0.000037 0.14854949
v -0.630185 -1.43481802 0.1480295
v -0.35808599 -0.27510699 0.1490685
v -0.272289 -0.360904 0.1490685
v -0.44358998 -0.36078599 0.1488215
v -0.35780999 -0.44656598 0.1488215
v -0.086768 -0.000368 0.14934049
v 0.002483 -0.63288301 0.14854949
v -0.71631497 -1.52025699 0.14789849
v -2.50700402 -0.99143397 0.1490685
v -2.42120909 -1.07722997 0.1490685
v -2.59251189 -1.07711195 0.1488215
v -2.50673008 -1.16289401 0.1488215
v -2.23458099 -1.43504405 0.1488215
v -2.14840388 -1.34920895 0.14855049
v -2.7765429 -0.71862202 0.14855049
v -2.86471009 -0.80501097 0.1488215
v -2.14872193 -0.80490499 0.14934049
v -2.23426294 -0.71894002 0.14934049
v -2.8648839 -1.34903895 0.1480295
v -2.77910494 -1.43481802 0.1480295
v -2.50700402 -0.27510699 0.1490685
v -2.42120909 -0.360904 0.1490685
v -2.59251189 -0.36078599 0.1488215
v -2.50673008 -0.44656598 0.1488215
v -2.8648839 -0.63271099 0.1480295
v -2.14911007 -0.63288301 0.14855049
v -2.77994704 -0.001302 0.14854949
v -2.86471009 -0.08868499 0.1488215
v -2.14872193 -0.087304 0.14934049
v -2.2350099 -0.001503 0.14934049
v -1.79090404 -0.99143397 0.1490685
v -1.70510804 -1.07722997 0.1490685
v -1.87641 -1.07711195 0.1488215
v -1.79063105 -1.16289401 0.1488215
v -1.51848101 -1.43504405 0.1488215
v -2.95575189 -0.71386098 0.1480295
v -2.06044292 -0.71862202 0.14855049
v -2.14913511 -1.52025699 0.14789849
v -1.51815903 -0.71894002 0.14934049
v -2.06305408 -0.000511 0.14854949
v -2.06300401 -1.43481802 0.1480295
v -1.79090404 -0.27510699 0.1490685
v -1.70510804 -0.360904 0.1490685
v -1.87641 -0.36078599 0.1488215
v -1.79063105 -0.44656598 0.1488215
v -1.51850497 -0.000708 0.14934049
v -1.43455195 -1.51897299 0.14762149
v -1.07418894 0.44378399 0.1490685
v -0.988393 0.35798901 0.1490685
v -1.15969598 0.35810598 0.1488215
v -1.07391595 0.272325 0.1488215
v -1.43086504 1.52025699 0.1490685
v -0.71558398 0.08601 0.14855049
v -1.34372699 0.71659702 0.14855049
v -1.43231594 0.62994802 0.14934049
v -0.71590399 0.63031399 0.14934049
v -0.801445 0.71627897 0.14934049
v -1.43207204 0.08618 0.1480295
v -1.79063105 0.988653 0.1488215
v -1.07418894 1.16011202 0.1490685
v -0.988393 1.07431495 0.1490685
v -1.15969598 1.07443296 0.1488215
v -1.07391595 0.988653 0.1488215
v -1.43251502 0.80338001 0.14854949
v -0.71629297 0.80233597 0.14855049
v -1.34638905 1.43221294 0.1490685
v -1.43167901 1.34638798 0.14934049
v -0.71590399 1.34791505 0.14934049
v -0.80181497 1.43203604 0.1498595
v -0.35808599 0.44378399 0.1490685
v -0.272289 0.35798901 0.1490685
v -0.44358998 0.35810598 0.1488215
v -0.35780999 0.272325 0.1488215
v -2.0631051 1.43221294 0.1490685
v -0.000186 0.08600799 0.14854949
v -0.62762397 0.71659702 0.14855049
v 0.000865 1.34638595 0.14934049
v 0.002711 0.63119697 0.14934049
v -0.087857 0.71765703 0.14934049
v -0.63028502 1.43221294 0.1490685
v -1.51853096 1.43203604 0.1498595
v -0.35808599 1.16011202 0.1490685
v -0.272289 1.07431495 0.1490685
v -0.44358998 1.07443296 0.1488215
v -0.35780999 0.988653 0.1488215
v -0.08570999 1.43203604 0.1498595
v 0.001887 0.80331397 0.14854949
v -0.71485602 1.51760101 0.1493185
v -2.50700402 0.44378399 0.1490685
v -2.42120909 0.35798901 0.1490685
v -2.59251189 0.35810598 0.1488215
v -2.50673008 0.272325 0.1488215
v -1.79090404 1.16011202 0.1490685
v -2.14840388 0.08601 0.14855049
v -2.7765429 0.71659702 0.14855049
v -2.86471009 0.630207 0.1488215
v -2.14872193 0.63031399 0.14934049
v -2.23426294 0.71627897 0.14934049
v -2.8648839 0.08618 0.1480295
v -1.70510804 1.07431495 0.1490685
v -2.50700402 1.16011202 0.1490685
v -2.42120909 1.07431495 0.1490685
v -2.59251189 1.07443296 0.1488215
v -2.50673008 0.988653 0.1488215
v -2.8648839 0.80250799 0.1480295
v -2.14911007 0.80233597 0.14855049
v -2.77920699 1.43221294 0.1490685
v -2.86471009 1.34653401 0.1488215
v -2.14872193 1.34791505 0.14934049
v -2.23463106 1.43203604 0.1498595
v -1.79090404 0.44378399 0.1490685
v -1.70510804 0.35798901 0.1490685
v -1.87641 0.35810598 0.1488215
v -1.79063105 0.272325 0.1488215
v -1.87641 1.07443296 0.1488215
v -2.95575189 0.72135698 0.1480295
v -2.06044292 0.71659702 0.14855049
v -2.14767408 1.51760101 0.1493185
v -1.51815903 0.71627897 0.14934049
v -2.95282292 0.002066 0.1480295
v 1.79460597 -0.99143397 0.1490685
v 1.88040196 -1.07722997 0.1490685
v 1.70909905 -1.07711195 0.1488215
v 1.79487896 -1.16289401 0.1488215
v 2.06703209 -1.43504405 0.1488215
v 2.15321111 -1.34920895 0.14855049
v 1.52506804 -0.71862202 0.14855049
v 1.43648004 -0.80527102 0.14934049
v 2.15289211 -0.80490499 0.14934049
v 2.06735205 -0.71894002 0.14934049
v 1.43672502 -1.34903895 0.1480295
v 1.52250599 -1.43481802 0.1480295
v 1.79460597 -0.27510699 0.1490685
v 1.88040196 -0.360904 0.1490685
v 1.70909905 -0.36078599 0.1488215
v 1.79487896 -0.44656598 0.1488215
v 1.43628203 -0.63183897 0.14854949
v 2.15250206 -0.63288301 0.14855049
v 1.52245497 -0.000499 0.14854949
v 1.43711495 -0.088831 0.14934049
v 2.15289211 -0.087304 0.14934049
v 2.06783509 -0.000675 0.14934049
v 2.51071095 -0.99143397 0.1490685
v 2.59650492 -1.07722997 0.1490685
v 2.42520594 -1.07711195 0.1488215
v 2.51098489 -1.16289401 0.1488215
v 2.78313398 -1.43504405 0.1488215
v 2.86865901 -1.34938097 0.1490685
v 2.24117207 -0.71862202 0.14855049
v 2.86887908 -0.08897899 0.1498595
v 2.86887908 -0.805305 0.1498595
v 2.78345394 -0.71894002 0.14934049
v 2.23898291 -0.000037 0.14854949
v 2.23860907 -1.43481802 0.1480295
v 2.51071095 -0.27510699 0.1490685
v 2.59650492 -0.360904 0.1490685
v 2.42520594 -0.36078599 0.1488215
v 2.51098489 -0.44656598 0.1488215
v 2.78142905 -0.000368 0.14934049
v 2.86865901 -0.63305401 0.1490685
v 2.95425891 -0.71801298 0.1491795
v 2.15247988 -1.52025699 0.14789849
v 0.36179 -0.99143397 0.1490685
v 0.447584 -1.07722997 0.1490685
v 0.27628299 -1.07711195 0.1488215
v 0.36206299 -1.16289401 0.1488215
v 0.63421398 -1.43504405 0.1488215
v 0.72039097 -1.34920895 0.14855049
v 0.092253 -0.71862202 0.14855049
v 1.07816505 0.272325 0.1488215
v 0.72007197 -0.80490499 0.14934049
v 0.63453197 -0.71894002 0.14934049
v 0.99238598 0.35810598 0.1488215
v 0.08969099 -1.43481802 0.1480295
v 0.36179 -0.27510699 0.1490685
v 0.447584 -0.360904 0.1490685
v 0.27628299 -0.36078599 0.1488215
v 0.36206299 -0.44656598 0.1488215
v 0.99238598 1.07443296 0.1488215
v 0.71968299 -0.63288301 0.14855049
v 0.088215 -0.001935 0.14854949
v 0.80835199 0.71659702 0.14855049
v 0.72007197 -0.087304 0.14934049
v 0.633785 -0.001503 0.14934049
v 1.07789003 -0.99143397 0.1490685
v 1.16368794 -1.07722997 0.1490685
v 0.99238598 -1.07711195 0.1488215
v 1.07816505 -1.16289401 0.1488215
v 1.35031604 -1.43504405 0.1488215
v 0.80835199 -0.71862202 0.14855049
v 0.71965998 -1.52025699 0.14789849
v 1.350636 -0.71894002 0.14934049
v 0.80574101 -0.000511 0.14854949
v 0.80579102 -1.43481802 0.1480295
v 1.07789003 -0.27510699 0.1490685
v 1.16368794 -0.360904 0.1490685
v 0.99238598 -0.36078599 0.1488215
v 1.07816505 -0.44656598 0.1488215
v 1.35029196 -0.000708 0.14934049
v 1.43424296 -1.51897299 0.14762149
v 1.79460597 0.44378399 0.1490685
v 1.88040196 0.35798901 0.1490685
v 1.70909905 0.35810598 0.1488215
v 1.79487896 0.272325 0.1488215
v 1.43793094 1.52025699 0.1490685
v 2.15321111 0.08601 0.14855049
v 1.52506804 0.71659702 0.14855049
v 1.43648004 0.62994802 0.14934049
v 2.15289211 0.63031399 0.14934049
v 2.06735205 0.71627897 0.14934049
v 1.43672502 0.08618 0.1480295
v 1.07816505 0.988653 0.1488215
v 1.79460597 1.16011202 0.1490685
v 1.88040196 1.07431495 0.1490685
v 1.70909905 1.07443296 0.1488215
v 1.79487896 0.988653 0.1488215
v 1.43628203 0.80338001 0.14854949
v 2.15250206 0.80233597 0.14855049
v 1.52240598 1.43221294 0.1490685
v 1.43711495 1.34638798 0.14934049
v 2.15289211 1.34791505 0.14934049
v 2.06697988 1.43203604 0.1498595
v 2.51071095 0.44378399 0.1490685
v 2.59650492 0.35798901 0.1490685
v 2.42520594 0.35810598 0.1488215
v 2.51098489 0.272325 0.1488215
v 0.80568999 1.43221294 0.1490685
v 2.86865901 0.08583699 0.1490685
v 2.24117207 0.71659702 0.14855049
v 2.86887908 1.34624004 0.1498595
v 2.86887908 0.62991398 0.1498595
v 2.78345394 0.71627897 0.14934049
v 2.23850989 1.43221294 0.1490685
v 1.35026502 1.43203604 0.1498595
v 2.51071095 1.16011202 0.1490685
v 2.59650492 1.07431495 0.1490685
v 2.42520594 1.07443296 0.1488215
v 2.51098489 0.988653 0.1488215
v 2.7830851 1.43203604 0.1498595
v 2.86865901 0.80216497 0.1490685
v 2.95425891 0.71720701 0.1491795
v 2.153939 1.51760101 0.1493185
v 0.36179 0.44378399 0.1490685
v 0.447584 0.35798901 0.1490685
v 0.27628299 0.35810598 0.1488215
v 0.36206299 0.272325 0.1488215
v 1.07789003 1.16011202 0.1490685
v 0.72039097 0.08601 0.14855049
v 0.09333799 0.71659702 0.14855049
v 1.350636 0.71627897 0.14934049
v 0.72007197 0.63031399 0.14934049
v 0.63453197 0.71627897 0.14934049
v 0.72112 1.51760101 0.1493185
v 1.16368794 1.07431495 0.1490685
v 0.36179 1.16011202 0.1490685
v 0.447584 1.07431495 0.1490685
v 0.27628299 1.07443296 0.1488215
v 0.36206299 0.988653 0.1488215
v 2.95575189 -0.003129 0.1490695
v 0.71968299 0.80233597 0.14855049
v 0.089588 1.43221294 0.1490685
v 1.16368794 0.35798901 0.1490685
v 0.72007197 1.34791505 0.14934049
v 0.63416302 1.43203604 0.1498595
v 1.07789003 0.44378399 0.1490685
v 0.002073 1.51695299 0.1492335
v 0.002391 -1.51985096 0.1477855
v -0.98825401 -1.07699704 -0.14841648
v -1.07368302 -1.16256594 -0.1486645
v -1.15956497 -1.07697999 -0.1486645
v -1.07415294 -0.99139702 -0.1484175
v -0.71614998 -1.34854197 -0.14893451
v -0.80253201 -1.43441402 -0.14866349
v -1.43287003 -0.80582898 -0.14814549
v -1.34428095 -0.71917998 -0.14893451
v -0.80200201 -0.71950399 -0.14814549
v -0.71645999 -0.80546701 -0.14814549
v -1.34675705 -1.43423402 -0.14945548
v -1.43263495 -1.34871196 -0.14945548
v -0.988357 -0.360868 -0.1484175
v -1.07387995 -0.44653099 -0.1486645
v -1.15965998 -0.360749 -0.1486645
v -1.07415294 -0.27507099 -0.1484175
v -0.71685099 -0.63344597 -0.14893451
v -1.43224096 -0.089681 -0.14814549
v -1.34670496 -0.001451 -0.14893749
v -0.80152398 -0.001234 -0.14814549
v -0.71646797 -0.087861 -0.14814549
v -1.43306994 -0.63239902 -0.14893651
v -0.27215099 -1.07699704 -0.14841648
v -0.357775 -1.16246295 -0.1486645
v -0.44365701 -1.07687699 -0.1486645
v -0.358049 -0.99139702 -0.1484175
v 0.00025 -1.34848296 -0.14893549
v -0.086414 -1.43432402 -0.14866349
v -0.62818098 -0.71918302 -0.14893451
v -0.085275 -0.71888601 -0.14814549
v 0.002158 -0.80633997 -0.14814549
v -0.63095301 -1.43387699 -0.14945349
v -0.27225399 -0.360868 -0.1484175
v -0.35777398 -0.44653001 -0.1486645
v -0.44355499 -0.360749 -0.1486645
v -0.358051 -0.27507001 -0.1484175
v 0.001932 -0.63344502 -0.14893651
v -0.63037699 -0.000594 -0.14893651
v -0.087329 -0.000939 -0.14814549
v 0.002838 -0.086855 -0.14814549
v -0.71768897 -1.51911795 -0.14958149
v -2.42107009 -1.07699704 -0.14841648
v -2.50649595 -1.16256594 -0.1486645
v -2.59218406 -1.07687902 -0.1486645
v -2.50676989 -0.99129599 -0.14841648
v -2.14896893 -1.34854197 -0.14893451
v -2.23534894 -1.43441402 -0.14866349
v -2.86423611 -0.80577498 -0.14866349
v -2.77598094 -0.71918201 -0.14893451
v -2.23481988 -0.71950399 -0.14814549
v -2.14927911 -0.80546701 -0.14814549
v -2.77867293 -1.43438601 -0.1494545
v -2.86445188 -1.34860599 -0.1494545
v -2.42117309 -0.360868 -0.1484175
v -2.50649809 -0.44663101 -0.1486645
v -2.59208297 -0.36074799 -0.1486645
v -2.50676989 -0.27496799 -0.14841648
v -2.14966702 -0.63344597 -0.14893451
v -2.86421608 -0.08943799 -0.14866349
v -2.77937102 -0.001858 -0.14893549
v -2.23556995 -0.00206 -0.14814549
v -2.14928388 -0.087862 -0.14814549
v -2.86410188 -0.63346999 -0.14945349
v -1.70516598 -1.07710003 -0.1484175
v -1.79079294 -1.16256499 -0.1486645
v -1.87647604 -1.07687699 -0.1486645
v -1.79086804 -0.99139702 -0.1484175
v -1.51954102 -1.43477094 -0.1486625
v -2.0610001 -0.71918302 -0.14893451
v -1.51871395 -0.71950101 -0.14814549
v -2.063771 -1.43387699 -0.14945349
v -1.70507097 -0.360868 -0.1484175
v -1.79059505 -0.44653001 -0.1486645
v -1.87637496 -0.360749 -0.1486645
v -1.79086899 -0.27507099 -0.1484175
v -2.06361603 -0.001069 -0.14893651
v -1.51926398 -0.001661 -0.14814451
v -2.9549241 -0.715227 -0.14945149
v -2.15050792 -1.51911795 -0.14958149
v -1.43592 -1.51823794 -0.14985948
v -0.988357 0.35802501 -0.1484175
v -1.07368302 0.27225801 -0.1486645
v -1.15946197 0.358042 -0.1486645
v -1.07415294 0.44382199 -0.1484175
v -0.71614801 0.08545099 -0.14893451
v -1.43287003 0.62938898 -0.14814549
v -1.34428095 0.716039 -0.14893451
v -0.80200201 0.71571499 -0.14814549
v -0.71645999 0.62975198 -0.14814549
v -1.43263304 0.08512499 -0.14945548
v -0.98846197 1.07454896 -0.1484175
v -1.07387995 0.98868799 -0.1486645
v -1.15955805 1.07466495 -0.1486645
v -1.07415497 1.16054296 -0.14841648
v -0.71685099 0.80177199 -0.14893451
v -1.43224203 1.34652197 -0.14814549
v -1.34715402 1.43204295 -0.14841648
v -0.80258297 1.43239295 -0.1476255
v -0.71647 1.34819304 -0.14814549
v -1.43306994 0.80281901 -0.14893651
v -0.27225399 0.35802599 -0.1484175
v -0.357775 0.27236199 -0.1486645
v -0.44355401 0.35814398 -0.1486645
v -0.35804998 0.44382199 -0.1484175
v -0.000746 0.085436 -0.14893651
v -0.62818098 0.716035 -0.14893451
v -0.088398 0.71709299 -0.14814549
v 0.002169 0.63063502 -0.14814549
v -0.27235499 1.07455003 -0.1484175
v -0.357773 0.98869001 -0.1486645
v -0.443452 1.07466602 -0.1486645
v -0.35804998 1.16054201 -0.14841648
v 0.001346 0.80274999 -0.14893651
v -0.63105297 1.43225801 -0.14841648
v -0.086461 1.43231904 -0.1476255
v 0.000311 1.34661495 -0.14814549
v -0.716228 1.51757097 -0.14816349
v -2.4211719 0.35802599 -0.1484175
v -2.50649595 0.27225899 -0.1486645
v -2.59208107 0.35814198 -0.1486645
v -2.50676989 0.44392299 -0.14841648
v -2.14896392 0.08545199 -0.14893451
v -2.86423611 0.629444 -0.14866349
v -2.77598094 0.71603602 -0.14893451
v -2.23481988 0.71571499 -0.14814549
v -2.14927911 0.62975198 -0.14814549
v -2.86407995 0.085427 -0.14945349
v -2.42127704 1.07454896 -0.1484175
v -2.50649809 0.98858702 -0.1486645
v -2.59197998 1.07466805 -0.14866349
v -2.50677204 1.16064596 -0.14841648
v -2.14966702 0.80177199 -0.14893451
v -2.86428093 1.346964 -0.14866349
v -2.77877807 1.43264305 -0.14841648
v -2.235399 1.43239295 -0.1476255
v -2.14928889 1.34819304 -0.14814549
v -2.86410188 0.80174797 -0.14945349
v -1.70526802 0.357923 -0.1484175
v -1.79079198 0.27225899 -0.14866548
v -1.87637305 0.35814398 -0.1486645
v -1.79086804 0.44382199 -0.1484175
v -2.0610001 0.716035 -0.14893451
v -1.51871395 0.71571797 -0.14814549
v -1.70517396 1.07454896 -0.1484175
v -1.79059505 0.988689 -0.1486645
v -1.87627196 1.07466602 -0.1486645
v -1.79086804 1.16054201 -0.14841648
v -2.06387209 1.43225801 -0.14841648
v -1.51929402 1.43217694 -0.1476255
v -2.9549241 0.71999198 -0.14945149
v -2.14904594 1.51757097 -0.14816349
v -1.43223094 1.51979804 -0.1484135
v -2.95195603 0.000721 -0.14945149
v 1.88054096 -1.07699704 -0.14841648
v 1.79511201 -1.16256594 -0.1486645
v 1.70923101 -1.07697999 -0.1486645
v 1.79464304 -0.99139702 -0.1484175
v 2.15264606 -1.34854197 -0.14893451
v 2.06626391 -1.43441402 -0.14866349
v 1.43592596 -0.80582898 -0.14814549
v 1.52451396 -0.71917998 -0.14893451
v 2.06679511 -0.71950399 -0.14814549
v 2.15233492 -0.80546701 -0.14814549
v 1.52203798 -1.43423402 -0.14945548
v 1.43616199 -1.34871196 -0.14945548
v 1.88043797 -0.360868 -0.1484175
v 1.79491496 -0.44653099 -0.1486645
v 1.70913505 -0.360749 -0.1486645
v 1.79464197 -0.27507099 -0.1484175
v 2.15194392 -0.63344597 -0.14893451
v 1.436553 -0.089681 -0.14814549
v 1.52209103 -0.001451 -0.14893749
v 2.06727194 -0.001234 -0.14814549
v 2.15232706 -0.087861 -0.14814549
v 1.435727 -0.63239902 -0.14893651
v 2.59703898 -1.07699704 -0.14841648
v 2.51121807 -1.16235995 -0.14866349
v 2.42513895 -1.07687699 -0.1486645
v 2.51094508 -0.99150002 -0.1484175
v 2.86908888 -1.34895205 -0.14841648
v 2.78356409 -1.43461501 -0.14866349
v 2.24061489 -0.71918302 -0.14893451
v 2.78364992 -0.71950399 -0.14814549
v 2.86911296 -0.80606901 -0.1476255
v 2.23784208 -1.43387699 -0.14945349
v 2.59693408 -0.36086601 -0.14841648
v 2.51121807 -0.44642698 -0.1486645
v 2.42524099 -0.360749 -0.1486645
v 2.51094293 -0.27517101 -0.1484175
v 2.86858296 -0.63381797 -0.14841648
v 2.2384181 -0.000594 -0.14893651
v 2.78155303 -0.000922 -0.14814549
v 2.86900711 -0.089729 -0.14762648
v 2.95398497 -0.719379 -0.14830249
v 2.15110707 -1.51911795 -0.14958149
v 0.447723 -1.07699704 -0.14841648
v 0.3621 -1.16246295 -0.1486645
v 0.27621901 -1.07687699 -0.1486645
v 0.36182799 -0.99139601 -0.1484175
v 0.71982598 -1.34854197 -0.14893451
v 0.63344597 -1.43441402 -0.14866349
v 0.091704 -0.719181 -0.14893451
v 0.63397502 -0.71950399 -0.14814549
v 0.71951502 -0.80546701 -0.14814549
v 0.08894 -1.43378794 -0.14945349
v 0.44762 -0.360868 -0.1484175
v 0.36209899 -0.44653001 -0.1486645
v 0.276317 -0.360751 -0.1486645
v 0.361824 -0.27507299 -0.1484175
v 0.71912598 -0.63344597 -0.14893451
v 0.087653 -0.002509 -0.14893651
v 0.63322502 -0.00206 -0.14814549
v 0.71951001 -0.087862 -0.14814549
v 1.16362905 -1.07710003 -0.1484175
v 1.07800304 -1.16256499 -0.1486645
v 0.99231898 -1.07687699 -0.1486645
v 1.07792604 -0.99139702 -0.1484175
v 1.34925603 -1.43477094 -0.1486625
v 0.80779498 -0.71918302 -0.14893451
v 1.35008096 -0.71950101 -0.14814549
v 0.80502402 -1.43387699 -0.14945349
v 1.16372394 -0.360868 -0.1484175
v 1.07819998 -0.44653001 -0.1486645
v 0.99242097 -0.360749 -0.1486645
v 1.07792496 -0.27507099 -0.1484175
v 0.805179 -0.001069 -0.14893651
v 1.34953296 -0.001661 -0.14814451
v 0.71828699 -1.51911795 -0.14958149
v 1.43287599 -1.51823794 -0.14985948
v 1.88043797 0.35802501 -0.1484175
v 1.79511201 0.27225801 -0.1486645
v 1.70933294 0.358042 -0.1486645
v 1.79464304 0.44382199 -0.1484175
v 2.15264701 0.08545099 -0.14893451
v 1.43592596 0.62938898 -0.14814549
v 1.52451396 0.716039 -0.14893451
v 2.06679511 0.71571499 -0.14814549
v 2.15233492 0.62975198 -0.14814549
v 1.43616294 0.08512499 -0.14945548
v 1.88033402 1.07454896 -0.1484175
v 1.79491496 0.98868799 -0.1486645
v 1.70923697 1.07466495 -0.1486645
v 1.79463994 1.16054296 -0.14841648
v 2.15194392 0.80177199 -0.14893451
v 1.43655204 1.34652197 -0.14814549
v 1.52164101 1.43204295 -0.14841648
v 2.06621193 1.43239295 -0.1476255
v 2.15232491 1.34819304 -0.14814549
v 1.435727 0.80281901 -0.14893651
v 2.59693598 0.358024 -0.14841648
v 2.51121807 0.272464 -0.1486645
v 2.42524194 0.35814398 -0.1486645
v 2.51094508 0.443719 -0.1484175
v 2.86847806 0.085082 -0.14841648
v 2.24061489 0.716035 -0.14893451
v 2.78364992 0.71571499 -0.14814549
v 2.86911296 0.62914997 -0.1476255
v 2.59683299 1.074548 -0.14841648
v 2.51121807 0.988792 -0.1486645
v 2.42534399 1.07466602 -0.1486645
v 2.51094389 1.16043901 -0.14841648
v 2.86858296 0.80140101 -0.14841648
v 2.23774194 1.43225801 -0.14841648
v 2.78351807 1.43246901 -0.1476255
v 2.86931204 1.34667205 -0.1476255
v 2.95398497 0.71583998 -0.14830249
v 2.15256691 1.51757097 -0.14816349
v 0.44762098 0.35802599 -0.1484175
v 0.3621 0.27236199 -0.1486645
v 0.27632001 0.35814499 -0.1486645
v 0.36182799 0.44382301 -0.1484175
v 0.71983099 0.08545199 -0.14893451
v 0.09279599 0.716035 -0.14893451
v 0.63397502 0.71571499 -0.14814549
v 0.71951502 0.62975198 -0.14814549
v 0.44751599 1.07454896 -0.1484175
v 0.36209899 0.988689 -0.1486645
v 0.27642199 1.07466602 -0.1486645
v 0.36182498 1.16054296 -0.14841648
v 0.71912598 0.80177199 -0.14893451
v 0.08883599 1.43218505 -0.14841648
v 0.63339501 1.43239295 -0.1476255
v 0.71950602 1.34819304 -0.14814549
v 1.16352701 0.357923 -0.1484175
v 1.078004 0.27225899 -0.14866548
v 0.99242198 0.35814398 -0.1486645
v 1.07792604 0.44382199 -0.1484175
v 0.80779498 0.716035 -0.14893451
v 1.35008096 0.71571797 -0.14814549
v 1.16362094 1.07454896 -0.1484175
v 1.07819998 0.988689 -0.1486645
v 0.99252402 1.07466602 -0.1486645
v 1.07792604 1.16054201 -0.14841648
v 0.80492299 1.43225801 -0.14841648
v 1.34950196 1.43217694 -0.1476255
v 0.71974802 1.51757097 -0.14816349
v 1.43656504 1.51979804 -0.1484135
v 2.95526909 -0.004476 -0.14841249
v 0.00073 1.51677596 -0.14824849
v 0.001047 -1.51853203 -0.14969348
g Group32941
f 304 303 302 301
g Group35369
f 1 2 4 3
g Group32941
f 301 302 306 305
g Group32944
f 6 2 301 305
f 4 5 306 302
g Group35369
f 2 6 5 4
g Group32941
f 303 304 308 307
g Group32944
f 8 3 303 307
f 1 7 308 304
g Group35369
f 3 8 7 1
g Group32941
f 304 301 310 309
g Group32944
f 10 1 304 309
f 2 9 310 301
g Group35369
f 1 10 9 2
g Group32941
f 302 303 312 311
g Group32944
f 12 4 302 311
f 3 11 312 303
g Group35369
f 4 12 11 3
g Group32941
f 316 315 314 313
g Group35369
f 13 14 16 15
g Group32941
f 313 314 309 317
g Group32944
f 18 14 313 317
f 16 10 309 314
g Group35369
f 14 18 10 16
g Group32941
f 315 316 319 318
g Group32944
f 20 15 315 318
f 13 19 319 316
g Group35369
f 15 20 19 13
g Group32941
f 316 313 321 320
g Group32944
f 22 13 316 320
f 14 21 321 313
g Group35369
f 13 22 21 14
g Group32941
f 314 315 322 308
g Group32944
f 7 16 314 308
f 15 17 322 315
g Group35369
f 16 7 17 15
g Group32941
f 326 325 324 323
g Group35369
f 23 24 26 25
g Group32941
f 323 324 328 327
g Group32944
f 28 24 323 327
f 26 27 328 324
g Group35369
f 24 28 27 26
g Group32941
f 325 326 329 310
g Group32944
f 9 25 325 310
f 23 29 329 326
g Group35369
f 25 9 29 23
g Group32941
f 326 323 331 330
g Group32944
f 32 23 326 330
f 24 31 331 323
g Group35369
f 23 32 31 24
g Group32941
f 324 325 305 332
g Group32944
f 34 26 324 332
f 25 6 305 325
g Group35369
f 26 34 6 25
g Group32941
f 336 335 334 333
g Group35369
f 35 36 38 37
g Group32941
f 333 334 330 337
g Group32944
f 40 36 333 337
f 38 32 330 334
g Group35369
f 36 40 32 38
g Group32941
f 335 336 338 321
g Group32944
f 21 37 335 321
f 35 33 338 336
g Group35369
f 37 21 33 35
g Group32941
f 336 333 340 339
g Group32944
f 39 35 336 339
f 36 30 340 333
g Group35369
f 35 39 30 36
g Group32941
f 334 335 317 329
g Group32944
f 29 38 334 329
f 37 18 317 335
g Group35369
f 38 29 18 37
g Group32941
f 329 317 309 310
g Group35369
f 29 9 10 18
g Group32941
f 332 305 306 341
g Group32944
f 41 34 332 341
f 5 41 341 306
g Group35369
f 34 41 5 6
g Group32941
f 345 344 343 342
g Group35369
f 42 43 45 44
g Group32941
f 342 343 347 346
g Group32944
f 47 43 342 346
f 45 46 347 343
g Group35369
f 43 47 46 45
g Group32941
f 344 345 349 348
g Group32944
f 49 44 344 348
f 42 48 349 345
g Group35369
f 44 49 48 42
g Group32941
f 345 342 351 350
g Group32944
f 51 42 345 350
f 43 50 351 342
g Group35369
f 42 51 50 43
g Group32941
f 343 344 353 352
g Group32944
f 53 45 343 352
f 52 53 352 353
f 44 52 353 344
g Group35369
f 45 53 52 44
g Group32941
f 357 356 355 354
g Group35369
f 54 55 57 56
g Group32941
f 354 355 350 358
g Group32944
f 59 55 354 358
f 57 51 350 355
g Group35369
f 55 59 51 57
g Group32941
f 356 357 360 359
g Group32944
f 61 56 356 359
f 54 60 360 357
g Group35369
f 56 61 60 54
g Group32941
f 357 354 362 361
g Group32944
f 63 54 357 361
f 55 62 362 354
g Group35369
f 54 63 62 55
g Group32941
f 355 356 363 349
g Group32944
f 48 57 355 349
f 56 58 363 356
g Group35369
f 57 48 58 56
g Group32941
f 367 366 365 364
g Group35369
f 64 65 67 66
g Group32941
f 364 365 368 312
g Group32944
f 11 65 364 312
f 67 68 368 365
g Group35369
f 65 11 68 67
g Group32941
f 366 367 369 351
g Group32944
f 50 66 366 351
f 64 70 369 367
g Group35369
f 66 50 70 64
g Group32941
f 367 364 307 370
g Group32944
f 72 64 367 370
f 65 8 307 364
g Group35369
f 64 72 8 65
g Group32941
f 365 366 346 371
g Group32944
f 74 67 365 371
f 66 47 346 366
g Group35369
f 67 74 47 66
g Group32941
f 375 374 373 372
g Group35369
f 75 76 78 77
g Group32941
f 372 373 370 322
g Group32944
f 17 76 372 322
f 78 72 370 373
g Group35369
f 76 17 72 78
g Group32941
f 374 375 376 362
g Group32944
f 62 77 374 362
f 75 73 376 375
g Group35369
f 77 62 73 75
g Group32941
f 375 372 318 377
g Group32944
f 79 75 375 377
f 76 20 318 372
g Group35369
f 75 79 20 76
g Group32941
f 373 374 358 369
g Group32944
f 70 78 373 369
f 77 59 358 374
g Group35369
f 78 70 59 77
g Group32941
f 369 358 350 351
g Group35369
f 70 50 51 59
g Group32941
f 349 363 378 348
g Group32944
f 69 49 348 378
f 58 69 378 363
g Group35369
f 48 49 69 58
g Group32941
f 371 346 347 379
g Group32944
f 71 74 371 379
f 46 71 379 347
g Group35369
f 74 71 46 47
g Group32941
f 308 322 370 307
g Group35369
f 7 8 72 17
g Group32941
f 311 312 368 380
g Group32944
f 80 12 311 380
f 68 80 380 368
g Group35369
f 12 80 68 11
g Group32941
f 384 383 382 381
g Group35369
f 81 82 84 83
g Group32941
f 381 382 320 385
g Group32944
f 86 82 381 385
f 84 22 320 382
g Group35369
f 82 86 22 84
g Group32941
f 383 384 387 386
g Group32944
f 88 83 383 386
f 81 87 387 384
g Group35369
f 83 88 87 81
g Group32941
f 384 381 389 388
g Group32944
f 90 81 384 388
f 82 89 389 381
g Group35369
f 81 90 89 82
g Group32941
f 382 383 390 319
g Group32944
f 19 84 382 319
f 83 91 390 383
g Group35369
f 84 19 91 83
g Group32941
f 394 393 392 391
g Group35369
f 93 94 96 95
g Group32941
f 391 392 388 395
g Group32944
f 98 94 391 395
f 96 90 388 392
g Group35369
f 94 98 90 96
g Group32941
f 393 394 397 396
g Group32944
f 100 95 393 396
f 93 99 397 394
g Group35369
f 95 100 99 93
g Group32941
f 394 391 399 398
g Group32944
f 102 93 394 398
f 94 101 399 391
g Group35369
f 93 102 101 94
g Group32941
f 392 393 400 387
g Group32944
f 87 96 392 387
f 95 97 400 393
g Group35369
f 96 87 97 95
g Group32941
f 404 403 402 401
g Group35369
f 103 104 106 105
g Group32941
f 401 402 339 405
g Group32944
f 108 104 401 405
f 106 39 339 402
g Group35369
f 104 108 39 106
g Group32941
f 403 404 406 389
g Group32944
f 89 105 403 389
f 103 109 406 404
g Group35369
f 105 89 109 103
g Group32941
f 404 401 408 407
g Group32944
f 112 103 404 407
f 104 111 408 401
g Group35369
f 103 112 111 104
g Group32941
f 402 403 385 338
g Group32944
f 33 106 402 338
f 105 86 385 403
g Group35369
f 106 33 86 105
g Group32941
f 412 411 410 409
g Group35369
f 115 116 118 117
g Group32941
f 409 410 407 413
g Group32944
f 120 116 409 413
f 118 112 407 410
g Group35369
f 116 120 112 118
g Group32941
f 411 412 414 399
g Group32944
f 101 117 411 399
f 115 113 414 412
g Group35369
f 117 101 113 115
g Group32941
f 412 409 416 415
g Group32944
f 119 115 412 415
f 116 110 416 409
g Group35369
f 115 119 110 116
g Group32941
f 410 411 395 406
g Group32944
f 109 118 410 406
f 117 98 395 411
g Group35369
f 118 109 98 117
g Group32941
f 406 395 388 389
g Group35369
f 109 89 90 98
g Group32941
f 399 414 417 398
g Group32944
f 121 102 398 417
f 113 121 417 414
g Group35369
f 101 102 121 113
g Group32941
f 421 420 419 418
g Group35369
f 122 123 125 124
g Group32941
f 418 419 361 422
g Group32944
f 127 123 418 422
f 125 63 361 419
g Group35369
f 123 127 63 125
g Group32941
f 420 421 424 423
g Group32944
f 129 124 420 423
f 122 128 424 421
g Group35369
f 124 129 128 122
g Group32941
f 421 418 426 425
g Group32944
f 131 122 421 425
f 123 130 426 418
g Group35369
f 122 131 130 123
g Group32941
f 419 420 427 360
g Group32944
f 60 125 419 360
f 124 132 427 420
g Group35369
f 125 60 132 124
g Group32941
f 431 430 429 428
g Group35369
f 134 135 137 136
g Group32941
f 428 429 425 432
g Group32944
f 139 135 428 432
f 137 131 425 429
g Group35369
f 135 139 131 137
g Group32941
f 430 431 434 433
g Group32944
f 141 136 430 433
f 140 141 433 434
f 134 140 434 431
g Group35369
f 136 141 140 134
g Group32941
f 431 428 436 435
g Group32944
f 143 134 431 435
f 135 142 436 428
g Group35369
f 134 143 142 135
g Group32941
f 429 430 437 424
g Group32944
f 128 137 429 424
f 136 138 437 430
g Group35369
f 137 128 138 136
g Group32941
f 441 440 439 438
g Group35369
f 144 145 147 146
g Group32941
f 438 439 377 390
g Group32944
f 91 145 438 390
f 147 79 377 439
g Group35369
f 145 91 79 147
g Group32941
f 440 441 442 426
g Group32944
f 130 146 440 426
f 144 150 442 441
g Group35369
f 146 130 150 144
g Group32941
f 441 438 386 443
g Group32944
f 152 144 441 443
f 145 88 386 438
g Group35369
f 144 152 88 145
g Group32941
f 439 440 422 376
g Group32944
f 73 147 439 376
f 146 127 422 440
g Group35369
f 147 73 127 146
g Group32941
f 447 446 445 444
g Group35369
f 126 133 92 148
g Group32941
f 444 445 443 400
g Group32944
f 97 133 444 400
f 92 152 443 445
g Group35369
f 133 97 152 92
g Group32941
f 446 447 448 436
g Group32944
f 142 148 446 436
f 126 107 448 447
g Group35369
f 148 142 107 126
g Group32941
f 447 444 396 449
g Group32944
f 114 126 447 449
f 133 100 396 444
g Group35369
f 126 114 100 133
g Group32941
f 445 446 432 442
g Group32944
f 150 92 445 442
f 148 139 432 446
g Group35369
f 92 150 139 148
g Group32941
f 442 432 425 426
g Group35369
f 150 130 131 139
g Group32941
f 424 437 450 423
g Group32944
f 149 129 423 450
f 138 149 450 437
g Group35369
f 128 129 149 138
g Group32941
f 436 448 451 435
g Group32944
f 151 143 435 451
f 107 151 451 448
g Group35369
f 142 143 151 107
g Group32941
f 387 400 443 386
g Group35369
f 87 88 152 97
g Group32941
f 396 397 452 449
g Group32944
f 85 114 449 452
f 99 85 452 397
g Group35369
f 100 114 85 99
g Group32941
f 385 320 321 338
g Group35369
f 86 33 21 22
g Group32941
f 390 377 318 319
g Group35369
f 91 19 20 79
g Group32941
f 422 361 362 376
g Group35369
f 127 73 62 63
g Group32941
f 360 427 453 359
g Group32944
f 153 61 359 453
f 132 153 453 427
g Group35369
f 60 61 153 132
g Group32941
f 457 456 455 454
g Group35369
f 154 155 157 156
g Group32941
f 454 455 459 458
g Group32944
f 159 155 454 458
f 157 158 459 455
g Group35369
f 155 159 158 157
g Group32941
f 456 457 461 460
g Group32944
f 161 156 456 460
f 154 160 461 457
g Group35369
f 156 161 160 154
g Group32941
f 457 454 463 462
g Group32944
f 163 154 457 462
f 155 162 463 454
g Group35369
f 154 163 162 155
g Group32941
f 455 456 465 464
g Group32944
f 165 157 455 464
f 156 164 465 456
g Group35369
f 157 165 164 156
g Group32941
f 469 468 467 466
g Group35369
f 166 167 169 168
g Group32941
f 466 467 462 470
g Group32944
f 171 167 466 470
f 169 163 462 467
g Group35369
f 167 171 163 169
g Group32941
f 468 469 472 471
g Group32944
f 173 168 468 471
f 166 172 472 469
g Group35369
f 168 173 172 166
g Group32941
f 469 466 474 473
g Group32944
f 175 166 469 473
f 167 174 474 466
g Group35369
f 166 175 174 167
g Group32941
f 467 468 475 461
g Group32944
f 160 169 467 461
f 168 170 475 468
g Group35369
f 169 160 170 168
g Group32941
f 479 478 477 476
g Group35369
f 176 177 179 178
g Group32941
f 476 477 481 480
g Group32944
f 181 177 476 480
f 180 181 480 481
f 179 180 481 477
g Group35369
f 177 181 180 179
g Group32941
f 478 479 482 463
g Group32944
f 162 178 478 463
f 176 182 482 479
g Group35369
f 178 162 182 176
g Group32941
f 479 476 484 483
g Group32944
f 185 176 479 483
f 177 184 484 476
g Group35369
f 176 185 184 177
g Group32941
f 477 478 458 485
g Group32944
f 187 179 477 485
f 178 159 458 478
g Group35369
f 179 187 159 178
g Group32941
f 489 488 487 486
g Group35369
f 188 189 191 190
g Group32941
f 486 487 483 490
g Group32944
f 193 189 486 490
f 191 185 483 487
g Group35369
f 189 193 185 191
g Group32941
f 488 489 491 474
g Group32944
f 174 190 488 474
f 188 186 491 489
g Group35369
f 190 174 186 188
g Group32941
f 489 486 493 492
g Group32944
f 192 188 489 492
f 189 183 493 486
g Group35369
f 188 192 183 189
g Group32941
f 487 488 470 482
g Group32944
f 182 191 487 482
f 190 171 470 488
g Group35369
f 191 182 171 190
g Group32941
f 482 470 462 463
g Group35369
f 182 162 163 171
g Group32941
f 490 483 484 494
g Group32944
f 194 193 490 494
f 184 194 494 484
g Group35369
f 193 194 184 185
g Group32941
f 485 458 459 495
g Group32944
f 195 187 485 495
f 158 195 495 459
g Group35369
f 187 195 158 159
g Group32941
f 499 498 497 496
g Group35369
f 196 197 199 198
g Group32941
f 496 497 501 500
g Group32944
f 201 197 496 500
f 199 200 501 497
g Group35369
f 197 201 200 199
g Group32941
f 498 499 502 331
g Group32944
f 31 198 498 331
f 196 202 502 499
g Group35369
f 198 31 202 196
g Group32941
f 499 496 504 503
g Group32944
f 205 196 499 503
f 197 204 504 496
g Group35369
f 196 205 204 197
g Group32941
f 497 498 327 505
g Group32944
f 207 199 497 505
f 198 28 327 498
g Group35369
f 199 207 28 198
g Group32941
f 509 508 507 506
g Group35369
f 208 209 211 210
g Group32941
f 506 507 503 510
g Group32944
f 213 209 506 510
f 211 205 503 507
g Group35369
f 209 213 205 211
g Group32941
f 508 509 511 340
g Group32944
f 30 210 508 340
f 208 214 511 509
g Group35369
f 210 30 214 208
g Group32941
f 509 506 513 512
g Group32944
f 217 208 509 512
f 209 216 513 506
g Group35369
f 208 217 216 209
g Group32941
f 507 508 337 502
g Group32944
f 202 211 507 502
f 210 40 337 508
g Group35369
f 211 202 40 210
g Group32941
f 517 516 515 514
g Group35369
f 218 219 221 220
g Group32941
f 514 515 518 465
g Group32944
f 164 219 514 465
f 221 222 518 515
g Group35369
f 219 164 222 221
g Group32941
f 516 517 519 504
g Group32944
f 204 220 516 504
f 218 223 519 517
g Group35369
f 220 204 223 218
g Group32941
f 517 514 460 520
g Group32944
f 225 218 517 520
f 219 161 460 514
g Group35369
f 218 225 161 219
g Group32941
f 515 516 500 521
g Group32944
f 227 221 515 521
f 220 201 500 516
g Group35369
f 221 227 201 220
g Group32941
f 525 524 523 522
g Group35369
f 228 229 231 230
g Group32941
f 522 523 520 475
g Group32944
f 170 229 522 475
f 231 225 520 523
g Group35369
f 229 170 225 231
g Group32941
f 524 525 526 513
g Group32944
f 216 230 524 513
f 228 226 526 525
g Group35369
f 230 216 226 228
g Group32941
f 525 522 471 527
g Group32944
f 232 228 525 527
f 229 173 471 522
g Group35369
f 228 232 173 229
g Group32941
f 523 524 510 519
g Group32944
f 223 231 523 519
f 230 213 510 524
g Group35369
f 231 223 213 230
g Group32941
f 519 510 503 504
g Group35369
f 223 204 205 213
g Group32941
f 521 500 501 528
g Group32944
f 224 227 521 528
f 200 224 528 501
g Group35369
f 227 224 200 201
g Group32941
f 461 475 520 460
g Group35369
f 160 161 225 170
g Group32941
f 464 465 518 529
g Group32944
f 233 165 464 529
f 222 233 529 518
g Group35369
f 165 233 222 164
g Group32941
f 533 532 531 530
g Group35369
f 234 235 237 236
g Group32941
f 530 531 473 534
g Group32944
f 239 235 530 534
f 237 175 473 531
g Group35369
f 235 239 175 237
g Group32941
f 532 533 536 535
g Group32944
f 241 236 532 535
f 234 240 536 533
g Group35369
f 236 241 240 234
g Group32941
f 533 530 538 537
g Group32944
f 243 234 533 537
f 235 242 538 530
g Group35369
f 234 243 242 235
g Group32941
f 531 532 539 472
g Group32944
f 172 237 531 472
f 236 244 539 532
g Group35369
f 237 172 244 236
g Group32941
f 543 542 541 540
g Group35369
f 246 247 249 248
g Group32941
f 540 541 537 544
g Group32944
f 251 247 540 544
f 249 243 537 541
g Group35369
f 247 251 243 249
g Group32941
f 542 543 546 545
g Group32944
f 253 248 542 545
f 246 252 546 543
g Group35369
f 248 253 252 246
g Group32941
f 543 540 548 547
g Group32944
f 255 246 543 547
f 247 254 548 540
g Group35369
f 246 255 254 247
g Group32941
f 541 542 549 536
g Group32944
f 240 249 541 536
f 248 250 549 542
g Group35369
f 249 240 250 248
g Group32941
f 553 552 551 550
g Group35369
f 256 257 259 258
g Group32941
f 550 551 492 554
g Group32944
f 261 257 550 554
f 259 192 492 551
g Group35369
f 257 261 192 259
g Group32941
f 552 553 555 538
g Group32944
f 242 258 552 538
f 256 262 555 553
g Group35369
f 258 242 262 256
g Group32941
f 553 550 557 556
g Group32944
f 265 256 553 556
f 257 264 557 550
g Group35369
f 256 265 264 257
g Group32941
f 551 552 534 491
g Group32944
f 186 259 551 491
f 258 239 534 552
g Group35369
f 259 186 239 258
g Group32941
f 561 560 559 558
g Group35369
f 268 269 271 270
g Group32941
f 558 559 556 562
g Group32944
f 273 269 558 562
f 271 265 556 559
g Group35369
f 269 273 265 271
g Group32941
f 560 561 563 548
g Group32944
f 254 270 560 548
f 268 266 563 561
g Group35369
f 270 254 266 268
g Group32941
f 561 558 565 564
g Group32944
f 272 268 561 564
f 263 272 564 565
f 269 263 565 558
g Group35369
f 268 272 263 269
g Group32941
f 559 560 544 555
g Group32944
f 262 271 559 555
f 270 251 544 560
g Group35369
f 271 262 251 270
g Group32941
f 555 544 537 538
g Group35369
f 262 242 243 251
g Group32941
f 562 556 557 566
g Group32944
f 274 273 562 566
f 264 274 566 557
g Group35369
f 273 274 264 265
g Group32941
f 548 563 567 547
g Group32944
f 275 255 547 567
f 266 275 567 563
g Group35369
f 254 255 275 266
g Group32941
f 571 570 569 568
g Group35369
f 276 277 279 278
g Group32941
f 568 569 512 572
g Group32944
f 281 277 568 572
f 279 217 512 569
g Group35369
f 277 281 217 279
g Group32941
f 570 571 573 408
g Group32944
f 111 278 570 408
f 276 282 573 571
g Group35369
f 278 111 282 276
g Group32941
f 571 568 575 574
g Group32944
f 285 276 571 574
f 277 284 575 568
g Group35369
f 276 285 284 277
g Group32941
f 569 570 405 511
g Group32944
f 214 279 569 511
f 278 108 405 570
g Group35369
f 279 214 108 278
g Group32941
f 579 578 577 576
g Group35369
f 288 289 291 290
g Group32941
f 576 577 574 580
g Group32944
f 293 289 576 580
f 291 285 574 577
g Group35369
f 289 293 285 291
g Group32941
f 578 579 581 416
g Group32944
f 110 290 578 416
f 288 294 581 579
g Group35369
f 290 110 294 288
g Group32941
f 579 576 583 582
g Group32944
f 297 288 579 582
f 289 296 583 576
g Group35369
f 288 297 296 289
g Group32941
f 577 578 413 573
g Group32944
f 282 291 577 573
f 290 120 413 578
g Group35369
f 291 282 120 290
g Group32941
f 587 586 585 584
g Group35369
f 298 295 203 206
g Group32941
f 584 585 527 539
g Group32944
f 244 295 584 539
f 203 232 527 585
g Group35369
f 295 244 232 203
g Group32941
f 586 587 588 575
g Group32944
f 284 206 586 575
f 298 215 588 587
g Group35369
f 206 284 215 298
g Group32941
f 587 584 535 589
g Group32944
f 283 298 587 589
f 295 241 535 584
g Group35369
f 298 283 241 295
g Group32941
f 585 586 572 526
g Group32944
f 226 203 585 526
f 206 281 572 586
g Group35369
f 203 226 281 206
g Group32941
f 593 592 591 590
g Group35369
f 280 287 245 212
g Group32941
f 590 591 589 549
g Group32944
f 250 287 590 549
f 245 283 589 591
g Group35369
f 287 250 283 245
g Group32941
f 592 593 594 583
g Group32944
f 296 212 592 583
f 280 260 594 593
g Group35369
f 212 296 260 280
g Group32941
f 593 590 545 595
g Group32944
f 267 280 593 595
f 287 253 545 590
g Group35369
f 280 267 253 287
g Group32941
f 591 592 580 588
g Group32944
f 215 245 591 588
f 212 293 580 592
g Group35369
f 245 215 293 212
g Group32941
f 588 580 574 575
g Group35369
f 215 284 285 293
g Group32941
f 583 594 596 582
g Group32944
f 286 297 582 596
f 260 286 596 594
g Group35369
f 296 297 286 260
g Group32941
f 536 549 589 535
g Group35369
f 240 241 283 250
g Group32941
f 545 546 597 595
g Group32944
f 238 267 595 597
f 252 238 597 546
g Group35369
f 253 267 238 252
g Group32941
f 554 492 493 598
g Group32944
f 292 261 554 598
f 183 292 598 493
g Group35369
f 261 292 183 192
g Group32941
f 534 473 474 491
g Group35369
f 239 186 174 175
g Group32941
f 539 527 471 472
g Group35369
f 244 172 173 232
g Group32941
f 572 512 513 526
g Group35369
f 281 226 216 217
g Group32941
f 416 581 599 415
g Group32944
f 299 119 415 599
f 294 299 599 581
g Group35369
f 110 119 299 294
g Group32941
f 573 413 407 408
g Group35369
f 282 111 112 120
g Group32941
f 511 405 339 340
g Group35369
f 214 30 39 108
g Group32941
f 502 337 330 331
g Group35369
f 202 31 32 40
g Group32941
f 505 327 328 600
g Group32944
f 300 207 505 600
f 27 300 600 328
g Group35369
f 207 300 27 28

 