# File exported by ZBrush version 2021
# www.zbrush.com
#Vertex Count 312
#Face Count 358
#Auto scale x=1.000000 y=1.000000 z=1.000000
#Auto offset x=0.000000 y=0.000000 z=0.000000
v 0.506298 -1.39353299 0.1934005
v 0.62689101 -1.51412403 0.1934005
v 0.386112 -1.51395905 0.1930525
v 0.50668197 -1.63452994 0.1930525
v 0.88921302 -2.01705694 0.1930525
v 1.01034295 -1.89640998 0.1926725
v 0.12744399 -1.01007497 0.1926725
v 0.002927 -1.13186597 0.1937825
v 1.00989401 -1.13135099 0.1937825
v 0.88966202 -1.010522 0.1937825
v 0.003271 -1.89617002 0.1919405
v 0.12384299 -2.01674008 0.1919405
v 0.506298 -0.38668298 0.1934005
v 0.62689101 -0.50727599 0.1934005
v 0.386112 -0.50711 0.1930525
v 0.50668197 -0.62768101 0.1930525
v 0.002648 -0.88809502 0.1926705
v 1.00934696 -0.88956201 0.1926725
v 0.123772 -0.000701 0.1926705
v 0.00382 -0.12485899 0.1937825
v 1.00989401 -0.122711 0.1937825
v 0.89034199 -0.000949 0.1937825
v 1.51283502 -1.39353299 0.1934005
v 1.63342595 -1.51412403 0.1934005
v 1.39265096 -1.51395905 0.1930525
v 1.51322102 -1.63452994 0.1930525
v 1.89574599 -2.01705694 0.1930525
v 2.01595711 -1.89665198 0.1934005
v 1.13397896 -1.01007497 0.1926725
v 2.01626801 -0.12506599 0.1945125
v 2.01626801 -1.13191402 0.1945125
v 1.89619505 -1.010522 0.1937825
v 1.13090205 -0.000052 0.1926705
v 1.130378 -2.01674008 0.1919405
v 1.51283502 -0.38668298 0.1934005
v 1.63342595 -0.50727599 0.1934005
v 1.39265096 -0.50711 0.1930525
v 1.51322102 -0.62768101 0.1930525
v 1.89334905 -0.000517 0.1937825
v 2.01595711 -0.88980197 0.1934005
v 2.1362729 -1.00921797 0.1935555
v 1.00931596 -2.13683009 0.1917565
v -1.50762498 -1.39353299 0.1934005
v -1.38703596 -1.51412403 0.1934005
v -1.62781095 -1.51395905 0.1930525
v -1.50724101 -1.63452994 0.1930525
v -1.12471401 -2.01705694 0.1930525
v -1.00358498 -1.89640998 0.1926725
v -1.88647902 -1.01007497 0.1926725
v -2.01040601 -1.13150095 0.1930525
v -1.00403404 -1.13135099 0.1937825
v -1.12426698 -1.010522 0.1937825
v -2.01065206 -1.89617002 0.1919405
v -1.89007997 -2.01674008 0.1919405
v -1.50762498 -0.38668298 0.1934005
v -1.38703596 -0.50727599 0.1934005
v -1.62781095 -0.50711 0.1930525
v -1.50724101 -0.62768101 0.1930525
v -2.01065206 -0.88932001 0.1919405
v -1.00458002 -0.88956201 0.1926725
v -1.89126503 -0.00183 0.1926705
v -2.01040601 -0.12465299 0.1930525
v -1.00403404 -0.122711 0.1937825
v -1.12531697 -0.002113 0.1937825
v -0.50109499 -1.39353299 0.1934005
v -0.38050198 -1.51412403 0.1934005
v -0.62127697 -1.51395905 0.1930525
v -0.50070899 -1.63452994 0.1930525
v -0.118183 -2.01705694 0.1930525
v -2.13837194 -1.00338399 0.1919405
v -0.87994998 -1.01007497 0.1926725
v -1.00461196 -2.13683009 0.1917565
v -0.117733 -1.010522 0.1937825
v -0.88362002 -0.000718 0.1926705
v -0.88354897 -2.01674008 0.1919405
v -0.50109499 -0.38668298 0.1934005
v -0.38050198 -0.50727599 0.1934005
v -0.62127697 -0.50711 0.1930525
v -0.50070899 -0.62768101 0.1930525
v -0.11821699 -0.000995 0.1937825
v -0.000217 -2.13502502 0.1913665
v 0.506298 0.62376999 0.1934005
v 0.62689101 0.50317901 0.1934005
v 0.386112 0.50334399 0.1930525
v 0.50668197 0.38277199 0.1930525
v 0.004966 2.13683009 0.1934005
v 1.01034295 0.120893 0.1926725
v 0.12744399 1.00722801 0.1926725
v 0.002927 0.88543701 0.1937825
v 1.00989401 0.88595199 0.1937825
v 0.88966202 1.00678098 0.1937825
v 0.003271 0.121133 0.1919405
v -0.50070899 1.38962304 0.1930525
v 0.506298 1.63062 0.1934005
v 0.62689101 1.510028 0.1934005
v 0.386112 1.51019203 0.1930525
v 0.50668197 1.38962304 0.1930525
v 0.002648 1.12920796 0.1926705
v 1.00934696 1.12774097 0.1926725
v 0.12370199 2.01307797 0.1934005
v 0.00382 1.89244401 0.1937825
v 1.00989401 1.89459204 0.1937825
v 0.88914001 2.01282906 0.1945125
v 1.51283502 0.62376999 0.1934005
v 1.63342595 0.50317901 0.1934005
v 1.39265096 0.50334399 0.1930525
v 1.51322102 0.38277199 0.1930525
v -0.88369101 2.01307797 0.1934005
v 2.01595711 0.12065099 0.1934005
v 1.13397896 1.00722801 0.1926725
v 2.01626801 1.89223694 0.1945125
v 2.01626801 0.88538897 0.1945125
v 1.89619505 1.00678098 0.1937825
v 1.13023805 2.01307797 0.1934005
v -0.11825399 2.01282906 0.1945125
v 1.51283502 1.63062 0.1934005
v 1.63342595 1.510028 0.1934005
v 1.39265096 1.51019203 0.1930525
v 1.51322102 1.38962304 0.1930525
v 1.89567601 2.01282906 0.1945125
v 2.01595711 1.12750101 0.1934005
v 2.1362729 1.00808501 0.1935555
v 1.01136696 2.13309598 0.19375149
v -1.50762498 0.62376999 0.1934005
v -1.38703596 0.50317901 0.1934005
v -1.62781095 0.50334399 0.1930525
v -1.50724101 0.38277199 0.1930525
v -0.50109499 1.63062 0.1934005
v -1.00358498 0.120893 0.1926725
v -1.88647902 1.00722801 0.1926725
v -2.01040601 0.88580197 0.1930525
v -1.00403404 0.88595199 0.1937825
v -1.12426698 1.00678098 0.1937825
v -2.01065206 0.121133 0.1919405
v -0.38050198 1.510028 0.1934005
v -1.50762498 1.63062 0.1934005
v -1.38703596 1.510028 0.1934005
v -1.62781095 1.51019203 0.1930525
v -1.50724101 1.38962304 0.1930525
v -2.01065206 1.12798297 0.1919405
v -1.00458002 1.12774097 0.1926725
v -1.89022398 2.01307797 0.1934005
v -2.01040601 1.89265 0.1930525
v -1.00403404 1.89459204 0.1937825
v -1.12478494 2.01282906 0.1945125
v -0.50109499 0.62376999 0.1934005
v -0.38050198 0.50317901 0.1934005
v -0.62127697 0.50334399 0.1930525
v -0.50070899 0.38277199 0.1930525
v -0.62127697 1.51019203 0.1930525
v -2.13837194 1.01391899 0.1919405
v -0.87994998 1.00722801 0.1926725
v -1.00256204 2.13309598 0.19375149
v -0.117733 1.00678098 0.1937825
v 2.13837194 -0.004398 0.19340249
v -2.13425493 0.002904 0.1919405
v 0.62707102 -1.51382195 -0.19248448
v 0.506985 -1.63410496 -0.1928315
v 0.38628301 -1.51378703 -0.19283248
v 0.50634598 -1.39348304 -0.19248448
v 1.00961005 -1.89554405 -0.19321148
v 0.88821697 -2.01623892 -0.19283048
v 0.002208 -1.13259005 -0.1921025
v 0.126725 -1.01079905 -0.19321249
v 0.88893902 -1.01125395 -0.1921025
v 1.00917303 -1.13207995 -0.1921025
v 0.123236 -2.0159831 -0.19394449
v 0.00254 -1.89574694 -0.19394449
v 0.62693798 -0.50722998 -0.19248448
v 0.506729 -0.627635 -0.19283248
v 0.386159 -0.50706297 -0.19283248
v 0.50634497 -0.386635 -0.19248448
v 1.00862395 -0.89029401 -0.19321249
v 0.003091 -0.125961 -0.1921025
v 0.12329799 -0.001937 -0.1932155
v 0.889611 -0.001674 -0.1921025
v 1.00916194 -0.12343499 -0.1921025
v 0.001928 -0.88882201 -0.19321449
v 1.63411796 -1.51382195 -0.1924835
v 1.51352298 -1.63383805 -0.1928315
v 1.39256501 -1.51365399 -0.19283248
v 1.51313805 -1.39361703 -0.19248448
v 2.01651406 -1.89609503 -0.1924835
v 1.89630305 -2.01649999 -0.19283048
v 1.13325595 -1.01080298 -0.19321249
v 1.89645004 -1.01125299 -0.1921025
v 2.01657104 -1.132905 -0.19137249
v 1.12938201 -2.01552009 -0.19394148
v 1.63398301 -0.507227 -0.1924835
v 1.51352202 -0.62750101 -0.1928315
v 1.39269697 -0.50706201 -0.19283248
v 1.51313602 -0.386765 -0.19248448
v 2.01585793 -0.89079397 -0.1924835
v 1.13016903 -0.000775 -0.19321449
v 1.89351105 -0.001236 -0.1921025
v 2.016433 -0.12603899 -0.19137249
v 2.13591909 -1.01099097 -0.1923245
v 1.00753498 -2.13535189 -0.19412149
v -1.386855 -1.51382195 -0.19248448
v -1.50693798 -1.63410496 -0.1928315
v -1.62738597 -1.51365697 -0.1928315
v -1.50732195 -1.39335298 -0.19248448
v -1.00431895 -1.89554405 -0.19321148
v -1.12570905 -2.01623892 -0.19283048
v -2.00979089 -1.13249194 -0.1928315
v -1.88575005 -1.01080203 -0.19321148
v -1.12498903 -1.01125395 -0.1921025
v -1.00475597 -1.13207995 -0.1921025
v -1.88951897 -2.01617908 -0.1939425
v -2.01009106 -1.89560997 -0.1939425
v -1.38698899 -0.50722998 -0.19248448
v -1.50694 -0.627765 -0.19283248
v -1.627254 -0.507061 -0.1928315
v -1.50732195 -0.38650199 -0.19248448
v -1.00530302 -0.89029401 -0.19321249
v -2.00976491 -0.12563 -0.1928315
v -1.89051699 -0.002552 -0.1932135
v -1.12604403 -0.002835 -0.1921025
v -1.004763 -0.12343499 -0.1921025
v -2.00963711 -0.89030599 -0.19394148
v -0.38057801 -1.51395499 -0.19248448
v -0.50091898 -1.63410496 -0.19283248
v -0.62136399 -1.51365399 -0.19283248
v -0.50104802 -1.39348399 -0.19248448
v -0.11955899 -2.01670193 -0.1928295
v -0.88067197 -1.01080298 -0.19321249
v -0.118453 -1.01124894 -0.1921025
v -0.88454502 -2.01552009 -0.19394148
v -0.38045498 -0.50722998 -0.19248448
v -0.50066298 -0.62763398 -0.19283248
v -0.62123197 -0.50706297 -0.19283248
v -0.50104999 -0.38663598 -0.19248448
v -0.88434898 -0.001442 -0.19321449
v -0.11920099 -0.002231 -0.19210149
v -2.1372981 -1.00515401 -0.1939385
v -1.00639402 -2.13535189 -0.19412149
v -0.001991 -2.13407206 -0.1945125
v 0.62693798 0.50322502 -0.19248448
v 0.506985 0.38268598 -0.19283248
v 0.38641598 0.50326001 -0.19283248
v 0.50634598 0.62382 -0.19248448
v 1.00961196 0.12016899 -0.19321249
v 0.002208 0.88471299 -0.1921025
v 0.126725 1.00650405 -0.19321249
v 0.88893902 1.00604903 -0.1921025
v 1.00917303 0.88522297 -0.1921025
v 0.002543 0.119764 -0.19394449
v 0.62680298 1.51033103 -0.19248448
v 0.506729 1.38966894 -0.19283248
v 0.38629201 1.51049399 -0.1928315
v 0.50634199 1.63118004 -0.19248448
v 1.00862395 1.12700903 -0.19321249
v 0.00309 1.89261794 -0.1921025
v 0.12270999 2.0128591 -0.1924835
v 0.88814401 2.01329207 -0.19137148
v 1.00916004 1.89495205 -0.19210149
v 0.001928 1.12848103 -0.19321449
v 1.63398504 0.50322502 -0.19248448
v 1.51352202 0.382952 -0.1928315
v 1.39269805 0.503394 -0.19283248
v 1.51313805 0.62368601 -0.19248448
v 2.01572203 0.119671 -0.1924835
v 1.13325595 1.0065 -0.19321249
v 1.89645004 1.00604999 -0.1921025
v 2.01657104 0.88439798 -0.19137249
v 1.63385105 1.51032996 -0.1924835
v 1.51352202 1.38980305 -0.1928315
v 1.39283001 1.51049494 -0.1928315
v 1.51313698 1.63104498 -0.1924835
v 2.01585793 1.12650895 -0.1924835
v 1.12924194 2.0131371 -0.1924835
v 1.89623701 2.01339006 -0.19137148
v 2.01682901 1.89279699 -0.19137148
v 2.13591909 1.00631201 -0.1923245
v 1.00958704 2.13305807 -0.19212849
v -1.38698804 0.50322699 -0.19248448
v -1.50693702 0.382687 -0.19283248
v -1.62725198 0.50339001 -0.1928315
v -1.50732195 0.62395 -0.19248448
v -1.00431203 0.12016999 -0.19321249
v -2.00979089 0.88481098 -0.1928315
v -1.88575005 1.00650095 -0.19321148
v -1.12498903 1.00604903 -0.1921025
v -1.00475597 0.88522297 -0.1921025
v -2.00960898 0.12015599 -0.19394148
v -1.38712394 1.51033103 -0.19248448
v -1.50694 1.38953805 -0.19283248
v -1.62712001 1.51049697 -0.1928315
v -1.50732398 1.63131296 -0.1924835
v -1.00530302 1.12700903 -0.19321249
v -2.00984907 1.89320695 -0.19283048
v -1.88966703 2.01363611 -0.1924835
v -1.12578105 2.01329207 -0.19137148
v -1.00476896 1.89495205 -0.1921025
v -2.00963711 1.12699699 -0.19394148
v -0.38071 0.503093 -0.19248549
v -0.50091797 0.382687 -0.19283349
v -0.62123 0.50339299 -0.19283248
v -0.50104802 0.62381899 -0.19248448
v -0.88067197 1.0065 -0.19321249
v -0.118453 1.00605404 -0.1921025
v -0.38058799 1.51032996 -0.19248448
v -0.50066298 1.38966894 -0.19283248
v -0.62109798 1.51049494 -0.1928315
v -0.50104898 1.63117897 -0.19248448
v -0.88468599 2.0131371 -0.1924835
v -0.119243 2.01301288 -0.19137249
v -2.1372981 1.01214897 -0.1939385
v -1.004341 2.13305807 -0.19212849
v 0.003194 2.13623499 -0.1924795
v 2.13774609 -0.006145 -0.1924775
v -2.13313007 0.001159 -0.1939385
g Group32941
f 160 159 158 157
g Group17569
f 1 2 4 3
g Group32941
f 157 158 162 161
g Group32944
f 6 2 157 161
f 4 5 162 158
g Group17569
f 2 6 5 4
g Group32941
f 159 160 164 163
g Group32944
f 8 3 159 163
f 1 7 164 160
g Group17569
f 3 8 7 1
g Group32941
f 160 157 166 165
g Group32944
f 10 1 160 165
f 2 9 166 157
g Group17569
f 1 10 9 2
g Group32941
f 158 159 168 167
g Group32944
f 12 4 158 167
f 3 11 168 159
g Group17569
f 4 12 11 3
g Group32941
f 172 171 170 169
g Group17569
f 13 14 16 15
g Group32941
f 169 170 165 173
g Group32944
f 18 14 169 173
f 16 10 165 170
g Group17569
f 14 18 10 16
g Group32941
f 171 172 175 174
g Group32944
f 20 15 171 174
f 13 19 175 172
g Group17569
f 15 20 19 13
g Group32941
f 172 169 177 176
g Group32944
f 22 13 172 176
f 14 21 177 169
g Group17569
f 13 22 21 14
g Group32941
f 170 171 178 164
g Group32944
f 7 16 170 164
f 15 17 178 171
g Group17569
f 16 7 17 15
g Group32941
f 182 181 180 179
g Group17569
f 23 24 26 25
g Group32941
f 179 180 184 183
g Group32944
f 28 24 179 183
f 27 28 183 184
f 26 27 184 180
g Group17569
f 24 28 27 26
g Group32941
f 181 182 185 166
g Group32944
f 9 25 181 166
f 23 29 185 182
g Group17569
f 25 9 29 23
g Group32941
f 182 179 187 186
g Group32944
f 32 23 182 186
f 24 31 187 179
g Group17569
f 23 32 31 24
g Group32941
f 180 181 161 188
g Group32944
f 34 26 180 188
f 25 6 161 181
g Group17569
f 26 34 6 25
g Group32941
f 192 191 190 189
g Group17569
f 35 36 38 37
g Group32941
f 189 190 186 193
g Group32944
f 40 36 189 193
f 38 32 186 190
g Group17569
f 36 40 32 38
g Group32941
f 191 192 194 177
g Group32944
f 21 37 191 177
f 35 33 194 192
g Group17569
f 37 21 33 35
g Group32941
f 192 189 196 195
g Group32944
f 39 35 192 195
f 36 30 196 189
g Group17569
f 35 39 30 36
g Group32941
f 190 191 173 185
g Group32944
f 29 38 190 185
f 37 18 173 191
g Group17569
f 38 29 18 37
g Group32941
f 185 173 165 166
g Group17569
f 29 9 10 18
g Group32941
f 193 186 187 197
g Group32944
f 41 40 193 197
f 31 41 197 187
g Group17569
f 40 41 31 32
g Group32941
f 188 161 162 198
g Group32944
f 42 34 188 198
f 5 42 198 162
g Group17569
f 34 42 5 6
g Group32941
f 202 201 200 199
g Group17569
f 43 44 46 45
g Group32941
f 199 200 204 203
g Group32944
f 48 44 199 203
f 46 47 204 200
g Group17569
f 44 48 47 46
g Group32941
f 201 202 206 205
g Group32944
f 50 45 201 205
f 43 49 206 202
g Group17569
f 45 50 49 43
g Group32941
f 202 199 208 207
g Group32944
f 52 43 202 207
f 44 51 208 199
g Group17569
f 43 52 51 44
g Group32941
f 200 201 210 209
g Group32944
f 54 46 200 209
f 53 54 209 210
f 45 53 210 201
g Group17569
f 46 54 53 45
g Group32941
f 214 213 212 211
g Group17569
f 55 56 58 57
g Group32941
f 211 212 207 215
g Group32944
f 60 56 211 215
f 58 52 207 212
g Group17569
f 56 60 52 58
g Group32941
f 213 214 217 216
g Group32944
f 62 57 213 216
f 55 61 217 214
g Group17569
f 57 62 61 55
g Group32941
f 214 211 219 218
g Group32944
f 64 55 214 218
f 56 63 219 211
g Group17569
f 55 64 63 56
g Group32941
f 212 213 220 206
g Group32944
f 49 58 212 206
f 57 59 220 213
g Group17569
f 58 49 59 57
g Group32941
f 224 223 222 221
g Group17569
f 65 66 68 67
g Group32941
f 221 222 225 168
g Group32944
f 11 66 221 168
f 68 69 225 222
g Group17569
f 66 11 69 68
g Group32941
f 223 224 226 208
g Group32944
f 51 67 223 208
f 65 71 226 224
g Group17569
f 67 51 71 65
g Group32941
f 224 221 163 227
g Group32944
f 73 65 224 227
f 66 8 163 221
g Group17569
f 65 73 8 66
g Group32941
f 222 223 203 228
g Group32944
f 75 68 222 228
f 67 48 203 223
g Group17569
f 68 75 48 67
g Group32941
f 232 231 230 229
g Group17569
f 76 77 79 78
g Group32941
f 229 230 227 178
g Group32944
f 17 77 229 178
f 79 73 227 230
g Group17569
f 77 17 73 79
g Group32941
f 231 232 233 219
g Group32944
f 63 78 231 219
f 76 74 233 232
g Group17569
f 78 63 74 76
g Group32941
f 232 229 174 234
g Group32944
f 80 76 232 234
f 77 20 174 229
g Group17569
f 76 80 20 77
g Group32941
f 230 231 215 226
g Group32944
f 71 79 230 226
f 78 60 215 231
g Group17569
f 79 71 60 78
g Group32941
f 226 215 207 208
g Group17569
f 71 51 52 60
g Group32941
f 206 220 235 205
g Group32944
f 70 50 205 235
f 59 70 235 220
g Group17569
f 49 50 70 59
g Group32941
f 228 203 204 236
g Group32944
f 72 75 228 236
f 47 72 236 204
g Group17569
f 75 72 47 48
g Group32941
f 164 178 227 163
g Group17569
f 7 8 73 17
g Group32941
f 167 168 225 237
g Group32944
f 81 12 167 237
f 69 81 237 225
g Group17569
f 12 81 69 11
g Group32941
f 241 240 239 238
g Group17569
f 82 83 85 84
g Group32941
f 238 239 176 242
g Group32944
f 87 83 238 242
f 85 22 176 239
g Group17569
f 83 87 22 85
g Group32941
f 240 241 244 243
g Group32944
f 89 84 240 243
f 82 88 244 241
g Group17569
f 84 89 88 82
g Group32941
f 241 238 246 245
g Group32944
f 91 82 241 245
f 83 90 246 238
g Group17569
f 82 91 90 83
g Group32941
f 239 240 247 175
g Group32944
f 19 85 239 175
f 84 92 247 240
g Group17569
f 85 19 92 84
g Group32941
f 251 250 249 248
g Group17569
f 94 95 97 96
g Group32941
f 248 249 245 252
g Group32944
f 99 95 248 252
f 97 91 245 249
g Group17569
f 95 99 91 97
g Group32941
f 250 251 254 253
g Group32944
f 101 96 250 253
f 94 100 254 251
g Group17569
f 96 101 100 94
g Group32941
f 251 248 256 255
g Group32944
f 103 94 251 255
f 95 102 256 248
g Group17569
f 94 103 102 95
g Group32941
f 249 250 257 244
g Group32944
f 88 97 249 244
f 96 98 257 250
g Group17569
f 97 88 98 96
g Group32941
f 261 260 259 258
g Group17569
f 104 105 107 106
g Group32941
f 258 259 195 262
g Group32944
f 109 105 258 262
f 107 39 195 259
g Group17569
f 105 109 39 107
g Group32941
f 260 261 263 246
g Group32944
f 90 106 260 246
f 104 110 263 261
g Group17569
f 106 90 110 104
g Group32941
f 261 258 265 264
g Group32944
f 113 104 261 264
f 105 112 265 258
g Group17569
f 104 113 112 105
g Group32941
f 259 260 242 194
g Group32944
f 33 107 259 194
f 106 87 242 260
g Group17569
f 107 33 87 106
g Group32941
f 269 268 267 266
g Group17569
f 116 117 119 118
g Group32941
f 266 267 264 270
g Group32944
f 121 117 266 270
f 119 113 264 267
g Group17569
f 117 121 113 119
g Group32941
f 268 269 271 256
g Group32944
f 102 118 268 256
f 116 114 271 269
g Group17569
f 118 102 114 116
g Group32941
f 269 266 273 272
g Group32944
f 120 116 269 272
f 111 120 272 273
f 117 111 273 266
g Group17569
f 116 120 111 117
g Group32941
f 267 268 252 263
g Group32944
f 110 119 267 263
f 118 99 252 268
g Group17569
f 119 110 99 118
g Group32941
f 263 252 245 246
g Group17569
f 110 90 91 99
g Group32941
f 270 264 265 274
g Group32944
f 122 121 270 274
f 112 122 274 265
g Group17569
f 121 122 112 113
g Group32941
f 256 271 275 255
g Group32944
f 123 103 255 275
f 114 123 275 271
g Group17569
f 102 103 123 114
g Group32941
f 279 278 277 276
g Group17569
f 124 125 127 126
g Group32941
f 276 277 218 280
g Group32944
f 129 125 276 280
f 127 64 218 277
g Group17569
f 125 129 64 127
g Group32941
f 278 279 282 281
g Group32944
f 131 126 278 281
f 124 130 282 279
g Group17569
f 126 131 130 124
g Group32941
f 279 276 284 283
g Group32944
f 133 124 279 283
f 125 132 284 276
g Group17569
f 124 133 132 125
g Group32941
f 277 278 285 217
g Group32944
f 61 127 277 217
f 126 134 285 278
g Group17569
f 127 61 134 126
g Group32941
f 289 288 287 286
g Group17569
f 136 137 139 138
g Group32941
f 286 287 283 290
g Group32944
f 141 137 286 290
f 139 133 283 287
g Group17569
f 137 141 133 139
g Group32941
f 288 289 292 291
g Group32944
f 143 138 288 291
f 142 143 291 292
f 136 142 292 289
g Group17569
f 138 143 142 136
g Group32941
f 289 286 294 293
g Group32944
f 145 136 289 293
f 137 144 294 286
g Group17569
f 136 145 144 137
g Group32941
f 287 288 295 282
g Group32944
f 130 139 287 282
f 138 140 295 288
g Group17569
f 139 130 140 138
g Group32941
f 299 298 297 296
g Group17569
f 146 147 149 148
g Group32941
f 296 297 234 247
g Group32944
f 92 147 296 247
f 149 80 234 297
g Group17569
f 147 92 80 149
g Group32941
f 298 299 300 284
g Group32944
f 132 148 298 284
f 146 152 300 299
g Group17569
f 148 132 152 146
g Group32941
f 299 296 243 301
g Group32944
f 154 146 299 301
f 147 89 243 296
g Group17569
f 146 154 89 147
g Group32941
f 297 298 280 233
g Group32944
f 74 149 297 233
f 148 129 280 298
g Group17569
f 149 74 129 148
g Group32941
f 305 304 303 302
g Group17569
f 128 135 93 150
g Group32941
f 302 303 301 257
g Group32944
f 98 135 302 257
f 93 154 301 303
g Group17569
f 135 98 154 93
g Group32941
f 304 305 306 294
g Group32944
f 144 150 304 294
f 128 108 306 305
g Group17569
f 150 144 108 128
g Group32941
f 305 302 253 307
g Group32944
f 115 128 305 307
f 135 101 253 302
g Group17569
f 128 115 101 135
g Group32941
f 303 304 290 300
g Group32944
f 152 93 303 300
f 150 141 290 304
g Group17569
f 93 152 141 150
g Group32941
f 300 290 283 284
g Group17569
f 152 132 133 141
g Group32941
f 282 295 308 281
g Group32944
f 151 131 281 308
f 140 151 308 295
g Group17569
f 130 131 151 140
g Group32941
f 294 306 309 293
g Group32944
f 153 145 293 309
f 108 153 309 306
g Group17569
f 144 145 153 108
g Group32941
f 244 257 301 243
g Group17569
f 88 89 154 98
g Group32941
f 253 254 310 307
g Group32944
f 86 115 307 310
f 100 86 310 254
g Group17569
f 101 115 86 100
g Group32941
f 262 195 196 311
g Group32944
f 155 109 262 311
f 30 155 311 196
g Group17569
f 109 155 30 39
g Group32941
f 242 176 177 194
g Group17569
f 87 33 21 22
g Group32941
f 247 234 174 175
g Group17569
f 92 19 20 80
g Group32941
f 280 218 219 233
g Group17569
f 129 74 63 64
g Group32941
f 217 285 312 216
g Group32944
f 156 62 216 312
f 134 156 312 285
g Group17569
f 61 62 156 134

 