# File exported by ZBrush version 2021
# www.zbrush.com
#Vertex Count 800
#Face Count 960
#Auto scale x=1.000000 y=1.000000 z=1.000000
#Auto offset x=0.000000 y=0.000000 z=0.000000
v -2.4425435 -2.09879851 0.203305
v -2.45115947 2.0979464 0.21191701
v 2.44254446 -2.09879851 0.203305
v 2.45115947 2.0979464 0.21191701
v -2.1788094 2.0979464 0.21191701
v -2.17114949 -2.09879851 0.203305
v 2.1788094 2.0979464 0.21191701
v 2.17115163 -2.09879851 0.203305
v -2.17838358 1.86479342 0.21143901
v -2.45068049 1.86479342 0.21143901
v 2.17838358 1.86479342 0.21143901
v 2.45068144 1.86479342 0.21143901
v -2.1715765 -1.8656466 0.203783
v -2.44302249 -1.8656466 0.203783
v 2.1715765 -1.8656466 0.203783
v 2.44302249 -1.8656466 0.203783
v -1.92210352 1.86479342 0.21143901
v -1.92247748 2.0979464 0.21191701
v -1.66582143 1.86479342 0.21143901
v -1.66614842 2.0979464 0.21191701
v -1.40954244 1.86479342 0.21143901
v -1.4098165 2.0979464 0.21191701
v -1.15326249 1.86479342 0.21143901
v -1.15348744 2.0979464 0.21191701
v -0.89698046 1.86479342 0.21143901
v -0.89715647 2.0979464 0.21191701
v -0.64070147 1.86479342 0.21143901
v -0.64082545 2.0979464 0.21191701
v -0.38442146 1.86479342 0.21143901
v -0.38449546 2.0979464 0.21191701
v -0.12813948 1.86479342 0.21143901
v -0.12816447 2.0979464 0.21191701
v 0.12813952 1.86479342 0.21143901
v 0.12816453 2.0979464 0.21191701
v 0.38442152 1.86479342 0.21143901
v 0.38449651 2.0979464 0.21191701
v 0.64070153 1.86479342 0.21143901
v 0.64082753 2.0979464 0.21191701
v 0.89698052 1.86479342 0.21143901
v 0.89715653 2.0979464 0.21191701
v 1.15326249 1.86479342 0.21143901
v 1.15348851 2.0979464 0.21191701
v 1.40954256 1.86479342 0.21143901
v 1.40981757 2.0979464 0.21191701
v 1.66582155 1.86479342 0.21143901
v 1.66614854 2.0979464 0.21191701
v 1.92210352 1.86479342 0.21143901
v 1.92247855 2.0979464 0.21191701
v 2.44347453 -1.64621055 0.204234
v 2.17197847 -1.64621055 0.204234
v 2.44392347 -1.42677056 0.204684
v 2.17237758 -1.42677056 0.204684
v 2.44437551 -1.20733356 0.205133
v 2.17277741 -1.20733356 0.205133
v 2.4448266 -0.98789656 0.205584
v 2.17317962 -0.98789656 0.205584
v 2.44527459 -0.76845759 0.206034
v 2.17357754 -0.76845759 0.206034
v 2.44572544 -0.5490216 0.206485
v 2.17397952 -0.5490216 0.206485
v 2.44617557 -0.32958456 0.20693601
v 2.17438054 -0.32958456 0.20693601
v 2.44662761 -0.11014557 0.20738701
v 2.17477941 -0.11014557 0.20738701
v 2.44707751 0.10929141 0.207835
v 2.17518043 0.10929141 0.207835
v 2.4475286 0.32873043 0.208286
v 2.17557954 0.32873043 0.208286
v 2.44798064 0.5481674 0.20873701
v 2.17598056 0.5481674 0.20873701
v 2.44842958 0.76760441 0.20918801
v 2.17638158 0.76760441 0.20918801
v 2.44887948 0.98704344 0.20963801
v 2.17678141 0.98704344 0.20963801
v 2.44932961 1.20648038 0.21008901
v 2.17718148 1.20648038 0.21008901
v 2.44978046 1.42591643 0.21053801
v 2.17758345 1.42591643 0.21053801
v 2.45023059 1.64535546 0.21098801
v 2.17798256 1.64535546 0.21098801
v 1.91609752 -1.8656466 0.203783
v 1.91572058 -2.09879851 0.203305
v 1.66061747 -1.8656466 0.203783
v 1.66029048 -2.09879851 0.203305
v 1.40513849 -1.8656466 0.203783
v 1.40486347 -2.09879851 0.203305
v 1.14965951 -1.8656466 0.203783
v 1.14943349 -2.09879851 0.203305
v 0.89417952 -1.8656466 0.203783
v 0.89400351 -2.09879851 0.203305
v 0.63869953 -1.8656466 0.203783
v 0.63857352 -2.09879851 0.203305
v 0.38322052 -1.8656466 0.203783
v 0.38314351 -2.09879851 0.203305
v 0.12774153 -1.8656466 0.203783
v 0.12771351 -2.09879851 0.203305
v -0.12774047 -1.8656466 0.203783
v -0.12771347 -2.09879851 0.203305
v -0.38322046 -1.8656466 0.203783
v -0.38314348 -2.09879851 0.203305
v -0.63869947 -1.8656466 0.203783
v -0.63857346 -2.09879851 0.203305
v -0.89417946 -1.8656466 0.203783
v -0.89400345 -2.09879851 0.203305
v -1.14965844 -1.8656466 0.203783
v -1.14943349 -2.09879851 0.203305
v -1.40513849 -1.8656466 0.203783
v -1.40486347 -2.09879851 0.203305
v -1.66061747 -1.8656466 0.203783
v -1.66029048 -2.09879851 0.203305
v -1.91609644 -1.8656466 0.203783
v -1.91572046 -2.09879851 0.203305
v -2.17197752 -1.64621055 0.204234
v -2.44347357 -1.64621055 0.204234
v -2.17237639 -1.42677056 0.204684
v -2.44392347 -1.42677056 0.204684
v -2.17277836 -1.20733356 0.205133
v -2.44437456 -1.20733356 0.205133
v -2.17317843 -0.98789656 0.205584
v -2.44482255 -0.98789656 0.205584
v -2.17357754 -0.76845759 0.206034
v -2.44527459 -0.76845759 0.206034
v -2.17397856 -0.5490216 0.206485
v -2.44572544 -0.5490216 0.206485
v -2.17437839 -0.32958456 0.20693601
v -2.44617557 -0.32958456 0.20693601
v -2.17477941 -0.11014557 0.20738701
v -2.44662642 -0.11014557 0.20738701
v -2.17518043 0.10929141 0.207835
v -2.44707751 0.10929141 0.207835
v -2.17557954 0.32873043 0.208286
v -2.44752836 0.32873043 0.208286
v -2.17598056 0.5481674 0.20873701
v -2.44797849 0.5481674 0.20873701
v -2.17638158 0.76760441 0.20918801
v -2.44842958 0.76760441 0.20918801
v -2.1767795 0.98704344 0.20963801
v -2.44887852 0.98704344 0.20963801
v -2.17718148 1.20648038 0.21008901
v -2.44932842 1.20648038 0.21008901
v -2.17758345 1.42591643 0.21053801
v -2.44978046 1.42591643 0.21053801
v -2.17798137 1.64535546 0.21098801
v -2.45023036 1.64535546 0.21098801
v 1.66551446 1.64535546 0.21098801
v 1.92174947 1.64535546 0.21098801
v 1.66520953 1.42591643 0.21053801
v 1.92139852 1.42591643 0.21053801
v 1.66490256 1.20648038 0.21008901
v 1.92104351 1.20648038 0.21008901
v 1.66459846 0.98704344 0.20963801
v 1.92068946 0.98704344 0.20963801
v 1.6642915 0.76760441 0.20918801
v 1.92033755 0.76760441 0.20918801
v 1.66398656 0.5481674 0.20873701
v 1.9199835 0.5481674 0.20873701
v 1.66367852 0.32873043 0.208286
v 1.91963255 0.32873043 0.208286
v 1.66337156 0.10929141 0.207835
v 1.91927754 0.10929141 0.207835
v 1.66306757 -0.11014557 0.20738701
v 1.91892349 -0.11014557 0.20738701
v 1.66276049 -0.32958456 0.20693601
v 1.91857147 -0.32958456 0.20693601
v 1.66245555 -0.5490216 0.206485
v 1.91821849 -0.5490216 0.206485
v 1.66214847 -0.76845759 0.206034
v 1.91786348 -0.76845759 0.206034
v 1.66184151 -0.98789656 0.205584
v 1.91751158 -0.98789656 0.205584
v 1.66153657 -1.20733356 0.205133
v 1.91715753 -1.20733356 0.205133
v 1.66122949 -1.42677056 0.204684
v 1.91680252 -1.42677056 0.204684
v 1.6609255 -1.64621055 0.204234
v 1.91645157 -1.64621055 0.204234
v 1.15304946 1.64535546 0.21098801
v 1.40928256 1.64535546 0.21098801
v 1.15283954 1.42591643 0.21053801
v 1.40902447 1.42591643 0.21053801
v 1.15262651 1.20648038 0.21008901
v 1.40876448 1.20648038 0.21008901
v 1.15241551 0.98704344 0.20963801
v 1.40850746 0.98704344 0.20963801
v 1.15220248 0.76760441 0.20918801
v 1.40824651 0.76760441 0.20918801
v 1.15198957 0.5481674 0.20873701
v 1.4079895 0.5481674 0.20873701
v 1.15177953 0.32873043 0.208286
v 1.4077295 0.32873043 0.208286
v 1.1515665 0.10929141 0.207835
v 1.40746855 0.10929141 0.207835
v 1.1513555 -0.11014557 0.20738701
v 1.40721154 -0.11014557 0.20738701
v 1.15114247 -0.32958456 0.20693601
v 1.40695154 -0.32958456 0.20693601
v 1.15093255 -0.5490216 0.206485
v 1.40669357 -0.5490216 0.206485
v 1.15071952 -0.76845759 0.206034
v 1.40643358 -0.76845759 0.206034
v 1.15050649 -0.98789656 0.205584
v 1.40617346 -0.98789656 0.205584
v 1.15029549 -1.20733356 0.205133
v 1.40591549 -1.20733356 0.205133
v 1.15008246 -1.42677056 0.204684
v 1.40565657 -1.42677056 0.204684
v 1.14987146 -1.64621055 0.204234
v 1.40539848 -1.64621055 0.204234
v 0.6405825 1.64535546 0.21098801
v 0.8968175 1.64535546 0.21098801
v 0.64046651 1.42591643 0.21053801
v 0.8966515 1.42591643 0.21053801
v 0.64034754 1.20648038 0.21008901
v 0.8964855 1.20648038 0.21008901
v 0.64023053 0.98704344 0.20963801
v 0.89632153 0.98704344 0.20963801
v 0.6401115 0.76760441 0.20918801
v 0.89615654 0.76760441 0.20918801
v 0.63999551 0.5481674 0.20873701
v 0.89599251 0.5481674 0.20873701
v 0.63987654 0.32873043 0.208286
v 0.89582651 0.32873043 0.208286
v 0.63976049 0.10929141 0.207835
v 0.8956635 0.10929141 0.207835
v 0.63964152 -0.11014557 0.20738701
v 0.8954975 -0.11014557 0.20738701
v 0.63952451 -0.32958456 0.20693601
v 0.89533352 -0.32958456 0.20693601
v 0.63940554 -0.5490216 0.206485
v 0.89516753 -0.5490216 0.206485
v 0.63928949 -0.76845759 0.206034
v 0.89500451 -0.76845759 0.206034
v 0.63917052 -0.98789656 0.205584
v 0.89483851 -0.98789656 0.205584
v 0.63905453 -1.20733356 0.205133
v 0.89467555 -1.20733356 0.205133
v 0.6389355 -1.42677056 0.204684
v 0.89450854 -1.42677056 0.204684
v 0.6388185 -1.64621055 0.204234
v 0.89434552 -1.64621055 0.204234
v 0.12811751 1.64535546 0.21098801
v 0.38434952 1.64535546 0.21098801
v 0.12809252 1.42591643 0.21053801
v 0.38428053 1.42591643 0.21053801
v 0.12807051 1.20648038 0.21008901
v 0.38420853 1.20648038 0.21008901
v 0.12804552 0.98704344 0.20963801
v 0.38413953 0.98704344 0.20963801
v 0.12802352 0.76760441 0.20918801
v 0.38406753 0.76760441 0.20918801
v 0.12799851 0.5481674 0.20873701
v 0.38399851 0.5481674 0.20873701
v 0.12797652 0.32873043 0.208286
v 0.38392651 0.32873043 0.208286
v 0.12795151 0.10929141 0.207835
v 0.38385751 0.10929141 0.207835
v 0.12792952 -0.11014557 0.20738701
v 0.38378551 -0.11014557 0.20738701
v 0.12790451 -0.32958456 0.20693601
v 0.38371551 -0.32958456 0.20693601
v 0.12788252 -0.5490216 0.206485
v 0.38364452 -0.5490216 0.206485
v 0.12785752 -0.76845759 0.206034
v 0.38357451 -0.76845759 0.206034
v 0.12783552 -0.98789656 0.205584
v 0.38350251 -0.98789656 0.205584
v 0.12781052 -1.20733356 0.205133
v 0.38343352 -1.20733356 0.205133
v 0.12778852 -1.42677056 0.204684
v 0.38336151 -1.42677056 0.204684
v 0.12776352 -1.64621055 0.204234
v 0.38329252 -1.64621055 0.204234
v -0.38434946 1.64535546 0.21098801
v -0.12811747 1.64535546 0.21098801
v -0.38428047 1.42591643 0.21053801
v -0.12809248 1.42591643 0.21053801
v -0.38420847 1.20648038 0.21008901
v -0.12807047 1.20648038 0.21008901
v -0.38413947 0.98704344 0.20963801
v -0.12804547 0.98704344 0.20963801
v -0.38406747 0.76760441 0.20918801
v -0.12802347 0.76760441 0.20918801
v -0.38399848 0.5481674 0.20873701
v -0.12799847 0.5481674 0.20873701
v -0.38392648 0.32873043 0.208286
v -0.12797647 0.32873043 0.208286
v -0.38385647 0.10929141 0.207835
v -0.12795147 0.10929141 0.207835
v -0.38378548 -0.11014557 0.20738701
v -0.12792947 -0.11014557 0.20738701
v -0.38371548 -0.32958456 0.20693601
v -0.12790447 -0.32958456 0.20693601
v -0.38364347 -0.5490216 0.206485
v -0.12788248 -0.5490216 0.206485
v -0.38357448 -0.76845759 0.206034
v -0.12785747 -0.76845759 0.206034
v -0.38350248 -0.98789656 0.205584
v -0.12783448 -0.98789656 0.205584
v -0.38343349 -1.20733356 0.205133
v -0.12781047 -1.20733356 0.205133
v -0.38336148 -1.42677056 0.204684
v -0.12778747 -1.42677056 0.204684
v -0.38329246 -1.64621055 0.204234
v -0.12776348 -1.64621055 0.204234
v -0.89681446 1.64535546 0.21098801
v -0.6405825 1.64535546 0.21098801
v -0.8966515 1.42591643 0.21053801
v -0.64046549 1.42591643 0.21053801
v -0.89648544 1.20648038 0.21008901
v -0.64034748 1.20648038 0.21008901
v -0.89632147 0.98704344 0.20963801
v -0.64023047 0.98704344 0.20963801
v -0.89615547 0.76760441 0.20918801
v -0.6401115 0.76760441 0.20918801
v -0.89599245 0.5481674 0.20873701
v -0.63999545 0.5481674 0.20873701
v -0.89582645 0.32873043 0.208286
v -0.63987648 0.32873043 0.208286
v -0.8956635 0.10929141 0.207835
v -0.63975948 0.10929141 0.207835
v -0.8954975 -0.11014557 0.20738701
v -0.63964045 -0.11014557 0.20738701
v -0.89533346 -0.32958456 0.20693601
v -0.63952446 -0.32958456 0.20693601
v -0.89516747 -0.5490216 0.206485
v -0.63940548 -0.5490216 0.206485
v -0.89500349 -0.76845759 0.206034
v -0.63928949 -0.76845759 0.206034
v -0.89483749 -0.98789656 0.205584
v -0.63917046 -0.98789656 0.205584
v -0.89467448 -1.20733356 0.205133
v -0.63905346 -1.20733356 0.205133
v -0.89450848 -1.42677056 0.204684
v -0.63893449 -1.42677056 0.204684
v -0.89434546 -1.64621055 0.204234
v -0.6388185 -1.64621055 0.204234
v -1.40928244 1.64535546 0.21098801
v -1.15304946 1.64535546 0.21098801
v -1.40902447 1.42591643 0.21053801
v -1.15283942 1.42591643 0.21053801
v -1.40876448 1.20648038 0.21008901
v -1.15262544 1.20648038 0.21008901
v -1.40850651 0.98704344 0.20963801
v -1.15241551 0.98704344 0.20963801
v -1.40824651 0.76760441 0.20918801
v -1.15220248 0.76760441 0.20918801
v -1.40798652 0.5481674 0.20873701
v -1.15198946 0.5481674 0.20873701
v -1.40772843 0.32873043 0.208286
v -1.15177953 0.32873043 0.208286
v -1.40746843 0.10929141 0.207835
v -1.15156543 0.10929141 0.207835
v -1.40721142 -0.11014557 0.20738701
v -1.1513555 -0.11014557 0.20738701
v -1.40695142 -0.32958456 0.20693601
v -1.15114247 -0.32958456 0.20693601
v -1.40669143 -0.5490216 0.206485
v -1.15092945 -0.5490216 0.206485
v -1.40643346 -0.76845759 0.206034
v -1.15071845 -0.76845759 0.206034
v -1.40617346 -0.98789656 0.205584
v -1.15050542 -0.98789656 0.205584
v -1.40591549 -1.20733356 0.205133
v -1.15029549 -1.20733356 0.205133
v -1.4056555 -1.42677056 0.204684
v -1.15008246 -1.42677056 0.204684
v -1.40539848 -1.64621055 0.204234
v -1.14987146 -1.64621055 0.204234
v -1.92174851 1.64535546 0.21098801
v -1.66551446 1.64535546 0.21098801
v -1.92139852 1.42591643 0.21053801
v -1.66520953 1.42591643 0.21053801
v -1.92104244 1.20648038 0.21008901
v -1.66490244 1.20648038 0.21008901
v -1.92068946 0.98704344 0.20963801
v -1.66459751 0.98704344 0.20963801
v -1.92033743 0.76760441 0.20918801
v -1.66429042 0.76760441 0.20918801
v -1.91998243 0.5481674 0.20873701
v -1.66398346 0.5481674 0.20873701
v -1.91962945 0.32873043 0.208286
v -1.66367852 0.32873043 0.208286
v -1.91927743 0.10929141 0.207835
v -1.66337144 0.10929141 0.207835
v -1.91892349 -0.11014557 0.20738701
v -1.6630665 -0.11014557 0.20738701
v -1.91856944 -0.32958456 0.20693601
v -1.66275942 -0.32958456 0.20693601
v -1.91821742 -0.5490216 0.206485
v -1.66245544 -0.5490216 0.206485
v -1.91786253 -0.76845759 0.206034
v -1.66214847 -0.76845759 0.206034
v -1.9175105 -0.98789656 0.205584
v -1.66184043 -0.98789656 0.205584
v -1.91715753 -1.20733356 0.205133
v -1.66153645 -1.20733356 0.205133
v -1.91680252 -1.42677056 0.204684
v -1.66122949 -1.42677056 0.204684
v -1.9164505 -1.64621055 0.204234
v -1.66092443 -1.64621055 0.204234
v 2.17115163 -2.09794664 -0.21191699
v 2.1715765 -1.86479461 -0.21143899
v 2.44302249 -1.86479461 -0.21143899
v 2.44254446 -2.09794664 -0.21191699
v -2.4425435 -2.09794664 -0.21191699
v -2.44302249 -1.86479461 -0.21143899
v -2.1715765 -1.86479461 -0.21143899
v -2.17114949 -2.09794664 -0.21191699
v -2.45068049 1.8656454 -0.20378299
v -2.45115947 2.09879851 -0.20330499
v -2.1788094 2.09879851 -0.20330499
v -2.17838358 1.8656454 -0.20378299
v 2.17838358 1.8656454 -0.20378299
v 2.1788094 2.09879851 -0.20330499
v 2.45115947 2.09879851 -0.20330499
v 2.45068144 1.8656454 -0.20378299
v -1.92247748 2.09879851 -0.20330499
v -1.92210352 1.8656454 -0.20378299
v -1.66614842 2.09879851 -0.20330499
v -1.66582143 1.8656454 -0.20378299
v -1.4098165 2.09879851 -0.20330499
v -1.40954244 1.8656454 -0.20378299
v -1.15348744 2.09879851 -0.20330499
v -1.15326249 1.8656454 -0.20378299
v -0.89715647 2.09879851 -0.20330499
v -0.89698046 1.8656454 -0.20378299
v -0.64082545 2.09879851 -0.20330499
v -0.64070147 1.8656454 -0.20378299
v -0.38449546 2.09879851 -0.20330499
v -0.38442146 1.8656454 -0.20378299
v -0.12816447 2.09879851 -0.20330499
v -0.12813948 1.8656454 -0.20378299
v 0.12816453 2.09879851 -0.20330499
v 0.12813952 1.8656454 -0.20378299
v 0.38449651 2.09879851 -0.20330499
v 0.38442152 1.8656454 -0.20378299
v 0.64082753 2.09879851 -0.20330499
v 0.64070153 1.8656454 -0.20378299
v 0.89715653 2.09879851 -0.20330499
v 0.89698052 1.8656454 -0.20378299
v 1.15348851 2.09879851 -0.20330499
v 1.15326249 1.8656454 -0.20378299
v 1.40981757 2.09879851 -0.20330499
v 1.40954256 1.8656454 -0.20378299
v 1.66614854 2.09879851 -0.20330499
v 1.66582155 1.8656454 -0.20378299
v 1.92247855 2.09879851 -0.20330499
v 1.92210352 1.8656454 -0.20378299
v 2.17197847 -1.6453576 -0.210988
v 2.44347453 -1.6453576 -0.210988
v 2.17237758 -1.42591857 -0.210537
v 2.44392347 -1.42591953 -0.210537
v 2.17277741 -1.20648253 -0.21008898
v 2.44437551 -1.20648253 -0.21008898
v 2.17317962 -0.98704356 -0.20963798
v 2.4448266 -0.98704356 -0.20963798
v 2.17357754 -0.76760458 -0.20918698
v 2.44527459 -0.76760458 -0.20918698
v 2.17397952 -0.5481686 -0.208737
v 2.44572544 -0.5481686 -0.208737
v 2.17438054 -0.32873156 -0.208286
v 2.44617557 -0.32873156 -0.208286
v 2.17477941 -0.10929358 -0.207835
v 2.44662761 -0.10929457 -0.207835
v 2.17518043 0.11014342 -0.20738698
v 2.44707751 0.11014242 -0.20738698
v 2.17557954 0.32958343 -0.20693598
v 2.4475286 0.32958343 -0.20693598
v 2.17598056 0.54902041 -0.20648498
v 2.44798064 0.54902041 -0.20648498
v 2.17638158 0.76845741 -0.20603399
v 2.44842958 0.76845741 -0.20603399
v 2.17678141 0.98789644 -0.20558299
v 2.44887948 0.98789644 -0.20558299
v 2.17718148 1.20733141 -0.20513297
v 2.44932961 1.20733046 -0.20513297
v 2.17758345 1.42676842 -0.204684
v 2.44978046 1.42676746 -0.204684
v 2.17798256 1.64620947 -0.20423297
v 2.45023059 1.64620947 -0.20423297
v 1.91572058 -2.09794664 -0.21191699
v 1.91609752 -1.86479461 -0.21143899
v 1.66029048 -2.09794664 -0.21191699
v 1.66061747 -1.86479461 -0.21143899
v 1.40486347 -2.09794664 -0.21191699
v 1.40513849 -1.86479461 -0.21143899
v 1.14943349 -2.09794664 -0.21191699
v 1.14965951 -1.86479461 -0.21143899
v 0.89400351 -2.09794664 -0.21191699
v 0.89417952 -1.86479461 -0.21143899
v 0.63857352 -2.09794664 -0.21191699
v 0.63869953 -1.86479461 -0.21143899
v 0.38314351 -2.09794664 -0.21191699
v 0.38322052 -1.86479461 -0.21143899
v 0.12771351 -2.09794664 -0.21191699
v 0.12774153 -1.86479461 -0.21143899
v -0.12771347 -2.09794664 -0.21191699
v -0.12774047 -1.86479461 -0.21143899
v -0.38314348 -2.09794664 -0.21191699
v -0.38322046 -1.86479461 -0.21143899
v -0.63857346 -2.09794664 -0.21191699
v -0.63869947 -1.86479461 -0.21143899
v -0.89400345 -2.09794664 -0.21191699
v -0.89417946 -1.86479461 -0.21143899
v -1.14943349 -2.09794664 -0.21191699
v -1.14965844 -1.86479461 -0.21143899
v -1.40486347 -2.09794664 -0.21191699
v -1.40513849 -1.86479461 -0.21143899
v -1.66029048 -2.09794664 -0.21191699
v -1.66061747 -1.86479461 -0.21143899
v -1.91572046 -2.09794664 -0.21191699
v -1.91609644 -1.86479461 -0.21143899
v -2.44347357 -1.6453576 -0.210988
v -2.17197752 -1.6453576 -0.210988
v -2.44392347 -1.42591953 -0.210537
v -2.17237639 -1.42591857 -0.210537
v -2.44437456 -1.20648253 -0.21008898
v -2.17277836 -1.20648253 -0.21008898
v -2.44482255 -0.98704356 -0.20963798
v -2.17317843 -0.98704356 -0.20963798
v -2.44527459 -0.76760458 -0.20918698
v -2.17357754 -0.76760458 -0.20918698
v -2.44572544 -0.5481686 -0.208737
v -2.17397856 -0.5481686 -0.208737
v -2.44617557 -0.32873156 -0.208286
v -2.17437839 -0.32873156 -0.208286
v -2.44662642 -0.10929457 -0.207835
v -2.17477941 -0.10929358 -0.207835
v -2.44707751 0.11014242 -0.20738698
v -2.17518043 0.11014342 -0.20738698
v -2.44752836 0.32958343 -0.20693598
v -2.17557954 0.32958343 -0.20693598
v -2.44797849 0.54902041 -0.20648498
v -2.17598056 0.54902041 -0.20648498
v -2.44842958 0.76845741 -0.20603399
v -2.17638158 0.76845741 -0.20603399
v -2.44887852 0.98789644 -0.20558299
v -2.1767795 0.98789644 -0.20558299
v -2.44932842 1.20733046 -0.20513297
v -2.17718148 1.20733141 -0.20513297
v -2.44978046 1.42676746 -0.204684
v -2.17758345 1.42676842 -0.204684
v -2.45023036 1.64620947 -0.20423297
v -2.17798137 1.64620947 -0.20423297
v 1.92174947 1.64620947 -0.20423297
v 1.66551446 1.64620947 -0.20423297
v 1.92139852 1.42676842 -0.204684
v 1.66520953 1.42676842 -0.204684
v 1.92104351 1.20733141 -0.20513297
v 1.66490256 1.20733141 -0.20513297
v 1.92068946 0.98789644 -0.20558299
v 1.66459846 0.98789644 -0.20558299
v 1.92033755 0.76845741 -0.20603399
v 1.6642915 0.76845741 -0.20603399
v 1.9199835 0.54902041 -0.20648498
v 1.66398656 0.54902041 -0.20648498
v 1.91963255 0.32958343 -0.20693598
v 1.66367852 0.32958343 -0.20693598
v 1.91927754 0.11014342 -0.20738698
v 1.66337156 0.11014342 -0.20738698
v 1.91892349 -0.10929358 -0.207835
v 1.66306757 -0.10929358 -0.207835
v 1.91857147 -0.32873156 -0.208286
v 1.66276049 -0.32873156 -0.208286
v 1.91821849 -0.5481686 -0.208737
v 1.66245555 -0.5481686 -0.208737
v 1.91786348 -0.76760458 -0.20918698
v 1.66214847 -0.76760458 -0.20918698
v 1.91751158 -0.98704356 -0.20963798
v 1.66184151 -0.98704356 -0.20963798
v 1.91715753 -1.20648253 -0.21008898
v 1.66153657 -1.20648253 -0.21008898
v 1.91680252 -1.42591857 -0.210537
v 1.66122949 -1.42591857 -0.210537
v 1.91645157 -1.6453576 -0.210988
v 1.6609255 -1.6453576 -0.210988
v 1.40928256 1.64620947 -0.20423297
v 1.15304946 1.64620947 -0.20423297
v 1.40902447 1.42676842 -0.204684
v 1.15283954 1.42676842 -0.204684
v 1.40876448 1.20733141 -0.20513297
v 1.15262651 1.20733141 -0.20513297
v 1.40850746 0.98789644 -0.20558299
v 1.15241551 0.98789644 -0.20558299
v 1.40824651 0.76845741 -0.20603399
v 1.15220248 0.76845741 -0.20603399
v 1.4079895 0.54902041 -0.20648498
v 1.15198957 0.54902041 -0.20648498
v 1.4077295 0.32958343 -0.20693598
v 1.15177953 0.32958343 -0.20693598
v 1.40746855 0.11014342 -0.20738698
v 1.1515665 0.11014342 -0.20738698
v 1.40721154 -0.10929358 -0.207835
v 1.1513555 -0.10929358 -0.207835
v 1.40695154 -0.32873156 -0.208286
v 1.15114247 -0.32873156 -0.208286
v 1.40669357 -0.5481686 -0.208737
v 1.15093255 -0.5481686 -0.208737
v 1.40643358 -0.76760458 -0.20918698
v 1.15071952 -0.76760458 -0.20918698
v 1.40617346 -0.98704356 -0.20963798
v 1.15050649 -0.98704356 -0.20963798
v 1.40591549 -1.20648253 -0.21008898
v 1.15029549 -1.20648253 -0.21008898
v 1.40565657 -1.42591857 -0.210537
v 1.15008246 -1.42591857 -0.210537
v 1.40539848 -1.6453576 -0.210988
v 1.14987146 -1.6453576 -0.210988
v 0.8968175 1.64620947 -0.20423297
v 0.6405825 1.64620947 -0.20423297
v 0.8966515 1.42676842 -0.204684
v 0.64046651 1.42676842 -0.204684
v 0.8964855 1.20733141 -0.20513297
v 0.64034754 1.20733141 -0.20513297
v 0.89632153 0.98789644 -0.20558299
v 0.64023053 0.98789644 -0.20558299
v 0.89615654 0.76845741 -0.20603399
v 0.6401115 0.76845741 -0.20603399
v 0.89599251 0.54902041 -0.20648498
v 0.63999551 0.54902041 -0.20648498
v 0.89582651 0.32958343 -0.20693598
v 0.63987654 0.32958343 -0.20693598
v 0.8956635 0.11014342 -0.20738698
v 0.63976049 0.11014342 -0.20738698
v 0.8954975 -0.10929358 -0.207835
v 0.63964152 -0.10929358 -0.207835
v 0.89533352 -0.32873156 -0.208286
v 0.63952451 -0.32873156 -0.208286
v 0.89516753 -0.5481686 -0.208737
v 0.63940554 -0.5481686 -0.208737
v 0.89500451 -0.76760458 -0.20918698
v 0.63928949 -0.76760458 -0.20918698
v 0.89483851 -0.98704356 -0.20963798
v 0.63917052 -0.98704356 -0.20963798
v 0.89467555 -1.20648253 -0.21008898
v 0.63905453 -1.20648253 -0.21008898
v 0.89450854 -1.42591857 -0.210537
v 0.6389355 -1.42591857 -0.210537
v 0.89434552 -1.6453576 -0.210988
v 0.6388185 -1.6453576 -0.210988
v 0.38434952 1.64620947 -0.20423297
v 0.12811751 1.64620947 -0.20423297
v 0.38428053 1.42676842 -0.204684
v 0.12809252 1.42676842 -0.204684
v 0.38420853 1.20733141 -0.20513297
v 0.12807051 1.20733141 -0.20513297
v 0.38413953 0.98789644 -0.20558299
v 0.12804552 0.98789644 -0.20558299
v 0.38406753 0.76845741 -0.20603399
v 0.12802352 0.76845741 -0.20603399
v 0.38399851 0.54902041 -0.20648498
v 0.12799851 0.54902041 -0.20648498
v 0.38392651 0.32958343 -0.20693598
v 0.12797652 0.32958343 -0.20693598
v 0.38385751 0.11014342 -0.20738698
v 0.12795151 0.11014342 -0.20738698
v 0.38378551 -0.10929358 -0.207835
v 0.12792952 -0.10929358 -0.207835
v 0.38371551 -0.32873156 -0.208286
v 0.12790451 -0.32873156 -0.208286
v 0.38364452 -0.5481686 -0.208737
v 0.12788252 -0.5481686 -0.208737
v 0.38357451 -0.76760458 -0.20918698
v 0.12785752 -0.76760458 -0.20918698
v 0.38350251 -0.98704356 -0.20963798
v 0.12783552 -0.98704356 -0.20963798
v 0.38343352 -1.20648253 -0.21008898
v 0.12781052 -1.20648253 -0.21008898
v 0.38336151 -1.42591857 -0.210537
v 0.12778852 -1.42591857 -0.210537
v 0.38329252 -1.6453576 -0.210988
v 0.12776352 -1.6453576 -0.210988
v -0.12811747 1.64620947 -0.20423297
v -0.38434946 1.64620947 -0.20423297
v -0.12809248 1.42676842 -0.204684
v -0.38428047 1.42676842 -0.204684
v -0.12807047 1.20733141 -0.20513297
v -0.38420847 1.20733141 -0.20513297
v -0.12804547 0.98789644 -0.20558299
v -0.38413947 0.98789644 -0.20558299
v -0.12802347 0.76845741 -0.20603399
v -0.38406747 0.76845741 -0.20603399
v -0.12799847 0.54902041 -0.20648498
v -0.38399848 0.54902041 -0.20648498
v -0.12797647 0.32958343 -0.20693598
v -0.38392648 0.32958343 -0.20693598
v -0.12795147 0.11014342 -0.20738698
v -0.38385647 0.11014342 -0.20738698
v -0.12792947 -0.10929358 -0.207835
v -0.38378548 -0.10929358 -0.207835
v -0.12790447 -0.32873156 -0.208286
v -0.38371548 -0.32873156 -0.208286
v -0.12788248 -0.5481686 -0.208737
v -0.38364347 -0.5481686 -0.208737
v -0.12785747 -0.76760458 -0.20918698
v -0.38357448 -0.76760458 -0.20918698
v -0.12783448 -0.98704356 -0.20963798
v -0.38350248 -0.98704356 -0.20963798
v -0.12781047 -1.20648253 -0.21008898
v -0.38343349 -1.20648253 -0.21008898
v -0.12778747 -1.42591857 -0.210537
v -0.38336148 -1.42591857 -0.210537
v -0.12776348 -1.6453576 -0.210988
v -0.38329246 -1.6453576 -0.210988
v -0.6405825 1.64620947 -0.20423297
v -0.89681446 1.64620947 -0.20423297
v -0.64046549 1.42676842 -0.204684
v -0.8966515 1.42676842 -0.204684
v -0.64034748 1.20733141 -0.20513297
v -0.89648544 1.20733141 -0.20513297
v -0.64023047 0.98789644 -0.20558299
v -0.89632147 0.98789644 -0.20558299
v -0.6401115 0.76845741 -0.20603399
v -0.89615547 0.76845741 -0.20603399
v -0.63999545 0.54902041 -0.20648498
v -0.89599245 0.54902041 -0.20648498
v -0.63987648 0.32958343 -0.20693598
v -0.89582645 0.32958343 -0.20693598
v -0.63975948 0.11014342 -0.20738698
v -0.8956635 0.11014342 -0.20738698
v -0.63964045 -0.10929358 -0.207835
v -0.8954975 -0.10929358 -0.207835
v -0.63952446 -0.32873156 -0.208286
v -0.89533346 -0.32873156 -0.208286
v -0.63940548 -0.5481686 -0.208737
v -0.89516747 -0.5481686 -0.208737
v -0.63928949 -0.76760458 -0.20918698
v -0.89500349 -0.76760458 -0.20918698
v -0.63917046 -0.98704356 -0.20963798
v -0.89483749 -0.98704356 -0.20963798
v -0.63905346 -1.20648253 -0.21008898
v -0.89467448 -1.20648253 -0.21008898
v -0.63893449 -1.42591857 -0.210537
v -0.89450848 -1.42591857 -0.210537
v -0.6388185 -1.6453576 -0.210988
v -0.89434546 -1.6453576 -0.210988
v -1.15304946 1.64620947 -0.20423297
v -1.40928244 1.64620947 -0.20423297
v -1.15283942 1.42676842 -0.204684
v -1.40902447 1.42676842 -0.204684
v -1.15262544 1.20733141 -0.20513297
v -1.40876448 1.20733141 -0.20513297
v -1.15241551 0.98789644 -0.20558299
v -1.40850651 0.98789644 -0.20558299
v -1.15220248 0.76845741 -0.20603399
v -1.40824651 0.76845741 -0.20603399
v -1.15198946 0.54902041 -0.20648498
v -1.40798652 0.54902041 -0.20648498
v -1.15177953 0.32958343 -0.20693598
v -1.40772843 0.32958343 -0.20693598
v -1.15156543 0.11014342 -0.20738698
v -1.40746843 0.11014342 -0.20738698
v -1.1513555 -0.10929358 -0.207835
v -1.40721142 -0.10929358 -0.207835
v -1.15114247 -0.32873156 -0.208286
v -1.40695142 -0.32873156 -0.208286
v -1.15092945 -0.5481686 -0.208737
v -1.40669143 -0.5481686 -0.208737
v -1.15071845 -0.76760458 -0.20918698
v -1.40643346 -0.76760458 -0.20918698
v -1.15050542 -0.98704356 -0.20963798
v -1.40617346 -0.98704356 -0.20963798
v -1.15029549 -1.20648253 -0.21008898
v -1.40591549 -1.20648253 -0.21008898
v -1.15008246 -1.42591857 -0.210537
v -1.4056555 -1.42591857 -0.210537
v -1.14987146 -1.6453576 -0.210988
v -1.40539848 -1.6453576 -0.210988
v -1.66551446 1.64620947 -0.20423297
v -1.92174851 1.64620947 -0.20423297
v -1.66520953 1.42676842 -0.204684
v -1.92139852 1.42676842 -0.204684
v -1.66490244 1.20733141 -0.20513297
v -1.92104244 1.20733141 -0.20513297
v -1.66459751 0.98789644 -0.20558299
v -1.92068946 0.98789644 -0.20558299
v -1.66429042 0.76845741 -0.20603399
v -1.92033743 0.76845741 -0.20603399
v -1.66398346 0.54902041 -0.20648498
v -1.91998243 0.54902041 -0.20648498
v -1.66367852 0.32958343 -0.20693598
v -1.91962945 0.32958343 -0.20693598
v -1.66337144 0.11014342 -0.20738698
v -1.91927743 0.11014342 -0.20738698
v -1.6630665 -0.10929358 -0.207835
v -1.91892349 -0.10929358 -0.207835
v -1.66275942 -0.32873156 -0.208286
v -1.91856944 -0.32873156 -0.208286
v -1.66245544 -0.5481686 -0.208737
v -1.91821742 -0.5481686 -0.208737
v -1.66214847 -0.76760458 -0.20918698
v -1.91786253 -0.76760458 -0.20918698
v -1.66184043 -0.98704356 -0.20963798
v -1.9175105 -0.98704356 -0.20963798
v -1.66153645 -1.20648253 -0.21008898
v -1.91715753 -1.20648253 -0.21008898
v -1.66122949 -1.42591857 -0.210537
v -1.91680252 -1.42591857 -0.210537
v -1.66092443 -1.6453576 -0.210988
v -1.9164505 -1.6453576 -0.210988
g Group32941
f 404 403 402 401
g Group32944
f 8 3 404 401
f 3 16 403 404
g Group52438
f 3 8 15 16
g Group32941
f 408 407 406 405
g Group32944
f 1 6 408 405
f 14 1 405 406
g Group52438
f 6 1 14 13
g Group32941
f 412 411 410 409
g Group32944
f 2 10 409 410
f 5 2 410 411
g Group52438
f 9 10 2 5
g Group32941
f 416 415 414 413
g Group32944
f 4 7 414 415
f 12 4 415 416
g Group52438
f 12 11 7 4
g Group32941
f 412 418 417 411
g Group32944
f 18 5 411 417
f 9 17 418 412
g Group52438
f 9 5 18 17
g Group32941
f 418 420 419 417
g Group32944
f 20 18 417 419
g Group52438
f 17 18 20 19
g Group32941
f 420 422 421 419
g Group32944
f 22 20 419 421
f 19 21 422 420
g Group52438
f 19 20 22 21
g Group32941
f 422 424 423 421
g Group32944
f 24 22 421 423
g Group52438
f 21 22 24 23
g Group32941
f 424 426 425 423
g Group32944
f 26 24 423 425
f 23 25 426 424
g Group52438
f 23 24 26 25
g Group32941
f 426 428 427 425
g Group32944
f 28 26 425 427
g Group52438
f 25 26 28 27
g Group32941
f 428 430 429 427
g Group32944
f 30 28 427 429
f 27 29 430 428
g Group52438
f 27 28 30 29
g Group32941
f 430 432 431 429
g Group32944
f 32 30 429 431
g Group52438
f 29 30 32 31
g Group32941
f 432 434 433 431
g Group32944
f 34 32 431 433
f 31 33 434 432
g Group52438
f 31 32 34 33
g Group32941
f 434 436 435 433
g Group32944
f 36 34 433 435
g Group52438
f 33 34 36 35
g Group32941
f 436 438 437 435
g Group32944
f 38 36 435 437
f 35 37 438 436
g Group52438
f 35 36 38 37
g Group32941
f 438 440 439 437
g Group32944
f 40 38 437 439
g Group52438
f 37 38 40 39
g Group32941
f 440 442 441 439
g Group32944
f 42 40 439 441
f 39 41 442 440
g Group52438
f 39 40 42 41
g Group32941
f 442 444 443 441
g Group32944
f 44 42 441 443
g Group52438
f 41 42 44 43
g Group32941
f 444 446 445 443
g Group32944
f 46 44 443 445
f 43 45 446 444
g Group52438
f 43 44 46 45
g Group32941
f 446 448 447 445
g Group32944
f 48 46 445 447
g Group52438
f 45 46 48 47
g Group32941
f 448 413 414 447
g Group32944
f 7 48 447 414
f 47 11 413 448
g Group52438
f 47 48 7 11
g Group32941
f 403 450 449 402
g Group32944
f 50 15 402 449
f 16 49 450 403
g Group52438
f 16 15 50 49
g Group32941
f 450 452 451 449
g Group32944
f 49 51 452 450
g Group52438
f 49 50 52 51
g Group32941
f 452 454 453 451
g Group32944
f 54 52 451 453
f 51 53 454 452
g Group52438
f 51 52 54 53
g Group32941
f 454 456 455 453
g Group32944
f 53 55 456 454
g Group52438
f 53 54 56 55
g Group32941
f 456 458 457 455
g Group32944
f 58 56 455 457
f 55 57 458 456
g Group52438
f 55 56 58 57
g Group32941
f 458 460 459 457
g Group32944
f 57 59 460 458
g Group52438
f 57 58 60 59
g Group32941
f 460 462 461 459
g Group32944
f 62 60 459 461
f 59 61 462 460
g Group52438
f 59 60 62 61
g Group32941
f 462 464 463 461
g Group32944
f 61 63 464 462
g Group52438
f 61 62 64 63
g Group32941
f 464 466 465 463
g Group32944
f 66 64 463 465
f 63 65 466 464
g Group52438
f 63 64 66 65
g Group32941
f 466 468 467 465
g Group32944
f 65 67 468 466
g Group52438
f 65 66 68 67
g Group32941
f 468 470 469 467
g Group32944
f 70 68 467 469
f 67 69 470 468
g Group52438
f 67 68 70 69
g Group32941
f 470 472 471 469
g Group32944
f 69 71 472 470
g Group52438
f 69 70 72 71
g Group32941
f 472 474 473 471
g Group32944
f 74 72 471 473
f 71 73 474 472
g Group52438
f 71 72 74 73
g Group32941
f 474 476 475 473
g Group32944
f 73 75 476 474
g Group52438
f 73 74 76 75
g Group32941
f 476 478 477 475
g Group32944
f 78 76 475 477
f 75 77 478 476
g Group52438
f 75 76 78 77
g Group32941
f 478 480 479 477
g Group32944
f 77 79 480 478
g Group52438
f 77 78 80 79
g Group32941
f 480 416 413 479
g Group32944
f 11 80 479 413
f 79 12 416 480
g Group52438
f 79 80 11 12
g Group32941
f 402 482 481 401
g Group32944
f 82 8 401 481
f 15 81 482 402
g Group52438
f 15 8 82 81
g Group32941
f 482 484 483 481
g Group32944
f 84 82 481 483
g Group52438
f 81 82 84 83
g Group32941
f 484 486 485 483
g Group32944
f 86 84 483 485
f 83 85 486 484
g Group52438
f 83 84 86 85
g Group32941
f 486 488 487 485
g Group32944
f 88 86 485 487
g Group52438
f 85 86 88 87
g Group32941
f 488 490 489 487
g Group32944
f 90 88 487 489
f 87 89 490 488
g Group52438
f 87 88 90 89
g Group32941
f 490 492 491 489
g Group32944
f 92 90 489 491
g Group52438
f 89 90 92 91
g Group32941
f 492 494 493 491
g Group32944
f 94 92 491 493
f 91 93 494 492
g Group52438
f 91 92 94 93
g Group32941
f 494 496 495 493
g Group32944
f 96 94 493 495
g Group52438
f 93 94 96 95
g Group32941
f 496 498 497 495
g Group32944
f 98 96 495 497
f 95 97 498 496
g Group52438
f 95 96 98 97
g Group32941
f 498 500 499 497
g Group32944
f 100 98 497 499
g Group52438
f 97 98 100 99
g Group32941
f 500 502 501 499
g Group32944
f 102 100 499 501
f 99 101 502 500
g Group52438
f 99 100 102 101
g Group32941
f 502 504 503 501
g Group32944
f 104 102 501 503
g Group52438
f 101 102 104 103
g Group32941
f 504 506 505 503
g Group32944
f 106 104 503 505
f 103 105 506 504
g Group52438
f 103 104 106 105
g Group32941
f 506 508 507 505
g Group32944
f 108 106 505 507
g Group52438
f 105 106 108 107
g Group32941
f 508 510 509 507
g Group32944
f 110 108 507 509
f 107 109 510 508
g Group52438
f 107 108 110 109
g Group32941
f 510 512 511 509
g Group32944
f 112 110 509 511
g Group52438
f 109 110 112 111
g Group32941
f 512 407 408 511
g Group32944
f 6 112 511 408
f 111 13 407 512
g Group52438
f 111 112 6 13
g Group32941
f 407 514 513 406
g Group32944
f 114 14 406 513
f 13 113 514 407
g Group52438
f 13 14 114 113
g Group32941
f 514 516 515 513
g Group32944
f 116 114 513 515
g Group52438
f 113 114 116 115
g Group32941
f 516 518 517 515
g Group32944
f 118 116 515 517
f 115 117 518 516
g Group52438
f 115 116 118 117
g Group32941
f 518 520 519 517
g Group32944
f 120 118 517 519
g Group52438
f 117 118 120 119
g Group32941
f 520 522 521 519
g Group32944
f 122 120 519 521
f 119 121 522 520
g Group52438
f 119 120 122 121
g Group32941
f 522 524 523 521
g Group32944
f 124 122 521 523
g Group52438
f 121 122 124 123
g Group32941
f 524 526 525 523
g Group32944
f 126 124 523 525
f 123 125 526 524
g Group52438
f 123 124 126 125
g Group32941
f 526 528 527 525
g Group32944
f 128 126 525 527
g Group52438
f 125 126 128 127
g Group32941
f 528 530 529 527
g Group32944
f 130 128 527 529
f 127 129 530 528
g Group52438
f 127 128 130 129
g Group32941
f 530 532 531 529
g Group32944
f 132 130 529 531
g Group52438
f 129 130 132 131
g Group32941
f 532 534 533 531
g Group32944
f 134 132 531 533
f 131 133 534 532
g Group52438
f 131 132 134 133
g Group32941
f 534 536 535 533
g Group32944
f 136 134 533 535
g Group52438
f 133 134 136 135
g Group32941
f 536 538 537 535
g Group32944
f 138 136 535 537
f 135 137 538 536
g Group52438
f 135 136 138 137
g Group32941
f 538 540 539 537
g Group32944
f 140 138 537 539
g Group52438
f 137 138 140 139
g Group32941
f 540 542 541 539
g Group32944
f 142 140 539 541
f 139 141 542 540
g Group52438
f 139 140 142 141
g Group32941
f 542 544 543 541
g Group32944
f 144 142 541 543
g Group52438
f 141 142 144 143
g Group32941
f 544 412 409 543
g Group32944
f 10 144 543 409
f 143 9 412 544
g Group52438
f 143 144 10 9
g Group32941
f 446 546 545 448
g Group32944
f 146 47 448 545
f 45 145 546 446
g Group52438
f 45 47 146 145
g Group32941
f 546 548 547 545
g Group52438
f 145 146 148 147
g Group32941
f 548 550 549 547
g Group32944
f 150 148 547 549
f 147 149 550 548
g Group52438
f 147 148 150 149
g Group32941
f 550 552 551 549
g Group52438
f 149 150 152 151
g Group32941
f 552 554 553 551
g Group32944
f 154 152 551 553
f 151 153 554 552
g Group52438
f 151 152 154 153
g Group32941
f 554 556 555 553
g Group52438
f 153 154 156 155
g Group32941
f 556 558 557 555
g Group32944
f 158 156 555 557
f 155 157 558 556
g Group52438
f 155 156 158 157
g Group32941
f 558 560 559 557
g Group52438
f 157 158 160 159
g Group32941
f 560 562 561 559
g Group32944
f 162 160 559 561
f 159 161 562 560
g Group52438
f 159 160 162 161
g Group32941
f 562 564 563 561
g Group52438
f 161 162 164 163
g Group32941
f 564 566 565 563
g Group32944
f 166 164 563 565
f 163 165 566 564
g Group52438
f 163 164 166 165
g Group32941
f 566 568 567 565
g Group52438
f 165 166 168 167
g Group32941
f 568 570 569 567
g Group32944
f 170 168 567 569
f 167 169 570 568
g Group52438
f 167 168 170 169
g Group32941
f 570 572 571 569
g Group52438
f 169 170 172 171
g Group32941
f 572 574 573 571
g Group32944
f 174 172 571 573
f 171 173 574 572
g Group52438
f 171 172 174 173
g Group32941
f 574 576 575 573
g Group52438
f 173 174 176 175
g Group32941
f 576 484 482 575
g Group32944
f 81 176 575 482
f 175 83 484 576
g Group52438
f 175 176 81 83
g Group32941
f 442 578 577 444
g Group32944
f 178 43 444 577
f 41 177 578 442
g Group52438
f 41 43 178 177
g Group32941
f 578 580 579 577
g Group52438
f 177 178 180 179
g Group32941
f 580 582 581 579
g Group32944
f 182 180 579 581
f 179 181 582 580
g Group52438
f 179 180 182 181
g Group32941
f 582 584 583 581
g Group52438
f 181 182 184 183
g Group32941
f 584 586 585 583
g Group32944
f 186 184 583 585
f 183 185 586 584
g Group52438
f 183 184 186 185
g Group32941
f 586 588 587 585
g Group52438
f 185 186 188 187
g Group32941
f 588 590 589 587
g Group32944
f 190 188 587 589
f 187 189 590 588
g Group52438
f 187 188 190 189
g Group32941
f 590 592 591 589
g Group52438
f 189 190 192 191
g Group32941
f 592 594 593 591
g Group32944
f 194 192 591 593
f 191 193 594 592
g Group52438
f 191 192 194 193
g Group32941
f 594 596 595 593
g Group52438
f 193 194 196 195
g Group32941
f 596 598 597 595
g Group32944
f 198 196 595 597
f 195 197 598 596
g Group52438
f 195 196 198 197
g Group32941
f 598 600 599 597
g Group52438
f 197 198 200 199
g Group32941
f 600 602 601 599
g Group32944
f 202 200 599 601
f 199 201 602 600
g Group52438
f 199 200 202 201
g Group32941
f 602 604 603 601
g Group52438
f 201 202 204 203
g Group32941
f 604 606 605 603
g Group32944
f 206 204 603 605
f 203 205 606 604
g Group52438
f 203 204 206 205
g Group32941
f 606 608 607 605
g Group52438
f 205 206 208 207
g Group32941
f 608 488 486 607
g Group32944
f 85 208 607 486
f 207 87 488 608
g Group52438
f 207 208 85 87
g Group32941
f 438 610 609 440
g Group32944
f 210 39 440 609
f 37 209 610 438
g Group52438
f 37 39 210 209
g Group32941
f 610 612 611 609
g Group52438
f 209 210 212 211
g Group32941
f 612 614 613 611
g Group32944
f 214 212 611 613
f 211 213 614 612
g Group52438
f 211 212 214 213
g Group32941
f 614 616 615 613
g Group52438
f 213 214 216 215
g Group32941
f 616 618 617 615
g Group32944
f 218 216 615 617
f 215 217 618 616
g Group52438
f 215 216 218 217
g Group32941
f 618 620 619 617
g Group52438
f 217 218 220 219
g Group32941
f 620 622 621 619
g Group32944
f 222 220 619 621
f 219 221 622 620
g Group52438
f 219 220 222 221
g Group32941
f 622 624 623 621
g Group52438
f 221 222 224 223
g Group32941
f 624 626 625 623
g Group32944
f 226 224 623 625
f 223 225 626 624
g Group52438
f 223 224 226 225
g Group32941
f 626 628 627 625
g Group52438
f 225 226 228 227
g Group32941
f 628 630 629 627
g Group32944
f 230 228 627 629
f 227 229 630 628
g Group52438
f 227 228 230 229
g Group32941
f 630 632 631 629
g Group52438
f 229 230 232 231
g Group32941
f 632 634 633 631
g Group32944
f 234 232 631 633
f 231 233 634 632
g Group52438
f 231 232 234 233
g Group32941
f 634 636 635 633
g Group52438
f 233 234 236 235
g Group32941
f 636 638 637 635
g Group32944
f 238 236 635 637
f 235 237 638 636
g Group52438
f 235 236 238 237
g Group32941
f 638 640 639 637
g Group52438
f 237 238 240 239
g Group32941
f 640 492 490 639
g Group32944
f 89 240 639 490
f 239 91 492 640
g Group52438
f 239 240 89 91
g Group32941
f 434 642 641 436
g Group32944
f 242 35 436 641
f 33 241 642 434
g Group52438
f 33 35 242 241
g Group32941
f 642 644 643 641
g Group52438
f 241 242 244 243
g Group32941
f 644 646 645 643
g Group32944
f 246 244 643 645
f 243 245 646 644
g Group52438
f 243 244 246 245
g Group32941
f 646 648 647 645
g Group52438
f 245 246 248 247
g Group32941
f 648 650 649 647
g Group32944
f 250 248 647 649
f 247 249 650 648
g Group52438
f 247 248 250 249
g Group32941
f 650 652 651 649
g Group52438
f 249 250 252 251
g Group32941
f 652 654 653 651
g Group32944
f 254 252 651 653
f 251 253 654 652
g Group52438
f 251 252 254 253
g Group32941
f 654 656 655 653
g Group52438
f 253 254 256 255
g Group32941
f 656 658 657 655
g Group32944
f 258 256 655 657
f 255 257 658 656
g Group52438
f 255 256 258 257
g Group32941
f 658 660 659 657
g Group52438
f 257 258 260 259
g Group32941
f 660 662 661 659
g Group32944
f 262 260 659 661
f 259 261 662 660
g Group52438
f 259 260 262 261
g Group32941
f 662 664 663 661
g Group52438
f 261 262 264 263
g Group32941
f 664 666 665 663
g Group32944
f 266 264 663 665
f 263 265 666 664
g Group52438
f 263 264 266 265
g Group32941
f 666 668 667 665
g Group52438
f 265 266 268 267
g Group32941
f 668 670 669 667
g Group32944
f 270 268 667 669
f 267 269 670 668
g Group52438
f 267 268 270 269
g Group32941
f 670 672 671 669
g Group52438
f 269 270 272 271
g Group32941
f 672 496 494 671
g Group32944
f 93 272 671 494
f 271 95 496 672
g Group52438
f 271 272 93 95
g Group32941
f 430 674 673 432
g Group32944
f 274 31 432 673
f 29 273 674 430
g Group52438
f 29 31 274 273
g Group32941
f 674 676 675 673
g Group52438
f 273 274 276 275
g Group32941
f 676 678 677 675
g Group32944
f 278 276 675 677
f 275 277 678 676
g Group52438
f 275 276 278 277
g Group32941
f 678 680 679 677
g Group52438
f 277 278 280 279
g Group32941
f 680 682 681 679
g Group32944
f 282 280 679 681
f 279 281 682 680
g Group52438
f 279 280 282 281
g Group32941
f 682 684 683 681
g Group52438
f 281 282 284 283
g Group32941
f 684 686 685 683
g Group32944
f 286 284 683 685
f 283 285 686 684
g Group52438
f 283 284 286 285
g Group32941
f 686 688 687 685
g Group52438
f 285 286 288 287
g Group32941
f 688 690 689 687
g Group32944
f 290 288 687 689
f 287 289 690 688
g Group52438
f 287 288 290 289
g Group32941
f 690 692 691 689
g Group52438
f 289 290 292 291
g Group32941
f 692 694 693 691
g Group32944
f 294 292 691 693
f 291 293 694 692
g Group52438
f 291 292 294 293
g Group32941
f 694 696 695 693
g Group52438
f 293 294 296 295
g Group32941
f 696 698 697 695
g Group32944
f 298 296 695 697
f 295 297 698 696
g Group52438
f 295 296 298 297
g Group32941
f 698 700 699 697
g Group52438
f 297 298 300 299
g Group32941
f 700 702 701 699
g Group32944
f 302 300 699 701
f 299 301 702 700
g Group52438
f 299 300 302 301
g Group32941
f 702 704 703 701
g Group52438
f 301 302 304 303
g Group32941
f 704 500 498 703
g Group32944
f 97 304 703 498
f 303 99 500 704
g Group52438
f 303 304 97 99
g Group32941
f 426 706 705 428
g Group32944
f 306 27 428 705
f 25 305 706 426
g Group52438
f 25 27 306 305
g Group32941
f 706 708 707 705
g Group52438
f 305 306 308 307
g Group32941
f 708 710 709 707
g Group32944
f 310 308 707 709
f 307 309 710 708
g Group52438
f 307 308 310 309
g Group32941
f 710 712 711 709
g Group52438
f 309 310 312 311
g Group32941
f 712 714 713 711
g Group32944
f 314 312 711 713
f 311 313 714 712
g Group52438
f 311 312 314 313
g Group32941
f 714 716 715 713
g Group52438
f 313 314 316 315
g Group32941
f 716 718 717 715
g Group32944
f 318 316 715 717
f 315 317 718 716
g Group52438
f 315 316 318 317
g Group32941
f 718 720 719 717
g Group52438
f 317 318 320 319
g Group32941
f 720 722 721 719
g Group32944
f 322 320 719 721
f 319 321 722 720
g Group52438
f 319 320 322 321
g Group32941
f 722 724 723 721
g Group52438
f 321 322 324 323
g Group32941
f 724 726 725 723
g Group32944
f 326 324 723 725
f 323 325 726 724
g Group52438
f 323 324 326 325
g Group32941
f 726 728 727 725
g Group52438
f 325 326 328 327
g Group32941
f 728 730 729 727
g Group32944
f 330 328 727 729
f 327 329 730 728
g Group52438
f 327 328 330 329
g Group32941
f 730 732 731 729
g Group52438
f 329 330 332 331
g Group32941
f 732 734 733 731
g Group32944
f 334 332 731 733
f 331 333 734 732
g Group52438
f 331 332 334 333
g Group32941
f 734 736 735 733
g Group52438
f 333 334 336 335
g Group32941
f 736 504 502 735
g Group32944
f 101 336 735 502
f 335 103 504 736
g Group52438
f 335 336 101 103
g Group32941
f 422 738 737 424
g Group32944
f 338 23 424 737
f 21 337 738 422
g Group52438
f 21 23 338 337
g Group32941
f 738 740 739 737
g Group52438
f 337 338 340 339
g Group32941
f 740 742 741 739
g Group32944
f 342 340 739 741
f 339 341 742 740
g Group52438
f 339 340 342 341
g Group32941
f 742 744 743 741
g Group52438
f 341 342 344 343
g Group32941
f 744 746 745 743
g Group32944
f 346 344 743 745
f 343 345 746 744
g Group52438
f 343 344 346 345
g Group32941
f 746 748 747 745
g Group52438
f 345 346 348 347
g Group32941
f 748 750 749 747
g Group32944
f 350 348 747 749
f 347 349 750 748
g Group52438
f 347 348 350 349
g Group32941
f 750 752 751 749
g Group52438
f 349 350 352 351
g Group32941
f 752 754 753 751
g Group32944
f 354 352 751 753
f 351 353 754 752
g Group52438
f 351 352 354 353
g Group32941
f 754 756 755 753
g Group52438
f 353 354 356 355
g Group32941
f 756 758 757 755
g Group32944
f 358 356 755 757
f 355 357 758 756
g Group52438
f 355 356 358 357
g Group32941
f 758 760 759 757
g Group52438
f 357 358 360 359
g Group32941
f 760 762 761 759
g Group32944
f 362 360 759 761
f 359 361 762 760
g Group52438
f 359 360 362 361
g Group32941
f 762 764 763 761
g Group52438
f 361 362 364 363
g Group32941
f 764 766 765 763
g Group32944
f 366 364 763 765
f 363 365 766 764
g Group52438
f 363 364 366 365
g Group32941
f 766 768 767 765
g Group52438
f 365 366 368 367
g Group32941
f 768 508 506 767
g Group32944
f 105 368 767 506
f 367 107 508 768
g Group52438
f 367 368 105 107
g Group32941
f 418 770 769 420
g Group32944
f 370 19 420 769
f 17 369 770 418
g Group52438
f 17 19 370 369
g Group32941
f 770 772 771 769
g Group52438
f 369 370 372 371
g Group32941
f 772 774 773 771
g Group32944
f 374 372 771 773
f 371 373 774 772
g Group52438
f 371 372 374 373
g Group32941
f 774 776 775 773
g Group52438
f 373 374 376 375
g Group32941
f 776 778 777 775
g Group32944
f 378 376 775 777
f 375 377 778 776
g Group52438
f 375 376 378 377
g Group32941
f 778 780 779 777
g Group52438
f 377 378 380 379
g Group32941
f 780 782 781 779
g Group32944
f 382 380 779 781
f 379 381 782 780
g Group52438
f 379 380 382 381
g Group32941
f 782 784 783 781
g Group52438
f 381 382 384 383
g Group32941
f 784 786 785 783
g Group32944
f 386 384 783 785
f 383 385 786 784
g Group52438
f 383 384 386 385
g Group32941
f 786 788 787 785
g Group52438
f 385 386 388 387
g Group32941
f 788 790 789 787
g Group32944
f 390 388 787 789
f 387 389 790 788
g Group52438
f 387 388 390 389
g Group32941
f 790 792 791 789
g Group52438
f 389 390 392 391
g Group32941
f 792 794 793 791
g Group32944
f 394 392 791 793
f 391 393 794 792
g Group52438
f 391 392 394 393
g Group32941
f 794 796 795 793
g Group52438
f 393 394 396 395
g Group32941
f 796 798 797 795
g Group32944
f 398 396 795 797
f 395 397 798 796
g Group52438
f 395 396 398 397
g Group32941
f 798 800 799 797
g Group52438
f 397 398 400 399
g Group32941
f 800 512 510 799
g Group32944
f 109 400 799 510
f 399 111 512 800
g Group52438
f 399 400 109 111
g Group32941
f 477 479 545 547
g Group32944
f 148 78 477 547
f 80 146 545 479
g Group52438
f 78 148 146 80
g Group32941
f 548 546 577 579
g Group32944
f 180 147 548 579
f 145 178 577 546
g Group52438
f 147 180 178 145
g Group32941
f 580 578 609 611
g Group32944
f 212 179 580 611
f 177 210 609 578
g Group52438
f 179 212 210 177
g Group32941
f 612 610 641 643
g Group32944
f 244 211 612 643
f 209 242 641 610
g Group52438
f 211 244 242 209
g Group32941
f 644 642 673 675
g Group32944
f 276 243 644 675
f 241 274 673 642
g Group52438
f 243 276 274 241
g Group32941
f 676 674 705 707
g Group32944
f 308 275 676 707
f 273 306 705 674
g Group52438
f 275 308 306 273
g Group32941
f 708 706 737 739
g Group32944
f 340 307 708 739
f 305 338 737 706
g Group52438
f 307 340 338 305
g Group32941
f 740 738 769 771
g Group32944
f 372 339 740 771
f 337 370 769 738
g Group52438
f 339 372 370 337
g Group32941
f 772 770 544 542
g Group32944
f 141 371 772 542
f 369 143 544 770
g Group52438
f 371 141 143 369
g Group32941
f 773 775 744 742
g Group32944
f 341 374 773 742
f 376 343 744 775
g Group52438
f 374 341 343 376
g Group32941
f 540 538 776 774
g Group32944
f 373 139 540 774
f 137 375 776 538
g Group52438
f 139 373 375 137
g Group32941
f 741 743 712 710
g Group32944
f 309 342 741 710
f 344 311 712 743
g Group52438
f 342 309 311 344
g Group32941
f 709 711 680 678
g Group32944
f 277 310 709 678
f 312 279 680 711
g Group52438
f 310 277 279 312
g Group32941
f 648 646 677 679
g Group32944
f 280 247 648 679
f 245 278 677 646
g Group52438
f 247 280 278 245
g Group32941
f 645 647 616 614
g Group32944
f 213 246 645 614
f 248 215 616 647
g Group52438
f 246 213 215 248
g Group32941
f 584 582 613 615
g Group32944
f 216 183 584 615
f 181 214 613 582
g Group52438
f 183 216 214 181
g Group32941
f 552 550 581 583
g Group32944
f 184 151 552 583
f 149 182 581 550
g Group52438
f 151 184 182 149
g Group32941
f 549 551 473 475
g Group32944
f 76 150 549 475
f 152 74 473 551
g Group52438
f 150 76 74 152
g Group32941
f 536 534 780 778
g Group32944
f 377 135 536 778
f 133 379 780 534
g Group52438
f 135 377 379 133
g Group32941
f 748 746 777 779
g Group32944
f 380 347 748 779
f 345 378 777 746
g Group52438
f 347 380 378 345
g Group32941
f 716 714 745 747
g Group32944
f 348 315 716 747
f 313 346 745 714
g Group52438
f 315 348 346 313
g Group32941
f 684 682 713 715
g Group32944
f 316 283 684 715
f 281 314 713 682
g Group52438
f 283 316 314 281
g Group32941
f 652 650 681 683
g Group32944
f 284 251 652 683
f 249 282 681 650
g Group52438
f 251 284 282 249
g Group32941
f 620 618 649 651
g Group32944
f 252 219 620 651
f 217 250 649 618
g Group52438
f 219 252 250 217
g Group32941
f 588 586 617 619
g Group32944
f 220 187 588 619
f 185 218 617 586
g Group52438
f 187 220 218 185
g Group32941
f 556 554 585 587
g Group32944
f 188 155 556 587
f 153 186 585 554
g Group52438
f 155 188 186 153
g Group32941
f 469 471 553 555
g Group32944
f 156 70 469 555
f 72 154 553 471
g Group52438
f 70 156 154 72
g Group32941
f 465 467 557 559
g Group32944
f 160 66 465 559
f 68 158 557 467
g Group52438
f 66 160 158 68
g Group32941
f 589 591 560 558
g Group32944
f 157 190 589 558
f 192 159 560 591
g Group52438
f 190 157 159 192
g Group32941
f 621 623 592 590
g Group32944
f 189 222 621 590
f 224 191 592 623
g Group52438
f 222 189 191 224
g Group32941
f 653 655 624 622
g Group32944
f 221 254 653 622
f 256 223 624 655
g Group52438
f 254 221 223 256
g Group32941
f 685 687 656 654
g Group32944
f 253 286 685 654
f 288 255 656 687
g Group52438
f 286 253 255 288
g Group32941
f 717 719 688 686
g Group32944
f 285 318 717 686
f 320 287 688 719
g Group52438
f 318 285 287 320
g Group32941
f 749 751 720 718
g Group32944
f 317 350 749 718
f 352 319 720 751
g Group52438
f 350 317 319 352
g Group32941
f 781 783 752 750
g Group32944
f 349 382 781 750
f 384 351 752 783
g Group52438
f 382 349 351 384
g Group32941
f 532 530 784 782
g Group32944
f 381 131 532 782
f 129 383 784 530
g Group52438
f 131 381 383 129
g Group32941
f 528 526 788 786
g Group32944
f 385 127 528 786
f 125 387 788 526
g Group52438
f 127 385 387 125
g Group32941
f 756 754 785 787
g Group32944
f 388 355 756 787
f 353 386 785 754
g Group52438
f 355 388 386 353
g Group32941
f 724 722 753 755
g Group32944
f 356 323 724 755
f 321 354 753 722
g Group52438
f 323 356 354 321
g Group32941
f 692 690 721 723
g Group32944
f 324 291 692 723
f 289 322 721 690
g Group52438
f 291 324 322 289
g Group32941
f 660 658 689 691
g Group32944
f 292 259 660 691
f 257 290 689 658
g Group52438
f 259 292 290 257
g Group32941
f 628 626 657 659
g Group32944
f 260 227 628 659
f 225 258 657 626
g Group52438
f 227 260 258 225
g Group32941
f 596 594 625 627
g Group32944
f 228 195 596 627
f 193 226 625 594
g Group52438
f 195 228 226 193
g Group32941
f 564 562 593 595
g Group32944
f 196 163 564 595
f 161 194 593 562
g Group52438
f 163 196 194 161
g Group32941
f 461 463 561 563
g Group32944
f 164 62 461 563
f 64 162 561 463
g Group52438
f 62 164 162 64
g Group32941
f 524 522 792 790
g Group32944
f 389 123 524 790
f 121 391 792 522
g Group52438
f 123 389 391 121
g Group32941
f 789 791 760 758
g Group32944
f 357 390 789 758
f 392 359 760 791
g Group52438
f 390 357 359 392
g Group32941
f 728 726 757 759
g Group32944
f 360 327 728 759
f 325 358 757 726
g Group52438
f 327 360 358 325
g Group32941
f 696 694 725 727
g Group32944
f 328 295 696 727
f 293 326 725 694
g Group52438
f 295 328 326 293
g Group32941
f 664 662 693 695
g Group32944
f 296 263 664 695
f 261 294 693 662
g Group52438
f 263 296 294 261
g Group32941
f 632 630 661 663
g Group32944
f 264 231 632 663
f 229 262 661 630
g Group52438
f 231 264 262 229
g Group32941
f 600 598 629 631
g Group32944
f 232 199 600 631
f 197 230 629 598
g Group52438
f 199 232 230 197
g Group32941
f 568 566 597 599
g Group32944
f 200 167 568 599
f 165 198 597 566
g Group52438
f 167 200 198 165
g Group32941
f 457 459 565 567
g Group32944
f 168 58 457 567
f 60 166 565 459
g Group52438
f 58 168 166 60
g Group32941
f 453 455 569 571
g Group32944
f 172 54 453 571
f 56 170 569 455
g Group52438
f 54 172 170 56
g Group32941
f 601 603 572 570
g Group32944
f 169 202 601 570
f 204 171 572 603
g Group52438
f 202 169 171 204
g Group32941
f 633 635 604 602
g Group32944
f 201 234 633 602
f 236 203 604 635
g Group52438
f 234 201 203 236
g Group32941
f 665 667 636 634
g Group32944
f 233 266 665 634
f 268 235 636 667
g Group52438
f 266 233 235 268
g Group32941
f 697 699 668 666
g Group32944
f 265 298 697 666
f 300 267 668 699
g Group52438
f 298 265 267 300
g Group32941
f 729 731 700 698
g Group32944
f 297 330 729 698
f 332 299 700 731
g Group52438
f 330 297 299 332
g Group32941
f 761 763 732 730
g Group32944
f 329 362 761 730
f 364 331 732 763
g Group52438
f 362 329 331 364
g Group32941
f 765 767 736 734
g Group32944
f 333 366 765 734
f 368 335 736 767
g Group52438
f 366 333 335 368
g Group32941
f 793 795 764 762
g Group32944
f 361 394 793 762
f 396 363 764 795
g Group52438
f 394 361 363 396
g Group32941
f 797 799 768 766
g Group32944
f 365 398 797 766
f 400 367 768 799
g Group52438
f 398 365 367 400
g Group32941
f 516 514 800 798
g Group32944
f 397 115 516 798
f 113 399 800 514
g Group52438
f 115 397 399 113
g Group32941
f 520 518 796 794
g Group32944
f 393 119 520 794
f 117 395 796 518
g Group52438
f 119 393 395 117
g Group32941
f 733 735 704 702
g Group32944
f 301 334 733 702
f 336 303 704 735
g Group52438
f 334 301 303 336
g Group32941
f 701 703 672 670
g Group32944
f 269 302 701 670
f 304 271 672 703
g Group52438
f 302 269 271 304
g Group32941
f 669 671 640 638
g Group32944
f 237 270 669 638
f 272 239 640 671
g Group52438
f 270 237 239 272
g Group32941
f 637 639 608 606
g Group32944
f 205 238 637 606
f 240 207 608 639
g Group52438
f 238 205 207 240
g Group32941
f 605 607 576 574
g Group32944
f 173 206 605 574
f 208 175 576 607
g Group52438
f 206 173 175 208
g Group32941
f 573 575 449 451
g Group32944
f 52 174 573 451
f 176 50 449 575
g Group52438
f 174 52 50 176

 