# File exported by ZBrush version 2021
# www.zbrush.com
#Vertex Count 168
#Face Count 186
#Auto scale x=1.000000 y=1.000000 z=1.000000
#Auto offset x=0.000000 y=0.000000 z=0.000000
v 0.56569999 -0.42914599 0.20262399
v 0.70016002 -0.56360697 0.20262399
v 0.43169099 -0.56342297 0.20223599
v 0.56612801 -0.69786202 0.20223599
v 0.99265301 -1.12438201 0.20223599
v 1.12771499 -0.98985999 0.20181199
v 0.14327299 -0.001587 0.20181199
v 0.004436 -0.13738499 0.20304998
v 1.12721204 -0.136812 0.20304998
v 0.99315202 -0.002086 0.20304998
v 0.004819 -0.98959201 0.20099699
v 0.13925799 -1.12402904 0.20099699
v 0.56569999 0.693502 0.20262399
v 0.70016002 0.55903899 0.20262399
v 0.43169099 0.55922299 0.20223599
v 0.56612801 0.424786 0.20223599
v 0.004125 0.134422 0.20180998
v 1.12660396 0.132786 0.20181199
v 0.1391 1.11994504 0.20262399
v 0.005432 0.98543798 0.20304998
v 1.12721204 0.98783201 0.20304998
v 0.99257201 1.11966896 0.20386399
v 1.68799698 -0.42914599 0.20262399
v 1.82245898 -0.56360697 0.20262399
v 1.55399 -0.56342297 0.20223599
v 1.68842697 -0.69786202 0.20223599
v 2.11494803 -1.12438201 0.20223599
v 2.24898195 -0.99013 0.20262399
v 1.26557004 -0.001587 0.20181199
v 2.24933099 0.98520702 0.20386399
v 2.24933099 -0.13743899 0.20386399
v 2.11544895 -0.002086 0.20304998
v 1.26139795 1.11994504 0.20262399
v 1.26155495 -1.12402904 0.20099699
v 1.68799698 0.693502 0.20262399
v 1.82245898 0.55903899 0.20262399
v 1.55399 0.55922299 0.20223599
v 1.68842697 0.424786 0.20223599
v 2.11486911 1.11966896 0.20386399
v 2.24898195 0.13251799 0.20262399
v 2.38313603 -0.000632 0.20279699
v 1.12885499 1.25376701 0.20301599
v 1.12656998 -1.25793004 0.200791
v -1.67984604 -0.42914599 0.20262399
v -1.54538595 -0.56360697 0.20262399
v -1.81385505 -0.56342297 0.20223599
v -1.67941796 -0.69786202 0.20223599
v -1.25289499 -1.12438201 0.20223599
v -1.11783504 -0.98985999 0.20181199
v -2.10227298 -0.001587 0.20181199
v -2.24045205 -0.13697899 0.20223599
v -1.11833596 -0.136812 0.20304998
v -1.25239598 -0.002086 0.20304998
v -2.24072599 -0.98959201 0.20099699
v -2.10628795 -1.12402904 0.20099699
v -1.67984604 0.693502 0.20262399
v -1.54538595 0.55903899 0.20262399
v -1.81385505 0.55922299 0.20223599
v -1.67941796 0.424786 0.20223599
v -2.24072599 0.133056 0.20099699
v -1.11894404 0.132786 0.20181199
v -2.10644698 1.11994504 0.20262399
v -2.24045205 0.98566699 0.20223599
v -1.11833596 0.98783201 0.20304998
v -1.25297594 1.11966896 0.20386399
v -0.557554 -0.42914599 0.20262399
v -0.423092 -0.56360697 0.20262399
v -0.69155997 -0.56342297 0.20223599
v -0.55712401 -0.69786202 0.20223599
v -0.130603 -1.12438201 0.20223599
v -2.38313603 0.005874 0.20099699
v -0.979981 -0.001587 0.20181199
v -1.11898005 -1.25793004 0.200791
v -1.11669397 1.25376701 0.20301599
v -0.13010199 -0.002086 0.20304998
v -0.98415201 1.11994504 0.20262399
v -0.98399299 -1.12402904 0.20099699
v -0.557554 0.693502 0.20262399
v -0.423092 0.55903899 0.20262399
v -0.69155997 0.55922299 0.20223599
v -0.55712401 0.424786 0.20223599
v -0.130682 1.11966896 0.20386399
v 0.00671 1.25793004 0.20262399
v 0.00093 -1.25591695 0.20035399
v 0.70034897 -0.56329 -0.20159901
v 0.566446 -0.697416 -0.20198701
v 0.43187001 -0.56324201 -0.20198799
v 0.56575 -0.429095 -0.2016
v 1.12694704 -0.98895299 -0.20240999
v 0.99160999 -1.12352597 -0.201986
v 0.003683 -0.138144 -0.20117299
v 0.14251999 -0.002345 -0.20241101
v 0.99239498 -0.002852 -0.20117299
v 1.12645602 -0.137575 -0.20117299
v 0.13862299 -1.12323403 -0.20322699
v 0.004054 -0.989147 -0.20322699
v 0.70006698 0.55935698 -0.2016
v 0.56617701 0.42483499 -0.20198701
v 0.43187901 0.55953902 -0.20198701
v 0.565746 0.69408702 -0.20159901
v 1.12584602 0.13201999 -0.20241101
v 0.004666 0.98562002 -0.201174
v 0.13806 1.11971497 -0.20159901
v 0.99152898 1.12015402 -0.200359
v 1.12644195 0.98821002 -0.20117299
v 0.003371 0.13366 -0.202413
v 1.82318401 -0.56329 -0.20159901
v 1.68874299 -0.69713598 -0.201986
v 1.55389905 -0.563102 -0.20198799
v 1.68831503 -0.42923501 -0.2016
v 2.24956607 -0.989546 -0.201598
v 2.11553192 -1.12379801 -0.201986
v 1.26481294 -0.00235 -0.20241101
v 2.11571598 -0.002851 -0.20117299
v 2.24964809 -0.13847699 -0.200359
v 1.26051199 -1.12275099 -0.20322401
v 1.82290399 0.55935597 -0.20159901
v 1.68874299 0.424975 -0.20198701
v 1.55417799 0.55953997 -0.20198701
v 1.688313 0.69394701 -0.20159901
v 2.24887895 0.13147899 -0.20159901
v 1.26035594 1.12000703 -0.20159901
v 2.1154561 1.12025594 -0.200359
v 2.24991798 0.985794 -0.200359
v 2.3827641 -0.002489 -0.201421
v 1.12698996 1.25372695 -0.201203
v 1.124704 -1.25638198 -0.203425
v -1.54519796 -0.56329 -0.20159901
v -1.67910099 -0.697416 -0.20198701
v -1.81341004 -0.563106 -0.20198701
v -1.67952895 -0.42895799 -0.20159901
v -1.11860299 -0.98895299 -0.20240999
v -1.25393796 -1.12352597 -0.201986
v -2.23980808 -0.138016 -0.201986
v -2.10150909 -0.002348 -0.20240999
v -1.25315296 -0.002852 -0.20117299
v -1.11909198 -0.137575 -0.20117299
v -2.10570001 -1.12344205 -0.20322601
v -2.240139 -0.98900502 -0.20322601
v -1.54547905 0.55935698 -0.2016
v -1.67910301 0.42469799 -0.20198799
v -1.81313204 0.55954301 -0.201986
v -1.67953097 0.69422799 -0.20159901
v -1.11970198 0.13201999 -0.20241101
v -2.23986911 0.98625099 -0.201986
v -2.10586309 1.12052905 -0.201598
v -1.25401997 1.12015402 -0.200359
v -1.11910498 0.98821002 -0.20117299
v -2.23966288 0.132023 -0.203225
v -0.42317101 -0.56343001 -0.2016
v -0.55734401 -0.697416 -0.20198701
v -0.69165098 -0.563102 -0.20198799
v -0.55750399 -0.429095 -0.2016
v -0.132044 -1.12400806 -0.20198501
v -0.98073697 -0.00235 -0.20241101
v -0.130856 -0.002847 -0.20117299
v -0.98503601 -1.12275099 -0.20322401
v -0.42318201 0.55935597 -0.2016
v -0.55707502 0.42483499 -0.20198701
v -0.69137299 0.55953997 -0.20198701
v -0.55750501 0.69408702 -0.20159901
v -0.98519498 1.12000703 -0.20159901
v -0.13171799 1.11986005 -0.20036001
v -2.38201093 0.004019 -0.203221
v -1.11855804 1.25372695 -0.201203
v -1.12084603 -1.25638198 -0.203425
v 0.004853 1.25730705 -0.20159499
v -0.000928 -1.25491499 -0.20386399
g Group32941
f 88 87 86 85
g Group65367
f 1 2 4 3
g Group32941
f 85 86 90 89
g Group32944
f 6 2 85 89
f 4 5 90 86
g Group65367
f 2 6 5 4
g Group32941
f 87 88 92 91
g Group32944
f 8 3 87 91
f 1 7 92 88
g Group65367
f 3 8 7 1
g Group32941
f 88 85 94 93
g Group32944
f 10 1 88 93
f 2 9 94 85
g Group65367
f 1 10 9 2
g Group32941
f 86 87 96 95
g Group32944
f 12 4 86 95
f 3 11 96 87
g Group65367
f 4 12 11 3
g Group32941
f 100 99 98 97
g Group65367
f 13 14 16 15
g Group32941
f 97 98 93 101
g Group32944
f 18 14 97 101
f 16 10 93 98
g Group65367
f 14 18 10 16
g Group32941
f 99 100 103 102
g Group32944
f 20 15 99 102
f 13 19 103 100
g Group65367
f 15 20 19 13
g Group32941
f 100 97 105 104
g Group32944
f 22 13 100 104
f 14 21 105 97
g Group65367
f 13 22 21 14
g Group32941
f 98 99 106 92
g Group32944
f 7 16 98 92
f 15 17 106 99
g Group65367
f 16 7 17 15
g Group32941
f 110 109 108 107
g Group65367
f 23 24 26 25
g Group32941
f 107 108 112 111
g Group32944
f 28 24 107 111
f 27 28 111 112
f 26 27 112 108
g Group65367
f 24 28 27 26
g Group32941
f 109 110 113 94
g Group32944
f 9 25 109 94
f 23 29 113 110
g Group65367
f 25 9 29 23
g Group32941
f 110 107 115 114
g Group32944
f 32 23 110 114
f 24 31 115 107
g Group65367
f 23 32 31 24
g Group32941
f 108 109 89 116
g Group32944
f 34 26 108 116
f 25 6 89 109
g Group65367
f 26 34 6 25
g Group32941
f 120 119 118 117
g Group65367
f 35 36 38 37
g Group32941
f 117 118 114 121
g Group32944
f 40 36 117 121
f 38 32 114 118
g Group65367
f 36 40 32 38
g Group32941
f 119 120 122 105
g Group32944
f 21 37 119 105
f 35 33 122 120
g Group65367
f 37 21 33 35
g Group32941
f 120 117 124 123
g Group32944
f 39 35 120 123
f 30 39 123 124
f 36 30 124 117
g Group65367
f 35 39 30 36
g Group32941
f 118 119 101 113
g Group32944
f 29 38 118 113
f 37 18 101 119
g Group65367
f 38 29 18 37
g Group32941
f 113 101 93 94
g Group65367
f 29 9 10 18
g Group32941
f 121 114 115 125
g Group32944
f 41 40 121 125
f 31 41 125 115
g Group65367
f 40 41 31 32
g Group32941
f 105 122 126 104
g Group32944
f 42 22 104 126
f 33 42 126 122
g Group65367
f 21 22 42 33
g Group32941
f 116 89 90 127
g Group32944
f 43 34 116 127
f 5 43 127 90
g Group65367
f 34 43 5 6
g Group32941
f 131 130 129 128
g Group65367
f 44 45 47 46
g Group32941
f 128 129 133 132
g Group32944
f 49 45 128 132
f 47 48 133 129
g Group65367
f 45 49 48 47
g Group32941
f 130 131 135 134
g Group32944
f 51 46 130 134
f 44 50 135 131
g Group65367
f 46 51 50 44
g Group32941
f 131 128 137 136
g Group32944
f 53 44 131 136
f 45 52 137 128
g Group65367
f 44 53 52 45
g Group32941
f 129 130 139 138
g Group32944
f 55 47 129 138
f 54 55 138 139
f 46 54 139 130
g Group65367
f 47 55 54 46
g Group32941
f 143 142 141 140
g Group65367
f 56 57 59 58
g Group32941
f 140 141 136 144
g Group32944
f 61 57 140 144
f 59 53 136 141
g Group65367
f 57 61 53 59
g Group32941
f 142 143 146 145
g Group32944
f 63 58 142 145
f 62 63 145 146
f 56 62 146 143
g Group65367
f 58 63 62 56
g Group32941
f 143 140 148 147
g Group32944
f 65 56 143 147
f 57 64 148 140
g Group65367
f 56 65 64 57
g Group32941
f 141 142 149 135
g Group32944
f 50 59 141 135
f 58 60 149 142
g Group65367
f 59 50 60 58
g Group32941
f 153 152 151 150
g Group65367
f 66 67 69 68
g Group32941
f 150 151 154 96
g Group32944
f 11 67 150 96
f 69 70 154 151
g Group65367
f 67 11 70 69
g Group32941
f 152 153 155 137
g Group32944
f 52 68 152 137
f 66 72 155 153
g Group65367
f 68 52 72 66
g Group32941
f 153 150 91 156
g Group32944
f 75 66 153 156
f 67 8 91 150
g Group65367
f 66 75 8 67
g Group32941
f 151 152 132 157
g Group32944
f 77 69 151 157
f 68 49 132 152
g Group65367
f 69 77 49 68
g Group32941
f 161 160 159 158
g Group65367
f 78 79 81 80
g Group32941
f 158 159 156 106
g Group32944
f 17 79 158 106
f 81 75 156 159
g Group65367
f 79 17 75 81
g Group32941
f 160 161 162 148
g Group32944
f 64 80 160 148
f 78 76 162 161
g Group65367
f 80 64 76 78
g Group32941
f 161 158 102 163
g Group32944
f 82 78 161 163
f 79 20 102 158
g Group65367
f 78 82 20 79
g Group32941
f 159 160 144 155
g Group32944
f 72 81 159 155
f 80 61 144 160
g Group65367
f 81 72 61 80
g Group32941
f 155 144 136 137
g Group65367
f 72 52 53 61
g Group32941
f 135 149 164 134
g Group32944
f 71 51 134 164
f 60 71 164 149
g Group65367
f 50 51 71 60
g Group32941
f 148 162 165 147
g Group32944
f 74 65 147 165
f 76 74 165 162
g Group65367
f 64 65 74 76
g Group32941
f 157 132 133 166
g Group32944
f 73 77 157 166
f 48 73 166 133
g Group65367
f 77 73 48 49
g Group32941
f 92 106 156 91
g Group65367
f 7 8 75 17
g Group32941
f 102 103 167 163
g Group32944
f 83 82 163 167
f 19 83 167 103
g Group65367
f 20 82 83 19
g Group32941
f 95 96 154 168
g Group32944
f 84 12 95 168
f 70 84 168 154
g Group65367
f 12 84 70 11

 