# File exported by ZBrush version 2021
# www.zbrush.com
#Vertex Count 200
#Face Count 230
#Auto scale x=1.000000 y=1.000000 z=1.000000
#Auto offset x=0.000000 y=0.000000 z=0.000000
v -2.34190297 2.0043807 0.22910149
v -2.05023789 2.0043807 0.22910149
v -2.04978203 1.75469148 0.22858949
v -2.34139108 1.75469148 0.22858949
v -1.22641694 1.75469148 0.22858949
v -1.22670996 2.0043807 0.22910149
v -0.95196199 1.75469148 0.22858949
v -0.95220297 2.0043807 0.22910149
v -0.128597 1.75469148 0.22858949
v -0.12867599 2.0043807 0.22910149
v 0.14586 1.75469148 0.22858949
v 0.14583399 2.0043807 0.22910149
v 0.969226 1.75469148 0.22858949
v 0.969361 2.0043807 0.22910149
v 1.24368 1.75469148 0.22858949
v 1.24386799 2.0043807 0.22910149
v 2.06704497 1.75469148 0.22858949
v 2.06739592 2.0043807 0.22910149
v 2.34150195 1.75469148 0.22858949
v 2.34190297 2.0043807 0.22910149
v -2.04292202 -2.00530338 0.22087349
v -2.33367204 -2.00530338 0.22087349
v -2.04334902 -1.77030241 0.22135649
v -2.33415389 -1.77030241 0.22135649
v -2.04463505 -1.06530344 0.22280149
v -2.33559989 -1.06530344 0.22280149
v -2.04506492 -0.83030444 0.22328449
v -2.33608293 -0.83030444 0.22328449
v -2.04635095 -0.12530545 0.22473049
v -2.33753109 -0.12530545 0.22473049
v -2.04677891 0.10969553 0.22521248
v -2.33801388 0.10969553 0.22521248
v -2.04806494 0.81469452 0.22666148
v -2.33945989 0.81469452 0.22666148
v -2.048496 1.04969251 0.22714449
v -2.33994388 1.04969251 0.22714449
v 2.06606102 1.04969251 0.22714449
v 2.34036707 1.04969251 0.22714449
v 2.0657351 0.81469452 0.22666148
v 2.33998799 0.81469452 0.22666148
v 2.06474995 0.10969553 0.22521248
v 2.33885502 0.10969553 0.22521248
v 2.06442093 -0.12530545 0.22473049
v 2.33847594 -0.12530545 0.22473049
v 2.06344103 -0.83030444 0.22328449
v 2.33734011 -0.83030444 0.22328449
v 2.06311106 -1.06530344 0.22280149
v 2.33696103 -1.06530344 0.22280149
v 2.06212711 -1.77030241 0.22135649
v 2.33582592 -1.77030241 0.22135649
v 2.0618 -2.00530338 0.22087349
v 2.33544993 -2.00530338 0.22087349
v 0.96884602 1.04969251 0.22714449
v 1.24314999 1.04969251 0.22714449
v 0.96872198 0.81469452 0.22666148
v 1.24297499 0.81469452 0.22666148
v 0.968342 0.10969553 0.22521248
v 1.24244403 0.10969553 0.22521248
v 0.96821701 -0.12530545 0.22473049
v 1.24226903 -0.12530545 0.22473049
v 0.96783798 -0.83030444 0.22328449
v 1.24173796 -0.83030444 0.22328449
v 0.96771401 -1.06530344 0.22280149
v 1.24156296 -1.06530344 0.22280149
v 0.96733397 -1.77030241 0.22135649
v 1.24103295 -1.77030241 0.22135649
v 0.96720898 -2.00530338 0.22087349
v 1.240857 -2.00530338 0.22087349
v -0.128369 1.04969251 0.22714449
v 0.145934 1.04969251 0.22714449
v -0.128294 0.81469452 0.22666148
v 0.145961 0.81469452 0.22666148
v -0.128066 0.10969553 0.22521248
v 0.146035 0.10969553 0.22521248
v -0.127992 -0.12530545 0.22473049
v 0.146062 -0.12530545 0.22473049
v -0.127764 -0.83030444 0.22328449
v 0.146136 -0.83030444 0.22328449
v -0.12769 -1.06530344 0.22280149
v 0.146163 -1.06530344 0.22280149
v -0.127461 -1.77030241 0.22135649
v 0.146237 -1.77030241 0.22135649
v -0.127387 -2.00530338 0.22087349
v 0.146263 -2.00530338 0.22087349
v -1.22558403 1.04969251 0.22714449
v -0.95128101 1.04969251 0.22714449
v -1.22530794 0.81469452 0.22666148
v -0.95105499 0.81469452 0.22666148
v -1.22447502 0.10969553 0.22521248
v -0.95037299 0.10969553 0.22521248
v -1.22419595 -0.12530545 0.22473049
v -0.950145 -0.12530545 0.22473049
v -1.22336304 -0.83030444 0.22328449
v -0.94946301 -0.83030444 0.22328449
v -1.22308695 -1.06530344 0.22280149
v -0.949238 -1.06530344 0.22280149
v -1.22225403 -1.77030241 0.22135649
v -0.948556 -1.77030241 0.22135649
v -1.22197902 -2.00530338 0.22087349
v -0.94833099 -2.00530338 0.22087349
v -2.34139108 1.75561451 -0.22138451
v -2.34190297 2.00530338 -0.2208725
v -2.05023789 2.00530338 -0.2208725
v -2.04978203 1.75561451 -0.22138451
v -1.22670996 2.00530338 -0.2208725
v -1.22641694 1.75561451 -0.22138451
v 0.96733397 -1.76937842 -0.22861851
v 0.96720898 -2.00437831 -0.22910149
v 0.146263 -2.00437831 -0.22910149
v 0.146237 -1.76937842 -0.22861851
v -0.95220297 2.00530338 -0.2208725
v -0.95196199 1.75561451 -0.22138451
v -0.12867599 2.00530338 -0.2208725
v -0.128597 1.75561451 -0.22138451
v 1.24156296 -1.06437945 -0.22717352
v 1.24173796 -0.82938045 -0.22669051
v 2.06344103 -0.82938045 -0.22669051
v 2.06311106 -1.06437945 -0.22717352
v 0.14583399 2.00530338 -0.2208725
v 0.14586 1.75561451 -0.22138451
v 0.969361 2.00530338 -0.2208725
v 0.969226 1.75561451 -0.22138451
v 1.24386799 2.00530338 -0.22087352
v 1.24368 1.75561451 -0.22138451
v 2.06739592 2.00530338 -0.22087352
v 2.06704497 1.75561451 -0.22138451
v -1.22558403 1.0506165 -0.22283051
v -1.22530794 0.81561851 -0.22331349
v -2.04806494 0.81561851 -0.22331349
v -2.048496 1.0506165 -0.22283051
v -0.128369 1.0506165 -0.22283051
v -0.128294 0.81561851 -0.22331349
v -0.95105499 0.81561851 -0.22331349
v -0.95128101 1.0506165 -0.22283051
v 2.34190297 2.00530338 -0.2208725
v 2.34150195 1.75561451 -0.22138451
v -2.33367204 -2.00437831 -0.22910149
v -2.33415389 -1.76937842 -0.22861851
v -2.04334902 -1.76937842 -0.22861851
v -2.04292202 -2.00437831 -0.22910149
v -0.128066 0.11061953 -0.2247615
v -0.127992 -0.12438245 -0.2252445
v -0.950145 -0.12438245 -0.2252445
v -0.95037299 0.11061953 -0.2247615
v -2.33559989 -1.0643804 -0.22717352
v -2.04463505 -1.06437945 -0.22717352
v -1.22419595 -0.12438245 -0.2252445
v -1.22447502 0.11061953 -0.2247615
v -2.33608293 -0.82938146 -0.22669051
v -2.04506492 -0.82938045 -0.22669051
v -0.94946301 -0.82938045 -0.22669051
v -1.22336304 -0.82938045 -0.22669051
v -0.949238 -1.06437945 -0.22717352
v -1.22308695 -1.06437945 -0.22717352
v -2.33753109 -0.12438245 -0.2252445
v -2.04635095 -0.12438245 -0.2252445
v -2.33801388 0.11061953 -0.2247615
v -2.04677891 0.11061953 -0.2247615
v 0.968342 0.11061953 -0.2247615
v 0.96821701 -0.12438245 -0.2252445
v 0.146062 -0.12438245 -0.2252445
v 0.146035 0.11061953 -0.2247615
v -0.127764 -0.82938045 -0.22669051
v -0.12769 -1.06437945 -0.22717352
v -2.33945989 0.81561851 -0.22331349
v -2.33994388 1.0506165 -0.22283051
v -0.127461 -1.76937842 -0.22861851
v -0.127387 -2.00437831 -0.22910149
v -0.94833099 -2.00437831 -0.22910149
v -0.948556 -1.76937842 -0.22861851
v 2.34036707 1.0506165 -0.22283051
v 2.06606102 1.0506165 -0.22283051
v -1.22225403 -1.76937842 -0.22861851
v -1.22197902 -2.00437831 -0.22910149
v 0.145961 0.81561851 -0.22331349
v 2.33998799 0.81561851 -0.22331349
v 2.0657351 0.81561851 -0.22331349
v 0.146136 -0.82938045 -0.22669051
v 2.33885502 0.11061953 -0.2247615
v 2.06474995 0.11061953 -0.2247615
v 2.33847594 -0.12438245 -0.2252445
v 2.06442093 -0.12438245 -0.2252445
v 2.33734011 -0.82938146 -0.22669051
v 2.33696103 -1.0643804 -0.22717352
v 0.146163 -1.06437945 -0.22717352
v 0.96783798 -0.82938045 -0.22669051
v 0.96771401 -1.06437945 -0.22717352
v 0.145934 1.0506165 -0.22283051
v 2.33582592 -1.76937842 -0.22861851
v 2.06212711 -1.76937842 -0.22861851
v 2.33544993 -2.00437831 -0.22910149
v 2.0618 -2.00437831 -0.22910149
v 0.96884602 1.0506165 -0.22283051
v 0.96872198 0.81561851 -0.22331349
v 1.240857 -2.00437831 -0.22910149
v 1.24103295 -1.76937842 -0.22861851
v 1.24314999 1.0506165 -0.22283051
v 1.24297499 0.81561851 -0.22331349
v 1.24244403 0.11061953 -0.2247615
v 1.24226903 -0.12438245 -0.2252445
g Group32941
f 104 103 102 101
g Group32944
f 1 4 101 102
f 2 1 102 103
g Group12823
f 3 4 1 2
g Group32941
f 104 106 105 103
g Group32944
f 6 2 103 105
f 3 5 106 104
g Group12823
f 3 2 6 5
g Group32941
f 110 109 108 107
g Group32944
f 65 82 110 107
f 84 67 108 109
g Group12823
f 82 65 67 84
g Group32941
f 106 112 111 105
g Group32944
f 8 6 105 111
g Group12823
f 5 6 8 7
g Group32941
f 112 114 113 111
g Group32944
f 10 8 111 113
f 7 9 114 112
g Group12823
f 7 8 10 9
g Group32941
f 118 117 116 115
g Group32944
f 64 47 118 115
f 45 62 116 117
g Group12823
f 47 64 62 45
g Group32941
f 114 120 119 113
g Group32944
f 12 10 113 119
g Group12823
f 9 10 12 11
g Group32941
f 120 122 121 119
g Group32944
f 14 12 119 121
f 11 13 122 120
g Group12823
f 11 12 14 13
g Group32941
f 122 124 123 121
g Group32944
f 16 14 121 123
g Group12823
f 13 14 16 15
g Group32941
f 124 126 125 123
g Group32944
f 18 16 123 125
f 15 17 126 124
g Group12823
f 15 16 18 17
g Group32941
f 130 129 128 127
g Group32944
f 85 35 130 127
f 33 87 128 129
g Group12823
f 35 85 87 33
g Group32941
f 134 133 132 131
g Group32944
f 69 86 134 131
f 88 71 132 133
g Group12823
f 86 69 71 88
g Group32941
f 126 136 135 125
g Group32944
f 20 18 125 135
f 19 20 135 136
g Group12823
f 17 18 20 19
g Group32941
f 140 139 138 137
g Group32944
f 22 21 140 137
f 24 22 137 138
g Group12823
f 21 22 24 23
g Group32941
f 144 143 142 141
g Group32944
f 73 90 144 141
f 92 75 142 143
g Group12823
f 90 73 75 92
g Group32941
f 139 146 145 138
g Group32944
f 26 24 138 145
f 23 25 146 139
g Group12823
f 23 24 26 25
g Group32941
f 148 147 143 144
g Group12823
f 89 90 92 91
g Group32941
f 146 150 149 145
g Group32944
f 28 26 145 149
g Group12823
f 25 26 28 27
g Group32941
f 147 152 151 143
g Group32944
f 94 92 143 151
f 91 93 152 147
g Group12823
f 91 92 94 93
g Group32941
f 152 154 153 151
g Group12823
f 93 94 96 95
g Group32941
f 150 156 155 149
g Group32944
f 30 28 149 155
f 27 29 156 150
g Group12823
f 27 28 30 29
g Group32941
f 156 158 157 155
g Group32944
f 32 30 155 157
g Group12823
f 29 30 32 31
g Group32941
f 162 161 160 159
g Group32944
f 57 74 162 159
f 76 59 160 161
g Group12823
f 74 57 59 76
g Group32941
f 164 163 151 153
g Group32944
f 96 79 164 153
f 77 94 151 163
g Group12823
f 79 96 94 77
g Group32941
f 158 129 165 157
g Group32944
f 34 32 157 165
f 31 33 129 158
g Group12823
f 31 32 34 33
g Group32941
f 129 130 166 165
g Group32944
f 36 34 165 166
g Group12823
f 33 34 36 35
g Group32941
f 130 104 101 166
g Group32944
f 4 36 166 101
f 35 3 104 130
g Group12823
f 35 36 4 3
g Group32941
f 158 156 147 148
g Group32944
f 89 31 158 148
f 29 91 147 156
g Group12823
f 31 89 91 29
g Group32941
f 170 169 168 167
g Group32944
f 81 98 170 167
f 100 83 168 169
g Group12823
f 98 81 83 100
g Group32941
f 126 172 171 136
g Group32944
f 38 19 136 171
f 17 37 172 126
g Group12823
f 17 19 38 37
g Group32941
f 139 140 174 173
g Group32944
f 97 23 139 173
f 21 99 174 140
g Group12823
f 23 97 99 21
g Group32941
f 132 141 162 175
g Group32944
f 74 72 175 162
f 71 73 141 132
g Group12823
f 71 72 74 73
g Group32941
f 172 177 176 171
g Group32944
f 40 38 171 176
g Group12823
f 37 38 40 39
g Group32941
f 142 163 178 161
g Group32944
f 78 76 161 178
f 75 77 163 142
g Group12823
f 75 76 78 77
g Group32941
f 177 180 179 176
g Group32944
f 42 40 176 179
f 39 41 180 177
g Group12823
f 39 40 42 41
g Group32941
f 141 142 161 162
g Group12823
f 73 74 76 75
g Group32941
f 180 182 181 179
g Group32944
f 44 42 179 181
g Group12823
f 41 42 44 43
g Group32941
f 150 146 154 152
g Group32944
f 93 27 150 152
f 25 95 154 146
g Group12823
f 27 93 95 25
g Group32941
f 128 148 144 133
g Group32944
f 90 88 133 144
f 87 89 148 128
g Group12823
f 87 88 90 89
g Group32941
f 182 117 183 181
g Group32944
f 46 44 181 183
f 43 45 117 182
g Group12823
f 43 44 46 45
g Group32941
f 117 118 184 183
g Group32944
f 48 46 183 184
g Group12823
f 45 46 48 47
g Group32941
f 187 186 178 185
g Group32944
f 80 63 187 185
f 61 78 178 186
g Group12823
f 63 80 78 61
g Group32941
f 131 132 175 188
g Group12823
f 69 70 72 71
g Group32941
f 118 190 189 184
g Group32944
f 50 48 184 189
f 47 49 190 118
g Group12823
f 47 48 50 49
g Group32941
f 190 192 191 189
g Group32944
f 52 50 189 191
f 51 52 191 192
g Group12823
f 49 50 52 51
g Group32941
f 188 175 194 193
g Group32944
f 53 70 188 193
f 72 55 194 175
g Group12823
f 70 53 55 72
g Group32941
f 106 127 134 112
g Group32944
f 86 7 112 134
f 5 85 127 106
g Group12823
f 5 7 86 85
g Group32941
f 173 174 169 170
g Group32944
f 99 100 169 174
g Group12823
f 97 98 100 99
g Group32941
f 196 195 192 190
g Group32944
f 49 66 196 190
f 68 51 192 195
g Group12823
f 66 49 51 68
g Group32941
f 122 193 197 124
g Group32944
f 54 15 124 197
f 13 53 193 122
g Group12823
f 13 15 54 53
g Group32941
f 127 128 133 134
g Group12823
f 85 86 88 87
g Group32941
f 193 194 198 197
g Group12823
f 53 54 56 55
g Group32941
f 114 131 188 120
g Group32944
f 70 11 120 188
f 9 69 131 114
g Group12823
f 9 11 70 69
g Group32941
f 194 159 199 198
g Group32944
f 58 56 198 199
f 55 57 159 194
g Group12823
f 55 56 58 57
g Group32941
f 199 200 182 180
g Group32944
f 41 58 199 180
f 60 43 182 200
g Group12823
f 58 41 43 60
g Group32941
f 159 160 200 199
g Group12823
f 57 58 60 59
g Group32941
f 163 164 185 178
g Group12823
f 77 78 80 79
g Group32941
f 167 168 109 110
g Group32944
f 83 84 109 168
g Group12823
f 81 82 84 83
g Group32941
f 160 186 116 200
g Group32944
f 62 60 200 116
f 59 61 186 160
g Group12823
f 59 60 62 61
g Group32941
f 186 187 115 116
g Group12823
f 61 62 64 63
g Group32941
f 154 173 170 153
g Group32944
f 98 96 153 170
f 95 97 173 154
g Group12823
f 95 96 98 97
g Group32941
f 164 167 110 185
g Group32944
f 82 80 185 110
f 79 81 167 164
g Group12823
f 79 80 82 81
g Group32941
f 187 107 196 115
g Group32944
f 66 64 115 196
f 63 65 107 187
g Group12823
f 63 64 66 65
g Group32941
f 107 108 195 196
g Group32944
f 67 68 195 108
g Group12823
f 65 66 68 67
g Group32941
f 177 172 197 198
g Group32944
f 56 39 177 198
f 37 54 197 172
g Group12823
f 39 56 54 37

 