# File exported by ZBrush version 2021
# www.zbrush.com
#Vertex Count 600
#Face Count 674
#Auto scale x=1.000000 y=1.000000 z=1.000000
#Auto offset x=0.000000 y=0.000000 z=0.000000
v -1.04255497 -0.962237 0.178009
v -0.95928597 -1.045506 0.178009
v -1.12554395 -1.04539203 0.17776899
v -1.04228997 -1.12864697 0.17776899
v -0.77815401 -1.39278197 0.17776899
v -0.69451099 -1.30947494 0.17750699
v -1.30415499 -0.69745898 0.17750699
v -1.39013397 -0.78155601 0.17827299
v -0.69482201 -0.78119999 0.17827299
v -0.77784299 -0.69776797 0.17827299
v -1.38989794 -1.309309 0.17700099
v -1.30664205 -1.39256298 0.17700099
v -1.04255497 -0.26700499 0.178009
v -0.95928597 -0.35027501 0.178009
v -1.12554395 -0.35016098 0.17776899
v -1.04228997 -0.43341499 0.17776899
v -1.39032805 -0.613231 0.177505
v -0.69520002 -0.61424499 0.17750699
v -1.30669105 -0.000484 0.177505
v -1.38951802 -0.08621499 0.17827299
v -0.69482201 -0.084732 0.17827299
v -0.777372 -0.000655 0.17827299
v -0.347541 -0.962237 0.178009
v -0.26427099 -1.045506 0.178009
v -0.430527 -1.04539203 0.17776899
v -0.34727299 -1.12864697 0.17776899
v -0.083139 -1.39278197 0.17776899
v 0.00078 -1.30947494 0.177505
v -0.60914099 -0.69745898 0.17750699
v 0.0033 -0.083741 0.17827299
v 0.002626 -0.78205102 0.17827299
v -0.082231 -0.69717001 0.17827299
v -0.611265 -0.000036 0.177505
v -0.61162698 -1.39256298 0.17700099
v -0.347541 -0.26700499 0.178009
v -0.26427099 -0.35027501 0.178009
v -0.430527 -0.35016098 0.17776899
v -0.34727299 -0.43341499 0.17776899
v -0.084213 -0.000357 0.17827299
v 0.002409 -0.61424499 0.177505
v -0.695221 -1.47548604 0.17687399
v -2.43317294 -0.962237 0.178009
v -2.34990501 -1.045506 0.178009
v -2.51616311 -1.04539203 0.17776899
v -2.4329071 -1.12864697 0.17776899
v -2.16877389 -1.39278197 0.17776899
v -2.08513402 -1.30947494 0.17750699
v -2.6947751 -0.69745898 0.17750699
v -2.780344 -0.781304 0.17776899
v -2.08544206 -0.78119999 0.17827299
v -2.16846394 -0.69776797 0.17827299
v -2.780514 -1.309309 0.17700099
v -2.6972599 -1.39256298 0.17700099
v -2.43317294 -0.26700499 0.178009
v -2.34990501 -0.35027501 0.178009
v -2.51616311 -0.35016098 0.17776899
v -2.4329071 -0.43341499 0.17776899
v -2.780514 -0.61407697 0.17700099
v -2.085819 -0.61424499 0.17750699
v -2.6980791 -0.001264 0.177505
v -2.780344 -0.086073 0.17776899
v -2.08544206 -0.084732 0.17827299
v -2.16918993 -0.001459 0.17827299
v -1.73816204 -0.962237 0.178009
v -1.65489196 -1.045506 0.178009
v -1.82114899 -1.04539203 0.17776899
v -1.73789596 -1.12864697 0.17776899
v -1.47376203 -1.39278197 0.17776899
v -2.86870503 -0.69283801 0.17700099
v -1.99976301 -0.69745898 0.17750699
v -2.08584308 -1.47548604 0.17687399
v -1.47344994 -0.69776797 0.17827299
v -2.00229811 -0.000496 0.177505
v -2.00224804 -1.39256298 0.17700099
v -1.73816204 -0.26700499 0.178009
v -1.65489196 -0.35027501 0.178009
v -1.82114899 -0.35016098 0.17776899
v -1.73789596 -0.43341499 0.17776899
v -1.47378599 -0.000687 0.17827299
v -1.39230501 -1.47423899 0.176605
v -1.04255497 0.43071499 0.178009
v -0.95928597 0.34744599 0.178009
v -1.12554395 0.34755998 0.17776899
v -1.04228997 0.26430499 0.17776899
v -1.38872599 1.47548604 0.178009
v -0.69451099 0.08347699 0.17750699
v -1.30415499 0.69549298 0.17750699
v -1.39013397 0.61139601 0.17827299
v -0.69482201 0.61175102 0.17827299
v -0.77784299 0.69518399 0.17827299
v -1.38989794 0.08364199 0.17700099
v -1.73789596 0.95953702 0.17776899
v -1.04255497 1.12594699 0.178009
v -0.95928597 1.04267704 0.178009
v -1.12554395 1.042791 0.17776899
v -1.04228997 0.95953702 0.17776899
v -1.39032805 0.77972 0.177505
v -0.69520002 0.77870702 0.17750699
v -1.30673801 1.39003503 0.178009
v -1.38951802 1.30673694 0.17827299
v -0.69482201 1.30821895 0.17827299
v -0.77820301 1.38986301 0.17877699
v -0.347541 0.43071499 0.178009
v -0.26427099 0.34744599 0.178009
v -0.430527 0.34755998 0.17776899
v -0.34727299 0.26430499 0.17776899
v -2.00234699 1.39003503 0.178009
v -0.000181 0.083475 0.177505
v -0.60914099 0.69549298 0.17750699
v 0.000839 1.30673503 0.17827299
v 0.00263 0.61260801 0.17827299
v -0.08527 0.69652199 0.17827299
v -0.61172401 1.39003503 0.178009
v -1.47381103 1.38986301 0.17877699
v -0.347541 1.12594699 0.178009
v -0.26427099 1.04267704 0.178009
v -0.430527 1.042791 0.17776899
v -0.34727299 0.95953702 0.17776899
v -0.08318699 1.38986301 0.17877699
v 0.001831 0.779657 0.177505
v -0.69380497 1.47290802 0.17825199
v -2.43317294 0.43071499 0.178009
v -2.34990501 0.34744599 0.178009
v -2.51616311 0.34755998 0.17776899
v -2.4329071 0.26430499 0.17776899
v -1.73816204 1.12594699 0.178009
v -2.08513402 0.08347699 0.17750699
v -2.6947751 0.69549298 0.17750699
v -2.780344 0.61164802 0.17776899
v -2.08544206 0.61175102 0.17827299
v -2.16846394 0.69518399 0.17827299
v -2.780514 0.08364199 0.17700099
v -1.65489196 1.04267704 0.178009
v -2.43317294 1.12594699 0.178009
v -2.34990501 1.04267704 0.178009
v -2.51616311 1.042791 0.17776899
v -2.4329071 0.95953702 0.17776899
v -2.780514 0.77887398 0.17700099
v -2.085819 0.77870702 0.17750699
v -2.69736003 1.39003503 0.178009
v -2.780344 1.30687904 0.17776899
v -2.08544206 1.30821895 0.17827299
v -2.16882109 1.38986301 0.17877699
v -1.73816204 0.43071499 0.178009
v -1.65489196 0.34744599 0.178009
v -1.82114899 0.34755998 0.17776899
v -1.73789596 0.26430499 0.17776899
v -1.82114899 1.042791 0.17776899
v -2.86870503 0.70011299 0.17700099
v -1.99976301 0.69549298 0.17750699
v -2.08442497 1.47290802 0.17825199
v -1.47344994 0.69518399 0.17827299
v -2.86586189 0.002005 0.17700099
v 1.741755 -0.962237 0.178009
v 1.82502496 -1.045506 0.178009
v 1.65876698 -1.04539203 0.17776899
v 1.74202001 -1.12864697 0.17776899
v 2.00615906 -1.39278197 0.17776899
v 2.08979892 -1.30947494 0.17750699
v 1.48015499 -0.69745898 0.17750699
v 1.39417696 -0.78155601 0.17827299
v 2.08948898 -0.78119999 0.17827299
v 2.00646901 -0.69776797 0.17827299
v 1.39441394 -1.309309 0.17700099
v 1.477669 -1.39256298 0.17700099
v 1.741755 -0.26700499 0.178009
v 1.82502496 -0.35027501 0.178009
v 1.65876698 -0.35016098 0.17776899
v 1.74202001 -0.43341499 0.17776899
v 1.39398396 -0.613231 0.177505
v 2.08911109 -0.61424499 0.17750699
v 1.47762 -0.000484 0.177505
v 1.39479303 -0.08621499 0.17827299
v 2.08948898 -0.084732 0.17827299
v 2.00693798 -0.000655 0.17827299
v 2.4367721 -0.962237 0.178009
v 2.52004003 -1.045506 0.178009
v 2.35378289 -1.04539203 0.17776899
v 2.43703794 -1.12864697 0.17776899
v 2.70117211 -1.39278197 0.17776899
v 2.78417801 -1.30964195 0.178009
v 2.17517089 -0.69745898 0.17750699
v 2.78439211 -0.086358 0.17877699
v 2.78439211 -0.78158897 0.17877699
v 2.70148205 -0.69776797 0.17827299
v 2.17304611 -0.000036 0.177505
v 2.172683 -1.39256298 0.17700099
v 2.4367721 -0.26700499 0.178009
v 2.52004003 -0.35027501 0.178009
v 2.35378289 -0.35016098 0.17776899
v 2.43703794 -0.43341499 0.17776899
v 2.69951605 -0.000357 0.17827299
v 2.78417801 -0.61440998 0.178009
v 2.86725592 -0.69686698 0.17811699
v 2.0890901 -1.47548604 0.17687399
v 0.35113498 -0.962237 0.178009
v 0.43440198 -1.045506 0.178009
v 0.268146 -1.04539203 0.17776899
v 0.35139998 -1.12864697 0.17776899
v 0.61553597 -1.39278197 0.17776899
v 0.69917601 -1.30947494 0.17750699
v 0.08953499 -0.69745898 0.17750699
v 1.04641294 0.26430499 0.17776899
v 0.69886499 -0.78119999 0.17827299
v 0.61584502 -0.69776797 0.17827299
v 0.96315997 0.34755998 0.17776899
v 0.087049 -1.39256298 0.17700099
v 0.35113498 -0.26700499 0.178009
v 0.43440198 -0.35027501 0.178009
v 0.268146 -0.35016098 0.17776899
v 0.35139998 -0.43341499 0.17776899
v 0.96315997 1.042791 0.17776899
v 0.69848901 -0.61424499 0.17750699
v 0.085616 -0.001878 0.177505
v 0.78454601 0.69549298 0.17750699
v 0.69886499 -0.084732 0.17827299
v 0.61511898 -0.001459 0.17827299
v 1.04614603 -0.962237 0.178009
v 1.12941801 -1.045506 0.178009
v 0.96315997 -1.04539203 0.17776899
v 1.04641294 -1.12864697 0.17776899
v 1.31054997 -1.39278197 0.17776899
v 0.78454601 -0.69745898 0.17750699
v 0.698466 -1.47548604 0.17687399
v 1.31086003 -0.69776797 0.17827299
v 0.78201198 -0.000496 0.177505
v 0.78206098 -1.39256298 0.17700099
v 1.04614603 -0.26700499 0.178009
v 1.12941801 -0.35027501 0.178009
v 0.96315997 -0.35016098 0.17776899
v 1.04641294 -0.43341499 0.17776899
v 1.31052601 -0.000687 0.17827299
v 1.39200604 -1.47423899 0.176605
v 1.741755 0.43071499 0.178009
v 1.82502496 0.34744599 0.178009
v 1.65876698 0.34755998 0.17776899
v 1.74202001 0.26430499 0.17776899
v 1.39558494 1.47548604 0.178009
v 2.08979892 0.08347699 0.17750699
v 1.48015499 0.69549298 0.17750699
v 1.39417696 0.61139601 0.17827299
v 2.08948898 0.61175102 0.17827299
v 2.00646901 0.69518399 0.17827299
v 1.39441394 0.08364199 0.17700099
v 1.04641294 0.95953702 0.17776899
v 1.741755 1.12594699 0.178009
v 1.82502496 1.04267704 0.178009
v 1.65876698 1.042791 0.17776899
v 1.74202001 0.95953702 0.17776899
v 1.39398396 0.77972 0.177505
v 2.08911109 0.77870702 0.17750699
v 1.47757196 1.39003503 0.178009
v 1.39479303 1.30673694 0.17827299
v 2.08948898 1.30821895 0.17827299
v 2.00610804 1.38986301 0.17877699
v 2.4367721 0.43071499 0.178009
v 2.52004003 0.34744599 0.178009
v 2.35378289 0.34755998 0.17776899
v 2.43703794 0.26430499 0.17776899
v 0.78196299 1.39003503 0.178009
v 2.78417801 0.08331 0.178009
v 2.17517089 0.69549298 0.17750699
v 2.78439211 1.30659401 0.17877699
v 2.78439211 0.61136299 0.17877699
v 2.70148205 0.69518399 0.17827299
v 2.17258691 1.39003503 0.178009
v 1.31050097 1.38986301 0.17877699
v 2.4367721 1.12594699 0.178009
v 2.52004003 1.04267704 0.178009
v 2.35378289 1.042791 0.17776899
v 2.43703794 0.95953702 0.17776899
v 2.70112395 1.38986301 0.17877699
v 2.78417801 0.77854198 0.178009
v 2.86725592 0.69608497 0.17811699
v 2.09050607 1.47290802 0.17825199
v 0.35113498 0.43071499 0.178009
v 0.43440198 0.34744599 0.178009
v 0.268146 0.34755998 0.17776899
v 0.35139998 0.26430499 0.17776899
v 1.04614603 1.12594699 0.178009
v 0.69917601 0.08347699 0.17750699
v 0.090588 0.69549298 0.17750699
v 1.31086003 0.69518399 0.17827299
v 0.69886499 0.61175102 0.17827299
v 0.61584502 0.69518399 0.17827299
v 0.69988197 1.47290802 0.17825199
v 1.12941801 1.04267704 0.178009
v 0.35113498 1.12594699 0.178009
v 0.43440198 1.04267704 0.178009
v 0.268146 1.042791 0.17776899
v 0.35139998 0.95953702 0.17776899
v 2.86870503 -0.003037 0.178011
v 0.69848901 0.77870702 0.17750699
v 0.08694899 1.39003503 0.178009
v 1.12941801 0.34744599 0.178009
v 0.69886499 1.30821895 0.17827299
v 0.61548697 1.38986301 0.17877699
v 1.04614603 0.43071499 0.178009
v 0.002011 1.47227895 0.17816999
v 0.00232 -1.47509205 0.17676399
v -0.95911997 -1.04522705 -0.17737801
v -1.04201102 -1.12825501 -0.17761801
v -1.12546598 -1.04505896 -0.17761801
v -1.04251098 -0.96219199 -0.17737801
v -0.69518697 -1.30867803 -0.17788
v -0.77907002 -1.39202904 -0.17761699
v -1.39067101 -0.78184199 -0.177115
v -1.30481696 -0.698125 -0.17788098
v -0.77850902 -0.69844198 -0.17711399
v -0.695486 -0.78187197 -0.17711399
v -1.30719995 -1.39186596 -0.17838598
v -1.39044296 -1.30880296 -0.17838598
v -0.95929402 -0.350115 -0.17737801
v -1.04224705 -0.43337199 -0.17761801
v -1.12550103 -0.35011699 -0.17761801
v -1.04251205 -0.26696199 -0.17737801
v -0.69573998 -0.61462098 -0.17788098
v -1.39018905 -0.087231 -0.17711399
v -1.30712604 -0.001622 -0.17788301
v -0.77804601 -0.001323 -0.17711399
v -0.69536799 -0.085104 -0.177115
v -1.39099097 -0.61390101 -0.177882
v -0.264187 -1.04516696 -0.17737801
v -0.347231 -1.12813198 -0.17761801
v -0.43060699 -1.04510998 -0.17761801
v -0.347498 -0.96219199 -0.17737801
v 0.000243 -1.30869495 -0.17788098
v -0.084039 -1.39192199 -0.17761699
v -0.609806 -0.69812899 -0.17788098
v -0.082888 -0.69784098 -0.17711399
v 0.002095 -0.782422 -0.177115
v -0.612544 -1.39143896 -0.178383
v -0.264229 -0.350232 -0.17737801
v -0.34722998 -0.43337199 -0.17761801
v -0.430536 -0.34999901 -0.17761801
v -0.34749999 -0.266961 -0.17737801
v 0.001752 -0.61491602 -0.177882
v -0.61194002 -0.000701 -0.177882
v -0.08488299 -0.001039 -0.17711399
v 0.002628 -0.084425 -0.17711399
v -0.69686102 -1.47412502 -0.178506
v -2.34973907 -1.04522705 -0.17737801
v -2.43262791 -1.12825501 -0.17761801
v -2.51577091 -1.04511296 -0.17761801
v -2.43289399 -0.96207201 -0.17737801
v -2.08580899 -1.30867803 -0.17788
v -2.16968989 -1.39202904 -0.17761699
v -2.77977705 -0.78221601 -0.17761699
v -2.694103 -0.69812798 -0.17788
v -2.16912889 -0.69844198 -0.17711399
v -2.08610701 -0.78187197 -0.17711399
v -2.69674396 -1.39204704 -0.178385
v -2.77999711 -1.30879294 -0.178385
v -2.34991407 -0.35011398 -0.17737801
v -2.43263006 -0.43349298 -0.17761801
v -2.51564908 -0.35011601 -0.17761801
v -2.43289494 -0.26683899 -0.17737801
v -2.08635902 -0.61462098 -0.17788098
v -2.77975392 -0.08697299 -0.17761699
v -2.69739007 -0.001928 -0.17788098
v -2.16985988 -0.002124 -0.17711399
v -2.08598589 -0.085104 -0.177115
v -2.77957892 -0.61498498 -0.17838399
v -1.65498495 -1.04517495 -0.17737801
v -1.73809003 -1.12825501 -0.17761801
v -1.82122898 -1.04510998 -0.17761801
v -1.73811805 -0.96219199 -0.17737801
v -1.47502994 -1.39245498 -0.17761601
v -2.00042796 -0.69812899 -0.17788098
v -1.47411394 -0.69843697 -0.17711399
v -2.003165 -1.39143896 -0.178383
v -1.65484905 -0.35023298 -0.17737801
v -1.737854 -0.43337199 -0.17761801
v -1.821159 -0.34999901 -0.17761801
v -1.73811996 -0.26696199 -0.17737801
v -2.00296902 -0.001162 -0.177882
v -1.47469198 -0.001826 -0.17711399
v -2.86771607 -0.69446897 -0.17837999
v -2.08748388 -1.47412502 -0.178506
v -1.39393901 -1.47336101 -0.17877699
v -0.95924198 0.34748899 -0.17737801
v -1.04201102 0.264225 -0.17761801
v -1.12537396 0.347716 -0.17761899
v -1.04251098 0.43075999 -0.17737801
v -0.695185 0.08281 -0.17788098
v -1.39067101 0.61110997 -0.177115
v -1.30481696 0.694826 -0.17788098
v -0.77850902 0.69450998 -0.17711399
v -0.695486 0.61107999 -0.17711399
v -1.39044094 0.082911 -0.17838801
v -0.959387 1.043015 -0.17737801
v -1.04224705 0.95958 -0.17761801
v -1.12537896 1.043069 -0.17761801
v -1.04251396 1.12646198 -0.17737801
v -0.69573998 0.77833098 -0.17788098
v -1.39019 1.30689704 -0.17711399
v -1.30765199 1.38983202 -0.177377
v -0.77912002 1.39028894 -0.17660899
v -0.695369 1.30859696 -0.17711399
v -1.39099097 0.779051 -0.177882
v -0.26427999 0.347608 -0.17737801
v -0.347231 0.26434901 -0.17761801
v -0.43048399 0.347606 -0.17761801
v -0.347498 0.43075999 -0.17737801
v -0.000723 0.08309199 -0.17788301
v -0.609806 0.69482201 -0.17788098
v -0.085917 0.695849 -0.17711399
v 0.002105 0.61223298 -0.177115
v -0.26434901 1.04295694 -0.17737801
v -0.347229 0.95958197 -0.17761801
v -0.430444 1.04312896 -0.17761801
v -0.347498 1.12646102 -0.17737801
v 0.001185 0.77898299 -0.177882
v -0.61264097 1.39008903 -0.177377
v -0.08408399 1.39020001 -0.17661
v 0.000177 1.30700802 -0.17711399
v -0.69544398 1.47287201 -0.17713101
v -2.3498609 0.34749001 -0.17737801
v -2.43262696 0.26422599 -0.17761801
v -2.51564788 0.34760299 -0.17761801
v -2.43289399 0.43088001 -0.17737801
v -2.08580303 0.08281099 -0.17788098
v -2.77977705 0.61073601 -0.17761699
v -2.694103 0.69482302 -0.17788
v -2.16912889 0.69450998 -0.17711399
v -2.08610701 0.61107999 -0.17711399
v -2.77955293 0.08274299 -0.17838399
v -2.35000705 1.043015 -0.17737801
v -2.43263006 0.959459 -0.17761801
v -2.51552701 1.04307198 -0.17761699
v -2.43289589 1.126585 -0.177377
v -2.08635902 0.77833098 -0.17788098
v -2.77983093 1.307392 -0.17761699
v -2.69684696 1.39054799 -0.177377
v -2.16973805 1.39028894 -0.17660899
v -2.08598995 1.30859696 -0.17711399
v -2.77957892 0.77796697 -0.17838399
v -1.65507602 0.34760099 -0.17737899
v -1.73808801 0.26422599 -0.17761899
v -1.82110595 0.347606 -0.17761801
v -1.73811805 0.43075999 -0.17737801
v -2.00042796 0.69482201 -0.17788098
v -1.47411394 0.69451499 -0.17711399
v -1.654971 1.04295599 -0.17737801
v -1.737854 0.95958 -0.17761801
v -1.82106602 1.04312896 -0.17761801
v -1.738119 1.12646102 -0.177377
v -2.00326299 1.39008903 -0.177377
v -1.47472202 1.39003098 -0.17661
v -2.86771607 0.69848299 -0.17837999
v -2.0860641 1.47287201 -0.17713101
v -1.39035797 1.47493696 -0.177373
v -2.86482596 0.000398 -0.17837999
v 1.82519102 -1.04522705 -0.17737801
v 1.74229896 -1.12825501 -0.17761801
v 1.65884399 -1.04505896 -0.17761801
v 1.74179995 -0.96219199 -0.17737801
v 2.08912396 -1.30867803 -0.17788
v 2.0052421 -1.39202904 -0.17761699
v 1.39364004 -0.78184199 -0.177115
v 1.47949302 -0.698125 -0.17788098
v 2.00580406 -0.69844198 -0.17711399
v 2.08882498 -0.78187197 -0.17711399
v 1.47711002 -1.39186596 -0.17838598
v 1.39386904 -1.30880296 -0.17838598
v 1.82501697 -0.350115 -0.17737801
v 1.74206304 -0.43337199 -0.17761801
v 1.65881001 -0.35011699 -0.17761801
v 1.74179804 -0.26696199 -0.17737801
v 2.08857107 -0.61462098 -0.17788098
v 1.394122 -0.087231 -0.17711399
v 1.47718405 -0.001622 -0.17788301
v 2.00626492 -0.001323 -0.17711399
v 2.088943 -0.085104 -0.177115
v 1.39332103 -0.61390101 -0.177882
v 2.52067709 -1.04522705 -0.177377
v 2.43731594 -1.12800896 -0.17761699
v 2.35370397 -1.04510998 -0.17761801
v 2.43705105 -0.96231502 -0.17737801
v 2.78469109 -1.309129 -0.177377
v 2.70168495 -1.39226901 -0.17761699
v 2.17450499 -0.69812899 -0.17788098
v 2.70171594 -0.69844102 -0.17711399
v 2.78467106 -0.78250098 -0.17661
v 2.17176604 -1.39143896 -0.178383
v 2.52055311 -0.35023 -0.17737801
v 2.43731594 -0.43324899 -0.17761801
v 2.35377407 -0.34999901 -0.17761801
v 2.43704891 -0.26708099 -0.17737801
v 2.78408598 -0.61532402 -0.177377
v 2.17237091 -0.000701 -0.177882
v 2.69966507 -0.001019 -0.17711399
v 2.78454303 -0.087255 -0.17661
v 2.86692905 -0.69849997 -0.17726601
v 2.08745002 -1.47412502 -0.178506
v 0.43456798 -1.04522705 -0.17737801
v 0.351444 -1.12813305 -0.17761801
v 0.268049 -1.04505097 -0.17761801
v 0.35117998 -0.96219098 -0.17737801
v 0.69849997 -1.30867803 -0.17788
v 0.61461901 -1.39202904 -0.17761699
v 0.08887899 -0.69812601 -0.17788098
v 0.615179 -0.69844198 -0.17711399
v 0.698201 -0.78187197 -0.17711399
v 0.086152 -1.39133298 -0.178383
v 0.434394 -0.35011398 -0.17737801
v 0.35144299 -0.43337199 -0.17761801
v 0.26818698 -0.35011899 -0.17761801
v 0.35117501 -0.26696398 -0.17737801
v 0.69794899 -0.61462098 -0.17788098
v 0.084945 -0.002563 -0.177882
v 0.61444997 -0.002124 -0.17711399
v 0.69832199 -0.085104 -0.177115
v 1.12932503 -1.04517495 -0.17737801
v 1.04621899 -1.12825501 -0.17761801
v 0.96307998 -1.04510998 -0.17761801
v 1.04619002 -0.96219199 -0.17737801
v 1.30928301 -1.39245498 -0.17761601
v 0.783881 -0.69812899 -0.17788098
v 1.31019699 -0.69843697 -0.17711399
v 0.78114402 -1.39143896 -0.178383
v 1.12946105 -0.35023298 -0.17737801
v 1.04645502 -0.43337199 -0.17761801
v 0.96315097 -0.34999901 -0.17761801
v 1.04618799 -0.26696199 -0.17737801
v 0.78134 -0.001162 -0.177882
v 1.30962002 -0.001826 -0.17711399
v 0.69682598 -1.47412502 -0.178506
v 1.39037203 -1.47336101 -0.17877699
v 1.82506799 0.34748899 -0.17737801
v 1.74229896 0.264225 -0.17761801
v 1.65893602 0.347716 -0.17761899
v 1.74179995 0.43075999 -0.17737801
v 2.08912611 0.08281 -0.17788
v 1.39364004 0.61110997 -0.177115
v 1.47949302 0.694826 -0.17788098
v 2.00580406 0.69450998 -0.17711399
v 2.08882498 0.61107999 -0.17711399
v 1.39386999 0.082911 -0.17838801
v 1.82492303 1.043015 -0.17737801
v 1.74206304 0.95958 -0.17761801
v 1.65893197 1.043069 -0.17761801
v 1.74179601 1.12646198 -0.17737801
v 2.08857107 0.77833098 -0.17788098
v 1.39412105 1.30689704 -0.17711399
v 1.47665798 1.38983202 -0.177377
v 2.00519108 1.39028894 -0.17660899
v 2.08894109 1.30859696 -0.17711399
v 1.39332103 0.779051 -0.177882
v 2.52055406 0.34748798 -0.17737801
v 2.43731594 0.26447099 -0.17761801
v 2.353827 0.347606 -0.17761801
v 2.43705105 0.430637 -0.17737801
v 2.78396105 0.08240699 -0.177377
v 2.17450499 0.69482201 -0.17788098
v 2.70171594 0.69451099 -0.17711399
v 2.78467106 0.61045002 -0.17661
v 2.52043104 1.04295504 -0.17737801
v 2.43731594 0.95970302 -0.17761801
v 2.35386705 1.04312896 -0.17761801
v 2.4370501 1.126338 -0.17737801
v 2.78408598 0.777628 -0.177377
v 2.17166996 1.39008903 -0.177377
v 2.70163989 1.39037895 -0.17660899
v 2.78490805 1.30710995 -0.17660899
v 2.86692905 0.69445198 -0.17726601
v 2.08886694 1.47287201 -0.17713101
v 0.434446 0.34749001 -0.17737801
v 0.351444 0.26434901 -0.17761801
v 0.268139 0.34772399 -0.17761801
v 0.351179 0.430761 -0.17737801
v 0.69850599 0.08281099 -0.17788098
v 0.089942 0.694821 -0.17788098
v 0.615179 0.69450998 -0.17711399
v 0.698201 0.61107999 -0.17711399
v 0.43430098 1.043015 -0.17737801
v 0.35144299 0.95958 -0.17761801
v 0.268312 1.04306995 -0.17761801
v 0.35117599 1.12646198 -0.17737801
v 0.69794899 0.77833098 -0.17788098
v 0.086051 1.39000201 -0.177377
v 0.614569 1.39028894 -0.17660899
v 0.698318 1.30859696 -0.17711399
v 1.12923395 0.34760099 -0.17737899
v 1.04622101 0.26422599 -0.17761899
v 0.96320301 0.347606 -0.17761801
v 1.04619002 0.43075999 -0.17737801
v 0.783881 0.69482201 -0.17788098
v 1.31019699 0.69451499 -0.17711399
v 1.12933802 1.04295599 -0.17737801
v 1.04645502 0.95958 -0.17761801
v 0.963243 1.04312896 -0.17761801
v 1.04618895 1.12646102 -0.17737801
v 0.78104597 1.39008903 -0.177377
v 1.30958902 1.39003098 -0.17661
v 0.69824302 1.47287201 -0.17713101
v 1.39395201 1.47493696 -0.177373
v 2.86812806 -0.004646 -0.17737199
v 0.000407 1.47206902 -0.17721401
v 0.000715 -1.47351598 -0.178616
g Group32941
f 304 303 302 301
g Group35369
f 1 2 4 3
g Group32941
f 301 302 306 305
g Group32944
f 6 2 301 305
f 4 5 306 302
g Group35369
f 2 6 5 4
g Group32941
f 303 304 308 307
g Group32944
f 1 7 308 304
g Group35369
f 3 8 7 1
g Group32941
f 304 301 310 309
g Group32944
f 10 1 304 309
f 2 9 310 301
g Group35369
f 1 10 9 2
g Group32941
f 302 303 312 311
g Group32944
f 12 4 302 311
g Group35369
f 4 12 11 3
g Group32941
f 316 315 314 313
g Group35369
f 13 14 16 15
g Group32941
f 313 314 309 317
g Group32944
f 16 10 309 314
g Group35369
f 14 18 10 16
g Group32941
f 315 316 319 318
g Group32944
f 20 15 315 318
f 13 19 319 316
g Group35369
f 15 20 19 13
g Group32941
f 316 313 321 320
g Group32944
f 22 13 316 320
g Group35369
f 13 22 21 14
g Group32941
f 314 315 322 308
g Group32944
f 7 16 314 308
f 15 17 322 315
g Group35369
f 16 7 17 15
g Group32941
f 326 325 324 323
g Group35369
f 23 24 26 25
g Group32941
f 323 324 328 327
g Group32944
f 26 27 328 324
g Group35369
f 24 28 27 26
g Group32941
f 325 326 329 310
g Group32944
f 9 25 325 310
f 23 29 329 326
g Group35369
f 25 9 29 23
g Group32941
f 326 323 331 330
g Group32944
f 32 23 326 330
g Group35369
f 23 32 31 24
g Group32941
f 324 325 305 332
g Group32944
f 34 26 324 332
f 25 6 305 325
g Group35369
f 26 34 6 25
g Group32941
f 336 335 334 333
g Group35369
f 35 36 38 37
g Group32941
f 333 334 330 337
g Group32944
f 40 36 333 337
f 38 32 330 334
g Group35369
f 36 40 32 38
g Group32941
f 335 336 338 321
g Group32944
f 35 33 338 336
g Group35369
f 37 21 33 35
g Group32941
f 336 333 340 339
g Group32944
f 39 35 336 339
f 36 30 340 333
g Group35369
f 35 39 30 36
g Group32941
f 334 335 317 329
g Group32944
f 29 38 334 329
g Group35369
f 38 29 18 37
g Group32941
f 329 317 309 310
g Group35369
f 29 9 10 18
g Group32941
f 332 305 306 341
g Group32944
f 41 34 332 341
f 5 41 341 306
g Group35369
f 34 41 5 6
g Group32941
f 345 344 343 342
g Group35369
f 42 43 45 44
g Group32941
f 342 343 347 346
g Group32944
f 47 43 342 346
f 45 46 347 343
g Group35369
f 43 47 46 45
g Group32941
f 344 345 349 348
g Group32944
f 49 44 344 348
f 42 48 349 345
g Group35369
f 44 49 48 42
g Group32941
f 345 342 351 350
g Group32944
f 51 42 345 350
f 43 50 351 342
g Group35369
f 42 51 50 43
g Group32941
f 343 344 353 352
g Group32944
f 53 45 343 352
f 52 53 352 353
f 44 52 353 344
g Group35369
f 45 53 52 44
g Group32941
f 357 356 355 354
g Group35369
f 54 55 57 56
g Group32941
f 354 355 350 358
g Group32944
f 57 51 350 355
g Group35369
f 55 59 51 57
g Group32941
f 356 357 360 359
g Group32944
f 61 56 356 359
f 54 60 360 357
g Group35369
f 56 61 60 54
g Group32941
f 357 354 362 361
g Group32944
f 63 54 357 361
g Group35369
f 54 63 62 55
g Group32941
f 355 356 363 349
g Group32944
f 48 57 355 349
f 56 58 363 356
g Group35369
f 57 48 58 56
g Group32941
f 367 366 365 364
g Group35369
f 64 65 67 66
g Group32941
f 364 365 368 312
g Group32944
f 67 68 368 365
g Group35369
f 65 11 68 67
g Group32941
f 366 367 369 351
g Group32944
f 50 66 366 351
f 64 70 369 367
g Group35369
f 66 50 70 64
g Group32941
f 367 364 307 370
g Group32944
f 72 64 367 370
g Group35369
f 64 72 8 65
g Group32941
f 365 366 346 371
g Group32944
f 74 67 365 371
f 66 47 346 366
g Group35369
f 67 74 47 66
g Group32941
f 375 374 373 372
g Group35369
f 75 76 78 77
g Group32941
f 372 373 370 322
g Group32944
f 17 76 372 322
f 78 72 370 373
g Group35369
f 76 17 72 78
g Group32941
f 374 375 376 362
g Group32944
f 75 73 376 375
g Group35369
f 77 62 73 75
g Group32941
f 375 372 318 377
g Group32944
f 79 75 375 377
f 76 20 318 372
g Group35369
f 75 79 20 76
g Group32941
f 373 374 358 369
g Group32944
f 70 78 373 369
g Group35369
f 78 70 59 77
g Group32941
f 369 358 350 351
g Group35369
f 70 50 51 59
g Group32941
f 349 363 378 348
g Group32944
f 69 49 348 378
f 58 69 378 363
g Group35369
f 48 49 69 58
g Group32941
f 371 346 347 379
g Group32944
f 71 74 371 379
f 46 71 379 347
g Group35369
f 74 71 46 47
g Group32941
f 308 322 370 307
g Group35369
f 7 8 72 17
g Group32941
f 311 312 368 380
g Group32944
f 80 12 311 380
f 68 80 380 368
g Group35369
f 12 80 68 11
g Group32941
f 384 383 382 381
g Group35369
f 81 82 84 83
g Group32941
f 381 382 320 385
g Group32944
f 86 82 381 385
f 84 22 320 382
g Group35369
f 82 86 22 84
g Group32941
f 383 384 387 386
g Group32944
f 81 87 387 384
g Group35369
f 83 88 87 81
g Group32941
f 384 381 389 388
g Group32944
f 90 81 384 388
f 82 89 389 381
g Group35369
f 81 90 89 82
g Group32941
f 382 383 390 319
g Group32944
f 19 84 382 319
g Group35369
f 84 19 91 83
g Group32941
f 394 393 392 391
g Group35369
f 93 94 96 95
g Group32941
f 391 392 388 395
g Group32944
f 96 90 388 392
g Group35369
f 94 98 90 96
g Group32941
f 393 394 397 396
g Group32944
f 100 95 393 396
f 93 99 397 394
g Group35369
f 95 100 99 93
g Group32941
f 394 391 399 398
g Group32944
f 102 93 394 398
g Group35369
f 93 102 101 94
g Group32941
f 392 393 400 387
g Group32944
f 87 96 392 387
f 95 97 400 393
g Group35369
f 96 87 97 95
g Group32941
f 404 403 402 401
g Group35369
f 103 104 106 105
g Group32941
f 401 402 339 405
g Group32944
f 106 39 339 402
g Group35369
f 104 108 39 106
g Group32941
f 403 404 406 389
g Group32944
f 89 105 403 389
f 103 109 406 404
g Group35369
f 105 89 109 103
g Group32941
f 404 401 408 407
g Group32944
f 112 103 404 407
g Group35369
f 103 112 111 104
g Group32941
f 402 403 385 338
g Group32944
f 33 106 402 338
f 105 86 385 403
g Group35369
f 106 33 86 105
g Group32941
f 412 411 410 409
g Group35369
f 115 116 118 117
g Group32941
f 409 410 407 413
g Group32944
f 120 116 409 413
f 118 112 407 410
g Group35369
f 116 120 112 118
g Group32941
f 411 412 414 399
g Group32944
f 115 113 414 412
g Group35369
f 117 101 113 115
g Group32941
f 412 409 416 415
g Group32944
f 119 115 412 415
f 116 110 416 409
g Group35369
f 115 119 110 116
g Group32941
f 410 411 395 406
g Group32944
f 109 118 410 406
g Group35369
f 118 109 98 117
g Group32941
f 406 395 388 389
g Group35369
f 109 89 90 98
g Group32941
f 399 414 417 398
g Group32944
f 121 102 398 417
f 113 121 417 414
g Group35369
f 101 102 121 113
g Group32941
f 421 420 419 418
g Group35369
f 122 123 125 124
g Group32941
f 418 419 361 422
g Group32944
f 127 123 418 422
f 125 63 361 419
g Group35369
f 123 127 63 125
g Group32941
f 420 421 424 423
g Group32944
f 129 124 420 423
f 122 128 424 421
g Group35369
f 124 129 128 122
g Group32941
f 421 418 426 425
g Group32944
f 131 122 421 425
f 123 130 426 418
g Group35369
f 122 131 130 123
g Group32941
f 419 420 427 360
g Group32944
f 60 125 419 360
f 124 132 427 420
g Group35369
f 125 60 132 124
g Group32941
f 431 430 429 428
g Group35369
f 134 135 137 136
g Group32941
f 428 429 425 432
g Group32944
f 137 131 425 429
g Group35369
f 135 139 131 137
g Group32941
f 430 431 434 433
g Group32944
f 141 136 430 433
f 140 141 433 434
f 134 140 434 431
g Group35369
f 136 141 140 134
g Group32941
f 431 428 436 435
g Group32944
f 143 134 431 435
g Group35369
f 134 143 142 135
g Group32941
f 429 430 437 424
g Group32944
f 128 137 429 424
f 136 138 437 430
g Group35369
f 137 128 138 136
g Group32941
f 441 440 439 438
g Group35369
f 144 145 147 146
g Group32941
f 438 439 377 390
g Group32944
f 147 79 377 439
g Group35369
f 145 91 79 147
g Group32941
f 440 441 442 426
g Group32944
f 130 146 440 426
f 144 150 442 441
g Group35369
f 146 130 150 144
g Group32941
f 441 438 386 443
g Group32944
f 152 144 441 443
g Group35369
f 144 152 88 145
g Group32941
f 439 440 422 376
g Group32944
f 73 147 439 376
f 146 127 422 440
g Group35369
f 147 73 127 146
g Group32941
f 447 446 445 444
g Group35369
f 126 133 92 148
g Group32941
f 444 445 443 400
g Group32944
f 97 133 444 400
f 92 152 443 445
g Group35369
f 133 97 152 92
g Group32941
f 446 447 448 436
g Group32944
f 126 107 448 447
g Group35369
f 148 142 107 126
g Group32941
f 447 444 396 449
g Group32944
f 114 126 447 449
f 133 100 396 444
g Group35369
f 126 114 100 133
g Group32941
f 445 446 432 442
g Group32944
f 150 92 445 442
g Group35369
f 92 150 139 148
g Group32941
f 442 432 425 426
g Group35369
f 150 130 131 139
g Group32941
f 424 437 450 423
g Group32944
f 149 129 423 450
f 138 149 450 437
g Group35369
f 128 129 149 138
g Group32941
f 436 448 451 435
g Group32944
f 151 143 435 451
f 107 151 451 448
g Group35369
f 142 143 151 107
g Group32941
f 387 400 443 386
g Group35369
f 87 88 152 97
g Group32941
f 396 397 452 449
g Group32944
f 85 114 449 452
f 99 85 452 397
g Group35369
f 100 114 85 99
g Group32941
f 385 320 321 338
g Group35369
f 86 33 21 22
g Group32941
f 390 377 318 319
g Group35369
f 91 19 20 79
g Group32941
f 422 361 362 376
g Group35369
f 127 73 62 63
g Group32941
f 360 427 453 359
g Group32944
f 153 61 359 453
f 132 153 453 427
g Group35369
f 60 61 153 132
g Group32941
f 457 456 455 454
g Group35369
f 154 155 157 156
g Group32941
f 454 455 459 458
g Group32944
f 159 155 454 458
f 157 158 459 455
g Group35369
f 155 159 158 157
g Group32941
f 456 457 461 460
g Group32944
f 154 160 461 457
g Group35369
f 156 161 160 154
g Group32941
f 457 454 463 462
g Group32944
f 163 154 457 462
f 155 162 463 454
g Group35369
f 154 163 162 155
g Group32941
f 455 456 465 464
g Group32944
f 165 157 455 464
g Group35369
f 157 165 164 156
g Group32941
f 469 468 467 466
g Group35369
f 166 167 169 168
g Group32941
f 466 467 462 470
g Group32944
f 169 163 462 467
g Group35369
f 167 171 163 169
g Group32941
f 468 469 472 471
g Group32944
f 173 168 468 471
f 166 172 472 469
g Group35369
f 168 173 172 166
g Group32941
f 469 466 474 473
g Group32944
f 175 166 469 473
g Group35369
f 166 175 174 167
g Group32941
f 467 468 475 461
g Group32944
f 160 169 467 461
f 168 170 475 468
g Group35369
f 169 160 170 168
g Group32941
f 479 478 477 476
g Group35369
f 176 177 179 178
g Group32941
f 476 477 481 480
g Group32944
f 181 177 476 480
f 180 181 480 481
f 179 180 481 477
g Group35369
f 177 181 180 179
g Group32941
f 478 479 482 463
g Group32944
f 162 178 478 463
f 176 182 482 479
g Group35369
f 178 162 182 176
g Group32941
f 479 476 484 483
g Group32944
f 185 176 479 483
f 177 184 484 476
g Group35369
f 176 185 184 177
g Group32941
f 477 478 458 485
g Group32944
f 187 179 477 485
f 178 159 458 478
g Group35369
f 179 187 159 178
g Group32941
f 489 488 487 486
g Group35369
f 188 189 191 190
g Group32941
f 486 487 483 490
g Group32944
f 193 189 486 490
f 191 185 483 487
g Group35369
f 189 193 185 191
g Group32941
f 488 489 491 474
g Group32944
f 188 186 491 489
g Group35369
f 190 174 186 188
g Group32941
f 489 486 493 492
g Group32944
f 192 188 489 492
f 189 183 493 486
g Group35369
f 188 192 183 189
g Group32941
f 487 488 470 482
g Group32944
f 182 191 487 482
g Group35369
f 191 182 171 190
g Group32941
f 482 470 462 463
g Group35369
f 182 162 163 171
g Group32941
f 490 483 484 494
g Group32944
f 194 193 490 494
f 184 194 494 484
g Group35369
f 193 194 184 185
g Group32941
f 485 458 459 495
g Group32944
f 195 187 485 495
f 158 195 495 459
g Group35369
f 187 195 158 159
g Group32941
f 499 498 497 496
g Group35369
f 196 197 199 198
g Group32941
f 496 497 501 500
g Group32944
f 201 197 496 500
f 199 200 501 497
g Group35369
f 197 201 200 199
g Group32941
f 498 499 502 331
g Group32944
f 196 202 502 499
g Group35369
f 198 31 202 196
g Group32941
f 499 496 504 503
g Group32944
f 205 196 499 503
f 197 204 504 496
g Group35369
f 196 205 204 197
g Group32941
f 497 498 327 505
g Group32944
f 207 199 497 505
g Group35369
f 199 207 28 198
g Group32941
f 509 508 507 506
g Group35369
f 208 209 211 210
g Group32941
f 506 507 503 510
g Group32944
f 211 205 503 507
g Group35369
f 209 213 205 211
g Group32941
f 508 509 511 340
g Group32944
f 30 210 508 340
f 208 214 511 509
g Group35369
f 210 30 214 208
g Group32941
f 509 506 513 512
g Group32944
f 217 208 509 512
g Group35369
f 208 217 216 209
g Group32941
f 507 508 337 502
g Group32944
f 202 211 507 502
f 210 40 337 508
g Group35369
f 211 202 40 210
g Group32941
f 517 516 515 514
g Group35369
f 218 219 221 220
g Group32941
f 514 515 518 465
g Group32944
f 221 222 518 515
g Group35369
f 219 164 222 221
g Group32941
f 516 517 519 504
g Group32944
f 204 220 516 504
f 218 223 519 517
g Group35369
f 220 204 223 218
g Group32941
f 517 514 460 520
g Group32944
f 225 218 517 520
g Group35369
f 218 225 161 219
g Group32941
f 515 516 500 521
g Group32944
f 227 221 515 521
f 220 201 500 516
g Group35369
f 221 227 201 220
g Group32941
f 525 524 523 522
g Group35369
f 228 229 231 230
g Group32941
f 522 523 520 475
g Group32944
f 170 229 522 475
f 231 225 520 523
g Group35369
f 229 170 225 231
g Group32941
f 524 525 526 513
g Group32944
f 228 226 526 525
g Group35369
f 230 216 226 228
g Group32941
f 525 522 471 527
g Group32944
f 232 228 525 527
f 229 173 471 522
g Group35369
f 228 232 173 229
g Group32941
f 523 524 510 519
g Group32944
f 223 231 523 519
g Group35369
f 231 223 213 230
g Group32941
f 519 510 503 504
g Group35369
f 223 204 205 213
g Group32941
f 521 500 501 528
g Group32944
f 224 227 521 528
f 200 224 528 501
g Group35369
f 227 224 200 201
g Group32941
f 461 475 520 460
g Group35369
f 160 161 225 170
g Group32941
f 464 465 518 529
g Group32944
f 233 165 464 529
f 222 233 529 518
g Group35369
f 165 233 222 164
g Group32941
f 533 532 531 530
g Group35369
f 234 235 237 236
g Group32941
f 530 531 473 534
g Group32944
f 239 235 530 534
f 237 175 473 531
g Group35369
f 235 239 175 237
g Group32941
f 532 533 536 535
g Group32944
f 234 240 536 533
g Group35369
f 236 241 240 234
g Group32941
f 533 530 538 537
g Group32944
f 243 234 533 537
f 235 242 538 530
g Group35369
f 234 243 242 235
g Group32941
f 531 532 539 472
g Group32944
f 172 237 531 472
g Group35369
f 237 172 244 236
g Group32941
f 543 542 541 540
g Group35369
f 246 247 249 248
g Group32941
f 540 541 537 544
g Group32944
f 249 243 537 541
g Group35369
f 247 251 243 249
g Group32941
f 542 543 546 545
g Group32944
f 253 248 542 545
f 246 252 546 543
g Group35369
f 248 253 252 246
g Group32941
f 543 540 548 547
g Group32944
f 255 246 543 547
g Group35369
f 246 255 254 247
g Group32941
f 541 542 549 536
g Group32944
f 240 249 541 536
f 248 250 549 542
g Group35369
f 249 240 250 248
g Group32941
f 553 552 551 550
g Group35369
f 256 257 259 258
g Group32941
f 550 551 492 554
g Group32944
f 261 257 550 554
f 259 192 492 551
g Group35369
f 257 261 192 259
g Group32941
f 552 553 555 538
g Group32944
f 242 258 552 538
f 256 262 555 553
g Group35369
f 258 242 262 256
g Group32941
f 553 550 557 556
g Group32944
f 265 256 553 556
f 257 264 557 550
g Group35369
f 256 265 264 257
g Group32941
f 551 552 534 491
g Group32944
f 186 259 551 491
f 258 239 534 552
g Group35369
f 259 186 239 258
g Group32941
f 561 560 559 558
g Group35369
f 268 269 271 270
g Group32941
f 558 559 556 562
g Group32944
f 273 269 558 562
f 271 265 556 559
g Group35369
f 269 273 265 271
g Group32941
f 560 561 563 548
g Group32944
f 268 266 563 561
g Group35369
f 270 254 266 268
g Group32941
f 561 558 565 564
g Group32944
f 272 268 561 564
f 263 272 564 565
f 269 263 565 558
g Group35369
f 268 272 263 269
g Group32941
f 559 560 544 555
g Group32944
f 262 271 559 555
g Group35369
f 271 262 251 270
g Group32941
f 555 544 537 538
g Group35369
f 262 242 243 251
g Group32941
f 562 556 557 566
g Group32944
f 274 273 562 566
f 264 274 566 557
g Group35369
f 273 274 264 265
g Group32941
f 548 563 567 547
g Group32944
f 275 255 547 567
f 266 275 567 563
g Group35369
f 254 255 275 266
g Group32941
f 571 570 569 568
g Group35369
f 276 277 279 278
g Group32941
f 568 569 512 572
g Group32944
f 281 277 568 572
f 279 217 512 569
g Group35369
f 277 281 217 279
g Group32941
f 570 571 573 408
g Group32944
f 276 282 573 571
g Group35369
f 278 111 282 276
g Group32941
f 571 568 575 574
g Group32944
f 285 276 571 574
f 277 284 575 568
g Group35369
f 276 285 284 277
g Group32941
f 569 570 405 511
g Group32944
f 214 279 569 511
g Group35369
f 279 214 108 278
g Group32941
f 579 578 577 576
g Group35369
f 288 289 291 290
g Group32941
f 576 577 574 580
g Group32944
f 291 285 574 577
g Group35369
f 289 293 285 291
g Group32941
f 578 579 581 416
g Group32944
f 110 290 578 416
f 288 294 581 579
g Group35369
f 290 110 294 288
g Group32941
f 579 576 583 582
g Group32944
f 297 288 579 582
g Group35369
f 288 297 296 289
g Group32941
f 577 578 413 573
g Group32944
f 282 291 577 573
f 290 120 413 578
g Group35369
f 291 282 120 290
g Group32941
f 587 586 585 584
g Group35369
f 298 295 203 206
g Group32941
f 584 585 527 539
g Group32944
f 203 232 527 585
g Group35369
f 295 244 232 203
g Group32941
f 586 587 588 575
g Group32944
f 284 206 586 575
f 298 215 588 587
g Group35369
f 206 284 215 298
g Group32941
f 587 584 535 589
g Group32944
f 283 298 587 589
g Group35369
f 298 283 241 295
g Group32941
f 585 586 572 526
g Group32944
f 226 203 585 526
f 206 281 572 586
g Group35369
f 203 226 281 206
g Group32941
f 593 592 591 590
g Group35369
f 280 287 245 212
g Group32941
f 590 591 589 549
g Group32944
f 250 287 590 549
f 245 283 589 591
g Group35369
f 287 250 283 245
g Group32941
f 592 593 594 583
g Group32944
f 280 260 594 593
g Group35369
f 212 296 260 280
g Group32941
f 593 590 545 595
g Group32944
f 267 280 593 595
f 287 253 545 590
g Group35369
f 280 267 253 287
g Group32941
f 591 592 580 588
g Group32944
f 215 245 591 588
g Group35369
f 245 215 293 212
g Group32941
f 588 580 574 575
g Group35369
f 215 284 285 293
g Group32941
f 583 594 596 582
g Group32944
f 286 297 582 596
f 260 286 596 594
g Group35369
f 296 297 286 260
g Group32941
f 536 549 589 535
g Group35369
f 240 241 283 250
g Group32941
f 545 546 597 595
g Group32944
f 238 267 595 597
f 252 238 597 546
g Group35369
f 253 267 238 252
g Group32941
f 554 492 493 598
g Group32944
f 292 261 554 598
f 183 292 598 493
g Group35369
f 261 292 183 192
g Group32941
f 534 473 474 491
g Group35369
f 239 186 174 175
g Group32941
f 539 527 471 472
g Group35369
f 244 172 173 232
g Group32941
f 572 512 513 526
g Group35369
f 281 226 216 217
g Group32941
f 416 581 599 415
g Group32944
f 299 119 415 599
f 294 299 599 581
g Group35369
f 110 119 299 294
g Group32941
f 573 413 407 408
g Group35369
f 282 111 112 120
g Group32941
f 511 405 339 340
g Group35369
f 214 30 39 108
g Group32941
f 502 337 330 331
g Group35369
f 202 31 32 40
g Group32941
f 505 327 328 600
g Group32944
f 300 207 505 600
f 27 300 600 328
g Group35369
f 207 300 27 28
g Group32941
f 436 428 432 446
g Group35369
f 142 148 139 135
g Group32941
f 399 391 395 411
g Group35369
f 101 117 98 94
g Group32941
f 583 576 580 592
g Group35369
f 296 212 293 289
g Group32941
f 548 540 544 560
g Group35369
f 254 270 251 247
g Group32941
f 383 386 438 390
g Group35369
f 83 91 145 88
g Group32941
f 570 408 401 405
g Group35369
f 278 108 104 111
g Group32941
f 532 535 584 539
g Group35369
f 236 244 295 241
g Group32941
f 374 362 354 358
g Group35369
f 77 59 55 62
g Group32941
f 335 321 313 317
g Group35369
f 37 18 14 21
g Group32941
f 524 513 506 510
g Group35369
f 230 213 209 216
g Group32941
f 488 474 466 470
g Group35369
f 190 171 167 174
g Group32941
f 307 364 312 303
g Group35369
f 8 3 11 65
g Group32941
f 331 323 327 498
g Group35369
f 31 198 28 24
g Group32941
f 460 514 465 456
g Group35369
f 161 156 164 219

 