# File exported by ZBrush version 2021
# www.zbrush.com
#Vertex Count 584
#Face Count 648
#Auto scale x=1.000000 y=1.000000 z=1.000000
#Auto offset x=0.000000 y=0.000000 z=0.000000
v -1.00609195 -0.92858302 0.16765549
v -0.92573499 -1.00893902 0.16765549
v -1.08617794 -1.00882899 0.1674245
v -1.00583601 -1.08917295 0.1674245
v -0.75093799 -1.34406995 0.1674245
v -0.67022097 -1.263677 0.16717051
v -1.25854301 -0.673065 0.16717051
v -1.34151399 -0.75422102 0.1679105
v -0.67052102 -0.75387799 0.1679105
v -0.75063902 -0.67336297 0.1679105
v -1.34128701 -1.26351702 0.16668351
v -1.26094198 -1.34385895 0.16668351
v -1.00609195 -0.257667 0.16765549
v -0.92573499 -0.33802399 0.16765549
v -1.08617794 -0.33791399 0.1674245
v -1.00583601 -0.41825601 0.1674245
v -1.34170198 -0.591784 0.16716951
v -0.67088502 -0.59276199 0.16717051
v -1.26098895 -0.000467 0.16716951
v -1.34091901 -0.0832 0.1679105
v -0.67052102 -0.08176899 0.1679105
v -0.750184 -0.000632 0.1679105
v -0.335386 -0.92858302 0.16765549
v -0.25502899 -1.00893902 0.16765549
v -0.41546899 -1.00882899 0.1674245
v -0.33512699 -1.08917295 0.1674245
v -0.080231 -1.34406995 0.1674245
v 0.000753 -1.263677 0.16716951
v -0.58783602 -0.673065 0.16717051
v 0.003185 -0.080812 0.1679105
v 0.002535 -0.75469797 0.1679105
v -0.079355 -0.67278599 0.1679105
v -0.58988702 -0.000035 0.16716951
v -0.590236 -1.34385895 0.16668351
v -0.335386 -0.257667 0.16765549
v -0.25502899 -0.33802399 0.16765549
v -0.41546899 -0.33791399 0.1674245
v -0.33512699 -0.41825601 0.1674245
v -0.08126799 -0.000344 0.1679105
v 0.002325 -0.59276199 0.16716951
v -0.670906 -1.42388105 0.1665605
v -2.348073 -0.92858302 0.16765549
v -2.26771688 -1.00893902 0.16765549
v -2.42815995 -1.00882899 0.1674245
v -2.34781694 -1.08917295 0.1674245
v -2.09292101 -1.34406995 0.1674245
v -2.01220703 -1.263677 0.16717051
v -2.6005249 -0.673065 0.16717051
v -2.68310189 -0.75397801 0.1674245
v -2.01250505 -0.75387799 0.1679105
v -2.09262299 -0.67336297 0.1679105
v -2.348073 -0.257667 0.16765549
v -2.26771688 -0.33802399 0.16765549
v -2.42815995 -0.33791399 0.1674245
v -2.34781694 -0.41825601 0.1674245
v -2.68326592 -0.59259998 0.16668351
v -2.01286792 -0.59276199 0.16717051
v -2.60371398 -0.00122 0.16716951
v -2.68310189 -0.08306299 0.1674245
v -2.01250505 -0.08176899 0.1679105
v -2.09332299 -0.001408 0.1679105
v -1.67736995 -0.92858302 0.16765549
v -1.59701299 -1.00893902 0.16765549
v -1.75745499 -1.00882899 0.1674245
v -1.67711401 -1.08917295 0.1674245
v -1.42221701 -1.34406995 0.1674245
v -2.76837301 -0.66860598 0.16668351
v -1.92982196 -0.673065 0.16717051
v -2.01289105 -1.42388105 0.1665605
v -1.42191696 -0.67336297 0.1679105
v -1.93226802 -0.000479 0.16716951
v -1.93221998 -1.34385895 0.16668351
v -1.67736995 -0.257667 0.16765549
v -1.59701299 -0.33802399 0.16765549
v -1.75745499 -0.33791399 0.1674245
v -1.67711401 -0.41825601 0.1674245
v -1.42224097 -0.000663 0.1679105
v -1.34361004 -1.42267799 0.1663005
v -1.00609195 0.41565099 0.16765549
v -0.92573499 0.335294 0.16765549
v -1.08617794 0.335404 0.1674245
v -1.00583601 0.255061 0.1674245
v -1.340155 1.42388105 0.16765549
v -0.67022097 0.080557 0.16717051
v -1.25854301 0.67116802 0.16717051
v -1.34151399 0.59001302 0.1679105
v -0.67052102 0.59035497 0.1679105
v -0.75063902 0.67087 0.1679105
v -1.34128701 0.08071699 0.16668351
v -1.67711401 0.925978 0.1674245
v -1.00609195 1.08656704 0.16765549
v -0.92573499 1.00620997 0.16765549
v -1.08617794 1.00632 0.1674245
v -1.00583601 0.925978 0.1674245
v -1.34170198 0.75244998 0.16716951
v -0.67088502 0.75147199 0.16717051
v -1.26103496 1.34141802 0.16765549
v -1.34091901 1.26103401 0.1679105
v -0.67052102 1.262465 0.1679105
v -0.75098502 1.34125304 0.1683965
v -0.335386 0.41565099 0.16765549
v -0.25502899 0.335294 0.16765549
v -0.41546899 0.335404 0.1674245
v -0.33512699 0.255061 0.1674245
v -1.93231499 1.34141802 0.16765549
v -0.000175 0.08055599 0.16716951
v -0.58783602 0.67116802 0.16717051
v 0.000809 1.26103305 0.1679105
v 0.002538 0.59118199 0.1679105
v -0.08228799 0.67216199 0.1679105
v -0.59032899 1.34141802 0.16765549
v -1.42226505 1.34125304 0.1683965
v -0.335386 1.08656704 0.16765549
v -0.25502899 1.00620997 0.16765549
v -0.41546899 1.00632 0.1674245
v -0.33512699 0.925978 0.1674245
v -0.080277 1.34125304 0.1683965
v 0.001767 0.752388 0.16716951
v -0.66953897 1.42139303 0.1678895
v -2.348073 0.41565099 0.16765549
v -2.26771688 0.335294 0.16765549
v -2.42815995 0.335404 0.1674245
v -2.34781694 0.255061 0.1674245
v -1.67736995 1.08656704 0.16765549
v -2.01220703 0.080557 0.16717051
v -2.6005249 0.67116802 0.16717051
v -2.68310189 0.59025597 0.1674245
v -2.01250505 0.59035497 0.1679105
v -2.09262299 0.67087 0.1679105
v -2.68326592 0.08071699 0.16668351
v -1.59701299 1.00620997 0.16765549
v -2.348073 1.08656704 0.16765549
v -2.26771688 1.00620997 0.16765549
v -2.42815995 1.00632 0.1674245
v -2.34781694 0.925978 0.1674245
v -2.68326592 0.75163298 0.16668351
v -2.01286792 0.75147199 0.16717051
v -2.01250505 1.262465 0.1679105
v -2.09296703 1.34125304 0.1683965
v -1.67736995 0.41565099 0.16765549
v -1.59701299 0.335294 0.16765549
v -1.75745499 0.335404 0.1674245
v -1.67711401 0.255061 0.1674245
v -1.75745499 1.00632 0.1674245
v -2.76837301 0.67562699 0.16668351
v -1.92982196 0.67116802 0.16717051
v -2.011523 1.42139303 0.1678895
v -1.42191696 0.67087 0.1679105
v -2.76563 0.001935 0.16668351
v 1.68083798 -0.92858302 0.16765549
v 1.76119494 -1.00893902 0.16765549
v 1.60075199 -1.00882899 0.1674245
v 1.68109405 -1.08917295 0.1674245
v 1.93599295 -1.34406995 0.1674245
v 2.01670908 -1.263677 0.16717051
v 1.42838704 -0.673065 0.16717051
v 1.34541595 -0.75422102 0.1679105
v 2.01641011 -0.75387799 0.1679105
v 1.936293 -0.67336297 0.1679105
v 1.34564399 -1.26351702 0.16668351
v 1.42598795 -1.34385895 0.16668351
v 1.68083798 -0.257667 0.16765549
v 1.76119494 -0.33802399 0.16765549
v 1.60075199 -0.33791399 0.1674245
v 1.68109405 -0.41825601 0.1674245
v 1.34522998 -0.591784 0.16716951
v 2.01604509 -0.59276199 0.16717051
v 1.42594003 -0.000467 0.16716951
v 1.34601104 -0.0832 0.1679105
v 2.01641011 -0.08176899 0.1679105
v 1.936746 -0.000632 0.1679105
v 2.35154604 -0.92858302 0.16765549
v 2.43190193 -1.00893902 0.16765549
v 2.27146101 -1.00882899 0.1674245
v 2.35180306 -1.08917295 0.1674245
v 2.09909391 -0.673065 0.16717051
v 2.6870079 -0.083338 0.1683965
v 2.6870079 -0.75425297 0.1683965
v 2.60699796 -0.67336297 0.1679105
v 2.09704399 -0.000035 0.16716951
v 2.09669399 -1.34385895 0.16668351
v 2.35154604 -0.257667 0.16765549
v 2.43190193 -0.33802399 0.16765549
v 2.27146101 -0.33791399 0.1674245
v 2.35180306 -0.41825601 0.1674245
v 2.6051011 -0.000344 0.1679105
v 2.68680095 -0.59292101 0.16765549
v 2.76697492 -0.67249399 0.1677595
v 2.01602411 -1.42388105 0.1665605
v 0.33885401 -0.92858302 0.16765549
v 0.419209 -1.00893902 0.16765549
v 0.25876799 -1.00882899 0.1674245
v 0.33910998 -1.08917295 0.1674245
v 0.59400802 -1.34406995 0.1674245
v 0.67472201 -1.263677 0.16717051
v 0.086404 -0.673065 0.16717051
v 1.00981402 0.255061 0.1674245
v 0.67442297 -0.75387799 0.1679105
v 0.59430599 -0.67336297 0.1679105
v 0.92947298 0.335404 0.1674245
v 0.084004 -1.34385895 0.16668351
v 0.33885401 -0.257667 0.16765549
v 0.419209 -0.33802399 0.16765549
v 0.25876799 -0.33791399 0.1674245
v 0.33910998 -0.41825601 0.1674245
v 0.92947298 1.00632 0.1674245
v 0.67405897 -0.59276199 0.16717051
v 0.08262199 -0.001812 0.16716951
v 0.75710701 0.67116802 0.16717051
v 0.67442297 -0.08176899 0.1679105
v 0.59360599 -0.001408 0.1679105
v 1.009557 -0.92858302 0.16765549
v 1.08991599 -1.00893902 0.16765549
v 0.92947298 -1.00882899 0.1674245
v 1.00981402 -1.08917295 0.1674245
v 1.264714 -1.34406995 0.1674245
v 0.75710701 -0.673065 0.16717051
v 0.67403799 -1.42388105 0.1665605
v 1.26501298 -0.67336297 0.1679105
v 0.75466102 -0.000479 0.16716951
v 0.75470799 -1.34385895 0.16668351
v 1.009557 -0.257667 0.16765549
v 1.08991599 -0.33802399 0.16765549
v 0.92947298 -0.33791399 0.1674245
v 1.00981402 -0.41825601 0.1674245
v 1.26469099 -0.000663 0.1679105
v 1.34332001 -1.42267799 0.1663005
v 1.68083798 0.41565099 0.16765549
v 1.76119494 0.335294 0.16765549
v 1.60075199 0.335404 0.1674245
v 1.68109405 0.255061 0.1674245
v 1.34677398 1.42388105 0.16765549
v 2.01670908 0.080557 0.16717051
v 1.42838704 0.67116802 0.16717051
v 1.34541595 0.59001302 0.1679105
v 2.01641011 0.59035497 0.1679105
v 1.936293 0.67087 0.1679105
v 1.34564399 0.08071699 0.16668351
v 1.00981402 0.925978 0.1674245
v 1.68083798 1.08656704 0.16765549
v 1.76119494 1.00620997 0.16765549
v 1.60075199 1.00632 0.1674245
v 1.68109405 0.925978 0.1674245
v 1.34522998 0.75244998 0.16716951
v 2.01604509 0.75147199 0.16717051
v 1.42589402 1.34141802 0.16765549
v 1.34601104 1.26103401 0.1679105
v 2.01641011 1.262465 0.1679105
v 1.93594503 1.34125304 0.1683965
v 2.35154604 0.41565099 0.16765549
v 2.43190193 0.335294 0.16765549
v 2.27146101 0.335404 0.1674245
v 2.35180306 0.255061 0.1674245
v 0.75461399 1.34141802 0.16765549
v 2.68680095 0.08039599 0.16765549
v 2.09909391 0.67116802 0.16717051
v 2.6870079 0.58998101 0.1683965
v 2.60699796 0.67087 0.1679105
v 2.096601 1.34141802 0.16765549
v 1.26466596 1.34125304 0.1683965
v 2.35154604 1.08656704 0.16765549
v 2.43190193 1.00620997 0.16765549
v 2.27146101 1.00632 0.1674245
v 2.35180306 0.925978 0.1674245
v 2.68680095 0.75131201 0.16765549
v 2.76697492 0.67173898 0.1677595
v 2.01739192 1.42139303 0.1678895
v 0.33885401 0.41565099 0.16765549
v 0.419209 0.335294 0.16765549
v 0.25876799 0.335404 0.1674245
v 0.33910998 0.255061 0.1674245
v 1.009557 1.08656704 0.16765549
v 0.67472201 0.080557 0.16717051
v 0.08742 0.67116802 0.16717051
v 1.26501298 0.67087 0.1679105
v 0.67442297 0.59035497 0.1679105
v 0.59430599 0.67087 0.1679105
v 0.67540401 1.42139303 0.1678895
v 1.08991599 1.00620997 0.16765549
v 0.33885401 1.08656704 0.16765549
v 0.419209 1.00620997 0.16765549
v 0.25876799 1.00632 0.1674245
v 0.33910998 0.925978 0.1674245
v 2.76837301 -0.002931 0.16765651
v 0.67405897 0.75147199 0.16717051
v 0.08390799 1.34141802 0.16765549
v 1.08991599 0.335294 0.16765549
v 0.67442297 1.262465 0.1679105
v 0.59395998 1.34125304 0.1683965
v 1.009557 0.41565099 0.16765549
v 0.001941 1.42078602 0.1678105
v 0.002239 -1.42350101 0.16645351
v -0.92565602 -1.00862097 -0.1670455
v -1.00557303 -1.088804 -0.16727748
v -1.08610498 -1.00851595 -0.16727748
v -1.005939 -0.92858898 -0.16704648
v -0.67073601 -1.26299202 -0.1675305
v -0.75180101 -1.34336102 -0.1672765
v -1.34168398 -0.75407099 -0.16679149
v -1.25849998 -0.67323398 -0.16753149
v -0.750597 -0.67353498 -0.16679149
v -0.67069101 -0.75383502 -0.16679149
v -1.26146805 -1.34320199 -0.16801849
v -1.34179997 -1.26303994 -0.16801849
v -0.67105698 -0.59272098 -0.16753149
v -1.00579404 -0.418428 -0.16727748
v -0.925906 -0.33798399 -0.16704648
v -1.34108996 -0.083157 -0.16679149
v -1.26072597 -0.000753 -0.1675325
v -1.00605094 -0.25783801 -0.16704648
v -1.08634901 -0.33787098 -0.16727748
v -0.75014197 -0.000804 -0.16679149
v -0.67069202 -0.08172799 -0.16679149
v -1.34187305 -0.59174197 -0.1675325
v -0.25494998 -1.00862097 -0.1670455
v -0.33508801 -1.08868801 -0.16727748
v -0.415564 -1.00850904 -0.16727748
v -0.335233 -0.92858898 -0.16704648
v 0.000247 -1.26294195 -0.16753149
v -0.08107899 -1.34326005 -0.1672765
v -0.58779501 -0.67323398 -0.16753149
v -0.079313 -0.67295801 -0.16679149
v 0.002365 -0.75465399 -0.16679149
v -0.59109902 -1.34280002 -0.16801649
v 0.002154 -0.59272098 -0.1675325
v -0.33508598 -0.418428 -0.16727748
v -0.25519999 -0.33798399 -0.16704648
v -0.58984601 -0.000204 -0.1675325
v -0.33534601 -0.25783699 -0.16704648
v -0.41564199 -0.33787199 -0.16727748
v -0.08122699 -0.000515 -0.16679149
v 0.003011 -0.08077199 -0.16679149
v -0.67245 -1.42259895 -0.16813549
v -2.26763796 -1.00862097 -0.1670455
v -2.34766602 -1.08886194 -0.16727748
v -2.42785 -1.00867903 -0.16727748
v -2.34775495 -0.92850399 -0.1670455
v -2.01272201 -1.26299202 -0.1675305
v -2.09378409 -1.34336102 -0.1672765
v -2.68256902 -0.75483697 -0.1672765
v -2.59992909 -0.67357599 -0.1675305
v -2.09258103 -0.67353498 -0.16679149
v -2.01267504 -0.75383502 -0.16679149
v -2.26772499 -0.33787301 -0.16704648
v -2.34749889 -0.41834899 -0.16727748
v -2.42767691 -0.33787098 -0.16727748
v -2.34775495 -0.25758698 -0.1670455
v -2.01304006 -0.59272098 -0.16753149
v -2.6825459 -0.08391 -0.1672765
v -2.60310602 -0.001727 -0.16753149
v -2.09328103 -0.001578 -0.16679149
v -2.01267695 -0.08172799 -0.16679149
v -2.68238592 -0.59345501 -0.16801649
v -1.59710001 -1.00862801 -0.16704648
v -1.67729604 -1.08880305 -0.16727748
v -1.75754904 -1.00850904 -0.16727748
v -1.677217 -0.92858898 -0.16704648
v -1.42341101 -1.34376204 -0.16727548
v -1.92978 -0.67323398 -0.16753149
v -1.421875 -0.67353498 -0.16679149
v -1.93308305 -1.34280002 -0.16801649
v -1.677073 -0.41842699 -0.16727748
v -1.59718394 -0.33798301 -0.16704648
v -1.93222701 -0.000649 -0.1675325
v -1.67732894 -0.25783801 -0.16704648
v -1.75762796 -0.33787199 -0.16727748
v -1.42242002 -0.000949 -0.16679149
v -2.76744103 -0.67014199 -0.16801348
v -2.014436 -1.42259895 -0.16813549
v -1.34514904 -1.42185103 -0.1683965
v -0.67039197 0.08059799 -0.16753149
v -1.00557303 0.254774 -0.16727748
v -0.925906 0.33533498 -0.16704648
v -1.34168398 0.59016299 -0.16679149
v -1.25849998 0.67099899 -0.16753149
v -1.00604903 0.415481 -0.16704648
v -1.08612704 0.33543899 -0.16727849
v -0.750597 0.67069798 -0.16679149
v -0.67069101 0.59039902 -0.16679149
v -1.341457 0.08063499 -0.1680195
v -0.92583102 1.00652802 -0.16704648
v -1.00568401 0.925969 -0.16727748
v -1.08609998 1.00663805 -0.16727748
v -1.00605404 1.08705198 -0.1670455
v -0.67105698 0.751513 -0.16753149
v -1.34143197 1.26126897 -0.16679149
v -1.26189601 1.341228 -0.1670455
v -0.75184899 1.34165394 -0.16630449
v -0.671036 1.26282095 -0.16679149
v -1.34187305 0.75249201 -0.1675325
v -0.000346 0.08059699 -0.1675325
v -0.33508598 0.254891 -0.16727748
v -0.25519999 0.33533701 -0.16704648
v -0.587794 0.67099899 -0.16753149
v -0.335343 0.41548201 -0.16704648
v -0.41564101 0.33544799 -0.16727748
v -0.082244 0.671992 -0.16679149
v 0.002368 0.59122699 -0.16679149
v -0.25512099 1.00652897 -0.16704648
v -0.33497399 0.92597097 -0.16727748
v -0.41539099 1.00663805 -0.16727748
v -0.335345 1.08705103 -0.1670455
v 0.001597 0.75243097 -0.1675325
v -0.59119302 1.34146904 -0.1670455
v -0.081122 1.34157097 -0.16630449
v 0.000304 1.26134705 -0.16679149
v -0.67108297 1.42135894 -0.1668075
v -2.26772403 0.33544701 -0.16704648
v -2.34749794 0.254967 -0.16727748
v -2.42767596 0.335444 -0.16727748
v -2.34775495 0.41572898 -0.1670455
v -2.01237702 0.0806 -0.16753149
v -2.68256902 0.589396 -0.1672765
v -2.59992909 0.67065697 -0.1675305
v -2.09258103 0.67069798 -0.16679149
v -2.01267504 0.59039902 -0.16679149
v -2.68236088 0.07987 -0.16801649
v -2.26781296 1.00652802 -0.16704648
v -2.34749889 0.925884 -0.16727748
v -2.42750406 1.00647497 -0.1672765
v -2.34792304 1.08722698 -0.1670455
v -2.01304006 0.751513 -0.16753149
v -2.09383106 1.34165394 -0.16630449
v -2.01302003 1.26282095 -0.16679149
v -2.68238592 0.75077897 -0.16801649
v -1.67729401 0.25477498 -0.16727849
v -1.59740495 0.33532801 -0.16704648
v -1.92978 0.67099899 -0.16753149
v -1.67732703 0.415481 -0.16704648
v -1.75762605 0.33544799 -0.16727748
v -1.421875 0.670699 -0.16679149
v -1.59710705 1.00652802 -0.16704648
v -1.67696201 0.92597001 -0.16727748
v -1.75737595 1.00663805 -0.16727748
v -1.67732894 1.08705103 -0.1670455
v -1.93317794 1.34146904 -0.1670455
v -1.423123 1.34141194 -0.16630449
v -2.76744103 0.67409098 -0.16801348
v -2.013067 1.42135894 -0.1668075
v -1.34169304 1.42336404 -0.16704151
v -2.76465392 0.000422 -0.16801348
v 1.76127398 -1.00862097 -0.1670455
v 1.68135595 -1.088804 -0.16727748
v 1.60082495 -1.00851595 -0.16727748
v 1.68099105 -0.92858898 -0.16704648
v 2.0161941 -1.26299202 -0.1675305
v 1.93513 -1.34336102 -0.1672765
v 1.345245 -0.75407099 -0.16679149
v 1.42842996 -0.67323398 -0.16753149
v 1.93633496 -0.67353498 -0.16679149
v 2.01623892 -0.75383502 -0.16679149
v 1.425462 -1.34320199 -0.16801849
v 1.34513104 -1.26303994 -0.16801849
v 2.01587295 -0.59272098 -0.16753149
v 1.68113505 -0.418428 -0.16727748
v 1.76102304 -0.33798399 -0.16704648
v 1.34583902 -0.083157 -0.16679149
v 1.42620301 -0.000753 -0.1675325
v 1.68087899 -0.25783801 -0.16704648
v 1.60058105 -0.33787098 -0.16727748
v 1.93678796 -0.000804 -0.16679149
v 2.01623797 -0.08172799 -0.16679149
v 1.34505903 -0.59174197 -0.1675325
v 2.43256092 -1.00878799 -0.1670455
v 2.35195398 -1.08851301 -0.1672765
v 2.27136588 -1.00850904 -0.16727748
v 2.35186505 -0.928676 -0.16704648
v 2.09913492 -0.67323398 -0.16753149
v 2.60728502 -0.673877 -0.16679149
v 2.68727111 -0.755113 -0.16630449
v 2.09583091 -1.34280002 -0.16801649
v 2.43238496 -0.33798199 -0.1670455
v 2.35212111 -0.418177 -0.16727748
v 2.27145195 -0.33776199 -0.16727748
v 2.3518629 -0.25775799 -0.16704648
v 2.68671488 -0.593782 -0.1670455
v 2.09708499 -0.000204 -0.1675325
v 2.60532808 -0.00085 -0.16679149
v 2.68715095 -0.084182 -0.16630449
v 2.76666688 -0.67403197 -0.16693848
v 2.01447892 -1.42259895 -0.16813549
v 0.419288 -1.00862097 -0.1670455
v 0.33915099 -1.08868801 -0.16727748
v 0.25867599 -1.00850796 -0.16727748
v 0.339008 -0.92858898 -0.16704648
v 0.67420697 -1.26299202 -0.1675305
v 0.593144 -1.34336102 -0.1672765
v 0.086447 -0.67323398 -0.16753149
v 0.594347 -0.67353498 -0.16679149
v 0.67425197 -0.75383502 -0.16679149
v 0.083159 -1.3427 -0.16801649
v 0.67388701 -0.59272098 -0.16753149
v 0.33915099 -0.418428 -0.16727748
v 0.41903701 -0.33798399 -0.16704648
v 0.082661 -0.001985 -0.1675325
v 0.33889299 -0.25784 -0.16704648
v 0.258594 -0.337875 -0.16727748
v 0.59364801 -0.001578 -0.16679149
v 0.67425 -0.08172799 -0.16679149
v 1.08982896 -1.00862801 -0.16704648
v 1.00963199 -1.08880305 -0.16727748
v 0.92937898 -1.00850904 -0.16727748
v 1.00970995 -0.92858898 -0.16704648
v 1.26352 -1.34376204 -0.16727548
v 0.75714898 -0.67323398 -0.16753149
v 1.26505494 -0.67353498 -0.16679149
v 0.75384497 -1.34280002 -0.16801649
v 1.00985598 -0.41842699 -0.16727748
v 1.08974504 -0.33798301 -0.16704648
v 0.75470101 -0.000649 -0.1675325
v 1.00959801 -0.25783801 -0.16704648
v 0.92930102 -0.33787199 -0.16727748
v 1.26451098 -0.000949 -0.16679149
v 0.67249298 -1.42259895 -0.16813549
v 1.34178102 -1.42185103 -0.1683965
v 2.0165379 0.08059799 -0.16753149
v 1.68135702 0.254774 -0.16727748
v 1.76102399 0.33533498 -0.16704648
v 1.345245 0.59016299 -0.16679149
v 1.42842996 0.67099899 -0.16753149
v 1.68088102 0.415481 -0.16704648
v 1.60080301 0.33543899 -0.16727849
v 1.93633496 0.67069798 -0.16679149
v 2.01623892 0.59039902 -0.16679149
v 1.345474 0.08063499 -0.1680195
v 1.76109898 1.00652802 -0.16704648
v 1.68124604 0.925969 -0.16727748
v 1.60082995 1.00663805 -0.16727748
v 1.68087601 1.08705198 -0.1670455
v 2.01587295 0.751513 -0.16753149
v 1.34549701 1.26126897 -0.16679149
v 1.42503297 1.341228 -0.1670455
v 1.935081 1.34165394 -0.16630449
v 2.01589393 1.26282095 -0.16679149
v 1.34505903 0.75249201 -0.1675325
v 2.43238592 0.335334 -0.1670455
v 2.35212111 0.25514 -0.16727748
v 2.2714529 0.33555799 -0.16727748
v 2.35186505 0.41555699 -0.16704648
v 2.6865971 0.07954599 -0.1670455
v 2.09913492 0.67099899 -0.16753149
v 2.60728502 0.67035698 -0.16679149
v 2.68727111 0.58912098 -0.16630449
v 2.43221211 1.00636005 -0.1670455
v 2.35212111 0.92605698 -0.16727748
v 2.27153897 1.00663805 -0.16727748
v 2.35169601 1.08687698 -0.1670455
v 2.68671488 0.75045198 -0.1670455
v 2.09573793 1.34146904 -0.1670455
v 2.76666688 0.67020201 -0.16693848
v 2.01584792 1.42135894 -0.1668075
v 0.67455202 0.0806 -0.16753149
v 0.339152 0.254891 -0.16727748
v 0.41903901 0.33533701 -0.16704648
v 0.08746299 0.671 -0.16753149
v 0.33889699 0.41548201 -0.16704648
v 0.258598 0.33544901 -0.16727748
v 0.59434801 0.67069798 -0.16679149
v 0.67425197 0.59039902 -0.16679149
v 0.41911399 1.00652802 -0.16704648
v 0.339262 0.92597001 -0.16727748
v 0.25884699 1.00663805 -0.16727748
v 0.33889299 1.08705294 -0.1670455
v 0.67388701 0.751513 -0.16753149
v 0.083062 1.34138703 -0.1670455
v 0.59309601 1.34165394 -0.16630449
v 0.67390698 1.26282095 -0.16679149
v 1.00963401 0.25477498 -0.16727849
v 1.08952403 0.33532801 -0.16704648
v 0.75714898 0.67099899 -0.16753149
v 1.00960004 0.415481 -0.16704648
v 0.92930197 0.33544799 -0.16727748
v 1.26505494 0.670699 -0.16679149
v 1.08982205 1.00652802 -0.16704648
v 1.00996601 0.92597001 -0.16727748
v 0.92955201 1.00663805 -0.16727748
v 1.00959801 1.08705103 -0.1670455
v 0.75375002 1.34146904 -0.1670455
v 1.26380801 1.34141194 -0.16630449
v 0.67386102 1.42135894 -0.1668075
v 1.34523701 1.42336404 -0.16704151
v 2.76782989 -0.004446 -0.16704049
v 0.00043 1.42058801 -0.16688749
v 0.000727 -1.42201697 -0.16824048
g Group32941
f 296 295 294 293
g Group35369
f 1 2 4 3
g Group32941
f 293 294 298 297
g Group32944
f 4 5 298 294
g Group35369
f 2 6 5 4
g Group32941
f 295 296 300 299
g Group32944
f 7 8 299 300
g Group35369
f 3 8 7 1
g Group32941
f 296 293 302 301
g Group32944
f 9 10 301 302
g Group35369
f 1 10 9 2
g Group32941
f 294 295 304 303
g Group32944
f 12 4 294 303
g Group35369
f 4 12 11 3
g Group32941
f 307 306 301 305
g Group32944
f 10 18 305 301
f 14 16 306 307
g Group35369
f 14 18 10 16
g Group32941
f 311 310 309 308
g Group32944
f 19 20 308 309
f 15 13 310 311
g Group35369
f 15 20 19 13
g Group32941
f 310 307 313 312
g Group32944
f 21 22 312 313
f 13 14 307 310
g Group35369
f 13 22 21 14
g Group32941
f 306 311 314 300
g Group32944
f 17 7 300 314
f 16 15 311 306
g Group35369
f 16 7 17 15
g Group32941
f 318 317 316 315
g Group35369
f 23 24 26 25
g Group32941
f 315 316 320 319
g Group32944
f 26 27 320 316
g Group35369
f 24 28 27 26
g Group32941
f 317 318 321 302
g Group32944
f 29 9 302 321
g Group35369
f 25 9 29 23
g Group32941
f 318 315 323 322
g Group32944
f 31 32 322 323
g Group35369
f 23 32 31 24
g Group32941
f 316 317 297 324
g Group32944
f 34 26 316 324
g Group35369
f 26 34 6 25
g Group32941
f 327 326 322 325
g Group32944
f 32 40 325 322
f 36 38 326 327
g Group35369
f 36 40 32 38
g Group32941
f 330 329 328 313
g Group32944
f 33 21 313 328
f 37 35 329 330
g Group35369
f 37 21 33 35
g Group32941
f 329 327 332 331
g Group32944
f 30 39 331 332
f 35 36 327 329
g Group35369
f 35 39 30 36
g Group32941
f 326 330 305 321
g Group32944
f 18 29 321 305
f 38 37 330 326
g Group35369
f 38 29 18 37
g Group32941
f 324 297 298 333
g Group32944
f 41 34 324 333
f 5 41 333 298
g Group35369
f 34 41 5 6
g Group32941
f 337 336 335 334
g Group32944
f 44 45 335 336
g Group35369
f 42 43 45 44
g Group32941
f 334 335 339 338
g Group32944
f 45 46 339 335
g Group35369
f 43 47 46 45
g Group32941
f 336 337 341 340
g Group32944
f 49 44 336 340
g Group35369
f 44 49 48 42
g Group32941
f 337 334 343 342
g Group32944
f 50 51 342 343
g Group35369
f 42 51 50 43
g Group32941
f 347 346 345 344
g Group35369
f 52 53 55 54
g Group32941
f 344 345 342 348
g Group32944
f 51 57 348 342
g Group35369
f 53 57 51 55
g Group32941
f 346 347 350 349
g Group32944
f 59 54 346 349
g Group35369
f 54 59 58 52
g Group32941
f 347 344 352 351
g Group32944
f 60 61 351 352
g Group35369
f 52 61 60 53
g Group32941
f 345 346 353 341
g Group32944
f 54 56 353 346
g Group35369
f 55 48 56 54
g Group32941
f 357 356 355 354
g Group35369
f 62 63 65 64
g Group32941
f 354 355 358 304
g Group32944
f 65 66 358 355
g Group35369
f 63 11 66 65
g Group32941
f 356 357 359 343
g Group32944
f 68 50 343 359
g Group35369
f 64 50 68 62
g Group32941
f 357 354 299 360
g Group32944
f 8 70 360 299
g Group35369
f 62 70 8 63
g Group32941
f 355 356 338 361
g Group32944
f 72 65 355 361
g Group35369
f 65 72 47 64
g Group32941
f 363 362 360 314
g Group32944
f 70 17 314 360
f 74 76 362 363
g Group35369
f 74 17 70 76
g Group32941
f 366 365 364 352
g Group32944
f 71 60 352 364
f 75 73 365 366
g Group35369
f 75 60 71 73
g Group32941
f 365 363 308 367
g Group32944
f 20 77 367 308
f 73 74 363 365
g Group35369
f 73 77 20 74
g Group32941
f 362 366 348 359
g Group32944
f 57 68 359 348
f 76 75 366 362
g Group35369
f 76 68 57 75
g Group32941
f 341 353 368 340
g Group32944
f 67 49 340 368
f 56 67 368 353
g Group35369
f 48 49 67 56
g Group32941
f 361 338 339 369
g Group32944
f 69 72 361 369
f 46 69 369 339
g Group35369
f 72 69 46 47
g Group32941
f 303 304 358 370
g Group32944
f 78 12 303 370
f 66 78 370 358
g Group35369
f 12 78 66 11
g Group32941
f 373 372 312 371
g Group32944
f 22 84 371 312
f 80 82 372 373
g Group35369
f 80 84 22 82
g Group32941
f 377 376 375 374
g Group32944
f 85 86 374 375
f 81 79 376 377
g Group35369
f 81 86 85 79
g Group32941
f 376 373 379 378
g Group32944
f 87 88 378 379
f 79 80 373 376
g Group35369
f 79 88 87 80
g Group32941
f 372 377 380 309
g Group32944
f 89 19 309 380
f 82 81 377 372
g Group35369
f 82 19 89 81
g Group32941
f 384 383 382 381
g Group35369
f 91 92 94 93
g Group32941
f 381 382 378 385
g Group32944
f 88 96 385 378
g Group35369
f 92 96 88 94
g Group32941
f 383 384 387 386
g Group32944
f 91 97 387 384
g Group35369
f 93 98 97 91
g Group32941
f 384 381 389 388
g Group32944
f 100 91 384 388
g Group35369
f 91 100 99 92
g Group32941
f 382 383 390 375
g Group32944
f 95 85 375 390
g Group35369
f 94 85 95 93
g Group32941
f 393 392 331 391
g Group32944
f 39 106 391 331
f 102 104 392 393
g Group35369
f 102 106 39 104
g Group32941
f 396 395 394 379
g Group32944
f 107 87 379 394
f 103 101 395 396
g Group35369
f 103 87 107 101
g Group32941
f 395 393 398 397
g Group32944
f 109 110 397 398
f 101 102 393 395
g Group35369
f 101 110 109 102
g Group32941
f 392 396 371 328
g Group32944
f 84 33 328 371
f 104 103 396 392
g Group35369
f 104 33 84 103
g Group32941
f 402 401 400 399
g Group35369
f 113 114 116 115
g Group32941
f 399 400 397 403
g Group32944
f 110 118 403 397
g Group35369
f 114 118 110 116
g Group32941
f 401 402 404 389
g Group32944
f 113 111 404 402
g Group35369
f 115 99 111 113
g Group32941
f 402 399 406 405
g Group32944
f 117 113 402 405
g Group35369
f 113 117 108 114
g Group32941
f 400 401 385 394
g Group32944
f 96 107 394 385
g Group35369
f 116 107 96 115
g Group32941
f 389 404 407 388
g Group32944
f 119 100 388 407
f 111 119 407 404
g Group35369
f 99 100 119 111
g Group32941
f 411 410 409 408
g Group35369
f 120 121 123 122
g Group32941
f 408 409 351 412
g Group32944
f 61 125 412 351
g Group35369
f 121 125 61 123
g Group32941
f 410 411 414 413
g Group32944
f 127 122 410 413
g Group35369
f 122 127 126 120
g Group32941
f 411 408 416 415
g Group32944
f 128 129 415 416
g Group35369
f 120 129 128 121
g Group32941
f 409 410 417 350
g Group32944
f 122 130 417 410
g Group35369
f 123 58 130 122
g Group32941
f 421 420 419 418
g Group32944
f 132 134 420 421
g Group35369
f 132 133 135 134
g Group32941
f 418 419 415 422
g Group32944
f 129 137 422 415
g Group35369
f 133 137 129 135
g Group32941
f 421 418 424 423
g Group32944
f 139 132 421 423
g Group35369
f 132 139 138 133
g Group32941
f 419 420 425 414
g Group32944
f 134 136 425 420
g Group35369
f 135 126 136 134
g Group32941
f 427 426 367 380
g Group32944
f 77 89 380 367
f 141 143 426 427
g Group35369
f 141 89 77 143
g Group32941
f 430 429 428 416
g Group32944
f 146 128 416 428
f 142 140 429 430
g Group35369
f 142 128 146 140
g Group32941
f 429 427 374 431
g Group32944
f 86 148 431 374
f 140 141 427 429
g Group35369
f 140 148 86 141
g Group32941
f 426 430 412 364
g Group32944
f 125 71 364 412
f 143 142 430 426
g Group35369
f 143 71 125 142
g Group32941
f 435 434 433 432
g Group35369
f 124 131 90 144
g Group32941
f 432 433 431 390
g Group32944
f 148 95 390 431
g Group35369
f 131 95 148 90
g Group32941
f 434 435 436 424
g Group32944
f 124 105 436 435
g Group35369
f 144 138 105 124
g Group32941
f 435 432 386 437
g Group32944
f 112 124 435 437
g Group35369
f 124 112 98 131
g Group32941
f 433 434 422 428
g Group32944
f 137 146 428 422
g Group35369
f 90 146 137 144
g Group32941
f 414 425 438 413
g Group32944
f 145 127 413 438
f 136 145 438 425
g Group35369
f 126 127 145 136
g Group32941
f 424 436 439 423
g Group32944
f 147 139 423 439
f 105 147 439 436
g Group35369
f 138 139 147 105
g Group32941
f 386 387 440 437
g Group32944
f 83 112 437 440
f 97 83 440 387
g Group35369
f 98 112 83 97
g Group32941
f 350 417 441 349
g Group32944
f 149 59 349 441
f 130 149 441 417
g Group35369
f 58 59 149 130
g Group32941
f 445 444 443 442
g Group35369
f 150 151 153 152
g Group32941
f 442 443 447 446
g Group32944
f 153 154 447 443
g Group35369
f 151 155 154 153
g Group32941
f 444 445 449 448
g Group32944
f 156 157 448 449
g Group35369
f 152 157 156 150
g Group32941
f 445 442 451 450
g Group32944
f 158 159 450 451
g Group35369
f 150 159 158 151
g Group32941
f 443 444 453 452
g Group32944
f 161 153 443 452
g Group35369
f 153 161 160 152
g Group32941
f 456 455 450 454
g Group32944
f 159 167 454 450
f 163 165 455 456
g Group35369
f 163 167 159 165
g Group32941
f 460 459 458 457
g Group32944
f 168 169 457 458
f 164 162 459 460
g Group35369
f 164 169 168 162
g Group32941
f 459 456 462 461
g Group32944
f 170 171 461 462
f 162 163 456 459
g Group35369
f 162 171 170 163
g Group32941
f 455 460 463 449
g Group32944
f 166 156 449 463
f 165 164 460 455
g Group35369
f 165 156 166 164
g Group32941
f 467 466 465 464
g Group32944
f 175 173 464 465
g Group35369
f 172 173 175 174
g Group32941
f 466 467 468 451
g Group32944
f 176 158 451 468
g Group35369
f 174 158 176 172
g Group32941
f 467 464 470 469
g Group32944
f 173 178 470 464
g Group35369
f 172 179 178 173
g Group32941
f 465 466 446 471
g Group32944
f 181 175 465 471
g Group35369
f 175 181 155 174
g Group32941
f 475 474 473 472
g Group35369
f 182 183 185 184
g Group32941
f 472 473 469 476
g Group32944
f 187 183 472 476
g Group35369
f 183 187 179 185
g Group32941
f 474 475 477 462
g Group32944
f 180 170 462 477
g Group35369
f 184 170 180 182
g Group32941
f 475 472 479 478
g Group32944
f 183 177 479 472
g Group35369
f 182 186 177 183
g Group32941
f 473 474 454 468
g Group32944
f 167 176 468 454
g Group35369
f 185 176 167 184
g Group32941
f 476 469 470 480
g Group32944
f 188 187 476 480
f 178 188 480 470
g Group35369
f 187 188 178 179
g Group32941
f 471 446 447 481
g Group32944
f 189 181 471 481
f 154 189 481 447
g Group35369
f 181 189 154 155
g Group32941
f 485 484 483 482
g Group35369
f 190 191 193 192
g Group32941
f 482 483 487 486
g Group32944
f 193 194 487 483
g Group35369
f 191 195 194 193
g Group32941
f 484 485 488 323
g Group32944
f 196 31 323 488
g Group35369
f 192 31 196 190
g Group32941
f 485 482 490 489
g Group32944
f 198 199 489 490
g Group35369
f 190 199 198 191
g Group32941
f 483 484 319 491
g Group32944
f 201 193 483 491
g Group35369
f 193 201 28 192
g Group32941
f 494 493 489 492
g Group32944
f 199 207 492 489
f 203 205 493 494
g Group35369
f 203 207 199 205
g Group32941
f 497 496 495 332
g Group32944
f 208 30 332 495
f 204 202 496 497
g Group35369
f 204 30 208 202
g Group32941
f 496 494 499 498
g Group32944
f 210 211 498 499
f 202 203 494 496
g Group35369
f 202 211 210 203
g Group32941
f 493 497 325 488
g Group32944
f 40 196 488 325
f 205 204 497 493
g Group35369
f 205 196 40 204
g Group32941
f 503 502 501 500
g Group35369
f 212 213 215 214
g Group32941
f 500 501 504 453
g Group32944
f 215 216 504 501
g Group35369
f 213 160 216 215
g Group32941
f 502 503 505 490
g Group32944
f 217 198 490 505
g Group35369
f 214 198 217 212
g Group32941
f 503 500 448 506
g Group32944
f 157 219 506 448
g Group35369
f 212 219 157 213
g Group32941
f 501 502 486 507
g Group32944
f 221 215 501 507
g Group35369
f 215 221 195 214
g Group32941
f 509 508 506 463
g Group32944
f 219 166 463 506
f 223 225 508 509
g Group35369
f 223 166 219 225
g Group32941
f 512 511 510 499
g Group32944
f 220 210 499 510
f 224 222 511 512
g Group35369
f 224 210 220 222
g Group32941
f 511 509 457 513
g Group32944
f 169 226 513 457
f 222 223 509 511
g Group35369
f 222 226 169 223
g Group32941
f 508 512 492 505
g Group32944
f 207 217 505 492
f 225 224 512 508
g Group35369
f 225 217 207 224
g Group32941
f 507 486 487 514
g Group32944
f 218 221 507 514
f 194 218 514 487
g Group35369
f 221 218 194 195
g Group32941
f 452 453 504 515
g Group32944
f 227 161 452 515
f 216 227 515 504
g Group35369
f 161 227 216 160
g Group32941
f 518 517 461 516
g Group32944
f 171 233 516 461
f 229 231 517 518
g Group35369
f 229 233 171 231
g Group32941
f 522 521 520 519
g Group32944
f 234 235 519 520
f 230 228 521 522
g Group35369
f 230 235 234 228
g Group32941
f 521 518 524 523
g Group32944
f 236 237 523 524
f 228 229 518 521
g Group35369
f 228 237 236 229
g Group32941
f 517 522 525 458
g Group32944
f 238 168 458 525
f 231 230 522 517
g Group35369
f 231 168 238 230
g Group32941
f 529 528 527 526
g Group35369
f 240 241 243 242
g Group32941
f 526 527 523 530
g Group32944
f 237 245 530 523
g Group35369
f 241 245 237 243
g Group32941
f 528 529 532 531
g Group32944
f 240 246 532 529
g Group35369
f 242 247 246 240
g Group32941
f 529 526 534 533
g Group32944
f 249 240 529 533
g Group35369
f 240 249 248 241
g Group32941
f 527 528 535 520
g Group32944
f 244 234 520 535
g Group35369
f 243 234 244 242
g Group32941
f 539 538 537 536
g Group35369
f 250 251 253 252
g Group32941
f 536 537 478 540
g Group32944
f 255 251 536 540
g Group35369
f 251 255 186 253
g Group32941
f 538 539 541 524
g Group32944
f 256 236 524 541
g Group35369
f 252 236 256 250
g Group32941
f 539 536 543 542
g Group32944
f 251 257 543 536
g Group35369
f 250 258 257 251
g Group32941
f 537 538 516 477
g Group32944
f 233 180 477 516
g Group35369
f 253 180 233 252
g Group32941
f 547 546 545 544
g Group32944
f 262 261 547 544
g Group35369
f 261 262 264 263
g Group32941
f 544 545 542 548
g Group32944
f 265 262 544 548
g Group35369
f 262 265 258 264
g Group32941
f 546 547 549 534
g Group32944
f 261 259 549 547
g Group35369
f 263 248 259 261
g Group32941
f 545 546 530 541
g Group32944
f 245 256 541 530
g Group35369
f 264 256 245 263
g Group32941
f 548 542 543 550
g Group32944
f 266 265 548 550
f 257 266 550 543
g Group35369
f 265 266 257 258
g Group32941
f 534 549 551 533
g Group32944
f 267 249 533 551
f 259 267 551 549
g Group35369
f 248 249 267 259
g Group32941
f 554 553 498 552
g Group32944
f 211 273 552 498
f 269 271 553 554
g Group35369
f 269 273 211 271
g Group32941
f 557 556 555 398
g Group32944
f 274 109 398 555
f 270 268 556 557
g Group35369
f 270 109 274 268
g Group32941
f 556 554 559 558
g Group32944
f 276 277 558 559
f 268 269 554 556
g Group35369
f 268 277 276 269
g Group32941
f 553 557 391 495
g Group32944
f 106 208 495 391
f 271 270 557 553
g Group35369
f 271 208 106 270
g Group32941
f 563 562 561 560
g Group35369
f 280 281 283 282
g Group32941
f 560 561 558 564
g Group32944
f 277 285 564 558
g Group35369
f 281 285 277 283
g Group32941
f 562 563 565 406
g Group32944
f 280 286 565 563
g Group35369
f 282 108 286 280
g Group32941
f 563 560 567 566
g Group32944
f 289 280 563 566
g Group35369
f 280 289 288 281
g Group32941
f 561 562 403 555
g Group32944
f 118 274 555 403
g Group35369
f 283 274 118 282
g Group32941
f 569 568 513 525
g Group32944
f 226 238 525 513
f 287 197 568 569
g Group35369
f 287 238 226 197
g Group32941
f 572 571 570 559
g Group32944
f 209 276 559 570
f 200 290 571 572
g Group35369
f 200 276 209 290
g Group32941
f 571 569 519 573
g Group32944
f 235 275 573 519
f 290 287 569 571
g Group35369
f 290 275 235 287
g Group32941
f 568 572 552 510
g Group32944
f 273 220 510 552
f 197 200 572 568
g Group35369
f 197 220 273 200
g Group32941
f 577 576 575 574
g Group35369
f 272 279 239 206
g Group32941
f 574 575 573 535
g Group32944
f 275 244 535 573
g Group35369
f 279 244 275 239
g Group32941
f 576 577 578 567
g Group32944
f 272 254 578 577
g Group35369
f 206 288 254 272
g Group32941
f 577 574 531 579
g Group32944
f 260 272 577 579
g Group35369
f 272 260 247 279
g Group32941
f 575 576 564 570
g Group32944
f 285 209 570 564
g Group35369
f 239 209 285 206
g Group32941
f 567 578 580 566
g Group32944
f 278 289 566 580
f 254 278 580 578
g Group35369
f 288 289 278 254
g Group32941
f 531 532 581 579
g Group32944
f 232 260 579 581
f 246 232 581 532
g Group35369
f 247 260 232 246
g Group32941
f 540 478 479 582
g Group32944
f 284 255 540 582
f 177 284 582 479
g Group35369
f 255 284 177 186
g Group32941
f 406 565 583 405
g Group32944
f 291 117 405 583
f 286 291 583 565
g Group35369
f 108 117 291 286
g Group32941
f 491 319 320 584
g Group32944
f 292 201 491 584
f 27 292 584 320
g Group35369
f 201 292 27 28
g Group32941
f 424 418 422 434
g Group35369
f 138 144 137 133
g Group32941
f 389 381 385 401
g Group35369
f 99 115 96 92
g Group32941
f 567 560 564 576
g Group35369
f 288 206 285 281
g Group32941
f 534 526 530 546
g Group35369
f 248 263 245 241
g Group32941
f 377 374 427 380
g Group35369
f 81 89 141 86
g Group32941
f 557 398 393 391
g Group35369
f 270 106 102 109
g Group32941
f 522 519 569 525
g Group35369
f 230 238 287 235
g Group32941
f 366 352 344 348
g Group35369
f 75 57 53 60
g Group32941
f 330 313 307 305
g Group35369
f 37 18 14 21
g Group32941
f 512 499 494 492
g Group35369
f 224 207 203 210
g Group32941
f 474 462 456 454
g Group35369
f 184 167 163 170
g Group32941
f 299 354 304 295
g Group35369
f 8 3 11 63
g Group32941
f 323 315 319 484
g Group35369
f 31 192 28 24
g Group32941
f 448 500 453 444
g Group35369
f 157 152 160 213
g Group32941
f 562 406 399 403
g Group35369
f 282 118 114 108
g Group32941
f 558 561 555 556
g Group35369
f 277 268 274 283
g Group32941
f 572 559 554 552
g Group35369
f 200 273 269 276
g Group32941
f 573 575 570 571
g Group35369
f 275 290 209 239
g Group32941
f 528 531 574 535
g Group35369
f 242 244 279 247
g Group32941
f 523 527 520 521
g Group35369
f 237 228 234 243
g Group32941
f 513 568 510 511
g Group35369
f 226 222 220 197
g Group32941
f 498 553 495 496
g Group35369
f 211 202 208 271
g Group32941
f 497 332 327 325
g Group35369
f 204 40 36 30
g Group32941
f 331 392 328 329
g Group35369
f 39 35 33 104
g Group32941
f 397 400 394 395
g Group35369
f 110 101 107 116
g Group32941
f 396 379 373 371
g Group35369
f 103 84 80 87
g Group32941
f 378 382 375 376
g Group35369
f 88 79 85 94
g Group32941
f 383 386 432 390
g Group35369
f 93 95 131 98
g Group32941
f 431 433 428 429
g Group35369
f 148 140 146 90
g Group32941
f 430 416 408 412
g Group35369
f 142 125 121 128
g Group32941
f 351 409 350 347
g Group35369
f 61 52 58 123
g Group32941
f 415 419 414 411
g Group35369
f 129 120 126 135
g Group32941
f 367 426 364 365
g Group35369
f 77 73 71 143
g Group32941
f 312 372 309 310
g Group35369
f 22 13 19 82
g Group32941
f 311 308 363 314
g Group35369
f 15 17 74 20
g Group32941
f 301 306 300 296
g Group35369
f 10 1 7 16
g Group32941
f 360 362 359 357
g Group35369
f 70 62 68 76
g Group32941
f 356 343 334 338
g Group35369
f 64 47 43 50
g Group32941
f 342 345 341 337
g Group35369
f 51 42 48 55
g Group32941
f 317 302 293 297
g Group35369
f 25 6 2 9
g Group32941
f 322 326 321 318
g Group35369
f 32 23 29 38
g Group32941
f 489 493 488 485
g Group35369
f 199 190 196 205
g Group32941
f 502 490 482 486
g Group35369
f 214 195 191 198
g Group32941
f 506 508 505 503
g Group35369
f 219 212 217 225
g Group32941
f 460 457 509 463
g Group35369
f 164 166 223 169
g Group32941
f 461 517 458 459
g Group35369
f 171 162 168 231
g Group32941
f 538 524 518 516
g Group35369
f 252 233 229 236
g Group32941
f 542 545 541 539
g Group35369
f 258 250 256 264
g Group32941
f 478 537 477 475
g Group35369
f 186 182 180 253
g Group32941
f 469 473 468 467
g Group35369
f 179 172 176 185
g Group32941
f 466 451 442 446
g Group35369
f 174 155 151 158
g Group32941
f 450 455 449 445
g Group35369
f 159 150 156 165

 