# File exported by ZBrush version 2021
# www.zbrush.com
#Vertex Count 680
#Face Count 806
#Auto scale x=1.000000 y=1.000000 z=1.000000
#Auto offset x=0.000000 y=0.000000 z=0.000000
v -2.48281788 2.12512636 0.17489451
v -2.17360305 2.12512636 0.17489451
v -2.17312002 1.86041343 0.17435151
v -2.482275 1.86041343 0.17435151
v -1.30021405 1.86041343 0.17435151
v -1.30052399 2.12512636 0.17489451
v -1.00924599 1.86041343 0.17435151
v -1.00949895 2.12512636 0.17489451
v -0.13633699 1.86041343 0.17435151
v -0.13642199 2.12512636 0.17489451
v 0.15463399 1.86041343 0.17435151
v 0.154606 2.12512636 0.17489451
v 1.02754294 1.86041343 0.17435151
v 1.027686 2.12512636 0.17489451
v 1.31851398 1.86041343 0.17435151
v 1.31871104 2.12512636 0.17489451
v 2.19142293 1.86041343 0.17435151
v 2.1917901 2.12512636 0.17489451
v 2.48239111 1.86041343 0.17435151
v 2.48281788 2.12512636 0.17489451
v -2.16584706 -2.12582659 0.1661705
v -2.4740951 -2.12582659 0.1661705
v -2.16630196 -1.87668347 0.16668251
v -2.47460389 -1.87668347 0.16668251
v -2.16766405 -1.12926447 0.16821551
v -2.47614002 -1.12926447 0.16821551
v -2.1681199 -0.88012552 0.16872751
v -2.47664809 -0.88012552 0.16872751
v -2.1694839 -0.13270652 0.1702595
v -2.47818589 -0.13270652 0.1702595
v -2.16993594 0.11643547 0.1707715
v -2.47869491 0.11643547 0.1707715
v -2.17129993 0.86385548 0.1723075
v -2.48023009 0.86385548 0.1723075
v -2.17175602 1.11299347 0.17281851
v -2.48073911 1.11299347 0.17281851
v 2.19037604 1.11299347 0.17281851
v 2.48118996 1.11299347 0.17281851
v 2.19003295 0.86385548 0.1723075
v 2.48078799 0.86385548 0.1723075
v 2.18898701 0.11643547 0.1707715
v 2.47958707 0.11643547 0.1707715
v 2.18864107 -0.13270652 0.1702595
v 2.4791851 -0.13270652 0.1702595
v 2.18759989 -0.88012552 0.16872751
v 2.47798109 -0.88012552 0.16872751
v 2.18725109 -1.12926447 0.16821551
v 2.47757911 -1.12926447 0.16821551
v 2.18620801 -1.87668347 0.16668251
v 2.4763751 -1.87668347 0.16668251
v 2.18586301 -2.12582659 0.1661705
v 2.47597599 -2.12582659 0.1661705
v 1.027143 1.11299347 0.17281851
v 1.31795096 1.11299347 0.17281851
v 1.02701103 0.86385548 0.1723075
v 1.31776297 0.86385548 0.1723075
v 1.02660596 0.11643547 0.1707715
v 1.31719994 0.11643547 0.1707715
v 1.02647399 -0.13270652 0.1702595
v 1.31701803 -0.13270652 0.1702595
v 1.02607202 -0.88012552 0.16872751
v 1.31645596 -0.88012552 0.16872751
v 1.02593994 -1.12926447 0.16821551
v 1.31626701 -1.12926447 0.16821551
v 1.02553999 -1.87668347 0.16668251
v 1.31570494 -1.87668347 0.16668251
v 1.02540803 -2.12582659 0.1661705
v 1.31552195 -2.12582659 0.1661705
v -0.136095 1.11299347 0.17281851
v 0.154713 1.11299347 0.17281851
v -0.13601699 0.86385548 0.1723075
v 0.154741 0.86385548 0.1723075
v -0.135775 0.11643547 0.1707715
v 0.15481999 0.11643547 0.1707715
v -0.13569599 -0.13270652 0.1702595
v 0.15484799 -0.13270652 0.1702595
v -0.13545399 -0.88012552 0.16872751
v 0.154927 -0.88012552 0.16872751
v -0.13537499 -1.12926447 0.16821551
v 0.154955 -1.12926447 0.16821551
v -0.13513399 -1.87668347 0.16668251
v 0.155033 -1.87668347 0.16668251
v -0.135055 -2.12582659 0.1661705
v 0.155062 -2.12582659 0.1661705
v -1.29933095 1.11299347 0.17281851
v -1.00852298 1.11299347 0.17281851
v -1.299039 0.86385548 0.1723075
v -1.00828099 0.86385548 0.1723075
v -1.29815602 0.11643547 0.1707715
v -1.00756096 0.11643547 0.1707715
v -1.29785704 -0.13270652 0.1702595
v -1.00731694 -0.13270652 0.1702595
v -1.29697394 -0.88012552 0.16872751
v -1.00659704 -0.88012552 0.16872751
v -1.296682 -1.12926447 0.16821551
v -1.00635802 -1.12926447 0.16821551
v -1.29579901 -1.87668347 0.16668251
v -1.00563502 -1.87668347 0.16668251
v -1.29550898 -2.12582659 0.1661705
v -1.005396 -2.12582659 0.1661705
v -2.0484209 1.86041343 0.17435151
v -2.0488801 2.12512636 0.17489451
v -1.92371904 1.86041343 0.17435151
v -1.92415297 2.12512636 0.17489451
v -1.79901802 1.86041343 0.17435151
v -1.79942905 2.12512636 0.17489451
v -1.674317 1.86041343 0.17435151
v -1.67470204 2.12512636 0.17489451
v -1.54961395 1.86041343 0.17435151
v -1.54997694 2.12512636 0.17489451
v -1.42491304 1.86041343 0.17435151
v -1.425251 2.12512636 0.17489451
v -2.04669094 0.86385548 0.1723075
v -2.0471251 1.11299347 0.17281851
v -1.92208302 0.86385548 0.1723075
v -1.92249095 1.11299347 0.17281851
v -1.79747295 0.86385548 0.1723075
v -1.79785895 1.11299347 0.17281851
v -1.67286503 0.86385548 0.1723075
v -1.67322695 1.11299347 0.17281851
v -1.54825604 0.86385548 0.1723075
v -1.54859697 1.11299347 0.17281851
v -1.423648 0.86385548 0.1723075
v -1.42396295 1.11299347 0.17281851
v -2.04496407 -0.13270652 0.1702595
v -2.04539489 0.11643547 0.1707715
v -1.92044901 -0.13270652 0.1702595
v -1.92085695 0.11643547 0.1707715
v -1.79593002 -0.13270652 0.1702595
v -1.79631495 0.11643547 0.1707715
v -1.67141103 -0.13270652 0.1702595
v -1.67177701 0.11643547 0.1707715
v -1.54689204 -0.13270652 0.1702595
v -1.54723596 0.11643547 0.1707715
v -1.42237699 -0.13270652 0.1702595
v -1.42269694 0.11643547 0.1707715
v -2.04323911 -1.12926447 0.16821551
v -2.04367089 -0.88012552 0.16872751
v -1.91881203 -1.12926447 0.16821551
v -1.91921997 -0.88012552 0.16872751
v -1.79438602 -1.12926447 0.16821551
v -1.79477095 -0.88012552 0.16872751
v -1.66996002 -1.12926447 0.16821551
v -1.67032301 -0.88012552 0.16872751
v -1.54553496 -1.12926447 0.16821551
v -1.545874 -0.88012552 0.16872751
v -1.421108 -1.12926447 0.16821551
v -1.42142295 -0.88012552 0.16872751
v -2.04151392 -2.12582659 0.1661705
v -2.04194498 -1.87668347 0.16668251
v -1.91717803 -2.12582659 0.1661705
v -1.91758894 -1.87668347 0.16668251
v -1.79284501 -2.12582659 0.1661705
v -1.79323005 -1.87668347 0.16668251
v -1.66851198 -2.12582659 0.1661705
v -1.66887199 -1.87668347 0.16668251
v -1.544178 -2.12582659 0.1661705
v -1.54451298 -1.87668347 0.16668251
v -1.41984295 -2.12582659 0.1661705
v -1.42015695 -1.87668347 0.16668251
v -0.88106298 -2.12582659 0.1661705
v -0.88127601 -1.87668347 0.16668251
v -0.75672698 -2.12582659 0.1661705
v -0.75692099 -1.87668347 0.16668251
v -0.632393 -2.12582659 0.1661705
v -0.63256198 -1.87668347 0.16668251
v -0.50805699 -2.12582659 0.1661705
v -0.50820601 -1.87668347 0.16668251
v -0.383724 -2.12582659 0.1661705
v -0.38384801 -1.87668347 0.16668251
v -0.259388 -2.12582659 0.1661705
v -0.25949201 -1.87668347 0.16668251
v -0.25990301 -0.88012552 0.16872751
v -0.259801 -1.12926447 0.16821551
v -0.38435098 -0.88012552 0.16872751
v -0.38422799 -1.12926447 0.16821551
v -0.50880003 -0.88012552 0.16872751
v -0.50865399 -1.12926447 0.16821551
v -0.63325101 -0.88012552 0.16872751
v -0.63308 -1.12926447 0.16821551
v -0.75770002 -0.88012552 0.16872751
v -0.75750601 -1.12926447 0.16821551
v -0.88214802 -0.88012552 0.16872751
v -0.881931 -1.12926447 0.16821551
v 0.90162301 -0.88012552 0.16872751
v 0.90151399 -1.12926447 0.16821551
v 0.77717202 -0.88012552 0.16872751
v 0.77708798 -1.12926447 0.16821551
v 0.65272301 -0.88012552 0.16872751
v 0.65266197 -1.12926447 0.16821551
v 0.52827501 -0.88012552 0.16872751
v 0.52823299 -1.12926447 0.16821551
v 0.40382599 -0.88012552 0.16872751
v 0.40380701 -1.12926447 0.16821551
v 0.27937498 -0.88012552 0.16872751
v 0.279381 -1.12926447 0.16821551
v 0.27939799 -2.12582659 0.1661705
v 0.279392 -1.87668347 0.16668251
v 0.40373098 -2.12582659 0.1661705
v 0.40375 -1.87668347 0.16668251
v 0.52806699 -2.12582659 0.1661705
v 0.52810901 -1.87668347 0.16668251
v 0.65240299 -2.12582659 0.1661705
v 0.65246498 -1.87668347 0.16668251
v 0.776739 -2.12582659 0.1661705
v 0.77682298 -1.87668347 0.16668251
v 0.90107202 -2.12582659 0.1661705
v 0.90118199 -1.87668347 0.16668251
v 0.279367 -0.13270652 0.1702595
v 0.27936101 0.11643547 0.1707715
v 0.40388301 -0.13270652 0.1702595
v 0.40390199 0.11643547 0.1707715
v 0.52840101 -0.13270652 0.1702595
v 0.52844399 0.11643547 0.1707715
v 0.65292 -0.13270652 0.1702595
v 0.65298199 0.11643547 0.1707715
v 0.77743899 -0.13270652 0.1702595
v 0.77752298 0.11643547 0.1707715
v 0.901955 -0.13270652 0.1702595
v 0.90206497 0.11643547 0.1707715
v -0.88279998 -0.13270652 0.1702595
v -0.88301998 0.11643547 0.1707715
v -0.75828099 -0.13270652 0.1702595
v -0.75847798 0.11643547 0.1707715
v -0.63376599 -0.13270652 0.1702595
v -0.633937 0.11643547 0.1707715
v -0.509247 -0.13270652 0.1702595
v -0.50939899 0.11643547 0.1707715
v -0.38473099 -0.13270652 0.1702595
v -0.38485801 0.11643547 0.1707715
v -0.260212 -0.13270652 0.1702595
v -0.26031601 0.11643547 0.1707715
v 0.27935001 0.86385548 0.1723075
v 0.279347 1.11299347 0.17281851
v 0.403961 0.86385548 0.1723075
v 0.40397799 1.11299347 0.17281851
v 0.52856999 0.86385548 0.1723075
v 0.52861201 1.11299347 0.17281851
v 0.65318203 0.86385548 0.1723075
v 0.65324401 1.11299347 0.17281851
v 0.77779102 0.86385548 0.1723075
v 0.77787798 1.11299347 0.17281851
v 0.90240198 0.86385548 0.1723075
v 0.90250897 1.11299347 0.17281851
v -0.88367301 0.86385548 0.1723075
v -0.883892 1.11299347 0.17281851
v -0.759063 0.86385548 0.1723075
v -0.75925797 1.11299347 0.17281851
v -0.63445502 0.86385548 0.1723075
v -0.63462597 1.11299347 0.17281851
v -0.50984299 0.86385548 0.1723075
v -0.509992 1.11299347 0.17281851
v -0.38523399 0.86385548 0.1723075
v -0.38536098 1.11299347 0.17281851
v -0.260625 0.86385548 0.1723075
v -0.26072698 1.11299347 0.17281851
v -0.88454401 1.86041343 0.17435151
v -0.88477498 2.12512636 0.17489451
v -0.75984299 1.86041343 0.17435151
v -0.76004797 2.12512636 0.17489451
v -0.63514101 1.86041343 0.17435151
v -0.635324 2.12512636 0.17489451
v -0.51044201 1.86041343 0.17435151
v -0.51059699 2.12512636 0.17489451
v -0.38574001 1.86041343 0.17435151
v -0.38587299 2.12512636 0.17489451
v -0.26103898 1.86041343 0.17435151
v -0.261146 2.12512636 0.17489451
v 0.279336 1.86041343 0.17435151
v 0.27933299 2.12512636 0.17489451
v 0.40403699 1.86041343 0.17435151
v 0.40405699 2.12512636 0.17489451
v 0.52873897 1.86041343 0.17435151
v 0.52878397 2.12512636 0.17489451
v 0.65343797 1.86041343 0.17435151
v 0.653508 2.12512636 0.17489451
v 0.77813899 1.86041343 0.17435151
v 0.77823501 2.12512636 0.17489451
v 0.90284097 1.86041343 0.17435151
v 0.90295898 2.12512636 0.17489451
v 1.44321596 1.86041343 0.17435151
v 1.44343805 2.12512636 0.17489451
v 1.56791698 1.86041343 0.17435151
v 1.56816196 2.12512636 0.17489451
v 1.69261896 1.86041343 0.17435151
v 1.69288897 2.12512636 0.17489451
v 1.81731796 1.86041343 0.17435151
v 1.81761205 2.12512636 0.17489451
v 1.94201898 1.86041343 0.17435151
v 1.94234001 2.12512636 0.17489451
v 2.06672 1.86041343 0.17435151
v 2.06706404 2.12512636 0.17489451
v 2.06574392 1.11299347 0.17281851
v 2.06542491 0.86385548 0.1723075
v 1.94111096 1.11299347 0.17281851
v 1.94081294 0.86385548 0.1723075
v 1.81648004 1.11299347 0.17281851
v 1.81620395 0.86385548 0.1723075
v 1.69184804 1.11299347 0.17281851
v 1.69159197 0.86385548 0.1723075
v 1.56721699 1.11299347 0.17281851
v 1.56698298 0.86385548 0.1723075
v 1.44258296 1.11299347 0.17281851
v 1.44237196 0.86385548 0.1723075
v 1.44153702 -0.13270652 0.1702595
v 1.44174194 0.11643547 0.1707715
v 1.56605303 -0.13270652 0.1702595
v 1.56628298 0.11643547 0.1707715
v 1.69057095 -0.13270652 0.1702595
v 1.69082403 0.11643547 0.1707715
v 1.81508696 -0.13270652 0.1702595
v 1.81536305 0.11643547 0.1707715
v 1.93960595 -0.13270652 0.1702595
v 1.93990397 0.11643547 0.1707715
v 2.06412506 -0.13270652 0.1702595
v 2.06444597 0.11643547 0.1707715
v 2.06315207 -0.88012552 0.16872751
v 2.06282591 -1.12926447 0.16821551
v 1.93869996 -0.88012552 0.16872751
v 1.93840003 -1.12926447 0.16821551
v 1.81425201 -0.88012552 0.16872751
v 1.81397402 -1.12926447 0.16821551
v 1.68980395 -0.88012552 0.16872751
v 1.68954503 -1.12926447 0.16821551
v 1.56535494 -0.88012552 0.16872751
v 1.56511902 -1.12926447 0.16821551
v 1.44090402 -0.88012552 0.16872751
v 1.44069302 -1.12926447 0.16821551
v 1.43985498 -2.12582659 0.1661705
v 1.440063 -1.87668347 0.16668251
v 1.56419098 -2.12582659 0.1661705
v 1.56441903 -1.87668347 0.16668251
v 1.688524 -2.12582659 0.1661705
v 1.68877697 -1.87668347 0.16668251
v 1.81286001 -2.12582659 0.1661705
v 1.81313598 -1.87668347 0.16668251
v 1.93719303 -2.12582659 0.1661705
v 1.93749404 -1.87668347 0.16668251
v 2.06153011 -2.12582659 0.1661705
v 2.06185007 -1.87668347 0.16668251
v -2.482275 1.86111247 -0.16671349
v -2.48281788 2.12582659 -0.16617049
v -2.17360305 2.12582659 -0.16617049
v -2.17312002 1.86111247 -0.16671349
v -1.30052399 2.12582659 -0.16617049
v -1.00949895 2.12582659 -0.16617049
v -1.00924599 1.86111247 -0.16671349
v -1.30021405 1.86111247 -0.16671349
v -0.13642199 2.12582659 -0.16617049
v 0.154606 2.12582659 -0.16617049
v 0.15463399 1.86111247 -0.16671349
v -0.13633699 1.86111247 -0.16671349
v 1.027686 2.12582659 -0.16617049
v 1.31871104 2.12582659 -0.16617049
v 1.31851398 1.86111247 -0.16671349
v 1.02754294 1.86111247 -0.16671349
v 2.1917901 2.12582659 -0.16617049
v 2.48281788 2.12582659 -0.16617049
v 2.48239111 1.86111247 -0.16671349
v 2.19142293 1.86111247 -0.16671349
v -2.4740951 -2.1251254 -0.17489449
v -2.47460389 -1.87598347 -0.17438249
v -2.16630196 -1.87598347 -0.17438249
v -2.16584706 -2.1251254 -0.17489449
v -2.47614002 -1.12856447 -0.17284949
v -2.16766405 -1.12856447 -0.17284949
v -1.00756096 0.11713647 -0.17029349
v -1.00731694 -0.13200552 -0.17080549
v -1.29785704 -0.13200552 -0.17080549
v -1.29815602 0.11713647 -0.17029349
v -2.47664809 -0.87942552 -0.1723385
v -2.1681199 -0.87942552 -0.1723385
v -1.00659704 -0.87942552 -0.1723385
v -1.29697394 -0.87942552 -0.1723385
v -1.00635802 -1.12856447 -0.17284949
v -1.296682 -1.12856447 -0.17284949
v -2.47818589 -0.13200652 -0.17080549
v -2.1694839 -0.13200552 -0.17080549
v -2.47869491 0.11713647 -0.17029349
v -2.16993594 0.11713647 -0.17029349
v -2.48023009 0.86455547 -0.16875849
v -2.17129993 0.86455547 -0.16875849
v -2.48073911 1.11369347 -0.16824649
v -2.17175602 1.11369442 -0.16824649
v 2.48118996 1.11369347 -0.16824649
v 2.19037604 1.11369442 -0.16824649
v 0.154741 0.86455547 -0.16875849
v 0.15481999 0.11713647 -0.17029349
v -0.135775 0.11713647 -0.17029349
v -0.13601699 0.86455547 -0.16875849
v 2.48078799 0.86455547 -0.16875849
v 2.19003295 0.86455547 -0.16875748
v 0.15484799 -0.13200552 -0.17080549
v 0.154927 -0.87942552 -0.1723385
v -0.13545399 -0.87942552 -0.1723385
v -0.13569599 -0.13200552 -0.17080549
v 2.47958707 0.11713647 -0.17029349
v 2.18898701 0.11713647 -0.17029349
v 2.4791851 -0.13200652 -0.17080549
v 2.18864107 -0.13200552 -0.17080549
v -1.00828099 0.86455547 -0.16875849
v -1.299039 0.86455547 -0.16875849
v 2.47798109 -0.87942552 -0.1723385
v 2.18759989 -0.87942552 -0.1723385
v 2.47757911 -1.12856447 -0.17284949
v 2.18725109 -1.12856447 -0.17284949
v 0.154713 1.11369442 -0.16824649
v -0.136095 1.11369442 -0.16824649
v 2.4763751 -1.87598347 -0.17438249
v 2.18620801 -1.87598347 -0.17438249
v 2.47597599 -2.1251254 -0.17489449
v 2.18586301 -2.1251254 -0.17489449
v -1.00852298 1.11369442 -0.16824649
v -1.29933095 1.11369442 -0.16824649
v -1.00563502 -1.87598347 -0.17438249
v -1.005396 -2.1251254 -0.17489449
v -1.29550898 -2.1251254 -0.17489449
v -1.29579901 -1.87598347 -0.17438249
v 1.31795096 1.11369442 -0.16824649
v 1.027143 1.11369442 -0.16824649
v 1.31776297 0.86455547 -0.16875748
v 1.02701103 0.86455547 -0.16875748
v 1.31719994 0.11713647 -0.17029349
v 1.02660596 0.11713647 -0.17029349
v 1.31701803 -0.13200552 -0.17080549
v 1.02647399 -0.13200552 -0.17080549
v 0.154955 -1.12856447 -0.17284949
v -0.13537499 -1.12856447 -0.17284949
v 0.155033 -1.87598347 -0.17438249
v 0.155062 -2.1251254 -0.17489449
v -0.135055 -2.1251254 -0.17489449
v -0.13513399 -1.87598347 -0.17438249
v 1.31645596 -0.87942552 -0.1723385
v 1.02607202 -0.87942552 -0.1723385
v 1.31626701 -1.12856447 -0.17284949
v 1.02593994 -1.12856447 -0.17284949
v 1.31570494 -1.87598347 -0.17438249
v 1.02553999 -1.87598347 -0.17438249
v 1.31552195 -2.1251254 -0.17489449
v 1.02540803 -2.1251254 -0.17489449
v -2.0488801 2.12582659 -0.16617049
v -2.0484209 1.86111247 -0.16671349
v -1.92415297 2.12582659 -0.16617049
v -1.92371904 1.86111247 -0.16671349
v -1.79942905 2.12582659 -0.16617049
v -1.79901802 1.86111247 -0.16671349
v -1.67470204 2.12582659 -0.16617049
v -1.674317 1.86111247 -0.16671349
v -1.54997694 2.12582659 -0.16617049
v -1.54961395 1.86111247 -0.16671349
v -1.425251 2.12582659 -0.16617049
v -1.42491304 1.86111247 -0.16671349
v -2.0471251 1.11369442 -0.16824649
v -2.04669094 0.86455547 -0.16875849
v -1.92249095 1.11369442 -0.16824649
v -1.92208302 0.86455547 -0.16875849
v -1.79785895 1.11369442 -0.16824649
v -1.79747295 0.86455547 -0.16875748
v -1.67322695 1.11369442 -0.16824649
v -1.67286503 0.86455547 -0.16875748
v -1.54859697 1.11369442 -0.16824649
v -1.54825604 0.86455547 -0.16875748
v -1.42396295 1.11369442 -0.16824649
v -1.423648 0.86455547 -0.16875849
v -2.04539489 0.11713647 -0.17029349
v -2.04496407 -0.13200552 -0.17080549
v -1.92085695 0.11713647 -0.17029349
v -1.92044901 -0.13200552 -0.17080549
v -1.79631495 0.11713647 -0.17029349
v -1.79593002 -0.13200552 -0.17080549
v -1.67177701 0.11713647 -0.17029349
v -1.67141103 -0.13200552 -0.17080549
v -1.54723596 0.11713647 -0.17029349
v -1.54689204 -0.13200552 -0.17080549
v -1.42269694 0.11713647 -0.17029349
v -1.42237699 -0.13200552 -0.17080549
v -2.04367089 -0.87942552 -0.1723385
v -2.04323911 -1.12856447 -0.17284949
v -1.91921997 -0.87942552 -0.1723385
v -1.91881203 -1.12856447 -0.17284949
v -1.79477095 -0.87942552 -0.1723385
v -1.79438602 -1.12856447 -0.17284949
v -1.67032301 -0.87942552 -0.1723385
v -1.66996002 -1.12856447 -0.17284949
v -1.545874 -0.87942552 -0.1723385
v -1.54553496 -1.12856447 -0.17284949
v -1.42142295 -0.87942552 -0.1723385
v -1.421108 -1.12856447 -0.17284949
v -2.04194498 -1.87598347 -0.17438249
v -2.04151392 -2.1251254 -0.17489449
v -1.91758894 -1.87598347 -0.17438249
v -1.91717803 -2.1251254 -0.17489449
v -1.79323005 -1.87598347 -0.17438249
v -1.79284501 -2.1251254 -0.17489449
v -1.66887199 -1.87598347 -0.17438249
v -1.66851198 -2.1251254 -0.17489449
v -1.54451298 -1.87598347 -0.17438249
v -1.544178 -2.1251254 -0.17489449
v -1.42015695 -1.87598347 -0.17438249
v -1.41984295 -2.1251254 -0.17489449
v -0.88127601 -1.87598347 -0.17438249
v -0.88106298 -2.1251254 -0.17489449
v -0.75692099 -1.87598347 -0.17438249
v -0.75672698 -2.1251254 -0.17489449
v -0.63256198 -1.87598347 -0.17438249
v -0.632393 -2.1251254 -0.17489449
v -0.50820601 -1.87598347 -0.17438249
v -0.50805699 -2.1251254 -0.17489449
v -0.38384801 -1.87598347 -0.17438249
v -0.383724 -2.1251254 -0.17489449
v -0.25949201 -1.87598347 -0.17438249
v -0.259388 -2.1251254 -0.17489449
v -0.259801 -1.12856447 -0.17284949
v -0.25990301 -0.87942552 -0.1723385
v -0.38422799 -1.12856447 -0.17284949
v -0.38435098 -0.87942552 -0.1723385
v -0.50865399 -1.12856447 -0.17284949
v -0.50880003 -0.87942552 -0.1723385
v -0.63308 -1.12856447 -0.17284949
v -0.63325101 -0.87942552 -0.1723385
v -0.75750601 -1.12856447 -0.17284949
v -0.75770002 -0.87942552 -0.1723385
v -0.881931 -1.12856447 -0.17284949
v -0.88214802 -0.87942552 -0.1723385
v 0.90151399 -1.12856447 -0.17284949
v 0.90162301 -0.87942552 -0.1723385
v 0.77708798 -1.12856447 -0.17284949
v 0.77717202 -0.87942552 -0.1723385
v 0.65266197 -1.12856447 -0.17284949
v 0.65272301 -0.87942552 -0.1723385
v 0.52823299 -1.12856447 -0.17284949
v 0.52827501 -0.87942552 -0.1723385
v 0.40380701 -1.12856447 -0.17284949
v 0.40382599 -0.87942552 -0.1723385
v 0.279381 -1.12856447 -0.17284949
v 0.27937498 -0.87942552 -0.1723385
v 0.279392 -1.87598347 -0.17438249
v 0.27939799 -2.1251254 -0.17489449
v 0.40375 -1.87598347 -0.17438249
v 0.40373098 -2.1251254 -0.17489449
v 0.52810901 -1.87598347 -0.17438249
v 0.52806699 -2.1251254 -0.17489449
v 0.65246498 -1.87598347 -0.17438249
v 0.65240299 -2.1251254 -0.17489449
v 0.77682298 -1.87598347 -0.17438249
v 0.776739 -2.1251254 -0.17489449
v 0.90118199 -1.87598347 -0.17438249
v 0.90107202 -2.1251254 -0.17489449
v 0.27936101 0.11713647 -0.17029349
v 0.279367 -0.13200552 -0.17080549
v 0.40390199 0.11713647 -0.17029349
v 0.40388301 -0.13200552 -0.17080549
v 0.52844399 0.11713647 -0.17029349
v 0.52840101 -0.13200552 -0.17080549
v 0.65298199 0.11713647 -0.17029349
v 0.65292 -0.13200552 -0.17080549
v 0.77752298 0.11713647 -0.17029349
v 0.77743899 -0.13200552 -0.17080549
v 0.90206497 0.11713647 -0.17029349
v 0.901955 -0.13200552 -0.17080549
v -0.88301998 0.11713647 -0.17029349
v -0.88279998 -0.13200552 -0.17080549
v -0.75847798 0.11713647 -0.17029349
v -0.75828099 -0.13200552 -0.17080549
v -0.633937 0.11713647 -0.17029349
v -0.63376599 -0.13200552 -0.17080549
v -0.50939899 0.11713647 -0.17029349
v -0.509247 -0.13200552 -0.17080549
v -0.38485801 0.11713647 -0.17029349
v -0.38473099 -0.13200552 -0.17080549
v -0.26031601 0.11713647 -0.17029349
v -0.260212 -0.13200552 -0.17080549
v 0.279347 1.11369442 -0.16824649
v 0.27935001 0.86455547 -0.16875748
v 0.40397799 1.11369442 -0.16824649
v 0.403961 0.86455547 -0.16875748
v 0.52861201 1.11369442 -0.16824649
v 0.52856999 0.86455547 -0.16875748
v 0.65324401 1.11369442 -0.16824649
v 0.65318203 0.86455547 -0.16875748
v 0.77787798 1.11369442 -0.16824649
v 0.77779102 0.86455547 -0.16875748
v 0.90250897 1.11369442 -0.16824649
v 0.90240198 0.86455547 -0.16875748
v -0.883892 1.11369442 -0.16824649
v -0.88367301 0.86455547 -0.16875748
v -0.75925797 1.11369442 -0.16824649
v -0.759063 0.86455547 -0.16875748
v -0.63462597 1.11369442 -0.16824649
v -0.63445502 0.86455547 -0.16875849
v -0.509992 1.11369442 -0.16824649
v -0.50984299 0.86455547 -0.16875849
v -0.38536098 1.11369442 -0.16824649
v -0.38523399 0.86455547 -0.16875849
v -0.26072698 1.11369442 -0.16824649
v -0.260625 0.86455547 -0.16875849
v -0.88477498 2.12582659 -0.16617049
v -0.88454401 1.86111247 -0.16671349
v -0.76004797 2.12582659 -0.16617049
v -0.75984299 1.86111247 -0.16671349
v -0.635324 2.12582659 -0.16617049
v -0.63514101 1.86111247 -0.16671349
v -0.51059699 2.12582659 -0.16617049
v -0.51044201 1.86111247 -0.16671349
v -0.38587299 2.12582659 -0.16617049
v -0.38574001 1.86111247 -0.16671349
v -0.261146 2.12582659 -0.16617049
v -0.26103898 1.86111247 -0.16671349
v 0.27933299 2.12582659 -0.16617049
v 0.279336 1.86111247 -0.16671349
v 0.40405699 2.12582659 -0.16617049
v 0.40403699 1.86111247 -0.16671349
v 0.52878397 2.12582659 -0.16617049
v 0.52873897 1.86111247 -0.16671349
v 0.653508 2.12582659 -0.16617049
v 0.65343797 1.86111247 -0.16671349
v 0.77823501 2.12582659 -0.16617049
v 0.77813899 1.86111247 -0.16671349
v 0.90295898 2.12582659 -0.16617049
v 0.90284097 1.86111247 -0.16671349
v 1.44343805 2.12582659 -0.16617049
v 1.44321596 1.86111247 -0.16671349
v 1.56816196 2.12582659 -0.16617049
v 1.56791698 1.86111247 -0.16671349
v 1.69288897 2.12582659 -0.16617049
v 1.69261896 1.86111247 -0.16671349
v 1.81761205 2.12582659 -0.16617049
v 1.81731796 1.86111247 -0.16671349
v 1.94234001 2.12582659 -0.16617049
v 1.94201898 1.86111247 -0.16671349
v 2.06706404 2.12582659 -0.16617049
v 2.06672 1.86111247 -0.16671349
v 2.06542491 0.86455547 -0.16875849
v 2.06574392 1.11369442 -0.16824649
v 1.94081294 0.86455547 -0.16875748
v 1.94111096 1.11369442 -0.16824649
v 1.81620395 0.86455547 -0.16875748
v 1.81648004 1.11369442 -0.16824649
v 1.69159197 0.86455547 -0.16875748
v 1.69184804 1.11369442 -0.16824649
v 1.56698298 0.86455547 -0.16875849
v 1.56721699 1.11369442 -0.16824649
v 1.44237196 0.86455547 -0.16875849
v 1.44258296 1.11369442 -0.16824649
v 1.44174194 0.11713647 -0.17029349
v 1.44153702 -0.13200552 -0.17080549
v 1.56628298 0.11713647 -0.17029349
v 1.56605303 -0.13200552 -0.17080549
v 1.69082403 0.11713647 -0.17029349
v 1.69057095 -0.13200552 -0.17080549
v 1.81536305 0.11713647 -0.17029349
v 1.81508696 -0.13200552 -0.17080549
v 1.93990397 0.11713647 -0.17029349
v 1.93960595 -0.13200552 -0.17080549
v 2.06444597 0.11713647 -0.17029349
v 2.06412506 -0.13200552 -0.17080549
v 2.06282591 -1.12856447 -0.17284949
v 2.06315207 -0.87942552 -0.1723385
v 1.93840003 -1.12856447 -0.17284949
v 1.93869996 -0.87942552 -0.1723385
v 1.81397402 -1.12856447 -0.17284949
v 1.81425201 -0.87942552 -0.1723385
v 1.68954503 -1.12856447 -0.17284949
v 1.68980395 -0.87942552 -0.1723385
v 1.56511902 -1.12856447 -0.17284949
v 1.56535494 -0.87942552 -0.1723385
v 1.44069302 -1.12856447 -0.17284949
v 1.44090402 -0.87942552 -0.1723385
v 1.440063 -1.87598347 -0.17438249
v 1.43985498 -2.1251254 -0.17489449
v 1.56441903 -1.87598347 -0.17438249
v 1.56419098 -2.1251254 -0.17489449
v 1.68877697 -1.87598347 -0.17438249
v 1.688524 -2.1251254 -0.17489449
v 1.81313598 -1.87598347 -0.17438249
v 1.81286001 -2.1251254 -0.17489449
v 1.93749404 -1.87598347 -0.17438249
v 1.93719303 -2.1251254 -0.17489449
v 2.06185007 -1.87598347 -0.17438249
v 2.06153011 -2.1251254 -0.17489449
g Group32941
f 344 343 342 341
g Group32944
f 1 4 341 342
f 2 1 342 343
g Group61739
f 3 4 1 2
g Group32941
f 348 347 346 345
g Group32944
f 8 6 345 346
g Group61739
f 5 6 8 7
g Group32941
f 352 351 350 349
g Group32944
f 12 10 349 350
g Group61739
f 9 10 12 11
g Group32941
f 356 355 354 353
g Group32944
f 16 14 353 354
g Group61739
f 13 14 16 15
g Group32941
f 360 359 358 357
g Group32944
f 20 18 357 358
f 19 20 358 359
g Group61739
f 17 18 20 19
g Group32941
f 364 363 362 361
g Group32944
f 22 21 364 361
f 24 22 361 362
g Group61739
f 21 22 24 23
g Group32941
f 363 366 365 362
g Group32944
f 26 24 362 365
f 23 25 366 363
g Group61739
f 23 24 26 25
g Group32941
f 370 369 368 367
g Group61739
f 89 90 92 91
g Group32941
f 366 372 371 365
g Group32944
f 28 26 365 371
g Group61739
f 25 26 28 27
g Group32941
f 369 374 373 368
g Group32944
f 94 92 368 373
f 91 93 374 369
g Group61739
f 91 92 94 93
g Group32941
f 374 376 375 373
g Group61739
f 93 94 96 95
g Group32941
f 372 378 377 371
g Group32944
f 30 28 371 377
f 27 29 378 372
g Group61739
f 27 28 30 29
g Group32941
f 378 380 379 377
g Group32944
f 32 30 377 379
g Group61739
f 29 30 32 31
g Group32941
f 380 382 381 379
g Group32944
f 34 32 379 381
f 31 33 382 380
g Group61739
f 31 32 34 33
g Group32941
f 382 384 383 381
g Group32944
f 36 34 381 383
g Group61739
f 33 34 36 35
g Group32941
f 384 344 341 383
g Group32944
f 4 36 383 341
f 35 3 344 384
g Group61739
f 35 36 4 3
g Group32941
f 360 386 385 359
g Group32944
f 38 19 359 385
f 17 37 386 360
g Group61739
f 17 19 38 37
g Group32941
f 390 389 388 387
g Group32944
f 74 72 387 388
f 71 73 389 390
g Group61739
f 71 72 74 73
g Group32941
f 386 392 391 385
g Group32944
f 40 38 385 391
g Group61739
f 37 38 40 39
g Group32941
f 396 395 394 393
g Group32944
f 78 76 393 394
f 75 77 395 396
g Group61739
f 75 76 78 77
g Group32941
f 392 398 397 391
g Group32944
f 42 40 391 397
f 39 41 398 392
g Group61739
f 39 40 42 41
g Group32941
f 389 396 393 388
g Group61739
f 73 74 76 75
g Group32941
f 398 400 399 397
g Group32944
f 44 42 397 399
g Group61739
f 41 42 44 43
g Group32941
f 402 370 367 401
g Group32944
f 90 88 401 367
f 87 89 370 402
g Group61739
f 87 88 90 89
g Group32941
f 400 404 403 399
g Group32944
f 46 44 399 403
f 43 45 404 400
g Group61739
f 43 44 46 45
g Group32941
f 404 406 405 403
g Group32944
f 48 46 403 405
g Group61739
f 45 46 48 47
g Group32941
f 408 390 387 407
g Group61739
f 69 70 72 71
g Group32941
f 406 410 409 405
g Group32944
f 50 48 405 409
f 47 49 410 406
g Group61739
f 47 48 50 49
g Group32941
f 410 412 411 409
g Group32944
f 52 50 409 411
f 51 52 411 412
g Group61739
f 49 50 52 51
g Group32941
f 348 414 413 347
g Group32944
f 86 7 347 413
f 5 85 414 348
g Group61739
f 5 7 86 85
g Group32941
f 418 417 416 415
g Group32944
f 99 100 416 417
g Group61739
f 97 98 100 99
g Group32941
f 356 420 419 355
g Group32944
f 54 15 355 419
f 13 53 420 356
g Group61739
f 13 15 54 53
g Group32941
f 414 402 401 413
g Group61739
f 85 86 88 87
g Group32941
f 420 422 421 419
g Group61739
f 53 54 56 55
g Group32941
f 352 408 407 351
g Group32944
f 70 11 351 407
f 9 69 408 352
g Group61739
f 9 11 70 69
g Group32941
f 422 424 423 421
g Group32944
f 58 56 421 423
f 55 57 424 422
g Group61739
f 55 56 58 57
g Group32941
f 424 426 425 423
g Group61739
f 57 58 60 59
g Group32941
f 395 428 427 394
g Group61739
f 77 78 80 79
g Group32941
f 432 431 430 429
g Group32944
f 83 84 430 431
g Group61739
f 81 82 84 83
g Group32941
f 426 434 433 425
g Group32944
f 62 60 425 433
f 59 61 434 426
g Group61739
f 59 60 62 61
g Group32941
f 434 436 435 433
g Group61739
f 61 62 64 63
g Group32941
f 376 418 415 375
g Group32944
f 98 96 375 415
f 95 97 418 376
g Group61739
f 95 96 98 97
g Group32941
f 428 432 429 427
g Group32944
f 82 80 427 429
f 79 81 432 428
g Group61739
f 79 80 82 81
g Group32941
f 436 438 437 435
g Group32944
f 66 64 435 437
f 63 65 438 436
g Group61739
f 63 64 66 65
g Group32941
f 438 440 439 437
g Group32944
f 67 68 439 440
g Group61739
f 65 66 68 67
g Group32941
f 344 442 441 343
g Group32944
f 102 2 343 441
f 3 101 442 344
g Group61739
f 3 2 102 101
g Group32941
f 442 444 443 441
g Group32944
f 104 102 441 443
g Group61739
f 101 102 104 103
g Group32941
f 444 446 445 443
g Group32944
f 106 104 443 445
f 103 105 446 444
g Group61739
f 103 104 106 105
g Group32941
f 446 448 447 445
g Group32944
f 108 106 445 447
g Group61739
f 105 106 108 107
g Group32941
f 448 450 449 447
g Group32944
f 110 108 447 449
f 107 109 450 448
g Group61739
f 107 108 110 109
g Group32941
f 450 452 451 449
g Group32944
f 112 110 449 451
g Group61739
f 109 110 112 111
g Group32941
f 452 348 345 451
g Group32944
f 6 112 451 345
f 111 5 348 452
g Group61739
f 111 112 6 5
g Group32941
f 382 454 453 384
g Group32944
f 114 35 384 453
f 33 113 454 382
g Group61739
f 33 35 114 113
g Group32941
f 454 456 455 453
g Group61739
f 113 114 116 115
g Group32941
f 456 458 457 455
g Group32944
f 118 116 455 457
f 115 117 458 456
g Group61739
f 115 116 118 117
g Group32941
f 458 460 459 457
g Group61739
f 117 118 120 119
g Group32941
f 460 462 461 459
g Group32944
f 122 120 459 461
f 119 121 462 460
g Group61739
f 119 120 122 121
g Group32941
f 462 464 463 461
g Group61739
f 121 122 124 123
g Group32941
f 464 402 414 463
g Group32944
f 85 124 463 414
f 123 87 402 464
g Group61739
f 123 124 85 87
g Group32941
f 378 466 465 380
g Group32944
f 126 31 380 465
f 29 125 466 378
g Group61739
f 29 31 126 125
g Group32941
f 466 468 467 465
g Group61739
f 125 126 128 127
g Group32941
f 468 470 469 467
g Group32944
f 130 128 467 469
f 127 129 470 468
g Group61739
f 127 128 130 129
g Group32941
f 470 472 471 469
g Group61739
f 129 130 132 131
g Group32941
f 472 474 473 471
g Group32944
f 134 132 471 473
f 131 133 474 472
g Group61739
f 131 132 134 133
g Group32941
f 474 476 475 473
g Group61739
f 133 134 136 135
g Group32941
f 476 369 370 475
g Group32944
f 89 136 475 370
f 135 91 369 476
g Group61739
f 135 136 89 91
g Group32941
f 366 478 477 372
g Group32944
f 138 27 372 477
f 25 137 478 366
g Group61739
f 25 27 138 137
g Group32941
f 478 480 479 477
g Group61739
f 137 138 140 139
g Group32941
f 480 482 481 479
g Group32944
f 142 140 479 481
f 139 141 482 480
g Group61739
f 139 140 142 141
g Group32941
f 482 484 483 481
g Group61739
f 141 142 144 143
g Group32941
f 484 486 485 483
g Group32944
f 146 144 483 485
f 143 145 486 484
g Group61739
f 143 144 146 145
g Group32941
f 486 488 487 485
g Group61739
f 145 146 148 147
g Group32941
f 488 376 374 487
g Group32944
f 93 148 487 374
f 147 95 376 488
g Group61739
f 147 148 93 95
g Group32941
f 364 490 489 363
g Group32944
f 150 23 363 489
f 21 149 490 364
g Group61739
f 21 23 150 149
g Group32941
f 490 492 491 489
g Group32944
f 149 151 492 490
g Group61739
f 149 150 152 151
g Group32941
f 492 494 493 491
g Group32944
f 154 152 491 493
f 151 153 494 492
g Group61739
f 151 152 154 153
g Group32941
f 494 496 495 493
g Group32944
f 153 155 496 494
g Group61739
f 153 154 156 155
g Group32941
f 496 498 497 495
g Group32944
f 158 156 495 497
f 155 157 498 496
g Group61739
f 155 156 158 157
g Group32941
f 498 500 499 497
g Group32944
f 157 159 500 498
g Group61739
f 157 158 160 159
g Group32941
f 500 417 418 499
g Group32944
f 97 160 499 418
f 159 99 417 500
g Group61739
f 159 160 97 99
g Group32941
f 416 502 501 415
g Group32944
f 162 98 415 501
f 100 161 502 416
g Group61739
f 100 98 162 161
g Group32941
f 502 504 503 501
g Group32944
f 161 163 504 502
g Group61739
f 161 162 164 163
g Group32941
f 504 506 505 503
g Group32944
f 166 164 503 505
f 163 165 506 504
g Group61739
f 163 164 166 165
g Group32941
f 506 508 507 505
g Group32944
f 165 167 508 506
g Group61739
f 165 166 168 167
g Group32941
f 508 510 509 507
g Group32944
f 170 168 507 509
f 167 169 510 508
g Group61739
f 167 168 170 169
g Group32941
f 510 512 511 509
g Group32944
f 169 171 512 510
g Group61739
f 169 170 172 171
g Group32941
f 512 431 432 511
g Group32944
f 81 172 511 432
f 171 83 431 512
g Group61739
f 171 172 81 83
g Group32941
f 395 514 513 428
g Group32944
f 174 79 428 513
f 77 173 514 395
g Group61739
f 77 79 174 173
g Group32941
f 514 516 515 513
g Group61739
f 173 174 176 175
g Group32941
f 516 518 517 515
g Group32944
f 178 176 515 517
f 175 177 518 516
g Group61739
f 175 176 178 177
g Group32941
f 518 520 519 517
g Group61739
f 177 178 180 179
g Group32941
f 520 522 521 519
g Group32944
f 182 180 519 521
f 179 181 522 520
g Group61739
f 179 180 182 181
g Group32941
f 522 524 523 521
g Group61739
f 181 182 184 183
g Group32941
f 524 373 375 523
g Group32944
f 96 184 523 375
f 183 94 373 524
g Group61739
f 183 184 96 94
g Group32941
f 434 526 525 436
g Group32944
f 186 63 436 525
f 61 185 526 434
g Group61739
f 61 63 186 185
g Group32941
f 526 528 527 525
g Group61739
f 185 186 188 187
g Group32941
f 528 530 529 527
g Group32944
f 190 188 527 529
f 187 189 530 528
g Group61739
f 187 188 190 189
g Group32941
f 530 532 531 529
g Group61739
f 189 190 192 191
g Group32941
f 532 534 533 531
g Group32944
f 194 192 531 533
f 191 193 534 532
g Group61739
f 191 192 194 193
g Group32941
f 534 536 535 533
g Group61739
f 193 194 196 195
g Group32941
f 536 394 427 535
g Group32944
f 80 196 535 427
f 195 78 394 536
g Group61739
f 195 196 80 78
g Group32941
f 430 538 537 429
g Group32944
f 198 82 429 537
f 84 197 538 430
g Group61739
f 84 82 198 197
g Group32941
f 538 540 539 537
g Group32944
f 197 199 540 538
g Group61739
f 197 198 200 199
g Group32941
f 540 542 541 539
g Group32944
f 202 200 539 541
f 199 201 542 540
g Group61739
f 199 200 202 201
g Group32941
f 542 544 543 541
g Group32944
f 201 203 544 542
g Group61739
f 201 202 204 203
g Group32941
f 544 546 545 543
g Group32944
f 206 204 543 545
f 203 205 546 544
g Group61739
f 203 204 206 205
g Group32941
f 546 548 547 545
g Group32944
f 205 207 548 546
g Group61739
f 205 206 208 207
g Group32941
f 548 440 438 547
g Group32944
f 65 208 547 438
f 207 67 440 548
g Group61739
f 207 208 65 67
g Group32941
f 393 550 549 388
g Group32944
f 210 74 388 549
f 76 209 550 393
g Group61739
f 76 74 210 209
g Group32941
f 550 552 551 549
g Group61739
f 209 210 212 211
g Group32941
f 552 554 553 551
g Group32944
f 214 212 551 553
f 211 213 554 552
g Group61739
f 211 212 214 213
g Group32941
f 554 556 555 553
g Group61739
f 213 214 216 215
g Group32941
f 556 558 557 555
g Group32944
f 218 216 555 557
f 215 217 558 556
g Group61739
f 215 216 218 217
g Group32941
f 558 560 559 557
g Group61739
f 217 218 220 219
g Group32941
f 560 426 424 559
g Group32944
f 57 220 559 424
f 219 59 426 560
g Group61739
f 219 220 57 59
g Group32941
f 368 562 561 367
g Group32944
f 222 90 367 561
f 92 221 562 368
g Group61739
f 92 90 222 221
g Group32941
f 562 564 563 561
g Group61739
f 221 222 224 223
g Group32941
f 564 566 565 563
g Group32944
f 226 224 563 565
f 223 225 566 564
g Group61739
f 223 224 226 225
g Group32941
f 566 568 567 565
g Group61739
f 225 226 228 227
g Group32941
f 568 570 569 567
g Group32944
f 230 228 567 569
f 227 229 570 568
g Group61739
f 227 228 230 229
g Group32941
f 570 572 571 569
g Group61739
f 229 230 232 231
g Group32941
f 572 396 389 571
g Group32944
f 73 232 571 389
f 231 75 396 572
g Group61739
f 231 232 73 75
g Group32941
f 387 574 573 407
g Group32944
f 234 70 407 573
f 72 233 574 387
g Group61739
f 72 70 234 233
g Group32941
f 574 576 575 573
g Group61739
f 233 234 236 235
g Group32941
f 576 578 577 575
g Group32944
f 238 236 575 577
f 235 237 578 576
g Group61739
f 235 236 238 237
g Group32941
f 578 580 579 577
g Group61739
f 237 238 240 239
g Group32941
f 580 582 581 579
g Group32944
f 242 240 579 581
f 239 241 582 580
g Group61739
f 239 240 242 241
g Group32941
f 582 584 583 581
g Group61739
f 241 242 244 243
g Group32941
f 584 422 420 583
g Group32944
f 53 244 583 420
f 243 55 422 584
g Group61739
f 243 244 53 55
g Group32941
f 401 586 585 413
g Group32944
f 246 86 413 585
f 88 245 586 401
g Group61739
f 88 86 246 245
g Group32941
f 586 588 587 585
g Group61739
f 245 246 248 247
g Group32941
f 588 590 589 587
g Group32944
f 250 248 587 589
f 247 249 590 588
g Group61739
f 247 248 250 249
g Group32941
f 590 592 591 589
g Group61739
f 249 250 252 251
g Group32941
f 592 594 593 591
g Group32944
f 254 252 591 593
f 251 253 594 592
g Group61739
f 251 252 254 253
g Group32941
f 594 596 595 593
g Group61739
f 253 254 256 255
g Group32941
f 596 390 408 595
g Group32944
f 69 256 595 408
f 255 71 390 596
g Group61739
f 255 256 69 71
g Group32941
f 347 598 597 346
g Group32944
f 258 8 346 597
f 7 257 598 347
g Group61739
f 7 8 258 257
g Group32941
f 598 600 599 597
g Group32944
f 260 258 597 599
g Group61739
f 257 258 260 259
g Group32941
f 600 602 601 599
g Group32944
f 262 260 599 601
f 259 261 602 600
g Group61739
f 259 260 262 261
g Group32941
f 602 604 603 601
g Group32944
f 264 262 601 603
g Group61739
f 261 262 264 263
g Group32941
f 604 606 605 603
g Group32944
f 266 264 603 605
f 263 265 606 604
g Group61739
f 263 264 266 265
g Group32941
f 606 608 607 605
g Group32944
f 268 266 605 607
g Group61739
f 265 266 268 267
g Group32941
f 608 352 349 607
g Group32944
f 10 268 607 349
f 267 9 352 608
g Group61739
f 267 268 10 9
g Group32941
f 351 610 609 350
g Group32944
f 270 12 350 609
f 11 269 610 351
g Group61739
f 11 12 270 269
g Group32941
f 610 612 611 609
g Group32944
f 272 270 609 611
g Group61739
f 269 270 272 271
g Group32941
f 612 614 613 611
g Group32944
f 274 272 611 613
f 271 273 614 612
g Group61739
f 271 272 274 273
g Group32941
f 614 616 615 613
g Group32944
f 276 274 613 615
g Group61739
f 273 274 276 275
g Group32941
f 616 618 617 615
g Group32944
f 278 276 615 617
f 275 277 618 616
g Group61739
f 275 276 278 277
g Group32941
f 618 620 619 617
g Group32944
f 280 278 617 619
g Group61739
f 277 278 280 279
g Group32941
f 620 356 353 619
g Group32944
f 14 280 619 353
f 279 13 356 620
g Group61739
f 279 280 14 13
g Group32941
f 355 622 621 354
g Group32944
f 282 16 354 621
f 15 281 622 355
g Group61739
f 15 16 282 281
g Group32941
f 622 624 623 621
g Group32944
f 284 282 621 623
g Group61739
f 281 282 284 283
g Group32941
f 624 626 625 623
g Group32944
f 286 284 623 625
f 283 285 626 624
g Group61739
f 283 284 286 285
g Group32941
f 626 628 627 625
g Group32944
f 288 286 625 627
g Group61739
f 285 286 288 287
g Group32941
f 628 630 629 627
g Group32944
f 290 288 627 629
f 287 289 630 628
g Group61739
f 287 288 290 289
g Group32941
f 630 632 631 629
g Group32944
f 292 290 629 631
g Group61739
f 289 290 292 291
g Group32941
f 632 360 357 631
g Group32944
f 18 292 631 357
f 291 17 360 632
g Group61739
f 291 292 18 17
g Group32941
f 386 634 633 392
g Group32944
f 294 39 392 633
f 37 293 634 386
g Group61739
f 37 39 294 293
g Group32941
f 634 636 635 633
g Group61739
f 293 294 296 295
g Group32941
f 636 638 637 635
g Group32944
f 298 296 635 637
f 295 297 638 636
g Group61739
f 295 296 298 297
g Group32941
f 638 640 639 637
g Group61739
f 297 298 300 299
g Group32941
f 640 642 641 639
g Group32944
f 302 300 639 641
f 299 301 642 640
g Group61739
f 299 300 302 301
g Group32941
f 642 644 643 641
g Group61739
f 301 302 304 303
g Group32941
f 644 419 421 643
g Group32944
f 56 304 643 421
f 303 54 419 644
g Group61739
f 303 304 56 54
g Group32941
f 425 646 645 423
g Group32944
f 306 58 423 645
f 60 305 646 425
g Group61739
f 60 58 306 305
g Group32941
f 646 648 647 645
g Group61739
f 305 306 308 307
g Group32941
f 648 650 649 647
g Group32944
f 310 308 647 649
f 307 309 650 648
g Group61739
f 307 308 310 309
g Group32941
f 650 652 651 649
g Group61739
f 309 310 312 311
g Group32941
f 652 654 653 651
g Group32944
f 314 312 651 653
f 311 313 654 652
g Group61739
f 311 312 314 313
g Group32941
f 654 656 655 653
g Group61739
f 313 314 316 315
g Group32941
f 656 400 398 655
g Group32944
f 41 316 655 398
f 315 43 400 656
g Group61739
f 315 316 41 43
g Group32941
f 404 658 657 406
g Group32944
f 318 47 406 657
f 45 317 658 404
g Group61739
f 45 47 318 317
g Group32941
f 658 660 659 657
g Group61739
f 317 318 320 319
g Group32941
f 660 662 661 659
g Group32944
f 322 320 659 661
f 319 321 662 660
g Group61739
f 319 320 322 321
g Group32941
f 662 664 663 661
g Group61739
f 321 322 324 323
g Group32941
f 664 666 665 663
g Group32944
f 326 324 663 665
f 323 325 666 664
g Group61739
f 323 324 326 325
g Group32941
f 666 668 667 665
g Group61739
f 325 326 328 327
g Group32941
f 668 433 435 667
g Group32944
f 64 328 667 435
f 327 62 433 668
g Group61739
f 327 328 64 62
g Group32941
f 439 670 669 437
g Group32944
f 330 66 437 669
f 68 329 670 439
g Group61739
f 68 66 330 329
g Group32941
f 670 672 671 669
g Group32944
f 329 331 672 670
g Group61739
f 329 330 332 331
g Group32941
f 672 674 673 671
g Group32944
f 334 332 671 673
f 331 333 674 672
g Group61739
f 331 332 334 333
g Group32941
f 674 676 675 673
g Group32944
f 333 335 676 674
g Group61739
f 333 334 336 335
g Group32941
f 676 678 677 675
g Group32944
f 338 336 675 677
f 335 337 678 676
g Group61739
f 335 336 338 337
g Group32941
f 678 680 679 677
g Group32944
f 337 339 680 678
g Group61739
f 337 338 340 339
g Group32941
f 680 412 410 679
g Group32944
f 49 340 679 410
f 339 51 412 680
g Group61739
f 339 340 49 51
g Group32941
f 453 455 444 442
g Group32944
f 101 114 453 442
f 116 103 444 455
g Group61739
f 114 101 103 116
g Group32941
f 448 446 457 459
g Group32944
f 120 107 448 459
f 105 118 457 446
g Group61739
f 107 120 118 105
g Group32941
f 452 450 461 463
g Group32944
f 124 111 452 463
f 109 122 461 450
g Group61739
f 111 124 122 109
g Group32941
f 600 598 585 587
g Group32944
f 248 259 600 587
f 257 246 585 598
g Group61739
f 259 248 246 257
g Group32941
f 604 602 589 591
g Group32944
f 252 263 604 591
f 261 250 589 602
g Group61739
f 263 252 250 261
g Group32941
f 608 606 593 595
g Group32944
f 256 267 608 595
f 265 254 593 606
g Group61739
f 267 256 254 265
g Group32941
f 612 610 573 575
g Group32944
f 236 271 612 575
f 269 234 573 610
g Group61739
f 271 236 234 269
g Group32941
f 616 614 577 579
g Group32944
f 240 275 616 579
f 273 238 577 614
g Group61739
f 275 240 238 273
g Group32941
f 620 618 581 583
g Group32944
f 244 279 620 583
f 277 242 581 618
g Group61739
f 279 244 242 277
g Group32941
f 596 594 569 571
g Group32944
f 232 255 596 571
f 253 230 569 594
g Group61739
f 255 232 230 253
g Group32941
f 592 590 565 567
g Group32944
f 228 251 592 567
f 249 226 565 590
g Group61739
f 251 228 226 249
g Group32941
f 588 586 561 563
g Group32944
f 224 247 588 563
f 245 222 561 586
g Group61739
f 247 224 222 245
g Group32941
f 464 462 473 475
g Group32944
f 136 123 464 475
f 121 134 473 462
g Group61739
f 123 136 134 121
g Group32941
f 460 458 469 471
g Group32944
f 132 119 460 471
f 117 130 469 458
g Group61739
f 119 132 130 117
g Group32941
f 456 454 465 467
g Group32944
f 128 115 456 467
f 113 126 465 454
g Group61739
f 115 128 126 113
g Group32941
f 485 487 476 474
g Group32944
f 133 146 485 474
f 148 135 476 487
g Group61739
f 146 133 135 148
g Group32941
f 481 483 472 470
g Group32944
f 129 142 481 470
f 144 131 472 483
g Group61739
f 142 129 131 144
g Group32941
f 477 479 468 466
g Group32944
f 125 138 477 466
f 140 127 468 479
g Group61739
f 138 125 127 140
g Group32941
f 516 514 572 570
g Group32944
f 229 175 516 570
f 173 231 572 514
g Group61739
f 175 229 231 173
g Group32941
f 520 518 568 566
g Group32944
f 225 179 520 566
f 177 227 568 518
g Group61739
f 179 225 227 177
g Group32941
f 524 522 564 562
g Group32944
f 221 183 524 562
f 181 223 564 522
g Group61739
f 183 221 223 181
g Group32941
f 501 503 521 523
g Group32944
f 184 162 501 523
f 164 182 521 503
g Group61739
f 162 184 182 164
g Group32941
f 505 507 517 519
g Group32944
f 180 166 505 519
f 168 178 517 507
g Group61739
f 166 180 178 168
g Group32941
f 509 511 513 515
g Group32944
f 176 170 509 515
f 172 174 513 511
g Group61739
f 170 176 174 172
g Group32941
f 497 499 488 486
g Group32944
f 145 158 497 486
f 160 147 488 499
g Group61739
f 158 145 147 160
g Group32941
f 493 495 484 482
g Group32944
f 141 154 493 482
f 156 143 484 495
g Group61739
f 154 141 143 156
g Group32941
f 489 491 480 478
g Group32944
f 137 150 489 478
f 152 139 480 491
g Group61739
f 150 137 139 152
g Group32941
f 537 539 533 535
g Group32944
f 196 198 537 535
f 200 194 533 539
g Group61739
f 198 196 194 200
g Group32941
f 536 534 552 550
g Group32944
f 209 195 536 550
f 193 211 552 534
g Group61739
f 195 209 211 193
g Group32941
f 532 530 556 554
g Group32944
f 213 191 532 554
f 189 215 556 530
g Group61739
f 191 213 215 189
g Group32941
f 528 526 560 558
g Group32944
f 217 187 528 558
f 185 219 560 526
g Group61739
f 187 217 219 185
g Group32941
f 525 527 545 547
g Group32944
f 208 186 525 547
f 188 206 545 527
g Group61739
f 186 208 206 188
g Group32941
f 529 531 541 543
g Group32944
f 204 190 529 543
f 192 202 541 531
g Group61739
f 190 204 202 192
g Group32941
f 549 551 576 574
g Group32944
f 233 210 549 574
f 212 235 576 551
g Group61739
f 210 233 235 212
g Group32941
f 553 555 580 578
g Group32944
f 237 214 553 578
f 216 239 580 555
g Group61739
f 214 237 239 216
g Group32941
f 557 559 584 582
g Group32944
f 241 218 557 582
f 220 243 584 559
g Group61739
f 218 241 243 220
g Group32941
f 645 647 641 643
g Group32944
f 304 306 645 643
f 308 302 641 647
g Group61739
f 306 304 302 308
g Group32941
f 649 651 637 639
g Group32944
f 300 310 649 639
f 312 298 637 651
g Group61739
f 310 300 298 312
g Group32941
f 653 655 633 635
g Group32944
f 296 314 653 635
f 316 294 633 655
g Group61739
f 314 296 294 316
g Group32941
f 660 658 656 654
g Group32944
f 313 319 660 654
f 317 315 656 658
g Group61739
f 319 313 315 317
g Group32941
f 664 662 652 650
g Group32944
f 309 323 664 650
f 321 311 652 662
g Group61739
f 323 309 311 321
g Group32941
f 668 666 648 646
g Group32944
f 305 327 668 646
f 325 307 648 666
g Group61739
f 327 305 307 325
g Group32941
f 677 679 657 659
g Group32944
f 320 338 677 659
f 340 318 657 679
g Group61739
f 338 320 318 340
g Group32941
f 673 675 661 663
g Group32944
f 324 334 673 663
f 336 322 661 675
g Group61739
f 334 324 322 336
g Group32941
f 669 671 665 667
g Group32944
f 328 330 669 667
f 332 326 665 671
g Group61739
f 330 328 326 332
g Group32941
f 636 634 632 630
g Group32944
f 289 295 636 630
f 293 291 632 634
g Group61739
f 295 289 291 293
g Group32941
f 640 638 628 626
g Group32944
f 285 299 640 626
f 297 287 628 638
g Group61739
f 299 285 287 297
g Group32941
f 644 642 624 622
g Group32944
f 281 303 644 622
f 301 283 624 642
g Group61739
f 303 281 283 301

 