# File exported by ZBrush version 2021
# www.zbrush.com
#Vertex Count 168
#Face Count 166
#Auto scale x=1.000000 y=1.000000 z=1.000000
#Auto offset x=0.000000 y=0.000000 z=0.000000
v 0.721659 1.85427796 0.31328097
v -0.70250201 1.86001694 0.31328097
v 0.73885297 0.71070301 0.31068298
v -0.738855 0.71070301 0.31068298
v 1.90996098 0.68965297 0.31068298
v -1.90995395 0.678707 0.31067898
v -0.246286 0.71070301 0.31068298
v 0.24628399 0.71070301 0.31068298
v -0.246574 2.13211298 0.31328097
v 0.246572 2.13211298 0.31328097
v 0.73856401 0.236901 0.30981597
v 2.182796 0.236901 0.30981597
v -0.73856598 0.236901 0.30981597
v -2.182796 0.235137 0.30981299
v -0.24618899 0.236901 0.30981597
v 0.246187 0.236901 0.30981597
v 0.494143 2.08411502 0.31328097
v 0.492569 0.71070301 0.31068298
v 0.492376 0.236901 0.30981597
v -0.492518 2.07030391 0.31328097
v -0.49257001 0.71070301 0.31068298
v -0.49237701 0.236901 0.30981597
v 0.73870897 0.473802 0.31024897
v 2.08910393 0.47518199 0.31024897
v -0.73871099 0.473802 0.31024897
v -2.10897898 0.47237101 0.31024599
v 0.24623599 0.473802 0.31024897
v -0.24623699 0.473802 0.31024897
v 0.492473 0.473802 0.31024897
v -0.492473 0.473802 0.31024897
v 0.2465 1.77676105 0.31263199
v -0.24650099 1.77676105 0.31263199
v 0.49300101 1.77676105 0.31263199
v 0.73950201 1.77676105 0.31263199
v -0.49300301 1.77676105 0.31263199
v -0.73950302 1.77676105 0.31263199
v 1.821738 0.236901 0.30981597
v 1.82188296 0.473802 0.31024897
v 1.82202696 0.71070301 0.31068298
v -1.821738 0.235578 0.30981299
v -1.82188296 0.47247898 0.31024599
v -1.82202804 0.70937997 0.31067898
v 0.721659 -1.85427796 0.31328097
v -0.70250201 -1.86001694 0.31328097
v 0.73885297 -0.71070301 0.31068298
v -0.738855 -0.71070301 0.31068298
v 1.90996098 -0.68965297 0.31068298
v -1.90995395 -0.678707 0.31067898
v -0.246286 -0.71070301 0.31068298
v 0.24628399 -0.71070301 0.31068298
v -0.246574 -2.13211298 0.31328097
v 0.246572 -2.13211298 0.31328097
v 0.73856401 -0.236901 0.30981597
v 2.182796 -0.236901 0.30981597
v -0.73856598 -0.236901 0.30981597
v -2.182796 -0.235137 0.30981299
v -0.24618899 -0.236901 0.30981597
v 0.246187 -0.236901 0.30981597
v 0.494143 -2.08411598 0.31328097
v 0.492569 -0.71070301 0.31068298
v 0.492376 -0.236901 0.30981597
v -0.492518 -2.0703051 0.31328097
v -0.49257001 -0.71070301 0.31068298
v -0.49237701 -0.236901 0.30981597
v 0.73870897 -0.473802 0.31024897
v 2.08910393 -0.47518199 0.31024897
v -0.73871099 -0.473802 0.31024897
v -2.10897898 -0.47237101 0.31024599
v 0.24623599 -0.473802 0.31024897
v -0.24623699 -0.473802 0.31024897
v 0.492473 -0.473802 0.31024897
v -0.492473 -0.473802 0.31024897
v 0.2465 -1.77676105 0.31263199
v -0.24650099 -1.77676105 0.31263199
v 0.49300101 -1.77676105 0.31263199
v 0.73950201 -1.77676105 0.31263199
v -0.49300301 -1.77676105 0.31263199
v -0.73950302 -1.77676105 0.31263199
v 1.821738 -0.236901 0.30981597
v 1.82188296 -0.473802 0.31024897
v 1.82202696 -0.71070301 0.31068298
v -1.821738 -0.235578 0.30981299
v -1.82188296 -0.47247898 0.31024599
v -1.82202804 -0.70937997 0.31067898
v 0.246187 -0.23747 -0.31327903
v -0.24618899 -0.23747 -0.31327903
v -0.24618899 0.23747099 -0.31327903
v 0.246187 0.23747099 -0.31327903
v -0.73856502 -0.23747 -0.31327903
v -0.73871099 -0.47494199 -0.31284499
v -1.82190895 -0.47365 -0.31284701
v -1.821738 -0.236147 -0.313281
v -2.10903191 -0.47357401 -0.31284701
v -2.182796 -0.235706 -0.313281
v -0.738855 -0.71184402 -0.31240999
v -1.82208001 -0.71058398 -0.31241303
v -1.91005802 -0.67997402 -0.31241303
v 0.73856401 0.23747099 -0.31327903
v 0.73870897 0.47494199 -0.31284499
v 1.82189905 0.47496199 -0.31284403
v 1.82173705 0.23747 -0.31327801
v 0.73885297 0.71184402 -0.31241101
v 1.82206094 0.711887 -0.31240999
v 2.18279504 -0.237468 -0.31327801
v 1.82173705 -0.237469 -0.31327903
v 2.18279504 0.237469 -0.31327801
v -0.49237701 -0.23747 -0.31327903
v -0.49237701 0.23747099 -0.31327903
v -0.24623699 0.47494199 -0.31284499
v 0.24623599 0.47494199 -0.31284499
v -0.246286 0.71184402 -0.31241101
v 0.24628399 0.71184402 -0.31241101
v 0.492473 0.47494199 -0.31284499
v 0.492569 0.71184402 -0.31241101
v 0.492376 0.23747099 -0.31327903
v -0.492473 0.47494199 -0.31284499
v -0.49257001 0.71184402 -0.31241101
v -0.73871099 0.47494199 -0.31284499
v -0.738855 0.71184402 -0.31240999
v -0.73856502 0.23747099 -0.31327903
v -0.24653999 1.77792799 -0.31046104
v 0.24652999 1.77792096 -0.31046104
v -0.246652 2.13330698 -0.30981099
v 0.24663099 2.1332941 -0.30981099
v 0.49329099 1.77817404 -0.31046104
v 0.49472299 2.08580207 -0.30981004
v 0.74002301 1.77840602 -0.31046104
v 0.72270101 1.85642802 -0.30980801
v -0.740022 1.77845704 -0.31046104
v -0.49330198 1.77820599 -0.31046104
v -0.70354002 1.86226999 -0.30980801
v -0.49311599 2.0720551 -0.30981004
v 2.08913588 0.47636199 -0.31284403
v -2.182796 0.235706 -0.313281
v -1.821738 0.236148 -0.313281
v 1.91002905 0.69087797 -0.31240999
v -1.91005802 0.67997402 -0.31241303
v -1.82208001 0.71058398 -0.31241303
v -1.82190895 0.47365099 -0.31284803
v -2.10903191 0.47357401 -0.31284701
v 1.82206094 -0.71188598 -0.31240999
v 1.82189905 -0.47496199 -0.31284403
v 2.08913588 -0.47636199 -0.31284403
v 1.91002905 -0.69087797 -0.31240999
v 0.492376 -0.23747 -0.31327903
v -0.246652 -2.13330698 -0.30981099
v -0.49311599 -2.0720551 -0.30981004
v -0.49330198 -1.77820599 -0.31046104
v -0.24653999 -1.77792704 -0.31046104
v 0.73870897 -0.47494199 -0.31284499
v 0.73856401 -0.23747 -0.31327903
v 0.73885297 -0.71184402 -0.31241101
v 0.24623599 -0.47494199 -0.31284499
v -0.24623699 -0.47494199 -0.31284499
v 0.24628399 -0.71184301 -0.31241101
v -0.246286 -0.71184301 -0.31241101
v 0.492473 -0.47494199 -0.31284499
v 0.492569 -0.71184301 -0.31241101
v -0.492473 -0.47494199 -0.31284499
v -0.49257001 -0.71184301 -0.31241101
v 0.24652999 -1.77792096 -0.31046104
v 0.24663099 -2.1332941 -0.30981099
v 0.49329099 -1.77817297 -0.31046104
v 0.49472299 -2.08580207 -0.30981004
v 0.74002301 -1.77840495 -0.31046104
v 0.72270101 -1.85642802 -0.30980801
v -0.740022 -1.77845704 -0.31046003
v -0.70354002 -1.86226999 -0.30980801
g Group32941
f 88 87 86 85
g Group52077
f 16 58 57 15
g Group32941
f 92 91 90 89
g Group52077
f 82 55 67 83
g Group32941
f 94 93 91 92
g Group32944
f 56 68 93 94
g Group52077
f 56 82 83 68
g Group32941
f 91 96 95 90
g Group32944
f 84 46 95 96
g Group52077
f 83 67 46 84
g Group32941
f 93 97 96 91
g Group32944
f 48 84 96 97
f 68 48 97 93
g Group52077
f 68 83 84 48
g Group32941
f 101 100 99 98
g Group52077
f 37 11 23 38
g Group32941
f 100 103 102 99
g Group32944
f 39 3 102 103
g Group52077
f 38 23 3 39
g Group32941
f 106 101 105 104
g Group32944
f 54 12 106 104
g Group52077
f 12 54 79 37
g Group32941
f 87 108 107 86
g Group52077
f 15 57 64 22
g Group32941
f 88 110 109 87
g Group52077
f 16 15 28 27
g Group32941
f 110 112 111 109
g Group52077
f 27 28 7 8
g Group32941
f 114 113 99 102
g Group52077
f 18 3 23 29
g Group32941
f 113 115 98 99
g Group52077
f 29 23 11 19
g Group32941
f 112 110 113 114
g Group52077
f 8 18 29 27
g Group32941
f 110 88 115 113
g Group52077
f 27 29 19 16
g Group32941
f 117 116 109 111
g Group52077
f 21 7 28 30
g Group32941
f 116 108 87 109
g Group52077
f 30 28 15 22
g Group32941
f 119 118 116 117
g Group52077
f 4 21 30 25
g Group32941
f 118 120 108 116
g Group52077
f 25 30 22 13
g Group32941
f 112 122 121 111
g Group52077
f 8 7 32 31
g Group32941
f 122 124 123 121
g Group32944
f 10 9 123 124
g Group52077
f 31 32 9 10
g Group32941
f 114 125 122 112
g Group52077
f 18 8 31 33
g Group32941
f 125 126 124 122
g Group32944
f 17 10 124 126
g Group52077
f 33 31 10 17
g Group32941
f 102 127 125 114
g Group32944
f 3 34 127 102
g Group52077
f 3 18 33 34
g Group32941
f 127 128 126 125
g Group32944
f 1 17 126 128
f 34 1 128 127
g Group52077
f 34 33 17 1
g Group32941
f 117 130 129 119
g Group32944
f 36 4 119 129
g Group52077
f 21 4 36 35
g Group32941
f 130 132 131 129
g Group32944
f 2 36 129 131
f 20 2 131 132
g Group52077
f 35 36 2 20
g Group32941
f 111 121 130 117
g Group52077
f 7 21 35 32
g Group32941
f 121 123 132 130
g Group32944
f 9 20 132 123
g Group52077
f 32 35 20 9
g Group32941
f 133 100 101 106
g Group32944
f 12 24 133 106
g Group52077
f 24 12 37 38
g Group32941
f 135 134 94 92
g Group32944
f 14 56 94 134
g Group52077
f 40 82 56 14
g Group32941
f 136 103 100 133
g Group32944
f 24 5 136 133
f 5 39 103 136
g Group52077
f 5 24 38 39
g Group32941
f 120 135 92 89
g Group52077
f 13 55 82 40
g Group32941
f 140 139 138 137
g Group32944
f 6 26 140 137
f 42 6 137 138
g Group52077
f 26 6 42 41
g Group32941
f 139 118 119 138
g Group32944
f 4 42 138 119
g Group52077
f 41 42 4 25
g Group32941
f 134 135 139 140
g Group32944
f 26 14 134 140
g Group52077
f 14 26 41 40
g Group32941
f 135 120 118 139
g Group52077
f 40 41 25 13
g Group32941
f 108 120 89 107
g Group52077
f 22 64 55 13
g Group32941
f 144 143 142 141
g Group32944
f 81 47 144 141
f 47 66 143 144
g Group52077
f 47 81 80 66
g Group32941
f 115 88 85 145
g Group52077
f 19 61 58 16
g Group32941
f 143 104 105 142
g Group32944
f 66 54 104 143
g Group52077
f 66 80 79 54
g Group32941
f 149 148 147 146
g Group32944
f 62 51 146 147
g Group52077
f 74 51 62 77
g Group32941
f 105 151 150 142
g Group52077
f 79 80 65 53
g Group32941
f 142 150 152 141
g Group32944
f 45 81 141 152
g Group52077
f 80 81 45 65
g Group32941
f 101 98 151 105
g Group52077
f 37 79 53 11
g Group32941
f 98 115 145 151
g Group52077
f 11 53 61 19
g Group32941
f 85 86 154 153
g Group52077
f 58 69 70 57
g Group32941
f 153 154 156 155
g Group52077
f 69 50 49 70
g Group32941
f 158 152 150 157
g Group52077
f 60 71 65 45
g Group32941
f 157 150 151 145
g Group52077
f 71 61 53 65
g Group32941
f 155 158 157 153
g Group52077
f 50 69 71 60
g Group32941
f 153 157 145 85
g Group52077
f 69 58 61 71
g Group32941
f 160 156 154 159
g Group52077
f 63 72 70 49
g Group32941
f 159 154 86 107
g Group52077
f 72 64 57 70
g Group32941
f 95 160 159 90
g Group52077
f 46 67 72 63
g Group32941
f 90 159 107 89
g Group52077
f 67 55 64 72
g Group32941
f 155 156 149 161
g Group52077
f 50 73 74 49
g Group32941
f 161 149 146 162
g Group32944
f 51 52 162 146
g Group52077
f 73 52 51 74
g Group32941
f 158 155 161 163
g Group52077
f 60 75 73 50
g Group32941
f 163 161 162 164
g Group32944
f 52 59 164 162
g Group52077
f 75 59 52 73
g Group32941
f 152 158 163 165
g Group32944
f 76 45 152 165
g Group52077
f 45 76 75 60
g Group32941
f 165 163 164 166
g Group32944
f 43 76 165 166
f 59 43 166 164
g Group52077
f 76 43 59 75
g Group32941
f 160 95 167 148
g Group32944
f 46 78 167 95
g Group52077
f 63 77 78 46
g Group32941
f 148 167 168 147
g Group32944
f 44 62 147 168
f 78 44 168 167
g Group52077
f 77 62 44 78
g Group32941
f 156 160 148 149
g Group52077
f 49 74 77 63

 