# File exported by ZBrush version 2021
# www.zbrush.com
#Vertex Count 154
#Face Count 152
#Auto scale x=1.000000 y=1.000000 z=1.000000
#Auto offset x=0.000000 y=0.000000 z=0.000000
v -1.82067596 0.7587195 0.19691398
v -1.81640899 -1.63867747 0.19151699
v -0.36328101 -1.63867747 0.19151699
v -1.08984506 -1.63867747 0.19151699
v -0.35712701 1.80078351 0.19691398
v -1.08313 1.51855945 0.19691398
v -0.00000001 -1.63867747 0.19151699
v 0.00273298 1.84354841 0.19691398
v -0.72656303 -1.63867747 0.19151699
v -0.71736103 1.67775344 0.19691398
v -1.45312702 -1.63867747 0.19151699
v -1.46001303 1.22191548 0.19691398
v 1.82067596 0.76038748 0.19691398
v 1.81640899 -1.63867747 0.19151699
v 0.36328098 -1.63867747 0.19151699
v 1.08984494 -1.63867747 0.19151699
v 0.35712698 1.80391144 0.19691398
v 1.08313 1.52271652 0.19691398
v 0.72656297 -1.63867747 0.19151699
v 0.71736097 1.68215048 0.19691398
v 1.45312702 -1.63867747 0.19151699
v 1.46001303 1.22406852 0.19691398
v -0.36263302 -1.35006153 0.19234199
v 0.00030398 -1.3458625 0.19234199
v 0.36263299 -1.34960556 0.19234199
v -0.72561204 -1.36226153 0.19234199
v -1.08920598 -1.3782835 0.19234199
v -1.45403397 -1.41013348 0.19234199
v -1.81706106 -1.46103751 0.19234199
v 1.45403397 -1.4098165 0.19234199
v 1.81706094 -1.46083354 0.19234199
v 1.08920598 -1.3776915 0.19234199
v 0.72561198 -1.3616085 0.19234199
v -1.81640899 -1.8441075 0.19077599
v -1.45312702 -1.8441075 0.19082099
v -1.08984506 -1.8441075 0.19088499
v -0.72656303 -1.8441075 0.190917
v -0.36328101 -1.8441075 0.19093398
v -0.00000001 -1.8441075 0.190935
v 0.36328098 -1.8441075 0.19091799
v 0.72656297 -1.8441075 0.19088698
v 1.08984494 -1.8441075 0.19082199
v 1.45312702 -1.84410655 0.19067099
v 1.81640899 -1.84410655 0.19056399
v -1.819772 0.20378047 0.19577099
v -1.45851802 0.56390345 0.19577099
v -1.81886804 -0.35115853 0.194628
v -1.45702302 -0.09410852 0.194628
v -1.81796503 -0.90609753 0.19348499
v -1.45552897 -0.75212055 0.19348499
v -1.08464896 0.79434949 0.19577099
v -1.08616805 0.07013847 0.194628
v -1.08768701 -0.65407252 0.19348499
v 0.719424 0.92121148 0.19577099
v 1.08464896 0.79761445 0.19577099
v 0.72148698 0.16027148 0.194628
v 1.08616793 0.07251247 0.194628
v 0.723549 -0.60066855 0.19348499
v 1.08768701 -0.6525895 0.19348499
v 1.45851802 0.56559747 0.19577099
v 1.45702397 -0.09287352 0.194628
v 1.45552897 -0.7513445 0.19348499
v -0.35850301 1.01307249 0.19577099
v 0.00212598 1.04619646 0.19577099
v -0.35988003 0.22536148 0.194628
v 0.00151898 0.24884346 0.194628
v -0.361256 -0.56234949 0.19348499
v 0.00091098 -0.54850953 0.19348499
v 0.35850399 1.01553249 0.19577099
v 0.35987997 0.22715348 0.194628
v 0.36125698 -0.56122553 0.19348499
v 1.819772 0.20508247 0.19577099
v 1.81886899 -0.35022252 0.194628
v 1.81796503 -0.90552753 0.19348499
v -0.719424 0.91775047 0.19577099
v -0.72148603 0.15774647 0.194628
v -0.723549 -0.60225755 0.19348499
v -1.08926904 -1.37734949 -0.195139
v -1.08985304 -1.6374495 -0.19596301
v -1.45315396 -1.63730549 -0.19596199
v -1.45415604 -1.40907049 -0.19513799
v 1.81635201 -1.84241056 -0.196914
v 1.453058 -1.84253156 -0.19680799
v 1.45313501 -1.63717055 -0.19596199
v 1.81643593 -1.63704347 -0.19596101
v 0.72564697 -1.36073756 -0.195139
v 0.72656101 -1.63749551 -0.19596301
v 0.36328098 -1.6375525 -0.19596301
v 0.36265197 -1.34876656 -0.195139
v -0.72564804 -1.36138856 -0.195139
v -0.72656804 -1.63752758 -0.19596301
v 1.089787 -1.84275651 -0.19665701
v 1.08983695 -1.63737857 -0.19596301
v 1.81721901 -1.45968353 -0.19513799
v 1.45415604 -1.40875446 -0.19513799
v 1.08926999 -1.37675952 -0.195139
v -1.45309805 -1.84280347 -0.19665901
v -1.81638503 -1.84275257 -0.196703
v -1.81645202 -1.63721346 -0.19596199
v -1.08981907 -1.84290051 -0.19659499
v 0.00030398 -1.34503352 -0.195139
v -0.00000201 -1.63757455 -0.19596301
v -0.363285 -1.63756656 -0.19596301
v -0.36265301 -1.34922146 -0.195139
v -0.72655004 -1.84296858 -0.19656302
v -0.363276 -1.84300053 -0.196546
v -0.00000401 -1.84300148 -0.19654502
v 0.36326798 -1.84297156 -0.196562
v -1.81721901 -1.45988547 -0.19513799
v 0.72653698 -1.84290349 -0.196593
v -1.46065402 1.22260046 -0.190567
v -1.45907902 0.56458848 -0.19171001
v -1.82049906 0.20450946 -0.19170899
v -1.82150697 0.75944846 -0.19056601
v -1.45742404 -0.09342352 -0.19285301
v -1.819386 -0.35042953 -0.19285301
v -1.45576906 -0.75143551 -0.19399599
v -1.81827497 -0.90536755 -0.19399599
v -1.08346998 1.51917851 -0.190567
v -1.08494699 0.79496848 -0.19171001
v -1.08638095 0.07075747 -0.19285301
v -1.08781504 -0.65345352 -0.19399599
v 1.08347201 1.5233345 -0.190567
v 1.08494794 0.79823249 -0.19171001
v 0.71959996 0.92179548 -0.19171001
v 0.71756196 1.68273448 -0.190567
v 1.08638203 0.07313047 -0.19285301
v 0.72161197 0.16085547 -0.19285301
v 1.08781492 -0.65197151 -0.19399599
v 0.72362297 -0.60008454 -0.19399599
v 1.46065497 1.22475242 -0.190567
v 1.45907998 0.56628149 -0.19171001
v 1.45742595 -0.09218952 -0.19285301
v 1.45577001 -0.75065952 -0.19399599
v 0.00273098 1.8441075 -0.190567
v 0.00212398 1.04675543 -0.19171001
v -0.35860401 1.01363849 -0.19171001
v -0.357243 1.80134952 -0.190567
v 0.00151798 0.24940246 -0.19285301
v -0.359952 0.22592747 -0.19285301
v 0.00090998 -0.5479505 -0.19399599
v -0.36129802 -0.56178355 -0.19399599
v 0.35860297 1.01609742 -0.19171001
v 0.35723999 1.8044765 -0.190567
v 0.35994997 0.22771847 -0.19285301
v 0.36129799 -0.56066054 -0.19399599
v 1.82150697 0.76111549 -0.19056601
v 1.82049894 0.20581047 -0.19170899
v 1.81938695 -0.34949353 -0.19285301
v 1.81827497 -0.9047985 -0.19399599
v -0.71960103 0.91833549 -0.19171001
v -0.71756303 1.67833852 -0.190567
v -0.72161102 0.15833146 -0.19285301
v -0.72362303 -0.60167253 -0.19399599
g Group32941
f 81 80 79 78
g Group22168
f 28 27 4 11
g Group32941
f 85 84 83 82
g Group32944
f 44 14 85 82
f 43 44 82 83
g Group22168
f 14 44 43 21
g Group32941
f 89 88 87 86
g Group22168
f 25 33 19 15
g Group32941
f 78 79 91 90
g Group22168
f 27 26 9 4
g Group32941
f 84 93 92 83
g Group32944
f 42 43 83 92
g Group22168
f 21 43 42 16
g Group32941
f 95 84 85 94
g Group32944
f 14 31 94 85
g Group22168
f 30 31 14 21
g Group32941
f 86 87 93 96
g Group22168
f 33 32 16 19
g Group32941
f 80 99 98 97
g Group32944
f 34 35 97 98
f 2 34 98 99
g Group22168
f 11 35 34 2
g Group32941
f 79 80 97 100
g Group32944
f 35 36 100 97
g Group22168
f 4 36 35 11
g Group32941
f 104 103 102 101
g Group22168
f 23 24 7 3
g Group32941
f 88 89 101 102
g Group22168
f 15 7 24 25
g Group32941
f 91 79 100 105
g Group32944
f 36 37 105 100
g Group22168
f 9 37 36 4
g Group32941
f 96 93 84 95
g Group22168
f 32 30 21 16
g Group32941
f 103 91 105 106
g Group32944
f 37 38 106 105
g Group22168
f 3 38 37 9
g Group32941
f 102 103 106 107
g Group32944
f 38 39 107 106
g Group22168
f 7 39 38 3
g Group32941
f 88 102 107 108
g Group32944
f 39 40 108 107
g Group22168
f 15 40 39 7
g Group32941
f 109 99 80 81
g Group32944
f 29 2 99 109
g Group22168
f 29 28 11 2
g Group32941
f 87 88 108 110
g Group32944
f 40 41 110 108
g Group22168
f 19 41 40 15
g Group32941
f 90 91 103 104
g Group22168
f 26 23 3 9
g Group32941
f 93 87 110 92
g Group32944
f 41 42 92 110
g Group22168
f 16 42 41 19
g Group32941
f 114 113 112 111
g Group32944
f 12 1 114 111
f 1 45 113 114
g Group22168
f 1 12 46 45
g Group32941
f 113 116 115 112
g Group32944
f 45 47 116 113
g Group22168
f 45 46 48 47
g Group32941
f 116 118 117 115
g Group32944
f 47 49 118 116
g Group22168
f 47 48 50 49
g Group32941
f 118 109 81 117
g Group32944
f 49 29 109 118
g Group22168
f 49 50 28 29
g Group32941
f 111 112 120 119
g Group32944
f 6 12 111 119
g Group22168
f 12 6 51 46
g Group32941
f 112 115 121 120
g Group22168
f 46 51 52 48
g Group32941
f 115 117 122 121
g Group22168
f 48 52 53 50
g Group32941
f 117 81 78 122
g Group22168
f 50 53 27 28
g Group32941
f 126 125 124 123
g Group32944
f 18 20 126 123
g Group22168
f 20 18 55 54
g Group32941
f 125 128 127 124
g Group22168
f 54 55 57 56
g Group32941
f 128 130 129 127
g Group22168
f 56 57 59 58
g Group32941
f 130 86 96 129
g Group22168
f 58 59 32 33
g Group32941
f 123 124 132 131
g Group32944
f 22 18 123 131
g Group22168
f 18 22 60 55
g Group32941
f 124 127 133 132
g Group22168
f 55 60 61 57
g Group32941
f 127 129 134 133
g Group22168
f 57 61 62 59
g Group32941
f 129 96 95 134
g Group22168
f 59 62 30 32
g Group32941
f 138 137 136 135
g Group32944
f 8 5 138 135
g Group22168
f 5 8 64 63
g Group32941
f 137 140 139 136
g Group22168
f 63 64 66 65
g Group32941
f 140 142 141 139
g Group22168
f 65 66 68 67
g Group32941
f 142 104 101 141
g Group22168
f 67 68 24 23
g Group32941
f 144 143 125 126
g Group32944
f 20 17 144 126
g Group22168
f 17 20 54 69
g Group32941
f 143 145 128 125
g Group22168
f 69 54 56 70
g Group32941
f 145 146 130 128
g Group22168
f 70 56 58 71
g Group32941
f 146 89 86 130
g Group22168
f 71 58 33 25
g Group32941
f 131 132 148 147
g Group32944
f 13 22 131 147
f 72 13 147 148
g Group22168
f 22 13 72 60
g Group32941
f 132 133 149 148
g Group32944
f 73 72 148 149
g Group22168
f 60 72 73 61
g Group32941
f 133 134 150 149
g Group32944
f 74 73 149 150
g Group22168
f 61 73 74 62
g Group32941
f 134 95 94 150
g Group32944
f 31 74 150 94
g Group22168
f 62 74 31 30
g Group32941
f 89 146 141 101
g Group22168
f 25 24 68 71
g Group32941
f 146 145 139 141
g Group22168
f 71 68 66 70
g Group32941
f 145 143 136 139
g Group22168
f 70 66 64 69
g Group32941
f 143 144 135 136
g Group32944
f 17 8 135 144
g Group22168
f 69 64 8 17
g Group32941
f 152 151 137 138
g Group32944
f 5 10 152 138
g Group22168
f 10 5 63 75
g Group32941
f 151 153 140 137
g Group22168
f 75 63 65 76
g Group32941
f 153 154 142 140
g Group22168
f 76 65 67 77
g Group32941
f 154 90 104 142
g Group22168
f 77 67 23 26
g Group32941
f 119 120 151 152
g Group32944
f 10 6 119 152
g Group22168
f 6 10 75 51
g Group32941
f 120 121 153 151
g Group22168
f 51 75 76 52
g Group32941
f 121 122 154 153
g Group22168
f 52 76 77 53
g Group32941
f 122 78 90 154
g Group22168
f 53 77 26 27

 