# File exported by ZBrush version 2021
# www.zbrush.com
#Vertex Count 244
#Face Count 242
#Auto scale x=1.000000 y=1.000000 z=1.000000
#Auto offset x=0.000000 y=0.000000 z=0.000000
v -0.00025552 2.87539792 0.31855198
v -0.00416252 -2.87443089 0.32567897
v -2.3504045 -1.34014105 0.32555496
v -0.49349951 2.32720089 0.31864598
v -1.44964957 1.96810197 0.31866696
v -0.47391653 -2.77641701 0.32562097
v -1.43624258 -2.3982799 0.32559996
v -0.96341252 2.07134699 0.31865796
v -0.95141053 -2.60978412 0.32560896
v -0.00221352 -1.39693701 0.32400897
v -0.00073652 -0.03976601 0.32183796
v -0.00066952 0.64012998 0.32075098
v -0.46494251 0.634135 0.32077896
v -0.45997253 -0.02848101 0.32184296
v -0.46982052 -1.34979105 0.32397598
v -2.20311141 -0.66133099 0.32394596
v -2.09715342 0.337354 0.32184696
v -2.16938042 0.86216598 0.32079896
v -1.38096749 -1.13742196 0.32396397
v -1.31938958 0.05906999 0.32184496
v -1.34390747 0.68547999 0.32078698
v -0.93063151 -1.26180601 0.32396897
v -0.9036805 0.01060398 0.32184496
v -0.91602253 0.656807 0.32078298
v -0.00046252 1.75776398 0.31965196
v -0.47902351 1.46756494 0.31971296
v -2.27381658 1.32244694 0.31974896
v -0.93801051 1.34343898 0.31972098
v -1.39135456 1.316468 0.31972798
v -0.00178652 -2.31150102 0.32484397
v -0.47484952 -2.2356801 0.32479897
v -0.95397353 -2.09413504 0.32478898
v -1.41991055 -1.91077506 0.32478198
v -0.00295352 -1.76626002 0.32442697
v -0.47487452 -1.70564198 0.32438796
v -0.94720649 -1.60379695 0.32437896
v -1.41813755 -1.47363197 0.32437297
v -0.46317052 -0.68948203 0.32290896
v -0.00147452 -0.718351 0.32292398
v -2.11253261 -0.16950801 0.32289597
v -1.33631157 -0.54194903 0.32290396
v -0.91142553 -0.62674701 0.32290697
v -0.48830252 1.88472604 0.31917896
v -0.95567852 1.68808794 0.31918898
v -1.42769157 1.60487401 0.31919696
v -0.00052752 2.31661391 0.31910198
v -1.96753656 -1.34291803 0.32462298
v -1.83354246 -0.92732 0.32395696
v -1.72832846 0.18672798 0.32184597
v -1.7906425 0.74777001 0.32079199
v -1.89179158 1.24924695 0.31973597
v -2.15664649 -1.78551006 0.32558497
v -1.93000948 -1.54073798 0.32480096
v -1.74354648 -0.37688002 0.32290196
v -1.92844748 1.47588896 0.31941798
v -2.35532641 1.84797298 0.31931597
v -1.69544351 1.24946403 0.31973198
v -1.61081254 0.71437597 0.32078898
v -1.56768548 0.12892298 0.32184597
v -1.68091046 -1.01704001 0.32396099
v -1.77567255 -1.369547 0.32436898
v -1.79468858 -1.68163204 0.32477697
v -2.04712843 -1.93817305 0.32559198
v -1.59031248 -0.45096102 0.32290297
v -1.75497949 1.53725993 0.31920298
v -2.10956955 1.97917699 0.31914097
v 2.3504045 -1.34014105 0.32555496
v 0.49349847 2.32720089 0.31864598
v 1.44964849 1.96810197 0.31866696
v 0.47391548 -2.77641701 0.32562097
v 1.4362415 -2.3982799 0.32559996
v 0.96341246 2.07134699 0.31865796
v 0.95140945 -2.60978412 0.32560896
v 0.46494147 0.634135 0.32077896
v 0.45997247 -0.02848101 0.32184296
v 0.46982047 -1.34979105 0.32397598
v 2.20311141 -0.66133099 0.32394596
v 2.09715342 0.337354 0.32184696
v 2.16938042 0.86216598 0.32079896
v 1.38096642 -1.13742196 0.32396397
v 1.31938946 0.05906999 0.32184496
v 1.34390747 0.68547999 0.32078698
v 0.93063145 -1.26180601 0.32396897
v 0.90367949 0.01060398 0.32184496
v 0.91602146 0.656807 0.32078298
v 0.47902247 1.46756494 0.31971296
v 2.27381658 1.32244694 0.31974896
v 0.93801045 1.34343898 0.31972098
v 1.39135444 1.316468 0.31972798
v 0.47484946 -2.2356801 0.32479897
v 0.95397245 -2.09413504 0.32478898
v 1.41990947 -1.91077506 0.32478198
v 0.47487446 -1.70564198 0.32438796
v 0.94720649 -1.60379695 0.32437896
v 1.41813647 -1.47363197 0.32437297
v 0.46317046 -0.68948203 0.32290896
v 2.11253237 -0.16950801 0.32289597
v 1.33631146 -0.54194903 0.32290396
v 0.91142547 -0.62674701 0.32290697
v 0.48830148 1.88472604 0.31917896
v 0.95567745 1.68808794 0.31918898
v 1.42769146 1.60487401 0.31919696
v 1.96753644 -1.34291803 0.32462298
v 1.83354151 -0.92732 0.32395696
v 1.72832846 0.18672798 0.32184597
v 1.79064142 0.74777001 0.32079199
v 1.8917905 1.24924695 0.31973597
v 2.15664649 -1.78551006 0.32558497
v 1.93000948 -1.54073798 0.32480096
v 1.74354648 -0.37688002 0.32290196
v 1.92844653 1.47588896 0.31941798
v 2.35532641 1.84797298 0.31931597
v 1.69544351 1.24946403 0.31973198
v 1.61081242 0.71437597 0.32078898
v 1.56768548 0.12892298 0.32184597
v 1.68091046 -1.01704001 0.32396099
v 1.77567243 -1.369547 0.32436898
v 1.79468751 -1.68163204 0.32477697
v 2.04712843 -1.93817305 0.32559198
v 1.59031248 -0.45096102 0.32290297
v 1.75497841 1.53725993 0.31920298
v 2.10956955 1.97917699 0.31914097
v -0.9160465 0.65579098 -0.32344704
v -0.93788754 1.34246397 -0.32450902
v -0.47877553 1.46676099 -0.32451802
v -0.46490451 0.63321101 -0.32345104
v -0.00066952 0.63925701 -0.32348001
v -0.00073652 -0.04079901 -0.32239204
v -0.46003851 -0.029523 -0.32238704
v -1.34398651 0.68438696 -0.32344299
v -1.39126455 1.31536793 -0.32450205
v -1.41835057 -1.47430598 -0.31985801
v -1.38124346 -1.13835203 -0.320266
v -0.93082451 -1.26272296 -0.320261
v -0.94736754 -1.604447 -0.31985205
v -1.42030155 -1.91162502 -0.319449
v -0.9542315 -2.09491896 -0.31944203
v -0.00046252 1.75705099 -0.324579
v -0.9037975 0.00953498 -0.32238501
v -1.31960451 0.05796299 -0.32238501
v -0.00178652 -2.31223297 -0.31938701
v -0.00416252 -2.87539792 -0.318551
v -0.47412452 -2.77740192 -0.31860899
v -0.47498753 -2.23642611 -0.31943202
v -0.9517765 -2.61080789 -0.31862103
v -1.43681752 -2.39937901 -0.31863004
v -0.00221452 -1.39782404 -0.32022202
v -0.00295352 -1.76687705 -0.31980401
v -0.47495251 -1.70626795 -0.31984305
v -0.46991953 -1.35068702 -0.32025402
v -0.00147452 -0.71938598 -0.32130605
v -0.4632655 -0.69052702 -0.32132101
v -0.91160553 -0.627824 -0.32132303
v -1.33660757 -0.54306399 -0.32132601
v -0.95543754 1.68716394 -0.32504099
v -0.48787751 1.88394594 -0.32505101
v -0.96313852 2.07048106 -0.32557201
v -0.49301752 2.326442 -0.32558405
v -1.42753756 1.60386395 -0.325033
v -1.44950854 1.96719503 -0.32556301
v -0.00025452 2.87470388 -0.325679
v -0.00052652 2.31591105 -0.32512903
v -2.20406055 -0.66243803 -0.320284
v -1.83433949 -0.92832702 -0.32027304
v -1.96861648 -1.34373402 -0.31960701
v -2.3517425 -1.34103906 -0.31867402
v -2.09768962 0.33607697 -0.32238304
v -2.16980862 0.860767 -0.32343
v -1.79097151 0.746432 -0.32343804
v -1.72880256 0.18549199 -0.322384
v -2.27416348 1.32135498 -0.32448101
v -1.89204657 1.24809193 -0.324494
v -1.93121957 -1.54156005 -0.31942802
v -2.15798854 -1.78635501 -0.31864404
v -2.11320161 -0.17072001 -0.321334
v -1.74415254 -0.37806001 -0.32132804
v -2.35566854 1.84738194 -0.32491505
v -1.92874157 1.47512996 -0.324813
v -1.61093449 0.713144 -0.32344102
v -1.6954205 1.24826693 -0.32449799
v -1.56803751 0.12774798 -0.322384
v -1.77625048 -1.37027001 -0.31986105
v -1.68140947 -1.01795005 -0.32026904
v -1.79555356 -1.68253898 -0.319453
v -2.04817462 -1.93923306 -0.31863701
v -1.59079957 -0.45210501 -0.32132703
v -1.75520157 1.53639602 -0.325028
v -2.11004662 1.97856402 -0.32509005
v 0.47877547 1.46676099 -0.32451802
v 0.93788647 1.34246397 -0.32450902
v 0.91604548 0.65579098 -0.32344704
v 0.46490448 0.63321101 -0.32345104
v 1.39126443 1.31536793 -0.32450205
v 1.34398543 0.68438696 -0.32344299
v 0.9308235 -1.26272296 -0.320261
v 1.38124251 -1.13835203 -0.320266
v 1.41835045 -1.47430598 -0.31985801
v 0.94736748 -1.604447 -0.31985205
v 1.42030048 -1.91162502 -0.319449
v 0.95423048 -2.09491896 -0.31944203
v 0.90379744 0.00953498 -0.32238501
v 0.46003848 -0.02952401 -0.32238704
v 1.31960451 0.05796299 -0.32238501
v 0.47498646 -2.23642611 -0.31943202
v 0.95177549 -2.61080789 -0.31862103
v 0.47412347 -2.77740192 -0.31860899
v 1.43681752 -2.39937901 -0.31863004
v 0.47495248 -1.70626795 -0.31984305
v 0.46991947 -1.35068702 -0.32025402
v 0.46326446 -0.69052702 -0.32132101
v 0.91160446 -0.627824 -0.32132303
v 1.33660745 -0.54306399 -0.32132601
v 0.48787748 1.88394594 -0.32505202
v 0.95543748 1.68716394 -0.32504099
v 0.49301746 2.326442 -0.32558405
v 0.96313744 2.07048106 -0.32557201
v 1.42753744 1.60386395 -0.325033
v 1.44950842 1.96719503 -0.32556301
v 1.96861648 -1.34373402 -0.31960701
v 1.83433949 -0.92832702 -0.32027304
v 2.20405936 -0.66243803 -0.320284
v 2.3517425 -1.34103906 -0.31867402
v 1.79097044 0.746432 -0.32343804
v 2.16980838 0.860767 -0.32343
v 2.09768939 0.33607697 -0.32238304
v 1.72880148 0.18549199 -0.322384
v 1.89204645 1.24809193 -0.324494
v 2.27416348 1.32135498 -0.32448101
v 1.9312185 -1.54156005 -0.31942802
v 2.15798759 -1.78635501 -0.31864404
v 1.74415242 -0.37806001 -0.32132804
v 2.11320138 -0.17072001 -0.321334
v 1.92874145 1.47512996 -0.324813
v 2.35566854 1.84738194 -0.32491505
v 1.69541943 1.24826693 -0.32449799
v 1.61093342 0.713144 -0.32344102
v 1.56803751 0.12774798 -0.322384
v 1.68140947 -1.01795005 -0.32026904
v 1.77624952 -1.37027001 -0.31986105
v 1.79555344 -1.68253898 -0.319453
v 2.04817438 -1.93923306 -0.31863701
v 1.59079945 -0.45210501 -0.32132703
v 1.7552005 1.53639602 -0.325028
v 2.11004543 1.97856402 -0.32509005
g Group32941
f 126 125 124 123
g Group62038
f 13 24 28 26
g Group32941
f 126 129 128 127
g Group62038
f 13 12 11 14
g Group32941
f 123 124 131 130
g Group62038
f 24 21 29 28
g Group32941
f 135 134 133 132
g Group62038
f 36 37 19 22
g Group32941
f 137 135 132 136
g Group62038
f 32 33 37 36
g Group32941
f 125 126 127 138
g Group62038
f 26 25 12 13
g Group32941
f 129 126 123 139
g Group62038
f 14 23 24 13
g Group32941
f 139 123 130 140
g Group62038
f 23 20 21 24
g Group32941
f 144 143 142 141
g Group32944
f 6 2 142 143
g Group62038
f 31 30 2 6
g Group32941
f 143 144 137 145
g Group32944
f 9 6 143 145
g Group62038
f 6 9 32 31
g Group32941
f 145 137 136 146
g Group32944
f 7 9 145 146
g Group62038
f 9 7 33 32
g Group32941
f 150 149 148 147
g Group62038
f 15 10 34 35
g Group32941
f 149 144 141 148
g Group62038
f 35 34 30 31
g Group32941
f 144 149 135 137
g Group62038
f 31 32 36 35
g Group32941
f 149 150 134 135
g Group62038
f 35 36 22 15
g Group32941
f 129 152 151 128
g Group62038
f 14 11 39 38
g Group32941
f 152 150 147 151
g Group62038
f 38 39 10 15
g Group32941
f 150 152 153 134
g Group62038
f 15 22 42 38
g Group32941
f 152 129 139 153
g Group62038
f 38 42 23 14
g Group32941
f 134 153 154 133
g Group62038
f 22 19 41 42
g Group32941
f 153 139 140 154
g Group62038
f 42 41 20 23
g Group32941
f 125 156 155 124
g Group62038
f 26 28 44 43
g Group32941
f 156 158 157 155
g Group32944
f 4 8 157 158
g Group62038
f 43 44 8 4
g Group32941
f 124 155 159 131
g Group62038
f 28 29 45 44
g Group32941
f 155 157 160 159
g Group32944
f 8 5 160 157
g Group62038
f 44 45 5 8
g Group32941
f 158 156 162 161
g Group32944
f 1 4 158 161
g Group62038
f 4 1 46 43
g Group32941
f 156 125 138 162
g Group62038
f 43 46 25 26
f 86 25 46 100
g Group32941
f 189 213 162 138
g Group62038
f 70 2 30 90
g Group32944
f 2 70 206 142
g Group32941
f 206 204 141 142
g Group62038
f 90 30 34 93
g Group32941
f 204 208 148 141
g Group62038
f 93 34 10 76
g Group32941
f 208 209 147 148
g Group62038
f 76 10 39 96
g Group32941
f 209 210 151 147
g Group62038
f 96 39 11 75
g Group32941
f 210 202 128 151
g Group62038
f 75 11 12 74
g Group32941
f 202 192 127 128
g Group62038
f 74 12 25 86
g Group32941
f 192 189 138 127
g Group62038
f 100 46 1 68
g Group32944
f 68 1 161 215
g Group32941
f 213 215 161 162
f 166 165 164 163
g Group32944
f 16 3 166 163
g Group62038
f 3 16 48 47
g Group32941
f 170 169 168 167
g Group32944
f 18 17 167 168
g Group62038
f 49 17 18 50
g Group32941
f 169 172 171 168
g Group32944
f 27 18 168 171
g Group62038
f 50 18 27 51
g Group32941
f 174 173 165 166
g Group32944
f 3 52 174 166
g Group62038
f 52 3 47 53
g Group32941
f 164 176 175 163
g Group32944
f 40 16 163 175
g Group62038
f 48 16 40 54
g Group32941
f 176 170 167 175
g Group32944
f 17 40 175 167
g Group62038
f 54 40 17 49
g Group32941
f 172 178 177 171
g Group32944
f 56 27 171 177
g Group62038
f 51 27 56 55
g Group32941
f 131 180 179 130
g Group62038
f 29 21 58 57
g Group32941
f 130 179 181 140
g Group62038
f 21 20 59 58
g Group32941
f 133 183 182 132
g Group62038
f 19 37 61 60
g Group32941
f 132 182 184 136
g Group62038
f 37 33 62 61
g Group32941
f 136 184 185 146
g Group32944
f 63 7 146 185
g Group62038
f 33 7 63 62
g Group32941
f 154 186 183 133
g Group62038
f 41 19 60 64
g Group32941
f 140 181 186 154
g Group62038
f 20 41 64 59
g Group32941
f 159 187 180 131
g Group62038
f 45 29 57 65
g Group32941
f 188 187 159 160
g Group32944
f 5 66 188 160
g Group62038
f 66 5 45 65
g Group32941
f 181 179 169 170
g Group62038
f 59 49 50 58
g Group32941
f 179 180 172 169
g Group62038
f 58 50 51 57
g Group32941
f 184 182 165 173
g Group62038
f 62 53 47 61
g Group32941
f 185 184 173 174
g Group32944
f 52 63 185 174
g Group62038
f 63 52 53 62
g Group32941
f 183 186 176 164
g Group62038
f 60 48 54 64
g Group32941
f 187 188 177 178
g Group32944
f 66 56 177 188
g Group62038
f 65 55 56 66
g Group32941
f 180 187 178 172
g Group62038
f 57 51 55 65
g Group32941
f 164 165 182 183
g Group62038
f 48 60 61 47
g Group32941
f 170 176 186 181
g Group62038
f 49 59 64 54
g Group32941
f 192 191 190 189
g Group62038
f 74 86 88 85
g Group32941
f 191 194 193 190
g Group62038
f 85 88 89 82
g Group32941
f 198 197 196 195
g Group62038
f 94 83 80 95
g Group32941
f 200 199 197 198
g Group62038
f 91 94 95 92
g Group32941
f 202 201 191 192
g Group62038
f 75 74 85 84
g Group32941
f 201 203 194 191
g Group62038
f 84 85 82 81
g Group32941
f 206 205 200 204
g Group32944
f 70 73 205 206
g Group62038
f 70 90 91 73
g Group32941
f 205 207 199 200
g Group32944
f 73 71 207 205
g Group62038
f 73 91 92 71
g Group32941
f 204 200 198 208
g Group62038
f 90 93 94 91
g Group32941
f 208 198 195 209
g Group62038
f 93 76 83 94
g Group32941
f 209 195 211 210
g Group62038
f 76 96 99 83
g Group32941
f 210 211 201 202
g Group62038
f 96 75 84 99
g Group32941
f 195 196 212 211
g Group62038
f 83 99 98 80
g Group32941
f 211 212 203 201
g Group62038
f 99 84 81 98
g Group32941
f 189 190 214 213
g Group62038
f 86 100 101 88
g Group32941
f 213 214 216 215
g Group32944
f 72 68 215 216
g Group62038
f 100 68 72 101
g Group32941
f 190 193 217 214
g Group62038
f 88 101 102 89
g Group32941
f 214 217 218 216
g Group32944
f 69 72 216 218
g Group62038
f 101 72 69 102
g Group32941
f 193 194 236 235
g Group62038
f 89 113 114 82
g Group32941
f 194 203 237 236
g Group62038
f 82 114 115 81
g Group32941
f 196 197 239 238
g Group62038
f 80 116 117 95
g Group32941
f 197 199 240 239
g Group62038
f 95 117 118 92
g Group32941
f 199 207 241 240
g Group32944
f 71 119 241 207
g Group62038
f 92 118 119 71
g Group32941
f 212 196 238 242
g Group62038
f 98 120 116 80
g Group32941
f 203 212 242 237
g Group62038
f 81 115 120 98
g Group32941
f 217 193 235 243
g Group62038
f 102 121 113 89
g Group32941
f 218 217 243 244
g Group32944
f 122 69 218 244
g Group62038
f 69 122 121 102
g Group32941
f 222 221 220 219
g Group32944
f 67 77 221 222
g Group62038
f 67 103 104 77
g Group32941
f 226 225 224 223
g Group32944
f 78 79 224 225
g Group62038
f 105 106 79 78
g Group32941
f 223 224 228 227
g Group32944
f 79 87 228 224
g Group62038
f 106 107 87 79
g Group32941
f 230 222 219 229
g Group32944
f 108 67 222 230
g Group62038
f 108 109 103 67
g Group32941
f 220 221 232 231
g Group32944
f 77 97 232 221
g Group62038
f 104 110 97 77
g Group32941
f 231 232 225 226
g Group32944
f 97 78 225 232
g Group62038
f 110 105 78 97
g Group32941
f 227 228 234 233
g Group32944
f 87 112 234 228
g Group62038
f 107 111 112 87
f 105 110 120 115
g Group32941
f 226 237 242 231
g Group62038
f 104 103 117 116
g Group32941
f 220 238 239 219
g Group62038
f 113 121 111 107
g Group32941
f 235 227 233 243
g Group62038
f 121 122 112 111
g Group32944
f 112 122 244 234
g Group32941
f 243 233 234 244
g Group62038
f 116 120 110 104
g Group32941
f 238 220 231 242
g Group62038
f 119 118 109 108
g Group32944
f 119 108 230 241
g Group32941
f 241 230 229 240
g Group62038
f 118 117 103 109
g Group32941
f 240 229 219 239
g Group62038
f 114 113 107 106
g Group32941
f 236 223 227 235
g Group62038
f 115 114 106 105
g Group32941
f 237 226 223 236

 