# File exported by ZBrush version 2021
# www.zbrush.com
#Vertex Count 140
#Face Count 138
#Auto scale x=1.000000 y=1.000000 z=1.000000
#Auto offset x=0.000000 y=0.000000 z=0.000000
v 3.15086054 1.2914505 0.29225498
v 0.21830652 -3.08892154 0.283239
v 0.00565852 3.08806753 0.29225498
v 0.00033152 -3.08892154 0.283239
v 1.05628657 2.91628837 0.29225498
v 0.06228352 -3.08892154 0.283239
v 2.30606746 2.26637458 0.29225498
v 0.15936853 -3.08892154 0.283239
v 0.89201551 2.3704884 0.29139298
v 0.00511852 2.46237635 0.291341
v 2.9435656 0.98181146 0.291619
v 2.07142353 1.82132744 0.29143598
v 0.73116552 1.69594442 0.290349
v 0.00450252 1.74727547 0.290297
v 2.67488646 0.58048248 0.290793
v 1.81786251 1.28721249 0.290513
v 0.59145253 0.99157047 0.289278
v 0.00387452 1.01919448 0.28923499
v 2.36474442 0.11722046 0.28983798
v 1.57767951 0.71770149 0.28953
v 1.33167552 0.11684247 0.28850498
v 0.47365853 0.28755846 0.288219
v 0.00325652 0.30189147 0.28818699
v 2.02675652 -0.38763353 0.28879898
v 1.08797049 -0.51003754 0.287449
v 0.37369751 -0.41105353 0.28717801
v 0.00264852 -0.40338352 0.28715798
v 1.67086851 -0.91922354 0.28770399
v 0.84502452 -1.16392457 0.28637099
v 0.28524753 -1.10023951 0.28615698
v 0.00205052 -1.0963025 0.28614699
v 1.29892647 -1.47479355 0.28655999
v 0.91464954 -2.04879355 0.28537899
v 0.20344051 -1.78578853 0.28514799
v 0.60125351 -1.83897948 0.285259
v 0.00145752 -1.7837975 0.28514298
v -3.15086054 1.2914505 0.29225498
v -0.21830947 -3.08892154 0.283239
v -1.05628848 2.91628837 0.29225498
v -0.06228647 -3.08892154 0.283239
v -2.30606842 2.26637458 0.29225498
v -0.15937048 -3.08892154 0.283239
v -0.89201647 2.3704884 0.29139298
v -2.94356656 0.98181146 0.291619
v -2.07142448 1.82132744 0.29143598
v -0.73116844 1.69594442 0.290349
v -2.67488741 0.58048248 0.290793
v -1.81786346 1.28721249 0.290513
v -0.59145546 0.99157047 0.289278
v -2.36474537 0.11722046 0.28983798
v -1.57768046 0.71770149 0.28953
v -1.33167851 0.11684247 0.28850498
v -0.47366046 0.28755846 0.288219
v -2.02675747 -0.38763353 0.28879898
v -1.08797252 -0.51003754 0.287449
v -0.37369948 -0.41105353 0.28717801
v -1.67086947 -0.91922354 0.28770399
v -0.84502649 -1.16392457 0.28637099
v -0.28525048 -1.10023951 0.28615698
v -1.29892742 -1.47479355 0.28655999
v -0.91465246 -2.04879355 0.28537899
v -0.20344348 -1.78578853 0.28514799
v -0.60125649 -1.83897948 0.285259
v 0.38031053 -2.46395158 0.28424799
v 0.13286252 -2.43735551 0.284193
v -0.13286447 -2.43735551 0.284193
v 0.00089452 -2.43636059 0.28419098
v 0.5664795 -2.56885647 0.28430798
v -0.38031348 -2.46395158 0.28424799
v -0.56648045 -2.56885647 0.28430798
v 0.60173153 -1.83821058 -0.29023602
v 0.84553754 -1.16316556 -0.28912302
v 1.29964256 -1.47409856 -0.28893402
v 0.9153335 -2.04808449 -0.29011502
v 1.33222353 0.11759446 -0.28699001
v 1.57823956 0.71844947 -0.28596398
v 2.36548948 0.11790247 -0.285656
v 2.02749657 -0.38694953 -0.28669503
v 1.08850252 -0.50928354 -0.28804501
v 0.28541952 -1.09940648 -0.289337
v 0.37388852 -0.41022151 -0.28831598
v 0.47386851 0.28839045 -0.28727498
v 0.59168154 0.99240249 -0.28621599
v 0.20358853 -1.78495454 -0.29034599
v 0.00511952 2.46322941 -0.28415301
v 0.00565952 3.08892154 -0.28323897
v 1.05655753 2.91712141 -0.28323897
v 0.89227753 2.37131738 -0.28410098
v 2.3066535 2.26711154 -0.28323897
v 2.07200145 1.82206141 -0.284058
v 3.15162253 1.29211342 -0.28323897
v 2.94431853 0.98247349 -0.28387603
v 0.00145752 -1.78295648 -0.290351
v 0.00205052 -1.09545958 -0.28934702
v 1.81842947 1.28795146 -0.28498199
v 2.67563247 0.58115249 -0.28470102
v 0.00450352 1.74812543 -0.28519699
v 0.7314105 1.69677245 -0.28514501
v -0.20359148 -1.78495454 -0.29034599
v -0.28542247 -1.09940648 -0.289337
v 0.00387452 1.02004241 -0.28625997
v 0.00264852 -0.40253952 -0.288336
v -0.37389147 -0.41022151 -0.28831598
v 0.00325652 0.30273747 -0.28730699
v 1.6715995 -0.91853553 -0.28779003
v -1.29964351 -1.47409856 -0.28893402
v -0.84553945 -1.16316556 -0.28912302
v -0.60173445 -1.83821058 -0.29023602
v -0.91533649 -2.04808449 -0.29011502
v -2.36549043 0.11790247 -0.285656
v -1.57824051 0.71844947 -0.28596398
v -1.33222651 0.11759446 -0.28699001
v -2.02749753 -0.38694953 -0.28669503
v -1.0885055 -0.50928354 -0.28804501
v -0.47387048 0.28839045 -0.28727498
v -0.59168344 0.99240249 -0.28621599
v -0.89227747 2.37131857 -0.28410098
v -2.07200145 1.82206141 -0.284058
v -2.30665445 2.26711154 -0.28323897
v -1.05655944 2.91712141 -0.28323897
v -2.94431948 0.98247349 -0.28387603
v -3.15162253 1.29211342 -0.28323897
v -1.81843042 1.28795146 -0.28498199
v -2.67563343 0.58115249 -0.28470102
v -0.73141348 1.69677341 -0.28514501
v -1.67160153 -0.91853553 -0.28779003
v 0.06236752 -3.08807659 -0.29225501
v 0.13297152 -2.43651557 -0.29130098
v 0.38069951 -2.46315264 -0.29124602
v 0.15968951 -3.08809447 -0.29225501
v 0.00089452 -2.43552064 -0.291303
v -0.13297247 -2.43651557 -0.29130098
v 0.00033152 -3.08808064 -0.29225501
v -0.06236947 -3.08807659 -0.29225501
v 0.56705153 -2.56809544 -0.291186
v 0.21879252 -3.08811759 -0.29225501
v -0.15969248 -3.08809447 -0.29225501
v -0.38070148 -2.46315264 -0.29124602
v -0.21879448 -3.08811759 -0.29225501
v -0.56705248 -2.56809544 -0.291186
g Group32941
f 74 73 72 71
g Group32944
f 33 32 73 74
g Group23033
f 33 35 29 32
g Group32941
f 78 77 76 75
g Group32944
f 24 19 77 78
g Group23033
f 24 21 20 19
g Group32941
f 81 80 72 79
g Group23033
f 26 25 29 30
g Group32941
f 83 82 75 76
g Group23033
f 17 20 21 22
g Group32941
f 80 84 71 72
g Group23033
f 30 29 35 34
g Group32941
f 88 87 86 85
g Group32944
f 5 3 86 87
g Group23033
f 9 10 3 5
g Group32941
f 87 88 90 89
g Group32944
f 7 5 87 89
g Group23033
f 5 7 12 9
g Group32941
f 89 90 92 91
g Group32944
f 1 7 89 91
f 11 1 91 92
g Group23033
f 7 1 11 12
g Group32941
f 84 80 94 93
g Group23033
f 34 36 31 30
g Group32941
f 96 92 90 95
g Group32944
f 15 11 92 96
g Group23033
f 15 16 12 11
g Group32941
f 98 88 85 97
g Group23033
f 13 14 10 9
g Group32941
f 88 98 95 90
g Group23033
f 9 12 16 13
g Group32941
f 100 99 93 94
g Group23033
f 59 31 36 62
g Group32941
f 76 95 98 83
g Group23033
f 20 17 13 16
g Group32941
f 83 98 97 101
g Group23033
f 17 18 14 13
g Group32941
f 80 81 102 94
g Group23033
f 30 31 27 26
g Group32941
f 95 76 77 96
g Group32944
f 19 15 96 77
g Group23033
f 16 15 19 20
g Group32941
f 103 100 94 102
g Group23033
f 56 27 31 59
g Group32941
f 82 83 101 104
g Group23033
f 22 23 18 17
g Group32941
f 73 105 79 72
g Group32944
f 32 28 105 73
g Group23033
f 32 29 25 28
g Group32941
f 105 78 75 79
g Group32944
f 28 24 78 105
g Group23033
f 28 25 21 24
g Group32941
f 82 81 79 75
g Group23033
f 22 21 25 26
g Group32941
f 81 82 104 102
g Group23033
f 26 27 23 22
g Group32941
f 109 108 107 106
g Group32944
f 60 61 109 106
g Group23033
f 61 60 58 63
g Group32941
f 113 112 111 110
g Group32944
f 50 54 113 110
g Group23033
f 54 50 51 52
g Group32941
f 103 114 107 100
g Group23033
f 56 59 58 55
g Group32941
f 116 111 112 115
g Group23033
f 49 53 52 51
g Group32941
f 100 107 108 99
g Group23033
f 59 62 63 58
g Group32941
f 120 119 118 117
g Group32944
f 39 41 119 120
g Group23033
f 39 43 45 41
g Group32941
f 119 122 121 118
g Group32944
f 37 44 121 122
f 41 37 122 119
g Group23033
f 41 45 44 37
g Group32941
f 124 123 118 121
g Group32944
f 44 47 124 121
g Group23033
f 47 44 45 48
g Group32941
f 117 118 123 125
g Group23033
f 43 46 48 45
g Group32941
f 115 103 102 104
g Group23033
f 53 23 27 56
g Group32941
f 111 116 125 123
g Group23033
f 51 48 46 49
g Group32941
f 123 124 110 111
g Group32944
f 47 50 110 124
g Group23033
f 48 51 50 47
g Group32941
f 116 115 104 101
g Group23033
f 49 18 23 53
g Group32941
f 106 107 114 126
g Group32944
f 57 60 106 126
g Group23033
f 60 57 55 58
g Group32941
f 126 114 112 113
g Group32944
f 54 57 126 113
g Group23033
f 57 54 52 55
g Group32941
f 115 112 114 103
g Group23033
f 53 56 55 52
g Group32941
f 120 117 85 86
g Group32944
f 3 39 120 86
g Group23033
f 39 3 10 43
g Group32941
f 117 125 97 85
g Group23033
f 43 10 14 46
g Group32941
f 125 116 101 97
g Group23033
f 46 14 18 49
g Group32941
f 130 129 128 127
g Group32944
f 6 8 130 127
g Group23033
f 8 6 65 64
g Group32941
f 129 71 84 128
g Group23033
f 64 65 34 35
g Group32941
f 99 132 131 93
g Group23033
f 62 36 67 66
g Group32941
f 132 134 133 131
g Group32944
f 40 4 133 134
g Group23033
f 66 67 4 40
g Group32941
f 136 135 129 130
g Group32944
f 8 2 136 130
f 2 68 135 136
g Group23033
f 2 8 64 68
g Group32941
f 135 74 71 129
g Group32944
f 68 33 74 135
g Group23033
f 68 64 35 33
g Group32941
f 127 128 131 133
g Group32944
f 4 6 127 133
g Group23033
f 6 4 67 65
g Group32941
f 128 84 93 131
g Group23033
f 65 67 36 34
g Group32941
f 134 132 138 137
g Group32944
f 42 40 134 137
g Group23033
f 40 42 69 66
g Group32941
f 132 99 108 138
g Group23033
f 66 69 63 62
g Group32941
f 137 138 140 139
g Group32944
f 38 42 137 139
f 70 38 139 140
g Group23033
f 42 38 70 69
g Group32941
f 138 108 109 140
g Group32944
f 61 70 140 109
g Group23033
f 69 70 61 63

 