# File exported by ZBrush version 2021
# www.zbrush.com
#Vertex Count 174
#Face Count 172
#Auto scale x=1.000000 y=1.000000 z=1.000000
#Auto offset x=0.000000 y=0.000000 z=0.000000
v 0.1516934 2.60228347 0.26259002
v 0.1511594 -2.60305953 0.254792
v -0.1525006 2.60228347 0.26259002
v -0.1519666 -2.60305953 0.254792
v -0.15239359 1.56121552 0.26103001
v 0.15158639 1.56121552 0.26103001
v -0.15228658 0.52014857 0.25947099
v 0.1514794 0.52014857 0.25947099
v -0.15218059 -0.5209214 0.25791102
v 0.1513734 -0.5209214 0.25791102
v -0.15207359 -1.56198942 0.256352
v 0.15126641 -1.56198942 0.256352
v -0.15224959 0.15316456 0.25892001
v 0.1515894 0.15315157 0.25892001
v -0.15198059 -0.15260243 0.25846302
v 0.1511674 -0.15260243 0.25846302
v 2.6022675 -0.15248443 0.26259002
v -2.6030755 -0.15194843 0.254792
v 2.6022675 0.15171057 0.26259002
v -2.60307455 0.15117657 0.254792
v -0.1522706 0.36632856 0.25924
v 0.1515254 0.36632257 0.25924
v -0.36957559 -0.15234343 0.25813701
v -0.3696866 0.15211856 0.25832501
v 0.36644941 0.15218657 0.25924101
v 0.3662734 -0.15240843 0.25905102
v -0.15209659 -0.36659443 0.25814202
v 0.1512874 -0.36659443 0.25814202
v 1.94751143 1.73243057 0.26259002
v -1.73359954 -1.94792437 0.254792
v 1.73241341 1.94752752 0.26259002
v -1.94794154 -1.73358237 0.254792
v 0.99634337 1.21130657 0.26103001
v 1.2112894 0.99635958 0.26103001
v 0.26027241 0.47508457 0.25947099
v 0.4750674 0.26028958 0.25947099
v -0.47579959 -0.26113742 0.25791102
v -0.26115459 -0.47578242 0.25791102
v -1.21187055 -0.99735945 0.256352
v -0.99737662 -1.21185338 0.256352
v 1.73241341 -1.94830238 0.26259002
v -1.94794058 1.73280954 0.254792
v 1.94751143 -1.73320448 0.26259002
v -1.73359859 1.94715154 0.254792
v 1.2112894 -0.99713343 0.26103001
v 0.99634242 -1.21208047 0.26103001
v 0.4750674 -0.26106244 0.25947099
v 0.26027241 -0.47585743 0.25947099
v -0.26115459 0.47500956 0.25791102
v -0.47579959 0.26036456 0.25791102
v -0.99737662 1.21108055 0.256352
v -1.21186959 0.99658656 0.256352
v -1.10326957 1.10518658 0.256352
v -0.36712259 0.36904156 0.25791102
v -1.83941757 1.84133362 0.254792
v 1.10443437 1.10321557 0.26103001
v 1.84058141 1.83936154 0.26259002
v 0.36828741 0.36706957 0.25947099
v -1.10111653 -1.10811245 0.256352
v -0.36496859 -0.37196841 0.25791102
v -1.83726656 -1.84425747 0.254792
v 1.10071444 -1.10770845 0.26103001
v 1.83685839 -1.84385645 0.26259002
v 0.3645704 -0.37155944 0.25947099
v 1.48435843 0.15194857 0.26091602
v 1.48427045 -0.15244643 0.26082
v -1.48638057 0.15164756 0.256558
v -1.48632562 -0.15214642 0.25646501
v -0.1521146 0.00028057 0.25869101
v 0.1513784 0.00027457 0.25869101
v -0.3696306 -0.00011243 0.25823101
v 0.3663614 -0.00011043 0.259146
v 1.48431444 -0.00024843 0.26086801
v 2.6022675 -0.00038643 0.26259002
v -1.48635256 -0.00024943 0.256511
v -2.60307455 -0.00038643 0.254792
v -0.00040359 1.56121552 0.26103001
v -0.00040359 2.60228347 0.26259002
v -0.00040359 0.52014857 0.25947099
v -0.00037259 0.36632555 0.25924
v -0.00040359 -1.56198942 0.256352
v -0.00040359 -0.5209214 0.25791102
v -0.00040359 -2.60305953 0.254792
v -0.00040459 -0.36659443 0.25814202
v -0.00040659 -0.15260243 0.25846302
v -0.00033059 0.15315857 0.25892001
v -0.00036759 0.00027757 0.25869101
v 0.99689042 -1.21262848 -0.256352
v 0.26215139 -0.47639644 -0.25791001
v 0.36596539 -0.37221643 -0.25791096
v 1.10126245 -1.10825741 -0.256352
v -0.15154559 -0.15193443 -0.258919
v -0.15191559 -0.36584442 -0.25923997
v -0.26060959 -0.47515842 -0.25947099
v -0.36438459 -0.37138342 -0.25947099
v 1.73296141 -1.94885146 -0.25479197
v 1.83740639 -1.84440541 -0.25479197
v 0.1523154 -0.15249043 -0.25892001
v 0.36738541 -0.15247942 -0.258331
v 0.4759784 -0.26183742 -0.25791096
v 1.84112942 1.83990955 -0.25479197
v 1.10498237 1.10376358 -0.256352
v 0.99689137 1.21185457 -0.256352
v 1.73296141 1.9480766 -0.25479197
v 0.36887341 0.36765557 -0.25791096
v 0.26082038 0.47570857 -0.25791096
v -1.10056865 -1.10756444 -0.26102995
v -1.21132254 -0.99681145 -0.26102995
v -0.4751766 -0.26059043 -0.25947099
v -1.83671855 -1.84370946 -0.26258999
v -1.94739365 -1.73303437 -0.26258999
v 1.21183741 -0.99768143 -0.256352
v 1.94805944 -1.73375248 -0.25479197
v -0.36573058 0.36838156 -0.25947099
v -1.10272157 1.10463762 -0.26102995
v -0.99682861 1.21053254 -0.26102995
v -0.25928458 0.47446456 -0.25946998
v -1.83886957 1.84078455 -0.26258999
v -1.73305058 1.94660258 -0.26258999
v -0.15120659 0.36666557 -0.25814396
v -0.15110459 0.15327556 -0.25846296
v 0.3672564 0.15263256 -0.25814098
v 0.1520264 0.15382057 -0.25846201
v 0.47569039 0.26083657 -0.25791096
v -0.36876958 -0.15189942 -0.25924497
v 0.15235739 -0.36625441 -0.25924199
v -0.47488558 0.25958856 -0.25947099
v -1.21132159 0.99603855 -0.26102995
v -1.94739258 1.73226058 -0.26258999
v -0.36857259 0.15204657 -0.25905698
v 1.94805944 1.73297858 -0.25479197
v 1.21183741 0.99690759 -0.256352
v 0.1517084 0.36707356 -0.25814199
v -0.99682861 -1.21130538 -0.26102995
v -1.73305153 -1.94737649 -0.26258999
v -0.15156859 0.00094057 -0.25869101
v -0.3686856 0.00028057 -0.25915098
v 0.1519254 0.00093457 -0.25869101
v 0.36730739 0.00028457 -0.25823599
v 2.60305333 0.15179157 -0.25479197
v 2.60306429 -0.00030543 -0.25479197
v 1.48511135 -0.00008643 -0.25651401
v 1.48514437 0.15211057 -0.25646597
v 2.6030755 -0.15240342 -0.25479197
v 1.48507845 -0.15228442 -0.25656199
v -1.4855566 -0.00009043 -0.26087099
v -1.48557364 0.15180757 -0.26082396
v -1.48554062 -0.15198843 -0.260917
v -2.6022787 -0.00030743 -0.26258999
v -2.6022675 0.15125657 -0.26258999
v -2.60229063 -0.15187043 -0.26258999
v -0.1525006 2.60305953 -0.25479197
v -0.00040359 2.60305953 -0.25479197
v -0.00040359 1.56199061 -0.256352
v -0.15239359 1.56199061 -0.256352
v 0.1516934 2.60305953 -0.25479197
v 0.15158639 1.56199061 -0.256352
v -0.00040359 0.52092355 -0.25791096
v -0.15228658 0.52092355 -0.25791096
v 0.1514794 0.52092355 -0.25791096
v -0.00037259 0.36710158 -0.25814199
v -0.15218059 -0.52014744 -0.25947099
v -0.00040359 -0.52014744 -0.25947099
v -0.00040359 -1.56121444 -0.26102995
v -0.15207359 -1.56121444 -0.26102995
v 0.1513734 -0.52014744 -0.25947099
v 0.15126641 -1.56121444 -0.26102995
v -0.00040359 -2.60228347 -0.26258999
v -0.1519666 -2.60228347 -0.26258999
v 0.1511594 -2.60228347 -0.26258999
v -0.00040659 -0.15182943 -0.258919
v -0.00040459 -0.36581942 -0.25923997
v -0.00033059 0.15393357 -0.25846201
v -0.00036759 0.00105057 -0.25869101
g Group32941
f 91 90 89 88
g Group32944
f 48 46 88 89
g Group60420
f 62 46 48 64
g Group32941
f 95 94 93 92
g Group32944
f 38 27 93 94
g Group60420
f 60 15 27 38
g Group32941
f 97 91 88 96
g Group32944
f 41 63 97 96
f 46 41 96 88
g Group60420
f 63 41 46 62
g Group32941
f 90 100 99 98
g Group32944
f 47 26 99 100
g Group60420
f 64 16 26 47
g Group32941
f 104 103 102 101
g Group32944
f 57 31 104 101
f 31 33 103 104
g Group60420
f 31 57 56 33
g Group32941
f 103 106 105 102
g Group32944
f 33 35 106 103
g Group60420
f 33 56 58 35
g Group32941
f 109 108 107 95
g Group32944
f 37 39 108 109
g Group60420
f 37 60 59 39
g Group32941
f 108 111 110 107
g Group32944
f 32 61 110 111
f 39 32 111 108
g Group60420
f 39 59 61 32
g Group32941
f 113 112 91 97
g Group32944
f 63 43 113 97
f 43 45 112 113
g Group60420
f 43 63 62 45
g Group32941
f 112 100 90 91
g Group32944
f 45 47 100 112
g Group60420
f 45 62 64 47
g Group32941
f 117 116 115 114
g Group32944
f 49 51 116 117
g Group60420
f 49 54 53 51
g Group32941
f 116 119 118 115
g Group32944
f 44 55 118 119
f 51 44 119 116
g Group60420
f 51 53 55 44
g Group32941
f 117 114 121 120
g Group32944
f 21 49 117 120
g Group60420
f 49 21 13 54
g Group32941
f 124 105 123 122
g Group32944
f 25 36 124 122
g Group60420
f 36 25 14 58
g Group32941
f 109 95 92 125
g Group32944
f 23 37 109 125
g Group60420
f 37 23 15 60
g Group32941
f 89 90 98 126
g Group32944
f 28 48 89 126
g Group60420
f 48 28 16 64
g Group32941
f 114 115 128 127
g Group32944
f 52 50 127 128
g Group60420
f 54 50 52 53
g Group32941
f 115 118 129 128
g Group32944
f 42 52 128 129
f 55 42 129 118
g Group60420
f 53 52 42 55
g Group32941
f 114 127 130 121
g Group32944
f 50 24 130 127
g Group60420
f 54 13 24 50
g Group32941
f 101 102 132 131
g Group32944
f 29 57 101 131
f 34 29 131 132
g Group60420
f 57 29 34 56
g Group32941
f 102 105 124 132
g Group32944
f 36 34 132 124
g Group60420
f 56 34 36 58
g Group32941
f 105 106 133 123
g Group32944
f 35 22 133 106
g Group60420
f 58 14 22 35
g Group32941
f 95 107 134 94
g Group32944
f 40 38 94 134
g Group60420
f 60 38 40 59
g Group32941
f 107 110 135 134
g Group32944
f 30 40 134 135
f 61 30 135 110
g Group60420
f 59 40 30 61
g Group32941
f 130 137 136 121
g Group60420
f 24 13 69 71
g Group32941
f 137 125 92 136
g Group60420
f 71 69 15 23
g Group32941
f 99 139 138 98
g Group60420
f 26 16 70 72
g Group32941
f 139 122 123 138
g Group60420
f 72 70 14 25
g Group32941
f 143 142 141 140
g Group32944
f 19 65 143 140
f 74 19 140 141
g Group60420
f 65 19 74 73
g Group32941
f 142 145 144 141
g Group32944
f 17 74 141 144
f 66 17 144 145
g Group60420
f 73 74 17 66
g Group32941
f 122 139 142 143
g Group32944
f 65 25 122 143
g Group60420
f 25 65 73 72
g Group32941
f 139 99 145 142
g Group32944
f 26 66 145 99
g Group60420
f 72 73 66 26
g Group32941
f 147 146 137 130
g Group32944
f 24 67 147 130
g Group60420
f 67 24 71 75
g Group32941
f 146 148 125 137
g Group32944
f 68 23 125 148
g Group60420
f 75 71 23 68
g Group32941
f 150 149 146 147
g Group32944
f 67 20 150 147
f 20 76 149 150
g Group60420
f 20 67 75 76
g Group32941
f 149 151 148 146
g Group32944
f 18 68 148 151
f 76 18 151 149
g Group60420
f 76 75 68 18
g Group32941
f 155 154 153 152
g Group32944
f 3 5 155 152
f 78 3 152 153
g Group60420
f 5 3 78 77
g Group32941
f 154 157 156 153
g Group32944
f 1 78 153 156
f 6 1 156 157
g Group60420
f 77 78 1 6
g Group32941
f 159 158 154 155
g Group32944
f 5 7 159 155
g Group60420
f 7 5 77 79
g Group32941
f 158 160 157 154
g Group32944
f 8 6 157 160
g Group60420
f 79 77 6 8
g Group32941
f 120 161 158 159
g Group32944
f 7 21 120 159
g Group60420
f 21 7 79 80
g Group32941
f 161 133 160 158
g Group32944
f 22 8 160 133
g Group60420
f 80 79 8 22
g Group32941
f 165 164 163 162
g Group32944
f 9 11 165 162
g Group60420
f 11 9 82 81
g Group32941
f 164 167 166 163
g Group32944
f 12 10 166 167
g Group60420
f 81 82 10 12
g Group32941
f 169 168 164 165
g Group32944
f 11 4 169 165
f 4 83 168 169
g Group60420
f 4 11 81 83
g Group32941
f 168 170 167 164
g Group32944
f 2 12 167 170
f 83 2 170 168
g Group60420
f 83 81 12 2
g Group32941
f 93 172 171 92
g Group60420
f 27 15 85 84
g Group32941
f 172 126 98 171
g Group60420
f 84 85 16 28
g Group32941
f 121 173 161 120
g Group60420
f 13 21 80 86
g Group32941
f 173 123 133 161
g Group60420
f 86 80 22 14
g Group32941
f 162 163 172 93
g Group32944
f 27 9 162 93
g Group60420
f 9 27 84 82
g Group32941
f 163 166 126 172
g Group32944
f 10 28 126 166
g Group60420
f 82 84 28 10
g Group32941
f 136 174 173 121
g Group60420
f 69 13 86 87
g Group32941
f 174 138 123 173
g Group60420
f 87 86 14 70
g Group32941
f 92 171 174 136
g Group60420
f 15 69 87 85
g Group32941
f 171 98 138 174
g Group60420
f 85 87 70 16

 