# File exported by ZBrush version 2021
# www.zbrush.com
#Vertex Count 168
#Face Count 166
#Auto scale x=1.000000 y=1.000000 z=1.000000
#Auto offset x=0.000000 y=0.000000 z=0.000000
v -0.02425148 2.86767745 0.26119598
v 0.03323151 -2.86722254 0.26869899
v -2.61114263 2.8669765 0.26119598
v -1.07437348 2.86699652 0.26119598
v -0.99830746 -2.36366844 0.26869899
v -2.1046195 2.86689734 0.26119598
v -2.06425142 -1.39325451 0.26869899
v 0.01432352 -2.01647543 0.26801699
v -0.91814845 -1.58660054 0.267789
v -1.70572149 -1.06181049 0.26784899
v -0.02242048 1.43577349 0.26348698
v -2.2034583 1.64633846 0.263484
v -2.74831628 1.71542143 0.26348999
v -1.09420049 1.50822448 0.26347899
v -2.14765262 2.24384641 0.26233997
v -2.6797285 2.29119849 0.26234298
v -1.08835244 2.17284441 0.26233798
v -0.02296948 2.15172648 0.262342
v -1.3215245 -1.34198355 0.26781898
v -1.55786752 -1.99390149 0.26869899
v -1.62020647 1.54974246 0.263482
v -1.61800253 2.20834541 0.26233899
v -1.58949649 2.86694645 0.26119598
v -0.00307048 -1.04413652 0.266889
v -0.9805355 -0.78874552 0.26674997
v -1.90505147 -0.41875854 0.26679298
v -2.4176836 -0.50547152 0.26692798
v -1.44279253 -0.60375255 0.26677098
v -0.02809048 0.68198746 0.26462298
v -1.07262849 0.80804145 0.264595
v -2.17462635 0.99470245 0.26460999
v -2.7594037 0.99620443 0.26463499
v -1.59990143 0.90301746 0.264602
v -2.08435058 0.28449645 0.26570197
v -1.53650844 0.17529444 0.265686
v -1.03347849 0.04653845 0.26567199
v -0.01557948 -0.18107554 0.26575598
v -2.63618326 0.27691045 0.26578199
v -0.45191147 -1.80153858 0.267903
v -0.48214948 -2.66205143 0.26869899
v -0.55566048 2.16228556 0.26233899
v -0.5690245 1.45723247 0.26348298
v -0.54229849 2.86733651 0.26119598
v -0.49180248 -0.91644156 0.266819
v -0.54570746 0.73620045 0.26460897
v -0.51414245 -0.06705954 0.26571399
v 2.61114168 2.8669765 0.26119598
v 1.07437253 2.86699652 0.26119598
v 0.99830651 -2.36366844 0.26869899
v 2.10461854 2.86689734 0.26119598
v 2.06425046 -1.39325451 0.26869899
v 0.9181475 -1.58660054 0.267789
v 1.70572054 -1.06181049 0.26784899
v 2.20345735 1.64633846 0.263484
v 2.74831533 1.71542143 0.26348999
v 1.09419953 1.50822448 0.26347899
v 2.14765167 2.24384641 0.26233997
v 2.6797285 2.29119849 0.26234298
v 1.08835256 2.17284441 0.26233798
v 1.3215245 -1.34198355 0.26781898
v 1.55786657 -1.99390149 0.26869899
v 1.62020647 1.54974246 0.263482
v 1.61800146 2.20834541 0.26233899
v 1.58949554 2.86694645 0.26119598
v 0.9805355 -0.78874552 0.26674997
v 1.90505051 -0.41875854 0.26679298
v 2.41768264 -0.50547152 0.26692798
v 1.44279253 -0.60375255 0.26677098
v 1.07262754 0.80804145 0.264595
v 2.17462539 0.99470245 0.26460999
v 2.75940275 0.99620443 0.26463499
v 1.59990048 0.90301746 0.264602
v 2.08434963 0.28449645 0.26570197
v 1.53650748 0.17529444 0.265686
v 1.03347754 0.04653845 0.26567199
v 2.6361823 0.27691045 0.26578199
v 0.4519115 -1.80153858 0.267903
v 0.48214951 -2.66205143 0.26869899
v 0.55565953 2.16228556 0.26233899
v 0.56902349 1.45723247 0.26348298
v 0.54229849 2.86733651 0.26119598
v 0.49180251 -0.91644156 0.266819
v 0.54570651 0.73620045 0.26460897
v 0.51414251 -0.06705954 0.26571399
v -2.74840831 1.7144705 -0.26640498
v -2.67980957 2.29018354 -0.26755201
v -2.14773035 2.24286341 -0.26755398
v -2.20357227 1.64539241 -0.26640999
v -2.61118936 2.86596846 -0.26869803
v -2.10465955 2.86592149 -0.26869803
v -0.99860948 -2.36422562 -0.26119703
v -1.55835342 -1.99447858 -0.26119703
v -1.32200753 -1.34269857 -0.26207602
v -0.91843849 -1.58724153 -0.262106
v -2.06460046 -1.39405155 -0.26119601
v -1.70613551 -1.06265354 -0.26204597
v -1.09428143 1.50734448 -0.26641601
v -1.62032151 1.5488224 -0.26641303
v -1.61806452 2.20741748 -0.26755601
v -1.08839142 2.17195534 -0.26755702
v -1.58952844 2.86602854 -0.26869899
v -1.07439243 2.86611747 -0.26869899
v -1.6000545 0.90216547 -0.265293
v -2.17473363 0.99383842 -0.26528501
v -1.07275152 0.80723047 -0.26530003
v -2.41775655 -0.50638455 -0.26296699
v -1.90528953 -0.41965454 -0.26310199
v -1.44316148 -0.60456854 -0.26312398
v -0.98076546 -0.78946352 -0.26314503
v -2.75946044 0.99534642 -0.26525998
v -1.53672242 0.17450444 -0.26420903
v -2.08447456 0.28367444 -0.26419299
v -1.0336405 0.04580145 -0.26422298
v -2.63622331 0.27608844 -0.264113
v 0.03323752 -2.86767745 -0.26119703
v -0.48232647 -2.66254854 -0.26119703
v -0.45206648 -1.80211556 -0.26199197
v 0.01432752 -2.01702046 -0.26187801
v -0.02242248 1.43494045 -0.26640802
v -0.56907647 1.45638549 -0.26641202
v -0.55568146 2.16142153 -0.26755601
v -0.02296948 2.15087246 -0.26755303
v -0.54230648 2.86647748 -0.26869899
v -0.02425148 2.86682438 -0.26869899
v -0.49192449 -0.91711652 -0.263076
v -0.00307048 -1.04480052 -0.26300698
v -0.02809348 0.68122446 -0.26527202
v -0.54579049 0.73542243 -0.26528602
v -0.51424551 -0.06777054 -0.26418101
v -0.01558248 -0.18177855 -0.26413899
v 2.14772939 2.24286341 -0.26755398
v 2.67980957 2.29018354 -0.26755201
v 2.74840736 1.7144705 -0.26640498
v 2.20357132 1.64539241 -0.26640999
v 2.1046586 2.86592149 -0.26869803
v 2.61118841 2.86596846 -0.26869803
v 1.32200753 -1.34269857 -0.26207602
v 1.55835247 -1.99447858 -0.26119703
v 0.99860853 -2.36422562 -0.26119703
v 0.91843754 -1.58724153 -0.262106
v 1.70613551 -1.06265354 -0.26204597
v 2.06459951 -1.39405155 -0.26119601
v 1.61806356 2.20741748 -0.26755601
v 1.62032151 1.5488224 -0.26641303
v 1.09428155 1.50734448 -0.26641601
v 1.08839154 2.17195534 -0.26755702
v 1.58952748 2.86602854 -0.26869899
v 1.07439148 2.86611747 -0.26869899
v 2.17473268 0.99383842 -0.26528501
v 1.60005354 0.90216547 -0.265293
v 1.07275056 0.80723047 -0.26530003
v 1.90528857 -0.41965454 -0.26310199
v 2.4177556 -0.50638455 -0.26296699
v 1.44316148 -0.60456854 -0.26312398
v 0.9807645 -0.78946352 -0.26314503
v 2.75946044 0.99534642 -0.26525998
v 2.08447456 0.28367444 -0.26419299
v 1.53672146 0.17450444 -0.26420903
v 1.03363955 0.04580145 -0.26422298
v 2.63622236 0.27608844 -0.264113
v 0.48233151 -2.66254663 -0.26119703
v 0.45206952 -1.80211353 -0.26199197
v 0.56907451 1.45638549 -0.26641202
v 0.55568051 2.16142153 -0.26755601
v 0.54230552 2.86647748 -0.26869899
v 0.49192252 -0.91711556 -0.263076
v 0.5457865 0.73542243 -0.26528602
v 0.51424151 -0.06777054 -0.26418101
g Group32941
f 88 87 86 85
g Group32944
f 16 13 85 86
g Group37026
f 12 13 16 15
g Group32941
f 87 90 89 86
g Group32944
f 3 16 86 89
f 6 3 89 90
g Group37026
f 15 16 3 6
g Group32941
f 94 93 92 91
g Group32944
f 20 5 91 92
g Group37026
f 9 5 20 19
g Group32941
f 93 96 95 92
g Group32944
f 7 20 92 95
g Group37026
f 19 20 7 10
g Group32941
f 100 99 98 97
g Group37026
f 17 14 21 22
g Group32941
f 99 87 88 98
g Group37026
f 22 21 12 15
g Group32941
f 102 101 99 100
g Group32944
f 4 23 101 102
g Group37026
f 4 17 22 23
g Group32941
f 101 90 87 99
g Group32944
f 23 6 90 101
g Group37026
f 23 22 15 6
g Group32941
f 88 104 103 98
g Group37026
f 12 21 33 31
g Group32941
f 98 103 105 97
g Group37026
f 21 14 30 33
g Group32941
f 95 96 107 106
g Group32944
f 27 7 95 106
g Group37026
f 7 27 26 10
g Group32941
f 107 96 93 108
g Group37026
f 26 28 19 10
g Group32941
f 108 93 94 109
g Group37026
f 28 25 9 19
g Group32941
f 104 88 85 110
g Group32944
f 13 32 110 85
g Group37026
f 31 32 13 12
g Group32941
f 104 112 111 103
g Group37026
f 31 33 35 34
g Group32941
f 112 107 108 111
g Group37026
f 34 35 28 26
g Group32941
f 103 111 113 105
g Group37026
f 33 30 36 35
g Group32941
f 111 108 109 113
g Group37026
f 35 36 25 28
g Group32941
f 107 112 114 106
g Group32944
f 38 27 106 114
g Group37026
f 26 27 38 34
g Group32941
f 112 104 110 114
g Group32944
f 32 38 114 110
g Group37026
f 34 38 32 31
g Group32941
f 118 117 116 115
g Group32944
f 40 2 115 116
g Group37026
f 8 2 40 39
g Group32941
f 117 94 91 116
g Group32944
f 5 40 116 91
g Group37026
f 39 40 5 9
g Group32941
f 122 121 120 119
g Group37026
f 18 11 42 41
g Group32941
f 121 100 97 120
g Group37026
f 41 42 14 17
g Group32941
f 124 123 121 122
g Group32944
f 1 43 123 124
g Group37026
f 1 18 41 43
g Group32941
f 123 102 100 121
g Group32944
f 43 4 102 123
g Group37026
f 43 41 17 4
g Group32941
f 126 125 117 118
g Group37026
f 24 8 39 44
g Group32941
f 125 109 94 117
g Group37026
f 44 39 9 25
g Group32941
f 119 120 128 127
g Group37026
f 11 29 45 42
g Group32941
f 120 97 105 128
g Group37026
f 42 45 30 14
g Group32941
f 130 129 125 126
g Group37026
f 37 24 44 46
g Group32941
f 129 113 109 125
g Group37026
f 46 44 25 36
g Group32941
f 127 128 129 130
g Group37026
f 29 37 46 45
g Group32941
f 128 105 113 129
g Group37026
f 45 46 36 30
g Group32941
f 134 133 132 131
g Group32944
f 55 58 132 133
g Group37026
f 54 57 58 55
g Group32941
f 131 132 136 135
g Group32944
f 47 50 135 136
f 58 47 136 132
g Group37026
f 57 50 47 58
g Group32941
f 140 139 138 137
g Group32944
f 49 61 138 139
g Group37026
f 52 60 61 49
g Group32941
f 137 138 142 141
g Group32944
f 61 51 142 138
g Group37026
f 60 53 51 61
g Group32941
f 146 145 144 143
g Group37026
f 59 63 62 56
g Group32941
f 143 144 134 131
g Group37026
f 63 57 54 62
g Group32941
f 148 146 143 147
g Group32944
f 64 48 148 147
g Group37026
f 48 64 63 59
g Group32941
f 147 143 131 135
g Group32944
f 50 64 147 135
g Group37026
f 64 50 57 63
g Group32941
f 134 144 150 149
g Group37026
f 54 70 72 62
g Group32941
f 144 145 151 150
g Group37026
f 62 72 69 56
g Group32941
f 142 153 152 141
g Group32944
f 51 67 153 142
g Group37026
f 51 53 66 67
g Group32941
f 152 154 137 141
g Group37026
f 66 53 60 68
g Group32941
f 154 155 140 137
g Group37026
f 68 60 52 65
g Group32941
f 149 156 133 134
g Group32944
f 71 55 133 156
g Group37026
f 70 54 55 71
g Group32941
f 149 150 158 157
g Group37026
f 70 73 74 72
g Group32941
f 157 158 154 152
g Group37026
f 73 66 68 74
g Group32941
f 150 151 159 158
g Group37026
f 72 74 75 69
g Group32941
f 158 159 155 154
g Group37026
f 74 68 65 75
g Group32941
f 152 153 160 157
g Group32944
f 67 76 160 153
g Group37026
f 66 73 76 67
g Group32941
f 157 160 156 149
g Group32944
f 76 71 156 160
g Group37026
f 73 70 71 76
g Group32941
f 162 161 139 140
g Group32944
f 78 49 139 161
g Group37026
f 77 52 49 78
g Group32941
f 164 163 145 146
g Group37026
f 79 59 56 80
g Group32941
f 165 164 146 148
g Group32944
f 48 81 165 148
g Group37026
f 81 48 59 79
g Group32941
f 166 162 140 155
g Group37026
f 82 65 52 77
g Group32941
f 163 167 151 145
g Group37026
f 80 56 69 83
g Group32941
f 168 166 155 159
g Group37026
f 84 75 65 82
g Group32941
f 167 168 159 151
g Group37026
f 83 69 75 84
g Group32941
f 164 165 124 122
g Group32944
f 81 1 124 165
g Group37026
f 79 18 1 81
g Group32941
f 163 164 122 119
g Group37026
f 80 11 18 79
g Group32941
f 167 163 119 127
g Group37026
f 83 29 11 80
g Group32941
f 168 167 127 130
g Group37026
f 84 37 29 83
g Group32941
f 166 168 130 126
g Group37026
f 82 24 37 84
g Group32941
f 162 166 126 118
g Group37026
f 77 8 24 82
g Group32941
f 161 162 118 115
g Group32944
f 2 78 161 115
g Group37026
f 78 2 8 77

 