# File exported by ZBrush version 2021
# www.zbrush.com
#Vertex Count 154
#Face Count 152
#Auto scale x=1.000000 y=1.000000 z=1.000000
#Auto offset x=0.000000 y=0.000000 z=0.000000
v 1.58121097 1.82088804 0.30410802
v 2.62327408 0.35733899 0.30410802
v 2.34104991 1.08334195 0.30410802
v 2.66603899 -0.002522 0.30410802
v 2.5002439 0.71757197 0.30410802
v 2.04440593 1.46022498 0.30410802
v 1.58287799 -1.82046294 0.30410802
v 2.6264019 -0.35691499 0.30410802
v 2.34520602 -1.08291804 0.30410802
v 2.50464105 -0.71714901 0.30410802
v 2.0465579 -1.45980095 0.30410802
v 2.03070092 0.359604 0.303658
v 2.05589389 -0.00161 0.303658
v 1.95750296 0.72106701 0.303658
v 1.86136698 1.08622098 0.303658
v 1.67027199 1.45878303 0.303658
v 1.36484599 1.82053196 0.303658
v 2.03343892 -0.35918 0.303658
v 1.961416 -0.72064298 0.303658
v 1.86491704 -1.08579695 0.303658
v 1.67216801 -1.458359 0.303658
v 1.36607205 -1.82010805 0.303658
v 1.00739204 0.36090001 0.30200901
v 1.02418696 -0.001003 0.30200901
v 1.00921702 -0.36047598 0.30200901
v 0.95859402 0.72297 0.30200901
v 0.89450299 1.08749997 0.30200901
v 0.76710599 1.45696795 0.30200901
v 0.56348902 1.81922805 0.30200901
v 0.76837098 -1.45654296 0.30200901
v 0.564305 -1.81880295 0.30200901
v 0.89687001 -1.08707499 0.30200901
v 0.96120202 -0.72254598 0.30200901
v -1.58121097 -1.82088804 0.30410802
v -2.62327408 -0.35733899 0.30410802
v -2.34104991 -1.08334195 0.30410802
v -2.66603899 0.002521 0.30410802
v -2.5002439 -0.71757298 0.30410802
v -2.04440593 -1.46022498 0.30410802
v -1.58288002 1.82046401 0.30410802
v -2.6264019 0.35691499 0.30410802
v -2.34520793 1.08291804 0.30410802
v -2.50464201 0.71714901 0.30410802
v -2.04656004 1.45980095 0.30410802
v -2.03070211 -0.359604 0.303658
v -2.05589389 0.00161 0.303658
v -1.95750296 -0.72106701 0.303658
v -1.86136698 -1.08622098 0.303658
v -1.67027199 -1.45878303 0.303658
v -1.36484599 -1.82053196 0.303658
v -2.03344011 0.35918 0.303658
v -1.96141696 0.72064298 0.303658
v -1.86491894 1.08579695 0.303658
v -1.67217004 1.458359 0.303658
v -1.36607205 1.82010805 0.303658
v -1.007393 -0.36090001 0.30200901
v -1.02418804 0.001003 0.30200901
v -1.00921797 0.36047598 0.30200901
v -0.95859497 -0.72297 0.30200901
v -0.89450401 -1.08749997 0.30200901
v -0.76710701 -1.45696795 0.30200901
v -0.56348902 -1.81922805 0.30200901
v -0.76837199 1.45654404 0.30200901
v -0.56430697 1.81880402 0.30200901
v -0.89687097 1.08707594 0.30200901
v -0.96120297 0.72254598 0.30200901
v 0.000473 -1.45584905 0.30118399
v 0.000887 -1.08792698 0.30118399
v 0.000306 -1.81836402 0.30118399
v 0.000977 -0.72370898 0.30118399
v 0.000684 -0.36133599 0.30118399
v -0.000001 -0 0.30118399
v -0.000685 0.361337 0.30118399
v -0.000978 0.72370898 0.30118399
v -0.000888 1.08792698 0.30118399
v -0.000474 1.45584905 0.30118399
v -0.000307 1.81836402 0.30118399
v 2.34163498 1.08364296 -0.30118396
v 1.86217999 1.08654105 -0.30163297
v 1.67121994 1.45945096 -0.30163201
v 2.04518294 1.46092104 -0.30118301
v 2.05660605 -0.001608 -0.30163297
v 2.66649103 -0.00252 -0.30118396
v 2.62686705 -0.35699901 -0.30118396
v 2.03416109 -0.35927501 -0.30163297
v 2.03142404 0.359703 -0.30163297
v 2.62373995 0.35742598 -0.30118396
v 2.50514698 -0.71730601 -0.30118396
v 1.96216905 -0.72081798 -0.30163297
v 2.0473349 -1.46049797 -0.30118301
v 1.67311501 -1.45902895 -0.30163201
v 1.86573004 -1.08611905 -0.30163297
v 2.3457911 -1.08322 -0.30118396
v 2.50075006 0.71772998 -0.30118396
v 1.95825696 0.72124397 -0.30163297
v 1.36589002 1.82143104 -0.30163201
v 1.58212804 1.821864 -0.30118301
v 1.58379495 -1.82143902 -0.30118301
v 1.36711394 -1.82100796 -0.30163201
v 1.02491903 -0.001001 -0.30328199
v 1.00813198 0.36096701 -0.30328199
v -1.36711394 1.82100796 -0.30163201
v -0.56526601 1.81932103 -0.30328199
v -0.76926797 1.45694398 -0.30328199
v -1.67311704 1.459028 -0.30163201
v -0.000001 -0 -0.30410698
v -0.000685 0.361359 -0.30410698
v 1.009956 -0.36054 -0.30328199
v 0.000684 -0.36135798 -0.30410799
v -0.000307 1.81857502 -0.30410799
v -0.000474 1.45600605 -0.30410799
v 0.95935601 0.72308802 -0.30328199
v -0.76800298 -1.45736694 -0.30328199
v 0.000473 -1.456007 -0.30410799
v 0.000306 -1.81857502 -0.30410799
v -0.56444901 -1.81974494 -0.30328199
v -0.000978 0.72374999 -0.30410799
v 0.89530897 1.08770799 -0.30328199
v -1.67121994 -1.45945096 -0.30163201
v -1.36589002 -1.82143104 -0.30163201
v -0.000888 1.08800303 -0.30410799
v 0.76800298 1.45736694 -0.30328199
v -0.89767599 1.08728504 -0.30328199
v -1.865731 1.08611905 -0.30163297
v 0.56444901 1.81974399 -0.30328199
v -0.89530897 -1.08770799 -0.30328199
v 0.000887 -1.08800303 -0.30410799
v 0.565265 -1.81931996 -0.30328199
v 0.76926702 -1.45694303 -0.30328199
v -1.86218094 -1.08654201 -0.30163297
v 0.89767497 -1.08728504 -0.30328199
v 0.96196401 -0.72266298 -0.30328199
v -0.95935702 -0.72308802 -0.30328199
v 0.000977 -0.72374999 -0.30410799
v -1.95825696 -0.72124397 -0.30163297
v -2.34163594 -1.08364296 -0.30118396
v -2.04518389 -1.46092104 -0.30118301
v -2.05660605 0.001608 -0.30163297
v -2.66649103 0.002519 -0.30118396
v -2.62686801 0.35699901 -0.30118396
v -2.03416204 0.35927501 -0.30163297
v -2.03142404 -0.359703 -0.30163297
v -2.62373995 -0.35742598 -0.30118396
v -2.50514698 0.71730601 -0.30118396
v -1.96217 0.72081798 -0.30163297
v -2.04733705 1.46049797 -0.30118301
v -2.34579205 1.08321905 -0.30118396
v -2.50075101 -0.71773201 -0.30118396
v -1.582129 -1.821864 -0.30118301
v -1.58379602 1.82143998 -0.30118301
v -0.96196401 0.72266298 -0.30328199
v -1.02491903 0.001001 -0.30328199
v -1.00813198 -0.36096701 -0.30328199
v -1.00995695 0.36054 -0.30328199
g Group32941
f 81 80 79 78
g Group32944
f 3 6 81 78
g Group24812
f 6 3 15 16
g Group32941
f 85 84 83 82
g Group32944
f 8 4 83 84
g Group24812
f 18 13 4 8
g Group32941
f 87 86 82 83
g Group32944
f 4 2 87 83
g Group24812
f 2 4 13 12
g Group32941
f 84 85 89 88
g Group32944
f 10 8 84 88
g Group24812
f 8 10 19 18
g Group32941
f 93 92 91 90
g Group32944
f 11 9 93 90
g Group24812
f 9 11 21 20
g Group32941
f 78 79 95 94
g Group32944
f 5 3 78 94
g Group24812
f 3 5 14 15
g Group32941
f 97 96 80 81
g Group32944
f 6 1 97 81
f 1 17 96 97
g Group24812
f 1 6 16 17
g Group32941
f 88 89 92 93
g Group32944
f 9 10 88 93
g Group24812
f 10 9 20 19
g Group32941
f 94 95 86 87
g Group32944
f 2 5 94 87
g Group24812
f 5 2 12 14
g Group32941
f 90 91 99 98
g Group32944
f 7 11 90 98
f 22 7 98 99
g Group24812
f 11 7 22 21
g Group32941
f 86 101 100 82
g Group24812
f 12 13 24 23
g Group32941
f 105 104 103 102
g Group32944
f 64 55 102 103
g Group24812
f 54 55 64 63
g Group32941
f 101 107 106 100
g Group24812
f 23 24 72 73
g Group32941
f 109 108 100 106
g Group24812
f 71 72 24 25
g Group32941
f 104 111 110 103
g Group32944
f 77 64 103 110
g Group24812
f 63 64 77 76
g Group32941
f 108 85 82 100
g Group24812
f 25 24 13 18
g Group32941
f 95 112 101 86
g Group24812
f 14 12 23 26
g Group32941
f 116 115 114 113
g Group32944
f 62 69 115 116
g Group24812
f 62 61 67 69
g Group32941
f 112 117 107 101
g Group24812
f 26 23 73 74
g Group32941
f 79 118 112 95
g Group24812
f 15 14 26 27
g Group32941
f 120 116 113 119
g Group32944
f 50 62 116 120
g Group24812
f 50 49 61 62
g Group32941
f 118 121 117 112
g Group24812
f 27 26 74 75
g Group32941
f 80 122 118 79
g Group24812
f 16 15 27 28
g Group32941
f 124 123 104 105
g Group24812
f 53 54 63 65
g Group32941
f 122 111 121 118
g Group24812
f 28 27 75 76
g Group32941
f 96 125 122 80
g Group32944
f 17 29 125 96
g Group24812
f 17 16 28 29
g Group32941
f 113 114 127 126
g Group24812
f 61 60 68 67
g Group32941
f 125 110 111 122
g Group32944
f 29 77 110 125
g Group24812
f 29 28 76 77
g Group32941
f 91 129 128 99
g Group32944
f 31 22 99 128
g Group24812
f 21 22 31 30
g Group32941
f 119 113 126 130
g Group24812
f 49 48 60 61
g Group32941
f 129 114 115 128
g Group32944
f 69 31 128 115
g Group24812
f 30 31 69 67
g Group32941
f 92 131 129 91
g Group24812
f 20 21 30 32
g Group32941
f 123 121 111 104
g Group24812
f 65 63 76 75
g Group32941
f 131 127 114 129
g Group24812
f 32 30 67 68
g Group32941
f 85 108 132 89
g Group24812
f 18 19 33 25
g Group32941
f 126 127 134 133
g Group24812
f 60 59 70 68
g Group32941
f 108 109 134 132
g Group24812
f 25 33 70 71
g Group32941
f 89 132 131 92
g Group24812
f 19 20 32 33
g Group32941
f 130 126 133 135
g Group24812
f 48 47 59 60
g Group32941
f 132 134 127 131
g Group24812
f 33 32 68 70
g Group32941
f 137 119 130 136
g Group32944
f 36 39 137 136
g Group24812
f 39 36 48 49
g Group32941
f 141 140 139 138
g Group32944
f 41 37 139 140
g Group24812
f 51 46 37 41
g Group32941
f 143 142 138 139
g Group32944
f 37 35 143 139
g Group24812
f 35 37 46 45
g Group32941
f 140 141 145 144
g Group32944
f 43 41 140 144
g Group24812
f 41 43 52 51
g Group32941
f 147 124 105 146
g Group32944
f 44 42 147 146
g Group24812
f 42 44 54 53
g Group32941
f 136 130 135 148
g Group32944
f 38 36 136 148
g Group24812
f 36 38 47 48
g Group32941
f 149 120 119 137
g Group32944
f 39 34 149 137
f 34 50 120 149
g Group24812
f 34 39 49 50
g Group32941
f 144 145 124 147
g Group32944
f 42 43 144 147
g Group24812
f 43 42 53 52
g Group32941
f 148 135 142 143
g Group32944
f 35 38 148 143
g Group24812
f 38 35 45 47
g Group32941
f 146 105 102 150
g Group32944
f 40 44 146 150
f 55 40 150 102
g Group24812
f 44 40 55 54
g Group32941
f 151 117 121 123
g Group24812
f 66 65 75 74
g Group32941
f 142 153 152 138
g Group24812
f 45 46 57 56
g Group32941
f 153 109 106 152
g Group24812
f 56 57 72 71
g Group32941
f 107 154 152 106
g Group24812
f 73 72 57 58
g Group32941
f 154 141 138 152
g Group24812
f 58 57 46 51
g Group32941
f 145 151 123 124
g Group24812
f 52 53 65 66
g Group32941
f 154 107 117 151
g Group24812
f 58 66 74 73
g Group32941
f 135 133 153 142
g Group24812
f 47 45 56 59
g Group32941
f 133 134 109 153
g Group24812
f 59 56 71 70
g Group32941
f 141 154 151 145
g Group24812
f 51 52 66 58

 