# File exported by ZBrush version 2021
# www.zbrush.com
#Vertex Count 144
#Face Count 142
#Auto scale x=1.000000 y=1.000000 z=1.000000
#Auto offset x=0.000000 y=0.000000 z=0.000000
v 0.0065905 2.73754549 0.23458549
v 0.0143935 -2.73718738 0.24180749
v -2.65557527 -0.68486046 0.24180749
v -2.42418861 2.73752045 0.23458549
v -1.45187747 2.73753356 0.23458549
v -1.52655053 -1.96372246 0.24180749
v -1.93803346 2.7375276 0.23458549
v -2.12121439 -1.31532645 0.24180749
v 0.0019365 -1.93504548 0.24120649
v -1.52623248 -1.17478144 0.24120649
v -2.08013248 -0.61984449 0.24120649
v -2.59287071 -0.32038247 0.24120649
v 0.0117065 -0.08124347 0.23900049
v 0.0037255 1.31993651 0.2367935
v -1.95253849 0.26077851 0.23900049
v -2.35790348 0.46690952 0.23900049
v -1.8766855 1.43558049 0.2367935
v -2.33607435 1.53699648 0.2367935
v -1.45202553 0.09922752 0.23900049
v -1.4041475 1.3735255 0.2367935
v 2.65564155 -0.71840047 0.24180749
v 2.4252386 2.73752045 0.23458549
v 1.45292747 2.73753356 0.23458549
v 1.52759945 -1.96372246 0.24180749
v 1.9390825 2.7375276 0.23458549
v 2.12226343 -1.31532645 0.24180749
v 1.5169115 -1.17586946 0.24120649
v 2.09182643 -0.55727648 0.24120649
v 2.5939207 -0.32038247 0.24120649
v 1.96719348 0.2555505 0.23900049
v 2.35895443 0.46690952 0.23900049
v 1.87773549 1.43558049 0.2367935
v 2.33712434 1.53699648 0.2367935
v 1.45307552 0.09922752 0.23900049
v 1.40519654 1.3735255 0.2367935
v 0.0051575 2.02874136 0.23568949
v -1.42801249 2.05552959 0.23568949
v -1.90735948 2.08655452 0.23568949
v -2.38013172 2.13725853 0.23568949
v 2.38118171 2.13725853 0.23568949
v 1.90840852 2.08655452 0.23568949
v 1.42906248 2.05552959 0.23568949
v 0.0077165 0.61934649 0.2378965
v -1.42808651 0.73637652 0.2378965
v -1.90154254 0.84556549 0.2378965
v -2.30641841 1.00194251 0.23853349
v 2.29919672 1.00196647 0.23712949
v 1.90259349 0.84556549 0.2378965
v 1.42913651 0.73637652 0.2378965
v -1.51137554 -0.53832149 0.24010349
v -1.99050653 -0.19526448 0.24010349
v 0.0110695 -0.86796546 0.24010349
v -2.47538757 0.07326352 0.24010349
v 2.01497554 -0.15975847 0.24010349
v 1.51242554 -0.53832149 0.24010349
v 2.47643852 0.07326352 0.24010349
v 0.7594245 -1.55545747 0.24120649
v 0.77099651 -2.35045552 0.24180749
v 0.71711051 2.04213547 0.23568949
v 0.7044605 1.34673047 0.2367935
v 0.72975951 2.73753953 0.23458549
v 0.71842652 0.67786151 0.2378965
v 0.73239147 0.00899152 0.23900049
v 0.76174747 -0.70314347 0.24010349
v -0.76214849 -1.55491352 0.24120649
v -0.75607848 -2.35045552 0.24180749
v -0.71142751 2.04213547 0.23568949
v -0.70021051 1.34673047 0.2367935
v -0.72264349 2.73753953 0.23458549
v -0.71018451 0.67786151 0.2378965
v -0.72015947 0.00899152 0.23900049
v -0.75015246 -0.70314347 0.24010349
v -2.12163162 -1.31576252 -0.2345855
v -2.08069849 -0.62057149 -0.23518548
v -1.52663648 -1.1753695 -0.2351865
v -1.52683651 -1.96409153 -0.2345855
v -2.65601635 -0.68535745 -0.2345855
v -2.59341144 -0.32119247 -0.23518548
v 1.51733756 -1.17646253 -0.2351865
v 2.09238147 -0.55801647 -0.23518548
v 2.12264633 -1.31573951 -0.2345855
v 1.52788555 -1.96408247 -0.2345855
v 2.59439754 -0.32120847 -0.23518548
v 2.65601635 -0.71886646 -0.2345855
v -2.33649826 1.53596854 -0.23959849
v -2.38022232 2.13641262 -0.24070249
v -1.90743053 2.08573555 -0.2407035
v -1.8769555 1.43465554 -0.23959849
v -2.42423248 2.7366774 -0.24180649
v -1.9380685 2.73671054 -0.24180649
v -1.42804551 2.05475139 -0.2407035
v -1.40422248 1.3727225 -0.23959951
v -1.45189344 2.73675656 -0.2418075
v 1.87776756 1.43480551 -0.23959951
v 1.90848052 2.08573555 -0.24070249
v 2.38127327 2.13641262 -0.24070249
v 2.33707141 1.53626847 -0.23959951
v 1.93911755 2.73671054 -0.24180649
v 2.42528343 2.7366774 -0.24180649
v 1.40527248 1.3727225 -0.23959951
v 1.4290955 2.05475139 -0.2407035
v 1.45294451 2.73675656 -0.2418075
v -2.35852766 0.46604153 -0.23739151
v -2.30709743 1.00103449 -0.23785848
v -1.90197944 0.84468752 -0.23849551
v -1.95302748 0.25990253 -0.23739151
v -1.42821645 0.73555052 -0.23849649
v -1.45225548 0.09839252 -0.23739151
v 1.96755647 0.25449854 -0.23739151
v 1.9026575 0.84467953 -0.23849649
v 2.29913234 1.0010395 -0.2392625
v 2.35931968 0.46569952 -0.23739151
v 1.45331156 0.09838752 -0.23739151
v 1.42926454 0.73555254 -0.23849551
v -1.99113237 -0.19628447 -0.2362885
v -1.51178753 -0.53914749 -0.2362885
v -2.4760065 0.07213852 -0.23628749
v 1.51286649 -0.53916347 -0.2362885
v 2.01561737 -0.16082248 -0.2362885
v 2.47703266 0.07208352 -0.23628749
v 0.77117753 -2.35081338 -0.2345855
v 0.75962853 -1.55594945 -0.2351865
v 0.0143935 -2.73754549 -0.2345855
v 0.0019375 -1.93549847 -0.2351865
v 0.70449549 1.34595954 -0.23959951
v 0.71712553 2.04137849 -0.2407035
v 0.0037255 1.31917858 -0.23959951
v 0.0051575 2.02799248 -0.2407035
v 0.72976648 2.73678255 -0.2418075
v 0.0065905 2.73679661 -0.2418075
v 0.7324965 0.00823152 -0.2373925
v 0.71849149 0.67707651 -0.23849649
v 0.0117075 -0.08197647 -0.2373925
v 0.0077175 0.6185795 -0.23849649
v 0.7619245 -0.70382446 -0.23628951
v 0.0110705 -0.86858844 -0.23628951
v -0.75625848 -2.35081648 -0.2345855
v -0.76234948 -1.55540645 -0.2351865
v -0.70024448 1.34595954 -0.23959951
v -0.71144151 2.04137849 -0.2407035
v -0.72265046 2.73678255 -0.2418075
v -0.72026246 0.00823152 -0.2373925
v -0.71024847 0.6770755 -0.23849649
v -0.75032651 -0.70382249 -0.23628951
g Group32941
f 76 75 74 73
g Group32944
f 8 6 76 73
g Group29770
f 6 8 11 10
g Group32941
f 73 74 78 77
g Group32944
f 3 8 73 77
f 12 3 77 78
g Group29770
f 8 3 12 11
g Group32941
f 82 81 80 79
g Group32944
f 24 26 81 82
g Group29770
f 24 27 28 26
g Group32941
f 81 84 83 80
g Group32944
f 21 29 83 84
f 26 21 84 81
g Group29770
f 26 28 29 21
g Group32941
f 88 87 86 85
g Group32944
f 39 18 85 86
g Group29770
f 17 18 39 38
g Group32941
f 87 90 89 86
g Group32944
f 4 39 86 89
f 7 4 89 90
g Group29770
f 38 39 4 7
g Group32941
f 92 91 87 88
g Group29770
f 20 17 38 37
g Group32941
f 91 93 90 87
g Group32944
f 5 7 90 93
g Group29770
f 37 38 7 5
g Group32941
f 97 96 95 94
g Group32944
f 33 40 96 97
g Group29770
f 33 32 41 40
g Group32941
f 96 99 98 95
g Group32944
f 22 25 98 99
f 40 22 99 96
g Group29770
f 40 41 25 22
g Group32941
f 94 95 101 100
g Group29770
f 32 35 42 41
g Group32941
f 95 98 102 101
g Group32944
f 25 23 102 98
g Group29770
f 41 42 23 25
g Group32941
f 106 105 104 103
g Group32944
f 46 16 103 104
g Group29770
f 15 16 46 45
g Group32941
f 105 88 85 104
g Group32944
f 18 46 104 85
g Group29770
f 45 46 18 17
g Group32941
f 108 107 105 106
g Group29770
f 19 15 45 44
g Group32941
f 107 92 88 105
g Group29770
f 44 45 17 20
g Group32941
f 112 111 110 109
g Group32944
f 31 47 111 112
g Group29770
f 31 30 48 47
g Group32941
f 111 97 94 110
g Group32944
f 47 33 97 111
g Group29770
f 47 48 32 33
g Group32941
f 109 110 114 113
g Group29770
f 30 34 49 48
g Group32941
f 110 94 100 114
g Group29770
f 48 49 35 32
g Group32941
f 75 116 115 74
g Group29770
f 10 11 51 50
g Group32941
f 116 108 106 115
g Group29770
f 50 51 15 19
g Group32941
f 74 115 117 78
g Group32944
f 53 12 78 117
g Group29770
f 11 12 53 51
g Group32941
f 115 106 103 117
g Group32944
f 16 53 117 103
g Group29770
f 51 53 16 15
g Group32941
f 80 119 118 79
g Group29770
f 28 27 55 54
g Group32941
f 119 109 113 118
g Group29770
f 54 55 34 30
g Group32941
f 83 120 119 80
g Group32944
f 29 56 120 83
g Group29770
f 29 28 54 56
g Group32941
f 120 112 109 119
g Group32944
f 56 31 112 120
g Group29770
f 56 54 30 31
g Group32941
f 79 122 121 82
g Group32944
f 58 24 82 121
g Group29770
f 27 24 58 57
g Group32941
f 122 124 123 121
g Group32944
f 2 58 121 123
g Group29770
f 57 58 2 9
g Group32941
f 101 126 125 100
g Group29770
f 42 35 60 59
g Group32941
f 126 128 127 125
g Group29770
f 59 60 14 36
g Group32941
f 102 129 126 101
g Group32944
f 23 61 129 102
g Group29770
f 23 42 59 61
g Group32941
f 129 130 128 126
g Group32944
f 61 1 130 129
g Group29770
f 61 59 36 1
g Group32941
f 114 132 131 113
g Group29770
f 49 34 63 62
g Group32941
f 132 134 133 131
g Group29770
f 62 63 13 43
g Group32941
f 100 125 132 114
g Group29770
f 35 49 62 60
g Group32941
f 125 127 134 132
g Group29770
f 60 62 43 14
g Group32941
f 118 135 122 79
g Group29770
f 55 27 57 64
g Group32941
f 135 136 124 122
g Group29770
f 64 57 9 52
g Group32941
f 113 131 135 118
g Group29770
f 34 55 64 63
g Group32941
f 131 133 136 135
g Group29770
f 63 64 52 13
g Group32941
f 124 138 137 123
g Group32944
f 66 2 123 137
g Group29770
f 9 2 66 65
g Group32941
f 138 75 76 137
g Group32944
f 6 66 137 76
g Group29770
f 65 66 6 10
g Group32941
f 128 140 139 127
g Group29770
f 36 14 68 67
g Group32941
f 140 91 92 139
g Group29770
f 67 68 20 37
g Group32941
f 130 141 140 128
g Group32944
f 1 69 141 130
g Group29770
f 1 36 67 69
g Group32941
f 141 93 91 140
g Group32944
f 69 5 93 141
g Group29770
f 69 67 37 5
g Group32941
f 134 143 142 133
g Group29770
f 43 13 71 70
g Group32941
f 143 107 108 142
g Group29770
f 70 71 19 44
g Group32941
f 127 139 143 134
g Group29770
f 14 43 70 68
g Group32941
f 139 92 107 143
g Group29770
f 68 70 44 20
g Group32941
f 136 144 138 124
g Group29770
f 52 9 65 72
g Group32941
f 144 116 75 138
g Group29770
f 72 65 10 50
g Group32941
f 133 142 144 136
g Group29770
f 13 52 72 71
g Group32941
f 142 108 116 144
g Group29770
f 71 72 50 19

 