# File exported by ZBrush version 2021
# www.zbrush.com
#Vertex Count 152
#Face Count 168
#Auto scale x=1.000000 y=1.000000 z=1.000000
#Auto offset x=0.000000 y=0.000000 z=0.000000
v -2.6495409 -0.21303148 0.27146151
v -2.602355 -0.00719448 0.27116352
v -2.6606369 0.20875251 0.27148449
v -3.01744103 0.00108951 0.27221751
v -2.33865189 -0.39134749 0.27083352
v -2.29671597 -0.18421948 0.2705675
v -2.02776193 -0.56966447 0.27020451
v -1.99107503 -0.36124348 0.2699725
v -1.71687305 -0.74798047 0.26957652
v -1.68543505 -0.53826749 0.2693775
v -1.40598297 -0.92629748 0.26894751
v -1.37979602 -0.7152915 0.26878151
v -1.09509396 -1.10461545 0.2683205
v -1.07415497 -0.89231747 0.2681885
v -0.78420501 -1.28293156 0.2676925
v -0.768516 -1.06934237 0.26759252
v -0.473315 -1.46124839 0.26706349
v -0.46287599 -1.2463665 0.26699751
v -0.16242599 -1.63956546 0.2664355
v -0.15723499 -1.42339038 0.2664015
v -0.16291299 1.64316344 0.26643651
v -0.154771 1.40647459 0.2664015
v -0.475129 1.46386146 0.26706752
v -0.46072 1.22976541 0.26699751
v -0.78734397 1.28455948 0.26769951
v -0.766667 1.05305743 0.26759252
v -1.09956097 1.10525846 0.26833051
v -1.07261598 0.87634849 0.2681885
v -1.41177499 0.92595851 0.2689605
v -1.37856304 0.69963949 0.26878151
v -1.72399199 0.74665653 0.26959049
v -1.68451201 0.5229305 0.2693775
v -2.03620696 0.5673545 0.27022349
v -1.99045896 0.3462235 0.2699725
v -2.348423 0.3880535 0.27085351
v -2.29640603 0.16951452 0.2705675
v 0.002976 1.73132562 0.2661215
v 0.003117 1.49638557 0.2661035
v -0.002594 -1.73131847 0.26611951
v -0.003466 -1.51421451 0.2661035
v 2.6495409 -0.21303148 0.27146151
v 2.60235691 -0.00719448 0.27116352
v 2.66063809 0.20875251 0.27148449
v 3.01744103 0.00108951 0.27221751
v 2.33865189 -0.39134749 0.27083352
v 2.29671597 -0.18421948 0.2705675
v 2.02776193 -0.56966447 0.27020451
v 1.99107503 -0.36124348 0.2699725
v 1.71687305 -0.74798047 0.26957652
v 1.68543505 -0.53826749 0.2693775
v 1.40598404 -0.92629748 0.26894751
v 1.37979602 -0.7152915 0.26878151
v 1.09509396 -1.10461545 0.2683205
v 1.07415497 -0.89231747 0.2681885
v 0.78420501 -1.28293156 0.2676925
v 0.768516 -1.06934237 0.26759252
v 0.473315 -1.46124839 0.26706349
v 0.46287599 -1.2463665 0.26699751
v 0.16242599 -1.63956546 0.2664355
v 0.15723499 -1.42339038 0.2664015
v 0.16291299 1.64316344 0.26643651
v 0.154771 1.40647459 0.2664015
v 0.475129 1.46386146 0.26706752
v 0.46072 1.22976541 0.26699751
v 0.78734397 1.28455948 0.26769951
v 0.766667 1.05305743 0.26759252
v 1.09956097 1.10525846 0.26833051
v 1.07261598 0.87634849 0.2681885
v 1.41177499 0.92595851 0.2689605
v 1.37856304 0.69963949 0.26878151
v 1.72399199 0.74665653 0.26959049
v 1.68451201 0.5229305 0.2693775
v 2.03620696 0.5673545 0.27022349
v 1.99046003 0.3462235 0.2699725
v 2.348423 0.3880535 0.27085351
v 2.29640603 0.16951452 0.2705675
v -2.65088892 -0.21325948 -0.26685547
v -3.01880788 0.00108151 -0.26610046
v -2.66197609 0.20895852 -0.26683348
v -2.6036899 -0.00720748 -0.26715451
v -2.29794096 -0.18450148 -0.2677505
v -2.3399651 -0.39177149 -0.26748448
v -1.99228 -0.36149248 -0.26834547
v -2.02904605 -0.57003849 -0.26811349
v -1.68662095 -0.53848248 -0.26894146
v -1.71812796 -0.74830347 -0.26874148
v -1.38096094 -0.71547246 -0.26953649
v -1.40720701 -0.9265685 -0.26937049
v -1.07529997 -0.8924635 -0.27013051
v -1.09628701 -1.10483455 -0.26999747
v -0.76964098 -1.06945252 -0.27072548
v -0.78536897 -1.28309655 -0.27062648
v -0.463981 -1.24644041 -0.27132147
v -0.47444799 -1.4613595 -0.27125448
v -0.15831799 -1.42343545 -0.2719165
v -0.16352599 -1.63963246 -0.27188348
v -0.15583699 1.40651154 -0.2719165
v -0.46181699 1.2298274 -0.27132147
v -0.476251 1.46395444 -0.2712515
v -0.16398799 1.64321851 -0.27188146
v -0.76778399 1.05315446 -0.27072548
v -0.78849601 1.28470444 -0.27061849
v -1.07375204 0.8764795 -0.27013051
v -1.10073995 1.10545444 -0.26998847
v -1.37971794 0.69980454 -0.26953649
v -1.41298401 0.9262045 -0.2693575
v -1.68568801 0.52312851 -0.26894146
v -1.72523105 0.74695348 -0.26872748
v -1.99165403 0.34645453 -0.26834547
v -2.0374751 0.56770151 -0.26809448
v -2.2976191 0.16977851 -0.2677505
v -2.34971809 0.3884485 -0.26746451
v 0.003137 1.49642849 -0.27221751
v 0.002996 1.73136758 -0.27219951
v -0.003487 -1.51426339 -0.27221751
v -0.002615 -1.73136758 -0.27220046
v 2.66197609 0.20895852 -0.26683348
v 3.01880788 0.00108151 -0.26610046
v 2.65088892 -0.21325948 -0.26685547
v 2.6036911 -0.00720748 -0.26715451
v 2.3399651 -0.39177149 -0.26748448
v 2.29794096 -0.18450148 -0.2677505
v 2.02904605 -0.57003849 -0.26811349
v 1.99228 -0.36149248 -0.26834547
v 1.71812701 -0.74830347 -0.26874148
v 1.68662095 -0.53848248 -0.26894146
v 1.40720701 -0.9265685 -0.26937049
v 1.38096094 -0.71547246 -0.26953649
v 1.09628796 -1.10483455 -0.26999747
v 1.07529997 -0.8924635 -0.27013051
v 0.78536897 -1.28309655 -0.27062648
v 0.76964098 -1.06945252 -0.27072548
v 0.47444799 -1.4613595 -0.27125448
v 0.463981 -1.24644041 -0.27132147
v 0.163505 -1.63963055 -0.27188348
v 0.158304 -1.42343449 -0.2719165
v 0.476251 1.46395444 -0.2712515
v 0.46181699 1.2298274 -0.27132147
v 0.15584999 1.40651059 -0.2719165
v 0.164008 1.64321851 -0.27188146
v 0.78849601 1.28470444 -0.27061849
v 0.76778399 1.05315446 -0.27072548
v 1.10073995 1.10545444 -0.26998847
v 1.07375204 0.8764795 -0.27013051
v 1.41298401 0.9262045 -0.2693575
v 1.37971794 0.69980454 -0.26953649
v 1.72523105 0.74695348 -0.26872748
v 1.68568801 0.52312851 -0.26894146
v 2.0374751 0.56770151 -0.26809448
v 1.99165403 0.34645453 -0.26834547
v 2.34971904 0.3884485 -0.26746451
v 2.2976191 0.16977851 -0.2677505
g Group32941
f 80 79 78 77
g Group32944
f 4 1 77 78
f 3 4 78 79
g Group5413
f 2 1 4 3
g Group32941
f 77 82 81 80
g Group32944
f 6 2 80 81
f 1 5 82 77
g Group5413
f 1 2 6 5
g Group32941
f 82 84 83 81
g Group32944
f 5 7 84 82
g Group5413
f 5 6 8 7
g Group32941
f 84 86 85 83
g Group32944
f 10 8 83 85
f 7 9 86 84
g Group5413
f 7 8 10 9
g Group32941
f 86 88 87 85
g Group32944
f 9 11 88 86
g Group5413
f 9 10 12 11
g Group32941
f 88 90 89 87
g Group32944
f 14 12 87 89
f 11 13 90 88
g Group5413
f 11 12 14 13
g Group32941
f 90 92 91 89
g Group32944
f 13 15 92 90
g Group5413
f 13 14 16 15
g Group32941
f 92 94 93 91
g Group32944
f 18 16 91 93
f 15 17 94 92
g Group5413
f 15 16 18 17
g Group32941
f 94 96 95 93
g Group32944
f 17 19 96 94
g Group5413
f 17 18 20 19
g Group32941
f 100 99 98 97
g Group32944
f 21 23 99 100
g Group5413
f 21 22 24 23
g Group32941
f 99 102 101 98
g Group32944
f 26 24 98 101
f 23 25 102 99
g Group5413
f 23 24 26 25
g Group32941
f 102 104 103 101
g Group32944
f 25 27 104 102
g Group5413
f 25 26 28 27
g Group32941
f 104 106 105 103
g Group32944
f 30 28 103 105
f 27 29 106 104
g Group5413
f 27 28 30 29
g Group32941
f 106 108 107 105
g Group32944
f 29 31 108 106
g Group5413
f 29 30 32 31
g Group32941
f 108 110 109 107
g Group32944
f 34 32 107 109
f 31 33 110 108
g Group5413
f 31 32 34 33
g Group32941
f 110 112 111 109
g Group32944
f 33 35 112 110
g Group5413
f 33 34 36 35
g Group32941
f 112 79 80 111
g Group32944
f 2 36 111 80
f 35 3 79 112
g Group5413
f 35 36 2 3
g Group32941
f 97 98 93 95
g Group32944
f 20 22 97 95
f 24 18 93 98
g Group5413
f 22 20 18 24
g Group32941
f 101 103 89 91
g Group32944
f 16 26 101 91
f 28 14 89 103
g Group5413
f 26 16 14 28
g Group32941
f 105 107 85 87
g Group32944
f 12 30 105 87
f 32 10 85 107
g Group5413
f 30 12 10 32
g Group32941
f 109 111 81 83
g Group32944
f 8 34 109 83
f 36 6 81 111
g Group5413
f 34 8 6 36
g Group32941
f 114 100 97 113
g Group32944
f 22 38 113 97
f 37 21 100 114
g Group5413
f 37 38 22 21
g Group32941
f 96 116 115 95
g Group32944
f 40 20 95 115
f 19 39 116 96
g Group5413
f 19 20 40 39
g Group32941
f 120 119 118 117
g Group32944
f 44 43 117 118
f 41 44 118 119
g Group5413
f 42 43 44 41
g Group32941
f 119 120 122 121
g Group32944
f 45 41 119 121
f 42 46 122 120
g Group5413
f 41 45 46 42
g Group32941
f 121 122 124 123
g Group32944
f 47 45 121 123
g Group5413
f 45 47 48 46
g Group32941
f 123 124 126 125
g Group32944
f 49 47 123 125
f 48 50 126 124
g Group5413
f 47 49 50 48
g Group32941
f 125 126 128 127
g Group32944
f 51 49 125 127
g Group5413
f 49 51 52 50
g Group32941
f 127 128 130 129
g Group32944
f 53 51 127 129
f 52 54 130 128
g Group5413
f 51 53 54 52
g Group32941
f 129 130 132 131
g Group32944
f 55 53 129 131
g Group5413
f 53 55 56 54
g Group32941
f 131 132 134 133
g Group32944
f 57 55 131 133
f 56 58 134 132
g Group5413
f 55 57 58 56
g Group32941
f 133 134 136 135
g Group32944
f 59 57 133 135
g Group5413
f 57 59 60 58
g Group32941
f 140 139 138 137
g Group32944
f 63 61 140 137
g Group5413
f 61 63 64 62
g Group32941
f 137 138 142 141
g Group32944
f 65 63 137 141
f 64 66 142 138
g Group5413
f 63 65 66 64
g Group32941
f 141 142 144 143
g Group32944
f 67 65 141 143
g Group5413
f 65 67 68 66
g Group32941
f 143 144 146 145
g Group32944
f 69 67 143 145
f 68 70 146 144
g Group5413
f 67 69 70 68
g Group32941
f 145 146 148 147
g Group32944
f 71 69 145 147
g Group5413
f 69 71 72 70
g Group32941
f 147 148 150 149
g Group32944
f 73 71 147 149
f 72 74 150 148
g Group5413
f 71 73 74 72
g Group32941
f 149 150 152 151
g Group32944
f 75 73 149 151
g Group5413
f 73 75 76 74
g Group32941
f 151 152 120 117
g Group32944
f 43 75 151 117
f 76 42 120 152
g Group5413
f 75 43 42 76
g Group32941
f 139 136 134 138
g Group32944
f 58 64 138 134
f 62 60 136 139
g Group5413
f 62 64 58 60
g Group32941
f 142 132 130 144
g Group32944
f 54 68 144 130
f 66 56 132 142
g Group5413
f 66 68 54 56
g Group32941
f 146 128 126 148
g Group32944
f 50 72 148 126
f 70 52 128 146
g Group5413
f 70 72 50 52
g Group32941
f 150 124 122 152
g Group32944
f 46 76 152 122
f 74 48 124 150
g Group5413
f 74 76 46 48
g Group32941
f 114 113 139 140
g Group32944
f 61 37 114 140
f 38 62 139 113
g Group5413
f 37 61 62 38
g Group32941
f 135 136 115 116
g Group32944
f 39 59 135 116
f 60 40 115 136
g Group5413
f 59 39 40 60

 