# File exported by ZBrush version 2021
# www.zbrush.com
#Vertex Count 176
#Face Count 186
#Auto scale x=1.000000 y=1.000000 z=1.000000
#Auto offset x=0.000000 y=0.000000 z=0.000000
v 0.29237738 1.62943399 0.2271585
v 0.01131138 1.56500303 0.2267505
v -0.28356161 1.64458704 0.22718851
v -0.00000061 2.13179493 0.22819051
v 1.93245935 -1.78648102 0.22022651
v 2.16968536 -1.59612894 0.22053851
v 1.91646838 -2.13293218 0.21943551
v 2.4821105 -2.13293218 0.21943551
v -1.90785658 -1.786466 0.2202135
v -1.91996657 -2.13293218 0.21943551
v -2.17619562 -1.60731303 0.2205155
v -2.4821105 -2.13293218 0.21943551
v 0.18596138 1.260324 0.2261565
v 0.46304339 1.33619999 0.22655651
v 0.36061137 0.95564198 0.22556451
v 0.63370639 1.04296803 0.2259545
v 0.53526139 0.650963 0.2249705
v 0.80437135 0.74973499 0.2253535
v 0.7099114 0.34628102 0.2243765
v 0.97503435 0.456501 0.2247515
v 0.88456136 0.04160201 0.2237855
v 1.14569938 0.16326901 0.2241505
v 1.05920934 -0.26308 0.2231915
v 1.31636333 -0.12996499 0.2235465
v 1.23385942 -0.56775897 0.2225995
v 1.48702836 -0.42319598 0.22294449
v 1.40851032 -0.87244099 0.2220055
v 1.65769136 -0.71643 0.2223425
v 1.58315932 -1.17711997 0.22141151
v 1.82835638 -1.00966393 0.22174151
v 1.7578094 -1.48180198 0.2208205
v 1.99902033 -1.30289602 0.2211395
v -1.73338758 -1.48178696 0.2208075
v -2.0041387 -1.31168496 0.2211225
v -1.55891561 -1.17710793 0.22140151
v -1.8320806 -1.01605701 0.2217285
v -1.38444662 -0.872428 0.2219955
v -1.66002357 -0.72043198 0.2223355
v -1.20997858 -0.56774896 0.2225895
v -1.48796665 -0.42480498 0.2229415
v -1.03550756 -0.26306998 0.22318351
v -1.31590867 -0.12917698 0.2235485
v -0.86103862 0.04160701 0.22378051
v -1.14384865 0.166451 0.2241555
v -0.68656659 0.34628602 0.2243745
v -0.97179162 0.46207901 0.2247615
v -0.51209759 0.65096598 0.2249685
v -0.79973363 0.75770598 0.2253685
v -0.3376286 0.95564502 0.22556251
v -0.62767559 1.05333197 0.22597549
v -0.16315761 1.260324 0.2261565
v -0.45561862 1.34895896 0.22658149
v -0.5118286 -0.26307198 0.2231865
v -0.42463862 0.04160401 0.22378051
v 0.01184938 -0.26307499 0.2231865
v 0.01176138 0.04160401 0.22378251
v 0.53553038 -0.26307699 0.2231885
v 0.44816139 0.04160201 0.22378251
v -0.68620663 -0.87243098 0.22199851
v -0.59901863 -0.567752 0.2225925
v 0.01203138 -0.87243598 0.22200051
v 0.01194038 -0.56775397 0.2225945
v 0.71027135 -0.87243801 0.2220035
v 0.62290036 -0.56775701 0.22259751
v -0.86058759 -1.48179197 0.2208105
v -0.77339661 -1.17710995 0.2214045
v 0.01220938 -1.481794 0.2208125
v 0.01212138 -1.17711603 0.2214065
v 0.8850094 -1.481799 0.2208175
v 0.79764038 -1.17711794 0.2214095
v 0.97238141 -1.78647899 0.2202235
v 0.95735937 -2.13293218 0.21943551
v 0.01230038 -1.78647398 0.2202185
v -0.00174761 -2.13293218 0.21943551
v -0.94777762 -1.786471 0.22021549
v -0.96085661 -2.13293218 0.21943551
v -0.33744761 0.346284 0.2243745
v -0.25025761 0.65096598 0.2249685
v 0.01167338 0.346284 0.2243745
v 0.01158338 0.65096598 0.2249685
v 0.36079239 0.34628102 0.2243765
v 0.27342137 0.650963 0.2249705
v -0.16306962 0.95564502 0.22556251
v -0.07587661 1.260324 0.2261565
v 0.01149038 0.95564198 0.22556251
v 0.01140138 1.260324 0.2261565
v 0.18605138 0.95564198 0.22556451
v 0.09868238 1.260324 0.2261565
v 2.48206043 -2.13198995 -0.22819049
v 1.91644442 -2.13195085 -0.22819049
v 1.93242037 -1.78554201 -0.22740049
v 2.16962647 -1.59522998 -0.22708849
v -0.28373062 1.64570295 -0.22043748
v 0.00000538 2.13293218 -0.21943549
v 0.29256537 1.63055706 -0.22046749
v 0.01132138 1.56611704 -0.22087548
v -2.48207068 -2.13199377 -0.22819049
v -2.17615056 -1.60641002 -0.22711049
v -1.90782666 -1.78552794 -0.2274125
v -1.91994667 -2.13195991 -0.22819049
v 0.46338939 1.33729398 -0.2210695
v 0.18619237 1.261343 -0.2214695
v 0.63400536 1.04403603 -0.22167049
v 0.36081138 0.95664298 -0.2220615
v 0.80462539 0.75077599 -0.2222725
v 0.53543138 0.65194803 -0.22265549
v 0.9752444 0.45751601 -0.2228745
v 0.71005135 0.347249 -0.22324948
v 1.14586436 0.16425901 -0.2234755
v 0.8846724 0.04255301 -0.22384049
v 1.31648242 -0.12900099 -0.2240795
v 1.05928933 -0.26214599 -0.22443448
v 1.48710334 -0.42225799 -0.22468148
v 1.23391044 -0.56684297 -0.2250265
v 1.65772533 -0.71551597 -0.22528348
v 1.40853238 -0.87154001 -0.22562049
v 1.82835042 -1.00877404 -0.22588448
v 1.58315539 -1.17623698 -0.22621448
v 1.99897134 -1.30202901 -0.22648648
v 1.7577784 -1.48093497 -0.2268065
v -2.00410771 -1.31080794 -0.22650449
v -1.7333666 -1.48091197 -0.22681848
v -1.83208656 -1.01515793 -0.2258975
v -1.55891966 -1.17621803 -0.22622449
v -1.66006755 -0.71951097 -0.22529049
v -1.38447558 -0.87152397 -0.2256305
v -1.48804867 -0.42386198 -0.22468449
v -1.21003365 -0.56682997 -0.22503648
v -1.31602966 -0.12821099 -0.2240775
v -1.03558766 -0.26213499 -0.22444249
v -1.14400756 0.16743901 -0.22347049
v -0.86114358 0.04255701 -0.22384549
v -0.97198963 0.46308901 -0.22286449
v -0.68669962 0.34725001 -0.2232515
v -0.7999736 0.75874 -0.22225748
v -0.51225763 0.65194499 -0.22265748
v -0.62795662 1.054389 -0.22165049
v -0.33781662 0.95664101 -0.22206349
v -0.45594161 1.35004103 -0.22104348
v -0.16337361 1.26133596 -0.2214695
v -0.4246366 0.04247901 -0.22384549
v -0.51182758 -0.26219797 -0.2244405
v 0.01176338 0.04247901 -0.2238435
v 0.01185138 -0.26219999 -0.2244405
v 0.44816339 0.04247601 -0.2238435
v 0.53553235 -0.26220297 -0.22443749
v -0.5990166 -0.56687897 -0.22503449
v -0.68620461 -0.87155896 -0.22562848
v 0.01194238 -0.566881 -0.22503148
v 0.01203238 -0.87156295 -0.2256255
v 0.62290138 -0.56688296 -0.22502948
v 0.71027338 -0.87156498 -0.2256235
v -0.77339559 -1.17623794 -0.2262225
v -0.86058664 -1.48091995 -0.22681649
v 0.01212338 -1.17624402 -0.22621949
v 0.01221138 -1.48092293 -0.22681348
v 0.79764241 -1.176247 -0.22621749
v 0.88501137 -1.48092901 -0.2268085
v 0.95736038 -2.13191509 -0.22819049
v 0.97238236 -1.78546202 -0.22740249
v -0.00174661 -2.13191986 -0.22819049
v 0.01230138 -1.78546202 -0.2274075
v -0.96085661 -2.13192415 -0.22819049
v -0.94777762 -1.78546297 -0.22741048
v -0.25025761 0.651838 -0.22265748
v -0.33744761 0.347157 -0.2232515
v 0.01158538 0.651838 -0.22265748
v 0.01167538 0.347157 -0.2232515
v 0.27342337 0.65183603 -0.22265549
v 0.36079439 0.34715402 -0.22324948
v -0.07587661 1.26119697 -0.2214695
v -0.16306962 0.95651704 -0.22206349
v 0.01140438 1.26119601 -0.2214695
v 0.01149238 0.956514 -0.22206349
v 0.09868538 1.26119399 -0.2214695
v 0.18605437 0.95651203 -0.2220615
g Group32941
f 92 91 90 89
g Group32944
f 8 6 92 89
f 7 8 89 90
g Group14524
f 6 8 7 5
g Group32941
f 96 95 94 93
g Group32944
f 4 3 93 94
f 1 4 94 95
g Group14524
f 2 3 4 1
g Group32941
f 100 99 98 97
g Group32944
f 12 10 100 97
f 11 12 97 98
g Group14524
f 10 12 11 9
g Group32941
f 96 102 101 95
g Group32944
f 14 1 95 101
f 2 13 102 96
g Group14524
f 2 1 14 13
g Group32941
f 102 104 103 101
g Group32944
f 16 14 101 103
g Group14524
f 13 14 16 15
g Group32941
f 104 106 105 103
g Group32944
f 18 16 103 105
f 15 17 106 104
g Group14524
f 15 16 18 17
g Group32941
f 106 108 107 105
g Group32944
f 20 18 105 107
g Group14524
f 17 18 20 19
g Group32941
f 108 110 109 107
g Group32944
f 22 20 107 109
f 19 21 110 108
g Group14524
f 19 20 22 21
g Group32941
f 110 112 111 109
g Group32944
f 24 22 109 111
g Group14524
f 21 22 24 23
g Group32941
f 112 114 113 111
g Group32944
f 26 24 111 113
f 23 25 114 112
g Group14524
f 23 24 26 25
g Group32941
f 114 116 115 113
g Group32944
f 28 26 113 115
g Group14524
f 25 26 28 27
g Group32941
f 116 118 117 115
g Group32944
f 30 28 115 117
f 27 29 118 116
g Group14524
f 27 28 30 29
g Group32941
f 118 120 119 117
g Group32944
f 32 30 117 119
g Group14524
f 29 30 32 31
g Group32941
f 120 91 92 119
g Group32944
f 6 32 119 92
f 31 5 91 120
g Group14524
f 31 32 6 5
g Group32941
f 99 122 121 98
g Group32944
f 34 11 98 121
f 9 33 122 99
g Group14524
f 9 11 34 33
g Group32941
f 122 124 123 121
g Group32944
f 36 34 121 123
g Group14524
f 33 34 36 35
g Group32941
f 124 126 125 123
g Group32944
f 38 36 123 125
f 35 37 126 124
g Group14524
f 35 36 38 37
g Group32941
f 126 128 127 125
g Group32944
f 40 38 125 127
g Group14524
f 37 38 40 39
g Group32941
f 128 130 129 127
g Group32944
f 42 40 127 129
f 39 41 130 128
g Group14524
f 39 40 42 41
g Group32941
f 130 132 131 129
g Group32944
f 44 42 129 131
g Group14524
f 41 42 44 43
g Group32941
f 132 134 133 131
g Group32944
f 46 44 131 133
f 43 45 134 132
g Group14524
f 43 44 46 45
g Group32941
f 134 136 135 133
g Group32944
f 48 46 133 135
g Group14524
f 45 46 48 47
g Group32941
f 136 138 137 135
g Group32944
f 50 48 135 137
f 47 49 138 136
g Group14524
f 47 48 50 49
g Group32941
f 138 140 139 137
g Group32944
f 52 50 137 139
g Group14524
f 49 50 52 51
g Group32941
f 140 96 93 139
g Group32944
f 3 52 139 93
f 51 2 96 140
g Group14524
f 51 52 3 2
g Group32941
f 130 142 141 132
g Group32944
f 54 43 132 141
f 41 53 142 130
g Group14524
f 41 43 54 53
g Group32941
f 142 144 143 141
g Group32944
f 56 54 141 143
f 53 55 144 142
g Group14524
f 53 54 56 55
g Group32941
f 144 146 145 143
g Group32944
f 58 56 143 145
f 55 57 146 144
g Group14524
f 55 56 58 57
g Group32941
f 146 112 110 145
g Group32944
f 21 58 145 110
f 57 23 112 146
g Group14524
f 57 58 21 23
g Group32941
f 126 148 147 128
g Group32944
f 60 39 128 147
f 37 59 148 126
g Group14524
f 37 39 60 59
g Group32941
f 148 150 149 147
g Group32944
f 62 60 147 149
f 59 61 150 148
g Group14524
f 59 60 62 61
g Group32941
f 150 152 151 149
g Group32944
f 64 62 149 151
f 61 63 152 150
g Group14524
f 61 62 64 63
g Group32941
f 152 116 114 151
g Group32944
f 25 64 151 114
f 63 27 116 152
g Group14524
f 63 64 25 27
g Group32941
f 122 154 153 124
g Group32944
f 66 35 124 153
f 33 65 154 122
g Group14524
f 33 35 66 65
g Group32941
f 154 156 155 153
g Group32944
f 68 66 153 155
f 65 67 156 154
g Group14524
f 65 66 68 67
g Group32941
f 156 158 157 155
g Group32944
f 70 68 155 157
f 67 69 158 156
g Group14524
f 67 68 70 69
g Group32941
f 158 120 118 157
g Group32944
f 29 70 157 118
f 69 31 120 158
g Group14524
f 69 70 29 31
g Group32941
f 91 160 159 90
g Group32944
f 72 7 90 159
f 5 71 160 91
g Group14524
f 5 7 72 71
g Group32941
f 160 162 161 159
g Group32944
f 74 72 159 161
f 71 73 162 160
g Group14524
f 71 72 74 73
g Group32941
f 162 164 163 161
g Group32944
f 76 74 161 163
f 73 75 164 162
g Group14524
f 73 74 76 75
g Group32941
f 164 99 100 163
g Group32944
f 10 76 163 100
f 75 9 99 164
g Group14524
f 75 76 10 9
g Group32941
f 134 166 165 136
g Group32944
f 78 47 136 165
f 45 77 166 134
g Group14524
f 45 47 78 77
g Group32941
f 166 168 167 165
g Group32944
f 80 78 165 167
f 77 79 168 166
g Group14524
f 77 78 80 79
g Group32941
f 168 170 169 167
g Group32944
f 82 80 167 169
f 79 81 170 168
g Group14524
f 79 80 82 81
g Group32941
f 170 108 106 169
g Group32944
f 17 82 169 106
f 81 19 108 170
g Group14524
f 81 82 17 19
g Group32941
f 138 172 171 140
g Group32944
f 84 51 140 171
f 49 83 172 138
g Group14524
f 49 51 84 83
g Group32941
f 172 174 173 171
g Group32944
f 86 84 171 173
f 83 85 174 172
g Group14524
f 83 84 86 85
g Group32941
f 174 176 175 173
g Group32944
f 88 86 173 175
f 85 87 176 174
g Group14524
f 85 86 88 87
g Group32941
f 176 104 102 175
g Group32944
f 13 88 175 102
f 87 15 104 176
g Group14524
f 87 88 13 15

 