<?xml version="1.0" encoding="UTF-8" standalone="no"?>
<!DOCTYPE svg PUBLIC "-//W3C//DTD SVG 1.1//EN"
 "http://www.w3.org/Graphics/SVG/1.1/DTD/svg11.dtd">
<!-- Generated by graphviz version 15.1.0 (20260618.0150)
 -->
<!-- Title: EngineSound Pages: 1 -->
<svg width="94pt" height="324pt"
 viewBox="0.00 0.00 94.00 324.00" xmlns="http://www.w3.org/2000/svg" xmlns:xlink="http://www.w3.org/1999/xlink">
<g id="graph0" class="graph" transform="scale(1 1) rotate(0) translate(4 320)">
<title>EngineSound</title>
<!-- Node1 -->
<g id="Node000001" class="node">
<title>Node1</title>
<g id="a_Node000001"><a xlink:title="Procedural engine audio controller using four RPM bands.">
<polygon fill="#999999" stroke="none" points="85.5,-228 0,-228 0,0 85.5,0 85.5,-228"/>
<text xml:space="preserve" text-anchor="start" x="13.88" y="-214.25" font-family="Helvetica,sans-Serif" font-size="10.00">EngineSound</text>
<text xml:space="preserve" text-anchor="start" x="4" y="-198.25" font-family="Helvetica,sans-Serif" font-size="10.00">+</text>
<text xml:space="preserve" text-anchor="start" x="14" y="-198.25" font-family="Helvetica,sans-Serif" font-size="10.00">bandCenters</text>
<text xml:space="preserve" text-anchor="start" x="4" y="-182.25" font-family="Helvetica,sans-Serif" font-size="10.00">+</text>
<text xml:space="preserve" text-anchor="start" x="14" y="-182.25" font-family="Helvetica,sans-Serif" font-size="10.00">bandSharpness</text>
<text xml:space="preserve" text-anchor="start" x="4" y="-166.25" font-family="Helvetica,sans-Serif" font-size="10.00">+</text>
<text xml:space="preserve" text-anchor="start" x="14" y="-166.25" font-family="Helvetica,sans-Serif" font-size="10.00">dopplerLevel</text>
<text xml:space="preserve" text-anchor="start" x="4" y="-150.25" font-family="Helvetica,sans-Serif" font-size="10.00">+</text>
<text xml:space="preserve" text-anchor="start" x="14" y="-150.25" font-family="Helvetica,sans-Serif" font-size="10.00">limiterDepth</text>
<text xml:space="preserve" text-anchor="start" x="4" y="-134.25" font-family="Helvetica,sans-Serif" font-size="10.00">+</text>
<text xml:space="preserve" text-anchor="start" x="14" y="-134.25" font-family="Helvetica,sans-Serif" font-size="10.00">limiterStart</text>
<text xml:space="preserve" text-anchor="start" x="4" y="-118.25" font-family="Helvetica,sans-Serif" font-size="10.00">+</text>
<text xml:space="preserve" text-anchor="start" x="14" y="-118.25" font-family="Helvetica,sans-Serif" font-size="10.00">masterVolume</text>
<text xml:space="preserve" text-anchor="start" x="4" y="-102.25" font-family="Helvetica,sans-Serif" font-size="10.00">+</text>
<text xml:space="preserve" text-anchor="start" x="14" y="-102.25" font-family="Helvetica,sans-Serif" font-size="10.00">maxRPM</text>
<text xml:space="preserve" text-anchor="start" x="4" y="-86.25" font-family="Helvetica,sans-Serif" font-size="10.00">+</text>
<text xml:space="preserve" text-anchor="start" x="14" y="-86.25" font-family="Helvetica,sans-Serif" font-size="10.00">minRPM</text>
<text xml:space="preserve" text-anchor="start" x="4" y="-70.25" font-family="Helvetica,sans-Serif" font-size="10.00">+</text>
<text xml:space="preserve" text-anchor="start" x="14" y="-70.25" font-family="Helvetica,sans-Serif" font-size="10.00">off_High</text>
<text xml:space="preserve" text-anchor="start" x="4" y="-54.25" font-family="Helvetica,sans-Serif" font-size="10.00">+</text>
<text xml:space="preserve" text-anchor="start" x="14" y="-54.25" font-family="Helvetica,sans-Serif" font-size="10.00">off_Idle</text>
<text xml:space="preserve" text-anchor="start" x="14" y="-38.25" font-family="Helvetica,sans-Serif" font-size="10.00">and 17 more...</text>
<text xml:space="preserve" text-anchor="start" x="4" y="-22.25" font-family="Helvetica,sans-Serif" font-size="10.00">+</text>
<text xml:space="preserve" text-anchor="start" x="14" y="-22.25" font-family="Helvetica,sans-Serif" font-size="10.00">OnShift()</text>
<text xml:space="preserve" text-anchor="start" x="4" y="-6.25" font-family="Helvetica,sans-Serif" font-size="10.00">+</text>
<text xml:space="preserve" text-anchor="start" x="14" y="-6.25" font-family="Helvetica,sans-Serif" font-size="10.00">SetUp()</text>
<polygon fill="#666666" stroke="#666666" points="0,-210 0,-210 85.5,-210 85.5,-210 0,-210"/>
<polygon fill="#666666" stroke="#666666" points="0,-34 0,-34 12,-34 12,-34 0,-34"/>
<polygon fill="#666666" stroke="#666666" points="12,-34 12,-34 85.5,-34 85.5,-34 12,-34"/>
<polygon fill="none" stroke="#666666" points="0,0 0,-228 85.5,-228 85.5,0 0,0"/>
</a>
</g>
</g>
<!-- Node2 -->
<g id="Node000002" class="node">
<title>Node2</title>
<g id="a_Node000002"><a xlink:title=" ">
<polygon fill="white" stroke="none" points="80.5,-316 5,-316 5,-264 80.5,-264 80.5,-316"/>
<text xml:space="preserve" text-anchor="start" x="9" y="-302.25" font-family="Helvetica,sans-Serif" font-size="10.00">MonoBehaviour</text>
<text xml:space="preserve" text-anchor="start" x="41.25" y="-286.25" font-family="Helvetica,sans-Serif" font-size="10.00"> </text>
<text xml:space="preserve" text-anchor="start" x="41.25" y="-270.25" font-family="Helvetica,sans-Serif" font-size="10.00"> </text>
<polygon fill="#666666" stroke="#666666" points="5,-298 5,-298 80.5,-298 80.5,-298 5,-298"/>
<polygon fill="#666666" stroke="#666666" points="5,-282 5,-282 80.5,-282 80.5,-282 5,-282"/>
<polygon fill="none" stroke="#666666" points="5,-264 5,-316 80.5,-316 80.5,-264 5,-264"/>
</a>
</g>
</g>
<!-- Node2&#45;&gt;Node1 -->
<g id="edge1_Node000001_Node000002" class="edge">
<title>Node2&#45;&gt;Node1</title>
<g id="a_edge1_Node000001_Node000002"><a xlink:title=" ">
<path fill="none" stroke="#63b8ff" d="M42.75,-252.72C42.75,-245.03 42.75,-236.53 42.75,-227.64"/>
<polygon fill="none" stroke="#63b8ff" points="39.25,-252.56 42.75,-262.56 46.25,-252.56 39.25,-252.56"/>
</a>
</g>
</g>
</g>
</svg>
