<?xml version="1.0" encoding="UTF-8" standalone="no"?>
<!DOCTYPE svg PUBLIC "-//W3C//DTD SVG 1.1//EN"
 "http://www.w3.org/Graphics/SVG/1.1/DTD/svg11.dtd">
<!-- Generated by graphviz version 15.1.0 (20260618.0150)
 -->
<!-- Title: GameDataManager.GameData Pages: 1 -->
<svg width="159pt" height="404pt"
 viewBox="0.00 0.00 159.00 404.00" xmlns="http://www.w3.org/2000/svg" xmlns:xlink="http://www.w3.org/1999/xlink">
<g id="graph0" class="graph" transform="scale(1 1) rotate(0) translate(4 400)">
<title>GameDataManager.GameData</title>
<!-- Node1 -->
<g id="Node000001" class="node">
<title>Node1</title>
<g id="a_Node000001"><a xlink:title="Serializable container for all saved progression data.">
<polygon fill="#999999" stroke="none" points="150.75,-308 0,-308 0,0 150.75,0 150.75,-308"/>
<text xml:space="preserve" text-anchor="start" x="7.88" y="-294.25" font-family="Helvetica,sans-Serif" font-size="10.00">GameDataManager.GameData</text>
<text xml:space="preserve" text-anchor="start" x="4" y="-278.25" font-family="Helvetica,sans-Serif" font-size="10.00">+</text>
<text xml:space="preserve" text-anchor="start" x="14" y="-278.25" font-family="Helvetica,sans-Serif" font-size="10.00">AssistsSettings</text>
<text xml:space="preserve" text-anchor="start" x="4" y="-262.25" font-family="Helvetica,sans-Serif" font-size="10.00">+</text>
<text xml:space="preserve" text-anchor="start" x="14" y="-262.25" font-family="Helvetica,sans-Serif" font-size="10.00">Levels</text>
<text xml:space="preserve" text-anchor="start" x="4" y="-246.25" font-family="Helvetica,sans-Serif" font-size="10.00">+</text>
<text xml:space="preserve" text-anchor="start" x="14" y="-246.25" font-family="Helvetica,sans-Serif" font-size="10.00">PracticeMapReplay</text>
<text xml:space="preserve" text-anchor="start" x="4" y="-230.25" font-family="Helvetica,sans-Serif" font-size="10.00">+</text>
<text xml:space="preserve" text-anchor="start" x="14" y="-230.25" font-family="Helvetica,sans-Serif" font-size="10.00">PracticeMapSplits</text>
<text xml:space="preserve" text-anchor="start" x="4" y="-214.25" font-family="Helvetica,sans-Serif" font-size="10.00">+</text>
<text xml:space="preserve" text-anchor="start" x="14" y="-214.25" font-family="Helvetica,sans-Serif" font-size="10.00">PracticeMapTime</text>
<text xml:space="preserve" text-anchor="start" x="4" y="-198.25" font-family="Helvetica,sans-Serif" font-size="10.00">+</text>
<text xml:space="preserve" text-anchor="start" x="14" y="-198.25" font-family="Helvetica,sans-Serif" font-size="10.00">GameData()</text>
<text xml:space="preserve" text-anchor="start" x="4" y="-182.25" font-family="Helvetica,sans-Serif" font-size="10.00">+</text>
<text xml:space="preserve" text-anchor="start" x="14" y="-182.25" font-family="Helvetica,sans-Serif" font-size="10.00">GameData()</text>
<text xml:space="preserve" text-anchor="start" x="4" y="-166.25" font-family="Helvetica,sans-Serif" font-size="10.00">+</text>
<text xml:space="preserve" text-anchor="start" x="14" y="-166.25" font-family="Helvetica,sans-Serif" font-size="10.00">ContainsLevel()</text>
<text xml:space="preserve" text-anchor="start" x="4" y="-150.25" font-family="Helvetica,sans-Serif" font-size="10.00">+</text>
<text xml:space="preserve" text-anchor="start" x="14" y="-150.25" font-family="Helvetica,sans-Serif" font-size="10.00">EnsureValid()</text>
<text xml:space="preserve" text-anchor="start" x="4" y="-134.25" font-family="Helvetica,sans-Serif" font-size="10.00">+</text>
<text xml:space="preserve" text-anchor="start" x="14" y="-134.25" font-family="Helvetica,sans-Serif" font-size="10.00">GetBestLevelTime()</text>
<text xml:space="preserve" text-anchor="start" x="4" y="-118.25" font-family="Helvetica,sans-Serif" font-size="10.00">+</text>
<text xml:space="preserve" text-anchor="start" x="14" y="-118.25" font-family="Helvetica,sans-Serif" font-size="10.00">GetBestReplay()</text>
<text xml:space="preserve" text-anchor="start" x="4" y="-102.25" font-family="Helvetica,sans-Serif" font-size="10.00">+</text>
<text xml:space="preserve" text-anchor="start" x="14" y="-102.25" font-family="Helvetica,sans-Serif" font-size="10.00">GetBestTestLevelReplay()</text>
<text xml:space="preserve" text-anchor="start" x="4" y="-86.25" font-family="Helvetica,sans-Serif" font-size="10.00">+</text>
<text xml:space="preserve" text-anchor="start" x="14" y="-86.25" font-family="Helvetica,sans-Serif" font-size="10.00">GetBestTestLevelTime()</text>
<text xml:space="preserve" text-anchor="start" x="4" y="-70.25" font-family="Helvetica,sans-Serif" font-size="10.00">+</text>
<text xml:space="preserve" text-anchor="start" x="14" y="-70.25" font-family="Helvetica,sans-Serif" font-size="10.00">GetCheckpointSplit()</text>
<text xml:space="preserve" text-anchor="start" x="4" y="-54.25" font-family="Helvetica,sans-Serif" font-size="10.00">+</text>
<text xml:space="preserve" text-anchor="start" x="14" y="-54.25" font-family="Helvetica,sans-Serif" font-size="10.00">GetObjectData()</text>
<text xml:space="preserve" text-anchor="start" x="4" y="-38.25" font-family="Helvetica,sans-Serif" font-size="10.00">+</text>
<text xml:space="preserve" text-anchor="start" x="14" y="-38.25" font-family="Helvetica,sans-Serif" font-size="10.00">GetTestLevelCheckpointSplit()</text>
<text xml:space="preserve" text-anchor="start" x="4" y="-22.25" font-family="Helvetica,sans-Serif" font-size="10.00">+</text>
<text xml:space="preserve" text-anchor="start" x="14" y="-22.25" font-family="Helvetica,sans-Serif" font-size="10.00">UpdateLevelTime()</text>
<text xml:space="preserve" text-anchor="start" x="4" y="-6.25" font-family="Helvetica,sans-Serif" font-size="10.00">+</text>
<text xml:space="preserve" text-anchor="start" x="14" y="-6.25" font-family="Helvetica,sans-Serif" font-size="10.00">UpdateTestLevelTime()</text>
<polygon fill="#666666" stroke="#666666" points="0,-290 0,-290 150.75,-290 150.75,-290 0,-290"/>
<polygon fill="#666666" stroke="#666666" points="0,-210 0,-210 12,-210 12,-210 0,-210"/>
<polygon fill="#666666" stroke="#666666" points="12,-210 12,-210 150.75,-210 150.75,-210 12,-210"/>
<polygon fill="none" stroke="#666666" points="0,0 0,-308 150.75,-308 150.75,0 0,0"/>
</a>
</g>
</g>
<!-- Node2 -->
<g id="Node000002" class="node">
<title>Node2</title>
<g id="a_Node000002"><a xlink:title=" ">
<polygon fill="white" stroke="none" points="106,-396 44.75,-396 44.75,-344 106,-344 106,-396"/>
<text xml:space="preserve" text-anchor="start" x="48.75" y="-382.25" font-family="Helvetica,sans-Serif" font-size="10.00">ISerializable</text>
<text xml:space="preserve" text-anchor="start" x="73.88" y="-366.25" font-family="Helvetica,sans-Serif" font-size="10.00"> </text>
<text xml:space="preserve" text-anchor="start" x="73.88" y="-350.25" font-family="Helvetica,sans-Serif" font-size="10.00"> </text>
<polygon fill="#666666" stroke="#666666" points="44.75,-378 44.75,-378 106,-378 106,-378 44.75,-378"/>
<polygon fill="#666666" stroke="#666666" points="44.75,-362 44.75,-362 106,-362 106,-362 44.75,-362"/>
<polygon fill="none" stroke="#666666" points="44.75,-344 44.75,-396 106,-396 106,-344 44.75,-344"/>
</a>
</g>
</g>
<!-- Node2&#45;&gt;Node1 -->
<g id="edge1_Node000001_Node000002" class="edge">
<title>Node2&#45;&gt;Node1</title>
<g id="a_edge1_Node000001_Node000002"><a xlink:title=" ">
<path fill="none" stroke="#63b8ff" d="M75.38,-332.61C75.38,-325.1 75.38,-316.75 75.38,-307.89"/>
<polygon fill="none" stroke="#63b8ff" points="71.88,-332.52 75.38,-342.52 78.88,-332.52 71.88,-332.52"/>
</a>
</g>
</g>
</g>
</svg>
