<?xml version="1.0" encoding="UTF-8" standalone="no"?>
<!DOCTYPE svg PUBLIC "-//W3C//DTD SVG 1.1//EN"
 "http://www.w3.org/Graphics/SVG/1.1/DTD/svg11.dtd">
<!-- Generated by graphviz version 14.0.0 (20250921.2048)
 -->
<!-- Title: TMPro.Examples.ObjectSpin Pages: 1 -->
<svg width="143pt" height="212pt"
 viewBox="0.00 0.00 143.00 212.00" xmlns="http://www.w3.org/2000/svg" xmlns:xlink="http://www.w3.org/1999/xlink">

<svg id="main" version="1.1" xmlns="http://www.w3.org/2000/svg" xmlns:xlink="http://www.w3.org/1999/xlink" xml:space="preserve">

<style type="text/css"><![CDATA[
.node, .edge {opacity: 0.7;}
.node.selected, .edge.selected {opacity: 1;}
.edge:hover path { stroke: red; }
.edge:hover polygon { stroke: red; fill: red; }
]]></style>
<script type="application/ecmascript" xlink:href="svg.min.js"/>
<svg id="graph" class="graph">
<g id="graph0" class="graph" transform="scale(1 1) rotate(0) translate(4 208)">
<title>TMPro.Examples.ObjectSpin</title>
<!-- Node1 -->
<g id="Node000001" class="node">
<title>Node1</title>
<g id="a_Node000001"><a xlink:title=" ">
<polygon fill="#999999" stroke="none" points="134.75,-116 0,-116 0,0 134.75,0 134.75,-116"/>
<text xml:space="preserve" text-anchor="start" x="4" y="-102.5" font-family="Helvetica,sans-Serif" font-size="10.00">TMPro.Examples.ObjectSpin</text>
<text xml:space="preserve" text-anchor="start" x="11.44" y="-86.5" font-family="Helvetica,sans-Serif" font-size="10.00">+</text>
<text xml:space="preserve" text-anchor="start" x="28.88" y="-86.5" font-family="Helvetica,sans-Serif" font-size="10.00">Motion</text>
<text xml:space="preserve" text-anchor="start" x="11.44" y="-70.5" font-family="Helvetica,sans-Serif" font-size="10.00">+</text>
<text xml:space="preserve" text-anchor="start" x="28.88" y="-70.5" font-family="Helvetica,sans-Serif" font-size="10.00">RotationRange</text>
<text xml:space="preserve" text-anchor="start" x="11.44" y="-54.5" font-family="Helvetica,sans-Serif" font-size="10.00">+</text>
<text xml:space="preserve" text-anchor="start" x="28.88" y="-54.5" font-family="Helvetica,sans-Serif" font-size="10.00">SpinSpeed</text>
<text xml:space="preserve" text-anchor="start" x="11.44" y="-38.5" font-family="Helvetica,sans-Serif" font-size="10.00">+</text>
<text xml:space="preserve" text-anchor="start" x="28.88" y="-38.5" font-family="Helvetica,sans-Serif" font-size="10.00">TranslationDistance</text>
<text xml:space="preserve" text-anchor="start" x="11.44" y="-22.5" font-family="Helvetica,sans-Serif" font-size="10.00">+</text>
<text xml:space="preserve" text-anchor="start" x="28.88" y="-22.5" font-family="Helvetica,sans-Serif" font-size="10.00">TranslationSpeed</text>
<text xml:space="preserve" text-anchor="start" x="65.88" y="-6.5" font-family="Helvetica,sans-Serif" font-size="10.00"> </text>
<polygon fill="#666666" stroke="#666666" points="0,-98 0,-98 134.75,-98 134.75,-98 0,-98"/>
<polygon fill="#666666" stroke="#666666" points="0,-18 0,-18 26.88,-18 26.88,-18 0,-18"/>
<polygon fill="#666666" stroke="#666666" points="26.88,-18 26.88,-18 134.75,-18 134.75,-18 26.88,-18"/>
<polygon fill="none" stroke="#666666" points="0,0 0,-116 134.75,-116 134.75,0 0,0"/>
</a>
</g>
</g>
<!-- Node2 -->
<g id="Node000002" class="node">
<title>Node2</title>
<g id="a_Node000002"><a xlink:title=" ">
<polygon fill="white" stroke="none" points="105.12,-204 29.62,-204 29.62,-152 105.12,-152 105.12,-204"/>
<text xml:space="preserve" text-anchor="start" x="33.62" y="-190.5" font-family="Helvetica,sans-Serif" font-size="10.00">MonoBehaviour</text>
<text xml:space="preserve" text-anchor="start" x="65.88" y="-174.5" font-family="Helvetica,sans-Serif" font-size="10.00"> </text>
<text xml:space="preserve" text-anchor="start" x="65.88" y="-158.5" font-family="Helvetica,sans-Serif" font-size="10.00"> </text>
<polygon fill="#666666" stroke="#666666" points="29.62,-186 29.62,-186 105.12,-186 105.12,-186 29.62,-186"/>
<polygon fill="#666666" stroke="#666666" points="29.62,-170 29.62,-170 105.12,-170 105.12,-170 29.62,-170"/>
<polygon fill="none" stroke="#666666" points="29.62,-152 29.62,-204 105.12,-204 105.12,-152 29.62,-152"/>
</a>
</g>
</g>
<!-- Node2&#45;&gt;Node1 -->
<g id="edge1_Node000001_Node000002" class="edge">
<title>Node2&#45;&gt;Node1</title>
<g id="a_edge1_Node000001_Node000002"><a xlink:title=" ">
<path fill="none" stroke="#63b8ff" d="M67.38,-140.82C67.38,-132.89 67.38,-124.31 67.38,-115.79"/>
<polygon fill="none" stroke="#63b8ff" points="63.88,-140.75 67.38,-150.75 70.88,-140.75 63.88,-140.75"/>
</a>
</g>
</g>
</g>
</svg>
</svg>

<style type='text/css'>
<![CDATA[
[data-mouse-over-selected='false'] { opacity: 0.7; }
[data-mouse-over-selected='true']  { opacity: 1.0; }
]]>
</style>
<script type="application/ecmascript"><![CDATA[
document.addEventListener('DOMContentLoaded', (event) => {
  highlightEdges();
  highlightAdjacentNodes();
});
]]></script>
</svg>
