<?xml version="1.0" encoding="UTF-8" standalone="no"?>
<!DOCTYPE svg PUBLIC "-//W3C//DTD SVG 1.1//EN"
 "http://www.w3.org/Graphics/SVG/1.1/DTD/svg11.dtd">
<!-- Generated by graphviz version 14.0.0 (20250921.2048)
 -->
<!-- Title: Generic.Singleton&lt; T &gt; Pages: 1 -->
<svg width="344pt" height="460pt"
 viewBox="0.00 0.00 344.00 460.00" xmlns="http://www.w3.org/2000/svg" xmlns:xlink="http://www.w3.org/1999/xlink">
<g id="graph0" class="graph" transform="scale(1 1) rotate(0) translate(4 456)">
<title>Generic.Singleton&lt; T &gt;</title>
<!-- Node1 -->
<g id="Node000001" class="node">
<title>Node1</title>
<g id="a_Node000001"><a xlink:title="Minimal DontDestroyOnLoad singleton base.">
<polygon fill="#999999" stroke="none" points="226.62,-364 118.12,-364 118.12,-296 226.62,-296 226.62,-364"/>
<text xml:space="preserve" text-anchor="start" x="122.12" y="-350.5" font-family="Helvetica,sans-Serif" font-size="10.00">Generic.Singleton&lt; T &gt;</text>
<text xml:space="preserve" text-anchor="start" x="131.44" y="-334.5" font-family="Helvetica,sans-Serif" font-size="10.00">+</text>
<text xml:space="preserve" text-anchor="start" x="150.75" y="-334.5" font-family="Helvetica,sans-Serif" font-size="10.00">Instance</text>
<text xml:space="preserve" text-anchor="start" x="131.81" y="-318.5" font-family="Helvetica,sans-Serif" font-size="10.00">#</text>
<text xml:space="preserve" text-anchor="start" x="150.75" y="-318.5" font-family="Helvetica,sans-Serif" font-size="10.00">Awake()</text>
<text xml:space="preserve" text-anchor="start" x="131.81" y="-302.5" font-family="Helvetica,sans-Serif" font-size="10.00">#</text>
<text xml:space="preserve" text-anchor="start" x="150.75" y="-302.5" font-family="Helvetica,sans-Serif" font-size="10.00">OnDestroy()</text>
<polygon fill="#666666" stroke="#666666" points="118.12,-346 118.12,-346 226.62,-346 226.62,-346 118.12,-346"/>
<polygon fill="#666666" stroke="#666666" points="118.12,-330 118.12,-330 148.75,-330 148.75,-330 118.12,-330"/>
<polygon fill="#666666" stroke="#666666" points="148.75,-330 148.75,-330 226.62,-330 226.62,-330 148.75,-330"/>
<polygon fill="none" stroke="#666666" points="118.12,-296 118.12,-364 226.62,-364 226.62,-296 118.12,-296"/>
</a>
</g>
</g>
<!-- Node3 -->
<g id="Node000003" class="node">
<title>Node3</title>
<g id="a_Node000003"><a xlink:href="class_game_data_manager.html" target="_top" xlink:title=" ">
<polygon fill="white" stroke="none" points="108.75,-228 0,-228 0,-32 108.75,-32 108.75,-228"/>
<text xml:space="preserve" text-anchor="start" x="12" y="-214.5" font-family="Helvetica,sans-Serif" font-size="10.00">GameDataManager</text>
<text xml:space="preserve" text-anchor="start" x="4" y="-198.5" font-family="Helvetica,sans-Serif" font-size="10.00">+</text>
<text xml:space="preserve" text-anchor="start" x="14" y="-198.5" font-family="Helvetica,sans-Serif" font-size="10.00">CurrentGameData</text>
<text xml:space="preserve" text-anchor="start" x="4" y="-182.5" font-family="Helvetica,sans-Serif" font-size="10.00">+</text>
<text xml:space="preserve" text-anchor="start" x="14" y="-182.5" font-family="Helvetica,sans-Serif" font-size="10.00">CurrentLevelMap</text>
<text xml:space="preserve" text-anchor="start" x="4" y="-166.5" font-family="Helvetica,sans-Serif" font-size="10.00">+</text>
<text xml:space="preserve" text-anchor="start" x="14" y="-166.5" font-family="Helvetica,sans-Serif" font-size="10.00">Hash</text>
<text xml:space="preserve" text-anchor="start" x="4" y="-150.5" font-family="Helvetica,sans-Serif" font-size="10.00">+</text>
<text xml:space="preserve" text-anchor="start" x="14" y="-150.5" font-family="Helvetica,sans-Serif" font-size="10.00">AddLevel()</text>
<text xml:space="preserve" text-anchor="start" x="4" y="-134.5" font-family="Helvetica,sans-Serif" font-size="10.00">+</text>
<text xml:space="preserve" text-anchor="start" x="14" y="-134.5" font-family="Helvetica,sans-Serif" font-size="10.00">AddListener()</text>
<text xml:space="preserve" text-anchor="start" x="4" y="-118.5" font-family="Helvetica,sans-Serif" font-size="10.00">+</text>
<text xml:space="preserve" text-anchor="start" x="14" y="-118.5" font-family="Helvetica,sans-Serif" font-size="10.00">ClearLevels()</text>
<text xml:space="preserve" text-anchor="start" x="4" y="-102.5" font-family="Helvetica,sans-Serif" font-size="10.00">+</text>
<text xml:space="preserve" text-anchor="start" x="14" y="-102.5" font-family="Helvetica,sans-Serif" font-size="10.00">CompleteLevel()</text>
<text xml:space="preserve" text-anchor="start" x="4" y="-86.5" font-family="Helvetica,sans-Serif" font-size="10.00">+</text>
<text xml:space="preserve" text-anchor="start" x="14" y="-86.5" font-family="Helvetica,sans-Serif" font-size="10.00">GoToSelectedLevel()</text>
<text xml:space="preserve" text-anchor="start" x="4" y="-70.5" font-family="Helvetica,sans-Serif" font-size="10.00">+</text>
<text xml:space="preserve" text-anchor="start" x="14" y="-70.5" font-family="Helvetica,sans-Serif" font-size="10.00">RemoveLevel()</text>
<text xml:space="preserve" text-anchor="start" x="4" y="-54.5" font-family="Helvetica,sans-Serif" font-size="10.00">+</text>
<text xml:space="preserve" text-anchor="start" x="14" y="-54.5" font-family="Helvetica,sans-Serif" font-size="10.00">RemoveListener()</text>
<text xml:space="preserve" text-anchor="start" x="4" y="-38.5" font-family="Helvetica,sans-Serif" font-size="10.00">+</text>
<text xml:space="preserve" text-anchor="start" x="14" y="-38.5" font-family="Helvetica,sans-Serif" font-size="10.00">SelectingLevelMap()</text>
<polygon fill="#666666" stroke="#666666" points="0,-210 0,-210 108.75,-210 108.75,-210 0,-210"/>
<polygon fill="#666666" stroke="#666666" points="0,-162 0,-162 12,-162 12,-162 0,-162"/>
<polygon fill="#666666" stroke="#666666" points="12,-162 12,-162 108.75,-162 108.75,-162 12,-162"/>
<polygon fill="none" stroke="#666666" points="0,-32 0,-228 108.75,-228 108.75,-32 0,-32"/>
</a>
</g>
</g>
<!-- Node1&#45;&gt;Node3 -->
<g id="edge2_Node000001_Node000003" class="edge">
<title>Node1&#45;&gt;Node3</title>
<g id="a_edge2_Node000001_Node000003"><a xlink:title=" ">
<path fill="none" stroke="#63b8ff" d="M136.68,-287.2C129.91,-278.47 123.15,-269.13 117.38,-260 110.92,-249.78 104.64,-238.81 98.72,-227.72"/>
<polygon fill="none" stroke="#63b8ff" points="133.81,-289.2 142.76,-294.87 139.29,-284.86 133.81,-289.2"/>
</a>
</g>
</g>
<!-- Node4 -->
<g id="Node000004" class="node">
<title>Node4</title>
<g id="a_Node000004"><a xlink:href="class_scene_management.html" target="_top" xlink:title="Centralized scene loader and background&#45;music router.">
<polygon fill="white" stroke="none" points="218.38,-164 126.38,-164 126.38,-96 218.38,-96 218.38,-164"/>
<text xml:space="preserve" text-anchor="start" x="130.38" y="-150.5" font-family="Helvetica,sans-Serif" font-size="10.00">SceneManagement</text>
<text xml:space="preserve" text-anchor="start" x="170.88" y="-134.5" font-family="Helvetica,sans-Serif" font-size="10.00"> </text>
<text xml:space="preserve" text-anchor="start" x="132" y="-118.5" font-family="Helvetica,sans-Serif" font-size="10.00">+</text>
<text xml:space="preserve" text-anchor="start" x="143.62" y="-118.5" font-family="Helvetica,sans-Serif" font-size="10.00">ChangeScene()</text>
<text xml:space="preserve" text-anchor="start" x="132" y="-102.5" font-family="Helvetica,sans-Serif" font-size="10.00">+</text>
<text xml:space="preserve" text-anchor="start" x="143.62" y="-102.5" font-family="Helvetica,sans-Serif" font-size="10.00">ChangeScene()</text>
<polygon fill="#666666" stroke="#666666" points="126.38,-146 126.38,-146 218.38,-146 218.38,-146 126.38,-146"/>
<polygon fill="#666666" stroke="#666666" points="126.38,-130 126.38,-130 218.38,-130 218.38,-130 126.38,-130"/>
<polygon fill="none" stroke="#666666" points="126.38,-96 126.38,-164 218.38,-164 218.38,-96 126.38,-96"/>
</a>
</g>
</g>
<!-- Node1&#45;&gt;Node4 -->
<g id="edge3_Node000001_Node000004" class="edge">
<title>Node1&#45;&gt;Node4</title>
<g id="a_edge3_Node000001_Node000004"><a xlink:title=" ">
<path fill="none" stroke="#63b8ff" d="M172.38,-284.96C172.38,-248.28 172.38,-196.87 172.38,-163.74"/>
<polygon fill="none" stroke="#63b8ff" points="168.88,-284.79 172.38,-294.79 175.88,-284.79 168.88,-284.79"/>
</a>
</g>
</g>
<!-- Node5 -->
<g id="Node000005" class="node">
<title>Node5</title>
<g id="a_Node000005"><a xlink:href="class_sound_manager.html" target="_top" xlink:title="Centralized audio service for background music and pooled 3D SFX playback, with per&#45;clip continuation...">
<polygon fill="white" stroke="none" points="336.25,-260 236.5,-260 236.5,0 336.25,0 336.25,-260"/>
<text xml:space="preserve" text-anchor="start" x="253.75" y="-246.5" font-family="Helvetica,sans-Serif" font-size="10.00">SoundManager</text>
<text xml:space="preserve" text-anchor="start" x="240.5" y="-230.5" font-family="Helvetica,sans-Serif" font-size="10.00">+</text>
<text xml:space="preserve" text-anchor="start" x="250.5" y="-230.5" font-family="Helvetica,sans-Serif" font-size="10.00">MusicLowPass</text>
<text xml:space="preserve" text-anchor="start" x="240.5" y="-214.5" font-family="Helvetica,sans-Serif" font-size="10.00">+</text>
<text xml:space="preserve" text-anchor="start" x="250.5" y="-214.5" font-family="Helvetica,sans-Serif" font-size="10.00">ContinueSFXClip()</text>
<text xml:space="preserve" text-anchor="start" x="240.5" y="-198.5" font-family="Helvetica,sans-Serif" font-size="10.00">+</text>
<text xml:space="preserve" text-anchor="start" x="250.5" y="-198.5" font-family="Helvetica,sans-Serif" font-size="10.00">ContinueSFXClip()</text>
<text xml:space="preserve" text-anchor="start" x="240.5" y="-182.5" font-family="Helvetica,sans-Serif" font-size="10.00">+</text>
<text xml:space="preserve" text-anchor="start" x="250.5" y="-182.5" font-family="Helvetica,sans-Serif" font-size="10.00">PauseSFXClip()</text>
<text xml:space="preserve" text-anchor="start" x="240.5" y="-166.5" font-family="Helvetica,sans-Serif" font-size="10.00">+</text>
<text xml:space="preserve" text-anchor="start" x="250.5" y="-166.5" font-family="Helvetica,sans-Serif" font-size="10.00">PlayMusic()</text>
<text xml:space="preserve" text-anchor="start" x="240.5" y="-150.5" font-family="Helvetica,sans-Serif" font-size="10.00">+</text>
<text xml:space="preserve" text-anchor="start" x="250.5" y="-150.5" font-family="Helvetica,sans-Serif" font-size="10.00">PlaySFXClip()</text>
<text xml:space="preserve" text-anchor="start" x="240.5" y="-134.5" font-family="Helvetica,sans-Serif" font-size="10.00">+</text>
<text xml:space="preserve" text-anchor="start" x="250.5" y="-134.5" font-family="Helvetica,sans-Serif" font-size="10.00">PlaySFXClip()</text>
<text xml:space="preserve" text-anchor="start" x="240.5" y="-118.5" font-family="Helvetica,sans-Serif" font-size="10.00">+</text>
<text xml:space="preserve" text-anchor="start" x="250.5" y="-118.5" font-family="Helvetica,sans-Serif" font-size="10.00">PlaySFXClip()</text>
<text xml:space="preserve" text-anchor="start" x="240.5" y="-102.5" font-family="Helvetica,sans-Serif" font-size="10.00">+</text>
<text xml:space="preserve" text-anchor="start" x="250.5" y="-102.5" font-family="Helvetica,sans-Serif" font-size="10.00">PlaySFXClip()</text>
<text xml:space="preserve" text-anchor="start" x="240.5" y="-86.5" font-family="Helvetica,sans-Serif" font-size="10.00">+</text>
<text xml:space="preserve" text-anchor="start" x="250.5" y="-86.5" font-family="Helvetica,sans-Serif" font-size="10.00">ResetSFXClip()</text>
<text xml:space="preserve" text-anchor="start" x="240.5" y="-70.5" font-family="Helvetica,sans-Serif" font-size="10.00">+</text>
<text xml:space="preserve" text-anchor="start" x="250.5" y="-70.5" font-family="Helvetica,sans-Serif" font-size="10.00">SetMusicVolume()</text>
<text xml:space="preserve" text-anchor="start" x="240.5" y="-54.5" font-family="Helvetica,sans-Serif" font-size="10.00">+</text>
<text xml:space="preserve" text-anchor="start" x="250.5" y="-54.5" font-family="Helvetica,sans-Serif" font-size="10.00">SetSFXVolume()</text>
<text xml:space="preserve" text-anchor="start" x="240.5" y="-38.5" font-family="Helvetica,sans-Serif" font-size="10.00">+</text>
<text xml:space="preserve" text-anchor="start" x="250.5" y="-38.5" font-family="Helvetica,sans-Serif" font-size="10.00">StopMusic()</text>
<text xml:space="preserve" text-anchor="start" x="240.5" y="-22.5" font-family="Helvetica,sans-Serif" font-size="10.00">+</text>
<text xml:space="preserve" text-anchor="start" x="250.5" y="-22.5" font-family="Helvetica,sans-Serif" font-size="10.00">StopSFXClip()</text>
<text xml:space="preserve" text-anchor="start" x="240.88" y="-6.5" font-family="Helvetica,sans-Serif" font-size="10.00">#</text>
<text xml:space="preserve" text-anchor="start" x="250.5" y="-6.5" font-family="Helvetica,sans-Serif" font-size="10.00">Awake()</text>
<polygon fill="#666666" stroke="#666666" points="236.5,-242 236.5,-242 336.25,-242 336.25,-242 236.5,-242"/>
<polygon fill="#666666" stroke="#666666" points="236.5,-226 236.5,-226 248.5,-226 248.5,-226 236.5,-226"/>
<polygon fill="#666666" stroke="#666666" points="248.5,-226 248.5,-226 336.25,-226 336.25,-226 248.5,-226"/>
<polygon fill="none" stroke="#666666" points="236.5,0 236.5,-260 336.25,-260 336.25,0 236.5,0"/>
</a>
</g>
</g>
<!-- Node1&#45;&gt;Node5 -->
<g id="edge4_Node000001_Node000005" class="edge">
<title>Node1&#45;&gt;Node5</title>
<g id="a_edge4_Node000001_Node000005"><a xlink:title=" ">
<path fill="none" stroke="#63b8ff" d="M208.25,-287.31C215.01,-278.57 221.72,-269.2 227.38,-260 230.53,-254.86 233.63,-249.52 236.64,-244.07"/>
<polygon fill="none" stroke="#63b8ff" points="205.64,-284.97 202.17,-294.98 211.13,-289.32 205.64,-284.97"/>
</a>
</g>
</g>
<!-- Node2 -->
<g id="Node000002" class="node">
<title>Node2</title>
<g id="a_Node000002"><a xlink:title=" ">
<polygon fill="white" stroke="none" points="210.12,-452 134.62,-452 134.62,-400 210.12,-400 210.12,-452"/>
<text xml:space="preserve" text-anchor="start" x="138.62" y="-438.5" font-family="Helvetica,sans-Serif" font-size="10.00">MonoBehaviour</text>
<text xml:space="preserve" text-anchor="start" x="170.88" y="-422.5" font-family="Helvetica,sans-Serif" font-size="10.00"> </text>
<text xml:space="preserve" text-anchor="start" x="170.88" y="-406.5" font-family="Helvetica,sans-Serif" font-size="10.00"> </text>
<polygon fill="#666666" stroke="#666666" points="134.62,-434 134.62,-434 210.12,-434 210.12,-434 134.62,-434"/>
<polygon fill="#666666" stroke="#666666" points="134.62,-418 134.62,-418 210.12,-418 210.12,-418 134.62,-418"/>
<polygon fill="none" stroke="#666666" points="134.62,-400 134.62,-452 210.12,-452 210.12,-400 134.62,-400"/>
</a>
</g>
</g>
<!-- Node2&#45;&gt;Node1 -->
<g id="edge1_Node000001_Node000002" class="edge">
<title>Node2&#45;&gt;Node1</title>
<g id="a_edge1_Node000001_Node000002"><a xlink:title=" ">
<path fill="none" stroke="#63b8ff" d="M172.38,-388.97C172.38,-380.65 172.38,-371.84 172.38,-363.67"/>
<polygon fill="none" stroke="#63b8ff" points="168.88,-388.79 172.38,-398.79 175.88,-388.79 168.88,-388.79"/>
</a>
</g>
</g>
</g>
</svg>
