<?xml version="1.0" encoding="UTF-8" standalone="no"?>
<!DOCTYPE svg PUBLIC "-//W3C//DTD SVG 1.1//EN"
 "http://www.w3.org/Graphics/SVG/1.1/DTD/svg11.dtd">
<!-- Generated by graphviz version 14.0.0 (20250921.2048)
 -->
<!-- Title: sc.terrain.proceduralpainter.TerrainPainter.RepaintTerrain Pages: 1 -->
<svg width="532pt" height="90pt"
 viewBox="0.00 0.00 532.00 90.00" xmlns="http://www.w3.org/2000/svg" xmlns:xlink="http://www.w3.org/1999/xlink">
<g id="graph0" class="graph" transform="scale(1 1) rotate(0) translate(4 86)">
<title>sc.terrain.proceduralpainter.TerrainPainter.RepaintTerrain</title>
<!-- Node1 -->
<g id="Node000001" class="node">
<title>Node1</title>
<g id="a_Node000001"><a xlink:title="Repaints an individual terrain.">
<polygon fill="#999999" stroke="#666666" points="142,-57 0,-57 0,-25 142,-25 142,-57"/>
<text xml:space="preserve" text-anchor="start" x="8" y="-43.5" font-family="Helvetica,sans-Serif" font-size="10.00">sc.terrain.proceduralpainter.</text>
<text xml:space="preserve" text-anchor="middle" x="71" y="-31.5" font-family="Helvetica,sans-Serif" font-size="10.00">TerrainPainter.RepaintTerrain</text>
</a>
</g>
</g>
<!-- Node2 -->
<g id="Node000002" class="node">
<title>Node2</title>
<g id="a_Node000002"><a xlink:href="classsc_1_1terrain_1_1proceduralpainter_1_1_modifier_stack.html#ac682ec7c9f61cfb59daf0d78db6d602d" target="_top" xlink:title="Call this once, per terrain.">
<polygon fill="white" stroke="#666666" points="318.5,-82 181.75,-82 181.75,-50 318.5,-50 318.5,-82"/>
<text xml:space="preserve" text-anchor="start" x="189.75" y="-68.5" font-family="Helvetica,sans-Serif" font-size="10.00">sc.terrain.proceduralpainter.</text>
<text xml:space="preserve" text-anchor="middle" x="250.12" y="-56.5" font-family="Helvetica,sans-Serif" font-size="10.00">ModifierStack.Configure</text>
</a>
</g>
</g>
<!-- Node1&#45;&gt;Node2 -->
<g id="edge1_Node000001_Node000002" class="edge">
<title>Node1&#45;&gt;Node2</title>
<g id="a_edge1_Node000001_Node000002"><a xlink:title=" ">
<path fill="none" stroke="#63b8ff" d="M142.26,-50.92C151.39,-52.21 160.8,-53.53 170.06,-54.84"/>
<polygon fill="#63b8ff" stroke="#63b8ff" points="169.37,-58.28 179.76,-56.21 170.35,-51.35 169.37,-58.28"/>
</a>
</g>
</g>
<!-- Node3 -->
<g id="Node000003" class="node">
<title>Node3</title>
<g id="a_Node000003"><a xlink:href="classsc_1_1terrain_1_1proceduralpainter_1_1_modifier_stack.html#a9219c80aa529c2364e5f66a72070935e" target="_top" xlink:title=" ">
<polygon fill="white" stroke="#666666" points="322.25,-32 178,-32 178,0 322.25,0 322.25,-32"/>
<text xml:space="preserve" text-anchor="start" x="186" y="-18.5" font-family="Helvetica,sans-Serif" font-size="10.00">sc.terrain.proceduralpainter.</text>
<text xml:space="preserve" text-anchor="middle" x="250.12" y="-6.5" font-family="Helvetica,sans-Serif" font-size="10.00">ModifierStack.ProcessLayers</text>
</a>
</g>
</g>
<!-- Node1&#45;&gt;Node3 -->
<g id="edge2_Node000001_Node000003" class="edge">
<title>Node1&#45;&gt;Node3</title>
<g id="a_edge2_Node000001_Node000003"><a xlink:title=" ">
<path fill="none" stroke="#63b8ff" d="M142.26,-31.08C150.14,-29.97 158.22,-28.83 166.23,-27.7"/>
<polygon fill="#63b8ff" stroke="#63b8ff" points="166.59,-31.18 176,-26.32 165.61,-24.25 166.59,-31.18"/>
</a>
</g>
</g>
<!-- Node4 -->
<g id="Node000004" class="node">
<title>Node4</title>
<g id="a_Node000004"><a xlink:href="classsc_1_1terrain_1_1proceduralpainter_1_1_modifier_stack.html#ab62d30da832c322681ac82e61044ebad" target="_top" xlink:title="Executes the modifiers in order and generates the necessary splatmaps.">
<polygon fill="white" stroke="#666666" points="524.25,-32 358.25,-32 358.25,0 524.25,0 524.25,-32"/>
<text xml:space="preserve" text-anchor="start" x="366.25" y="-18.5" font-family="Helvetica,sans-Serif" font-size="10.00">sc.terrain.proceduralpainter.</text>
<text xml:space="preserve" text-anchor="middle" x="441.25" y="-6.5" font-family="Helvetica,sans-Serif" font-size="10.00">ModifierStack.ProcessSingleLayer</text>
</a>
</g>
</g>
<!-- Node3&#45;&gt;Node4 -->
<g id="edge3_Node000003_Node000004" class="edge">
<title>Node3&#45;&gt;Node4</title>
<g id="a_edge3_Node000003_Node000004"><a xlink:title=" ">
<path fill="none" stroke="#63b8ff" d="M322.63,-16C330.45,-16 338.49,-16 346.53,-16"/>
<polygon fill="#63b8ff" stroke="#63b8ff" points="346.35,-19.5 356.35,-16 346.35,-12.5 346.35,-19.5"/>
</a>
</g>
</g>
</g>
</svg>
