<?xml version="1.0" encoding="UTF-8" standalone="no"?>
<!DOCTYPE svg PUBLIC "-//W3C//DTD SVG 1.1//EN"
 "http://www.w3.org/Graphics/SVG/1.1/DTD/svg11.dtd">
<!-- Generated by graphviz version 15.1.0 (20260618.0150)
 -->
<!-- Title: CheckPointListener Pages: 1 -->
<svg width="157pt" height="244pt"
 viewBox="0.00 0.00 157.00 244.00" xmlns="http://www.w3.org/2000/svg" xmlns:xlink="http://www.w3.org/1999/xlink">
<g id="graph0" class="graph" transform="scale(1 1) rotate(0) translate(4 240)">
<title>CheckPointListener</title>
<!-- Node1 -->
<g id="Node000001" class="node">
<title>Node1</title>
<g id="a_Node000001"><a xlink:title="Trigger&#45;based checkpoint sensor that records the player&#39;s pose and velocities when entered.">
<polygon fill="#999999" stroke="none" points="148.5,-148 0,-148 0,0 148.5,0 148.5,-148"/>
<text xml:space="preserve" text-anchor="start" x="31.5" y="-134.25" font-family="Helvetica,sans-Serif" font-size="10.00">CheckPointListener</text>
<text xml:space="preserve" text-anchor="start" x="4" y="-118.25" font-family="Helvetica,sans-Serif" font-size="10.00">+</text>
<text xml:space="preserve" text-anchor="start" x="14" y="-118.25" font-family="Helvetica,sans-Serif" font-size="10.00">CheckpointOrder</text>
<text xml:space="preserve" text-anchor="start" x="4" y="-102.25" font-family="Helvetica,sans-Serif" font-size="10.00">+</text>
<text xml:space="preserve" text-anchor="start" x="14" y="-102.25" font-family="Helvetica,sans-Serif" font-size="10.00">CPClaimedPosition</text>
<text xml:space="preserve" text-anchor="start" x="4" y="-86.25" font-family="Helvetica,sans-Serif" font-size="10.00">+</text>
<text xml:space="preserve" text-anchor="start" x="14" y="-86.25" font-family="Helvetica,sans-Serif" font-size="10.00">CPClaimedRbAngularVelocity</text>
<text xml:space="preserve" text-anchor="start" x="4" y="-70.25" font-family="Helvetica,sans-Serif" font-size="10.00">+</text>
<text xml:space="preserve" text-anchor="start" x="14" y="-70.25" font-family="Helvetica,sans-Serif" font-size="10.00">CPClaimedRbLinearVelocity</text>
<text xml:space="preserve" text-anchor="start" x="4" y="-54.25" font-family="Helvetica,sans-Serif" font-size="10.00">+</text>
<text xml:space="preserve" text-anchor="start" x="14" y="-54.25" font-family="Helvetica,sans-Serif" font-size="10.00">CPClaimedRotation</text>
<text xml:space="preserve" text-anchor="start" x="4" y="-38.25" font-family="Helvetica,sans-Serif" font-size="10.00">+</text>
<text xml:space="preserve" text-anchor="start" x="14" y="-38.25" font-family="Helvetica,sans-Serif" font-size="10.00">AddListener()</text>
<text xml:space="preserve" text-anchor="start" x="4" y="-22.25" font-family="Helvetica,sans-Serif" font-size="10.00">+</text>
<text xml:space="preserve" text-anchor="start" x="14" y="-22.25" font-family="Helvetica,sans-Serif" font-size="10.00">RemoveListener()</text>
<text xml:space="preserve" text-anchor="start" x="4" y="-6.25" font-family="Helvetica,sans-Serif" font-size="10.00">+</text>
<text xml:space="preserve" text-anchor="start" x="14" y="-6.25" font-family="Helvetica,sans-Serif" font-size="10.00">SetActive()</text>
<polygon fill="#666666" stroke="#666666" points="0,-130 0,-130 148.5,-130 148.5,-130 0,-130"/>
<polygon fill="#666666" stroke="#666666" points="0,-50 0,-50 12,-50 12,-50 0,-50"/>
<polygon fill="#666666" stroke="#666666" points="12,-50 12,-50 148.5,-50 148.5,-50 12,-50"/>
<polygon fill="none" stroke="#666666" points="0,0 0,-148 148.5,-148 148.5,0 0,0"/>
</a>
</g>
</g>
<!-- Node2 -->
<g id="Node000002" class="node">
<title>Node2</title>
<g id="a_Node000002"><a xlink:title=" ">
<polygon fill="white" stroke="none" points="112,-236 36.5,-236 36.5,-184 112,-184 112,-236"/>
<text xml:space="preserve" text-anchor="start" x="40.5" y="-222.25" font-family="Helvetica,sans-Serif" font-size="10.00">MonoBehaviour</text>
<text xml:space="preserve" text-anchor="start" x="72.75" y="-206.25" font-family="Helvetica,sans-Serif" font-size="10.00"> </text>
<text xml:space="preserve" text-anchor="start" x="72.75" y="-190.25" font-family="Helvetica,sans-Serif" font-size="10.00"> </text>
<polygon fill="#666666" stroke="#666666" points="36.5,-218 36.5,-218 112,-218 112,-218 36.5,-218"/>
<polygon fill="#666666" stroke="#666666" points="36.5,-202 36.5,-202 112,-202 112,-202 36.5,-202"/>
<polygon fill="none" stroke="#666666" points="36.5,-184 36.5,-236 112,-236 112,-184 36.5,-184"/>
</a>
</g>
</g>
<!-- Node2&#45;&gt;Node1 -->
<g id="edge1_Node000001_Node000002" class="edge">
<title>Node2&#45;&gt;Node1</title>
<g id="a_edge1_Node000001_Node000002"><a xlink:title=" ">
<path fill="none" stroke="#63b8ff" d="M74.25,-172.61C74.25,-164.87 74.25,-156.44 74.25,-147.88"/>
<polygon fill="none" stroke="#63b8ff" points="70.75,-172.6 74.25,-182.6 77.75,-172.6 70.75,-172.6"/>
</a>
</g>
</g>
</g>
</svg>
