<?xml version="1.0" encoding="UTF-8" standalone="no"?>
<!DOCTYPE svg PUBLIC "-//W3C//DTD SVG 1.1//EN"
 "http://www.w3.org/Graphics/SVG/1.1/DTD/svg11.dtd">
<!-- Generated by graphviz version 15.1.0 (20260618.0150)
 -->
<!-- Title: LevelEntry Pages: 1 -->
<svg width="254pt" height="696pt"
 viewBox="0.00 0.00 254.00 696.00" xmlns="http://www.w3.org/2000/svg" xmlns:xlink="http://www.w3.org/1999/xlink">
<g id="graph0" class="graph" transform="scale(1 1) rotate(0) translate(4 692)">
<title>LevelEntry</title>
<!-- Node1 -->
<g id="Node000001" class="node">
<title>Node1</title>
<g id="a_Node000001"><a xlink:title="UI entry representing a single saved level row.">
<polygon fill="#999999" stroke="none" points="120,-116 0,-116 0,0 120,0 120,-116"/>
<text xml:space="preserve" text-anchor="start" x="36.75" y="-102.25" font-family="Helvetica,sans-Serif" font-size="10.00">LevelEntry</text>
<text xml:space="preserve" text-anchor="start" x="58.5" y="-86.25" font-family="Helvetica,sans-Serif" font-size="10.00"> </text>
<text xml:space="preserve" text-anchor="start" x="4" y="-70.25" font-family="Helvetica,sans-Serif" font-size="10.00">+</text>
<text xml:space="preserve" text-anchor="start" x="14" y="-70.25" font-family="Helvetica,sans-Serif" font-size="10.00">ExportLevelButton()</text>
<text xml:space="preserve" text-anchor="start" x="4" y="-54.25" font-family="Helvetica,sans-Serif" font-size="10.00">+</text>
<text xml:space="preserve" text-anchor="start" x="14" y="-54.25" font-family="Helvetica,sans-Serif" font-size="10.00">LevelSelected()</text>
<text xml:space="preserve" text-anchor="start" x="4" y="-38.25" font-family="Helvetica,sans-Serif" font-size="10.00">+</text>
<text xml:space="preserve" text-anchor="start" x="14" y="-38.25" font-family="Helvetica,sans-Serif" font-size="10.00">OnLevelNameChange()</text>
<text xml:space="preserve" text-anchor="start" x="4" y="-22.25" font-family="Helvetica,sans-Serif" font-size="10.00">+</text>
<text xml:space="preserve" text-anchor="start" x="14" y="-22.25" font-family="Helvetica,sans-Serif" font-size="10.00">RemoveLevel()</text>
<text xml:space="preserve" text-anchor="start" x="4" y="-6.25" font-family="Helvetica,sans-Serif" font-size="10.00">+</text>
<text xml:space="preserve" text-anchor="start" x="14" y="-6.25" font-family="Helvetica,sans-Serif" font-size="10.00">SetUp()</text>
<polygon fill="#666666" stroke="#666666" points="0,-98 0,-98 120,-98 120,-98 0,-98"/>
<polygon fill="#666666" stroke="#666666" points="0,-82 0,-82 120,-82 120,-82 0,-82"/>
<polygon fill="none" stroke="#666666" points="0,0 0,-116 120,-116 120,0 0,0"/>
</a>
</g>
</g>
<!-- Node2 -->
<g id="Node000002" class="node">
<title>Node2</title>
<g id="a_Node000002"><a xlink:title=" ">
<polygon fill="white" stroke="none" points="93.75,-688 18.25,-688 18.25,-636 93.75,-636 93.75,-688"/>
<text xml:space="preserve" text-anchor="start" x="22.25" y="-674.25" font-family="Helvetica,sans-Serif" font-size="10.00">MonoBehaviour</text>
<text xml:space="preserve" text-anchor="start" x="54.5" y="-658.25" font-family="Helvetica,sans-Serif" font-size="10.00"> </text>
<text xml:space="preserve" text-anchor="start" x="54.5" y="-642.25" font-family="Helvetica,sans-Serif" font-size="10.00"> </text>
<polygon fill="#666666" stroke="#666666" points="18.25,-670 18.25,-670 93.75,-670 93.75,-670 18.25,-670"/>
<polygon fill="#666666" stroke="#666666" points="18.25,-654 18.25,-654 93.75,-654 93.75,-654 18.25,-654"/>
<polygon fill="none" stroke="#666666" points="18.25,-636 18.25,-688 93.75,-688 93.75,-636 18.25,-636"/>
</a>
</g>
</g>
<!-- Node2&#45;&gt;Node1 -->
<g id="edge1_Node000001_Node000002" class="edge">
<title>Node2&#45;&gt;Node1</title>
<g id="a_edge1_Node000001_Node000002"><a xlink:title=" ">
<path fill="none" stroke="#63b8ff" d="M56.24,-624.9C56.91,-523.93 58.81,-237.97 59.62,-115.65"/>
<polygon fill="none" stroke="#63b8ff" points="52.74,-624.74 56.17,-634.77 59.74,-624.79 52.74,-624.74"/>
</a>
</g>
</g>
<!-- Node4 -->
<g id="Node000004" class="node">
<title>Node4</title>
<g id="a_Node000004"><a xlink:href="class_generic_1_1_singleton-1-g.html" target="_top" xlink:title="Minimal persistent singleton base for Unity components.">
<polygon fill="white" stroke="none" points="196.25,-599 87.75,-599 87.75,-483 196.25,-483 196.25,-599"/>
<text xml:space="preserve" text-anchor="start" x="91.75" y="-585.25" font-family="Helvetica,sans-Serif" font-size="10.00">Generic.Singleton&lt; T &gt;</text>
<text xml:space="preserve" text-anchor="start" x="101.06" y="-569.25" font-family="Helvetica,sans-Serif" font-size="10.00">+</text>
<text xml:space="preserve" text-anchor="start" x="120.38" y="-569.25" font-family="Helvetica,sans-Serif" font-size="10.00">Instance</text>
<text xml:space="preserve" text-anchor="start" x="101.44" y="-553.25" font-family="Helvetica,sans-Serif" font-size="10.00">#</text>
<text xml:space="preserve" text-anchor="start" x="120.38" y="-553.25" font-family="Helvetica,sans-Serif" font-size="10.00">_instance</text>
<text xml:space="preserve" text-anchor="start" x="101.44" y="-537.25" font-family="Helvetica,sans-Serif" font-size="10.00">#</text>
<text xml:space="preserve" text-anchor="start" x="120.38" y="-537.25" font-family="Helvetica,sans-Serif" font-size="10.00">Awake()</text>
<text xml:space="preserve" text-anchor="start" x="101.44" y="-521.25" font-family="Helvetica,sans-Serif" font-size="10.00">#</text>
<text xml:space="preserve" text-anchor="start" x="120.38" y="-521.25" font-family="Helvetica,sans-Serif" font-size="10.00">Coalesce()</text>
<text xml:space="preserve" text-anchor="start" x="101.44" y="-505.25" font-family="Helvetica,sans-Serif" font-size="10.00">#</text>
<text xml:space="preserve" text-anchor="start" x="120.38" y="-505.25" font-family="Helvetica,sans-Serif" font-size="10.00">OnDestroy()</text>
<text xml:space="preserve" text-anchor="start" x="101.44" y="-489.25" font-family="Helvetica,sans-Serif" font-size="10.00">#</text>
<text xml:space="preserve" text-anchor="start" x="120.38" y="-489.25" font-family="Helvetica,sans-Serif" font-size="10.00">Persist()</text>
<polygon fill="#666666" stroke="#666666" points="87.75,-581 87.75,-581 196.25,-581 196.25,-581 87.75,-581"/>
<polygon fill="#666666" stroke="#666666" points="87.75,-549 87.75,-549 118.38,-549 118.38,-549 87.75,-549"/>
<polygon fill="#666666" stroke="#666666" points="118.38,-549 118.38,-549 196.25,-549 196.25,-549 118.38,-549"/>
<polygon fill="none" stroke="#666666" points="87.75,-483 87.75,-599 196.25,-599 196.25,-483 87.75,-483"/>
</a>
</g>
</g>
<!-- Node2&#45;&gt;Node4 -->
<g id="edge4_Node000004_Node000002" class="edge">
<title>Node2&#45;&gt;Node4</title>
<g id="a_edge4_Node000004_Node000002"><a xlink:title=" ">
<path fill="none" stroke="#63b8ff" d="M80.64,-626.91C87,-618.11 94.02,-608.4 100.97,-598.78"/>
<polygon fill="none" stroke="#63b8ff" points="77.94,-624.67 74.91,-634.83 83.61,-628.77 77.94,-624.67"/>
</a>
</g>
</g>
<!-- Node3 -->
<g id="Node000003" class="node">
<title>Node3</title>
<g id="a_Node000003"><a xlink:href="class_game_data_manager.html" target="_top" xlink:title="Runtime manager for persistent game progression data.">
<polygon fill="white" stroke="none" points="246,-446 72,-446 72,-170 246,-170 246,-446"/>
<text xml:space="preserve" text-anchor="start" x="116.62" y="-432.25" font-family="Helvetica,sans-Serif" font-size="10.00">GameDataManager</text>
<text xml:space="preserve" text-anchor="start" x="76" y="-416.25" font-family="Helvetica,sans-Serif" font-size="10.00">+</text>
<text xml:space="preserve" text-anchor="start" x="86" y="-416.25" font-family="Helvetica,sans-Serif" font-size="10.00">CurrentGameData</text>
<text xml:space="preserve" text-anchor="start" x="76" y="-400.25" font-family="Helvetica,sans-Serif" font-size="10.00">+</text>
<text xml:space="preserve" text-anchor="start" x="86" y="-400.25" font-family="Helvetica,sans-Serif" font-size="10.00">CurrentLevelMap</text>
<text xml:space="preserve" text-anchor="start" x="76" y="-384.25" font-family="Helvetica,sans-Serif" font-size="10.00">+</text>
<text xml:space="preserve" text-anchor="start" x="86" y="-384.25" font-family="Helvetica,sans-Serif" font-size="10.00">CurrentLevelReplay</text>
<text xml:space="preserve" text-anchor="start" x="76" y="-368.25" font-family="Helvetica,sans-Serif" font-size="10.00">+</text>
<text xml:space="preserve" text-anchor="start" x="86" y="-368.25" font-family="Helvetica,sans-Serif" font-size="10.00">Hash</text>
<text xml:space="preserve" text-anchor="start" x="76" y="-352.25" font-family="Helvetica,sans-Serif" font-size="10.00">+</text>
<text xml:space="preserve" text-anchor="start" x="86" y="-352.25" font-family="Helvetica,sans-Serif" font-size="10.00">AddLevel()</text>
<text xml:space="preserve" text-anchor="start" x="76" y="-336.25" font-family="Helvetica,sans-Serif" font-size="10.00">+</text>
<text xml:space="preserve" text-anchor="start" x="86" y="-336.25" font-family="Helvetica,sans-Serif" font-size="10.00">AddListener()</text>
<text xml:space="preserve" text-anchor="start" x="76" y="-320.25" font-family="Helvetica,sans-Serif" font-size="10.00">+</text>
<text xml:space="preserve" text-anchor="start" x="86" y="-320.25" font-family="Helvetica,sans-Serif" font-size="10.00">ClearLevels()</text>
<text xml:space="preserve" text-anchor="start" x="76" y="-304.25" font-family="Helvetica,sans-Serif" font-size="10.00">+</text>
<text xml:space="preserve" text-anchor="start" x="86" y="-304.25" font-family="Helvetica,sans-Serif" font-size="10.00">CompleteLevel()</text>
<text xml:space="preserve" text-anchor="start" x="76" y="-288.25" font-family="Helvetica,sans-Serif" font-size="10.00">+</text>
<text xml:space="preserve" text-anchor="start" x="86" y="-288.25" font-family="Helvetica,sans-Serif" font-size="10.00">CopySavedGameDataToClipboard()</text>
<text xml:space="preserve" text-anchor="start" x="76" y="-272.25" font-family="Helvetica,sans-Serif" font-size="10.00">+</text>
<text xml:space="preserve" text-anchor="start" x="86" y="-272.25" font-family="Helvetica,sans-Serif" font-size="10.00">CreateEditableCopy()</text>
<text xml:space="preserve" text-anchor="start" x="76" y="-256.25" font-family="Helvetica,sans-Serif" font-size="10.00">+</text>
<text xml:space="preserve" text-anchor="start" x="86" y="-256.25" font-family="Helvetica,sans-Serif" font-size="10.00">DeleteSavedGameData()</text>
<text xml:space="preserve" text-anchor="start" x="76" y="-240.25" font-family="Helvetica,sans-Serif" font-size="10.00">+</text>
<text xml:space="preserve" text-anchor="start" x="86" y="-240.25" font-family="Helvetica,sans-Serif" font-size="10.00">GetABS()</text>
<text xml:space="preserve" text-anchor="start" x="76" y="-224.25" font-family="Helvetica,sans-Serif" font-size="10.00">+</text>
<text xml:space="preserve" text-anchor="start" x="86" y="-224.25" font-family="Helvetica,sans-Serif" font-size="10.00">GetCurrentMapReplay()</text>
<text xml:space="preserve" text-anchor="start" x="76" y="-208.25" font-family="Helvetica,sans-Serif" font-size="10.00">+</text>
<text xml:space="preserve" text-anchor="start" x="86" y="-208.25" font-family="Helvetica,sans-Serif" font-size="10.00">GetCurrentMapSplit()</text>
<text xml:space="preserve" text-anchor="start" x="86" y="-192.25" font-family="Helvetica,sans-Serif" font-size="10.00">and 10 more...</text>
<text xml:space="preserve" text-anchor="start" x="76.38" y="-176.25" font-family="Helvetica,sans-Serif" font-size="10.00">#</text>
<text xml:space="preserve" text-anchor="start" x="86" y="-176.25" font-family="Helvetica,sans-Serif" font-size="10.00">Awake()</text>
<polygon fill="#666666" stroke="#666666" points="72,-428 72,-428 246,-428 246,-428 72,-428"/>
<polygon fill="#666666" stroke="#666666" points="72,-364 72,-364 84,-364 84,-364 72,-364"/>
<polygon fill="#666666" stroke="#666666" points="84,-364 84,-364 246,-364 246,-364 84,-364"/>
<polygon fill="none" stroke="#666666" points="72,-170 72,-446 246,-446 246,-170 72,-170"/>
</a>
</g>
</g>
<!-- Node3&#45;&gt;Node1 -->
<g id="edge2_Node000001_Node000003" class="edge">
<title>Node3&#45;&gt;Node1</title>
<g id="a_edge2_Node000001_Node000003"><a xlink:title=" ">
<path fill="none" stroke="#63b8ff" d="M104.43,-170.3C98.56,-155.6 92.79,-141.14 87.45,-127.76"/>
<polygon fill="none" stroke="#63b8ff" points="87.46,-127.78 81.52,-123.69 83.01,-116.64 88.95,-120.73 87.46,-127.78"/>
</a>
</g>
<text xml:space="preserve" text-anchor="start" x="97.85" y="-139.25" font-family="Helvetica,sans-Serif" font-size="10.00" fill="grey">+levelData</text>
</g>
<!-- Node4&#45;&gt;Node3 -->
<g id="edge3_Node000003_Node000004" class="edge">
<title>Node4&#45;&gt;Node3</title>
<g id="a_edge3_Node000003_Node000004"><a xlink:title=" ">
<path fill="none" stroke="#63b8ff" d="M147.03,-471.72C147.64,-463.4 148.28,-454.68 148.93,-445.79"/>
<polygon fill="none" stroke="#63b8ff" points="143.54,-471.46 146.29,-481.69 150.52,-471.97 143.54,-471.46"/>
</a>
</g>
</g>
</g>
</svg>
