<?xml version="1.0" encoding="UTF-8" standalone="no"?>
<!DOCTYPE svg PUBLIC "-//W3C//DTD SVG 1.1//EN"
 "http://www.w3.org/Graphics/SVG/1.1/DTD/svg11.dtd">
<!-- Generated by graphviz version 14.0.0 (20250921.2048)
 -->
<!-- Title: Graphical Class Hierarchy Pages: 1 -->
<svg width="217pt" height="218pt"
 viewBox="0.00 0.00 217.00 218.00" xmlns="http://www.w3.org/2000/svg" xmlns:xlink="http://www.w3.org/1999/xlink">
<g id="graph0" class="graph" transform="scale(1 1) rotate(0) translate(4 214)">
<title>Graphical Class Hierarchy</title>
<!-- Node0 -->
<g id="Node000000" class="node">
<title>Node0</title>
<g id="a_Node000000"><a xlink:href="class_button_type.html" target="_top" xlink:title="Abstract strategy for a button action.">
<polygon fill="white" stroke="#666666" points="65.5,-115 0,-115 0,-95 65.5,-95 65.5,-115"/>
<text xml:space="preserve" text-anchor="middle" x="32.75" y="-101.5" font-family="Helvetica,sans-Serif" font-size="10.00">ButtonType</text>
</a>
</g>
</g>
<!-- Node1 -->
<g id="Node000001" class="node">
<title>Node1</title>
<g id="a_Node000001"><a xlink:href="class_change_scene_button.html" target="_top" xlink:title="Strategy: change to a specific scene via SceneManagement.">
<polygon fill="white" stroke="#666666" points="208.25,-210 102.25,-210 102.25,-190 208.25,-190 208.25,-210"/>
<text xml:space="preserve" text-anchor="middle" x="155.25" y="-196.5" font-family="Helvetica,sans-Serif" font-size="10.00">ChangeSceneButton</text>
</a>
</g>
</g>
<!-- Node0&#45;&gt;Node1 -->
<g id="edge1_Node000000_Node000001" class="edge">
<title>Node0&#45;&gt;Node1</title>
<g id="a_edge1_Node000000_Node000001"><a xlink:title=" ">
<path fill="none" stroke="#63b8ff" d="M46.75,-124.39C59.06,-141.41 78.97,-165.78 101.5,-181 106.42,-184.32 111.99,-187.14 117.62,-189.51"/>
<polygon fill="#63b8ff" stroke="#63b8ff" points="49.88,-122.76 41.29,-116.57 44.15,-126.77 49.88,-122.76"/>
</a>
</g>
</g>
<!-- Node2 -->
<g id="Node000002" class="node">
<title>Node2</title>
<g id="a_Node000002"><a xlink:href="class_clear_levels_button.html" target="_top" xlink:title="Strategy: clear all levels from GameDataManager.">
<polygon fill="white" stroke="#666666" points="203.38,-172 107.12,-172 107.12,-152 203.38,-152 203.38,-172"/>
<text xml:space="preserve" text-anchor="middle" x="155.25" y="-158.5" font-family="Helvetica,sans-Serif" font-size="10.00">ClearLevelsButton</text>
</a>
</g>
</g>
<!-- Node0&#45;&gt;Node2 -->
<g id="edge2_Node000000_Node000002" class="edge">
<title>Node0&#45;&gt;Node2</title>
<g id="a_edge2_Node000000_Node000002"><a xlink:title=" ">
<path fill="none" stroke="#63b8ff" d="M60.23,-121.2C72.53,-128.37 87.51,-136.61 101.5,-143 108.23,-146.07 115.61,-149 122.67,-151.59"/>
<polygon fill="#63b8ff" stroke="#63b8ff" points="62.29,-118.35 51.91,-116.26 58.72,-124.37 62.29,-118.35"/>
</a>
</g>
</g>
<!-- Node3 -->
<g id="Node000003" class="node">
<title>Node3</title>
<g id="a_Node000003"><a xlink:href="class_generate_level_button.html" target="_top" xlink:title="Strategy: procedurally generate a level (optionally circuit), add checkpoints, and display it in a po...">
<polygon fill="white" stroke="#666666" points="209,-134 101.5,-134 101.5,-114 209,-114 209,-134"/>
<text xml:space="preserve" text-anchor="middle" x="155.25" y="-120.5" font-family="Helvetica,sans-Serif" font-size="10.00">GenerateLevelButton</text>
</a>
</g>
</g>
<!-- Node0&#45;&gt;Node3 -->
<g id="edge3_Node000000_Node000003" class="edge">
<title>Node0&#45;&gt;Node3</title>
<g id="a_edge3_Node000000_Node000003"><a xlink:title=" ">
<path fill="none" stroke="#63b8ff" d="M76.88,-111.8C84.74,-113.04 93.03,-114.35 101.15,-115.63"/>
<polygon fill="#63b8ff" stroke="#63b8ff" points="77.64,-108.38 67.22,-110.28 76.55,-115.29 77.64,-108.38"/>
</a>
</g>
</g>
<!-- Node4 -->
<g id="Node000004" class="node">
<title>Node4</title>
<g id="a_Node000004"><a xlink:href="class_go_to_selected_level.html" target="_top" xlink:title="Strategy: request a scene change to the gameplay level currently selected in GameDataManager.">
<polygon fill="white" stroke="#666666" points="205.62,-96 104.88,-96 104.88,-76 205.62,-76 205.62,-96"/>
<text xml:space="preserve" text-anchor="middle" x="155.25" y="-82.5" font-family="Helvetica,sans-Serif" font-size="10.00">GoToSelectedLevel</text>
</a>
</g>
</g>
<!-- Node0&#45;&gt;Node4 -->
<g id="edge4_Node000000_Node000004" class="edge">
<title>Node0&#45;&gt;Node4</title>
<g id="a_edge4_Node000000_Node000004"><a xlink:title=" ">
<path fill="none" stroke="#63b8ff" d="M77.01,-98.18C85.89,-96.78 95.3,-95.29 104.39,-93.86"/>
<polygon fill="#63b8ff" stroke="#63b8ff" points="76.55,-94.71 67.22,-99.72 77.64,-101.62 76.55,-94.71"/>
</a>
</g>
</g>
<!-- Node5 -->
<g id="Node000005" class="node">
<title>Node5</title>
<g id="a_Node000005"><a xlink:href="class_remove_level_button.html" target="_top" xlink:title="Strategy: remove a level from GameDataManager.">
<polygon fill="white" stroke="#666666" points="207.5,-58 103,-58 103,-38 207.5,-38 207.5,-58"/>
<text xml:space="preserve" text-anchor="middle" x="155.25" y="-44.5" font-family="Helvetica,sans-Serif" font-size="10.00">RemoveLevelButton</text>
</a>
</g>
</g>
<!-- Node0&#45;&gt;Node5 -->
<g id="edge5_Node000000_Node000005" class="edge">
<title>Node0&#45;&gt;Node5</title>
<g id="a_edge5_Node000000_Node000005"><a xlink:title=" ">
<path fill="none" stroke="#63b8ff" d="M60.23,-88.8C72.53,-81.63 87.51,-73.39 101.5,-67 108.23,-63.93 115.61,-61 122.67,-58.41"/>
<polygon fill="#63b8ff" stroke="#63b8ff" points="58.72,-85.63 51.91,-93.74 62.29,-91.65 58.72,-85.63"/>
</a>
</g>
</g>
<!-- Node6 -->
<g id="Node000006" class="node">
<title>Node6</title>
<g id="a_Node000006"><a xlink:href="class_select_level_button.html" target="_top" xlink:title="Strategy: set the currently selected LevelMap in GameDataManager.">
<polygon fill="white" stroke="#666666" points="203,-20 107.5,-20 107.5,0 203,0 203,-20"/>
<text xml:space="preserve" text-anchor="middle" x="155.25" y="-6.5" font-family="Helvetica,sans-Serif" font-size="10.00">SelectLevelButton</text>
</a>
</g>
</g>
<!-- Node0&#45;&gt;Node6 -->
<g id="edge6_Node000000_Node000006" class="edge">
<title>Node0&#45;&gt;Node6</title>
<g id="a_edge6_Node000000_Node000006"><a xlink:title=" ">
<path fill="none" stroke="#63b8ff" d="M46.75,-85.61C59.06,-68.59 78.97,-44.22 101.5,-29 106.42,-25.68 111.99,-22.86 117.62,-20.49"/>
<polygon fill="#63b8ff" stroke="#63b8ff" points="44.15,-83.23 41.29,-93.43 49.88,-87.24 44.15,-83.23"/>
</a>
</g>
</g>
</g>
</svg>
